<?xml version="1.0" encoding="utf-8"?>
<!-- Generator: Adobe Illustrator 22.1.0, SVG Export Plug-In . SVG Version: 6.00 Build 0)  -->
<svg version="1.1" id="Layer_1" xmlns="http://www.w3.org/2000/svg" xmlns:xlink="http://www.w3.org/1999/xlink" x="0px" y="0px"
	 viewBox="0 0 250 250" style="enable-background:new 0 0 250 250;" xml:space="preserve">
<style type="text/css">
	.st0{fill:none;stroke:#1D3766;stroke-linecap:round;stroke-linejoin:round;stroke-miterlimit:10;}
	.st1{fill:none;}
	.st2{enable-background:new    ;}
	.st3{fill:#1D3766;}
</style>
<path class="st0" d="M119.5,243c7.3-6.4,45.2-41.2,47.9-98.4c2.1-44.2-18.1-76-25.3-86.2"/>
<path class="st0" d="M134.5,241.4c-5,0.6-10,1.1-15,1.7c1.2-5.4,2.4-10.8,3.7-16.3"/>
<rect x="71.6" y="11.6" transform="matrix(0.9397 -0.342 0.342 0.9397 -10.683 45.0101)" class="st1" width="101.4" height="82.4"/>
<g class="st2">
	<path class="st3" d="M91.4,36.5c0.3,0.8,0.4,1.4,0.2,1.9c-0.1,0.5-0.4,1.1-0.8,1.6c-0.1,0.1-0.3,0.3-0.4,0.5
		c-0.2,0.2-0.4,0.4-0.7,0.6c-0.3,0.2-0.5,0.4-0.8,0.6c-0.3,0.2-0.6,0.3-0.9,0.4c-0.8,0.3-1.4,0.4-1.8,0.4s-0.7-0.1-0.8-0.4
		c-0.1-0.2-0.1-0.5,0-0.7s0.2-0.3,0.3-0.4l0.4,0.1c0.1,0.1,0.3,0.1,0.5,0.1s0.4,0,0.8-0.1c0.3-0.1,0.7-0.3,1.1-0.6s0.8-0.6,1.1-1
		c0.3-0.4,0.6-0.8,0.8-1.2c0.2-0.4,0.2-0.9,0-1.3c-0.1-0.4-0.6-0.6-1.3-0.8c-0.7-0.1-1.7,0-3,0.3c-0.7,0.2-1.3,0.3-2,0.5
		c-0.7,0.1-1.3,0.2-1.9,0.2s-1.1-0.1-1.5-0.3S80,36.4,79.8,36c-0.2-0.4-0.2-0.9-0.1-1.3c0.1-0.5,0.3-0.9,0.5-1.4s0.5-0.9,0.8-1.3
		c0.3-0.4,0.5-0.7,0.7-1c0.2-0.2,0.4-0.5,0.7-0.8c0.3-0.3,0.6-0.7,1-1c0.3-0.3,0.7-0.6,1.1-0.9s0.7-0.5,1-0.6s0.6-0.1,0.8,0
		c0.2,0.1,0.3,0.4,0.5,0.7c0.1,0.3,0.2,0.6,0.2,1s0.1,0.7,0.1,1s0,0.6,0,0.9s0,0.4,0,0.5c0,0.2-0.1,0.3-0.1,0.4
		c-0.1,0.1-0.1,0.1-0.2,0.1s-0.1,0-0.1-0.1s0-0.2-0.1-0.3c0-0.2-0.1-0.3-0.1-0.6c0-0.2-0.1-0.5-0.1-0.7c-0.1-0.2-0.1-0.5-0.2-0.7
		c-0.1-0.4-0.3-0.6-0.3-0.8c-0.1-0.2-0.3-0.2-0.5-0.1s-0.5,0.3-0.9,0.5c-0.4,0.3-0.7,0.6-1.1,0.9c-0.4,0.4-0.7,0.8-1,1.3
		c-0.3,0.5-0.6,0.9-0.8,1.4c-0.2,0.5-0.4,0.9-0.5,1.3s-0.1,0.7,0,0.9s0.3,0.3,0.6,0.4c0.3,0.1,0.8,0.1,1.2,0.1c0.5,0,1-0.1,1.6-0.2
		c0.6-0.1,1.1-0.2,1.6-0.3c0.4-0.1,0.9-0.2,1.5-0.3c0.5-0.1,1.1-0.1,1.6-0.1s1,0.1,1.4,0.3C91,35.7,91.2,36.1,91.4,36.5z"/>
	<path class="st3" d="M100.2,34.5L100.2,34.5c0.1,0.2,0.1,0.4,0,0.6c0,0.1-0.1,0.2-0.2,0.4s-0.3,0.4-0.5,0.7S99,36.7,98.6,37
		s-0.8,0.5-1.4,0.7C96.8,38,96.4,38,96,38s-0.9-0.2-1.3-0.4s-0.8-0.6-1.2-1c-0.4-0.4-0.7-1-0.9-1.7c-0.2-0.7-0.4-1.3-0.4-1.9
		c0-0.6,0-1.2,0.1-1.8s0.3-1,0.5-1.4s0.5-0.6,0.8-0.7s0.6-0.1,0.9-0.1s0.6,0.1,0.9,0.1s0.5,0.2,0.8,0.4c0.2,0.2,0.4,0.4,0.4,0.6
		c0.1,0.3,0.1,0.6-0.1,0.9c-0.1,0.4-0.3,0.7-0.6,1c-0.2,0.3-0.5,0.6-0.8,0.9c-0.3,0.3-0.5,0.4-0.7,0.5c-0.1,0-0.2,0-0.3,0
		c0-0.2-0.1-0.3-0.1-0.4c-0.1-0.2,0-0.5,0.1-0.7c0.2-0.2,0.4-0.4,0.6-0.6s0.4-0.4,0.6-0.6s0.2-0.5,0.1-0.8c0,0-0.1-0.1-0.2-0.2
		s-0.4-0.1-0.8,0c-0.2,0.1-0.3,0.2-0.5,0.5s-0.3,0.6-0.3,1c-0.1,0.4-0.1,0.9-0.1,1.4s0.1,1,0.3,1.5c0.2,0.4,0.4,0.8,0.7,1.1
		c0.3,0.3,0.6,0.5,0.9,0.7s0.7,0.2,1.1,0.2s0.8,0,1.1-0.2c0.3-0.1,0.5-0.2,0.8-0.5s0.5-0.4,0.7-0.7c0.2-0.2,0.4-0.4,0.6-0.6
		c0.2-0.2,0.3-0.3,0.3-0.3s0.1,0,0.2,0C100.2,34.4,100.2,34.4,100.2,34.5z"/>
	<path class="st3" d="M109.1,31.3l0.1,0.1c0,0.1,0,0.3-0.1,0.5c0,0.1-0.1,0.2-0.2,0.4s-0.3,0.4-0.5,0.7s-0.5,0.5-0.9,0.8
		s-0.8,0.5-1.4,0.7c-0.4,0.1-0.8,0.2-1.2,0.1c-0.4,0-0.9-0.2-1.3-0.4s-0.8-0.6-1.2-1c-0.4-0.4-0.7-1-0.9-1.7
		c-0.2-0.7-0.4-1.3-0.4-1.9s0-1.2,0.1-1.8c0.1-0.5,0.3-1,0.5-1.4s0.5-0.6,0.8-0.7s0.6-0.1,0.9-0.1s0.6,0.1,0.9,0.1
		c0.3,0.1,0.5,0.2,0.8,0.4c0.2,0.2,0.4,0.4,0.4,0.6c0.1,0.3,0.1,0.6-0.1,0.9c-0.1,0.4-0.3,0.7-0.6,1c-0.2,0.3-0.5,0.6-0.8,0.9
		s-0.5,0.4-0.7,0.5c-0.1,0-0.2,0-0.3,0c-0.1-0.1-0.2-0.2-0.2-0.3c-0.1-0.2,0-0.5,0.1-0.7c0.2-0.2,0.3-0.4,0.6-0.6
		c0.2-0.2,0.4-0.4,0.6-0.6s0.2-0.5,0.1-0.8c0,0-0.1-0.1-0.2-0.2s-0.4-0.1-0.8,0c-0.2,0.1-0.3,0.2-0.5,0.5c-0.1,0.3-0.3,0.6-0.3,1
		c-0.1,0.4-0.1,0.9-0.1,1.4s0.1,1,0.3,1.5c0.2,0.4,0.4,0.8,0.7,1.1c0.3,0.3,0.6,0.5,0.9,0.7s0.7,0.2,1.1,0.2s0.8,0,1.1-0.2
		c0.3-0.1,0.5-0.2,0.8-0.5c0.3-0.2,0.5-0.4,0.7-0.7c0.2-0.2,0.4-0.4,0.6-0.6s0.3-0.3,0.3-0.3s0.1,0,0.2,0
		C109,31.2,109.1,31.2,109.1,31.3z"/>
	<path class="st3" d="M128.8,21.8c0.1,0.1,0.2,0.1,0.2,0.1s0,0.2,0,0.4s-0.1,0.4-0.2,0.7c-0.1,0.2-0.2,0.5-0.3,0.7s-0.3,0.3-0.4,0.4
		c-0.4,0.1-0.7,0.2-0.9,0.1c-0.3-0.1-0.5-0.2-0.7-0.3c-0.2-0.2-0.4-0.4-0.6-0.6s-0.3-0.5-0.5-0.7c-0.1-0.1-0.1-0.2-0.2-0.1
		c-0.1,0-0.1,0.2-0.1,0.7c0,0.4,0,0.9-0.1,1.4s0,1-0.1,1.4c0,0.4-0.1,0.6-0.1,0.7c-0.3,0.1-0.6,0.1-0.9-0.1s-0.6-0.4-0.8-0.7
		s-0.5-0.6-0.7-1c-0.2-0.3-0.3-0.6-0.4-0.8c-0.2-0.4-0.6-1.2-1.2-2.2s-1.2-2.2-1.8-3.7c-0.2-0.3-0.3-0.6-0.4-0.8
		c-0.1-0.2-0.3-0.5-0.5-0.8s-0.3-0.7-0.5-1c-0.2-0.4-0.4-0.9-0.6-1.5c0,0,0-0.1-0.1-0.3s-0.1-0.4-0.1-0.6c0-0.2-0.1-0.4,0-0.6
		c0-0.2,0.1-0.3,0.2-0.4c0.1,0,0.3,0,0.4,0.1c0.2,0.1,0.3,0.2,0.4,0.4s0.3,0.3,0.4,0.5s0.2,0.3,0.2,0.3c0.1,0.3,0.2,0.5,0.2,0.7
		s0.1,0.4,0.2,0.6c0.1,0.3,0.2,0.6,0.4,0.9c0.2,0.4,0.4,0.8,0.6,1.1c0.2,0.4,0.4,0.8,0.6,1.1c0.2,0.4,0.3,0.7,0.5,0.9
		c0,0,0.1,0.1,0.2,0.3c0.1,0.2,0.3,0.5,0.4,0.8c0.2,0.3,0.3,0.7,0.5,1c0.2,0.4,0.4,0.7,0.5,1.1c0.2,0.3,0.3,0.6,0.5,0.9
		c0.1,0.3,0.2,0.5,0.3,0.6c0,0.1,0.1,0.1,0.1,0.2c0.1,0.1,0.1,0.2,0.2,0.3c0.1,0.1,0.1,0.2,0.2,0.3c0.1,0.1,0.1,0.1,0.2,0.2
		c0-0.2,0-0.6,0.1-1.1c0-0.5,0-1,0-1.5s0-1,0.1-1.3c0-0.4,0.1-0.6,0.2-0.6s0.3-0.1,0.4,0c0.1,0,0.2,0,0.4,0c0.2,0,0.3,0.1,0.3,0.2
		s0.1,0.2,0.2,0.4c0.1,0.2,0.3,0.4,0.5,0.7c0.2,0.3,0.4,0.6,0.6,0.9s0.4,0.5,0.6,0.7s0.4,0.2,0.5,0.2s0.1-0.1,0.2-0.4
		c0.1-0.2,0.2-0.4,0.4-0.5c0,0,0.1,0,0.2,0C128.6,21.7,128.7,21.8,128.8,21.8z"/>
	<path class="st3" d="M134.7,18.8c0.1,0.4,0.2,0.7,0.2,1.1s0,0.7-0.1,1s-0.2,0.6-0.4,0.8c-0.2,0.2-0.4,0.4-0.7,0.5
		c-0.5,0.2-0.9,0.2-1.3,0c-0.4-0.2-0.7-0.4-1-0.7c-0.3-0.3-0.5-0.6-0.7-1c-0.2-0.3-0.3-0.6-0.4-0.8c-0.1-0.3-0.2-0.7-0.2-1.1
		s0-0.8,0-1.2s0.1-0.7,0.2-1c0.1-0.3,0.3-0.5,0.5-0.6c0.1,0,0.1,0,0.3,0c0.1,0,0.3,0,0.4,0c0.1,0,0.3,0.1,0.4,0.1
		c0.1,0.1,0.2,0.2,0.3,0.3c0.2-0.1,0.4-0.1,0.6,0c0.2,0.1,0.4,0.1,0.4,0.2c0.3,0.4,0.5,0.8,0.7,1.2
		C134.4,18.1,134.6,18.5,134.7,18.8z M133.4,18.7c-0.1-0.3-0.2-0.5-0.4-0.8s-0.4-0.5-0.6-0.7l-0.1,0.1c-0.1,0-0.1,0-0.2,0H132
		c-0.2,0.1-0.3,0.2-0.4,0.3c-0.1,0.2-0.1,0.3-0.1,0.5s0,0.4,0.1,0.6s0.1,0.4,0.2,0.6c0.1,0.2,0.2,0.4,0.3,0.6s0.2,0.4,0.4,0.6
		c0.1,0.2,0.3,0.3,0.4,0.4c0.2,0.1,0.3,0.1,0.5,0.1c0.2-0.1,0.3-0.2,0.3-0.4c0.1-0.2,0.1-0.5,0.1-0.7s-0.1-0.5-0.1-0.7
		C133.4,19,133.4,18.8,133.4,18.7z"/>
	<path class="st3" d="M142.8,9.4c0.1,0,0.1,0,0.2,0.1c0,0.1,0,0.3,0,0.4c-0.1,0.2-0.1,0.3,0,0.5c0,0,0.1,0.2,0.1,0.4
		c0.1,0.2,0.2,0.5,0.3,0.7c0.1,0.3,0.2,0.5,0.3,0.8c0.1,0.2,0.1,0.4,0.1,0.4l0.9,2.5c0,0,0,0.1,0.1,0.4c0.1,0.2,0.1,0.5,0.2,0.8
		c0.1,0.3,0.1,0.7,0.2,1c0.1,0.3,0.1,0.6,0.2,0.9c0,0.1,0,0.1-0.1,0.2s-0.1,0.1-0.2,0.2c-0.1,0.1-0.2,0.1-0.2,0.1
		c-0.1,0-0.1,0.1-0.1,0.1c-0.2,0.1-0.4,0-0.7-0.1s-0.6-0.3-0.9-0.5c-0.3-0.2-0.5-0.4-0.8-0.6c-0.2-0.2-0.3-0.3-0.4-0.3
		c0,0.3,0,0.5,0,0.8s0,0.5,0,0.8c0,0.2-0.1,0.5-0.2,0.6c-0.1,0.2-0.2,0.3-0.3,0.4c-0.2,0.1-0.5,0-0.7-0.1s-0.6-0.3-1-0.5
		c-0.3-0.2-0.7-0.5-1-0.8s-0.7-0.6-1-1c-0.3-0.3-0.5-0.6-0.7-0.9s-0.3-0.5-0.4-0.7c0-0.1,0-0.2,0-0.3s0.1-0.2,0.2-0.3
		c0.2-0.1,0.4-0.1,0.6,0c0,0,0.1,0.1,0.3,0.4c0.2,0.3,0.5,0.5,0.8,0.9c0.3,0.3,0.7,0.7,1,1c0.4,0.3,0.8,0.6,1.2,0.8
		c0-0.3,0-0.5,0-0.8s-0.1-0.6-0.1-0.9s-0.1-0.5-0.2-0.7c-0.1-0.2-0.1-0.4-0.2-0.5c-0.1-0.1-0.2-0.2-0.2-0.4
		c-0.1-0.1-0.1-0.2-0.2-0.3c-0.1-0.1-0.1-0.2-0.1-0.3c-0.2-0.4-0.1-0.7,0.3-0.8c0.3-0.1,0.5-0.1,0.7,0s0.4,0.3,0.5,0.4
		c0.1,0.2,0.3,0.4,0.4,0.6c0.1,0.2,0.2,0.3,0.2,0.4c0.3,0.3,0.5,0.7,0.8,1c0.2,0.3,0.5,0.6,0.9,0.8c0-0.1,0.1-0.2,0.1-0.3
		c0-0.1,0-0.3-0.1-0.4c0-0.1-0.1-0.3-0.1-0.4c0-0.1-0.1-0.2-0.1-0.2l-1.8-5c0-0.1,0-0.2,0-0.3c0.1-0.1,0.1-0.2,0.2-0.3
		c0.1-0.1,0.2-0.2,0.3-0.3s0.2-0.1,0.2-0.2c0.1,0,0.2,0,0.3,0S142.7,9.3,142.8,9.4z"/>
</g>
<g class="st2">
	<path class="st3" d="M95.2,51.2c0.1,0,0.1,0,0.2,0.1c0,0.1,0,0.3,0,0.4c-0.1,0.2-0.1,0.3,0,0.5c0,0,0.1,0.2,0.1,0.4
		c0.1,0.2,0.2,0.5,0.3,0.7c0.1,0.3,0.2,0.5,0.3,0.8c0.1,0.2,0.1,0.4,0.1,0.4L97,57c0,0,0,0.1,0.1,0.4c0.1,0.2,0.1,0.5,0.2,0.8
		s0.1,0.7,0.2,1s0.1,0.6,0.2,0.9c0,0.1,0,0.1-0.1,0.2c-0.1,0.1-0.1,0.1-0.2,0.2c-0.1,0.1-0.2,0.1-0.2,0.1c-0.1,0-0.1,0.1-0.1,0.1
		c-0.2,0.1-0.4,0-0.7-0.1c-0.3-0.1-0.6-0.3-0.9-0.5s-0.5-0.4-0.8-0.6s-0.3-0.3-0.4-0.3c0,0.3,0,0.5,0,0.8s0,0.5,0,0.8
		c0,0.2-0.1,0.5-0.2,0.6c-0.1,0.2-0.2,0.3-0.3,0.4c-0.2,0.1-0.5,0-0.7-0.1c-0.3-0.1-0.6-0.3-1-0.5c-0.3-0.2-0.7-0.5-1-0.8
		s-0.7-0.6-1-1c-0.3-0.3-0.5-0.6-0.7-0.9S89.1,58,89,57.8c0-0.1,0-0.2,0-0.3s0.1-0.2,0.2-0.3c0.2-0.1,0.4-0.1,0.6,0
		c0,0,0.1,0.1,0.3,0.4c0.2,0.3,0.5,0.5,0.8,0.9c0.3,0.3,0.7,0.7,1,1s0.8,0.6,1.2,0.8c0-0.3,0-0.5,0-0.8S93,58.9,93,58.6
		s-0.1-0.5-0.2-0.7s-0.1-0.4-0.2-0.5s-0.2-0.2-0.2-0.4c-0.1-0.1-0.1-0.2-0.2-0.3s-0.1-0.2-0.1-0.3c-0.2-0.4-0.1-0.7,0.3-0.8
		c0.3-0.1,0.5-0.1,0.7,0s0.4,0.3,0.5,0.4c0.1,0.2,0.3,0.4,0.4,0.6s0.2,0.3,0.2,0.4c0.3,0.3,0.5,0.7,0.8,1c0.2,0.3,0.5,0.6,0.9,0.8
		c0-0.1,0.1-0.2,0.1-0.3s0-0.3-0.1-0.4c0-0.1-0.1-0.3-0.1-0.4c0-0.1-0.1-0.2-0.1-0.2l-1.8-5c0-0.1,0-0.2,0-0.3
		c0.1-0.1,0.1-0.2,0.2-0.3s0.2-0.2,0.3-0.3s0.2-0.1,0.2-0.2c0.1,0,0.2,0,0.3,0C95,51.1,95.1,51.2,95.2,51.2z"/>
	<path class="st3" d="M107.5,56.3L107.5,56.3c0.1,0.2,0.1,0.4,0,0.6c0,0.1-0.1,0.2-0.2,0.5c-0.1,0.2-0.3,0.4-0.5,0.7
		s-0.5,0.5-0.9,0.8s-0.8,0.5-1.4,0.7c-0.4,0.1-0.8,0.2-1.2,0.1c-0.4,0-0.9-0.2-1.3-0.4s-0.8-0.6-1.2-1c-0.4-0.4-0.7-1-0.9-1.7
		c-0.2-0.7-0.4-1.3-0.4-1.9c0-0.6,0-1.2,0.1-1.8c0.1-0.5,0.3-1,0.5-1.4s0.5-0.6,0.8-0.7c0.3-0.1,0.6-0.1,0.9-0.1s0.6,0.1,0.9,0.1
		s0.5,0.2,0.8,0.4c0.2,0.2,0.4,0.4,0.4,0.6c0.1,0.3,0.1,0.6-0.1,0.9c-0.1,0.4-0.3,0.7-0.6,1c-0.2,0.3-0.5,0.6-0.8,0.9
		c-0.3,0.3-0.5,0.4-0.7,0.5c-0.1,0-0.2,0-0.3,0c-0.1-0.1-0.2-0.2-0.2-0.3c-0.1-0.2,0-0.5,0.1-0.7c0.2-0.2,0.4-0.4,0.6-0.6
		c0.2-0.2,0.4-0.4,0.6-0.6c0.2-0.2,0.2-0.5,0.1-0.7c0,0-0.1-0.1-0.2-0.2c-0.1-0.1-0.4-0.1-0.8,0c-0.2,0.1-0.3,0.2-0.5,0.5
		c-0.1,0.3-0.3,0.6-0.3,1s-0.1,0.9-0.1,1.4s0.1,1,0.3,1.5c0.2,0.4,0.4,0.8,0.7,1.1c0.3,0.3,0.6,0.5,0.9,0.7s0.7,0.2,1.1,0.2
		s0.8,0,1.1-0.2c0.3-0.1,0.5-0.2,0.8-0.5s0.5-0.4,0.7-0.7c0.2-0.2,0.4-0.4,0.6-0.6s0.3-0.3,0.3-0.3c0.1,0,0.1,0,0.2,0
		C107.4,56.2,107.5,56.3,107.5,56.3z"/>
	<path class="st3" d="M124.4,40.6c0.1,0,0.1,0,0.2,0.1c0,0.1,0,0.3,0,0.4c-0.1,0.2-0.1,0.3,0,0.5c0,0,0.1,0.2,0.1,0.4
		c0.1,0.2,0.2,0.5,0.3,0.7c0.1,0.3,0.2,0.5,0.3,0.8c0.1,0.2,0.1,0.4,0.1,0.4l0.9,2.5c0,0,0,0.1,0.1,0.4c0.1,0.2,0.1,0.5,0.2,0.8
		s0.1,0.7,0.2,1s0.1,0.6,0.2,0.9c0,0.1,0,0.1-0.1,0.2c-0.1,0.1-0.1,0.1-0.2,0.2c-0.1,0.1-0.2,0.1-0.2,0.1l-0.1,0.1
		c-0.2,0.1-0.4,0-0.7-0.1c-0.3-0.1-0.6-0.3-0.9-0.5s-0.5-0.4-0.8-0.6s-0.3-0.3-0.4-0.3c0,0.3,0,0.5,0,0.8s0,0.5,0,0.8
		c0,0.2-0.1,0.5-0.2,0.6c-0.1,0.2-0.2,0.3-0.3,0.4c-0.2,0.1-0.5,0-0.7-0.1s-0.6-0.3-1-0.5c-0.3-0.2-0.7-0.5-1-0.8s-0.7-0.6-1-1
		c-0.3-0.3-0.5-0.6-0.7-0.9c-0.2-0.3-0.3-0.5-0.4-0.7c0-0.1,0-0.2,0-0.3s0.1-0.2,0.2-0.3c0.2-0.1,0.4-0.1,0.6,0c0,0,0.1,0.1,0.3,0.4
		s0.5,0.5,0.8,0.9c0.3,0.3,0.7,0.7,1,1c0.4,0.3,0.8,0.6,1.2,0.8c0-0.3,0-0.5,0-0.8s-0.1-0.6-0.1-0.9c0-0.3-0.1-0.5-0.2-0.7
		s-0.1-0.4-0.2-0.5s-0.2-0.2-0.2-0.4c-0.1-0.1-0.1-0.2-0.2-0.3s-0.1-0.2-0.1-0.3c-0.2-0.4-0.1-0.7,0.3-0.8c0.3-0.1,0.5-0.1,0.7,0
		s0.4,0.3,0.5,0.4c0.1,0.2,0.3,0.4,0.4,0.6c0.1,0.2,0.2,0.3,0.2,0.4c0.3,0.3,0.5,0.7,0.8,1s0.5,0.6,0.9,0.8c0.1-0.1,0.1-0.2,0.1-0.3
		s0-0.3-0.1-0.4c0-0.1-0.1-0.3-0.1-0.4c0-0.1-0.1-0.2-0.1-0.2l-1.8-5c0-0.1,0-0.2,0-0.3s0.1-0.2,0.2-0.3s0.2-0.2,0.3-0.3
		c0.1-0.1,0.2-0.1,0.2-0.2c0.1,0,0.2,0,0.3,0C124.1,40.5,124.2,40.5,124.4,40.6z"/>
	<path class="st3" d="M133.1,43.8c0.1,0.4,0.2,0.7,0.2,1.1s0,0.7-0.1,1s-0.2,0.6-0.4,0.8s-0.4,0.4-0.7,0.5c-0.5,0.2-0.9,0.2-1.3,0
		c-0.4-0.2-0.7-0.4-1-0.7s-0.5-0.6-0.7-1c-0.2-0.3-0.3-0.6-0.4-0.8c-0.1-0.3-0.2-0.7-0.2-1.1s0-0.8,0-1.2s0.1-0.7,0.2-1
		c0.1-0.3,0.3-0.5,0.5-0.6c0.1,0,0.1,0,0.3,0c0.1,0,0.3,0,0.4,0c0.1,0,0.3,0.1,0.4,0.1c0.1,0.1,0.2,0.2,0.3,0.3
		c0.2-0.1,0.4-0.1,0.6,0c0.2,0.1,0.4,0.1,0.4,0.2c0.3,0.4,0.5,0.8,0.7,1.2C132.9,43.2,133,43.5,133.1,43.8z M131.8,43.8
		c-0.1-0.3-0.2-0.5-0.4-0.8s-0.4-0.5-0.6-0.7l-0.1,0.1c-0.1,0-0.1,0-0.2,0s-0.1,0-0.1,0c-0.2,0.1-0.3,0.2-0.4,0.3s-0.1,0.3-0.1,0.5
		s0,0.4,0.1,0.6c0.1,0.2,0.1,0.4,0.2,0.6c0.1,0.2,0.2,0.4,0.2,0.6c0.1,0.2,0.2,0.4,0.4,0.6c0.1,0.2,0.3,0.3,0.4,0.4
		c0.2,0.1,0.3,0.1,0.5,0.1c0.2-0.1,0.3-0.2,0.3-0.4c0.1-0.2,0.1-0.5,0.1-0.7c0-0.3-0.1-0.5-0.1-0.7C131.9,44,131.9,43.9,131.8,43.8z
		"/>
	<path class="st3" d="M140.9,38.4c0,0.1,0,0.2,0,0.3c-0.1,0.1-0.2,0.2-0.3,0.3s-0.2,0.2-0.4,0.3c-0.1,0.1-0.2,0.1-0.3,0.2
		c-0.3,0.1-0.4,0.1-0.5,0.1s-0.2,0-0.2,0c-0.4,0.2-0.7,0.3-1,0.5c-0.2,0.2-0.4,0.3-0.5,0.5s-0.1,0.4-0.1,0.7c0,0.2,0.1,0.5,0.2,0.8
		c0.2,0.5,0.4,1,0.5,1.3c0.2,0.3,0.3,0.6,0.4,0.7c0.1,0.2,0.2,0.3,0.3,0.4c0.1,0.1,0.1,0.2,0.2,0.3c0,0.1,0,0.3-0.1,0.5
		s-0.2,0.3-0.3,0.4c-0.2,0.1-0.5,0-0.7-0.3c-0.3-0.3-0.6-0.7-0.9-1.1c-0.3-0.5-0.6-0.9-0.8-1.4s-0.4-0.8-0.5-1.1s-0.2-0.6-0.2-0.9
		c0-0.3-0.1-0.5,0-0.8c0-0.2,0.1-0.4,0.1-0.6s0.1-0.3,0.2-0.3c0.1,0,0.2,0,0.2,0c0.1,0,0.1,0.1,0.2,0.2c0.1,0.1,0.1,0.1,0.2,0.2
		c0.1,0,0.1,0.1,0.2,0c0.2-0.1,0.4-0.2,0.7-0.5s0.7-0.5,1.2-0.7s0.8-0.3,1-0.3c0.2-0.1,0.5-0.1,0.7-0.1c0.1,0,0.1,0,0.2,0
		S140.8,38.3,140.9,38.4z"/>
	<path class="st3" d="M153.7,39.4c0.1,0.1,0.1,0.2,0.1,0.3s-0.1,0.1-0.2,0.2c-0.1,0.1-0.3,0.2-0.5,0.4s-0.4,0.3-0.7,0.5
		c-0.2,0.2-0.5,0.3-0.8,0.5c-0.3,0.1-0.5,0.3-0.8,0.3c-0.3,0.1-0.6,0.2-1,0.3s-0.7,0.2-1.1,0.2c-0.3,0-0.7,0.1-1,0.1s-0.5,0-0.7-0.1
		c0.2,0.3,0.4,0.7,0.6,1c0.2,0.3,0.4,0.7,0.5,1c0,0.1,0,0.2,0,0.2c0,0.1-0.1,0.1-0.3,0.2c-0.1,0-0.2,0-0.3,0s-0.2-0.1-0.3-0.2
		c-0.3-0.3-0.5-0.6-0.7-0.8c-0.2-0.3-0.4-0.5-0.6-0.8c-0.2-0.3-0.4-0.6-0.6-0.9s-0.4-0.6-0.7-1c-0.4-0.6-0.9-1.2-1.4-1.9
		s-0.9-1.3-1.3-2c-0.4-0.6-0.8-1.2-1.1-1.7s-0.5-0.9-0.6-1.1c0-0.1-0.1-0.2-0.1-0.4c-0.1-0.2-0.1-0.3-0.1-0.5s0-0.3,0-0.5
		c0-0.1,0.1-0.2,0.3-0.3c0.1,0,0.2,0.1,0.4,0.3s0.4,0.5,0.6,0.8s0.4,0.6,0.5,0.8c0.2,0.3,0.2,0.4,0.3,0.4c0.2,0.3,0.4,0.7,0.7,1.1
		c0.3,0.4,0.5,0.8,0.8,1.3c0.3,0.4,0.5,0.8,0.8,1.2s0.5,0.7,0.8,0.9c0-0.2-0.1-0.4-0.1-0.8s0-0.8,0-1.2s0.1-0.9,0.2-1.4
		c0.1-0.5,0.2-0.9,0.3-1.3c0.1-0.4,0.2-0.8,0.4-1s0.3-0.5,0.5-0.5c0.3-0.1,0.6-0.2,0.7-0.1c0.2,0,0.3,0.1,0.3,0.2
		c0,0.1,0,0.4-0.2,0.8s-0.4,0.9-0.5,1.5c-0.2,0.6-0.3,1.3-0.3,2.1c-0.1,0.8,0.1,1.5,0.4,2.3c0.1,0.3,0.3,0.5,0.5,0.7
		s0.5,0.2,0.8,0.3c0.3,0,0.6,0,1,0s0.7-0.1,1-0.2c0.3-0.1,0.6-0.2,0.9-0.4c0.3-0.1,0.6-0.3,0.9-0.4c0.3-0.1,0.5-0.2,0.7-0.3
		s0.3-0.2,0.4-0.2c0.1,0,0.2,0,0.3,0C153.6,39.2,153.7,39.3,153.7,39.4z"/>
</g>
</svg>
