<?xml version="1.0" encoding="utf-8"?>
<!-- Generator: Adobe Illustrator 22.1.0, SVG Export Plug-In . SVG Version: 6.00 Build 0)  -->
<svg version="1.1" id="Layer_1" xmlns="http://www.w3.org/2000/svg" xmlns:xlink="http://www.w3.org/1999/xlink" x="0px" y="0px"
	 viewBox="0 0 150 50" style="enable-background:new 0 0 150 50;" xml:space="preserve">
<style type="text/css">
	.st0{fill:#1D3766;}
	.st1{fill:#C62030;}
	.st2{opacity:0.75;}
	.st3{fill:none;}
	.st4{fill:none;stroke:#EC1C24;stroke-width:0.7942;stroke-miterlimit:10;}
</style>
<g>
	<path class="st0" d="M0.5,45.4h2.9c1,0,1.3,0.5,1.3,1.2v0.3c0,0.5-0.2,1.1-1,1.1H1.6v0.9H0.5V45.4z M1.6,47.2h1.6
		c0.2,0,0.3-0.2,0.3-0.3v-0.1c0-0.2-0.1-0.3-0.4-0.3H1.6V47.2z"/>
	<path class="st0" d="M6.5,45.4h1.4l1.9,3.4H8.6l-0.3-0.6H6.2l-0.3,0.6H4.7L6.5,45.4z M6.5,47.5h1.4l-0.6-1.3L6.5,47.5z"/>
	<path class="st0" d="M9.5,45.4h4.1v0.9h-1.5v2.6H11v-2.6H9.5V45.4z"/>
	<path class="st0" d="M14.1,45.4h1.1v3.4h-1.1V45.4z"/>
	<path class="st0" d="M15.9,45.4h3.7v0.7H17v0.5h2.6v0.7H17V48h2.8v0.9h-3.9V45.4z"/>
	<path class="st0" d="M20.3,45.4h1.6l2,2.5l0,0v-2.5H25v3.4h-1.6l-2-2.5l0,0v2.5h-1.1V45.4z"/>
	<path class="st0" d="M25.5,45.4h4.1v0.9H28v2.6H27v-2.6h-1.5C25.5,46.3,25.5,45.4,25.5,45.4z"/>
	<path class="st0" d="M30,47.8H31c0,0.3,0.1,0.4,0.4,0.4h1.3c0.2,0,0.4,0,0.4-0.3s-0.1-0.3-1.5-0.3c-1.6,0-1.8-0.2-1.8-1.1
		c0-0.6,0.1-1.1,1.4-1.1h1.5c1.2,0,1.3,0.4,1.3,1.1v0.1H33c0-0.2,0-0.3-0.5-0.3h-1.2c-0.2,0-0.4,0.1-0.4,0.2c0,0.3,0.1,0.3,1.3,0.3
		c1.6,0,2,0.1,2,1.1S33.8,49,32.4,49h-1.3c-1,0-1.4-0.2-1.4-1v-0.2H30z"/>
	<path class="st0" d="M37.2,45.4h3.6v0.9h-2.6v0.6h2.5v0.7h-2.5v1.2h-1.1V45.4z"/>
	<path class="st0" d="M41.5,45.4h1.1v3.4h-1.1V45.4z"/>
	<path class="st0" d="M43.3,45.4h3.2c0.9,0,1.1,0.4,1.1,1.1v0.2c0,0.4-0.1,0.7-0.6,0.9l0,0c0.3,0.1,0.5,0.2,0.5,0.7v0.5h-1.1v-0.4
		c0-0.3-0.1-0.4-0.4-0.4h-1.7v0.9h-1.1v-3.4H43.3z M44.4,47.2h1.7c0.3,0,0.4-0.1,0.4-0.3v-0.1c0-0.3-0.1-0.3-0.5-0.3h-1.6V47.2z"/>
	<path class="st0" d="M48.3,47.8h1.1c0,0.3,0.1,0.4,0.4,0.4h1.3c0.2,0,0.4,0,0.4-0.3s-0.1-0.3-1.5-0.3c-1.6,0-1.8-0.2-1.8-1.1
		c0-0.6,0.1-1.1,1.4-1.1h1.5c1.2,0,1.3,0.4,1.3,1.1v0.1h-1.1c0-0.2,0-0.3-0.5-0.3h-1.2c-0.2,0-0.4,0.1-0.4,0.2
		c0,0.3,0.1,0.3,1.3,0.3c1.6,0,2,0.1,2,1.1S52.1,49,50.7,49h-1.3c-1,0-1.4-0.2-1.4-1v-0.2H48.3z"/>
	<path class="st0" d="M53,45.4h4.1v0.9h-1.5v2.6h-1.1v-2.6H53C53,46.3,53,45.4,53,45.4z"/>
	<path class="st0" d="M59.8,44.9h0.2v4.7h-0.2C59.8,49.6,59.8,44.9,59.8,44.9z"/>
	<path class="st1" d="M63,45.4h2.8c0.6,0,1,0.1,1,1c0,0.7-0.1,1.2-1.1,1.2h-2.2V49H63V45.4z M66.5,46.3c0-0.4-0.2-0.5-0.6-0.5h-2.2
		v1.3h2.2c0.3,0,0.6-0.1,0.6-0.5V46.3z"/>
	<path class="st1" d="M67.4,46.7c0-0.9,0.3-1.3,1.2-1.3h2c1,0,1.2,0.4,1.2,1.3v1c0,0.9-0.3,1.3-1.2,1.3h-2c-1,0-1.2-0.4-1.2-1.3
		V46.7z M71.4,46.5c0-0.6-0.3-0.7-0.9-0.7h-1.9c-0.4,0-0.9,0.1-0.9,0.7v1.3c0,0.6,0.3,0.7,0.9,0.7h2c0.4,0,0.9-0.1,0.9-0.7v-1.3
		H71.4z"/>
	<path class="st1" d="M72.3,45.4h0.5l1.2,3l1.2-3h0.6l1.2,3l1.2-3h0.4l-1.4,3.4h-0.6l-1.2-3l-1.2,3h-0.6L72.3,45.4z"/>
	<path class="st1" d="M79.1,45.4h3.3v0.4h-2.9v1.1h2.8v0.4h-2.8v1.2h2.9V49H79v-3.5H79.1z"/>
	<path class="st1" d="M83.2,45.4H86c1,0,1.2,0.3,1.2,1v0.3c0,0.5-0.3,0.6-0.6,0.6l0,0c0.4,0.1,0.6,0.3,0.6,0.6v0.9h-0.4v-0.7
		c0-0.5-0.2-0.6-0.6-0.6h-2.2v1.4h-0.4v-3.4H83.2z M85.9,47.2c0.5,0,0.7-0.1,0.7-0.5v-0.3c0-0.4-0.2-0.5-0.9-0.5h-2.1v1.3h2.2V47.2z
		"/>
	<path class="st1" d="M87.9,45.4h3.4v0.4h-2.9v1.1h2.8v0.4h-2.8v1.2h2.9V49h-3.4V45.4z"/>
	<path class="st1" d="M92,45.4h2.8c1.2,0,1.5,0.3,1.5,1.7c0,1.3-0.3,1.7-1.5,1.7H92V45.4z M95.7,46.9c0-1-0.3-1.2-0.9-1.2h-2.5v2.8
		h2.4c0.5,0,1-0.1,1-1.2C95.7,47.4,95.7,46.9,95.7,46.9z"/>
	<path class="st1" d="M98.8,45.4h2.9c0.7,0,1,0.3,1,0.7v0.3c0,0.2-0.1,0.5-0.5,0.5l0,0c0.3,0,0.6,0.1,0.6,0.6v0.4
		c0,0.4-0.4,0.7-1,0.7h-3C98.8,48.9,98.8,45.4,98.8,45.4z M102.1,46.2c0-0.3-0.3-0.3-0.5-0.3h-2.5v1.1h2.4c0.2,0,0.5-0.1,0.5-0.4
		v-0.3H102.1z M102.4,47.8c0-0.4-0.2-0.5-0.6-0.5h-2.4v1.3h2.5c0.4,0,0.6-0.1,0.6-0.4v-0.3H102.4z"/>
	<path class="st1" d="M105.2,47.4l-1.9-2h0.6l1.6,1.6l1.6-1.6h0.6l-1.9,2v1.5h-0.4v-1.5H105.2z"/>
	<path class="st1" d="M110,45.4h3.4v0.4h-2.9v1.1h2.8v0.4h-2.8v1.2h2.9V49H110V45.4z"/>
	<path class="st1" d="M113.7,45.4h0.5l1.7,3l1.7-3h0.5l-1.9,3.4h-0.6L113.7,45.4z"/>
	<path class="st1" d="M118.6,45.4h0.4v3.4h-0.4V45.4z"/>
	<path class="st1" d="M120,45.4h2.8c1.2,0,1.5,0.3,1.5,1.7c0,1.3-0.3,1.7-1.5,1.7H120V45.4z M123.8,46.9c0-1-0.3-1.2-0.9-1.2h-2.5
		v2.8h2.4c0.5,0,1-0.1,1-1.2C123.8,47.4,123.8,46.9,123.8,46.9z"/>
	<path class="st1" d="M125.1,45.4h3.4v0.4h-2.9v1.1h2.8v0.4h-2.8v1.2h2.9V49h-3.4V45.4z"/>
	<path class="st1" d="M129.1,45.4h0.6l3.1,3v-3h0.4v3.4h-0.5l-3.1-3v3h-0.4v-3.4H129.1z"/>
	<path class="st1" d="M134.3,46.7c0-0.9,0.3-1.3,1.2-1.3h1.8c0.9,0,1.1,0.4,1.1,0.9v0.3h-0.4v-0.2c0-0.5-0.3-0.6-0.7-0.6h-1.6
		c-0.4,0-0.9,0.1-0.9,0.7v1.3c0,0.6,0.3,0.7,0.9,0.7h1.6c0.6,0,0.9-0.1,0.9-0.6v-0.2h0.4v0.2c0,0.6-0.2,1-1.2,1h-1.7
		c-1,0-1.2-0.4-1.2-1.3v-0.9H134.3z"/>
	<path class="st1" d="M139.2,45.4h3.4v0.4h-2.9v1.1h2.8v0.4h-2.8v1.2h2.9V49h-3.4V45.4z"/>
</g>
<g>
	<path class="st1" d="M29.6,9.8C4.3,6.4,11.9,21.2,11.9,21.2s-5.2-5.1-4.9-10C7.1,7,12,2.8,25.5,4.6c3.6,0.5,8.2,1.9,13.4,4V1.7H0.5
		v31.8c4.9,0.1,8.9-0.1,12.9-0.9c25.2-5,13.1-16.6,13.1-16.6s6.6,3.1,7.9,7.7c1.2,4.1-2,9.6-15.3,12.3c-4.6,1-11.2,1-18.5,0.4v3.5
		h38.3V12C35.6,11,32.7,10.2,29.6,9.8z"/>
</g>
<g class="st2">
	<circle cx="19.7" cy="21" r="5"/>
</g>
<g>
	<path class="st0" d="M14.5,21c0-2.8,2.2-5,5-5c2.8,0,5,2.2,5,5s-2.2,5-5,5C16.9,26.1,14.5,23.8,14.5,21z"/>
</g>
<g>
	<path class="st0" d="M99.4,19.7L99.4,19.7c3.6-1.3,6.2-4.1,6.2-8.2c0-7.6-7-9.7-12.9-9.7h-15v37.7h15c7.2,0,14.4-2.8,14.4-10.9
		C107.1,23.6,103.6,20.5,99.4,19.7z M86.4,9h4.5c3.9,0,5.8,1.1,5.8,3.6c0,2.7-1.9,4.1-5.4,4.1h-4.9V9z M91.5,32.2h-5.1v-8.7h5
		c3.9,0,6.4,1,6.4,4.2C98,31.4,94.4,32.2,91.5,32.2z"/>
	<path class="st0" d="M128.6,32.2c-6.3,0-10.7-4.7-10.7-11.6c0-6.6,4.5-11.6,10.8-11.6c2.9,0,5.9,1.1,7.6,3.4l6.2-6.2
		c-3.1-3.6-8.9-5.6-14.1-5.6c-11.5,0-20.5,7.7-20.5,19.8c0,11.8,8.7,19.9,20.3,19.9c6.3,0,11.4-2.4,14.7-6.2l-6.3-6
		C134.9,30.6,132.1,32.2,128.6,32.2z"/>
	<path class="st0" d="M51.3,1.9h-9.1v11.9c3,1.3,6,2.4,9.1,3.9V1.9z"/>
	<path class="st0" d="M65.4,24.6c0,4.1-1.9,7.8-7.1,7.8c-5.1,0-7.1-3.7-7.1-7.8V17c-3.4-1.5-6.4-2.7-9.1-3.7v12.1
		c0,9.1,6.2,15.2,16.1,15.2c9.9,0,16.3-6.2,16.3-15.2V1.9h-9.1V24.6z"/>
	<path class="st0" d="M141.7,10.1c-1.2,0-2,1-2,2s1,2,2,2s2-0.9,2-2S142.7,10.1,141.7,10.1z M141.7,14c-1,0-1.7-0.7-1.7-1.7
		c0-1,0.7-1.7,1.7-1.7c1,0,1.7,0.7,1.7,1.7C143.4,13.2,142.6,14,141.7,14z"/>
	<path class="st0" d="M142.5,11.7c0-0.5-0.4-0.6-0.9-0.6h-0.9v2.4h0.4v-1h0.3l0.5,1h0.5l-0.6-1.1C142.3,12.2,142.5,12,142.5,11.7z
		 M141.2,12v-0.6h0.4c0.2,0,0.4,0.1,0.4,0.3c0,0.3-0.3,0.3-0.5,0.3H141.2z"/>
</g>
<line class="st3" x1="89.2" y1="45.8" x2="89.2" y2="45.8"/>
<line class="st4" x1="90.3" y1="43.8" x2="90.3" y2="43.8"/>
</svg>
