<?xml version="1.0" encoding="utf-8"?>
<!-- Generator: Adobe Illustrator 22.1.0, SVG Export Plug-In . SVG Version: 6.00 Build 0)  -->
<svg version="1.1" id="Layer_2" xmlns="http://www.w3.org/2000/svg" xmlns:xlink="http://www.w3.org/1999/xlink" x="0px" y="0px"
	 viewBox="0 0 150 50" style="enable-background:new 0 0 150 50;" xml:space="preserve">
<style type="text/css">
	.st0{fill:#1D3766;}
	.st1{fill:#C62030;}
	.st2{opacity:0.75;}
	.st3{fill:none;}
	.st4{fill:none;stroke:#EC1C24;stroke-width:0.7942;stroke-miterlimit:10;}
</style>
<g>
	<path class="st0" d="M0.4,45.1h2.9c1,0,1.2,0.5,1.2,1.2v0.3c0,0.5-0.2,1.1-1,1.1H1.5v0.9H0.4V45.1z M1.5,46.8h1.6
		c0.2,0,0.3-0.2,0.3-0.4v-0.1C3.4,46.1,3.3,46,3,46H1.5V46.8z"/>
	<path class="st0" d="M6.3,45.1h1.4l1.9,3.4H8.4L8.1,48H6l-0.3,0.6H4.5L6.3,45.1z M6.4,47.2h1.3L7,45.9L6.4,47.2z"/>
	<path class="st0" d="M9.4,45.1h4V46h-1.5v2.6h-1.1V46H9.4V45.1z"/>
	<path class="st0" d="M13.9,45.1h1.1v3.4h-1.1V45.1z"/>
	<path class="st0" d="M15.7,45.1h3.8v0.8h-2.7v0.5h2.6v0.7h-2.6v0.5h2.8v0.8h-3.8V45.1z"/>
	<path class="st0" d="M20.1,45.1h1.6l2,2.5h0v-2.5h1.1v3.4h-1.6l-2-2.5h0v2.5h-1.1V45.1z"/>
	<path class="st0" d="M25.3,45.1h4V46h-1.5v2.6h-1.1V46h-1.5V45.1z"/>
	<path class="st0" d="M29.7,47.4h1.1c0,0.4,0.2,0.4,0.5,0.4h1.3c0.2,0,0.5,0,0.5-0.3c0-0.3-0.1-0.3-1.5-0.3c-1.6,0-1.8-0.2-1.8-1
		c0-0.6,0.1-1.1,1.4-1.1h1.5c1.2,0,1.3,0.4,1.3,1v0.1h-1.1c0-0.3,0-0.4-0.5-0.4h-1.2c-0.2,0-0.4,0.1-0.4,0.3c0,0.3,0.1,0.3,1.3,0.3
		c1.6,0,2,0.1,2,1.1c0,0.9-0.3,1.1-1.7,1.1H31c-1,0-1.3-0.2-1.3-0.9V47.4z"/>
	<path class="st0" d="M37,45.1h3.6V46H38v0.6h2.4v0.8H38v1.2H37V45.1z"/>
	<path class="st0" d="M41.2,45.1h1.1v3.4h-1.1V45.1z"/>
	<path class="st0" d="M43,45.1h3.2c0.8,0,1,0.4,1,1v0.2c0,0.5-0.1,0.7-0.6,0.8v0c0.3,0.1,0.6,0.2,0.6,0.8v0.6h-1.1v-0.4
		c0-0.4-0.1-0.5-0.4-0.5h-1.7v0.9H43V45.1z M44.1,46.8h1.7c0.3,0,0.4-0.1,0.4-0.4v-0.1c0-0.3-0.2-0.4-0.5-0.4h-1.6V46.8z"/>
	<path class="st0" d="M47.9,47.4h1.1c0,0.4,0.2,0.4,0.5,0.4h1.3c0.2,0,0.5,0,0.5-0.3c0-0.3-0.1-0.3-1.5-0.3c-1.6,0-1.8-0.2-1.8-1
		c0-0.6,0.1-1.1,1.4-1.1h1.5c1.2,0,1.3,0.4,1.3,1v0.1H51c0-0.3,0-0.4-0.5-0.4h-1.2c-0.2,0-0.4,0.1-0.4,0.3c0,0.3,0.1,0.3,1.3,0.3
		c1.6,0,2,0.1,2,1.1c0,0.9-0.3,1.1-1.7,1.1h-1.3c-1,0-1.3-0.2-1.3-0.9V47.4z"/>
	<path class="st0" d="M52.6,45.1h4V46h-1.5v2.6h-1.1V46h-1.5V45.1z"/>
	<path class="st0" d="M59.5,44.6h0.2v4.7h-0.2V44.6z"/>
	<path class="st1" d="M62.7,45.1h2.8c0.6,0,1,0.1,1,0.9c0,0.8-0.1,1.1-1.1,1.1h-2.3v1.4h-0.5V45.1z M66,46c0-0.4-0.2-0.5-0.6-0.5
		h-2.3v1.3h2.3c0.4,0,0.6-0.1,0.6-0.5V46z"/>
	<path class="st1" d="M67,46.4c0-0.9,0.3-1.3,1.2-1.3h2c0.9,0,1.2,0.4,1.2,1.3v0.9c0,0.9-0.3,1.3-1.2,1.3h-2c-0.9,0-1.2-0.4-1.2-1.3
		V46.4z M71,46.2c0-0.6-0.4-0.7-0.8-0.7h-1.9c-0.4,0-0.8,0.1-0.8,0.7v1.3c0,0.6,0.4,0.7,0.8,0.7h1.9c0.4,0,0.8-0.1,0.8-0.7V46.2z"/>
	<path class="st1" d="M71.9,45.1h0.5l1.2,3l1.2-3h0.6l1.2,3l1.2-3h0.5l-1.4,3.4h-0.6l-1.2-3l-1.2,3h-0.6L71.9,45.1z"/>
	<path class="st1" d="M78.6,45.1h3.4v0.4H79v1.1h2.8V47H79v1.2H82v0.4h-3.4V45.1z"/>
	<path class="st1" d="M82.6,45.1h2.7c1,0,1.1,0.3,1.1,1v0.3c0,0.5-0.3,0.6-0.6,0.6v0c0.5,0.1,0.6,0.3,0.6,0.6v0.9h-0.4v-0.8
		c0-0.5-0.3-0.6-0.7-0.6h-2.3v1.4h-0.5V45.1z M85.3,46.8c0.5,0,0.7-0.1,0.7-0.5V46c0-0.4-0.2-0.5-0.8-0.5h-2.1v1.3H85.3z"/>
	<path class="st1" d="M87.3,45.1h3.4v0.4h-2.9v1.1h2.8V47h-2.8v1.2h2.9v0.4h-3.4V45.1z"/>
	<path class="st1" d="M91.4,45.1h2.8c1.2,0,1.5,0.4,1.5,1.7c0,1.3-0.3,1.7-1.5,1.7h-2.8V45.1z M95.2,46.7c0-1-0.3-1.2-0.9-1.2h-2.4
		v2.7h2.4c0.6,0,1-0.1,1-1.2V46.7z"/>
	<path class="st1" d="M98.2,45.1h2.9c0.7,0,0.9,0.4,0.9,0.8v0.3c0,0.2-0.1,0.5-0.6,0.5v0c0.4,0,0.7,0.2,0.7,0.7v0.4
		c0,0.5-0.4,0.7-1,0.7h-3V45.1z M101.6,45.9c0-0.3-0.3-0.4-0.5-0.4h-2.4v1.1h2.4c0.3,0,0.5-0.1,0.5-0.4V45.9z M101.7,47.5
		c0-0.4-0.2-0.5-0.7-0.5h-2.4v1.2h2.5c0.4,0,0.6-0.2,0.6-0.5V47.5z"/>
	<path class="st1" d="M104.6,47.1l-2-2h0.6l1.6,1.6l1.6-1.6h0.6l-2,2v1.5h-0.5V47.1z"/>
	<path class="st1" d="M109.3,45.1h3.4v0.4h-2.9v1.1h2.8V47h-2.8v1.2h2.9v0.4h-3.4V45.1z"/>
	<path class="st1" d="M113,45.1h0.5l1.7,3l1.7-3h0.5l-1.9,3.4H115L113,45.1z"/>
	<path class="st1" d="M118,45.1h0.5v3.4H118V45.1z"/>
	<path class="st1" d="M119.3,45.1h2.8c1.2,0,1.5,0.4,1.5,1.7c0,1.3-0.3,1.7-1.5,1.7h-2.8V45.1z M123.1,46.7c0-1-0.3-1.2-0.9-1.2
		h-2.4v2.7h2.4c0.6,0,1-0.1,1-1.2V46.7z"/>
	<path class="st1" d="M124.4,45.1h3.4v0.4h-2.9v1.1h2.8V47h-2.8v1.2h2.9v0.4h-3.4V45.1z"/>
	<path class="st1" d="M128.4,45.1h0.7l3.1,3v-3h0.5v3.4H132l-3.1-3v3h-0.5V45.1z"/>
	<path class="st1" d="M133.5,46.4c0-0.9,0.3-1.3,1.2-1.3h1.8c0.8,0,1.1,0.4,1.1,0.9v0.3h-0.4v-0.2c0-0.6-0.4-0.6-0.8-0.6h-1.6
		c-0.4,0-0.8,0.1-0.8,0.7v1.3c0,0.6,0.4,0.7,0.8,0.7h1.6c0.6,0,0.8-0.1,0.8-0.6v-0.2h0.4v0.2c0,0.6-0.2,1-1.2,1h-1.8
		c-0.9,0-1.2-0.4-1.2-1.3V46.4z"/>
	<path class="st1" d="M138.4,45.1h3.4v0.4h-2.9v1.1h2.8V47h-2.8v1.2h2.9v0.4h-3.4V45.1z"/>
</g>
<g>
	<path class="st1" d="M29.4,9.7C4.1,6.2,11.7,21,11.7,21s-5.2-5.1-4.9-9.9c0.2-4.3,5-8.4,18.4-6.6c3.6,0.5,8.3,1.9,13.3,3.9V1.6H0.4
		v31.7c4.9,0.1,8.9-0.1,12.8-0.9c25-5,13-16.5,13-16.5s6.6,3.1,7.9,7.7c1.2,4.1-2,9.6-15.3,12.3c-4.5,0.9-11.2,0.9-18.5,0.4v3.5
		h38.2V11.9C35.3,10.8,32.4,10.1,29.4,9.7z"/>
</g>
<g class="st2">
	<circle cx="19.4" cy="20.8" r="5"/>
</g>
<g>
	<path class="st0" d="M14.4,20.8c0-2.8,2.3-5.1,5.1-5.1c2.8,0,5.1,2.3,5.1,5.1c0,2.8-2.3,5.1-5.1,5.1C16.6,25.8,14.4,23.6,14.4,20.8
		z"/>
</g>
<g>
	<path class="st0" d="M98.7,19.6v-0.1c3.7-1.2,6.2-4,6.2-8.1c0-7.6-6.9-9.7-12.8-9.7h-15v37.5h15c7.2,0,14.3-2.8,14.3-10.9
		C106.4,23.4,103,20.3,98.7,19.6z M85.9,8.9h4.5c3.8,0,5.8,1.1,5.8,3.7c0,2.7-2,4.1-5.4,4.1h-4.9V8.9z M91,31.9h-5.1v-8.6h5
		c3.9,0,6.4,1,6.4,4.1C97.4,31.1,93.9,31.9,91,31.9z"/>
	<path class="st0" d="M127.9,31.9c-6.3,0-10.7-4.7-10.7-11.5c0-6.6,4.5-11.5,10.8-11.5c2.9,0,5.9,1.1,7.6,3.4l6.2-6.2
		c-3.1-3.6-8.8-5.5-14.1-5.5c-11.5,0-20.4,7.7-20.4,19.7c0,11.8,8.6,19.8,20.2,19.8c6.3,0,11.3-2.4,14.6-6.2l-6.3-5.9
		C134.2,30.3,131.4,31.9,127.9,31.9z"/>
	<path class="st0" d="M50.9,1.7h-9v11.9c2.9,1.3,6,2.3,9,3.8V1.7z"/>
	<path class="st0" d="M65,24.4c0,4-1.9,7.7-7.1,7.7c-5.1,0-7.1-3.7-7.1-7.7v-7.6c-3.4-1.5-6.3-2.7-9-3.7v12c0,9,6.2,15.2,16,15.2
		c9.8,0,16.2-6.2,16.2-15.2V1.7H65V24.4z"/>
	<path class="st0" d="M140.9,10c-1.1,0-2.1,0.9-2.1,2.1s0.9,2,2.1,2c1.1,0,2.1-0.9,2.1-2S142,10,140.9,10z M140.9,13.8
		c-1,0-1.7-0.8-1.7-1.7c0-1,0.8-1.7,1.7-1.7c1,0,1.7,0.8,1.7,1.7C142.6,13,141.8,13.8,140.9,13.8z"/>
	<path class="st0" d="M141.7,11.6c0-0.5-0.4-0.7-0.9-0.7h-0.8v2.3h0.4v-1h0.3l0.5,1h0.5l-0.6-1C141.5,12.1,141.7,11.9,141.7,11.6z
		 M140.5,11.9v-0.7h0.4c0.2,0,0.5,0.1,0.5,0.3c0,0.3-0.3,0.3-0.5,0.3H140.5z"/>
</g>
<line class="st3" x1="88.6" y1="45.4" x2="88.6" y2="45.4"/>
<line class="st4" x1="89.7" y1="43.6" x2="89.7" y2="43.6"/>
</svg>
