<?xml version="1.0" encoding="utf-8"?>
<!-- Generator: Adobe Illustrator 22.1.0, SVG Export Plug-In . SVG Version: 6.00 Build 0)  -->
<svg version="1.1" id="Layer_1" xmlns="http://www.w3.org/2000/svg" xmlns:xlink="http://www.w3.org/1999/xlink" x="0px" y="0px"
	 viewBox="0 0 150 50" style="enable-background:new 0 0 150 50;" xml:space="preserve">
<style type="text/css">
	.st0{fill:#1D3766;}
	.st1{fill:#C62030;}
	.st2{opacity:0.75;}
	.st3{fill:none;}
	.st4{fill:none;stroke:#EC1C24;stroke-width:0.7942;stroke-miterlimit:10;}
</style>
<g>
	<path class="st0" d="M8.5,44.1h2.7c0.9,0,1.2,0.5,1.2,1.1v0.3c0,0.5-0.2,1-0.9,1h-2v0.8h-1V44.1z M9.5,45.7h1.5
		c0.2,0,0.3-0.2,0.3-0.3v-0.1c0-0.2-0.1-0.3-0.4-0.3H9.5V45.7z"/>
	<path class="st0" d="M14.1,44.1h1.3l1.8,3.2h-1.1l-0.3-0.6h-2l-0.3,0.6h-1.1L14.1,44.1z M14.1,46h1.3l-0.6-1.2L14.1,46z"/>
	<path class="st0" d="M16.9,44.1h3.8v0.8h-1.4v2.4h-1v-2.4h-1.4V44.1z"/>
	<path class="st0" d="M21.2,44.1h1v3.2h-1V44.1z"/>
	<path class="st0" d="M22.9,44.1h3.5v0.7h-2.5v0.5h2.4V46h-2.4v0.5h2.6v0.8h-3.6V44.1z"/>
	<path class="st0" d="M27,44.1h1.5l1.9,2.3h0v-2.3h1v3.2h-1.5L28,45h0v2.3h-1V44.1z"/>
	<path class="st0" d="M31.8,44.1h3.8v0.8h-1.4v2.4h-1v-2.4h-1.4V44.1z"/>
	<path class="st0" d="M36,46.3h1c0,0.3,0.1,0.4,0.4,0.4h1.2c0.2,0,0.4,0,0.4-0.3c0-0.3-0.1-0.3-1.4-0.3c-1.5,0-1.7-0.2-1.7-1
		c0-0.6,0.1-1,1.3-1h1.4c1.1,0,1.2,0.4,1.2,1v0.1h-1c0-0.2,0-0.3-0.5-0.3h-1.1c-0.2,0-0.4,0.1-0.4,0.2c0,0.3,0.1,0.3,1.2,0.3
		c1.5,0,1.9,0.1,1.9,1c0,0.9-0.3,1-1.6,1h-1.2c-0.9,0-1.3-0.2-1.3-0.9V46.3z"/>
	<path class="st0" d="M42.8,44.1h3.4v0.8h-2.4v0.6h2.3v0.7h-2.3v1.1h-1V44.1z"/>
	<path class="st0" d="M46.8,44.1h1v3.2h-1V44.1z"/>
	<path class="st0" d="M48.5,44.1h3c0.8,0,1,0.4,1,1v0.2c0,0.4-0.1,0.7-0.6,0.8v0c0.3,0.1,0.5,0.2,0.5,0.7v0.5h-1v-0.4
		c0-0.3-0.1-0.4-0.4-0.4h-1.6v0.8h-1V44.1z M49.5,45.7h1.6c0.3,0,0.4-0.1,0.4-0.3v-0.1c0-0.3-0.1-0.3-0.5-0.3h-1.5V45.7z"/>
	<path class="st0" d="M53.1,46.3h1c0,0.3,0.1,0.4,0.4,0.4h1.2c0.2,0,0.4,0,0.4-0.3c0-0.3-0.1-0.3-1.4-0.3c-1.5,0-1.7-0.2-1.7-1
		c0-0.6,0.1-1,1.3-1h1.4c1.1,0,1.2,0.4,1.2,1v0.1h-1c0-0.2,0-0.3-0.5-0.3h-1.1c-0.2,0-0.4,0.1-0.4,0.2c0,0.3,0.1,0.3,1.2,0.3
		c1.5,0,1.9,0.1,1.9,1c0,0.9-0.3,1-1.6,1h-1.2c-0.9,0-1.3-0.2-1.3-0.9V46.3z"/>
	<path class="st0" d="M57.5,44.1h3.8v0.8h-1.4v2.4h-1v-2.4h-1.4V44.1z"/>
	<path class="st0" d="M63.9,43.6h0.2V48h-0.2V43.6z"/>
	<path class="st1" d="M66.9,44.1h2.6c0.6,0,0.9,0.1,0.9,0.9c0,0.7-0.1,1.1-1,1.1h-2.1v1.3h-0.4V44.1z M70.1,44.9
		c0-0.4-0.2-0.5-0.6-0.5h-2.1v1.2h2.1c0.3,0,0.6-0.1,0.6-0.5V44.9z"/>
	<path class="st1" d="M71,45.3c0-0.8,0.3-1.2,1.1-1.2H74c0.9,0,1.1,0.4,1.1,1.2v0.9c0,0.8-0.3,1.2-1.1,1.2h-1.9
		c-0.9,0-1.1-0.4-1.1-1.2V45.3z M74.7,45.1c0-0.6-0.3-0.7-0.8-0.7h-1.8c-0.4,0-0.8,0.1-0.8,0.7v1.2c0,0.6,0.3,0.7,0.8,0.7H74
		c0.4,0,0.8-0.1,0.8-0.7V45.1z"/>
	<path class="st1" d="M75.5,44.1H76l1.1,2.8l1.1-2.8h0.6l1.1,2.8l1.1-2.8h0.4l-1.3,3.2h-0.6l-1.1-2.8l-1.1,2.8h-0.6L75.5,44.1z"/>
	<path class="st1" d="M81.9,44.1H85v0.4h-2.7v1h2.6v0.4h-2.6V47H85v0.4h-3.2V44.1z"/>
	<path class="st1" d="M85.7,44.1h2.6c0.9,0,1.1,0.3,1.1,0.9v0.3c0,0.5-0.3,0.6-0.6,0.6v0c0.4,0.1,0.6,0.3,0.6,0.6v0.8h-0.4v-0.7
		c0-0.5-0.2-0.6-0.6-0.6h-2.1v1.3h-0.4V44.1z M88.2,45.7c0.5,0,0.7-0.1,0.7-0.5v-0.3c0-0.4-0.2-0.5-0.8-0.5h-2v1.2H88.2z"/>
	<path class="st1" d="M90.1,44.1h3.2v0.4h-2.7v1h2.6v0.4h-2.6V47h2.7v0.4h-3.2V44.1z"/>
	<path class="st1" d="M93.9,44.1h2.6c1.1,0,1.4,0.3,1.4,1.6c0,1.2-0.3,1.6-1.4,1.6h-2.6V44.1z M97.4,45.5c0-0.9-0.3-1.1-0.8-1.1
		h-2.3V47h2.2c0.5,0,0.9-0.1,0.9-1.1V45.5z"/>
	<path class="st1" d="M100.3,44.1h2.7c0.7,0,0.9,0.3,0.9,0.7v0.3c0,0.2-0.1,0.5-0.5,0.5v0c0.3,0,0.6,0.1,0.6,0.6v0.4
		c0,0.4-0.4,0.7-0.9,0.7h-2.8V44.1z M103.4,44.8c0-0.3-0.3-0.3-0.5-0.3h-2.3v1h2.2c0.2,0,0.5-0.1,0.5-0.4V44.8z M103.6,46.3
		c0-0.4-0.2-0.5-0.6-0.5h-2.2V47h2.3c0.4,0,0.6-0.1,0.6-0.4V46.3z"/>
	<path class="st1" d="M106.3,45.9l-1.8-1.9h0.6l1.5,1.5l1.5-1.5h0.6l-1.8,1.9v1.4h-0.4V45.9z"/>
	<path class="st1" d="M110.7,44.1h3.2v0.4h-2.7v1h2.6v0.4h-2.6V47h2.7v0.4h-3.2V44.1z"/>
	<path class="st1" d="M114.2,44.1h0.5l1.6,2.8l1.6-2.8h0.5l-1.8,3.2H116L114.2,44.1z"/>
	<path class="st1" d="M118.8,44.1h0.4v3.2h-0.4V44.1z"/>
	<path class="st1" d="M120.1,44.1h2.6c1.1,0,1.4,0.3,1.4,1.6c0,1.2-0.3,1.6-1.4,1.6h-2.6V44.1z M123.6,45.5c0-0.9-0.3-1.1-0.8-1.1
		h-2.3V47h2.2c0.5,0,0.9-0.1,0.9-1.1V45.5z"/>
	<path class="st1" d="M124.8,44.1h3.2v0.4h-2.7v1h2.6v0.4h-2.6V47h2.7v0.4h-3.2V44.1z"/>
	<path class="st1" d="M128.6,44.1h0.6l2.9,2.8v-2.8h0.4v3.2H132l-2.9-2.8v2.8h-0.4V44.1z"/>
	<path class="st1" d="M133.4,45.3c0-0.8,0.3-1.2,1.1-1.2h1.7c0.8,0,1,0.4,1,0.8v0.3h-0.4V45c0-0.5-0.3-0.6-0.7-0.6h-1.5
		c-0.4,0-0.8,0.1-0.8,0.7v1.2c0,0.6,0.3,0.7,0.8,0.7h1.5c0.6,0,0.8-0.1,0.8-0.6v-0.2h0.4v0.2c0,0.6-0.2,0.9-1.1,0.9h-1.6
		c-0.9,0-1.1-0.4-1.1-1.2V45.3z"/>
	<path class="st1" d="M138,44.1h3.2v0.4h-2.7v1h2.6v0.4h-2.6V47h2.7v0.4H138V44.1z"/>
</g>
<g>
	<path class="st1" d="M35.7,10.8C12,7.6,19.1,21.5,19.1,21.5s-4.9-4.8-4.6-9.3c0.2-4,4.7-7.9,17.3-6.2c3.4,0.5,7.7,1.8,12.5,3.7V3.3
		H8.5V33c4.6,0.1,8.3-0.1,12-0.8C44,27.5,32.7,16.7,32.7,16.7s6.2,2.9,7.4,7.2c1.1,3.8-1.9,9-14.3,11.5c-4.3,0.9-10.5,0.9-17.3,0.4
		v3.3h35.8V12.9C41.3,11.9,38.6,11.2,35.7,10.8z"/>
</g>
<g class="st2">
	<circle cx="26.4" cy="21.3" r="4.7"/>
</g>
<g>
	<path class="st0" d="M21.6,21.3c0-2.6,2.1-4.7,4.7-4.7c2.6,0,4.7,2.1,4.7,4.7c0,2.6-2.1,4.7-4.7,4.7C23.8,26,21.6,23.9,21.6,21.3z"
		/>
</g>
<g>
	<path class="st0" d="M100.8,20.1L100.8,20.1c3.4-1.2,5.8-3.8,5.8-7.7c0-7.1-6.5-9.1-12-9.1h-14v35.2h14c6.7,0,13.4-2.6,13.4-10.2
		C108,23.7,104.8,20.8,100.8,20.1z M88.7,10.1h4.2c3.6,0,5.4,1,5.4,3.4c0,2.5-1.8,3.8-5,3.8h-4.6V10.1z M93.5,31.7h-4.8v-8.1h4.7
		c3.6,0,6,0.9,6,3.9C99.5,31,96.2,31.7,93.5,31.7z"/>
	<path class="st0" d="M128.1,31.7c-5.9,0-10-4.4-10-10.8c0-6.2,4.2-10.8,10.1-10.8c2.7,0,5.5,1,7.1,3.2l5.8-5.8
		c-2.9-3.4-8.3-5.2-13.2-5.2c-10.7,0-19.1,7.2-19.1,18.5c0,11,8.1,18.6,19,18.6c5.9,0,10.6-2.2,13.7-5.8l-5.9-5.6
		C134,30.2,131.4,31.7,128.1,31.7z"/>
	<path class="st0" d="M55.9,3.4h-8.5v11.1c2.8,1.2,5.6,2.2,8.5,3.6V3.4z"/>
	<path class="st0" d="M69.1,24.6c0,3.8-1.8,7.3-6.6,7.3c-4.8,0-6.6-3.5-6.6-7.3v-7.1c-3.2-1.4-6-2.5-8.5-3.5v11.3
		c0,8.5,5.8,14.2,15,14.2c9.2,0,15.2-5.8,15.2-14.2V3.4h-8.5V24.6z"/>
	<path class="st0" d="M140.3,11.1c-1.1,0-1.9,0.9-1.9,1.9s0.9,1.9,1.9,1.9s1.9-0.8,1.9-1.9S141.3,11.1,140.3,11.1z M140.3,14.7
		c-0.9,0-1.6-0.7-1.6-1.6c0-0.9,0.7-1.6,1.6-1.6c0.9,0,1.6,0.7,1.6,1.6C141.9,14,141.2,14.7,140.3,14.7z"/>
	<path class="st0" d="M141.1,12.6c0-0.5-0.4-0.6-0.8-0.6h-0.8v2.2h0.4v-0.9h0.3l0.5,0.9h0.5l-0.6-1
		C140.9,13.1,141.1,12.9,141.1,12.6z M139.9,12.9v-0.6h0.4c0.2,0,0.4,0.1,0.4,0.3c0,0.3-0.3,0.3-0.5,0.3H139.9z"/>
</g>
<line class="st3" x1="91.3" y1="44.4" x2="91.3" y2="44.4"/>
<line class="st4" x1="92.3" y1="42.6" x2="92.3" y2="42.6"/>
</svg>
