<?xml version="1.0" encoding="utf-8"?>
<!-- Generator: Adobe Illustrator 22.1.0, SVG Export Plug-In . SVG Version: 6.00 Build 0)  -->
<svg version="1.1" id="Layer_1" xmlns="http://www.w3.org/2000/svg" xmlns:xlink="http://www.w3.org/1999/xlink" x="0px" y="0px"
	 viewBox="0 0 250 250" style="enable-background:new 0 0 250 250;" xml:space="preserve">
<style type="text/css">
	.st0{fill:none;}
	.st1{enable-background:new    ;}
	.st2{fill:#1D3766;}
	.st3{fill:none;stroke:#1D3766;stroke-linecap:round;stroke-linejoin:round;stroke-miterlimit:10;}
</style>
<rect x="1" y="-2.3" transform="matrix(0.9999 -1.026542e-02 1.026542e-02 0.9999 -0.9528 1.1608)" class="st0" width="223.2" height="191.4"/>
<g class="st1">
	<path class="st2" d="M90.1,29.5c0.1,0.8,0,1.5-0.3,1.9c-0.2,0.5-0.6,0.9-1.2,1.4c-0.1,0.1-0.3,0.2-0.6,0.4
		c-0.2,0.1-0.5,0.3-0.8,0.4c-0.3,0.1-0.6,0.3-0.9,0.4c-0.3,0.1-0.6,0.2-0.9,0.2c-0.8,0.1-1.4,0-1.9-0.1c-0.4-0.1-0.7-0.3-0.7-0.6
		c0-0.3,0-0.5,0.2-0.6c0.1-0.2,0.2-0.3,0.4-0.3l0.3,0.2c0.1,0.1,0.2,0.2,0.4,0.2c0.2,0.1,0.4,0.1,0.8,0.1c0.3,0,0.7-0.1,1.2-0.3
		c0.5-0.2,0.9-0.4,1.3-0.7c0.4-0.3,0.8-0.6,1.1-1c0.3-0.4,0.4-0.8,0.4-1.3c0-0.4-0.4-0.8-1-1.1c-0.6-0.3-1.6-0.4-3-0.5
		c-0.7,0-1.4,0-2-0.1c-0.7-0.1-1.3-0.2-1.8-0.3c-0.5-0.2-1-0.4-1.3-0.7c-0.4-0.3-0.5-0.7-0.6-1.1c0-0.4,0-0.9,0.3-1.3
		c0.2-0.4,0.5-0.8,0.8-1.2c0.3-0.4,0.7-0.7,1.1-1c0.4-0.3,0.7-0.6,0.9-0.8c0.2-0.1,0.5-0.3,0.9-0.6s0.8-0.5,1.2-0.7
		c0.4-0.2,0.8-0.4,1.3-0.6c0.4-0.2,0.8-0.3,1.1-0.3c0.4,0,0.6,0,0.8,0.2s0.2,0.5,0.3,0.8c0,0.3,0,0.6,0,1c0,0.3-0.1,0.7-0.2,1
		c-0.1,0.3-0.1,0.6-0.2,0.9c-0.1,0.2-0.1,0.4-0.1,0.5c-0.1,0.2-0.1,0.3-0.2,0.3c-0.1,0.1-0.1,0.1-0.2,0.1c-0.1,0-0.1,0-0.1-0.1
		c0-0.1,0-0.2,0-0.3s0-0.3,0.1-0.6c0-0.2,0-0.5,0-0.7c0-0.3,0-0.5,0-0.8c0-0.4-0.1-0.7-0.1-0.9c-0.1-0.2-0.2-0.3-0.5-0.2
		c-0.3,0-0.6,0.1-1,0.3c-0.4,0.2-0.8,0.4-1.3,0.6c-0.5,0.3-0.9,0.6-1.3,1c-0.4,0.4-0.8,0.8-1.1,1.2c-0.3,0.4-0.6,0.8-0.8,1.1
		c-0.2,0.4-0.3,0.6-0.3,0.8c0,0.2,0.2,0.4,0.5,0.6c0.3,0.2,0.7,0.3,1.2,0.4c0.5,0.1,1,0.2,1.6,0.2c0.6,0.1,1.1,0.1,1.7,0.1
		c0.5,0,1,0,1.5,0.1c0.5,0,1.1,0.1,1.5,0.3c0.5,0.2,0.9,0.4,1.3,0.7C89.9,28.6,90.1,29,90.1,29.5z"/>
	<path class="st2" d="M99.2,29.8c0,0,0,0.1,0,0.2c0,0.1-0.1,0.3-0.2,0.5c0,0.1-0.2,0.2-0.3,0.4c-0.2,0.2-0.4,0.4-0.7,0.5
		c-0.3,0.2-0.7,0.4-1.1,0.5c-0.4,0.2-0.9,0.3-1.5,0.3c-0.4,0-0.8,0-1.2-0.2c-0.4-0.2-0.8-0.4-1.1-0.7c-0.3-0.3-0.6-0.8-0.9-1.3
		s-0.4-1.2-0.5-1.9c-0.1-0.7,0-1.4,0.1-2c0.1-0.6,0.3-1.2,0.5-1.7c0.2-0.5,0.5-0.9,0.8-1.2c0.3-0.3,0.6-0.5,1-0.5
		c0.3,0,0.6,0,0.9,0.1c0.3,0.1,0.6,0.2,0.8,0.4c0.3,0.2,0.5,0.3,0.6,0.6c0.2,0.2,0.3,0.4,0.3,0.7c0,0.3-0.1,0.6-0.3,0.9
		c-0.2,0.3-0.5,0.6-0.8,0.9s-0.6,0.5-1,0.7s-0.6,0.3-0.8,0.3c-0.1,0-0.2,0-0.3-0.1c-0.1-0.1-0.1-0.2-0.2-0.4c0-0.2,0.1-0.5,0.3-0.6
		c0.2-0.2,0.4-0.3,0.7-0.5s0.5-0.3,0.7-0.5c0.2-0.2,0.3-0.4,0.3-0.7c0,0-0.1-0.1-0.2-0.3c-0.1-0.1-0.4-0.2-0.7-0.2
		c-0.2,0-0.4,0.1-0.6,0.4s-0.4,0.5-0.6,0.9c-0.2,0.4-0.3,0.8-0.4,1.3c-0.1,0.5-0.1,1-0.1,1.6c0,0.5,0.2,0.9,0.4,1.2
		c0.2,0.4,0.5,0.7,0.7,0.9c0.3,0.2,0.6,0.4,1,0.5c0.4,0.1,0.7,0.2,1.1,0.1c0.3,0,0.6-0.1,0.9-0.3c0.3-0.1,0.6-0.3,0.9-0.5
		c0.3-0.2,0.5-0.3,0.7-0.4c0.2-0.1,0.3-0.2,0.4-0.2s0.1,0,0.2,0.1C99.1,29.7,99.1,29.7,99.2,29.8z"/>
	<path class="st2" d="M108.5,29c0,0,0,0.1,0,0.2c0,0.1-0.1,0.3-0.2,0.5c0,0.1-0.2,0.2-0.3,0.4c-0.2,0.2-0.4,0.4-0.7,0.5
		c-0.3,0.2-0.7,0.4-1.1,0.5s-0.9,0.3-1.5,0.3c-0.4,0-0.8,0-1.2-0.2c-0.4-0.2-0.8-0.4-1.1-0.7c-0.3-0.3-0.6-0.8-0.9-1.3
		c-0.2-0.5-0.4-1.2-0.5-1.9c-0.1-0.7,0-1.4,0.1-2c0.1-0.6,0.3-1.2,0.5-1.7c0.2-0.5,0.5-0.9,0.8-1.2c0.3-0.3,0.6-0.5,1-0.5
		c0.3,0,0.6,0,0.9,0.1c0.3,0.1,0.6,0.2,0.8,0.4c0.3,0.2,0.5,0.3,0.6,0.6c0.2,0.2,0.3,0.4,0.3,0.7c0,0.3-0.1,0.6-0.3,0.9
		c-0.2,0.3-0.5,0.6-0.8,0.9c-0.3,0.3-0.6,0.5-1,0.7s-0.6,0.3-0.8,0.3c-0.1,0-0.2,0-0.3-0.1c-0.1-0.1-0.1-0.2-0.2-0.4
		c0-0.2,0.1-0.5,0.3-0.6c0.2-0.2,0.4-0.3,0.7-0.5c0.3-0.1,0.5-0.3,0.7-0.5c0.2-0.2,0.3-0.4,0.3-0.7c0,0-0.1-0.1-0.2-0.3
		c-0.1-0.1-0.3-0.2-0.7-0.2c-0.2,0-0.4,0.1-0.6,0.4s-0.4,0.5-0.6,0.9c-0.2,0.4-0.3,0.8-0.4,1.3c-0.1,0.5-0.1,1-0.1,1.6
		c0,0.5,0.2,0.9,0.4,1.2c0.2,0.4,0.5,0.7,0.7,0.9c0.3,0.2,0.6,0.4,1,0.5c0.4,0.1,0.7,0.2,1.1,0.1c0.3,0,0.6-0.1,0.9-0.3
		c0.3-0.1,0.6-0.3,0.9-0.5c0.3-0.2,0.5-0.3,0.7-0.4c0.2-0.1,0.3-0.2,0.4-0.2s0.1,0,0.2,0.1C108.5,28.9,108.5,28.9,108.5,29z"/>
	<path class="st2" d="M126.1,24.4c0,0.4,0,0.8-0.1,1.1c-0.1,0.4-0.2,0.7-0.3,1c-0.2,0.3-0.3,0.5-0.6,0.7c-0.2,0.2-0.5,0.3-0.8,0.3
		c-0.5,0-0.9-0.1-1.2-0.3c-0.3-0.3-0.6-0.6-0.7-0.9s-0.3-0.7-0.4-1.1c-0.1-0.4-0.1-0.7-0.1-0.9c0-0.3,0-0.7,0.1-1.1
		c0.1-0.4,0.2-0.8,0.3-1.2c0.1-0.4,0.3-0.7,0.5-0.9c0.2-0.3,0.4-0.4,0.6-0.4c0.1,0,0.1,0,0.3,0c0.1,0,0.2,0.1,0.4,0.1
		c0.1,0.1,0.3,0.1,0.4,0.2c0.1,0.1,0.2,0.2,0.2,0.4c0.2,0,0.4,0.1,0.6,0.2c0.2,0.1,0.3,0.2,0.3,0.3c0.2,0.5,0.3,0.9,0.4,1.4
		C126.1,23.7,126.1,24.1,126.1,24.4z M124.9,24c0-0.3-0.1-0.5-0.2-0.8c-0.1-0.3-0.2-0.6-0.4-0.9c0,0-0.1,0-0.1,0c-0.1,0-0.1,0-0.2,0
		c0,0-0.1,0-0.1,0c-0.2,0-0.4,0.1-0.5,0.2c-0.1,0.1-0.2,0.3-0.2,0.5c0,0.2-0.1,0.4-0.1,0.6c0,0.2,0,0.4,0,0.6c0,0.2,0,0.4,0.1,0.7
		c0,0.2,0.1,0.5,0.2,0.7c0.1,0.2,0.2,0.4,0.3,0.5c0.1,0.1,0.3,0.2,0.5,0.2c0.2,0,0.3-0.1,0.4-0.3c0.1-0.2,0.2-0.4,0.2-0.7
		c0-0.3,0.1-0.5,0.1-0.8C124.9,24.3,124.9,24.1,124.9,24z"/>
	<path class="st2" d="M137.8,24.7c0,0.2-0.1,0.3-0.3,0.5c-0.2,0.2-0.4,0.4-0.7,0.6c-0.3,0.2-0.6,0.3-0.8,0.5s-0.5,0.2-0.6,0.2
		c-0.2,0-0.3,0-0.5-0.1s-0.4-0.2-0.6-0.3c-0.2-0.1-0.3-0.2-0.5-0.3c-0.1-0.1-0.2-0.2-0.3-0.2c0,0.1-0.1,0.2-0.2,0.3
		c-0.1,0.2-0.2,0.4-0.3,0.6c-0.1,0.2-0.3,0.4-0.4,0.5c-0.2,0.2-0.3,0.2-0.5,0.3c-0.5,0-0.9-0.2-1.3-0.6c-0.4-0.5-0.7-1-1-1.6
		c-0.3-0.6-0.5-1.2-0.7-1.8c-0.2-0.6-0.3-1-0.3-1.2c0-0.1,0-0.2,0.2-0.3c0.1-0.1,0.2-0.1,0.3-0.1c0.3,0,0.4,0,0.5,0.2
		s0.2,0.3,0.2,0.5c0,0.2,0.1,0.4,0.2,0.8s0.3,0.8,0.5,1.2c0.2,0.4,0.4,0.8,0.6,1.1c0.2,0.3,0.3,0.5,0.5,0.5c0.2,0,0.4-0.2,0.6-0.5
		c0.1-0.3,0.3-0.7,0.3-1.1c0.1-0.4,0.1-0.8,0.1-1.1c0-0.4,0-0.6,0-0.7c0,0,0-0.1,0-0.2c0-0.1,0-0.2,0-0.3c0-0.1,0-0.2,0-0.3
		c0-0.1,0-0.2,0-0.2c0-0.1,0-0.2-0.1-0.2c-0.1,0-0.1-0.1-0.1-0.3c0-0.1,0-0.2,0.1-0.3c0.1-0.1,0.3-0.2,0.7-0.2c0.1,0,0.3,0,0.3,0.1
		c0.1,0.1,0.2,0.2,0.2,0.3c0,0.1,0.1,0.2,0.1,0.3c0,0.1,0,0.2,0,0.2c0,0,0,0.1,0,0.4c0,0.2,0,0.5,0,0.8s0,0.5,0,0.8
		c0,0.3,0,0.4,0,0.5c0,0.1,0,0.2,0.1,0.3c0.1,0.2,0.1,0.3,0.2,0.5c0.1,0.2,0.2,0.3,0.3,0.4c0.1,0.1,0.2,0.2,0.4,0.2
		c0.2,0,0.4-0.1,0.6-0.1c0.2-0.1,0.4-0.2,0.5-0.3c0.2-0.1,0.3-0.2,0.5-0.3s0.3-0.1,0.4-0.1c0.2,0,0.3,0,0.5,0.1
		C137.7,24.6,137.8,24.6,137.8,24.7z"/>
	<path class="st2" d="M144.9,20.4c0,0.1,0,0.2-0.1,0.3c-0.1,0.1-0.2,0.2-0.4,0.2s-0.3,0.1-0.4,0.2c-0.1,0-0.3,0.1-0.3,0.1
		c-0.3,0-0.5,0-0.5,0c-0.1,0-0.2,0-0.2,0c-0.4,0-0.8,0.1-1.1,0.2c-0.3,0.1-0.5,0.2-0.6,0.4s-0.2,0.4-0.2,0.6c0,0.2,0,0.5,0,0.9
		c0.1,0.6,0.1,1,0.2,1.4c0.1,0.3,0.1,0.6,0.2,0.8s0.1,0.4,0.2,0.5c0.1,0.1,0.1,0.2,0.1,0.3c0,0.1-0.1,0.3-0.2,0.5
		c-0.1,0.2-0.3,0.3-0.4,0.3c-0.2,0-0.4-0.2-0.6-0.5c-0.2-0.4-0.4-0.8-0.6-1.3c-0.2-0.5-0.3-1-0.4-1.5c-0.1-0.5-0.2-0.9-0.2-1.2
		c0-0.3,0-0.6,0-0.9c0-0.3,0.1-0.5,0.2-0.7c0.1-0.2,0.2-0.4,0.3-0.5c0.1-0.1,0.2-0.2,0.3-0.2c0.1,0,0.2,0,0.2,0.1
		c0.1,0.1,0.1,0.1,0.2,0.2s0.1,0.1,0.1,0.2c0,0.1,0.1,0.1,0.2,0.1c0.2,0,0.4-0.1,0.8-0.3c0.3-0.2,0.8-0.3,1.3-0.4
		c0.5,0,0.8-0.1,1.1-0.1c0.2,0,0.5,0,0.7,0.1c0.1,0,0.1,0,0.2,0.1C144.9,20.1,144.9,20.2,144.9,20.4z"/>
</g>
<g class="st1">
	<path class="st2" d="M51.5,54.2c0,0.3-0.1,0.7-0.3,1.2s-0.6,1-1.1,1.5c-0.5,0.5-1,0.9-1.6,1.3c-0.6,0.4-1.3,0.6-2,0.7
		c-0.3,0-0.7,0-1-0.1c-0.4-0.1-0.7-0.2-1.1-0.4c-0.4-0.2-0.7-0.4-1-0.7c-0.3-0.3-0.5-0.6-0.7-1c-0.1,0.1-0.2,0.3-0.3,0.6
		c-0.1,0.3-0.3,0.5-0.4,0.8c-0.2,0.3-0.3,0.5-0.5,0.7c-0.2,0.2-0.4,0.3-0.6,0.3c-0.2,0-0.4-0.1-0.6-0.3c-0.2-0.2-0.3-0.5-0.4-0.8
		c-0.1-0.3-0.2-0.6-0.3-0.8c-0.1-0.3-0.1-0.4-0.1-0.5c0-0.2,0-0.6,0.1-1.2c0.1-0.6,0.2-1.3,0.4-1.9c0.2-0.7,0.5-1.3,0.8-1.8
		c0.3-0.5,0.8-0.8,1.3-0.9c0.2,0,0.3,0.1,0.4,0.2c0.1,0.2,0.1,0.3,0.1,0.5l0.1,0.8c0.1,0.1,0.2,0.1,0.3,0.1c0.1,0,0.2,0,0.3,0.1
		c0.1,0,0.2,0.1,0.2,0.2c0.1,0.1,0.1,0.2,0.1,0.4c0,0.1,0,0.2,0,0.3c0,0.1,0,0.2,0,0.3c0,0.5,0.1,0.9,0.2,1.4
		c0.1,0.4,0.3,0.8,0.5,1.2c0.2,0.3,0.6,0.6,1,0.8c0.4,0.2,0.9,0.3,1.5,0.2c0.8-0.1,1.4-0.3,2-0.7c0.5-0.4,0.9-0.8,1.3-1.2
		c0.3-0.4,0.6-0.8,0.8-1.2c0.2-0.3,0.3-0.5,0.5-0.5C51.4,53.9,51.5,54,51.5,54.2z M42,53.9c0-0.1,0-0.1-0.1-0.2
		c0-0.1-0.1-0.1-0.1-0.2c0-0.1,0-0.1,0-0.2c0-0.1,0-0.1,0-0.2c0-0.1,0-0.1-0.1-0.1c0,0-0.1-0.1-0.1-0.1c-0.2,0.1-0.3,0.2-0.5,0.5
		c-0.1,0.3-0.3,0.6-0.4,1c-0.1,0.4-0.2,0.7-0.3,1.1s-0.1,0.7-0.1,0.9c0,0.1,0.1,0.3,0.2,0.6c0.1,0.3,0.2,0.5,0.3,0.5
		c0.2-0.7,0.5-1.3,0.7-1.9C41.9,55.1,42,54.5,42,53.9z"/>
	<path class="st2" d="M60.3,51.3c0,0.5-0.1,0.9-0.3,1.4c-0.2,0.5-0.5,0.9-0.9,1.3c-0.3,0.4-0.7,0.8-1.1,1.1
		c-0.4,0.4-0.8,0.7-1.2,0.9c-0.3,0.3-0.6,0.5-0.8,0.7c-0.2,0.2-0.3,0.3-0.3,0.4c0,0.2,0.1,0.6,0.2,1c0.1,0.4,0.2,0.9,0.3,1.4
		c0.1,0.5,0.2,1,0.4,1.5c0.1,0.5,0.2,1,0.3,1.4c0,0,0,0.1,0.1,0.2c0,0.1,0.1,0.3,0.1,0.5c0.1,0.2,0.1,0.3,0.2,0.5
		c0,0.1,0.1,0.2,0.1,0.3c0,0.1,0,0.3,0,0.4c0,0.2,0,0.3,0,0.4c0,0.1-0.1,0.3-0.2,0.4s-0.2,0.2-0.3,0.2c-0.2,0-0.3-0.1-0.5-0.2
		c-0.1-0.2-0.2-0.3-0.2-0.5c0,0,0-0.1,0-0.1c0,0,0-0.1,0-0.1c0-0.2-0.1-0.7-0.4-1.6c-0.2-0.8-0.5-1.9-0.8-3s-0.6-2.4-0.8-3.8
		c-0.3-1.4-0.4-2.6-0.6-3.9c0-0.1,0-0.2,0-0.3c0-0.1,0-0.2,0-0.3c-0.2,0-0.4,0.1-0.8,0.3c-0.3,0.2-0.7,0.4-1,0.6
		c-0.3,0.2-0.6,0.5-0.8,0.7c-0.2,0.2-0.4,0.5-0.3,0.6l-0.2,0c-0.1,0-0.1,0-0.2-0.1c-0.1-0.1-0.2-0.1-0.2-0.2
		c-0.1-0.1-0.1-0.2-0.2-0.3c-0.1-0.1-0.1-0.1-0.1-0.2c0-0.4,0.2-0.8,0.6-1.1c0.4-0.4,1-0.7,1.6-1c0.6-0.3,1.4-0.6,2.2-0.8
		c0.8-0.2,1.5-0.4,2.3-0.4c0.7-0.1,1.3,0,1.8,0.1c0.5,0.1,0.9,0.3,1.2,0.5c0.3,0.2,0.5,0.4,0.7,0.6C60.2,50.9,60.3,51.1,60.3,51.3z
		 M59,51.3c0-0.2-0.3-0.3-0.7-0.5c-0.5-0.1-1-0.2-1.6-0.1c-0.5,0-0.9,0.1-1.2,0.2S55,50.9,54.9,51c0,0.3,0,0.6,0,1
		c0,0.4,0,0.8,0.1,1.2c0,0.4,0.1,0.8,0.1,1.2c0.1,0.4,0.1,0.7,0.2,1c0.2-0.2,0.6-0.4,1-0.8c0.4-0.3,0.8-0.7,1.2-1.1
		c0.4-0.4,0.7-0.8,1-1.2C58.9,52.1,59,51.7,59,51.3z"/>
	<path class="st2" d="M70.4,50.4c0,0.5-0.1,0.9-0.3,1.4c-0.2,0.5-0.5,0.9-0.9,1.3c-0.3,0.4-0.7,0.8-1.1,1.1
		c-0.4,0.4-0.8,0.7-1.2,0.9c-0.3,0.3-0.6,0.5-0.8,0.7c-0.2,0.2-0.3,0.3-0.3,0.4c0,0.2,0.1,0.6,0.2,1c0.1,0.4,0.2,0.9,0.3,1.4
		c0.1,0.5,0.2,1,0.4,1.5c0.1,0.5,0.2,1,0.3,1.4c0,0,0,0.1,0.1,0.2c0,0.1,0.1,0.3,0.2,0.5c0.1,0.2,0.1,0.3,0.2,0.5
		c0,0.1,0.1,0.2,0.1,0.3c0,0.1,0,0.3,0,0.4c0,0.2,0,0.3,0,0.4c0,0.1-0.1,0.3-0.2,0.4s-0.2,0.2-0.3,0.2c-0.2,0-0.3-0.1-0.5-0.2
		c-0.1-0.2-0.2-0.3-0.2-0.5c0,0,0-0.1,0-0.1c0,0,0-0.1,0-0.1c0-0.2-0.1-0.7-0.4-1.6c-0.2-0.8-0.5-1.9-0.8-3s-0.6-2.4-0.8-3.8
		c-0.3-1.4-0.4-2.6-0.6-3.9c0-0.1,0-0.2,0-0.3c0-0.1,0-0.2,0-0.3c-0.2,0-0.4,0.1-0.8,0.3c-0.3,0.2-0.7,0.4-1,0.6
		c-0.3,0.2-0.6,0.5-0.8,0.7c-0.2,0.2-0.4,0.5-0.3,0.6l-0.2,0c-0.1,0-0.1,0-0.2-0.1c-0.1-0.1-0.2-0.1-0.2-0.2
		c-0.1-0.1-0.1-0.2-0.2-0.3c-0.1-0.1-0.1-0.1-0.1-0.2c0-0.4,0.2-0.8,0.6-1.1c0.4-0.4,1-0.7,1.6-1c0.6-0.3,1.4-0.6,2.2-0.8
		c0.8-0.2,1.5-0.4,2.3-0.4c0.7-0.1,1.3,0,1.8,0.1c0.5,0.1,0.9,0.3,1.2,0.5c0.3,0.2,0.5,0.4,0.7,0.6C70.3,50,70.4,50.2,70.4,50.4z
		 M69.1,50.4c0-0.2-0.3-0.3-0.7-0.5c-0.5-0.1-1-0.2-1.6-0.1c-0.5,0-0.9,0.1-1.2,0.2s-0.4,0.1-0.5,0.2c0,0.3,0,0.6,0,1
		c0,0.4,0,0.8,0.1,1.2c0,0.4,0.1,0.8,0.1,1.2c0.1,0.4,0.1,0.7,0.2,1c0.2-0.2,0.6-0.4,1-0.8c0.4-0.3,0.8-0.7,1.2-1.1
		c0.4-0.4,0.7-0.8,1-1.2C69,51.2,69.1,50.8,69.1,50.4z"/>
	<path class="st2" d="M78.2,49.3c0,0.1,0,0.2-0.1,0.3c-0.1,0.1-0.2,0.2-0.4,0.2c-0.1,0.1-0.3,0.1-0.4,0.2c-0.1,0-0.3,0.1-0.3,0.1
		c-0.3,0-0.5,0-0.5,0c-0.1,0-0.2,0-0.2,0c-0.4,0-0.8,0.1-1.1,0.2c-0.3,0.1-0.5,0.2-0.6,0.4c-0.1,0.2-0.2,0.4-0.2,0.6s0,0.5,0,0.9
		c0,0.6,0.1,1,0.2,1.4c0.1,0.3,0.1,0.6,0.2,0.8c0.1,0.2,0.1,0.4,0.2,0.5c0.1,0.1,0.1,0.2,0.1,0.3c0,0.1-0.1,0.3-0.2,0.5
		c-0.1,0.2-0.3,0.3-0.4,0.3c-0.2,0-0.4-0.2-0.6-0.5c-0.2-0.4-0.4-0.8-0.6-1.3c-0.2-0.5-0.3-1-0.4-1.5c-0.1-0.5-0.2-0.9-0.2-1.2
		c0-0.3,0-0.6,0-0.9c0-0.3,0.1-0.5,0.2-0.7c0.1-0.2,0.2-0.4,0.3-0.5c0.1-0.1,0.2-0.2,0.3-0.2c0.1,0,0.2,0,0.2,0.1
		c0.1,0.1,0.1,0.1,0.2,0.2c0,0.1,0.1,0.1,0.1,0.2c0,0.1,0.1,0.1,0.2,0.1c0.2,0,0.4-0.1,0.8-0.3c0.3-0.2,0.8-0.3,1.3-0.4
		c0.5,0,0.8-0.1,1.1-0.1c0.2,0,0.5,0,0.7,0.1c0.1,0,0.1,0,0.2,0.1C78.2,49.1,78.2,49.2,78.2,49.3z"/>
	<path class="st2" d="M85.4,51.1c0,0.4,0,0.8-0.1,1.1c-0.1,0.4-0.2,0.7-0.3,1c-0.2,0.3-0.3,0.5-0.6,0.7c-0.2,0.2-0.5,0.3-0.8,0.3
		c-0.5,0-0.9-0.1-1.2-0.3c-0.3-0.3-0.6-0.6-0.7-0.9c-0.2-0.4-0.3-0.7-0.4-1.1c-0.1-0.4-0.1-0.7-0.1-0.9c0-0.3,0-0.7,0.1-1.1
		c0.1-0.4,0.2-0.8,0.3-1.2c0.1-0.4,0.3-0.7,0.5-0.9c0.2-0.3,0.4-0.4,0.6-0.4c0.1,0,0.1,0,0.3,0c0.1,0,0.2,0.1,0.4,0.1
		c0.1,0.1,0.3,0.1,0.4,0.2c0.1,0.1,0.2,0.2,0.2,0.4c0.2,0,0.4,0.1,0.6,0.2c0.2,0.1,0.3,0.2,0.3,0.3c0.2,0.5,0.3,0.9,0.4,1.4
		C85.3,50.4,85.4,50.8,85.4,51.1z M84.2,50.7c0-0.3-0.1-0.5-0.2-0.8c-0.1-0.3-0.2-0.6-0.4-0.9c0,0-0.1,0-0.1,0c-0.1,0-0.1,0-0.2,0
		c0,0-0.1,0-0.1,0c-0.2,0-0.4,0.1-0.5,0.2c-0.1,0.1-0.2,0.3-0.2,0.5c0,0.2-0.1,0.4-0.1,0.6c0,0.2,0,0.4,0,0.6c0,0.2,0,0.4,0.1,0.7
		c0,0.2,0.1,0.5,0.2,0.7c0.1,0.2,0.2,0.4,0.3,0.5c0.1,0.1,0.3,0.2,0.5,0.2c0.2,0,0.3-0.1,0.4-0.3c0.1-0.2,0.2-0.4,0.2-0.7
		s0.1-0.5,0.1-0.8C84.2,51,84.2,50.8,84.2,50.7z"/>
	<path class="st2" d="M100.9,49.9c0,0.3-0.1,0.7-0.3,1.2c-0.3,0.5-0.6,1-1.1,1.5c-0.5,0.5-1,0.9-1.6,1.3c-0.6,0.4-1.3,0.6-2,0.7
		c-0.3,0-0.7,0-1-0.1c-0.4-0.1-0.7-0.2-1.1-0.4s-0.7-0.4-1-0.7c-0.3-0.3-0.5-0.6-0.7-1c-0.1,0.1-0.2,0.3-0.3,0.6
		c-0.1,0.3-0.3,0.5-0.4,0.8c-0.2,0.3-0.3,0.5-0.5,0.7c-0.2,0.2-0.4,0.3-0.6,0.3c-0.2,0-0.4-0.1-0.6-0.3c-0.2-0.2-0.3-0.5-0.4-0.8
		c-0.1-0.3-0.2-0.6-0.3-0.8c-0.1-0.3-0.1-0.4-0.1-0.5c0-0.2,0-0.6,0.1-1.2c0.1-0.6,0.2-1.3,0.4-1.9c0.2-0.7,0.5-1.3,0.8-1.8
		c0.3-0.5,0.8-0.8,1.3-0.9c0.2,0,0.3,0.1,0.4,0.2c0.1,0.2,0.1,0.3,0.1,0.5l0.1,0.8c0.1,0.1,0.2,0.1,0.3,0.1c0.1,0,0.2,0,0.3,0.1
		c0.1,0,0.2,0.1,0.2,0.2c0.1,0.1,0.1,0.2,0.1,0.4c0,0.1,0,0.2,0,0.3c0,0.1,0,0.2,0,0.3c0,0.5,0.1,0.9,0.2,1.4
		c0.1,0.4,0.3,0.8,0.5,1.2c0.2,0.3,0.6,0.6,1,0.8c0.4,0.2,0.9,0.3,1.5,0.2c0.8-0.1,1.4-0.3,2-0.7c0.5-0.4,0.9-0.8,1.3-1.2
		s0.6-0.8,0.8-1.2c0.2-0.3,0.4-0.5,0.5-0.5C100.8,49.6,100.9,49.7,100.9,49.9z M91.4,49.6c0-0.1,0-0.1-0.1-0.2
		c0-0.1-0.1-0.1-0.1-0.2c0-0.1,0-0.1,0-0.2c0-0.1,0-0.1,0-0.2c0-0.1,0-0.1-0.1-0.1c0,0-0.1-0.1-0.1-0.1c-0.2,0.1-0.3,0.2-0.5,0.5
		c-0.1,0.3-0.3,0.6-0.4,1c-0.1,0.4-0.2,0.7-0.3,1.1C90,51.6,90,51.9,90,52.1c0,0.1,0.1,0.3,0.2,0.6c0.1,0.3,0.2,0.5,0.3,0.5
		c0.3-0.7,0.5-1.3,0.7-1.9C91.4,50.7,91.4,50.1,91.4,49.6z"/>
	<path class="st2" d="M109.1,49.9c0,0.2,0,0.4,0,0.6c0,0.2-0.1,0.4-0.1,0.5c0,0.1-0.2,0.3-0.5,0.6c-0.3,0.3-0.6,0.7-1,1.1
		c-0.4,0.4-0.9,0.7-1.4,1.1c-0.5,0.3-1,0.5-1.5,0.6c-0.3,0-0.6,0-0.9-0.1s-0.6-0.2-0.9-0.4c-0.3-0.2-0.5-0.5-0.7-0.8
		c-0.2-0.3-0.3-0.8-0.4-1.3c-0.1-0.9,0-1.7,0.2-2.4c0.2-0.7,0.5-1.3,0.7-1.7c0.1-0.2,0.3-0.4,0.4-0.6c0.2-0.2,0.4-0.4,0.6-0.6
		c0.2-0.2,0.4-0.3,0.5-0.5c0.2-0.1,0.3-0.2,0.3-0.2c0.2,0,0.3,0,0.5,0.1c0.1,0.1,0.2,0.2,0.2,0.3c0,0.1,0,0.3-0.1,0.4
		c-0.1,0.1-0.2,0.2-0.3,0.4c-0.1,0.1-0.3,0.3-0.5,0.5c-0.2,0.2-0.4,0.5-0.6,0.8c-0.4,0.6-0.6,1.3-0.8,1.9c-0.2,0.6-0.2,1.2-0.2,1.7
		c0,0.5,0.2,0.8,0.6,1.1c0.4,0.2,0.7,0.4,1.1,0.3c0.7-0.1,1.3-0.3,1.8-0.6c0.5-0.4,0.9-0.7,1.3-1.1c0.3-0.4,0.6-0.8,0.8-1.1
		c0.2-0.3,0.4-0.5,0.5-0.5C108.9,49.5,109,49.6,109.1,49.9z"/>
	<path class="st2" d="M119.8,48.9C119.9,49,120,49,120,49c0,0,0,0.1-0.1,0.3c-0.1,0.2-0.2,0.4-0.3,0.6c-0.1,0.2-0.3,0.4-0.5,0.6
		s-0.4,0.3-0.5,0.3c-0.4,0-0.7,0-0.9-0.1c-0.2-0.1-0.5-0.3-0.6-0.5c-0.2-0.2-0.3-0.5-0.4-0.7c-0.1-0.3-0.2-0.5-0.3-0.8
		c0-0.1-0.1-0.2-0.1-0.2c-0.1,0-0.1,0.2-0.3,0.6c-0.1,0.4-0.3,0.8-0.4,1.3c-0.1,0.5-0.3,0.9-0.4,1.3c-0.1,0.4-0.2,0.6-0.3,0.6
		c-0.3,0-0.6-0.1-0.9-0.3c-0.2-0.3-0.5-0.6-0.6-0.9c-0.2-0.4-0.3-0.7-0.4-1.1c-0.1-0.4-0.2-0.7-0.2-0.9c-0.1-0.5-0.3-1.3-0.6-2.4
		c-0.3-1.1-0.6-2.5-0.8-4.1c-0.1-0.3-0.1-0.6-0.2-0.9s-0.1-0.6-0.2-0.9c-0.1-0.3-0.2-0.7-0.2-1.1c-0.1-0.4-0.1-1-0.2-1.6
		c0,0,0-0.2,0-0.4c0-0.2,0-0.4,0-0.7c0-0.2,0.1-0.4,0.1-0.6c0.1-0.2,0.2-0.3,0.3-0.3c0.1,0,0.2,0.1,0.4,0.2c0.1,0.1,0.2,0.3,0.3,0.5
		c0.1,0.2,0.2,0.4,0.2,0.5c0.1,0.2,0.1,0.3,0.1,0.4c0,0.3,0,0.5,0,0.8c0,0.2,0,0.5,0,0.6c0,0.3,0.1,0.6,0.2,1
		c0.1,0.4,0.2,0.8,0.3,1.2c0.1,0.4,0.2,0.8,0.3,1.2c0.1,0.4,0.2,0.7,0.2,1c0,0,0,0.1,0.1,0.4c0.1,0.2,0.1,0.5,0.2,0.9
		c0.1,0.3,0.2,0.7,0.2,1.1c0.1,0.4,0.2,0.8,0.3,1.2c0.1,0.4,0.2,0.7,0.2,1c0.1,0.3,0.1,0.5,0.2,0.6c0,0.1,0,0.1,0.1,0.2
		c0,0.1,0.1,0.2,0.1,0.3c0,0.1,0.1,0.2,0.1,0.3c0,0.1,0.1,0.2,0.2,0.2c0.1-0.2,0.2-0.6,0.3-1c0.1-0.5,0.3-0.9,0.4-1.4
		s0.3-0.9,0.4-1.3c0.1-0.4,0.3-0.6,0.4-0.6c0.1,0,0.3,0,0.4,0c0.1,0,0.2,0.1,0.4,0.1c0.2,0.1,0.3,0.1,0.3,0.3c0,0.1,0,0.3,0.1,0.4
		c0.1,0.2,0.1,0.5,0.2,0.8c0.1,0.3,0.2,0.7,0.4,1c0.1,0.3,0.3,0.6,0.5,0.8c0.2,0.2,0.3,0.3,0.5,0.3c0.1,0,0.2-0.1,0.3-0.3
		c0.1-0.2,0.3-0.3,0.5-0.4c0,0,0.1,0,0.2,0.1C119.6,48.8,119.7,48.8,119.8,48.9z"/>
	<path class="st2" d="M139.2,40c-0.2,0.3-0.5,0.6-0.9,0.9c-0.4,0.3-0.8,0.6-1.2,0.8c-0.4,0.3-0.8,0.5-1.1,0.7
		c-0.3,0.2-0.5,0.3-0.5,0.4c0,0.1,0.1,0.2,0.1,0.5c0.1,0.3,0.2,0.6,0.3,0.9c0.1,0.4,0.3,0.7,0.4,1.1c0.1,0.4,0.3,0.7,0.4,1
		c0.1,0.2,0.1,0.4,0.2,0.7c0.1,0.3,0.2,0.6,0.2,0.8c0.1,0.3,0.1,0.5,0.2,0.8c0.1,0.2,0.1,0.3,0.1,0.4c0,0.3,0,0.6-0.1,0.8
		c-0.1,0.3-0.2,0.5-0.4,0.5c-0.1,0-0.2,0-0.3-0.1c-0.1-0.1-0.2-0.2-0.3-0.3c-0.1-0.1-0.1-0.2-0.2-0.3c0-0.1-0.1-0.2-0.1-0.2
		c0,0,0-0.1,0-0.2c0-0.1,0-0.2,0-0.2c0-0.3-0.1-0.8-0.3-1.5c-0.1-0.2-0.2-0.5-0.3-0.9c-0.1-0.4-0.3-0.8-0.4-1.2
		c-0.2-0.5-0.4-1-0.6-1.6c-0.1-0.2-0.2-0.4-0.2-0.4c-0.1,0-0.3,0.1-0.6,0.3c-0.3,0.2-0.6,0.4-1,0.7c-0.4,0.3-0.7,0.5-1.1,0.8
		c-0.4,0.3-0.8,0.6-1.1,0.8c-0.3,0.3-0.6,0.5-0.9,0.6c-0.2,0.2-0.4,0.3-0.5,0.3c-0.2,0-0.4,0-0.6-0.2c-0.2-0.1-0.2-0.3-0.3-0.5
		c0-0.1,0.1-0.3,0.4-0.5c0.3-0.2,0.6-0.5,1-0.8c0.4-0.3,0.9-0.6,1.4-0.9c0.5-0.3,0.9-0.6,1.4-0.9s0.9-0.5,1.5-0.9
		c-0.2-0.8-0.4-1.5-0.6-2.2c-0.1-0.5-0.3-1.1-0.4-1.5c-0.1-0.5-0.2-0.7-0.2-0.7c0-0.2,0-0.4,0.1-0.5c0.1-0.1,0.2-0.2,0.3-0.2
		c0.2,0,0.3,0.1,0.4,0.4c0.3,1,0.5,1.8,0.8,2.5c0.2,0.7,0.5,1.3,0.7,1.8c0.2,0,0.4-0.2,0.8-0.4c0.4-0.2,0.8-0.4,1.2-0.7
		c0.4-0.2,0.8-0.4,1.1-0.6c0.3-0.2,0.5-0.3,0.6-0.3c0.1,0,0.2,0,0.2,0.1S139.1,39.9,139.2,40z"/>
	<path class="st2" d="M146,45.8c0,0.4,0,0.8-0.1,1.1c-0.1,0.4-0.2,0.7-0.3,1c-0.2,0.3-0.3,0.5-0.6,0.7c-0.2,0.2-0.5,0.3-0.8,0.3
		c-0.5,0-0.9-0.1-1.2-0.3c-0.3-0.3-0.6-0.6-0.7-0.9c-0.2-0.4-0.3-0.7-0.4-1.1c-0.1-0.4-0.1-0.7-0.1-0.9c0-0.3,0-0.7,0.1-1.1
		c0.1-0.4,0.2-0.8,0.3-1.2c0.1-0.4,0.3-0.7,0.5-0.9c0.2-0.3,0.4-0.4,0.6-0.4c0.1,0,0.1,0,0.3,0c0.1,0,0.2,0.1,0.4,0.1
		c0.1,0.1,0.3,0.1,0.4,0.2c0.1,0.1,0.2,0.2,0.2,0.4c0.2,0,0.4,0.1,0.6,0.2c0.2,0.1,0.3,0.2,0.3,0.3c0.2,0.5,0.3,0.9,0.4,1.4
		C145.9,45.1,146,45.5,146,45.8z M144.7,45.4c0-0.3-0.1-0.5-0.2-0.8c-0.1-0.3-0.2-0.6-0.4-0.9c0,0-0.1,0-0.1,0c-0.1,0-0.1,0-0.2,0
		s-0.1,0-0.1,0c-0.2,0-0.4,0.1-0.5,0.2c-0.1,0.1-0.2,0.3-0.2,0.5c0,0.2-0.1,0.4-0.1,0.6c0,0.2,0,0.4,0,0.6c0,0.2,0,0.4,0.1,0.7
		s0.1,0.5,0.2,0.7c0.1,0.2,0.2,0.4,0.3,0.5c0.1,0.1,0.3,0.2,0.4,0.2c0.2,0,0.3-0.1,0.4-0.3c0.1-0.2,0.2-0.4,0.2-0.7
		c0.1-0.3,0.1-0.5,0.1-0.8C144.7,45.7,144.7,45.5,144.7,45.4z"/>
	<path class="st2" d="M166.4,37.6c-0.2,0.3-0.5,0.6-0.9,0.9c-0.4,0.3-0.8,0.6-1.2,0.8c-0.4,0.3-0.8,0.5-1.1,0.7s-0.5,0.3-0.5,0.4
		c0,0.1,0.1,0.2,0.2,0.5c0.1,0.3,0.2,0.6,0.3,0.9c0.1,0.4,0.3,0.7,0.4,1.1c0.1,0.4,0.3,0.7,0.4,1c0.1,0.2,0.1,0.4,0.2,0.7
		c0.1,0.3,0.2,0.6,0.2,0.8c0.1,0.3,0.1,0.5,0.2,0.8c0.1,0.2,0.1,0.3,0.1,0.4c0,0.3,0,0.6-0.1,0.8c-0.1,0.3-0.2,0.5-0.4,0.5
		c-0.1,0-0.2,0-0.3-0.1c-0.1-0.1-0.2-0.2-0.3-0.3c-0.1-0.1-0.1-0.2-0.2-0.3c0-0.1-0.1-0.2-0.1-0.2c0,0,0-0.1,0-0.2
		c0-0.1,0-0.2,0-0.2c0-0.3-0.1-0.8-0.3-1.5c-0.1-0.2-0.2-0.5-0.3-0.9c-0.1-0.4-0.3-0.8-0.4-1.2c-0.2-0.5-0.4-1-0.6-1.6
		c-0.1-0.2-0.1-0.4-0.2-0.4c-0.1,0-0.3,0.1-0.6,0.3c-0.3,0.2-0.6,0.4-1,0.7c-0.4,0.3-0.7,0.5-1.1,0.8c-0.4,0.3-0.8,0.6-1.1,0.8
		c-0.3,0.3-0.6,0.5-0.9,0.6c-0.2,0.2-0.4,0.3-0.5,0.3c-0.2,0-0.4,0-0.6-0.2c-0.2-0.1-0.2-0.3-0.3-0.5c0-0.1,0.1-0.3,0.4-0.5
		c0.3-0.2,0.6-0.5,1-0.8c0.4-0.3,0.9-0.6,1.4-0.9c0.5-0.3,0.9-0.6,1.4-0.9c0.4-0.3,0.9-0.5,1.5-0.9c-0.2-0.8-0.4-1.5-0.6-2.2
		c-0.1-0.5-0.3-1.1-0.4-1.5c-0.1-0.5-0.2-0.7-0.2-0.7c0-0.2,0-0.4,0.1-0.5c0.1-0.1,0.2-0.2,0.3-0.2c0.2,0,0.3,0.1,0.4,0.4
		c0.3,1,0.5,1.8,0.8,2.5c0.2,0.7,0.5,1.3,0.7,1.8c0.2,0,0.4-0.2,0.8-0.4c0.4-0.2,0.8-0.4,1.2-0.7c0.4-0.2,0.8-0.4,1.1-0.6
		c0.3-0.2,0.5-0.3,0.6-0.3c0.1,0,0.2,0,0.2,0.1C166.3,37.5,166.4,37.5,166.4,37.6z"/>
	<path class="st2" d="M177.1,43.9c0.1,0.1,0.1,0.1,0.1,0.1c0,0,0,0.1-0.1,0.3c-0.1,0.2-0.2,0.4-0.3,0.6c-0.1,0.2-0.3,0.4-0.5,0.6
		c-0.2,0.2-0.4,0.3-0.5,0.3c-0.4,0-0.7,0-0.9-0.1c-0.2-0.1-0.5-0.3-0.6-0.5c-0.2-0.2-0.3-0.5-0.4-0.7c-0.1-0.3-0.2-0.5-0.3-0.8
		c0-0.1-0.1-0.2-0.1-0.2c-0.1,0-0.1,0.2-0.3,0.6c-0.1,0.4-0.3,0.8-0.4,1.3s-0.3,0.9-0.4,1.3c-0.1,0.4-0.2,0.6-0.3,0.6
		c-0.3,0-0.6-0.1-0.9-0.3c-0.2-0.3-0.5-0.6-0.6-0.9c-0.2-0.4-0.3-0.7-0.4-1.1c-0.1-0.4-0.2-0.7-0.2-0.9c-0.1-0.5-0.3-1.3-0.6-2.4
		c-0.3-1.1-0.6-2.5-0.8-4.1c-0.1-0.3-0.1-0.6-0.2-0.9c-0.1-0.3-0.1-0.6-0.2-0.9c-0.1-0.3-0.2-0.7-0.2-1.1c-0.1-0.4-0.1-1-0.2-1.6
		c0,0,0-0.2,0-0.4c0-0.2,0-0.4,0-0.7c0-0.2,0.1-0.4,0.1-0.6c0.1-0.2,0.2-0.3,0.3-0.3c0.1,0,0.2,0.1,0.4,0.2c0.1,0.1,0.2,0.3,0.3,0.5
		c0.1,0.2,0.2,0.4,0.2,0.6c0.1,0.2,0.1,0.3,0.1,0.4c0,0.3,0,0.5,0,0.8c0,0.2,0,0.5,0,0.6c0,0.3,0.1,0.6,0.2,1
		c0.1,0.4,0.2,0.8,0.3,1.2c0.1,0.4,0.2,0.8,0.3,1.2c0.1,0.4,0.2,0.7,0.2,1c0,0,0,0.1,0.1,0.4c0.1,0.2,0.1,0.5,0.2,0.9
		c0.1,0.3,0.2,0.7,0.2,1.1c0.1,0.4,0.2,0.8,0.3,1.2c0.1,0.4,0.2,0.7,0.2,1c0.1,0.3,0.1,0.5,0.1,0.6c0,0.1,0,0.1,0.1,0.2
		c0,0.1,0.1,0.2,0.1,0.3c0,0.1,0.1,0.2,0.1,0.3c0,0.1,0.1,0.2,0.2,0.2c0.1-0.2,0.2-0.6,0.3-1c0.1-0.5,0.3-0.9,0.4-1.4
		c0.1-0.5,0.3-0.9,0.4-1.3c0.1-0.4,0.3-0.6,0.4-0.6c0.1,0,0.3,0,0.4,0c0.1,0,0.2,0.1,0.4,0.1c0.2,0.1,0.3,0.1,0.3,0.3
		c0,0.1,0,0.3,0.1,0.4c0.1,0.2,0.1,0.5,0.2,0.8c0.1,0.3,0.2,0.7,0.4,1c0.1,0.3,0.3,0.6,0.5,0.8s0.3,0.3,0.5,0.3
		c0.1,0,0.2-0.1,0.3-0.3c0.1-0.2,0.3-0.3,0.5-0.4c0,0,0.1,0,0.2,0.1C176.9,43.8,177,43.8,177.1,43.9z"/>
	<path class="st2" d="M186.5,45.2c0,0,0,0.1,0,0.2c0,0.1-0.1,0.3-0.2,0.5c0,0.1-0.2,0.2-0.3,0.4c-0.2,0.2-0.4,0.4-0.7,0.5
		c-0.3,0.2-0.7,0.4-1.1,0.5c-0.4,0.2-0.9,0.3-1.5,0.3c-0.4,0-0.8,0-1.2-0.2c-0.4-0.2-0.8-0.4-1.1-0.7c-0.3-0.3-0.6-0.8-0.9-1.3
		c-0.2-0.5-0.4-1.2-0.5-1.9c-0.1-0.7,0-1.4,0.1-2c0.1-0.6,0.3-1.2,0.5-1.7c0.2-0.5,0.5-0.9,0.8-1.2c0.3-0.3,0.6-0.5,1-0.5
		c0.3,0,0.6,0,0.9,0.1c0.3,0.1,0.6,0.2,0.8,0.4c0.3,0.2,0.5,0.3,0.6,0.6c0.2,0.2,0.3,0.4,0.3,0.7c0,0.3-0.1,0.6-0.3,0.9
		c-0.2,0.3-0.5,0.6-0.8,0.9c-0.3,0.3-0.6,0.5-1,0.7c-0.3,0.2-0.6,0.3-0.8,0.3c-0.1,0-0.2,0-0.3-0.1c-0.1-0.1-0.1-0.2-0.2-0.4
		c0-0.2,0.1-0.5,0.3-0.6c0.2-0.2,0.4-0.3,0.7-0.5c0.3-0.1,0.5-0.3,0.7-0.5c0.2-0.2,0.3-0.4,0.3-0.7c0,0-0.1-0.1-0.2-0.3
		c-0.1-0.1-0.4-0.2-0.7-0.2c-0.2,0-0.4,0.1-0.6,0.4c-0.2,0.2-0.4,0.5-0.6,0.9c-0.2,0.4-0.3,0.8-0.4,1.3c-0.1,0.5-0.1,1-0.1,1.6
		c0,0.5,0.2,0.9,0.4,1.2c0.2,0.4,0.5,0.7,0.7,0.9c0.3,0.2,0.6,0.4,1,0.5c0.4,0.1,0.7,0.2,1.1,0.1c0.3,0,0.6-0.1,0.9-0.3
		c0.3-0.1,0.6-0.3,0.9-0.5c0.3-0.2,0.5-0.3,0.7-0.4c0.2-0.1,0.3-0.2,0.4-0.2c0.1,0,0.1,0,0.2,0.1C186.4,45.1,186.5,45.2,186.5,45.2z
		"/>
</g>
<g class="st1">
	<path class="st2" d="M11.7,81.5c0,0.2,0,0.4,0,0.6c0,0.2-0.1,0.4-0.1,0.5c0,0.1-0.2,0.3-0.5,0.6c-0.3,0.3-0.6,0.7-1,1.1
		c-0.4,0.4-0.9,0.7-1.4,1.1c-0.5,0.3-1,0.5-1.5,0.6c-0.3,0-0.6,0-0.9-0.1s-0.6-0.2-0.9-0.4s-0.5-0.5-0.7-0.8
		c-0.2-0.3-0.3-0.8-0.4-1.3c-0.1-0.9,0-1.7,0.2-2.4c0.2-0.7,0.5-1.3,0.7-1.7c0.1-0.2,0.3-0.4,0.4-0.6c0.2-0.2,0.4-0.4,0.6-0.6
		c0.2-0.2,0.4-0.3,0.5-0.5c0.2-0.1,0.3-0.2,0.3-0.2c0.2,0,0.3,0,0.5,0.1c0.1,0.1,0.2,0.2,0.2,0.3c0,0.1,0,0.3-0.1,0.4
		c-0.1,0.1-0.2,0.2-0.3,0.4c-0.1,0.1-0.3,0.3-0.5,0.5c-0.2,0.2-0.4,0.5-0.6,0.8c-0.4,0.6-0.6,1.3-0.8,1.9c-0.2,0.6-0.2,1.2-0.2,1.7
		c0,0.5,0.2,0.8,0.6,1.1c0.4,0.2,0.7,0.4,1.1,0.3c0.7-0.1,1.3-0.3,1.8-0.6c0.5-0.4,0.9-0.7,1.3-1.1c0.3-0.4,0.6-0.8,0.8-1.1
		c0.2-0.3,0.4-0.5,0.5-0.5C11.6,81.1,11.7,81.2,11.7,81.5z"/>
	<path class="st2" d="M26.6,79.5c0,0.3-0.1,0.7-0.3,1.2c-0.3,0.5-0.6,1-1.1,1.5c-0.5,0.5-1,0.9-1.6,1.3c-0.6,0.4-1.3,0.6-2,0.7
		c-0.3,0-0.7,0-1-0.1c-0.4-0.1-0.7-0.2-1.1-0.4s-0.7-0.4-1-0.7c-0.3-0.3-0.5-0.6-0.7-1c-0.1,0.1-0.2,0.3-0.3,0.6
		c-0.1,0.3-0.3,0.5-0.4,0.8c-0.2,0.3-0.3,0.5-0.5,0.7c-0.2,0.2-0.4,0.3-0.6,0.3c-0.2,0-0.4-0.1-0.6-0.3c-0.2-0.2-0.3-0.5-0.4-0.8
		c-0.1-0.3-0.2-0.6-0.3-0.8c-0.1-0.3-0.1-0.4-0.1-0.5c0-0.2,0-0.6,0.1-1.2c0.1-0.6,0.2-1.3,0.4-1.9c0.2-0.7,0.5-1.3,0.8-1.8
		c0.3-0.5,0.8-0.8,1.3-0.9c0.2,0,0.3,0.1,0.4,0.2c0.1,0.2,0.1,0.3,0.1,0.5l0.1,0.8c0.1,0.1,0.2,0.1,0.3,0.1c0.1,0,0.2,0,0.3,0.1
		c0.1,0,0.2,0.1,0.2,0.2c0.1,0.1,0.1,0.2,0.1,0.4c0,0.1,0,0.2,0,0.3c0,0.1,0,0.2,0,0.3c0,0.5,0.1,0.9,0.2,1.4
		c0.1,0.4,0.3,0.8,0.5,1.2c0.2,0.3,0.6,0.6,1,0.8c0.4,0.2,0.9,0.3,1.5,0.2c0.8-0.1,1.4-0.3,2-0.7c0.5-0.4,0.9-0.8,1.3-1.2
		s0.6-0.8,0.8-1.2c0.2-0.3,0.3-0.5,0.5-0.5C26.4,79.2,26.5,79.3,26.6,79.5z M17,79.2c0-0.1,0-0.1-0.1-0.2c0-0.1-0.1-0.1-0.1-0.2
		c0-0.1,0-0.1,0-0.2c0-0.1,0-0.1,0-0.2c0-0.1,0-0.1-0.1-0.1c0,0-0.1-0.1-0.1-0.1c-0.2,0.1-0.3,0.2-0.5,0.5c-0.1,0.3-0.3,0.6-0.4,1
		c-0.1,0.4-0.2,0.7-0.3,1.1c-0.1,0.4-0.1,0.7-0.1,0.9c0,0.1,0.1,0.3,0.2,0.6c0.1,0.3,0.2,0.5,0.3,0.5c0.2-0.7,0.5-1.3,0.7-1.9
		C17,80.3,17.1,79.7,17,79.2z"/>
	<path class="st2" d="M35.3,76.6c0,0.5-0.1,0.9-0.3,1.4c-0.2,0.5-0.5,0.9-0.9,1.3c-0.3,0.4-0.7,0.8-1.1,1.1
		c-0.4,0.4-0.8,0.7-1.2,0.9c-0.3,0.3-0.6,0.5-0.8,0.7c-0.2,0.2-0.3,0.3-0.3,0.4c0,0.2,0.1,0.6,0.2,1c0.1,0.4,0.2,0.9,0.3,1.4
		c0.1,0.5,0.2,1,0.4,1.5c0.1,0.5,0.2,1,0.3,1.4c0,0,0,0.1,0.1,0.2c0,0.1,0.1,0.3,0.1,0.5c0.1,0.2,0.1,0.3,0.2,0.5
		c0,0.1,0.1,0.2,0.1,0.3c0,0.1,0,0.3,0,0.4c0,0.2,0,0.3,0,0.4c0,0.1-0.1,0.3-0.2,0.4s-0.2,0.2-0.3,0.2c-0.2,0-0.3-0.1-0.5-0.2
		c-0.1-0.2-0.2-0.3-0.2-0.5c0,0,0-0.1,0-0.1c0,0,0-0.1,0-0.1c0-0.2-0.1-0.7-0.4-1.6c-0.2-0.8-0.5-1.9-0.8-3
		c-0.3-1.2-0.6-2.4-0.8-3.8c-0.3-1.4-0.4-2.6-0.6-3.9c0-0.1,0-0.2,0-0.3c0-0.1,0-0.2,0-0.3c-0.2,0-0.4,0.1-0.8,0.3
		c-0.3,0.2-0.7,0.4-1,0.6c-0.3,0.2-0.6,0.5-0.8,0.7c-0.2,0.2-0.4,0.5-0.3,0.6l-0.2,0c-0.1,0-0.1,0-0.2-0.1c-0.1-0.1-0.2-0.1-0.2-0.2
		c-0.1-0.1-0.1-0.2-0.2-0.3c-0.1-0.1-0.1-0.1-0.1-0.2c0-0.4,0.2-0.8,0.6-1.1c0.4-0.4,1-0.7,1.6-1c0.6-0.3,1.4-0.6,2.2-0.8
		c0.8-0.2,1.5-0.4,2.3-0.4c0.7-0.1,1.3,0,1.8,0.1c0.5,0.1,0.9,0.3,1.2,0.5c0.3,0.2,0.5,0.4,0.7,0.6C35.2,76.2,35.3,76.4,35.3,76.6z
		 M34,76.6c0-0.2-0.3-0.3-0.7-0.5c-0.5-0.1-1-0.2-1.6-0.1c-0.5,0-0.9,0.1-1.2,0.2c-0.2,0.1-0.4,0.1-0.5,0.2c0,0.3,0,0.6,0,1
		c0,0.4,0,0.8,0.1,1.2c0,0.4,0.1,0.8,0.1,1.2c0.1,0.4,0.1,0.7,0.2,1c0.2-0.2,0.6-0.4,1-0.8c0.4-0.3,0.8-0.7,1.2-1.1
		c0.4-0.4,0.7-0.8,1-1.2C33.9,77.3,34,76.9,34,76.6z"/>
	<path class="st2" d="M43.6,71.4c-0.2,0.3-0.5,0.6-0.9,0.9c-0.4,0.3-0.8,0.6-1.2,0.8c-0.4,0.3-0.8,0.5-1.1,0.7
		c-0.3,0.2-0.5,0.3-0.5,0.4c0,0.1,0.1,0.2,0.2,0.5c0.1,0.3,0.2,0.6,0.3,0.9c0.1,0.4,0.3,0.7,0.4,1.1c0.1,0.4,0.3,0.7,0.4,1
		c0.1,0.2,0.1,0.4,0.2,0.7c0.1,0.3,0.2,0.6,0.2,0.8c0.1,0.3,0.1,0.5,0.2,0.8c0.1,0.2,0.1,0.3,0.1,0.4c0,0.3,0,0.6-0.1,0.8
		c-0.1,0.3-0.2,0.5-0.4,0.5c-0.1,0-0.2,0-0.3-0.1c-0.1-0.1-0.2-0.2-0.3-0.3c-0.1-0.1-0.1-0.2-0.2-0.3c0-0.1-0.1-0.2-0.1-0.2
		c0,0,0-0.1,0-0.2c0-0.1,0-0.2,0-0.2c0-0.3-0.1-0.8-0.3-1.5c-0.1-0.2-0.2-0.5-0.3-0.9c-0.1-0.4-0.3-0.8-0.4-1.2
		c-0.2-0.5-0.4-1-0.6-1.6c-0.1-0.2-0.1-0.4-0.2-0.4c-0.1,0-0.3,0.1-0.6,0.3c-0.3,0.2-0.6,0.4-1,0.7c-0.4,0.3-0.7,0.5-1.1,0.8
		c-0.4,0.3-0.8,0.6-1.1,0.8c-0.3,0.3-0.6,0.5-0.9,0.6c-0.2,0.2-0.4,0.3-0.5,0.3c-0.2,0-0.4,0-0.6-0.2c-0.2-0.1-0.2-0.3-0.3-0.5
		c0-0.1,0.1-0.3,0.4-0.5c0.3-0.2,0.6-0.5,1-0.8c0.4-0.3,0.9-0.6,1.4-0.9c0.5-0.3,0.9-0.6,1.4-0.9c0.4-0.3,0.9-0.5,1.5-0.9
		c-0.2-0.8-0.4-1.5-0.6-2.2c-0.1-0.5-0.3-1.1-0.4-1.5c-0.1-0.5-0.2-0.7-0.2-0.7c0-0.2,0-0.4,0.1-0.5c0.1-0.1,0.2-0.2,0.3-0.2
		c0.2,0,0.3,0.1,0.4,0.4c0.3,1,0.5,1.8,0.8,2.5c0.2,0.7,0.5,1.3,0.7,1.8c0.2,0,0.4-0.2,0.8-0.4c0.4-0.2,0.8-0.4,1.2-0.7
		c0.4-0.2,0.8-0.4,1.1-0.6c0.3-0.2,0.5-0.3,0.6-0.3c0.1,0,0.2,0,0.2,0.1C43.5,71.3,43.5,71.4,43.6,71.4z"/>
	<path class="st2" d="M54.6,78.2c0,0.2-0.1,0.3-0.3,0.5c-0.2,0.2-0.4,0.4-0.7,0.6c-0.3,0.2-0.6,0.3-0.8,0.5
		c-0.3,0.1-0.5,0.2-0.6,0.2c-0.2,0-0.3,0-0.5-0.1c-0.2-0.1-0.4-0.2-0.6-0.3c-0.2-0.1-0.3-0.2-0.5-0.3c-0.1-0.1-0.2-0.2-0.3-0.2
		c0,0.1-0.1,0.2-0.2,0.3c-0.1,0.2-0.2,0.4-0.3,0.6c-0.1,0.2-0.3,0.4-0.4,0.5c-0.2,0.2-0.3,0.2-0.5,0.3c-0.5,0-0.9-0.2-1.3-0.6
		c-0.4-0.5-0.7-1-1-1.6c-0.3-0.6-0.5-1.2-0.7-1.8c-0.2-0.6-0.3-1-0.3-1.2c0-0.1,0-0.2,0.2-0.3c0.1-0.1,0.2-0.1,0.3-0.1
		c0.3,0,0.4,0,0.5,0.2s0.2,0.3,0.2,0.5c0,0.2,0.1,0.4,0.2,0.8c0.1,0.4,0.3,0.8,0.5,1.2c0.2,0.4,0.4,0.8,0.6,1.1
		c0.2,0.3,0.3,0.5,0.5,0.5c0.2,0,0.4-0.2,0.6-0.5c0.1-0.3,0.3-0.7,0.3-1.1c0.1-0.4,0.1-0.8,0.1-1.1c0-0.4,0-0.6,0-0.7
		c0,0,0-0.1,0-0.2c0-0.1,0-0.2,0-0.3c0-0.1,0-0.2,0-0.3c0-0.1,0-0.2,0-0.2c0-0.1,0-0.2-0.1-0.2c-0.1,0-0.1-0.1-0.1-0.3
		c0-0.1,0-0.2,0.1-0.3c0.1-0.1,0.3-0.2,0.7-0.2c0.1,0,0.3,0,0.3,0.1c0.1,0.1,0.2,0.2,0.2,0.3c0,0.1,0.1,0.2,0.1,0.3
		c0,0.1,0,0.2,0,0.2c0,0,0,0.1,0,0.4c0,0.2,0,0.5,0,0.8c0,0.3,0,0.5,0,0.8c0,0.3,0,0.4,0,0.5c0,0.1,0,0.2,0.1,0.3
		c0.1,0.2,0.1,0.3,0.2,0.5c0.1,0.2,0.2,0.3,0.3,0.4c0.1,0.1,0.2,0.2,0.4,0.2c0.2,0,0.4-0.1,0.6-0.1c0.2-0.1,0.4-0.2,0.5-0.3
		c0.2-0.1,0.3-0.2,0.5-0.3c0.1-0.1,0.3-0.1,0.4-0.1c0.2,0,0.3,0,0.5,0.1C54.5,78,54.5,78.1,54.6,78.2z"/>
	<path class="st2" d="M61.6,73.8c0,0.1,0,0.2-0.1,0.3c-0.1,0.1-0.2,0.2-0.4,0.2c-0.1,0.1-0.3,0.1-0.4,0.2c-0.1,0-0.3,0.1-0.3,0.1
		c-0.3,0-0.5,0-0.5,0c-0.1,0-0.2,0-0.2,0c-0.4,0-0.8,0.1-1.1,0.2c-0.3,0.1-0.5,0.2-0.6,0.4c-0.1,0.2-0.2,0.4-0.2,0.6s0,0.5,0,0.9
		c0.1,0.6,0.1,1,0.2,1.4s0.1,0.6,0.2,0.8s0.1,0.4,0.2,0.5c0.1,0.1,0.1,0.2,0.1,0.3c0,0.1-0.1,0.3-0.2,0.5c-0.1,0.2-0.3,0.3-0.4,0.3
		c-0.2,0-0.4-0.2-0.6-0.5c-0.2-0.4-0.4-0.8-0.6-1.3c-0.2-0.5-0.3-1-0.4-1.5c-0.1-0.5-0.2-0.9-0.2-1.2c0-0.3,0-0.6,0-0.9
		c0-0.3,0.1-0.5,0.2-0.7c0.1-0.2,0.2-0.4,0.3-0.5c0.1-0.1,0.2-0.2,0.3-0.2c0.1,0,0.2,0,0.2,0.1c0.1,0.1,0.1,0.1,0.2,0.2
		c0,0.1,0.1,0.1,0.1,0.2c0,0.1,0.1,0.1,0.2,0.1c0.2,0,0.4-0.1,0.8-0.3c0.3-0.2,0.8-0.3,1.3-0.4c0.5,0,0.8-0.1,1.1-0.1
		c0.2,0,0.5,0,0.7,0.1c0.1,0,0.1,0,0.2,0.1C61.6,73.6,61.6,73.7,61.6,73.8z"/>
	<path class="st2" d="M71.7,78.4c0,0,0,0.1,0,0.2c0,0.1-0.1,0.3-0.2,0.5c0,0.1-0.2,0.2-0.3,0.4c-0.2,0.2-0.4,0.4-0.7,0.5
		c-0.3,0.2-0.7,0.4-1.1,0.5c-0.4,0.2-0.9,0.3-1.5,0.3c-0.4,0-0.8,0-1.2-0.2c-0.4-0.2-0.8-0.4-1.1-0.7c-0.3-0.3-0.6-0.8-0.9-1.3
		c-0.2-0.5-0.4-1.2-0.5-1.9c-0.1-0.7,0-1.4,0.1-2s0.3-1.2,0.5-1.7c0.2-0.5,0.5-0.9,0.8-1.2c0.3-0.3,0.6-0.5,1-0.5
		c0.3,0,0.6,0,0.9,0.1c0.3,0.1,0.6,0.2,0.8,0.4c0.3,0.2,0.5,0.3,0.6,0.6c0.2,0.2,0.3,0.4,0.3,0.7c0,0.3-0.1,0.6-0.3,0.9
		c-0.2,0.3-0.5,0.6-0.8,0.9c-0.3,0.3-0.6,0.5-1,0.7c-0.3,0.2-0.6,0.3-0.8,0.3c-0.1,0-0.2,0-0.3-0.1c-0.1-0.1-0.1-0.2-0.2-0.4
		c0-0.2,0.1-0.5,0.3-0.6c0.2-0.2,0.4-0.3,0.7-0.5c0.3-0.1,0.5-0.3,0.7-0.5c0.2-0.2,0.3-0.4,0.3-0.7c0,0-0.1-0.1-0.2-0.3
		c-0.1-0.1-0.4-0.2-0.7-0.2c-0.2,0-0.4,0.1-0.6,0.4c-0.2,0.2-0.4,0.5-0.6,0.9c-0.2,0.4-0.3,0.8-0.4,1.3c-0.1,0.5-0.1,1-0.1,1.6
		c0,0.5,0.2,0.9,0.4,1.2c0.2,0.4,0.5,0.7,0.7,0.9c0.3,0.2,0.6,0.4,1,0.5c0.4,0.1,0.7,0.2,1.1,0.1c0.3,0,0.6-0.1,0.9-0.3
		c0.3-0.1,0.6-0.3,0.9-0.5c0.3-0.2,0.5-0.3,0.7-0.4c0.2-0.1,0.3-0.2,0.4-0.2c0.1,0,0.1,0,0.2,0.1C71.7,78.3,71.7,78.3,71.7,78.4z"/>
	<path class="st2" d="M76.3,79.9c0,0.2,0,0.5-0.2,0.9c-0.1,0.4-0.3,0.8-0.5,1.2c-0.2,0.4-0.4,0.7-0.7,1.1s-0.5,0.5-0.8,0.5
		c-0.1,0-0.3,0-0.4-0.1c-0.1-0.1-0.2-0.2-0.2-0.2c0,0,0.1-0.1,0.2-0.4c0.2-0.2,0.3-0.5,0.5-0.8c0.2-0.3,0.4-0.6,0.5-1
		c0.1-0.4,0.2-0.7,0.2-1c0-0.3-0.1-0.6-0.2-0.8c-0.1-0.2-0.2-0.3-0.3-0.4c-0.1-0.1-0.2-0.2-0.3-0.3c-0.1-0.1-0.1-0.2-0.2-0.4
		c0-0.3,0.1-0.4,0.4-0.4c0.3,0,0.5,0,0.8,0.2c0.2,0.2,0.4,0.4,0.6,0.6c0.2,0.2,0.3,0.5,0.4,0.8C76.2,79.5,76.3,79.8,76.3,79.9z"/>
	<path class="st2" d="M101.5,76c0,0.1,0,0.3-0.1,0.4c-0.1,0.1-0.2,0.2-0.3,0.3c-0.1,0.1-0.2,0.1-0.4,0.2c-0.1,0-0.2,0.1-0.3,0.1
		c-0.4,0-0.7-0.1-1-0.5c-0.3-0.4-0.6-0.8-0.8-1.3s-0.4-0.9-0.5-1.4c-0.1-0.4-0.2-0.7-0.2-0.7c-0.1,0.2-0.2,0.5-0.2,1
		c-0.1,0.5-0.2,1-0.3,1.4c-0.1,0.5-0.3,0.9-0.5,1.3c-0.2,0.4-0.5,0.6-0.9,0.6c-0.2,0-0.4-0.1-0.5-0.3s-0.4-0.5-0.5-0.8
		c-0.2-0.3-0.3-0.7-0.5-1.1c-0.2-0.4-0.3-0.8-0.5-1.2c-0.2-0.4-0.3-0.8-0.5-1.1c-0.2-0.4-0.3-0.6-0.5-0.8c-0.1,0.3-0.1,0.7-0.2,1.1
		c0,0.5-0.1,1-0.1,1.5c0,0.5,0,1,0,1.5c0,0.5,0,0.9,0.1,1.3c0,0.3,0,0.4-0.2,0.6c-0.1,0.1-0.3,0.2-0.4,0.2c-0.2,0-0.4-0.1-0.6-0.3
		c-0.2-0.2-0.4-0.6-0.7-1c-0.2-0.4-0.5-0.8-0.7-1.4c-0.2-0.5-0.4-1-0.6-1.5c-0.2-0.5-0.3-1-0.4-1.5c-0.1-0.5-0.2-0.9-0.2-1.2
		c0-0.2,0-0.5,0-0.6c0-0.2,0-0.3,0-0.5c0-0.1,0-0.2,0-0.2c0-0.1,0-0.1,0-0.1c0,0,0-0.1-0.1-0.1c0-0.1,0.1-0.1,0.2-0.3
		c0.1-0.1,0.3-0.2,0.4-0.2c0.2,0,0.4,0,0.5,0.1c0.1,0.1,0.1,0.2,0.2,0.4c0,0.1,0,0.1,0,0.2c0,0.1,0,0.4,0,0.7c0,0.3,0.1,0.6,0.2,1.1
		c0.1,0.5,0.3,1,0.5,1.5c0.2,0.5,0.3,1,0.5,1.4c0.2,0.4,0.3,0.7,0.4,0.8c0-0.1,0-0.2,0-0.3c0-0.1,0-0.2,0-0.2l0.1-2.2
		c0-0.6,0.1-1.2,0.3-1.8c0.2-0.6,0.4-1.1,0.6-1.5c0.1-0.2,0.2-0.2,0.3-0.2c0.1,0,0.2,0.1,0.3,0.2c0.3,0.5,0.6,1,0.8,1.4
		c0.2,0.5,0.4,1,0.5,1.4c0.2,0.5,0.3,0.9,0.5,1.4c0.2,0.5,0.5,0.9,0.8,1.4c0.1-0.2,0.3-0.6,0.4-1.2c0.2-0.5,0.3-1.1,0.5-1.7
		c0.2-0.6,0.3-1,0.5-1.5c0.2-0.4,0.3-0.6,0.4-0.6c0.1,0,0.1,0,0.3,0c0.1,0,0.2,0,0.3,0c0.2,0,0.3,0.2,0.5,0.5
		c0.1,0.4,0.3,0.8,0.4,1.3c0.1,0.5,0.2,1,0.4,1.5c0.1,0.5,0.2,0.8,0.4,1.1c0.1,0.2,0.2,0.3,0.4,0.5c0.2,0.1,0.3,0.3,0.5,0.4
		C101.2,75.8,101.4,75.9,101.5,76z"/>
	<path class="st2" d="M116.2,71.7c0,0.3-0.1,0.7-0.3,1.2c-0.3,0.5-0.6,1-1.1,1.5c-0.5,0.5-1,0.9-1.6,1.3c-0.6,0.4-1.3,0.6-2,0.7
		c-0.3,0-0.7,0-1-0.1c-0.4-0.1-0.7-0.2-1.1-0.4c-0.4-0.2-0.7-0.4-1-0.7c-0.3-0.3-0.5-0.6-0.7-1c-0.1,0.1-0.2,0.3-0.3,0.6
		c-0.1,0.3-0.3,0.5-0.4,0.8c-0.2,0.3-0.3,0.5-0.5,0.7c-0.2,0.2-0.4,0.3-0.6,0.3c-0.2,0-0.4-0.1-0.6-0.3c-0.2-0.2-0.3-0.5-0.4-0.8
		c-0.1-0.3-0.2-0.6-0.3-0.8c-0.1-0.3-0.1-0.4-0.1-0.5c0-0.2,0-0.6,0.1-1.2c0.1-0.6,0.2-1.3,0.4-1.9c0.2-0.7,0.5-1.3,0.8-1.8
		c0.3-0.5,0.8-0.8,1.3-0.9c0.2,0,0.3,0.1,0.4,0.2c0.1,0.2,0.1,0.3,0.1,0.5l0.1,0.8c0.1,0.1,0.2,0.1,0.3,0.1c0.1,0,0.2,0,0.3,0.1
		c0.1,0,0.2,0.1,0.2,0.2c0.1,0.1,0.1,0.2,0.1,0.4c0,0.1,0,0.2,0,0.3c0,0.1,0,0.2,0,0.3c0,0.5,0.1,0.9,0.2,1.4
		c0.1,0.4,0.3,0.8,0.5,1.2c0.2,0.3,0.6,0.6,1,0.8c0.4,0.2,0.9,0.3,1.5,0.2c0.8-0.1,1.4-0.3,2-0.7c0.5-0.4,0.9-0.8,1.3-1.2
		s0.6-0.8,0.8-1.2c0.2-0.4,0.4-0.5,0.5-0.5C116.1,71.3,116.2,71.4,116.2,71.7z M106.7,71.3c0-0.1,0-0.1-0.1-0.2
		c0-0.1-0.1-0.1-0.1-0.2c0-0.1,0-0.1,0-0.2c0-0.1,0-0.1,0-0.2c0-0.1,0-0.1-0.1-0.1c0,0-0.1-0.1-0.1-0.1c-0.2,0.1-0.3,0.2-0.5,0.5
		c-0.1,0.3-0.3,0.6-0.4,1c-0.1,0.4-0.2,0.7-0.3,1.1c-0.1,0.4-0.1,0.7-0.1,0.9c0,0.1,0.1,0.3,0.2,0.6c0.1,0.3,0.2,0.5,0.3,0.5
		c0.3-0.7,0.5-1.3,0.7-1.9C106.6,72.5,106.7,71.9,106.7,71.3z"/>
	<path class="st2" d="M124.8,73.2c0,0.1,0,0.2-0.1,0.3c-0.1,0.1-0.1,0.2-0.2,0.3c-0.1,0.1-0.2,0.2-0.3,0.3s-0.2,0.1-0.3,0.1
		c-0.3,0-0.7,0-1.2-0.1c-0.5-0.1-0.9-0.3-1.2-0.5c-0.3-0.3-0.6-0.6-0.9-1c-0.3-0.4-0.6-1-0.9-1.8c-0.1,0.8-0.3,1.6-0.5,2.4
		c-0.2,0.8-0.5,1.5-1.1,2.2c0,0-0.1,0.1-0.2,0.1c-0.1,0-0.3,0-0.4-0.2c-0.2-0.1-0.2-0.2-0.2-0.4c0-0.1,0-0.4-0.1-0.9
		c-0.1-0.5-0.1-1-0.2-1.5c-0.1-0.6-0.2-1.1-0.2-1.7s-0.1-1.1-0.2-1.4c0-0.2,0-0.4,0-0.7c0-0.3,0-0.6,0.1-0.8c0,0,0.1-0.1,0.2-0.2
		c0.1-0.1,0.2-0.2,0.4-0.2c0.1,0,0.2,0.1,0.2,0.2c0,0.2,0.1,0.3,0.1,0.5l0.4,4.2c0,0.1,0,0.2,0.1,0.4c0,0.2,0.1,0.3,0.2,0.3
		c0.2-0.4,0.3-1,0.4-1.6c0.1-0.6,0.2-1.2,0.4-1.7c0.1-0.5,0.2-1,0.4-1.4c0.1-0.4,0.3-0.6,0.4-0.6c0.2,0,0.3,0,0.4,0.1
		c0.1,0.1,0.2,0.2,0.3,0.4c0.1,0.5,0.2,1,0.3,1.4c0.1,0.4,0.2,0.8,0.3,1.1c0.1,0.3,0.3,0.6,0.4,0.9s0.4,0.5,0.7,0.7
		c0.3,0.2,0.6,0.4,0.9,0.4s0.6,0.1,0.8,0.1c0.1,0,0.2,0,0.3-0.1c0.1-0.1,0.2-0.1,0.3-0.1c0.1,0,0.1,0.1,0.2,0.2
		C124.8,73.1,124.8,73.2,124.8,73.2z"/>
	<path class="st2" d="M138.8,69.7c0,0.3-0.1,0.7-0.3,1.2c-0.3,0.5-0.6,1-1.1,1.5c-0.5,0.5-1,0.9-1.6,1.3c-0.6,0.4-1.3,0.6-2,0.7
		c-0.3,0-0.7,0-1-0.1c-0.4-0.1-0.7-0.2-1.1-0.4s-0.7-0.4-1-0.7c-0.3-0.3-0.5-0.6-0.7-1c-0.1,0.1-0.2,0.3-0.3,0.6
		c-0.1,0.3-0.3,0.5-0.4,0.8c-0.2,0.3-0.3,0.5-0.5,0.7c-0.2,0.2-0.4,0.3-0.6,0.3c-0.2,0-0.4-0.1-0.6-0.3c-0.2-0.2-0.3-0.5-0.4-0.8
		c-0.1-0.3-0.2-0.6-0.3-0.8c-0.1-0.3-0.1-0.4-0.1-0.5c0-0.2,0-0.6,0.1-1.2c0.1-0.6,0.2-1.3,0.4-1.9c0.2-0.7,0.5-1.3,0.8-1.8
		c0.3-0.5,0.8-0.8,1.3-0.9c0.2,0,0.3,0.1,0.4,0.2c0.1,0.2,0.1,0.3,0.1,0.5l0.1,0.8c0.1,0.1,0.2,0.1,0.3,0.1c0.1,0,0.2,0,0.3,0.1
		c0.1,0,0.2,0.1,0.2,0.2c0.1,0.1,0.1,0.2,0.1,0.4c0,0.1,0,0.2,0,0.3c0,0.1,0,0.2,0,0.3c0,0.5,0.1,0.9,0.2,1.4
		c0.1,0.4,0.3,0.8,0.5,1.2c0.2,0.3,0.6,0.6,1,0.8c0.4,0.2,0.9,0.3,1.5,0.2c0.8-0.1,1.4-0.3,2-0.7c0.5-0.4,0.9-0.8,1.3-1.2
		c0.3-0.4,0.6-0.8,0.8-1.2c0.2-0.3,0.4-0.5,0.5-0.5C138.6,69.4,138.8,69.5,138.8,69.7z M129.2,69.3c0-0.1,0-0.1-0.1-0.2
		c0-0.1-0.1-0.1-0.1-0.2c0-0.1,0-0.1,0-0.2c0-0.1,0-0.1,0-0.2c0-0.1,0-0.1-0.1-0.1c0,0-0.1-0.1-0.1-0.1c-0.2,0.1-0.3,0.2-0.5,0.5
		c-0.1,0.3-0.3,0.6-0.4,1c-0.1,0.4-0.2,0.7-0.3,1.1c-0.1,0.4-0.1,0.7-0.1,0.9c0,0.1,0.1,0.3,0.2,0.6c0.1,0.3,0.2,0.5,0.3,0.5
		c0.2-0.7,0.5-1.3,0.7-1.9C129.2,70.5,129.3,69.9,129.2,69.3z"/>
	<path class="st2" d="M146,72.3c0,0.2,0,0.3-0.2,0.4c-0.1,0.1-0.2,0.2-0.2,0.3c0,0,0,0.1,0.1,0.3c0.1,0.2,0.2,0.4,0.3,0.7
		c0.2,0.5,0.3,0.9,0.4,1.2c0.1,0.3,0.2,0.7,0.3,1c0.1,0.3,0.2,0.6,0.2,0.9c0.1,0.3,0.1,0.6,0.1,1c0,0.4,0,0.8-0.1,1.2
		c-0.1,0.4-0.2,0.8-0.4,1.1c-0.2,0.3-0.5,0.6-0.8,0.8c-0.3,0.2-0.7,0.4-1.1,0.4c-0.7,0.1-1.2,0-1.6-0.3c-0.4-0.2-0.7-0.5-1-0.8
		c-0.2-0.3-0.4-0.6-0.5-1c-0.1-0.3-0.1-0.5-0.1-0.7c-0.1-0.7,0.1-1.3,0.3-2c0.3-0.7,0.6-1.3,1-1.9c0.4-0.6,0.7-1.1,1-1.4
		c0.3-0.4,0.5-0.6,0.5-0.7L144,72c-0.2,0.2-0.3,0.5-0.4,0.8c-0.1,0.3-0.2,0.5-0.4,0.8c-0.1,0.2-0.3,0.4-0.5,0.6
		c-0.2,0.2-0.4,0.3-0.7,0.3c-0.3,0-0.7,0-1-0.2c-0.3-0.2-0.7-0.4-0.9-0.8c-0.3-0.4-0.5-0.8-0.7-1.4c-0.2-0.5-0.3-1.2-0.4-1.9
		c0-0.4,0-0.9,0.1-1.6c0.1-0.6,0.2-1.2,0.4-1.8c0.2-0.6,0.5-1.1,0.9-1.6s0.8-0.7,1.4-0.7c0.3,0,0.6,0,0.9,0.1
		c0.3,0.1,0.4,0.2,0.4,0.4c0,0.1,0,0.3-0.1,0.4c0,0.1-0.1,0.2-0.2,0.3c-0.1,0-0.1-0.1-0.2-0.1c-0.1,0-0.2,0-0.3,0
		c-0.4,0-0.7,0.2-1,0.6c-0.3,0.4-0.5,0.8-0.7,1.4c-0.2,0.5-0.3,1.1-0.4,1.6c-0.1,0.6-0.1,1.1,0,1.5c0.1,0.9,0.3,1.6,0.6,2
		c0.3,0.4,0.7,0.7,1,0.6c0.2,0,0.3-0.2,0.5-0.4s0.3-0.5,0.5-0.9c0.1-0.3,0.3-0.6,0.4-0.9c0.1-0.3,0.2-0.4,0.2-0.5c0-0.2,0-0.4,0-0.6
		c0-0.2,0-0.4-0.1-0.7c0-0.2-0.1-0.5-0.1-0.7c0-0.5,0-0.9,0-1.2c0-0.3,0.2-0.5,0.5-0.5c0.3,0,0.5,0,0.6,0.2c0.1,0.2,0.2,0.4,0.2,0.6
		c0,0.2,0,0.4,0,0.6c0,0.2,0,0.4,0,0.6c0,0.2,0,0.4,0,0.5c0,0.2,0,0.2,0,0.3c0,0.1,0,0.3,0.1,0.5c0,0.2,0.1,0.4,0.1,0.6
		c0,0.2,0.1,0.4,0.1,0.6c0,0.2,0.1,0.3,0.1,0.3s0.1,0.1,0.1,0.2c0,0.1,0.1,0.2,0.1,0.2c0,0,0-0.1,0.1-0.1c0,0,0.1-0.1,0.1-0.1
		c0.1,0,0.2,0.1,0.3,0.3C146,72.2,146,72.3,146,72.3z M145.4,75.8c-0.1-0.3-0.2-0.6-0.3-0.8c-0.1-0.3-0.2-0.6-0.3-0.9
		c-0.3,0.4-0.5,0.8-0.8,1.2c-0.2,0.4-0.5,0.7-0.7,1.1c-0.2,0.4-0.3,0.7-0.4,1.1c-0.1,0.4-0.1,0.8-0.1,1.2c0,0.6,0.2,1,0.6,1.3
		c0.3,0.3,0.7,0.5,1.1,0.4c0.4,0,0.8-0.2,1.1-0.6c0.3-0.3,0.5-0.8,0.4-1.4c0-0.4-0.1-0.7-0.1-0.9c0-0.3-0.1-0.5-0.1-0.7
		c0-0.2-0.1-0.4-0.2-0.5C145.6,76.2,145.5,76,145.4,75.8z"/>
	<path class="st2" d="M155.7,71c0,0,0,0.1,0,0.2c0,0.1-0.1,0.3-0.2,0.5c0,0.1-0.2,0.2-0.3,0.4c-0.2,0.2-0.4,0.4-0.7,0.5
		c-0.3,0.2-0.7,0.4-1.1,0.5c-0.4,0.2-0.9,0.3-1.5,0.3c-0.4,0-0.8,0-1.2-0.2c-0.4-0.2-0.8-0.4-1.1-0.7c-0.3-0.3-0.6-0.8-0.9-1.3
		c-0.2-0.5-0.4-1.2-0.5-1.9c-0.1-0.7,0-1.4,0.1-2c0.1-0.6,0.3-1.2,0.5-1.7c0.2-0.5,0.5-0.9,0.8-1.2c0.3-0.3,0.6-0.5,1-0.5
		c0.3,0,0.6,0,0.9,0.1c0.3,0.1,0.6,0.2,0.8,0.4c0.3,0.2,0.5,0.3,0.6,0.6c0.2,0.2,0.3,0.4,0.3,0.7c0,0.3-0.1,0.6-0.3,0.9
		c-0.2,0.3-0.5,0.6-0.8,0.9c-0.3,0.3-0.6,0.5-1,0.7c-0.3,0.2-0.6,0.3-0.8,0.3c-0.1,0-0.2,0-0.3-0.1c-0.1-0.1-0.1-0.2-0.2-0.4
		c0-0.2,0.1-0.5,0.3-0.6c0.2-0.2,0.4-0.3,0.7-0.5c0.3-0.1,0.5-0.3,0.7-0.5c0.2-0.2,0.3-0.4,0.3-0.7c0,0-0.1-0.1-0.2-0.3
		c-0.1-0.1-0.4-0.2-0.7-0.2c-0.2,0-0.4,0.1-0.6,0.4s-0.4,0.5-0.6,0.9c-0.2,0.4-0.3,0.8-0.4,1.3c-0.1,0.5-0.1,1-0.1,1.6
		c0,0.5,0.2,0.9,0.4,1.2c0.2,0.4,0.5,0.7,0.7,0.9c0.3,0.2,0.6,0.4,1,0.5c0.4,0.1,0.7,0.2,1.1,0.1c0.3,0,0.6-0.1,0.9-0.3
		c0.3-0.1,0.6-0.3,0.9-0.5c0.3-0.2,0.5-0.3,0.7-0.4c0.2-0.1,0.3-0.2,0.4-0.2c0.1,0,0.1,0,0.2,0.1C155.7,70.9,155.7,71,155.7,71z"/>
	<path class="st2" d="M169.6,70.1c0,0.1,0,0.3-0.1,0.4c-0.1,0.1-0.2,0.2-0.3,0.3c-0.1,0.1-0.2,0.1-0.4,0.2c-0.1,0-0.2,0.1-0.3,0.1
		c-0.4,0-0.7-0.1-1-0.5c-0.3-0.4-0.6-0.8-0.8-1.3c-0.2-0.5-0.4-0.9-0.5-1.4c-0.1-0.4-0.2-0.7-0.2-0.7c-0.1,0.2-0.2,0.5-0.2,1
		c-0.1,0.5-0.2,1-0.3,1.4c-0.1,0.5-0.3,0.9-0.5,1.3c-0.2,0.4-0.5,0.6-0.9,0.6c-0.2,0-0.4-0.1-0.5-0.3c-0.2-0.2-0.4-0.5-0.5-0.8
		c-0.2-0.3-0.3-0.7-0.5-1.1c-0.2-0.4-0.3-0.8-0.5-1.2c-0.2-0.4-0.3-0.8-0.5-1.1c-0.2-0.4-0.3-0.6-0.5-0.8c-0.1,0.3-0.1,0.7-0.2,1.1
		c0,0.5-0.1,1-0.1,1.5c0,0.5,0,1,0,1.5c0,0.5,0,0.9,0.1,1.3c0,0.3,0,0.4-0.2,0.6c-0.1,0.1-0.3,0.2-0.4,0.2c-0.2,0-0.4-0.1-0.6-0.3
		c-0.2-0.2-0.4-0.6-0.7-1c-0.2-0.4-0.5-0.8-0.7-1.4c-0.2-0.5-0.4-1-0.6-1.5c-0.2-0.5-0.3-1-0.4-1.5c-0.1-0.5-0.2-0.9-0.2-1.2
		c0-0.2,0-0.4,0-0.6c0-0.2,0-0.3,0-0.5c0-0.1,0-0.2,0-0.2c0-0.1,0-0.1,0-0.1c0,0,0-0.1-0.1-0.1c0-0.1,0.1-0.1,0.2-0.3
		c0.1-0.1,0.3-0.2,0.4-0.2c0.2,0,0.4,0,0.5,0.1c0.1,0.1,0.1,0.2,0.2,0.4c0,0.1,0,0.1,0,0.2c0,0.1,0,0.4,0,0.7c0,0.3,0.1,0.6,0.2,1.1
		c0.1,0.5,0.3,1,0.5,1.5c0.2,0.5,0.3,1,0.5,1.4c0.2,0.4,0.3,0.7,0.4,0.8c0-0.1,0-0.2,0-0.3c0-0.1,0-0.2,0-0.2l0.1-2.2
		c0-0.6,0.1-1.2,0.3-1.8c0.2-0.6,0.4-1.1,0.6-1.5c0.1-0.2,0.2-0.2,0.3-0.2c0.1,0,0.2,0.1,0.3,0.2c0.3,0.5,0.6,1,0.8,1.4
		c0.2,0.5,0.4,1,0.5,1.4c0.2,0.5,0.3,0.9,0.5,1.4c0.2,0.5,0.5,0.9,0.8,1.4c0.1-0.2,0.3-0.6,0.4-1.2c0.2-0.5,0.3-1.1,0.5-1.7
		c0.2-0.6,0.3-1,0.5-1.5c0.2-0.4,0.3-0.6,0.4-0.6c0.1,0,0.1,0,0.3,0c0.1,0,0.2,0,0.3,0c0.2,0,0.3,0.2,0.5,0.5
		c0.1,0.4,0.3,0.8,0.4,1.3c0.1,0.5,0.2,1,0.4,1.5c0.1,0.5,0.2,0.9,0.4,1.1c0.1,0.2,0.2,0.3,0.4,0.5c0.2,0.1,0.3,0.3,0.5,0.4
		C169.2,69.8,169.4,69.9,169.6,70.1z"/>
	<path class="st2" d="M179.2,69c0,0,0,0.1,0,0.2c0,0.1-0.1,0.3-0.2,0.5c0,0.1-0.2,0.2-0.3,0.4c-0.2,0.2-0.4,0.4-0.7,0.5
		c-0.3,0.2-0.7,0.4-1.1,0.5c-0.4,0.2-0.9,0.3-1.5,0.3c-0.4,0-0.8,0-1.2-0.2c-0.4-0.2-0.8-0.4-1.1-0.7c-0.3-0.3-0.6-0.8-0.9-1.3
		c-0.2-0.5-0.4-1.2-0.5-1.9c-0.1-0.7,0-1.4,0.1-2c0.1-0.6,0.3-1.2,0.5-1.7c0.2-0.5,0.5-0.9,0.8-1.2c0.3-0.3,0.6-0.5,1-0.5
		c0.3,0,0.6,0,0.9,0.1c0.3,0.1,0.6,0.2,0.8,0.4c0.3,0.2,0.5,0.3,0.6,0.6c0.2,0.2,0.3,0.4,0.3,0.7c0,0.3-0.1,0.6-0.3,0.9
		c-0.2,0.3-0.5,0.6-0.8,0.9c-0.3,0.3-0.6,0.5-1,0.7c-0.3,0.2-0.6,0.3-0.8,0.3c-0.1,0-0.2,0-0.3-0.1c-0.1-0.1-0.1-0.2-0.2-0.4
		c0-0.2,0.1-0.5,0.3-0.6c0.2-0.2,0.4-0.3,0.7-0.5c0.3-0.1,0.5-0.3,0.7-0.5c0.2-0.2,0.3-0.4,0.3-0.7c0,0-0.1-0.1-0.2-0.3
		c-0.1-0.1-0.4-0.2-0.7-0.2c-0.2,0-0.4,0.1-0.6,0.4c-0.2,0.2-0.4,0.5-0.6,0.9c-0.2,0.4-0.3,0.8-0.4,1.3c-0.1,0.5-0.1,1-0.1,1.6
		c0,0.5,0.2,0.9,0.4,1.2c0.2,0.4,0.5,0.7,0.7,0.9c0.3,0.2,0.6,0.4,1,0.5c0.4,0.1,0.7,0.2,1.1,0.1c0.3,0,0.6-0.1,0.9-0.3
		c0.3-0.1,0.6-0.3,0.9-0.5c0.3-0.2,0.5-0.3,0.7-0.4c0.2-0.1,0.3-0.2,0.4-0.2s0.1,0,0.2,0.1C179.1,68.9,179.2,68.9,179.2,69z"/>
	<path class="st2" d="M189.1,67.6c0,0.1,0,0.2-0.1,0.3c-0.1,0.1-0.1,0.2-0.2,0.3c-0.1,0.1-0.2,0.2-0.3,0.3c-0.1,0.1-0.2,0.1-0.3,0.1
		c-0.3,0-0.7,0-1.2-0.1s-0.9-0.3-1.2-0.5c-0.3-0.3-0.6-0.6-0.9-1c-0.3-0.4-0.6-1-0.9-1.8c-0.1,0.8-0.3,1.6-0.5,2.4
		c-0.2,0.8-0.5,1.5-1.1,2.2c0,0-0.1,0.1-0.2,0.1c-0.1,0-0.3,0-0.4-0.2c-0.2-0.1-0.2-0.2-0.2-0.4c0-0.1,0-0.4-0.1-0.9
		c-0.1-0.5-0.1-1-0.2-1.5c-0.1-0.6-0.2-1.1-0.2-1.7s-0.1-1.1-0.2-1.4c0-0.2,0-0.4,0-0.7c0-0.3,0-0.6,0.1-0.8c0,0,0.1-0.1,0.2-0.2
		c0.1-0.1,0.2-0.2,0.4-0.2c0.1,0,0.2,0.1,0.2,0.2c0,0.2,0.1,0.3,0.1,0.5l0.4,4.2c0,0.1,0,0.2,0.1,0.4c0,0.2,0.1,0.3,0.2,0.3
		c0.2-0.4,0.3-1,0.4-1.6c0.1-0.6,0.2-1.2,0.4-1.7c0.1-0.5,0.2-1,0.4-1.4c0.1-0.4,0.3-0.6,0.4-0.6c0.2,0,0.3,0,0.4,0.1
		c0.1,0.1,0.2,0.2,0.3,0.4c0.1,0.5,0.2,1,0.3,1.4c0.1,0.4,0.2,0.8,0.3,1.1c0.1,0.3,0.3,0.6,0.4,0.9s0.4,0.5,0.7,0.7
		c0.3,0.2,0.6,0.4,0.9,0.4s0.6,0.1,0.8,0.1c0.1,0,0.2,0,0.3-0.1c0.1-0.1,0.2-0.1,0.3-0.1c0.1,0,0.1,0.1,0.2,0.2
		C189.1,67.5,189.1,67.6,189.1,67.6z"/>
	<path class="st2" d="M196.9,58c-0.2,0.3-0.5,0.6-0.9,0.9c-0.4,0.3-0.8,0.6-1.2,0.8c-0.4,0.3-0.8,0.5-1.1,0.7s-0.5,0.3-0.5,0.4
		c0,0.1,0.1,0.2,0.2,0.5c0.1,0.3,0.2,0.6,0.3,0.9c0.1,0.4,0.3,0.7,0.4,1.1c0.1,0.4,0.3,0.7,0.4,1c0.1,0.2,0.1,0.4,0.2,0.7
		c0.1,0.3,0.2,0.6,0.2,0.8c0.1,0.3,0.1,0.5,0.2,0.8c0.1,0.2,0.1,0.3,0.1,0.4c0,0.3,0,0.6-0.1,0.8c-0.1,0.3-0.2,0.5-0.4,0.5
		c-0.1,0-0.2,0-0.3-0.1c-0.1-0.1-0.2-0.2-0.3-0.3c-0.1-0.1-0.1-0.2-0.2-0.3c0-0.1-0.1-0.2-0.1-0.2c0,0,0-0.1,0-0.2
		c0-0.1,0-0.2,0-0.2c0-0.3-0.1-0.8-0.3-1.5c-0.1-0.2-0.2-0.5-0.3-0.9c-0.1-0.4-0.3-0.8-0.4-1.2c-0.2-0.5-0.4-1-0.6-1.6
		c-0.1-0.2-0.1-0.4-0.2-0.4c-0.1,0-0.3,0.1-0.6,0.3c-0.3,0.2-0.6,0.4-1,0.7c-0.4,0.3-0.7,0.5-1.1,0.8c-0.4,0.3-0.8,0.6-1.1,0.8
		c-0.3,0.3-0.6,0.5-0.9,0.6c-0.2,0.2-0.4,0.3-0.5,0.3c-0.2,0-0.4,0-0.6-0.2c-0.2-0.1-0.2-0.3-0.3-0.5c0-0.1,0.1-0.3,0.4-0.5
		c0.3-0.2,0.6-0.5,1-0.8c0.4-0.3,0.9-0.6,1.4-0.9c0.5-0.3,0.9-0.6,1.4-0.9c0.4-0.3,0.9-0.5,1.5-0.9c-0.2-0.8-0.4-1.5-0.6-2.2
		c-0.1-0.5-0.3-1.1-0.4-1.5c-0.1-0.5-0.2-0.7-0.2-0.7c0-0.2,0-0.4,0.1-0.5c0.1-0.1,0.2-0.2,0.3-0.2c0.2,0,0.3,0.1,0.4,0.4
		c0.3,1,0.5,1.8,0.8,2.5c0.2,0.7,0.5,1.3,0.7,1.8c0.2,0,0.4-0.2,0.8-0.4c0.4-0.2,0.8-0.4,1.2-0.7c0.4-0.2,0.8-0.4,1.1-0.6
		c0.3-0.2,0.5-0.3,0.6-0.3c0.1,0,0.2,0,0.2,0.1C196.8,57.9,196.8,58,196.9,58z"/>
	<path class="st2" d="M201.8,69c0,0.2,0,0.5-0.2,0.9c-0.1,0.4-0.3,0.8-0.5,1.2c-0.2,0.4-0.4,0.7-0.7,1.1c-0.3,0.3-0.5,0.5-0.8,0.5
		c-0.1,0-0.3,0-0.4-0.1c-0.1-0.1-0.2-0.2-0.2-0.2c0,0,0.1-0.1,0.2-0.4c0.2-0.2,0.3-0.5,0.5-0.8c0.2-0.3,0.4-0.6,0.5-1
		c0.1-0.4,0.2-0.7,0.2-1c0-0.3-0.1-0.6-0.2-0.8c-0.1-0.2-0.2-0.3-0.3-0.4c-0.1-0.1-0.2-0.2-0.3-0.3c-0.1-0.1-0.1-0.2-0.2-0.4
		c0-0.3,0.1-0.4,0.4-0.4c0.3,0,0.5,0,0.8,0.2c0.2,0.2,0.4,0.4,0.6,0.6c0.2,0.2,0.3,0.5,0.4,0.8C201.7,68.6,201.8,68.8,201.8,69z"/>
	<path class="st2" d="M221.4,63.2c0,0.3-0.1,0.5-0.4,0.7c-0.2,0.1-0.5,0.2-0.8,0.4c-0.3,0.2-0.7,0.4-1,0.6c-0.4,0.2-0.7,0.3-1,0.5
		s-0.6,0.2-0.8,0.2c-0.4,0-0.7,0-1-0.1c-0.3-0.1-0.4-0.3-0.4-0.5c0-0.3,0-0.6,0.1-0.8c0.1-0.2,0.2-0.4,0.3-0.6c0,0-0.1,0-0.2-0.1
		c-0.1,0-0.3-0.1-0.4-0.1c-0.2-0.1-0.3-0.1-0.4-0.2c-0.1-0.1-0.2-0.2-0.2-0.3c0-0.3,0.1-0.7,0.4-1.1c0.3-0.4,0.7-0.9,1.1-1.3
		c0.4-0.4,0.8-0.8,1.2-1.1c0.4-0.3,0.6-0.5,0.7-0.5c0.1-0.1,0.3-0.2,0.5-0.3c0.2-0.1,0.4-0.2,0.4-0.2c0.2,0,0.4,0.1,0.4,0.3
		c0,0.1,0,0.3,0,0.4c0,0.2-0.1,0.2-0.2,0.3c-0.1,0-0.2,0-0.2,0c-0.1,0-0.1,0-0.1,0c-0.1,0-0.2,0.1-0.4,0.2c-0.2,0.1-0.3,0.2-0.4,0.3
		c-0.2,0.1-0.3,0.3-0.5,0.5c-0.2,0.2-0.4,0.4-0.6,0.6c-0.2,0.2-0.4,0.4-0.5,0.7c-0.2,0.2-0.3,0.4-0.4,0.6c0,0,0.1,0,0.2,0
		c0.1,0,0.2,0,0.2,0c0.1,0,0.2-0.1,0.3-0.1c0.1-0.1,0.2-0.2,0.3-0.3c0.1-0.1,0.2-0.2,0.4-0.3c0.1-0.1,0.2-0.1,0.4-0.1
		c0.2,0,0.3,0,0.4,0.1c0.1,0.1,0.2,0.2,0.2,0.2c0,0.3-0.1,0.6-0.3,0.9c-0.2,0.3-0.5,0.5-0.7,0.7c0,0.1-0.1,0.2-0.1,0.3
		c0,0.2,0.1,0.2,0.3,0.2c0.1,0,0.3-0.1,0.6-0.2c0.2-0.1,0.5-0.3,0.8-0.5c0.3-0.2,0.6-0.3,0.9-0.5c0.3-0.1,0.5-0.2,0.8-0.2
		c0.2,0,0.3,0,0.4,0.2C221.4,63,221.4,63.1,221.4,63.2z M218.5,70.3c0,0.3,0,0.7,0,1.3c0,0.5-0.1,1-0.1,1.5
		c-0.1,0.6-0.1,1.2-0.2,1.8c0,0.1-0.1,0.2-0.2,0.3s-0.3,0.1-0.5,0.2c-0.1,0-0.2,0-0.3-0.1c-0.1-0.1-0.1-0.2-0.1-0.2
		c0-0.1-0.1-0.2-0.1-0.3s0-0.2,0-0.2c0-0.3,0-0.6,0-1c0-0.4,0.1-0.7,0.1-1.1c0.1-0.4,0.1-0.8,0.2-1.2s0.1-0.8,0.1-1.2
		c0-0.2,0-0.4,0.1-0.7c0.1-0.3,0.2-0.4,0.4-0.4c0.2,0,0.4,0.1,0.5,0.4C218.4,69.6,218.5,69.9,218.5,70.3z M220.3,52
		c0,0.1,0,0.3-0.1,0.6c-0.1,0.3-0.1,0.7-0.2,1.2c-0.1,0.4-0.2,0.9-0.3,1.4c-0.1,0.5-0.2,0.9-0.3,1.2c0,0.1-0.1,0.2-0.1,0.3
		c0,0.1-0.1,0.2-0.3,0.2c-0.1,0-0.2,0-0.3-0.1c-0.1-0.1-0.1-0.2-0.2-0.3c0-0.1-0.1-0.2-0.1-0.3c0-0.1,0-0.2,0-0.3
		c0-0.1,0-0.4,0.1-0.8c0.1-0.4,0.2-0.9,0.3-1.4c0.1-0.5,0.3-0.9,0.4-1.3c0.2-0.4,0.3-0.6,0.5-0.6c0.1,0,0.2,0,0.3,0.1
		C220.2,51.8,220.3,51.9,220.3,52z"/>
</g>
<g class="st1">
	<path class="st2" d="M26.6,102.6c0,0.3-0.1,0.7-0.3,1.2s-0.6,1-1.1,1.5c-0.5,0.5-1,0.9-1.6,1.3c-0.6,0.4-1.3,0.6-2,0.7
		c-0.3,0-0.7,0-1-0.1c-0.4-0.1-0.7-0.2-1.1-0.4c-0.4-0.2-0.7-0.4-1-0.7c-0.3-0.3-0.5-0.6-0.7-1c-0.1,0.1-0.2,0.3-0.3,0.6
		c-0.1,0.3-0.3,0.5-0.4,0.8c-0.2,0.3-0.3,0.5-0.5,0.7c-0.2,0.2-0.4,0.3-0.6,0.3c-0.2,0-0.4-0.1-0.6-0.3c-0.2-0.2-0.3-0.5-0.4-0.8
		c-0.1-0.3-0.2-0.6-0.3-0.8c-0.1-0.3-0.1-0.4-0.1-0.5c0-0.2,0-0.6,0.1-1.2c0.1-0.6,0.2-1.3,0.4-1.9c0.2-0.7,0.5-1.3,0.8-1.8
		c0.3-0.5,0.8-0.8,1.3-0.9c0.2,0,0.3,0.1,0.4,0.2c0.1,0.2,0.1,0.3,0.1,0.5l0.1,0.8c0.1,0.1,0.2,0.1,0.3,0.1c0.1,0,0.2,0,0.3,0.1
		c0.1,0,0.2,0.1,0.2,0.2c0.1,0.1,0.1,0.2,0.1,0.4c0,0.1,0,0.2,0,0.3c0,0.1,0,0.2,0,0.3c0,0.5,0.1,0.9,0.2,1.4
		c0.1,0.4,0.3,0.8,0.5,1.2c0.2,0.3,0.6,0.6,1,0.8c0.4,0.2,0.9,0.3,1.5,0.2c0.8-0.1,1.4-0.3,2-0.7c0.5-0.4,0.9-0.8,1.3-1.2
		c0.3-0.4,0.6-0.8,0.8-1.2c0.2-0.3,0.3-0.5,0.5-0.5C26.5,102.3,26.6,102.4,26.6,102.6z M17.1,102.2c0-0.1,0-0.1-0.1-0.2
		c0-0.1-0.1-0.1-0.1-0.2c0-0.1,0-0.1,0-0.2c0-0.1,0-0.1,0-0.2c0-0.1,0-0.1-0.1-0.1c0,0-0.1-0.1-0.1-0.1c-0.2,0.1-0.3,0.2-0.5,0.5
		c-0.1,0.3-0.3,0.6-0.4,1c-0.1,0.4-0.2,0.7-0.3,1.1s-0.1,0.7-0.1,0.9c0,0.1,0.1,0.3,0.2,0.6c0.1,0.3,0.2,0.5,0.3,0.5
		c0.2-0.7,0.5-1.3,0.7-1.9C17.1,103.4,17.1,102.8,17.1,102.2z"/>
	<path class="st2" d="M35.4,99.6c0,0.5-0.1,0.9-0.3,1.4c-0.2,0.5-0.5,0.9-0.9,1.3c-0.3,0.4-0.7,0.8-1.1,1.1
		c-0.4,0.4-0.8,0.7-1.2,0.9c-0.3,0.3-0.6,0.5-0.8,0.7c-0.2,0.2-0.3,0.3-0.3,0.4c0,0.2,0.1,0.6,0.2,1c0.1,0.4,0.2,0.9,0.3,1.4
		c0.1,0.5,0.2,1,0.4,1.5c0.1,0.5,0.2,1,0.3,1.4c0,0,0,0.1,0.1,0.2c0,0.1,0.1,0.3,0.1,0.5c0.1,0.2,0.1,0.3,0.2,0.5
		c0,0.1,0.1,0.2,0.1,0.3c0,0.1,0,0.3,0,0.4c0,0.2,0,0.3,0,0.4c0,0.1-0.1,0.3-0.2,0.4s-0.2,0.2-0.3,0.2c-0.2,0-0.3-0.1-0.5-0.2
		c-0.1-0.2-0.2-0.3-0.2-0.5c0,0,0-0.1,0-0.1c0,0,0-0.1,0-0.1c0-0.2-0.1-0.7-0.4-1.6c-0.2-0.8-0.5-1.9-0.8-3s-0.6-2.4-0.8-3.8
		c-0.3-1.4-0.4-2.6-0.6-3.9c0-0.1,0-0.2,0-0.3c0-0.1,0-0.2,0-0.3c-0.2,0-0.4,0.1-0.8,0.3c-0.3,0.2-0.7,0.4-1,0.6
		c-0.3,0.2-0.6,0.5-0.8,0.7c-0.2,0.2-0.4,0.5-0.3,0.6l-0.2,0c-0.1,0-0.1,0-0.2-0.1c-0.1-0.1-0.2-0.1-0.2-0.2
		c-0.1-0.1-0.1-0.2-0.2-0.3c-0.1-0.1-0.1-0.1-0.1-0.2c0-0.4,0.2-0.8,0.6-1.1c0.4-0.4,1-0.7,1.6-1c0.6-0.3,1.4-0.6,2.2-0.8
		c0.8-0.2,1.5-0.4,2.3-0.4c0.7-0.1,1.3,0,1.8,0.1c0.5,0.1,0.9,0.3,1.2,0.5c0.3,0.2,0.5,0.4,0.7,0.6C35.3,99.3,35.4,99.5,35.4,99.6z
		 M34.1,99.7c0-0.2-0.3-0.3-0.7-0.5c-0.5-0.1-1-0.2-1.6-0.1c-0.5,0-0.9,0.1-1.2,0.2s-0.4,0.1-0.5,0.2c0,0.3,0,0.6,0,1
		c0,0.4,0,0.8,0.1,1.2c0,0.4,0.1,0.8,0.1,1.2c0.1,0.4,0.1,0.7,0.2,1c0.2-0.2,0.6-0.4,1-0.8c0.4-0.3,0.8-0.7,1.2-1.1
		c0.4-0.4,0.7-0.8,1-1.2C34,100.4,34.1,100,34.1,99.7z"/>
	<path class="st2" d="M45.5,98.7c0,0.5-0.1,0.9-0.3,1.4c-0.2,0.5-0.5,0.9-0.9,1.3c-0.3,0.4-0.7,0.8-1.1,1.1
		c-0.4,0.4-0.8,0.7-1.2,0.9c-0.3,0.3-0.6,0.5-0.8,0.7c-0.2,0.2-0.3,0.3-0.3,0.4c0,0.2,0.1,0.6,0.2,1c0.1,0.4,0.2,0.9,0.3,1.4
		c0.1,0.5,0.2,1,0.4,1.5c0.1,0.5,0.2,1,0.3,1.4c0,0,0,0.1,0.1,0.2c0,0.1,0.1,0.3,0.2,0.5c0.1,0.2,0.1,0.3,0.2,0.5
		c0,0.1,0.1,0.2,0.1,0.3c0,0.1,0,0.3,0,0.4c0,0.2,0,0.3,0,0.4c0,0.1-0.1,0.3-0.2,0.4s-0.2,0.2-0.3,0.2c-0.2,0-0.3-0.1-0.5-0.2
		c-0.1-0.2-0.2-0.3-0.2-0.5c0,0,0-0.1,0-0.1c0,0,0-0.1,0-0.1c0-0.2-0.1-0.7-0.4-1.6c-0.2-0.8-0.5-1.9-0.8-3s-0.6-2.4-0.8-3.8
		c-0.3-1.4-0.4-2.6-0.6-3.9c0-0.1,0-0.2,0-0.3c0-0.1,0-0.2,0-0.3c-0.2,0-0.4,0.1-0.8,0.3c-0.3,0.2-0.7,0.4-1,0.6
		c-0.3,0.2-0.6,0.5-0.8,0.7c-0.2,0.2-0.4,0.5-0.3,0.6l-0.2,0c-0.1,0-0.1,0-0.2-0.1c-0.1-0.1-0.2-0.1-0.2-0.2
		c-0.1-0.1-0.1-0.2-0.2-0.3c-0.1-0.1-0.1-0.1-0.1-0.2c0-0.4,0.2-0.8,0.6-1.1c0.4-0.4,1-0.7,1.6-1c0.6-0.3,1.4-0.6,2.2-0.8
		c0.8-0.2,1.5-0.4,2.3-0.4c0.7-0.1,1.3,0,1.8,0.1c0.5,0.1,0.9,0.3,1.2,0.5c0.3,0.2,0.5,0.4,0.7,0.6C45.4,98.4,45.5,98.6,45.5,98.7z
		 M44.2,98.8c0-0.2-0.3-0.3-0.7-0.5c-0.5-0.1-1-0.2-1.6-0.1c-0.5,0-0.9,0.1-1.2,0.2s-0.4,0.1-0.5,0.2c0,0.3,0,0.6,0,1
		c0,0.4,0,0.8,0.1,1.2c0,0.4,0.1,0.8,0.1,1.2c0.1,0.4,0.1,0.7,0.2,1c0.2-0.2,0.6-0.4,1-0.8c0.4-0.3,0.8-0.7,1.2-1.1
		c0.4-0.4,0.7-0.8,1-1.2C44.1,99.5,44.2,99.1,44.2,98.8z"/>
	<path class="st2" d="M51.1,105.6c-0.1,0.1-0.2,0.1-0.4,0.1c-0.2,0-0.3-0.1-0.5-0.4c-0.2-0.3-0.4-0.7-0.6-1.1s-0.4-0.9-0.6-1.5
		c-0.2-0.5-0.4-1-0.5-1.5c-0.1-0.5-0.3-0.9-0.4-1.2C48,99.8,48,99.6,48,99.6c0-0.1-0.1-0.3-0.1-0.6c-0.1-0.3-0.2-0.8-0.4-1.4
		c-0.2-0.6-0.3-1.5-0.5-2.5c-0.2-1-0.4-2.3-0.7-3.8c0-0.2,0-0.4,0-0.6c0-0.3,0.1-0.4,0.3-0.4c0.3,0,0.5,0.1,0.6,0.5
		c0.2,0.3,0.3,0.7,0.4,1.2c0.1,0.5,0.2,1,0.3,1.6c0.1,0.5,0.2,1,0.3,1.4c0.1,0.6,0.2,1.1,0.3,1.5c0.1,0.5,0.2,0.9,0.3,1.4
		c0.1,0.5,0.2,0.9,0.4,1.4c0.1,0.5,0.3,1,0.5,1.6l1.5,4.4C51.2,105.4,51.2,105.6,51.1,105.6z"/>
	<path class="st2" d="M53.9,93.4c0,0-0.1,0.1-0.2,0.2c-0.1,0.1-0.3,0.2-0.4,0.4c-0.2,0.1-0.3,0.2-0.5,0.4c-0.2,0.1-0.3,0.2-0.4,0.2
		c-0.1,0-0.2,0-0.3,0c-0.1,0-0.2,0-0.4-0.1c-0.1,0-0.2-0.1-0.3-0.2c-0.1-0.1-0.2-0.2-0.2-0.4c0-0.3,0-0.5,0.2-0.7
		c0.2-0.2,0.4-0.4,0.7-0.4c0.1,0,0.2,0,0.4,0c0.2,0,0.4,0.1,0.6,0.1c0.2,0.1,0.4,0.1,0.5,0.2C53.8,93.2,53.9,93.3,53.9,93.4z
		 M55.7,103.4c0,0.1-0.1,0.2-0.3,0.3c-0.2,0.1-0.3,0.2-0.4,0.2c-0.2,0-0.4-0.1-0.5-0.3c-0.2-0.2-0.3-0.5-0.4-0.8
		c-0.1-0.3-0.2-0.6-0.3-0.9c-0.1-0.3-0.2-0.5-0.2-0.6c-0.1-0.2-0.2-0.4-0.3-0.6c-0.1-0.2-0.2-0.5-0.3-0.7c-0.1-0.2-0.2-0.4-0.3-0.6
		c-0.1-0.2-0.1-0.3-0.1-0.3c0-0.3,0-0.5,0.1-0.7c0.1-0.2,0.2-0.3,0.3-0.4c0.2,0,0.3,0.1,0.5,0.3s0.4,0.5,0.6,0.9
		c0.2,0.4,0.4,0.8,0.6,1.2c0.2,0.4,0.3,0.9,0.5,1.3c0.1,0.4,0.3,0.7,0.3,1C55.6,103.1,55.7,103.3,55.7,103.4z"/>
	<path class="st2" d="M64.9,100c0,0.2,0,0.4,0,0.6c0,0.2-0.1,0.4-0.1,0.5c0,0.1-0.2,0.3-0.5,0.6c-0.3,0.3-0.6,0.7-1,1.1
		c-0.4,0.4-0.9,0.7-1.4,1.1c-0.5,0.3-1,0.5-1.5,0.6c-0.3,0-0.6,0-0.9-0.1c-0.3-0.1-0.6-0.2-0.9-0.4c-0.3-0.2-0.5-0.5-0.7-0.8
		c-0.2-0.3-0.3-0.8-0.4-1.3c-0.1-0.9,0-1.7,0.2-2.4c0.2-0.7,0.5-1.3,0.7-1.7c0.1-0.2,0.3-0.4,0.4-0.6c0.2-0.2,0.4-0.4,0.6-0.6
		c0.2-0.2,0.4-0.3,0.5-0.5c0.2-0.1,0.3-0.2,0.3-0.2c0.2,0,0.3,0,0.5,0.1c0.1,0.1,0.2,0.2,0.2,0.3c0,0.1,0,0.3-0.1,0.4
		c-0.1,0.1-0.2,0.2-0.3,0.4c-0.1,0.1-0.3,0.3-0.5,0.5c-0.2,0.2-0.4,0.5-0.6,0.8c-0.4,0.6-0.6,1.3-0.8,1.9c-0.2,0.6-0.2,1.2-0.2,1.7
		c0,0.5,0.2,0.8,0.6,1.1c0.4,0.2,0.7,0.4,1.1,0.3c0.7-0.1,1.3-0.3,1.8-0.6c0.5-0.4,0.9-0.7,1.3-1.1c0.3-0.4,0.6-0.8,0.8-1.1
		c0.2-0.3,0.4-0.5,0.5-0.5C64.8,99.5,64.9,99.7,64.9,100z"/>
	<path class="st2" d="M79.8,98c0,0.3-0.1,0.7-0.3,1.2c-0.3,0.5-0.6,1-1.1,1.5c-0.5,0.5-1,0.9-1.6,1.3c-0.6,0.4-1.3,0.6-2,0.7
		c-0.3,0-0.7,0-1-0.1c-0.4-0.1-0.7-0.2-1.1-0.4c-0.4-0.2-0.7-0.4-1-0.7c-0.3-0.3-0.5-0.6-0.7-1c-0.1,0.1-0.2,0.3-0.3,0.6
		c-0.1,0.3-0.3,0.5-0.4,0.8c-0.2,0.3-0.3,0.5-0.5,0.7c-0.2,0.2-0.4,0.3-0.6,0.3c-0.2,0-0.4-0.1-0.6-0.3c-0.2-0.2-0.3-0.5-0.4-0.8
		c-0.1-0.3-0.2-0.6-0.3-0.8c-0.1-0.3-0.1-0.4-0.1-0.5c0-0.2,0-0.6,0.1-1.2c0.1-0.6,0.2-1.3,0.4-1.9c0.2-0.7,0.5-1.3,0.8-1.8
		c0.3-0.5,0.8-0.8,1.3-0.9c0.2,0,0.3,0.1,0.4,0.2c0.1,0.2,0.1,0.3,0.1,0.5l0.1,0.8c0.1,0.1,0.2,0.1,0.3,0.1c0.1,0,0.2,0,0.3,0.1
		c0.1,0,0.2,0.1,0.2,0.2c0.1,0.1,0.1,0.2,0.1,0.4c0,0.1,0,0.2,0,0.3c0,0.1,0,0.2,0,0.3c0,0.5,0.1,0.9,0.2,1.4
		c0.1,0.4,0.3,0.8,0.5,1.2c0.2,0.3,0.6,0.6,1,0.8c0.4,0.2,0.9,0.3,1.5,0.2c0.8-0.1,1.4-0.3,2-0.7c0.5-0.4,0.9-0.8,1.3-1.2
		c0.3-0.4,0.6-0.8,0.8-1.2c0.2-0.3,0.4-0.5,0.5-0.5C79.6,97.6,79.7,97.7,79.8,98z M70.2,97.6c0-0.1,0-0.1-0.1-0.2
		c0-0.1-0.1-0.1-0.1-0.2c0-0.1,0-0.1,0-0.2c0-0.1,0-0.1,0-0.2c0-0.1,0-0.1-0.1-0.1c0,0-0.1-0.1-0.1-0.1c-0.2,0.1-0.3,0.2-0.5,0.5
		c-0.1,0.3-0.3,0.6-0.4,1c-0.1,0.4-0.2,0.7-0.3,1.1s-0.1,0.7-0.1,0.9c0,0.1,0.1,0.3,0.2,0.6c0.1,0.3,0.2,0.5,0.3,0.5
		c0.3-0.7,0.5-1.3,0.7-1.9C70.2,98.8,70.3,98.2,70.2,97.6z"/>
	<path class="st2" d="M86.6,90.7c-0.2,0.3-0.5,0.6-0.9,0.9c-0.4,0.3-0.8,0.6-1.2,0.8c-0.4,0.3-0.8,0.5-1.1,0.7
		c-0.3,0.2-0.5,0.3-0.5,0.4c0,0.1,0.1,0.2,0.1,0.5s0.2,0.6,0.3,0.9c0.1,0.4,0.3,0.7,0.4,1.1c0.1,0.4,0.3,0.7,0.4,1
		c0.1,0.2,0.1,0.4,0.2,0.7c0.1,0.3,0.2,0.6,0.2,0.8c0.1,0.3,0.1,0.5,0.2,0.8c0.1,0.2,0.1,0.3,0.1,0.4c0,0.3,0,0.6-0.1,0.8
		c-0.1,0.3-0.2,0.5-0.4,0.5c-0.1,0-0.2,0-0.3-0.1c-0.1-0.1-0.2-0.2-0.3-0.3c-0.1-0.1-0.1-0.2-0.2-0.3c0-0.1-0.1-0.2-0.1-0.2
		c0,0,0-0.1,0-0.2c0-0.1,0-0.2,0-0.2c0-0.3-0.1-0.8-0.3-1.5c-0.1-0.2-0.2-0.5-0.3-0.9c-0.1-0.4-0.3-0.8-0.4-1.2
		c-0.2-0.5-0.4-1-0.6-1.6c-0.1-0.2-0.1-0.4-0.2-0.4c-0.1,0-0.3,0.1-0.6,0.3c-0.3,0.2-0.6,0.4-1,0.7c-0.4,0.3-0.7,0.5-1.1,0.8
		c-0.4,0.3-0.8,0.6-1.1,0.8c-0.3,0.3-0.6,0.5-0.9,0.6c-0.2,0.2-0.4,0.3-0.5,0.3c-0.2,0-0.4,0-0.6-0.2c-0.2-0.1-0.2-0.3-0.3-0.5
		c0-0.1,0.1-0.3,0.4-0.5c0.3-0.2,0.6-0.5,1-0.8c0.4-0.3,0.9-0.6,1.4-0.9c0.5-0.3,0.9-0.6,1.4-0.9c0.4-0.3,0.9-0.5,1.5-0.9
		c-0.2-0.8-0.4-1.5-0.6-2.2c-0.1-0.5-0.3-1.1-0.4-1.5c-0.1-0.5-0.2-0.7-0.2-0.7c0-0.2,0-0.4,0.1-0.5c0.1-0.1,0.2-0.2,0.3-0.2
		c0.2,0,0.3,0.1,0.4,0.4c0.3,1,0.5,1.8,0.8,2.5c0.2,0.7,0.5,1.3,0.7,1.8c0.2,0,0.4-0.2,0.8-0.4c0.4-0.2,0.8-0.4,1.2-0.7
		c0.4-0.2,0.8-0.4,1.1-0.6c0.3-0.2,0.5-0.3,0.6-0.3c0.1,0,0.2,0,0.2,0.1S86.6,90.7,86.6,90.7z"/>
	<path class="st2" d="M89.7,90.3c0,0-0.1,0.1-0.2,0.2c-0.1,0.1-0.3,0.2-0.4,0.4c-0.2,0.1-0.3,0.2-0.5,0.4c-0.2,0.1-0.3,0.2-0.4,0.2
		c-0.1,0-0.2,0-0.3,0c-0.1,0-0.2,0-0.4-0.1c-0.1,0-0.2-0.1-0.3-0.2C87.1,91,87,90.9,87,90.8c0-0.3,0-0.5,0.2-0.7
		c0.2-0.2,0.4-0.4,0.7-0.4c0.1,0,0.2,0,0.4,0c0.2,0,0.4,0.1,0.6,0.1c0.2,0.1,0.4,0.1,0.5,0.2C89.6,90.1,89.6,90.1,89.7,90.3z
		 M91.4,100.2c0,0.1-0.1,0.2-0.3,0.3c-0.2,0.1-0.3,0.2-0.4,0.2c-0.2,0-0.4-0.1-0.5-0.3c-0.2-0.2-0.3-0.5-0.4-0.8
		c-0.1-0.3-0.2-0.6-0.3-0.9c-0.1-0.3-0.2-0.5-0.2-0.6c-0.1-0.2-0.2-0.4-0.3-0.6c-0.1-0.2-0.2-0.5-0.3-0.7c-0.1-0.2-0.2-0.4-0.3-0.6
		c-0.1-0.2-0.1-0.3-0.1-0.3c0-0.3,0-0.5,0.1-0.7c0.1-0.2,0.2-0.3,0.3-0.4c0.2,0,0.3,0.1,0.5,0.3c0.2,0.2,0.4,0.5,0.6,0.9
		c0.2,0.4,0.4,0.8,0.6,1.2c0.2,0.4,0.3,0.9,0.5,1.3c0.1,0.4,0.3,0.7,0.3,1C91.4,100,91.4,100.2,91.4,100.2z"/>
	<path class="st2" d="M97.6,96.2c0,0.4,0,0.8-0.1,1.1c-0.1,0.4-0.2,0.7-0.3,1c-0.2,0.3-0.3,0.5-0.6,0.7c-0.2,0.2-0.5,0.3-0.8,0.3
		c-0.5,0-0.9-0.1-1.2-0.3c-0.3-0.3-0.6-0.6-0.7-0.9c-0.2-0.4-0.3-0.7-0.4-1.1c-0.1-0.4-0.1-0.7-0.1-0.9c0-0.3,0-0.7,0.1-1.1
		c0.1-0.4,0.2-0.8,0.3-1.2c0.1-0.4,0.3-0.7,0.5-0.9c0.2-0.3,0.4-0.4,0.6-0.4c0.1,0,0.1,0,0.3,0c0.1,0,0.2,0.1,0.4,0.1
		c0.1,0.1,0.3,0.1,0.4,0.2c0.1,0.1,0.2,0.2,0.2,0.4c0.2,0,0.4,0.1,0.6,0.2c0.2,0.1,0.3,0.2,0.3,0.3c0.2,0.5,0.3,0.9,0.4,1.4
		C97.5,95.5,97.6,95.9,97.6,96.2z M96.4,95.8c0-0.3-0.1-0.5-0.2-0.8c-0.1-0.3-0.2-0.6-0.4-0.9c0,0-0.1,0-0.1,0c-0.1,0-0.1,0-0.2,0
		s-0.1,0-0.1,0c-0.2,0-0.4,0.1-0.5,0.2c-0.1,0.1-0.2,0.3-0.2,0.5c0,0.2-0.1,0.4-0.1,0.6c0,0.2,0,0.4,0,0.6c0,0.2,0,0.4,0.1,0.7
		c0,0.2,0.1,0.5,0.2,0.7c0.1,0.2,0.2,0.4,0.3,0.5c0.1,0.1,0.3,0.2,0.4,0.2s0.3-0.1,0.4-0.3c0.1-0.2,0.2-0.4,0.2-0.7
		c0-0.3,0.1-0.5,0.1-0.8C96.4,96.1,96.4,95.9,96.4,95.8z"/>
	<path class="st2" d="M108.6,97.7c0,0.1,0,0.2-0.1,0.3c-0.1,0.1-0.1,0.2-0.2,0.3c-0.1,0.1-0.2,0.2-0.3,0.3c-0.1,0.1-0.2,0.1-0.3,0.1
		c-0.3,0-0.7,0-1.2-0.1c-0.5-0.1-0.9-0.3-1.2-0.5c-0.3-0.3-0.6-0.6-0.9-1c-0.3-0.4-0.6-1-0.9-1.8c-0.1,0.8-0.3,1.6-0.5,2.4
		c-0.2,0.8-0.5,1.5-1.1,2.2c0,0-0.1,0.1-0.2,0.1c-0.1,0-0.3,0-0.4-0.2c-0.2-0.1-0.2-0.2-0.2-0.4c0-0.1,0-0.4-0.1-0.9
		c-0.1-0.5-0.1-1-0.2-1.5c-0.1-0.6-0.2-1.1-0.2-1.7c-0.1-0.6-0.1-1.1-0.2-1.4c0-0.2,0-0.4,0-0.7c0-0.3,0-0.6,0.1-0.8
		c0,0,0.1-0.1,0.2-0.2s0.2-0.2,0.4-0.2c0.1,0,0.2,0.1,0.2,0.2c0,0.2,0.1,0.3,0.1,0.5l0.4,4.2c0,0.1,0,0.2,0.1,0.4
		c0,0.2,0.1,0.3,0.2,0.3c0.2-0.4,0.3-1,0.4-1.6c0.1-0.6,0.2-1.2,0.4-1.7c0.1-0.5,0.2-1,0.4-1.4c0.1-0.4,0.3-0.6,0.4-0.6
		c0.2,0,0.3,0,0.4,0.1c0.1,0.1,0.2,0.2,0.3,0.4c0.1,0.5,0.2,1,0.3,1.4c0.1,0.4,0.2,0.8,0.3,1.1c0.1,0.3,0.3,0.6,0.4,0.9
		c0.2,0.3,0.4,0.5,0.7,0.7c0.3,0.2,0.6,0.4,0.9,0.4s0.6,0.1,0.8,0.1c0.1,0,0.2,0,0.3-0.1c0.1-0.1,0.2-0.1,0.3-0.1
		c0.1,0,0.1,0.1,0.2,0.2C108.6,97.6,108.6,97.7,108.6,97.7z"/>
	<path class="st2" d="M125.8,93.7c0,0.4,0,0.8-0.1,1.1c-0.1,0.4-0.2,0.7-0.3,1c-0.2,0.3-0.3,0.5-0.6,0.7c-0.2,0.2-0.5,0.3-0.8,0.3
		c-0.5,0-0.9-0.1-1.2-0.3c-0.3-0.3-0.6-0.6-0.7-0.9c-0.2-0.4-0.3-0.7-0.4-1.1c-0.1-0.4-0.1-0.7-0.1-0.9c0-0.3,0-0.7,0.1-1.1
		c0.1-0.4,0.2-0.8,0.3-1.2c0.1-0.4,0.3-0.7,0.5-0.9c0.2-0.3,0.4-0.4,0.6-0.4c0.1,0,0.1,0,0.3,0c0.1,0,0.2,0.1,0.4,0.1
		c0.1,0.1,0.3,0.1,0.4,0.2c0.1,0.1,0.2,0.2,0.2,0.4c0.2,0,0.4,0.1,0.6,0.2c0.2,0.1,0.3,0.2,0.3,0.3c0.2,0.5,0.3,0.9,0.4,1.4
		C125.7,93,125.7,93.4,125.8,93.7z M124.5,93.3c0-0.3-0.1-0.5-0.2-0.8c-0.1-0.3-0.2-0.6-0.4-0.9c0,0-0.1,0-0.1,0c-0.1,0-0.1,0-0.2,0
		s-0.1,0-0.1,0c-0.2,0-0.4,0.1-0.5,0.2c-0.1,0.1-0.2,0.3-0.2,0.5c0,0.2-0.1,0.4-0.1,0.6c0,0.2,0,0.4,0,0.6c0,0.2,0,0.4,0.1,0.7
		c0,0.2,0.1,0.5,0.2,0.7s0.2,0.4,0.3,0.5c0.1,0.1,0.3,0.2,0.4,0.2s0.3-0.1,0.4-0.3c0.1-0.2,0.2-0.4,0.2-0.7c0-0.3,0.1-0.5,0.1-0.8
		C124.5,93.6,124.5,93.4,124.5,93.3z"/>
	<path class="st2" d="M136.1,79.2c0,0,0,0.1,0,0.2c0,0.1,0,0.2,0,0.3c0,0.1,0,0.2-0.1,0.2c0,0-0.1,0-0.1,0c-0.1,0-0.1,0-0.1,0
		c-0.3-0.1-0.7-0.3-1.2-0.4c-0.5-0.2-1-0.3-1.6-0.2c-0.6,0.1-1.1,0.3-1.5,0.9c-0.4,0.5-0.6,1.1-0.8,1.8c-0.2,0.7-0.2,1.3-0.2,1.9
		c0,0.6,0,1.1,0,1.3c0,0.2,0.1,0.5,0.2,0.9c0.1,0.4,0.2,0.8,0.4,1.3s0.3,0.8,0.5,1.2c0.2,0.4,0.3,0.6,0.5,0.6c0.1,0,0.3,0,0.6-0.1
		c0.3,0,0.5-0.1,0.7-0.1c0.3,0,0.6,0,0.9,0c0.3,0,0.6,0,0.8,0c0.1,0,0.2,0,0.3,0c0.1,0,0.3,0,0.4,0c0.2,0,0.3,0,0.4,0.1
		c0.1,0,0.2,0.1,0.2,0.2c0,0.1,0,0.2-0.2,0.3c-0.1,0.1-0.3,0.2-0.4,0.2c-0.2,0.1-0.3,0.1-0.5,0.1c-0.2,0-0.3,0.1-0.4,0.1
		c-0.1,0-0.2,0-0.4,0c-0.1,0-0.3,0-0.5,0c-0.2,0-0.3,0-0.5,0s-0.3,0-0.4,0c-0.3,0-0.5,0.1-0.5,0.1c-0.1,0.1-0.1,0.2-0.1,0.4
		c0,0.3,0.2,0.6,0.5,1.1c0.3,0.4,0.6,0.9,0.9,1.4c0.3,0.5,0.6,1,0.9,1.5c0.3,0.5,0.5,1,0.5,1.5c0,0.1,0,0.3,0,0.5
		c0,0.2-0.1,0.5-0.1,0.8c-0.1,0.3-0.2,0.5-0.3,0.7c-0.1,0.2-0.3,0.3-0.5,0.3c-0.1,0-0.3,0-0.4-0.1c-0.1-0.1-0.2-0.2-0.2-0.4
		c0-0.3,0-0.6,0.2-0.8c0.1-0.3,0.2-0.5,0.2-0.8c0-0.1-0.1-0.4-0.3-0.7c-0.2-0.3-0.4-0.7-0.6-1.1c-0.2-0.4-0.5-0.8-0.8-1.3
		c-0.3-0.4-0.5-0.9-0.8-1.2c-0.2-0.4-0.4-0.7-0.6-0.9c-0.2-0.2-0.3-0.4-0.3-0.4c-0.3,0.2-0.7,0.3-1.1,0.5c-0.4,0.2-0.7,0.4-1,0.7
		c-0.1,0.1-0.2,0.2-0.3,0.2c-0.2,0-0.4,0-0.5-0.2c-0.2-0.1-0.3-0.3-0.3-0.5c0-0.2,0-0.4,0.1-0.5c0.1-0.1,0.2-0.2,0.3-0.3
		c0.2-0.1,0.4-0.2,0.7-0.4s0.7-0.3,1-0.4c0.1,0,0.2-0.1,0.3-0.1c0.1,0,0.2-0.1,0.1-0.2c-0.1-0.2-0.2-0.4-0.3-0.7
		c-0.1-0.3-0.3-0.6-0.4-1c-0.1-0.4-0.3-0.9-0.4-1.4c-0.1-0.5-0.2-1.1-0.3-1.6c-0.1-0.6,0-1.3,0.1-2.1c0.1-0.7,0.3-1.4,0.6-2
		c0.3-0.6,0.7-1.2,1.1-1.6c0.5-0.4,1.1-0.7,1.8-0.7c0.3,0,0.7,0,1.1,0c0.4,0,0.8,0.1,1.1,0.2c0.3,0.1,0.6,0.2,0.9,0.4
		C135.9,78.8,136.1,79,136.1,79.2z"/>
	<path class="st2" d="M158,91.8c0,0.2,0,0.4,0,0.6c0,0.2-0.1,0.4-0.1,0.5c0,0.1-0.2,0.3-0.5,0.6c-0.3,0.3-0.6,0.7-1,1.1
		c-0.4,0.4-0.9,0.7-1.4,1.1c-0.5,0.3-1,0.5-1.5,0.6c-0.3,0-0.6,0-0.9-0.1c-0.3-0.1-0.6-0.2-0.9-0.4c-0.3-0.2-0.5-0.5-0.7-0.8
		c-0.2-0.3-0.3-0.8-0.4-1.3c-0.1-0.9,0-1.7,0.2-2.4c0.2-0.7,0.5-1.3,0.7-1.7c0.1-0.2,0.3-0.4,0.4-0.6c0.2-0.2,0.4-0.4,0.6-0.6
		c0.2-0.2,0.4-0.3,0.5-0.5c0.2-0.1,0.3-0.2,0.3-0.2c0.2,0,0.3,0,0.5,0.1c0.1,0.1,0.2,0.2,0.2,0.3c0,0.1,0,0.3-0.1,0.4
		c-0.1,0.1-0.2,0.2-0.3,0.4c-0.1,0.1-0.3,0.3-0.5,0.5c-0.2,0.2-0.4,0.5-0.6,0.8c-0.4,0.6-0.6,1.3-0.8,1.9c-0.2,0.6-0.2,1.2-0.2,1.7
		c0,0.5,0.2,0.8,0.6,1.1c0.4,0.2,0.7,0.4,1.1,0.3c0.7-0.1,1.3-0.3,1.8-0.6c0.5-0.4,0.9-0.7,1.3-1.1c0.3-0.4,0.6-0.8,0.8-1.1
		c0.2-0.3,0.4-0.5,0.5-0.5C157.8,91.4,157.9,91.5,158,91.8z"/>
	<path class="st2" d="M166.2,87.8c0,0.1,0,0.2-0.1,0.3c-0.1,0.1-0.2,0.2-0.4,0.2c-0.1,0.1-0.3,0.1-0.4,0.2c-0.1,0-0.3,0.1-0.3,0.1
		c-0.3,0-0.5,0-0.5,0c-0.1,0-0.2,0-0.2,0c-0.4,0-0.8,0.1-1.1,0.2c-0.3,0.1-0.5,0.2-0.6,0.4c-0.1,0.2-0.2,0.4-0.2,0.6
		c0,0.2,0,0.5,0,0.9c0,0.6,0.1,1,0.2,1.4c0.1,0.3,0.1,0.6,0.2,0.8c0.1,0.2,0.1,0.4,0.2,0.5c0.1,0.1,0.1,0.2,0.1,0.3
		c0,0.1-0.1,0.3-0.2,0.5c-0.1,0.2-0.3,0.3-0.4,0.3c-0.2,0-0.4-0.2-0.6-0.5c-0.2-0.4-0.4-0.8-0.6-1.3c-0.2-0.5-0.3-1-0.4-1.5
		c-0.1-0.5-0.2-0.9-0.2-1.2c0-0.3,0-0.6,0-0.9c0-0.3,0.1-0.5,0.2-0.7c0.1-0.2,0.2-0.4,0.3-0.5c0.1-0.1,0.2-0.2,0.3-0.2
		c0.1,0,0.2,0,0.2,0.1c0.1,0.1,0.1,0.1,0.2,0.2c0,0.1,0.1,0.1,0.1,0.2c0.1,0.1,0.1,0.1,0.2,0.1c0.2,0,0.4-0.1,0.8-0.3
		c0.3-0.2,0.8-0.3,1.3-0.4c0.5,0,0.8-0.1,1.1-0.1c0.2,0,0.5,0,0.7,0.1c0.1,0,0.1,0,0.2,0.1C166.1,87.5,166.2,87.6,166.2,87.8z"/>
	<path class="st2" d="M169.5,83.3c0,0-0.1,0.1-0.2,0.2c-0.1,0.1-0.3,0.2-0.4,0.4c-0.2,0.1-0.3,0.2-0.5,0.4s-0.3,0.2-0.4,0.2
		c-0.1,0-0.2,0-0.3,0c-0.1,0-0.2,0-0.4-0.1c-0.1,0-0.2-0.1-0.3-0.2c-0.1-0.1-0.2-0.2-0.2-0.4c0-0.3,0-0.5,0.2-0.7
		c0.2-0.2,0.4-0.4,0.7-0.4c0.1,0,0.2,0,0.4,0c0.2,0,0.4,0.1,0.6,0.1c0.2,0.1,0.4,0.1,0.5,0.2C169.4,83.1,169.5,83.2,169.5,83.3z
		 M171.3,93.2c0,0.1-0.1,0.2-0.3,0.3c-0.2,0.1-0.3,0.2-0.4,0.2c-0.2,0-0.4-0.1-0.5-0.3c-0.2-0.2-0.3-0.5-0.4-0.8
		c-0.1-0.3-0.2-0.6-0.3-0.9c-0.1-0.3-0.2-0.5-0.2-0.6c-0.1-0.2-0.2-0.4-0.3-0.6c-0.1-0.2-0.2-0.5-0.3-0.7c-0.1-0.2-0.2-0.4-0.3-0.6
		c-0.1-0.2-0.1-0.3-0.1-0.3c0-0.3,0-0.5,0.1-0.7c0.1-0.2,0.2-0.3,0.3-0.4c0.2,0,0.3,0.1,0.5,0.3c0.2,0.2,0.4,0.5,0.6,0.9
		c0.2,0.4,0.4,0.8,0.6,1.2c0.2,0.4,0.3,0.9,0.5,1.3c0.1,0.4,0.3,0.7,0.3,1C171.3,93,171.3,93.2,171.3,93.2z"/>
	<path class="st2" d="M179.3,82.6c-0.2,0.3-0.5,0.6-0.9,0.9c-0.4,0.3-0.8,0.6-1.2,0.8c-0.4,0.3-0.8,0.5-1.1,0.7s-0.5,0.3-0.5,0.4
		c0,0.1,0.1,0.2,0.1,0.5c0.1,0.3,0.2,0.6,0.3,0.9c0.1,0.4,0.3,0.7,0.4,1.1c0.1,0.4,0.3,0.7,0.4,1c0.1,0.2,0.1,0.4,0.2,0.7
		c0.1,0.3,0.2,0.6,0.2,0.8c0.1,0.3,0.1,0.5,0.2,0.8c0.1,0.2,0.1,0.3,0.1,0.4c0,0.3,0,0.6-0.1,0.8c-0.1,0.3-0.2,0.5-0.4,0.5
		c-0.1,0-0.2,0-0.3-0.1c-0.1-0.1-0.2-0.2-0.3-0.3c-0.1-0.1-0.1-0.2-0.2-0.3c0-0.1-0.1-0.2-0.1-0.2c0,0,0-0.1,0-0.2
		c0-0.1,0-0.2,0-0.2c0-0.3-0.1-0.8-0.3-1.5c-0.1-0.2-0.2-0.5-0.3-0.9c-0.1-0.4-0.3-0.8-0.4-1.2c-0.2-0.5-0.4-1-0.6-1.6
		c-0.1-0.2-0.1-0.4-0.2-0.4c-0.1,0-0.3,0.1-0.6,0.3c-0.3,0.2-0.6,0.4-1,0.7c-0.4,0.3-0.7,0.5-1.1,0.8c-0.4,0.3-0.8,0.6-1.1,0.8
		c-0.3,0.3-0.6,0.5-0.9,0.6c-0.2,0.2-0.4,0.3-0.5,0.3c-0.2,0-0.4,0-0.6-0.2c-0.2-0.1-0.2-0.3-0.3-0.5c0-0.1,0.1-0.3,0.4-0.5
		c0.3-0.2,0.6-0.5,1-0.8c0.4-0.3,0.9-0.6,1.4-0.9c0.5-0.3,0.9-0.6,1.4-0.9c0.4-0.3,0.9-0.5,1.5-0.9c-0.2-0.8-0.4-1.5-0.6-2.2
		c-0.1-0.5-0.3-1.1-0.4-1.5c-0.1-0.5-0.2-0.7-0.2-0.7c0-0.2,0-0.4,0.1-0.5c0.1-0.1,0.2-0.2,0.3-0.2c0.2,0,0.3,0.1,0.4,0.4
		c0.3,1,0.5,1.8,0.8,2.5c0.2,0.7,0.5,1.3,0.7,1.8c0.2,0,0.4-0.2,0.8-0.4c0.4-0.2,0.8-0.4,1.2-0.7c0.4-0.2,0.8-0.4,1.1-0.6
		c0.3-0.2,0.5-0.3,0.6-0.3c0.1,0,0.2,0,0.2,0.1C179.2,82.5,179.2,82.6,179.3,82.6z"/>
	<path class="st2" d="M182.3,82.2c0,0-0.1,0.1-0.2,0.2c-0.1,0.1-0.3,0.2-0.4,0.4c-0.2,0.1-0.3,0.2-0.5,0.4s-0.3,0.2-0.4,0.2
		c-0.1,0-0.2,0-0.3,0c-0.1,0-0.2,0-0.4-0.1c-0.1,0-0.2-0.1-0.3-0.2c-0.1-0.1-0.2-0.2-0.2-0.4c0-0.3,0-0.5,0.2-0.7
		c0.2-0.2,0.4-0.4,0.7-0.4c0.1,0,0.2,0,0.4,0c0.2,0,0.4,0.1,0.6,0.1c0.2,0.1,0.4,0.1,0.5,0.2C182.2,82,182.3,82,182.3,82.2z
		 M184.1,92.1c0,0.1-0.1,0.2-0.3,0.3c-0.2,0.1-0.3,0.2-0.4,0.2c-0.2,0-0.4-0.1-0.5-0.3c-0.2-0.2-0.3-0.5-0.4-0.8
		c-0.1-0.3-0.2-0.6-0.3-0.9c-0.1-0.3-0.2-0.5-0.2-0.6c-0.1-0.2-0.2-0.4-0.3-0.6c-0.1-0.2-0.2-0.5-0.3-0.7c-0.1-0.2-0.2-0.4-0.3-0.6
		c-0.1-0.2-0.1-0.3-0.1-0.3c0-0.3,0-0.5,0.1-0.7c0.1-0.2,0.2-0.3,0.3-0.4c0.2,0,0.3,0.1,0.5,0.3c0.2,0.2,0.4,0.5,0.6,0.9
		c0.2,0.4,0.4,0.8,0.6,1.2c0.2,0.4,0.3,0.9,0.5,1.3c0.1,0.4,0.3,0.7,0.3,1C184,91.9,184,92.1,184.1,92.1z"/>
	<path class="st2" d="M193.3,88.7c0,0.2,0,0.4,0,0.6c0,0.2-0.1,0.4-0.1,0.5c0,0.1-0.2,0.3-0.5,0.6c-0.3,0.3-0.6,0.7-1,1.1
		c-0.4,0.4-0.9,0.7-1.4,1.1c-0.5,0.3-1,0.5-1.5,0.6c-0.3,0-0.6,0-0.9-0.1c-0.3-0.1-0.6-0.2-0.9-0.4c-0.3-0.2-0.5-0.5-0.7-0.8
		c-0.2-0.3-0.3-0.8-0.4-1.3c-0.1-0.9,0-1.7,0.2-2.4c0.2-0.7,0.5-1.3,0.7-1.7c0.1-0.2,0.3-0.4,0.4-0.6c0.2-0.2,0.4-0.4,0.6-0.6
		c0.2-0.2,0.4-0.3,0.5-0.5c0.2-0.1,0.3-0.2,0.3-0.2c0.2,0,0.3,0,0.5,0.1c0.1,0.1,0.2,0.2,0.2,0.3c0,0.1,0,0.3-0.1,0.4
		c-0.1,0.1-0.2,0.2-0.3,0.4c-0.1,0.1-0.3,0.3-0.5,0.5c-0.2,0.2-0.4,0.5-0.6,0.8c-0.4,0.6-0.6,1.3-0.8,1.9c-0.2,0.6-0.2,1.2-0.2,1.7
		c0,0.5,0.2,0.8,0.6,1.1c0.4,0.2,0.7,0.4,1.1,0.3c0.7-0.1,1.3-0.3,1.8-0.6c0.5-0.4,0.9-0.7,1.3-1.1c0.3-0.4,0.6-0.8,0.8-1.1
		c0.2-0.3,0.4-0.5,0.5-0.5C193.1,88.3,193.2,88.4,193.3,88.7z"/>
	<path class="st2" d="M208.1,86.7c0,0.3-0.1,0.7-0.3,1.2c-0.3,0.5-0.6,1-1.1,1.5c-0.5,0.5-1,0.9-1.6,1.3c-0.6,0.4-1.3,0.6-2,0.7
		c-0.3,0-0.7,0-1-0.1c-0.4-0.1-0.7-0.2-1.1-0.4s-0.7-0.4-1-0.7c-0.3-0.3-0.5-0.6-0.7-1c-0.1,0.1-0.2,0.3-0.3,0.6
		c-0.1,0.3-0.3,0.5-0.4,0.8c-0.2,0.3-0.3,0.5-0.5,0.7c-0.2,0.2-0.4,0.3-0.6,0.3c-0.2,0-0.4-0.1-0.6-0.3c-0.2-0.2-0.3-0.5-0.4-0.8
		c-0.1-0.3-0.2-0.6-0.3-0.8c-0.1-0.3-0.1-0.4-0.1-0.5c0-0.2,0-0.6,0.1-1.2c0.1-0.6,0.2-1.3,0.4-1.9c0.2-0.7,0.5-1.3,0.8-1.8
		c0.3-0.5,0.8-0.8,1.3-0.9c0.2,0,0.3,0.1,0.4,0.2c0.1,0.2,0.1,0.3,0.1,0.5l0.1,0.8c0.1,0.1,0.2,0.1,0.3,0.1c0.1,0,0.2,0,0.3,0.1
		c0.1,0,0.2,0.1,0.2,0.2c0.1,0.1,0.1,0.2,0.1,0.4c0,0.1,0,0.2,0,0.3c0,0.1,0,0.2,0,0.3c0,0.5,0.1,0.9,0.2,1.4
		c0.1,0.4,0.3,0.8,0.5,1.2c0.2,0.3,0.6,0.6,1,0.8c0.4,0.2,0.9,0.3,1.5,0.2c0.8-0.1,1.4-0.3,2-0.7c0.5-0.4,0.9-0.8,1.3-1.2
		c0.3-0.4,0.6-0.8,0.8-1.2c0.2-0.4,0.4-0.5,0.5-0.5C208,86.4,208.1,86.5,208.1,86.7z M198.6,86.4c0-0.1,0-0.1-0.1-0.2
		c0-0.1-0.1-0.1-0.1-0.2c0-0.1,0-0.1,0-0.2c0-0.1,0-0.1,0-0.2c0-0.1,0-0.1-0.1-0.1c0,0-0.1-0.1-0.1-0.1c-0.2,0.1-0.3,0.2-0.5,0.5
		c-0.1,0.3-0.3,0.6-0.4,1c-0.1,0.4-0.2,0.7-0.3,1.1c-0.1,0.4-0.1,0.7-0.1,0.9c0,0.1,0.1,0.3,0.2,0.6c0.1,0.3,0.2,0.5,0.3,0.5
		c0.3-0.7,0.5-1.3,0.7-1.9C198.6,87.5,198.6,86.9,198.6,86.4z"/>
	<path class="st2" d="M212.3,91.5c-0.1,0.1-0.2,0.1-0.4,0.1c-0.2,0-0.3-0.1-0.5-0.4c-0.2-0.3-0.4-0.7-0.6-1.1
		c-0.2-0.5-0.4-0.9-0.6-1.5c-0.2-0.5-0.4-1-0.5-1.5c-0.1-0.5-0.3-0.9-0.4-1.2c-0.1-0.3-0.1-0.5-0.1-0.5c0-0.1-0.1-0.3-0.1-0.6
		c-0.1-0.3-0.2-0.8-0.4-1.4c-0.2-0.6-0.3-1.5-0.5-2.5c-0.2-1-0.4-2.3-0.7-3.8c0-0.2,0-0.4,0-0.6c0-0.3,0.1-0.4,0.3-0.4
		c0.3,0,0.5,0.1,0.6,0.5c0.2,0.3,0.3,0.7,0.4,1.2c0.1,0.5,0.2,1,0.3,1.6c0.1,0.5,0.2,1,0.3,1.4c0.1,0.6,0.2,1.1,0.3,1.5
		c0.1,0.5,0.2,0.9,0.3,1.4c0.1,0.5,0.2,0.9,0.4,1.4c0.1,0.5,0.3,1,0.5,1.6l1.5,4.4C212.5,91.3,212.4,91.4,212.3,91.5z"/>
</g>
<g class="st1">
	<path class="st2" d="M45.8,121.4c0,0.1,0,0.2-0.1,0.3c-0.1,0.1-0.2,0.2-0.4,0.2c-0.1,0.1-0.3,0.1-0.4,0.2c-0.1,0-0.3,0.1-0.3,0.1
		c-0.3,0-0.5,0-0.5,0c-0.1,0-0.2,0-0.2,0c-0.4,0-0.8,0.1-1.1,0.2c-0.3,0.1-0.5,0.2-0.6,0.4c-0.1,0.2-0.2,0.4-0.2,0.6
		c0,0.2,0,0.5,0,0.9c0,0.6,0.1,1,0.2,1.4c0.1,0.3,0.1,0.6,0.2,0.8s0.1,0.4,0.2,0.5c0.1,0.1,0.1,0.2,0.1,0.3c0,0.1-0.1,0.3-0.2,0.5
		c-0.1,0.2-0.3,0.3-0.4,0.3c-0.2,0-0.4-0.2-0.6-0.5c-0.2-0.4-0.4-0.8-0.6-1.3c-0.2-0.5-0.3-1-0.4-1.5s-0.2-0.9-0.2-1.2
		c0-0.3,0-0.6,0-0.9c0-0.3,0.1-0.5,0.2-0.7c0.1-0.2,0.2-0.4,0.3-0.5c0.1-0.1,0.2-0.2,0.3-0.2c0.1,0,0.2,0,0.2,0.1
		c0.1,0.1,0.1,0.1,0.2,0.2c0,0.1,0.1,0.1,0.1,0.2c0,0.1,0.1,0.1,0.2,0.1c0.2,0,0.4-0.1,0.8-0.3c0.3-0.2,0.8-0.3,1.3-0.4
		c0.5,0,0.8-0.1,1.1-0.1c0.2,0,0.5,0,0.7,0.1c0.1,0,0.1,0,0.2,0.1C45.7,121.2,45.8,121.3,45.8,121.4z"/>
	<path class="st2" d="M55.9,125.9c0,0,0,0.1,0,0.2c0,0.1-0.1,0.3-0.2,0.5c0,0.1-0.2,0.2-0.3,0.4c-0.2,0.2-0.4,0.4-0.7,0.5
		c-0.3,0.2-0.7,0.4-1.1,0.5c-0.4,0.2-0.9,0.3-1.5,0.3c-0.4,0-0.8,0-1.2-0.2c-0.4-0.2-0.8-0.4-1.1-0.7c-0.3-0.3-0.6-0.8-0.9-1.3
		s-0.4-1.2-0.5-1.9c-0.1-0.7,0-1.4,0.1-2c0.1-0.6,0.3-1.2,0.5-1.7c0.2-0.5,0.5-0.9,0.8-1.2c0.3-0.3,0.6-0.5,1-0.5
		c0.3,0,0.6,0,0.9,0.1c0.3,0.1,0.6,0.2,0.8,0.4c0.3,0.2,0.5,0.3,0.6,0.6c0.2,0.2,0.3,0.4,0.3,0.7c0,0.3-0.1,0.6-0.3,0.9
		c-0.2,0.3-0.5,0.6-0.8,0.9c-0.3,0.3-0.6,0.5-1,0.7c-0.3,0.2-0.6,0.3-0.8,0.3c-0.1,0-0.2,0-0.3-0.1c-0.1-0.1-0.1-0.2-0.2-0.4
		c0-0.2,0.1-0.5,0.3-0.6c0.2-0.2,0.4-0.3,0.7-0.5c0.3-0.1,0.5-0.3,0.7-0.5c0.2-0.2,0.3-0.4,0.3-0.7c0,0-0.1-0.1-0.2-0.3
		c-0.1-0.1-0.4-0.2-0.7-0.2c-0.2,0-0.4,0.1-0.6,0.4s-0.4,0.5-0.6,0.9c-0.2,0.4-0.3,0.8-0.4,1.3c-0.1,0.5-0.1,1-0.1,1.6
		c0,0.5,0.2,0.9,0.4,1.2c0.2,0.4,0.5,0.7,0.7,0.9c0.3,0.2,0.6,0.4,1,0.5c0.4,0.1,0.7,0.2,1.1,0.1c0.3,0,0.6-0.1,0.9-0.3
		s0.6-0.3,0.9-0.5c0.3-0.2,0.5-0.3,0.7-0.4c0.2-0.1,0.3-0.2,0.4-0.2s0.1,0,0.2,0.1C55.8,125.8,55.9,125.9,55.9,125.9z"/>
	<path class="st2" d="M70.3,121.9c0,0.3-0.1,0.7-0.3,1.2c-0.3,0.5-0.6,1-1.1,1.5c-0.5,0.5-1,0.9-1.6,1.3c-0.6,0.4-1.3,0.6-2,0.7
		c-0.3,0-0.7,0-1-0.1c-0.4-0.1-0.7-0.2-1.1-0.4c-0.4-0.2-0.7-0.4-1-0.7c-0.3-0.3-0.5-0.6-0.7-1c-0.1,0.1-0.2,0.3-0.3,0.6
		c-0.1,0.3-0.3,0.5-0.4,0.8c-0.2,0.3-0.3,0.5-0.5,0.7c-0.2,0.2-0.4,0.3-0.6,0.3c-0.2,0-0.4-0.1-0.6-0.3c-0.2-0.2-0.3-0.5-0.4-0.8
		c-0.1-0.3-0.2-0.6-0.3-0.8c-0.1-0.3-0.1-0.4-0.1-0.5c0-0.2,0-0.6,0.1-1.2c0.1-0.6,0.2-1.3,0.4-1.9c0.2-0.7,0.5-1.3,0.8-1.8
		c0.3-0.5,0.8-0.8,1.3-0.9c0.2,0,0.3,0.1,0.4,0.2c0.1,0.2,0.1,0.3,0.1,0.5l0.1,0.8c0.1,0.1,0.2,0.1,0.3,0.1c0.1,0,0.2,0,0.3,0.1
		c0.1,0,0.2,0.1,0.2,0.2c0.1,0.1,0.1,0.2,0.1,0.4c0,0.1,0,0.2,0,0.3c0,0.1,0,0.2,0,0.3c0,0.5,0.1,0.9,0.2,1.4
		c0.1,0.4,0.3,0.8,0.5,1.2c0.2,0.3,0.6,0.6,1,0.8c0.4,0.2,0.9,0.3,1.5,0.2c0.8-0.1,1.4-0.3,2-0.7c0.5-0.4,0.9-0.8,1.3-1.2
		s0.6-0.8,0.8-1.2c0.2-0.4,0.4-0.5,0.5-0.5C70.2,121.5,70.3,121.6,70.3,121.9z M60.8,121.5c0-0.1,0-0.1-0.1-0.2
		c0-0.1-0.1-0.1-0.1-0.2c0-0.1,0-0.1,0-0.2c0-0.1,0-0.1,0-0.2c0-0.1,0-0.1-0.1-0.1c0,0-0.1-0.1-0.1-0.1c-0.2,0.1-0.3,0.2-0.5,0.5
		c-0.1,0.3-0.3,0.6-0.4,1c-0.1,0.4-0.2,0.7-0.3,1.1c-0.1,0.4-0.1,0.7-0.1,0.9c0,0.1,0.1,0.3,0.2,0.6c0.1,0.3,0.2,0.5,0.3,0.5
		c0.2-0.7,0.5-1.3,0.7-1.9C60.8,122.7,60.8,122.1,60.8,121.5z"/>
	<path class="st2" d="M74.5,126.7c-0.1,0.1-0.2,0.1-0.4,0.1c-0.2,0-0.3-0.1-0.5-0.4c-0.2-0.3-0.4-0.7-0.6-1.1
		c-0.2-0.5-0.4-0.9-0.6-1.5s-0.4-1-0.5-1.5c-0.1-0.5-0.3-0.9-0.4-1.2c-0.1-0.3-0.1-0.5-0.1-0.5c0-0.1-0.1-0.3-0.1-0.6
		c-0.1-0.3-0.2-0.8-0.4-1.4c-0.2-0.6-0.3-1.5-0.5-2.5c-0.2-1-0.4-2.3-0.7-3.8c0-0.2,0-0.4,0-0.6c0-0.3,0.1-0.4,0.3-0.4
		c0.3,0,0.5,0.1,0.6,0.5c0.2,0.3,0.3,0.7,0.4,1.2c0.1,0.5,0.2,1,0.3,1.6c0.1,0.5,0.2,1,0.3,1.4c0.1,0.6,0.2,1.1,0.3,1.5
		c0.1,0.5,0.2,0.9,0.3,1.4c0.1,0.5,0.2,0.9,0.4,1.4c0.1,0.5,0.3,1,0.5,1.6l1.5,4.4C74.7,126.5,74.6,126.6,74.5,126.7z"/>
	<path class="st2" d="M95,113.4c0.1,0,0.1,0.1,0.1,0.2c0,0.1,0,0.3-0.2,0.4c-0.1,0.1-0.2,0.3-0.1,0.5c0,0,0,0.2,0,0.4
		c0,0.2,0,0.5,0.1,0.8c0,0.3,0,0.6,0.1,0.8s0,0.4,0,0.4l0.2,2.7c0,0,0,0.1,0,0.4c0,0.2,0,0.5,0,0.8c0,0.3,0,0.7,0,1
		c0,0.4,0,0.7-0.1,0.9c0,0.1-0.1,0.1-0.1,0.2c-0.1,0-0.2,0.1-0.3,0.1c-0.1,0-0.2,0.1-0.3,0.1c-0.1,0-0.1,0-0.2,0
		c-0.2,0-0.4-0.1-0.7-0.3c-0.2-0.2-0.5-0.5-0.7-0.7c-0.2-0.3-0.4-0.5-0.6-0.8c-0.2-0.2-0.3-0.4-0.3-0.4c0,0.3-0.1,0.5-0.2,0.8
		c-0.1,0.3-0.1,0.5-0.2,0.7c-0.1,0.2-0.2,0.4-0.3,0.6c-0.1,0.2-0.3,0.2-0.4,0.3c-0.2,0-0.4-0.1-0.7-0.3s-0.5-0.5-0.8-0.8
		c-0.3-0.3-0.5-0.7-0.8-1.1c-0.3-0.4-0.5-0.8-0.7-1.2c-0.2-0.4-0.4-0.7-0.5-1.1c-0.1-0.3-0.2-0.6-0.2-0.8c0-0.1,0-0.2,0.1-0.3
		c0.1-0.1,0.2-0.2,0.3-0.2c0.3,0,0.4,0,0.6,0.2c0,0,0.1,0.2,0.2,0.5c0.1,0.3,0.3,0.6,0.5,1c0.2,0.4,0.5,0.8,0.7,1.2s0.6,0.8,0.9,1
		c0.1-0.2,0.2-0.5,0.2-0.8c0.1-0.3,0.1-0.6,0.1-0.9c0-0.3,0-0.5,0-0.7c0-0.2,0-0.4,0-0.6c0-0.1-0.1-0.3-0.1-0.4
		c0-0.1-0.1-0.2-0.1-0.4c0-0.1,0-0.2,0-0.3c0-0.4,0.1-0.7,0.5-0.7c0.3,0,0.5,0,0.6,0.2c0.2,0.2,0.3,0.3,0.4,0.6
		c0.1,0.2,0.2,0.4,0.2,0.6s0.1,0.4,0.1,0.4c0.2,0.4,0.3,0.8,0.5,1.1c0.1,0.3,0.4,0.7,0.7,1c0.1-0.1,0.1-0.2,0.1-0.3
		c0-0.1,0.1-0.3,0.1-0.4c0-0.1,0-0.3,0-0.4c0-0.1,0-0.2,0-0.3l-0.5-5.4c0-0.1,0-0.2,0.1-0.3c0.1-0.1,0.2-0.2,0.3-0.3
		c0.1-0.1,0.2-0.2,0.3-0.2c0.1-0.1,0.2-0.1,0.2-0.1c0.1,0,0.2,0,0.3,0.1C94.8,113.3,94.9,113.4,95,113.4z"/>
	<path class="st2" d="M102.7,118.8c0,0.4,0,0.8-0.1,1.1c-0.1,0.4-0.2,0.7-0.3,1c-0.2,0.3-0.3,0.5-0.6,0.7c-0.2,0.2-0.5,0.3-0.8,0.3
		c-0.5,0-0.9-0.1-1.2-0.3c-0.3-0.3-0.6-0.6-0.7-0.9c-0.2-0.4-0.3-0.7-0.4-1.1c-0.1-0.4-0.1-0.7-0.1-0.9c0-0.3,0-0.7,0.1-1.1
		c0.1-0.4,0.2-0.8,0.3-1.2c0.1-0.4,0.3-0.7,0.5-0.9c0.2-0.3,0.4-0.4,0.6-0.4c0.1,0,0.1,0,0.3,0s0.2,0.1,0.4,0.1
		c0.1,0.1,0.3,0.1,0.4,0.2c0.1,0.1,0.2,0.2,0.2,0.4c0.2,0,0.4,0.1,0.6,0.2c0.2,0.1,0.3,0.2,0.3,0.3c0.2,0.5,0.3,0.9,0.4,1.4
		C102.6,118.1,102.6,118.5,102.7,118.8z M101.4,118.4c0-0.3-0.1-0.5-0.2-0.8c-0.1-0.3-0.2-0.6-0.4-0.9c0,0-0.1,0-0.1,0
		c-0.1,0-0.1,0-0.2,0c0,0-0.1,0-0.1,0c-0.2,0-0.4,0.1-0.5,0.2c-0.1,0.1-0.2,0.3-0.2,0.5c0,0.2-0.1,0.4-0.1,0.6c0,0.2,0,0.4,0,0.6
		c0,0.2,0,0.4,0.1,0.7c0,0.2,0.1,0.5,0.2,0.7c0.1,0.2,0.2,0.4,0.3,0.5c0.1,0.1,0.3,0.2,0.4,0.2c0.2,0,0.3-0.1,0.4-0.3
		c0.1-0.2,0.2-0.4,0.2-0.7s0.1-0.5,0.1-0.8C101.4,118.7,101.4,118.5,101.4,118.4z"/>
	<path class="st2" d="M111.5,115.6c0,0.1,0,0.2-0.1,0.3c-0.1,0.1-0.2,0.2-0.4,0.2c-0.1,0.1-0.3,0.1-0.4,0.2c-0.1,0-0.3,0.1-0.3,0.1
		c-0.3,0-0.5,0-0.5,0c-0.1,0-0.2,0-0.2,0c-0.4,0-0.8,0.1-1.1,0.2c-0.3,0.1-0.5,0.2-0.6,0.4c-0.1,0.2-0.2,0.4-0.2,0.6
		c0,0.2,0,0.5,0,0.9c0.1,0.6,0.1,1,0.2,1.4s0.1,0.6,0.2,0.8s0.1,0.4,0.2,0.5c0.1,0.1,0.1,0.2,0.1,0.3c0,0.1-0.1,0.3-0.2,0.5
		c-0.1,0.2-0.3,0.3-0.4,0.3c-0.2,0-0.4-0.2-0.6-0.5c-0.2-0.4-0.4-0.8-0.6-1.3c-0.2-0.5-0.3-1-0.4-1.5c-0.1-0.5-0.2-0.9-0.2-1.2
		c0-0.3,0-0.6,0-0.9c0-0.3,0.1-0.5,0.2-0.7c0.1-0.2,0.2-0.4,0.3-0.5c0.1-0.1,0.2-0.2,0.3-0.2c0.1,0,0.2,0,0.2,0.1
		c0.1,0.1,0.1,0.1,0.2,0.2c0,0.1,0.1,0.1,0.1,0.2c0,0.1,0.1,0.1,0.2,0.1c0.2,0,0.4-0.1,0.8-0.3c0.3-0.2,0.8-0.3,1.3-0.4
		c0.5,0,0.8-0.1,1.1-0.1c0.2,0,0.5,0,0.7,0.1c0.1,0,0.1,0,0.2,0.1C111.5,115.4,111.5,115.5,111.5,115.6z"/>
	<path class="st2" d="M117.8,122.9c-0.1,0.1-0.2,0.1-0.4,0.1c-0.2,0-0.3-0.1-0.5-0.4c-0.2-0.3-0.4-0.7-0.6-1.1
		c-0.2-0.5-0.4-0.9-0.6-1.5c-0.2-0.5-0.4-1-0.5-1.5c-0.1-0.5-0.3-0.9-0.4-1.2c-0.1-0.3-0.1-0.5-0.1-0.5c0-0.1-0.1-0.3-0.1-0.6
		c-0.1-0.3-0.2-0.8-0.4-1.4c-0.2-0.6-0.3-1.5-0.5-2.5c-0.2-1-0.4-2.3-0.7-3.8c0-0.2,0-0.4,0-0.6c0-0.3,0.1-0.4,0.3-0.4
		c0.3,0,0.5,0.1,0.6,0.5c0.2,0.3,0.3,0.7,0.4,1.2c0.1,0.5,0.2,1,0.3,1.6c0.1,0.5,0.2,1,0.3,1.4c0.1,0.6,0.2,1.1,0.3,1.5
		c0.1,0.5,0.2,0.9,0.3,1.4c0.1,0.5,0.2,0.9,0.4,1.4c0.1,0.5,0.3,1,0.5,1.6l1.5,4.4C117.9,122.7,117.9,122.8,117.8,122.9z"/>
	<path class="st2" d="M127.3,118.2c0,0.1,0,0.2-0.1,0.3c-0.1,0.1-0.1,0.2-0.1,0.3c0,0.2,0.1,0.4,0.2,0.6c0.1,0.2,0.2,0.4,0.2,0.6
		c0,0.2,0,0.4-0.2,0.4c-0.2,0-0.3,0-0.4,0.1c-0.1,0.1-0.2,0.1-0.4,0.2c-0.1,0-0.2-0.1-0.4-0.3c-0.1-0.1-0.2-0.2-0.2-0.3
		c0,0,0,0-0.1,0.1c-0.1,0.1-0.2,0.2-0.5,0.4s-0.5,0.3-0.9,0.4c-0.4,0.1-0.9,0.2-1.5,0.3c-0.5,0-1,0-1.3-0.2c-0.4-0.2-0.7-0.5-1-0.8
		c-0.3-0.3-0.5-0.7-0.6-1.2c-0.2-0.4-0.3-0.9-0.3-1.4c0-0.4,0-0.8,0-1.2c0.1-0.4,0.2-0.7,0.3-1.1c0.2-0.3,0.4-0.6,0.6-0.8
		c0.3-0.2,0.6-0.3,0.9-0.4c0.3,0,0.7,0,1,0.2c0.4,0.2,0.7,0.4,1,0.6c0.3,0.2,0.6,0.5,1,0.9c-0.4-1.4-0.7-2.6-1-3.7
		c-0.1-0.5-0.3-0.9-0.4-1.4c-0.1-0.5-0.2-0.9-0.3-1.3c-0.1-0.4-0.2-0.7-0.3-0.9c-0.1-0.3-0.1-0.4-0.1-0.5c0-0.1-0.1-0.3-0.1-0.6
		s-0.1-0.6-0.1-0.9c0-0.3-0.1-0.6-0.1-0.8c0-0.2-0.1-0.4-0.1-0.5c-0.1-0.2-0.2-0.4-0.3-0.7c-0.1-0.3-0.2-0.4-0.2-0.4
		c0-0.1,0-0.2,0.1-0.3c0.1-0.1,0.2-0.2,0.3-0.2c0.1,0,0.2,0,0.3,0c0.1,0,0.2,0.1,0.3,0.1c0.1,0.1,0.2,0.2,0.2,0.4
		c0.1,0.2,0.2,0.4,0.2,0.8c0,0.2,0.1,0.5,0.3,1c0.1,0.5,0.3,1,0.4,1.6c0.1,0.6,0.3,1.1,0.4,1.7s0.2,0.9,0.3,1.2
		c0.1,0.7,0.3,1.4,0.6,2.2c0.2,0.8,0.4,1.5,0.7,2.3c0.2,0.7,0.4,1.4,0.7,1.9c0.2,0.6,0.4,0.9,0.5,1.1c0,0.1,0.1,0.1,0.2,0.1
		C127.2,118,127.3,118.1,127.3,118.2z M125.4,118.9c0-0.1-0.2-0.3-0.4-0.7c-0.2-0.4-0.5-0.8-0.9-1.2s-0.7-0.8-1.2-1.2
		c-0.4-0.3-0.8-0.5-1.2-0.5c-0.3,0-0.5,0.3-0.7,0.8c-0.1,0.5-0.2,1-0.1,1.6c0.1,0.7,0.3,1.2,0.7,1.6c0.4,0.4,0.9,0.5,1.4,0.5
		c0.4,0,0.9-0.1,1.3-0.3C124.9,119.3,125.2,119.1,125.4,118.9z"/>
	<path class="st2" d="M148.1,116.3c0,0.1,0,0.2-0.1,0.3c-0.1,0.1-0.1,0.2-0.1,0.3c0,0.2,0.1,0.4,0.2,0.6c0.1,0.2,0.2,0.4,0.2,0.6
		c0,0.2,0,0.4-0.2,0.4c-0.2,0-0.3,0-0.4,0.1c-0.1,0.1-0.2,0.1-0.4,0.2c-0.1,0-0.2-0.1-0.4-0.3c-0.1-0.1-0.2-0.2-0.2-0.3
		c0,0,0,0-0.1,0.1c-0.1,0.1-0.2,0.2-0.5,0.4c-0.2,0.1-0.5,0.3-0.9,0.4c-0.4,0.1-0.9,0.2-1.5,0.3c-0.5,0-1,0-1.3-0.2
		c-0.4-0.2-0.7-0.5-1-0.8c-0.3-0.3-0.5-0.7-0.6-1.2c-0.2-0.4-0.3-0.9-0.3-1.4c0-0.4,0-0.8,0-1.2c0.1-0.4,0.2-0.7,0.3-1.1
		c0.2-0.3,0.4-0.6,0.6-0.8c0.3-0.2,0.6-0.3,0.9-0.4c0.3,0,0.7,0,1,0.2c0.4,0.2,0.7,0.4,1,0.6c0.3,0.2,0.6,0.5,1,0.9
		c-0.4-1.4-0.7-2.6-1-3.7c-0.1-0.5-0.3-0.9-0.4-1.4c-0.1-0.5-0.2-0.9-0.3-1.3c-0.1-0.4-0.2-0.7-0.3-0.9c-0.1-0.3-0.1-0.4-0.1-0.5
		c0-0.1-0.1-0.3-0.1-0.6c0-0.3-0.1-0.6-0.1-0.9c0-0.3-0.1-0.6-0.1-0.8c0-0.2-0.1-0.4-0.1-0.5c-0.1-0.2-0.2-0.4-0.3-0.7
		c-0.1-0.3-0.2-0.4-0.2-0.4c0-0.1,0-0.2,0.1-0.3c0.1-0.1,0.2-0.2,0.3-0.2c0.1,0,0.2,0,0.3,0c0.1,0,0.2,0.1,0.3,0.1
		c0.1,0.1,0.2,0.2,0.2,0.4s0.2,0.4,0.2,0.8c0,0.2,0.1,0.5,0.3,1s0.3,1,0.4,1.6c0.1,0.6,0.3,1.1,0.4,1.7c0.1,0.5,0.2,0.9,0.3,1.2
		c0.1,0.7,0.3,1.4,0.6,2.2c0.2,0.8,0.4,1.5,0.7,2.3c0.2,0.7,0.4,1.4,0.7,1.9c0.2,0.6,0.4,0.9,0.5,1.1c0,0.1,0.1,0.1,0.2,0.1
		C148,116.2,148.1,116.2,148.1,116.3z M146.2,117c0-0.1-0.2-0.3-0.4-0.7c-0.2-0.4-0.5-0.8-0.9-1.2s-0.7-0.8-1.2-1.2
		c-0.4-0.3-0.8-0.5-1.2-0.5c-0.3,0-0.5,0.3-0.7,0.8c-0.1,0.5-0.2,1-0.1,1.6c0.1,0.7,0.3,1.2,0.7,1.6c0.4,0.4,0.9,0.5,1.4,0.5
		c0.4,0,0.9-0.1,1.3-0.3C145.7,117.5,146,117.3,146.2,117z"/>
	<path class="st2" d="M162.9,113.8c0,0.3-0.1,0.7-0.3,1.2c-0.3,0.5-0.6,1-1.1,1.5c-0.5,0.5-1,0.9-1.6,1.3c-0.6,0.4-1.3,0.6-2,0.7
		c-0.3,0-0.7,0-1-0.1c-0.4-0.1-0.7-0.2-1.1-0.4c-0.4-0.2-0.7-0.4-1-0.7c-0.3-0.3-0.5-0.6-0.7-1c-0.1,0.1-0.2,0.3-0.3,0.6
		c-0.1,0.3-0.3,0.5-0.4,0.8c-0.2,0.3-0.3,0.5-0.5,0.7c-0.2,0.2-0.4,0.3-0.6,0.3c-0.2,0-0.4-0.1-0.6-0.3c-0.2-0.2-0.3-0.5-0.4-0.8
		c-0.1-0.3-0.2-0.6-0.3-0.8c-0.1-0.3-0.1-0.4-0.1-0.5c0-0.2,0-0.6,0.1-1.2c0.1-0.6,0.2-1.3,0.4-1.9c0.2-0.7,0.5-1.3,0.8-1.8
		c0.3-0.5,0.8-0.8,1.3-0.9c0.2,0,0.3,0.1,0.4,0.2c0.1,0.2,0.1,0.3,0.1,0.5l0.1,0.8c0.1,0.1,0.2,0.1,0.3,0.1s0.2,0,0.3,0.1
		c0.1,0,0.2,0.1,0.2,0.2c0.1,0.1,0.1,0.2,0.1,0.4c0,0.1,0,0.2,0,0.3c0,0.1,0,0.2,0,0.3c0,0.5,0.1,0.9,0.2,1.4
		c0.1,0.4,0.3,0.8,0.5,1.2c0.2,0.3,0.6,0.6,1,0.8c0.4,0.2,0.9,0.3,1.5,0.2c0.8-0.1,1.4-0.3,2-0.7c0.5-0.4,0.9-0.8,1.3-1.2
		c0.3-0.4,0.6-0.8,0.8-1.2c0.2-0.4,0.4-0.5,0.5-0.5C162.7,113.4,162.8,113.5,162.9,113.8z M153.3,113.4c0-0.1,0-0.1-0.1-0.2
		c0-0.1-0.1-0.1-0.1-0.2c0-0.1,0-0.1,0-0.2c0-0.1,0-0.1,0-0.2c0-0.1,0-0.1-0.1-0.1c0,0-0.1-0.1-0.1-0.1c-0.2,0.1-0.3,0.2-0.5,0.5
		c-0.1,0.3-0.3,0.6-0.4,1c-0.1,0.4-0.2,0.7-0.3,1.1c-0.1,0.4-0.1,0.7-0.1,0.9c0,0.1,0.1,0.3,0.2,0.6c0.1,0.3,0.2,0.5,0.3,0.5
		c0.3-0.7,0.5-1.3,0.7-1.9C153.3,114.6,153.4,114,153.3,113.4z"/>
	<path class="st2" d="M169.7,106.6c-0.2,0.3-0.5,0.6-0.9,0.9c-0.4,0.3-0.8,0.6-1.2,0.8c-0.4,0.3-0.8,0.5-1.1,0.7s-0.5,0.3-0.5,0.4
		c0,0.1,0.1,0.2,0.1,0.5c0.1,0.3,0.2,0.6,0.3,0.9s0.3,0.7,0.4,1.1c0.1,0.4,0.3,0.7,0.4,1c0.1,0.2,0.1,0.4,0.2,0.7
		c0.1,0.3,0.2,0.6,0.2,0.8c0.1,0.3,0.1,0.5,0.2,0.8c0.1,0.2,0.1,0.3,0.1,0.4c0,0.3,0,0.6-0.1,0.8c-0.1,0.3-0.2,0.5-0.4,0.5
		c-0.1,0-0.2,0-0.3-0.1c-0.1-0.1-0.2-0.2-0.3-0.3c-0.1-0.1-0.1-0.2-0.2-0.3c0-0.1-0.1-0.2-0.1-0.2c0,0,0-0.1,0-0.2
		c0-0.1,0-0.2,0-0.2c0-0.3-0.1-0.8-0.3-1.5c-0.1-0.2-0.2-0.5-0.3-0.9c-0.1-0.4-0.3-0.8-0.4-1.2c-0.2-0.5-0.4-1-0.6-1.6
		c-0.1-0.2-0.1-0.4-0.2-0.4c-0.1,0-0.3,0.1-0.6,0.3c-0.3,0.2-0.6,0.4-1,0.7c-0.4,0.3-0.7,0.5-1.1,0.8c-0.4,0.3-0.8,0.6-1.1,0.8
		c-0.3,0.3-0.6,0.5-0.9,0.6c-0.2,0.2-0.4,0.3-0.5,0.3c-0.2,0-0.4,0-0.6-0.2c-0.2-0.1-0.2-0.3-0.3-0.5c0-0.1,0.1-0.3,0.4-0.5
		c0.3-0.2,0.6-0.5,1-0.8c0.4-0.3,0.9-0.6,1.4-0.9c0.5-0.3,0.9-0.6,1.4-0.9c0.4-0.3,0.9-0.5,1.5-0.9c-0.2-0.8-0.4-1.5-0.6-2.2
		c-0.1-0.5-0.3-1.1-0.4-1.5c-0.1-0.5-0.2-0.7-0.2-0.7c0-0.2,0-0.4,0.1-0.5c0.1-0.1,0.2-0.2,0.3-0.2c0.2,0,0.3,0.1,0.4,0.4
		c0.3,1,0.5,1.8,0.8,2.5c0.2,0.7,0.5,1.3,0.7,1.8c0.2,0,0.4-0.2,0.8-0.4c0.4-0.2,0.8-0.4,1.2-0.7c0.4-0.2,0.8-0.4,1.1-0.6
		c0.3-0.2,0.5-0.3,0.6-0.3c0.1,0,0.2,0,0.2,0.1C169.7,106.4,169.7,106.5,169.7,106.6z"/>
	<path class="st2" d="M184.5,111.9c0,0.3-0.1,0.7-0.3,1.2c-0.3,0.5-0.6,1-1.1,1.5c-0.5,0.5-1,0.9-1.6,1.3c-0.6,0.4-1.3,0.6-2,0.7
		c-0.3,0-0.7,0-1-0.1c-0.4-0.1-0.7-0.2-1.1-0.4s-0.7-0.4-1-0.7c-0.3-0.3-0.5-0.6-0.7-1c-0.1,0.1-0.2,0.3-0.3,0.6
		c-0.1,0.3-0.3,0.5-0.4,0.8c-0.2,0.3-0.3,0.5-0.5,0.7c-0.2,0.2-0.4,0.3-0.6,0.3c-0.2,0-0.4-0.1-0.6-0.3c-0.2-0.2-0.3-0.5-0.4-0.8
		c-0.1-0.3-0.2-0.6-0.3-0.8c-0.1-0.3-0.1-0.4-0.1-0.5c0-0.2,0-0.6,0.1-1.2c0.1-0.6,0.2-1.3,0.4-1.9c0.2-0.7,0.5-1.3,0.8-1.8
		c0.3-0.5,0.8-0.8,1.3-0.9c0.2,0,0.3,0.1,0.4,0.2c0.1,0.2,0.1,0.3,0.1,0.5l0.1,0.8c0.1,0.1,0.2,0.1,0.3,0.1c0.1,0,0.2,0,0.3,0.1
		c0.1,0,0.2,0.1,0.2,0.2c0.1,0.1,0.1,0.2,0.1,0.4c0,0.1,0,0.2,0,0.3c0,0.1,0,0.2,0,0.3c0,0.5,0.1,0.9,0.2,1.4
		c0.1,0.4,0.3,0.8,0.5,1.2c0.2,0.3,0.6,0.6,1,0.8c0.4,0.2,0.9,0.3,1.5,0.2c0.8-0.1,1.4-0.3,2-0.7c0.5-0.4,0.9-0.8,1.3-1.2
		c0.3-0.4,0.6-0.8,0.8-1.2c0.2-0.3,0.4-0.5,0.5-0.5C184.4,111.5,184.5,111.6,184.5,111.9z M175,111.5c0-0.1,0-0.1-0.1-0.2
		c0-0.1-0.1-0.1-0.1-0.2c0-0.1,0-0.1,0-0.2c0-0.1,0-0.1,0-0.2c0-0.1,0-0.1-0.1-0.1c0,0-0.1-0.1-0.1-0.1c-0.2,0.1-0.3,0.2-0.5,0.5
		c-0.1,0.3-0.3,0.6-0.4,1c-0.1,0.4-0.2,0.7-0.3,1.1c-0.1,0.4-0.1,0.7-0.1,0.9c0,0.1,0.1,0.3,0.2,0.6c0.1,0.3,0.2,0.5,0.3,0.5
		c0.3-0.7,0.5-1.3,0.7-1.9C175,112.7,175,112.1,175,111.5z"/>
	<path class="st2" d="M186.9,115.6c0,0.1,0,0.2-0.1,0.3c-0.1,0.1-0.2,0.2-0.3,0.3c-0.1,0.1-0.3,0.2-0.4,0.2
		c-0.1,0.1-0.2,0.1-0.2,0.1c-0.2,0-0.3,0-0.4-0.1c-0.1-0.1-0.2-0.2-0.2-0.3c-0.1-0.1-0.1-0.2-0.1-0.3c0-0.1,0-0.2,0-0.2
		c0-0.1,0-0.2,0-0.3c0-0.1,0.1-0.2,0.1-0.4c0.1-0.1,0.1-0.2,0.2-0.3c0.1-0.1,0.2-0.1,0.3-0.2c0.2,0,0.5,0.1,0.7,0.2
		C186.8,115,186.9,115.3,186.9,115.6z"/>
</g>
<path class="st3" d="M174.6,246.2c5.6-6.4,14.6-18.6,19.8-36.4c2.6-9,7.2-24.5,2.6-43.2c-5.5-22.1-20.3-35.3-26.5-40.1"/>
<path class="st3" d="M183.5,245.6c-3.2,0.5-6.4,1-9.6,1.5c0-3.2-0.1-6.4-0.2-9.7"/>
</svg>
