<?xml version="1.0" encoding="utf-8"?>
<!-- Generator: Adobe Illustrator 22.1.0, SVG Export Plug-In . SVG Version: 6.00 Build 0)  -->
<svg version="1.1" id="Layer_1" xmlns="http://www.w3.org/2000/svg" xmlns:xlink="http://www.w3.org/1999/xlink" x="0px" y="0px"
	 viewBox="0 0 626.1 331.2" style="enable-background:new 0 0 626.1 331.2;" xml:space="preserve">
<style type="text/css">
	.st0{fill:#4FB848;}
	.st1{fill:#0F8442;}
	.st2{fill:#EB4B24;}
	.st3{fill:#F7AE26;}
	.st4{fill:#E971AB;}
	.st5{fill:#6AA7DA;}
	.st6{fill:#1760A9;}
	.st7{fill:#7B55A3;}
	.st8{fill:#ED1E84;}
	.st9{fill:#A11E5A;}
</style>
<g id="XMLID_685_">
	<polygon id="XMLID_686_" class="st0" points="619.2,217.9 517.4,115.5 415.6,217.9 	"/>
	<polygon id="XMLID_687_" class="st1" points="619.2,217.9 415.6,217.9 517.4,319.7 	"/>
	<polygon id="XMLID_688_" class="st2" points="517.4,115.5 313.7,116.5 415.6,217.9 	"/>
	<polygon id="XMLID_689_" class="st3" points="415.6,14.2 517.4,115.5 313.7,116.5 	"/>
	<polygon id="XMLID_696_" class="st4" points="313.7,116.5 415.6,217.9 211.9,217.9 	"/>
	<polygon id="XMLID_698_" class="st5" points="211.9,14.2 313.7,116.5 110.1,117.3 	"/>
	<polygon id="XMLID_699_" class="st6" points="313.7,116.5 211.9,217.9 110.1,117.3 	"/>
	<polygon id="XMLID_700_" class="st7" points="415.6,217.9 313.7,319.7 211.9,217.9 	"/>
	<polygon id="XMLID_701_" class="st8" points="110.1,117.3 211.9,217.9 8.2,217.9 	"/>
	<polygon id="XMLID_702_" class="st9" points="110.1,319.7 211.9,217.9 8.2,217.9 	"/>
</g>
</svg>
