<?xml version="1.0" encoding="utf-8"?>
<!-- Generator: Adobe Illustrator 22.1.0, SVG Export Plug-In . SVG Version: 6.00 Build 0)  -->
<svg version="1.1" id="Layer_1" xmlns="http://www.w3.org/2000/svg" xmlns:xlink="http://www.w3.org/1999/xlink" x="0px" y="0px"
	 viewBox="0 0 250 250" style="enable-background:new 0 0 250 250;" xml:space="preserve">
<style type="text/css">
	.st0{fill:none;}
	.st1{enable-background:new    ;}
	.st2{fill:#1D3766;}
	.st3{fill:none;stroke:#1D3766;stroke-linecap:round;stroke-linejoin:round;stroke-miterlimit:10;}
</style>
<rect x="32.2" y="0.8" transform="matrix(0.9962 -8.715528e-02 8.715528e-02 0.9962 -8.0422 8.8084)" class="st0" width="129.3" height="191.4"/>
<g class="st1">
	<path class="st2" d="M67.7,18.4c0.1,0.8,0,1.5-0.3,1.9c-0.2,0.5-0.6,0.9-1.2,1.4c-0.1,0.1-0.3,0.2-0.6,0.4
		c-0.2,0.1-0.5,0.3-0.8,0.4c-0.3,0.1-0.6,0.3-0.9,0.4C63.6,23,63.3,23,63,23.1c-0.8,0.1-1.4,0-1.9-0.1c-0.4-0.1-0.7-0.3-0.7-0.6
		c0-0.3,0-0.5,0.2-0.6c0.1-0.2,0.2-0.3,0.4-0.3l0.3,0.2c0.1,0.1,0.2,0.2,0.4,0.2c0.2,0.1,0.4,0.1,0.8,0.1c0.3,0,0.7-0.1,1.2-0.3
		c0.5-0.2,0.9-0.4,1.3-0.7c0.4-0.3,0.8-0.6,1.1-1c0.3-0.4,0.4-0.8,0.4-1.3c0-0.4-0.4-0.8-1-1.1c-0.6-0.3-1.6-0.4-3-0.5
		c-0.7,0-1.4,0-2-0.1c-0.7-0.1-1.3-0.2-1.8-0.3c-0.5-0.2-1-0.4-1.3-0.7c-0.3-0.3-0.5-0.7-0.6-1.1c0-0.4,0-0.9,0.3-1.3
		c0.2-0.4,0.5-0.8,0.8-1.2c0.3-0.4,0.7-0.7,1.1-1c0.4-0.3,0.7-0.6,0.9-0.8c0.2-0.1,0.5-0.3,0.9-0.6c0.4-0.2,0.8-0.5,1.2-0.7
		s0.8-0.4,1.3-0.6c0.4-0.2,0.8-0.3,1.1-0.3c0.4,0,0.6,0,0.8,0.2c0.1,0.2,0.2,0.5,0.3,0.8c0,0.3,0,0.6,0,1c0,0.3-0.1,0.7-0.2,1
		c-0.1,0.3-0.1,0.6-0.2,0.9c-0.1,0.2-0.1,0.4-0.1,0.5c-0.1,0.2-0.1,0.3-0.2,0.3s-0.1,0.1-0.2,0.1c-0.1,0-0.1,0-0.1-0.1
		c0-0.1,0-0.2,0-0.3c0-0.2,0-0.3,0.1-0.6c0-0.2,0-0.5,0-0.7c0-0.3,0-0.5,0-0.8c0-0.4-0.1-0.7-0.1-0.9c-0.1-0.2-0.2-0.3-0.5-0.2
		s-0.6,0.1-1,0.3c-0.4,0.2-0.8,0.4-1.3,0.6c-0.5,0.3-0.9,0.6-1.3,1c-0.4,0.4-0.8,0.8-1.1,1.2c-0.3,0.4-0.6,0.8-0.8,1.1
		c-0.2,0.4-0.3,0.6-0.3,0.8c0,0.2,0.2,0.4,0.5,0.6c0.3,0.2,0.7,0.3,1.2,0.4c0.5,0.1,1,0.2,1.6,0.2c0.6,0.1,1.1,0.1,1.7,0.1
		c0.5,0,1,0,1.5,0.1c0.5,0,1.1,0.1,1.5,0.3c0.5,0.2,0.9,0.4,1.3,0.7S67.6,17.9,67.7,18.4z"/>
	<path class="st2" d="M76.7,18.7c0,0,0,0.1,0,0.2c0,0.1-0.1,0.3-0.2,0.5c0,0.1-0.2,0.2-0.3,0.4c-0.2,0.2-0.4,0.4-0.7,0.5
		c-0.3,0.2-0.7,0.4-1.1,0.5c-0.4,0.2-0.9,0.3-1.5,0.3c-0.4,0-0.8,0-1.2-0.2c-0.4-0.2-0.8-0.4-1.1-0.7c-0.3-0.3-0.6-0.8-0.9-1.3
		c-0.2-0.5-0.4-1.2-0.5-1.9c-0.1-0.7,0-1.4,0.1-2c0.1-0.6,0.3-1.2,0.5-1.7c0.2-0.5,0.5-0.9,0.8-1.2c0.3-0.3,0.6-0.5,1-0.5
		c0.3,0,0.6,0,0.9,0.1c0.3,0.1,0.6,0.2,0.8,0.4c0.3,0.2,0.5,0.3,0.6,0.6c0.2,0.2,0.3,0.4,0.3,0.7c0,0.3-0.1,0.6-0.3,0.9
		c-0.2,0.3-0.5,0.6-0.8,0.9c-0.3,0.3-0.6,0.5-1,0.7c-0.3,0.2-0.6,0.3-0.8,0.3c-0.1,0-0.2,0-0.3-0.1c-0.1-0.1-0.1-0.2-0.2-0.4
		c0-0.2,0.1-0.5,0.3-0.6c0.2-0.2,0.4-0.3,0.7-0.5c0.3-0.1,0.5-0.3,0.7-0.5s0.3-0.4,0.3-0.7c0,0-0.1-0.1-0.2-0.3s-0.4-0.2-0.7-0.2
		c-0.2,0-0.4,0.1-0.6,0.4c-0.2,0.2-0.4,0.5-0.6,0.9c-0.2,0.4-0.3,0.8-0.4,1.3c-0.1,0.5-0.1,1-0.1,1.6c0,0.5,0.2,0.9,0.4,1.2
		c0.2,0.4,0.5,0.7,0.7,0.9c0.3,0.2,0.6,0.4,1,0.5c0.4,0.1,0.7,0.2,1.1,0.1c0.3,0,0.6-0.1,0.9-0.3c0.3-0.1,0.6-0.3,0.9-0.5
		c0.3-0.2,0.5-0.3,0.7-0.4c0.2-0.1,0.3-0.2,0.4-0.2c0.1,0,0.1,0,0.2,0.1C76.7,18.6,76.7,18.6,76.7,18.7z"/>
	<path class="st2" d="M86.1,17.9c0,0,0,0.1,0,0.2c0,0.1-0.1,0.3-0.2,0.5c0,0.1-0.2,0.2-0.3,0.4c-0.2,0.2-0.4,0.4-0.7,0.5
		c-0.3,0.2-0.7,0.4-1.1,0.5c-0.4,0.2-0.9,0.3-1.5,0.3c-0.4,0-0.8,0-1.2-0.2c-0.4-0.2-0.8-0.4-1.1-0.7c-0.3-0.3-0.6-0.8-0.9-1.3
		c-0.2-0.5-0.4-1.2-0.5-1.9c-0.1-0.7,0-1.4,0.1-2c0.1-0.6,0.3-1.2,0.5-1.7c0.2-0.5,0.5-0.9,0.8-1.2c0.3-0.3,0.6-0.5,1-0.5
		c0.3,0,0.6,0,0.9,0.1c0.3,0.1,0.6,0.2,0.8,0.4c0.3,0.2,0.5,0.3,0.6,0.6c0.2,0.2,0.3,0.4,0.3,0.7c0,0.3-0.1,0.6-0.3,0.9
		c-0.2,0.3-0.5,0.6-0.8,0.9c-0.3,0.3-0.6,0.5-1,0.7c-0.3,0.2-0.6,0.3-0.8,0.3c-0.1,0-0.2,0-0.3-0.1c-0.1-0.1-0.1-0.2-0.2-0.4
		c0-0.2,0.1-0.5,0.3-0.6c0.2-0.2,0.4-0.3,0.7-0.5c0.3-0.1,0.5-0.3,0.7-0.5s0.3-0.4,0.3-0.7c0,0-0.1-0.1-0.2-0.3
		c-0.1-0.1-0.3-0.2-0.7-0.2c-0.2,0-0.4,0.1-0.6,0.4c-0.2,0.2-0.4,0.5-0.6,0.9c-0.2,0.4-0.3,0.8-0.4,1.3c-0.1,0.5-0.1,1-0.1,1.6
		c0,0.5,0.2,0.9,0.4,1.2c0.2,0.4,0.5,0.7,0.7,0.9c0.3,0.2,0.6,0.4,1,0.5c0.4,0.1,0.7,0.2,1.1,0.1c0.3,0,0.6-0.1,0.9-0.3
		c0.3-0.1,0.6-0.3,0.9-0.5c0.3-0.2,0.5-0.3,0.7-0.4c0.2-0.1,0.3-0.2,0.4-0.2c0.1,0,0.1,0,0.2,0.1C86,17.8,86.1,17.8,86.1,17.9z"/>
	<path class="st2" d="M103.7,13.3c0,0.4,0,0.8-0.1,1.1c-0.1,0.4-0.2,0.7-0.3,1c-0.2,0.3-0.3,0.5-0.6,0.7c-0.2,0.2-0.5,0.3-0.8,0.3
		c-0.5,0-0.9-0.1-1.2-0.3c-0.3-0.3-0.6-0.6-0.7-0.9c-0.2-0.4-0.3-0.7-0.4-1.1c-0.1-0.4-0.1-0.7-0.1-0.9c0-0.3,0-0.7,0.1-1.1
		c0.1-0.4,0.2-0.8,0.3-1.2c0.1-0.4,0.3-0.7,0.5-0.9c0.2-0.3,0.4-0.4,0.6-0.4c0.1,0,0.1,0,0.3,0c0.1,0,0.2,0.1,0.4,0.1
		c0.1,0.1,0.3,0.1,0.4,0.2c0.1,0.1,0.2,0.2,0.2,0.4c0.2,0,0.4,0.1,0.6,0.2c0.2,0.1,0.3,0.2,0.3,0.3c0.2,0.5,0.3,0.9,0.4,1.4
		C103.6,12.6,103.7,13,103.7,13.3z M102.5,13c0-0.3-0.1-0.5-0.2-0.8c-0.1-0.3-0.2-0.6-0.4-0.9c0,0-0.1,0-0.1,0c-0.1,0-0.1,0-0.2,0
		c0,0-0.1,0-0.1,0c-0.2,0-0.4,0.1-0.5,0.2s-0.2,0.3-0.2,0.5c0,0.2-0.1,0.4-0.1,0.6c0,0.2,0,0.4,0,0.6c0,0.2,0,0.4,0.1,0.7
		s0.1,0.5,0.2,0.7c0.1,0.2,0.2,0.4,0.3,0.5c0.1,0.1,0.3,0.2,0.5,0.2c0.2,0,0.3-0.1,0.4-0.3c0.1-0.2,0.2-0.4,0.2-0.7s0.1-0.5,0.1-0.8
		C102.5,13.2,102.5,13.1,102.5,13z"/>
	<path class="st2" d="M115.4,13.7c0,0.2-0.1,0.3-0.3,0.5c-0.2,0.2-0.4,0.4-0.7,0.6c-0.3,0.2-0.6,0.3-0.8,0.5
		c-0.3,0.1-0.5,0.2-0.6,0.2c-0.2,0-0.3,0-0.5-0.1c-0.2-0.1-0.4-0.2-0.6-0.3c-0.2-0.1-0.3-0.2-0.5-0.3s-0.2-0.2-0.3-0.2
		c0,0.1-0.1,0.2-0.2,0.3c-0.1,0.2-0.2,0.4-0.3,0.6c-0.1,0.2-0.3,0.4-0.4,0.5c-0.2,0.2-0.3,0.2-0.5,0.3c-0.5,0-0.9-0.2-1.3-0.6
		c-0.4-0.5-0.7-1-1-1.6s-0.5-1.2-0.7-1.8s-0.3-1-0.3-1.2c0-0.1,0-0.2,0.2-0.3c0.1-0.1,0.2-0.1,0.3-0.1c0.3,0,0.4,0,0.5,0.2
		c0.1,0.2,0.2,0.3,0.2,0.5c0,0.2,0.1,0.4,0.2,0.8c0.1,0.4,0.3,0.8,0.5,1.2c0.2,0.4,0.4,0.8,0.6,1.1c0.2,0.3,0.3,0.5,0.5,0.5
		c0.2,0,0.4-0.2,0.6-0.5c0.1-0.3,0.3-0.7,0.3-1.1c0.1-0.4,0.1-0.8,0.1-1.1c0-0.4,0-0.6,0-0.7c0,0,0-0.1,0-0.2c0-0.1,0-0.2,0-0.3
		c0-0.1,0-0.2,0-0.3c0-0.1,0-0.2,0-0.2c0-0.1,0-0.2-0.1-0.2c-0.1,0-0.1-0.1-0.1-0.3c0-0.1,0-0.2,0.1-0.3c0.1-0.1,0.3-0.2,0.7-0.2
		c0.1,0,0.3,0,0.3,0.1c0.1,0.1,0.2,0.2,0.2,0.3c0,0.1,0.1,0.2,0.1,0.3c0,0.1,0,0.2,0,0.2c0,0,0,0.1,0,0.4c0,0.2,0,0.5,0,0.8
		c0,0.3,0,0.5,0,0.8s0,0.4,0,0.5c0,0.1,0,0.2,0.1,0.3c0.1,0.2,0.1,0.3,0.2,0.5c0.1,0.2,0.2,0.3,0.3,0.4c0.1,0.1,0.2,0.2,0.4,0.2
		c0.2,0,0.4-0.1,0.6-0.1c0.2-0.1,0.4-0.2,0.5-0.3c0.2-0.1,0.3-0.2,0.5-0.3c0.1-0.1,0.3-0.1,0.4-0.1c0.2,0,0.3,0,0.5,0.1
		C115.3,13.5,115.4,13.6,115.4,13.7z"/>
	<path class="st2" d="M122.5,9.3c0,0.1,0,0.2-0.1,0.3c-0.1,0.1-0.2,0.2-0.4,0.2c-0.1,0.1-0.3,0.1-0.4,0.2s-0.3,0.1-0.3,0.1
		c-0.3,0-0.4,0-0.5,0c-0.1,0-0.2,0-0.2,0c-0.4,0-0.8,0.1-1.1,0.2c-0.3,0.1-0.5,0.2-0.6,0.4c-0.1,0.2-0.2,0.4-0.2,0.6s0,0.5,0,0.9
		c0.1,0.6,0.1,1,0.2,1.4c0.1,0.3,0.1,0.6,0.2,0.8c0.1,0.2,0.1,0.4,0.2,0.5c0.1,0.1,0.1,0.2,0.1,0.3c0,0.1-0.1,0.3-0.2,0.5
		c-0.1,0.2-0.3,0.3-0.4,0.3c-0.2,0-0.4-0.2-0.6-0.5c-0.2-0.4-0.4-0.8-0.6-1.3c-0.2-0.5-0.3-1-0.4-1.5c-0.1-0.5-0.2-0.9-0.2-1.2
		c0-0.3,0-0.6,0-0.9c0-0.3,0.1-0.5,0.2-0.7c0.1-0.2,0.2-0.4,0.3-0.5c0.1-0.1,0.2-0.2,0.3-0.2c0.1,0,0.2,0,0.2,0.1
		c0.1,0.1,0.1,0.1,0.2,0.2c0,0.1,0.1,0.1,0.1,0.2c0,0.1,0.1,0.1,0.2,0.1c0.2,0,0.4-0.1,0.8-0.3c0.3-0.2,0.8-0.3,1.3-0.4
		c0.5,0,0.8-0.1,1.1-0.1c0.2,0,0.5,0,0.7,0.1c0.1,0,0.1,0,0.2,0.1C122.4,9.1,122.5,9.2,122.5,9.3z"/>
</g>
<g class="st1">
	<path class="st2" d="M50.6,41.3c0,0.3-0.1,0.7-0.3,1.2c-0.3,0.5-0.6,1-1.1,1.5s-1,0.9-1.6,1.3c-0.6,0.4-1.3,0.6-2,0.7
		c-0.3,0-0.7,0-1-0.1s-0.7-0.2-1.1-0.4c-0.4-0.2-0.7-0.4-1-0.7c-0.3-0.3-0.5-0.6-0.7-1c-0.1,0.1-0.2,0.3-0.3,0.6
		c-0.1,0.3-0.3,0.5-0.4,0.8s-0.3,0.5-0.5,0.7c-0.2,0.2-0.4,0.3-0.6,0.3c-0.2,0-0.4-0.1-0.6-0.3s-0.3-0.5-0.4-0.8
		c-0.1-0.3-0.2-0.6-0.3-0.8c-0.1-0.3-0.1-0.4-0.1-0.5c0-0.2,0-0.6,0.1-1.2c0.1-0.6,0.2-1.3,0.4-1.9s0.5-1.3,0.8-1.8
		c0.3-0.5,0.8-0.8,1.3-0.9c0.2,0,0.3,0.1,0.4,0.2c0.1,0.2,0.1,0.3,0.1,0.5l0.1,0.8c0.1,0.1,0.2,0.1,0.3,0.1c0.1,0,0.2,0,0.3,0.1
		c0.1,0,0.2,0.1,0.2,0.2c0.1,0.1,0.1,0.2,0.1,0.4c0,0.1,0,0.2,0,0.3c0,0.1,0,0.2,0,0.3c0,0.5,0.1,0.9,0.2,1.4
		c0.1,0.4,0.3,0.8,0.5,1.2s0.6,0.6,1,0.8c0.4,0.2,0.9,0.3,1.5,0.2c0.8-0.1,1.4-0.3,2-0.7c0.5-0.4,0.9-0.8,1.3-1.2
		c0.3-0.4,0.6-0.8,0.8-1.2c0.2-0.4,0.3-0.5,0.5-0.5C50.5,40.9,50.6,41.1,50.6,41.3z M41.1,40.9c0-0.1,0-0.1-0.1-0.2
		c0-0.1-0.1-0.1-0.1-0.2c0-0.1,0-0.1,0-0.2c0-0.1,0-0.1,0-0.2c0-0.1,0-0.1-0.1-0.1c0,0-0.1-0.1-0.1-0.1c-0.2,0.1-0.3,0.2-0.5,0.5
		c-0.1,0.3-0.3,0.6-0.4,1c-0.1,0.4-0.2,0.7-0.3,1.1c-0.1,0.4-0.1,0.7-0.1,0.9c0,0.1,0.1,0.3,0.2,0.6c0.1,0.3,0.2,0.5,0.3,0.5
		c0.2-0.7,0.5-1.3,0.7-1.9C41,42.1,41.1,41.5,41.1,40.9z"/>
	<path class="st2" d="M59.4,38.3c0,0.5-0.1,0.9-0.3,1.4c-0.2,0.5-0.5,0.9-0.9,1.3c-0.3,0.4-0.7,0.8-1.1,1.1
		c-0.4,0.4-0.8,0.7-1.2,0.9c-0.3,0.3-0.6,0.5-0.8,0.7c-0.2,0.2-0.3,0.3-0.3,0.4c0,0.2,0.1,0.6,0.2,1c0.1,0.4,0.2,0.9,0.3,1.4
		c0.1,0.5,0.2,1,0.4,1.5c0.1,0.5,0.2,1,0.3,1.4c0,0,0,0.1,0.1,0.2s0.1,0.3,0.1,0.5c0.1,0.2,0.1,0.3,0.2,0.5c0,0.1,0.1,0.2,0.1,0.3
		c0,0.1,0,0.3,0,0.4c0,0.2,0,0.3,0,0.4c0,0.1-0.1,0.3-0.2,0.4c-0.1,0.1-0.2,0.2-0.3,0.2c-0.2,0-0.3-0.1-0.5-0.2
		c-0.1-0.2-0.2-0.3-0.2-0.5c0,0,0-0.1,0-0.1c0,0,0-0.1,0-0.1c0-0.2-0.1-0.7-0.4-1.6c-0.2-0.8-0.5-1.9-0.8-3
		c-0.3-1.2-0.6-2.4-0.8-3.8c-0.3-1.4-0.4-2.6-0.6-3.9c0-0.1,0-0.2,0-0.3c0-0.1,0-0.2,0-0.3c-0.2,0-0.4,0.1-0.8,0.3
		c-0.3,0.2-0.7,0.4-1,0.6c-0.3,0.2-0.6,0.5-0.8,0.7c-0.2,0.2-0.4,0.5-0.3,0.6l-0.2,0c-0.1,0-0.1,0-0.2-0.1c-0.1-0.1-0.2-0.1-0.2-0.2
		c-0.1-0.1-0.1-0.2-0.2-0.3c-0.1-0.1-0.1-0.1-0.1-0.2c0-0.4,0.2-0.8,0.6-1.1c0.4-0.4,1-0.7,1.6-1c0.6-0.3,1.4-0.6,2.2-0.8
		c0.8-0.2,1.5-0.4,2.3-0.4c0.7-0.1,1.3,0,1.8,0.1c0.5,0.1,0.9,0.3,1.2,0.5c0.3,0.2,0.5,0.4,0.7,0.6C59.3,38,59.4,38.2,59.4,38.3z
		 M58,38.4c0-0.2-0.3-0.3-0.7-0.5c-0.5-0.1-1-0.2-1.6-0.1c-0.5,0-0.9,0.1-1.2,0.2C54.3,37.9,54.1,38,54,38c0,0.3,0,0.6,0,1
		c0,0.4,0,0.8,0.1,1.2c0,0.4,0.1,0.8,0.1,1.2c0.1,0.4,0.1,0.7,0.2,1c0.2-0.2,0.6-0.4,1-0.8c0.4-0.3,0.8-0.7,1.2-1.1
		c0.4-0.4,0.7-0.8,1-1.2C57.9,39.1,58.1,38.7,58,38.4z"/>
	<path class="st2" d="M69.5,37.4c0,0.5,0,0.9-0.3,1.4c-0.2,0.5-0.5,0.9-0.8,1.3c-0.3,0.4-0.7,0.8-1.1,1.1c-0.4,0.4-0.8,0.7-1.2,0.9
		c-0.3,0.3-0.6,0.5-0.8,0.7c-0.2,0.2-0.3,0.3-0.3,0.4c0,0.2,0.1,0.6,0.2,1c0.1,0.4,0.2,0.9,0.3,1.4c0.1,0.5,0.2,1,0.4,1.5
		c0.1,0.5,0.2,1,0.3,1.4c0,0,0,0.1,0.1,0.2c0,0.1,0.1,0.3,0.1,0.5c0.1,0.2,0.1,0.3,0.2,0.5c0,0.1,0.1,0.2,0.1,0.3c0,0.1,0,0.3,0,0.4
		c0,0.2,0,0.3,0,0.4c0,0.1-0.1,0.3-0.2,0.4c-0.1,0.1-0.2,0.2-0.3,0.2c-0.2,0-0.3-0.1-0.5-0.2c-0.1-0.2-0.2-0.3-0.2-0.5
		c0,0,0-0.1,0-0.1s0-0.1,0-0.1c0-0.2-0.1-0.7-0.4-1.6c-0.2-0.8-0.5-1.9-0.8-3c-0.3-1.2-0.6-2.4-0.8-3.8c-0.3-1.4-0.4-2.6-0.6-3.9
		c0-0.1,0-0.2,0-0.3c0-0.1,0-0.2,0-0.3c-0.2,0-0.4,0.1-0.8,0.3c-0.3,0.2-0.7,0.4-1,0.6c-0.3,0.2-0.6,0.5-0.8,0.7
		c-0.2,0.2-0.4,0.5-0.3,0.6l-0.2,0c-0.1,0-0.1,0-0.2-0.1c-0.1-0.1-0.2-0.1-0.2-0.2c-0.1-0.1-0.1-0.2-0.2-0.3
		C59,39.2,59,39.1,59,39.1c0-0.4,0.2-0.8,0.6-1.1c0.4-0.4,1-0.7,1.6-1c0.6-0.3,1.4-0.6,2.2-0.8c0.8-0.2,1.5-0.4,2.3-0.4
		c0.7-0.1,1.3,0,1.8,0.1c0.5,0.1,0.9,0.3,1.2,0.5c0.3,0.2,0.5,0.4,0.7,0.6C69.4,37.1,69.5,37.3,69.5,37.4z M68.2,37.5
		c0-0.2-0.3-0.3-0.7-0.5c-0.5-0.1-1-0.2-1.6-0.1c-0.5,0-0.9,0.1-1.2,0.2c-0.2,0.1-0.4,0.1-0.5,0.2c0,0.3,0,0.6,0,1
		c0,0.4,0,0.8,0.1,1.2c0,0.4,0.1,0.8,0.2,1.2c0.1,0.4,0.1,0.7,0.2,1c0.2-0.2,0.6-0.4,1-0.8c0.4-0.3,0.8-0.7,1.2-1.1
		c0.4-0.4,0.7-0.8,1-1.2C68.1,38.2,68.2,37.8,68.2,37.5z"/>
	<path class="st2" d="M77.3,36.3c0,0.1,0,0.2-0.1,0.3c-0.1,0.1-0.2,0.2-0.4,0.2c-0.1,0.1-0.3,0.1-0.4,0.2s-0.3,0.1-0.3,0.1
		c-0.3,0-0.4,0-0.5,0c-0.1,0-0.2,0-0.2,0c-0.4,0-0.8,0.1-1.1,0.2c-0.3,0.1-0.5,0.2-0.6,0.4c-0.1,0.2-0.2,0.4-0.2,0.6s0,0.5,0,0.9
		c0.1,0.6,0.1,1,0.2,1.4c0.1,0.3,0.1,0.6,0.2,0.8c0.1,0.2,0.1,0.4,0.2,0.5c0.1,0.1,0.1,0.2,0.1,0.3c0,0.1-0.1,0.3-0.2,0.5
		c-0.1,0.2-0.3,0.3-0.4,0.3c-0.2,0-0.4-0.2-0.6-0.5c-0.2-0.4-0.4-0.8-0.6-1.3c-0.2-0.5-0.3-1-0.4-1.5c-0.1-0.5-0.2-0.9-0.2-1.2
		c0-0.3,0-0.6,0-0.9s0.1-0.5,0.2-0.7c0.1-0.2,0.2-0.4,0.3-0.5c0.1-0.1,0.2-0.2,0.3-0.2c0.1,0,0.2,0,0.2,0.1c0.1,0.1,0.1,0.1,0.2,0.2
		c0,0.1,0.1,0.1,0.1,0.2s0.1,0.1,0.2,0.1c0.2,0,0.4-0.1,0.8-0.3c0.3-0.2,0.8-0.3,1.3-0.4c0.5,0,0.8-0.1,1.1-0.1c0.2,0,0.5,0,0.7,0.1
		c0.1,0,0.1,0,0.2,0.1C77.3,36.1,77.3,36.2,77.3,36.3z"/>
	<path class="st2" d="M84.5,38.1c0,0.4,0,0.8-0.1,1.1c-0.1,0.4-0.2,0.7-0.3,1c-0.2,0.3-0.3,0.5-0.6,0.7c-0.2,0.2-0.5,0.3-0.8,0.3
		c-0.5,0-0.9-0.1-1.2-0.3c-0.3-0.3-0.6-0.6-0.7-0.9c-0.2-0.4-0.3-0.7-0.4-1.1c-0.1-0.4-0.1-0.7-0.1-0.9c0-0.3,0-0.7,0.1-1.1
		c0.1-0.4,0.2-0.8,0.3-1.2s0.3-0.7,0.5-0.9c0.2-0.3,0.4-0.4,0.6-0.4c0.1,0,0.1,0,0.3,0c0.1,0,0.2,0.1,0.4,0.1
		c0.1,0.1,0.3,0.1,0.4,0.2c0.1,0.1,0.2,0.2,0.2,0.4c0.2,0,0.4,0.1,0.6,0.2c0.2,0.1,0.3,0.2,0.3,0.3c0.2,0.5,0.3,0.9,0.4,1.4
		C84.4,37.4,84.5,37.8,84.5,38.1z M83.2,37.7c0-0.3-0.1-0.5-0.2-0.8c-0.1-0.3-0.2-0.6-0.4-0.9c0,0-0.1,0-0.1,0c-0.1,0-0.1,0-0.2,0
		c0,0-0.1,0-0.1,0c-0.2,0-0.4,0.1-0.5,0.2c-0.1,0.1-0.2,0.3-0.2,0.5c0,0.2-0.1,0.4-0.1,0.6c0,0.2,0,0.4,0,0.6c0,0.2,0,0.4,0.1,0.7
		c0,0.2,0.1,0.5,0.2,0.7c0.1,0.2,0.2,0.4,0.3,0.5c0.1,0.1,0.3,0.2,0.5,0.2c0.2,0,0.3-0.1,0.4-0.3c0.1-0.2,0.2-0.4,0.2-0.7
		c0-0.3,0.1-0.5,0.1-0.8C83.3,38,83.3,37.8,83.2,37.7z"/>
	<path class="st2" d="M100,37c0,0.3-0.1,0.7-0.3,1.2c-0.3,0.5-0.6,1-1.1,1.5s-1,0.9-1.6,1.3c-0.6,0.4-1.3,0.6-2,0.7
		c-0.3,0-0.7,0-1-0.1c-0.4-0.1-0.7-0.2-1.1-0.4c-0.4-0.2-0.7-0.4-1-0.7c-0.3-0.3-0.5-0.6-0.7-1c-0.1,0.1-0.2,0.3-0.3,0.6
		c-0.1,0.3-0.3,0.5-0.4,0.8c-0.2,0.3-0.3,0.5-0.5,0.7c-0.2,0.2-0.4,0.3-0.6,0.3c-0.2,0-0.4-0.1-0.6-0.3c-0.2-0.2-0.3-0.5-0.4-0.8
		c-0.1-0.3-0.2-0.6-0.3-0.8c-0.1-0.3-0.1-0.4-0.1-0.5c0-0.2,0-0.6,0.1-1.2c0.1-0.6,0.2-1.3,0.4-1.9s0.5-1.3,0.8-1.8
		c0.3-0.5,0.8-0.8,1.3-0.9c0.2,0,0.3,0.1,0.4,0.2c0.1,0.2,0.1,0.3,0.1,0.5l0.1,0.8c0.1,0.1,0.2,0.1,0.3,0.1c0.1,0,0.2,0,0.3,0.1
		c0.1,0,0.2,0.1,0.2,0.2c0.1,0.1,0.1,0.2,0.1,0.4c0,0.1,0,0.2,0,0.3c0,0.1,0,0.2,0,0.3c0,0.5,0.1,0.9,0.2,1.4
		c0.1,0.4,0.3,0.8,0.5,1.2c0.2,0.3,0.6,0.6,1,0.8c0.4,0.2,0.9,0.3,1.5,0.2c0.8-0.1,1.4-0.3,2-0.7c0.5-0.4,0.9-0.8,1.3-1.2
		c0.3-0.4,0.6-0.8,0.8-1.2c0.2-0.4,0.3-0.5,0.5-0.5C99.9,36.6,100,36.7,100,37z M90.5,36.6c0-0.1,0-0.1-0.1-0.2
		c0-0.1-0.1-0.1-0.1-0.2c0-0.1,0-0.1,0-0.2c0-0.1,0-0.1,0-0.2c0-0.1,0-0.1-0.1-0.1c0,0-0.1-0.1-0.1-0.1c-0.2,0.1-0.3,0.2-0.5,0.5
		c-0.1,0.3-0.3,0.6-0.4,1s-0.2,0.7-0.3,1.1c-0.1,0.4-0.1,0.7-0.1,0.9c0,0.1,0.1,0.3,0.2,0.6c0.1,0.3,0.2,0.5,0.3,0.5
		c0.2-0.7,0.5-1.3,0.7-1.9C90.4,37.8,90.5,37.2,90.5,36.6z"/>
	<path class="st2" d="M108.1,37c0,0.2,0,0.4,0,0.6c0,0.2-0.1,0.4-0.1,0.5c0,0.1-0.2,0.3-0.4,0.6s-0.6,0.7-1,1.1
		c-0.4,0.4-0.9,0.7-1.4,1.1c-0.5,0.3-1,0.5-1.5,0.6c-0.3,0-0.6,0-0.9-0.1c-0.3-0.1-0.6-0.2-0.9-0.4s-0.5-0.5-0.7-0.8
		c-0.2-0.3-0.3-0.8-0.4-1.3c-0.1-0.9,0-1.7,0.2-2.4c0.2-0.7,0.5-1.3,0.7-1.7c0.1-0.2,0.3-0.4,0.4-0.6c0.2-0.2,0.4-0.4,0.6-0.6
		c0.2-0.2,0.4-0.3,0.5-0.5c0.2-0.1,0.3-0.2,0.3-0.2c0.2,0,0.3,0,0.5,0.1s0.2,0.2,0.2,0.3c0,0.1,0,0.3-0.1,0.4
		c-0.1,0.1-0.2,0.2-0.3,0.4c-0.1,0.1-0.3,0.3-0.5,0.5c-0.2,0.2-0.4,0.5-0.6,0.8c-0.4,0.6-0.6,1.3-0.8,1.9c-0.2,0.6-0.2,1.2-0.2,1.7
		c0,0.5,0.2,0.8,0.6,1.1c0.4,0.2,0.7,0.4,1.1,0.3c0.7-0.1,1.3-0.3,1.8-0.6c0.5-0.4,0.9-0.7,1.3-1.1c0.3-0.4,0.6-0.8,0.8-1.1
		c0.2-0.3,0.4-0.5,0.5-0.5C108,36.5,108.1,36.6,108.1,37z"/>
	<path class="st2" d="M118.9,35.9c0.1,0.1,0.1,0.1,0.1,0.2c0,0,0,0.1-0.1,0.3c-0.1,0.2-0.2,0.4-0.3,0.6c-0.1,0.2-0.3,0.4-0.5,0.6
		c-0.2,0.2-0.4,0.3-0.5,0.3c-0.4,0-0.7,0-0.9-0.1c-0.2-0.1-0.5-0.3-0.6-0.5c-0.2-0.2-0.3-0.5-0.4-0.7c-0.1-0.3-0.2-0.5-0.3-0.8
		c0-0.1-0.1-0.2-0.1-0.2c-0.1,0-0.1,0.2-0.3,0.6s-0.3,0.8-0.4,1.3c-0.1,0.5-0.3,0.9-0.4,1.3c-0.1,0.4-0.2,0.6-0.3,0.6
		c-0.3,0-0.6-0.1-0.9-0.3c-0.2-0.3-0.5-0.6-0.6-0.9c-0.2-0.4-0.3-0.7-0.4-1.1c-0.1-0.4-0.2-0.7-0.2-0.9c-0.1-0.5-0.3-1.3-0.6-2.4
		c-0.3-1.1-0.6-2.5-0.8-4.1c-0.1-0.3-0.1-0.6-0.2-0.9c-0.1-0.3-0.1-0.6-0.2-0.9c-0.1-0.3-0.2-0.7-0.2-1.1c-0.1-0.4-0.1-1-0.2-1.6
		c0,0,0-0.2,0-0.4c0-0.2,0-0.4,0-0.7c0-0.2,0.1-0.4,0.1-0.6c0.1-0.2,0.2-0.3,0.3-0.3c0.1,0,0.2,0.1,0.4,0.2c0.1,0.1,0.2,0.3,0.3,0.5
		c0.1,0.2,0.2,0.4,0.2,0.6c0.1,0.2,0.1,0.3,0.1,0.4c0,0.3,0,0.5,0,0.8c0,0.2,0,0.5,0,0.7c0,0.3,0.1,0.6,0.2,1
		c0.1,0.4,0.2,0.8,0.3,1.2c0.1,0.4,0.2,0.8,0.3,1.2c0.1,0.4,0.2,0.7,0.2,1c0,0,0,0.1,0.1,0.4c0.1,0.2,0.1,0.5,0.2,0.9
		s0.2,0.7,0.2,1.1c0.1,0.4,0.2,0.8,0.3,1.2c0.1,0.4,0.2,0.7,0.2,1c0.1,0.3,0.1,0.5,0.1,0.6c0,0.1,0,0.1,0.1,0.2
		c0,0.1,0.1,0.2,0.1,0.3c0,0.1,0.1,0.2,0.1,0.3c0,0.1,0.1,0.2,0.2,0.2c0.1-0.2,0.2-0.6,0.3-1c0.1-0.5,0.3-0.9,0.4-1.4
		c0.1-0.5,0.3-0.9,0.4-1.3c0.1-0.4,0.3-0.6,0.4-0.6c0.1,0,0.3,0,0.4,0.1c0.1,0,0.2,0.1,0.4,0.1c0.2,0.1,0.3,0.1,0.3,0.3
		c0,0.1,0,0.3,0.1,0.4c0.1,0.2,0.1,0.5,0.2,0.8s0.2,0.7,0.4,1c0.1,0.3,0.3,0.6,0.5,0.8c0.2,0.2,0.3,0.3,0.5,0.3
		c0.1,0,0.2-0.1,0.3-0.3c0.1-0.2,0.3-0.3,0.5-0.4c0,0,0.1,0,0.2,0.1C118.7,35.8,118.8,35.9,118.9,35.9z"/>
	<path class="st2" d="M138.2,27c-0.2,0.3-0.5,0.6-0.9,0.9c-0.4,0.3-0.8,0.6-1.2,0.8c-0.4,0.3-0.8,0.5-1.1,0.7
		c-0.3,0.2-0.5,0.3-0.5,0.4s0.1,0.2,0.2,0.5c0.1,0.3,0.2,0.6,0.3,0.9c0.1,0.4,0.3,0.7,0.4,1.1c0.1,0.4,0.3,0.7,0.4,1
		c0.1,0.2,0.1,0.4,0.2,0.7c0.1,0.3,0.2,0.6,0.2,0.8c0.1,0.3,0.1,0.5,0.2,0.8c0.1,0.2,0.1,0.3,0.1,0.4c0,0.3,0,0.6-0.1,0.8
		c-0.1,0.3-0.2,0.5-0.4,0.5c-0.1,0-0.2,0-0.3-0.1c-0.1-0.1-0.2-0.2-0.3-0.3c-0.1-0.1-0.1-0.2-0.2-0.3c0-0.1-0.1-0.2-0.1-0.2
		c0,0,0-0.1,0-0.2c0-0.1,0-0.2,0-0.2c0-0.3-0.1-0.8-0.3-1.5c-0.1-0.2-0.2-0.5-0.3-0.9c-0.1-0.4-0.3-0.8-0.4-1.2
		c-0.2-0.5-0.4-1-0.6-1.6c-0.1-0.2-0.2-0.4-0.2-0.4c-0.1,0-0.3,0.1-0.6,0.3c-0.3,0.2-0.6,0.4-1,0.7c-0.4,0.3-0.7,0.5-1.1,0.8
		s-0.8,0.6-1.1,0.8c-0.3,0.3-0.6,0.5-0.9,0.6c-0.2,0.2-0.4,0.3-0.5,0.3c-0.2,0-0.4,0-0.6-0.2c-0.2-0.1-0.2-0.3-0.3-0.5
		c0-0.1,0.1-0.3,0.4-0.5c0.3-0.2,0.6-0.5,1-0.8c0.4-0.3,0.9-0.6,1.4-0.9c0.5-0.3,0.9-0.6,1.4-0.9c0.4-0.3,0.9-0.6,1.5-0.9
		c-0.2-0.8-0.4-1.5-0.6-2.2c-0.1-0.5-0.3-1.1-0.4-1.5c-0.1-0.5-0.2-0.7-0.2-0.7c0-0.2,0-0.4,0.1-0.5c0.1-0.1,0.2-0.2,0.3-0.2
		c0.2,0,0.3,0.1,0.4,0.4c0.3,1,0.5,1.8,0.8,2.5c0.2,0.7,0.5,1.3,0.7,1.8c0.2-0.1,0.4-0.2,0.8-0.4c0.4-0.2,0.8-0.4,1.2-0.7
		c0.4-0.2,0.8-0.4,1.1-0.6c0.3-0.2,0.5-0.3,0.6-0.3c0.1,0,0.2,0,0.2,0.1C138.2,26.9,138.2,27,138.2,27z"/>
	<path class="st2" d="M145.1,32.8c0,0.4,0,0.8-0.1,1.1c-0.1,0.4-0.2,0.7-0.3,1c-0.2,0.3-0.3,0.5-0.6,0.7c-0.2,0.2-0.5,0.3-0.8,0.3
		c-0.5,0-0.9-0.1-1.2-0.3c-0.3-0.3-0.6-0.6-0.7-0.9c-0.2-0.4-0.3-0.7-0.4-1.1c-0.1-0.4-0.1-0.7-0.1-0.9c0-0.3,0-0.7,0.1-1.1
		c0.1-0.4,0.2-0.8,0.3-1.2c0.1-0.4,0.3-0.7,0.5-0.9c0.2-0.3,0.4-0.4,0.6-0.4c0.1,0,0.1,0,0.3,0c0.1,0,0.2,0.1,0.4,0.1
		c0.1,0.1,0.3,0.1,0.4,0.2c0.1,0.1,0.2,0.2,0.2,0.4c0.2,0,0.4,0.1,0.6,0.2c0.2,0.1,0.3,0.2,0.3,0.3c0.2,0.5,0.3,0.9,0.4,1.4
		C145,32.1,145,32.5,145.1,32.8z M143.8,32.4c0-0.3-0.1-0.5-0.2-0.8c-0.1-0.3-0.2-0.6-0.4-0.9c0,0-0.1,0-0.1,0c-0.1,0-0.1,0-0.2,0
		c0,0-0.1,0-0.1,0c-0.2,0-0.4,0.1-0.5,0.2c-0.1,0.1-0.2,0.3-0.2,0.5c0,0.2-0.1,0.4-0.1,0.6c0,0.2,0,0.4,0,0.6c0,0.2,0,0.4,0.1,0.7
		c0,0.2,0.1,0.5,0.2,0.7c0.1,0.2,0.2,0.4,0.3,0.5c0.1,0.1,0.3,0.2,0.5,0.2c0.2,0,0.3-0.1,0.4-0.3c0.1-0.2,0.2-0.4,0.2-0.7
		c0-0.3,0.1-0.5,0.1-0.8C143.8,32.7,143.8,32.5,143.8,32.4z"/>
</g>
<g class="st1">
	<path class="st2" d="M44.5,58.3c-0.2,0.3-0.5,0.6-0.9,0.9c-0.4,0.3-0.8,0.6-1.2,0.8c-0.4,0.3-0.8,0.5-1.1,0.7
		c-0.3,0.2-0.5,0.3-0.5,0.4s0.1,0.2,0.2,0.5c0.1,0.3,0.2,0.6,0.3,0.9c0.1,0.4,0.3,0.7,0.4,1.1c0.1,0.4,0.3,0.7,0.4,1
		c0.1,0.2,0.1,0.4,0.2,0.7c0.1,0.3,0.2,0.6,0.2,0.8c0.1,0.3,0.1,0.5,0.2,0.8c0.1,0.2,0.1,0.3,0.1,0.4c0,0.3,0,0.6-0.1,0.8
		c-0.1,0.3-0.2,0.5-0.4,0.5c-0.1,0-0.2,0-0.3-0.1c-0.1-0.1-0.2-0.2-0.3-0.3c-0.1-0.1-0.1-0.2-0.2-0.3c0-0.1-0.1-0.2-0.1-0.2
		c0,0,0-0.1,0-0.2c0-0.1,0-0.2,0-0.2c0-0.3-0.1-0.8-0.3-1.5c-0.1-0.2-0.2-0.5-0.3-0.9c-0.1-0.4-0.3-0.8-0.4-1.2
		c-0.2-0.5-0.4-1-0.6-1.6c-0.1-0.2-0.2-0.4-0.2-0.4c-0.1,0-0.3,0.1-0.6,0.3c-0.3,0.2-0.6,0.4-1,0.7c-0.4,0.3-0.7,0.5-1.1,0.8
		s-0.8,0.6-1.1,0.8c-0.3,0.3-0.6,0.5-0.9,0.6c-0.2,0.2-0.4,0.3-0.5,0.3c-0.2,0-0.4,0-0.6-0.2c-0.2-0.1-0.2-0.3-0.3-0.5
		c0-0.1,0.1-0.3,0.4-0.5c0.3-0.2,0.6-0.5,1-0.8c0.4-0.3,0.9-0.6,1.4-0.9c0.5-0.3,0.9-0.6,1.4-0.9c0.4-0.3,0.9-0.6,1.5-0.9
		c-0.2-0.8-0.4-1.5-0.6-2.2c-0.1-0.5-0.3-1.1-0.4-1.5c-0.1-0.5-0.2-0.7-0.2-0.7c0-0.2,0-0.4,0.1-0.5c0.1-0.1,0.2-0.2,0.3-0.2
		c0.2,0,0.3,0.1,0.4,0.4c0.3,1,0.5,1.8,0.8,2.5s0.5,1.3,0.7,1.8c0.2-0.1,0.4-0.2,0.8-0.4c0.4-0.2,0.8-0.4,1.2-0.7
		c0.4-0.2,0.8-0.4,1.1-0.6c0.3-0.2,0.5-0.3,0.6-0.3c0.1,0,0.2,0,0.2,0.1C44.4,58.2,44.4,58.2,44.5,58.3z"/>
	<path class="st2" d="M55.2,64.6c0.1,0.1,0.1,0.1,0.1,0.2c0,0,0,0.1-0.1,0.3c-0.1,0.2-0.2,0.4-0.3,0.6s-0.3,0.4-0.5,0.6
		c-0.2,0.2-0.4,0.3-0.5,0.3c-0.4,0-0.7,0-0.9-0.1c-0.2-0.1-0.5-0.3-0.6-0.5c-0.2-0.2-0.3-0.5-0.4-0.7c-0.1-0.3-0.2-0.5-0.3-0.8
		c0-0.1-0.1-0.2-0.1-0.2c-0.1,0-0.1,0.2-0.3,0.6s-0.3,0.8-0.4,1.3c-0.1,0.5-0.3,0.9-0.4,1.3c-0.1,0.4-0.2,0.6-0.3,0.6
		c-0.3,0-0.6-0.1-0.9-0.3c-0.2-0.3-0.5-0.6-0.6-0.9c-0.2-0.4-0.3-0.7-0.4-1.1C48.1,65.2,48,65,48,64.7c-0.1-0.5-0.3-1.3-0.6-2.4
		c-0.3-1.1-0.6-2.5-0.8-4.1c-0.1-0.3-0.1-0.6-0.2-0.9c-0.1-0.3-0.1-0.6-0.2-0.9c-0.1-0.3-0.2-0.7-0.2-1.1c-0.1-0.4-0.1-1-0.2-1.6
		c0,0,0-0.2,0-0.4c0-0.2,0-0.4,0-0.7c0-0.2,0.1-0.4,0.1-0.6c0.1-0.2,0.2-0.3,0.3-0.3c0.1,0,0.2,0.1,0.4,0.2c0.1,0.1,0.2,0.3,0.3,0.5
		c0.1,0.2,0.2,0.4,0.2,0.6c0.1,0.2,0.1,0.3,0.1,0.4c0,0.3,0,0.5,0,0.8s0,0.5,0,0.7c0,0.3,0.1,0.6,0.2,1c0.1,0.4,0.2,0.8,0.3,1.2
		c0.1,0.4,0.2,0.8,0.3,1.2c0.1,0.4,0.2,0.7,0.2,1c0,0,0,0.1,0.1,0.4c0.1,0.2,0.1,0.5,0.2,0.9c0.1,0.3,0.2,0.7,0.2,1.1
		c0.1,0.4,0.2,0.8,0.3,1.2c0.1,0.4,0.2,0.7,0.2,1c0.1,0.3,0.1,0.5,0.1,0.6c0,0.1,0,0.1,0.1,0.2s0.1,0.2,0.1,0.3
		c0,0.1,0.1,0.2,0.1,0.3c0,0.1,0.1,0.2,0.2,0.2c0.1-0.2,0.2-0.6,0.3-1c0.1-0.5,0.3-0.9,0.4-1.4c0.1-0.5,0.3-0.9,0.4-1.3
		c0.1-0.4,0.3-0.6,0.4-0.6c0.1,0,0.3,0,0.4,0.1c0.1,0,0.2,0.1,0.4,0.1c0.2,0.1,0.3,0.1,0.3,0.3c0,0.1,0,0.3,0.1,0.4
		c0.1,0.2,0.1,0.5,0.2,0.8c0.1,0.3,0.2,0.7,0.4,1c0.1,0.3,0.3,0.6,0.5,0.8c0.2,0.2,0.3,0.3,0.5,0.3c0.1,0,0.2-0.1,0.3-0.3
		c0.1-0.2,0.3-0.3,0.5-0.4c0,0,0.1,0,0.2,0.1C55,64.5,55.1,64.5,55.2,64.6z"/>
	<path class="st2" d="M64.6,65.9c0,0,0,0.1,0,0.2c0,0.1-0.1,0.3-0.2,0.5c0,0.1-0.2,0.2-0.3,0.4s-0.4,0.4-0.7,0.5
		c-0.3,0.2-0.7,0.4-1.1,0.5c-0.4,0.2-0.9,0.3-1.5,0.3c-0.4,0-0.8,0-1.2-0.2c-0.4-0.2-0.8-0.4-1.1-0.7c-0.3-0.3-0.6-0.8-0.9-1.3
		c-0.2-0.5-0.4-1.2-0.5-1.9c-0.1-0.7,0-1.4,0.1-2c0.1-0.6,0.3-1.2,0.5-1.7c0.2-0.5,0.5-0.9,0.8-1.2c0.3-0.3,0.6-0.5,1-0.5
		c0.3,0,0.6,0,0.9,0.1c0.3,0.1,0.6,0.2,0.8,0.4c0.3,0.2,0.5,0.3,0.6,0.6c0.2,0.2,0.3,0.4,0.3,0.7c0,0.3-0.1,0.6-0.3,0.9
		c-0.2,0.3-0.5,0.6-0.8,0.9c-0.3,0.3-0.6,0.5-1,0.7c-0.3,0.2-0.6,0.3-0.8,0.3c-0.1,0-0.2,0-0.3-0.1c-0.1-0.1-0.1-0.2-0.2-0.4
		c0-0.2,0.1-0.5,0.3-0.6c0.2-0.2,0.4-0.3,0.7-0.5c0.3-0.1,0.5-0.3,0.7-0.5c0.2-0.2,0.3-0.4,0.3-0.7c0,0-0.1-0.1-0.2-0.3
		c-0.1-0.1-0.4-0.2-0.7-0.2c-0.2,0-0.4,0.1-0.6,0.4c-0.2,0.2-0.4,0.5-0.6,0.9c-0.2,0.4-0.3,0.8-0.4,1.3c-0.1,0.5-0.1,1-0.1,1.6
		c0,0.5,0.2,0.9,0.4,1.2c0.2,0.4,0.5,0.7,0.7,0.9c0.3,0.2,0.6,0.4,1,0.5c0.4,0.1,0.7,0.2,1.1,0.1c0.3,0,0.6-0.1,0.9-0.3
		c0.3-0.1,0.6-0.3,0.9-0.5c0.3-0.2,0.5-0.3,0.7-0.4c0.2-0.1,0.3-0.2,0.4-0.2c0.1,0,0.1,0,0.2,0.1C64.5,65.8,64.5,65.9,64.6,65.9z"/>
	<path class="st2" d="M85.2,62.1c0,0.2,0,0.4,0,0.6c0,0.2-0.1,0.4-0.1,0.5c0,0.1-0.2,0.3-0.4,0.6c-0.3,0.3-0.6,0.7-1,1.1
		c-0.4,0.4-0.9,0.7-1.4,1.1c-0.5,0.3-1,0.5-1.5,0.6c-0.3,0-0.6,0-0.9-0.1c-0.3-0.1-0.6-0.2-0.9-0.4c-0.3-0.2-0.5-0.5-0.7-0.8
		c-0.2-0.3-0.3-0.8-0.4-1.3c-0.1-0.9,0-1.7,0.2-2.4c0.2-0.7,0.5-1.3,0.7-1.7c0.1-0.2,0.3-0.4,0.4-0.6c0.2-0.2,0.4-0.4,0.6-0.6
		c0.2-0.2,0.4-0.3,0.5-0.5c0.2-0.1,0.3-0.2,0.3-0.2c0.2,0,0.3,0,0.5,0.1c0.1,0.1,0.2,0.2,0.2,0.3c0,0.1,0,0.3-0.1,0.4
		c-0.1,0.1-0.2,0.2-0.3,0.4c-0.1,0.1-0.3,0.3-0.5,0.5c-0.2,0.2-0.4,0.5-0.6,0.8c-0.4,0.6-0.6,1.3-0.8,1.9c-0.2,0.6-0.2,1.2-0.2,1.7
		c0,0.5,0.2,0.8,0.6,1.1c0.4,0.2,0.7,0.4,1.1,0.3c0.7-0.1,1.3-0.3,1.8-0.6c0.5-0.4,0.9-0.7,1.3-1.1c0.3-0.4,0.6-0.8,0.8-1.1
		c0.2-0.3,0.4-0.5,0.5-0.5C85,61.6,85.1,61.7,85.2,62.1z"/>
	<path class="st2" d="M100,60c0,0.3-0.1,0.7-0.3,1.2c-0.3,0.5-0.6,1-1.1,1.5s-1,0.9-1.6,1.3c-0.6,0.4-1.3,0.6-2,0.7
		c-0.3,0-0.7,0-1-0.1s-0.7-0.2-1.1-0.4c-0.4-0.2-0.7-0.4-1-0.7c-0.3-0.3-0.5-0.6-0.7-1c-0.1,0.1-0.2,0.3-0.3,0.6
		c-0.1,0.3-0.3,0.5-0.4,0.8s-0.3,0.5-0.5,0.7c-0.2,0.2-0.4,0.3-0.6,0.3c-0.2,0-0.4-0.1-0.6-0.3c-0.2-0.2-0.3-0.5-0.4-0.8
		c-0.1-0.3-0.2-0.6-0.3-0.8c-0.1-0.3-0.1-0.4-0.1-0.5c0-0.2,0-0.6,0.1-1.2c0.1-0.6,0.2-1.3,0.4-1.9c0.2-0.7,0.5-1.3,0.8-1.8
		c0.3-0.5,0.8-0.8,1.3-0.9c0.2,0,0.3,0.1,0.4,0.2c0.1,0.2,0.1,0.3,0.1,0.5l0.1,0.8c0.1,0.1,0.2,0.1,0.3,0.1c0.1,0,0.2,0,0.3,0.1
		c0.1,0,0.2,0.1,0.2,0.2c0.1,0.1,0.1,0.2,0.1,0.4c0,0.1,0,0.2,0,0.3c0,0.1,0,0.2,0,0.3c0,0.5,0.1,0.9,0.2,1.4
		c0.1,0.4,0.3,0.8,0.5,1.2c0.2,0.3,0.6,0.6,1,0.8c0.4,0.2,0.9,0.3,1.5,0.2c0.8-0.1,1.4-0.3,2-0.7c0.5-0.4,0.9-0.8,1.3-1.2
		c0.3-0.4,0.6-0.8,0.8-1.2c0.2-0.4,0.4-0.5,0.5-0.5C99.9,59.7,100,59.8,100,60z M90.5,59.7c0-0.1,0-0.1-0.1-0.2
		c0-0.1-0.1-0.1-0.1-0.2c0-0.1,0-0.1,0-0.2c0-0.1,0-0.1,0-0.2c0-0.1,0-0.1-0.1-0.1c0,0-0.1-0.1-0.1-0.1c-0.2,0-0.3,0.2-0.5,0.5
		c-0.1,0.3-0.3,0.6-0.4,1c-0.1,0.4-0.2,0.7-0.3,1.1c-0.1,0.4-0.1,0.7-0.1,0.9c0,0.1,0.1,0.3,0.2,0.6c0.1,0.3,0.2,0.5,0.3,0.5
		c0.2-0.7,0.5-1.3,0.7-1.9C90.5,60.9,90.5,60.3,90.5,59.7z"/>
	<path class="st2" d="M108.8,57.1c0,0.5-0.1,0.9-0.3,1.4c-0.2,0.5-0.5,0.9-0.9,1.3c-0.3,0.4-0.7,0.8-1.1,1.1
		c-0.4,0.4-0.8,0.7-1.2,0.9c-0.3,0.3-0.6,0.5-0.8,0.7c-0.2,0.2-0.3,0.3-0.3,0.4c0,0.2,0.1,0.6,0.2,1c0.1,0.4,0.2,0.9,0.3,1.4
		c0.1,0.5,0.2,1,0.4,1.5c0.1,0.5,0.2,1,0.3,1.4c0,0,0,0.1,0.1,0.2c0,0.1,0.1,0.3,0.1,0.5s0.1,0.3,0.2,0.5c0,0.1,0.1,0.2,0.1,0.3
		c0,0.1,0,0.3,0,0.4c0,0.2,0,0.3,0,0.4c0,0.1-0.1,0.3-0.2,0.4c-0.1,0.1-0.2,0.2-0.3,0.2c-0.2,0-0.3-0.1-0.5-0.2
		c-0.1-0.2-0.2-0.3-0.2-0.5c0,0,0-0.1,0-0.1c0,0,0-0.1,0-0.1c0-0.2-0.1-0.7-0.4-1.6c-0.2-0.8-0.5-1.9-0.8-3
		c-0.3-1.2-0.6-2.4-0.8-3.8c-0.3-1.4-0.4-2.6-0.6-3.9c0-0.1,0-0.2,0-0.3c0-0.1,0-0.2,0-0.3c-0.2,0-0.4,0.1-0.8,0.3
		c-0.3,0.2-0.7,0.4-1,0.6c-0.3,0.2-0.6,0.5-0.8,0.7c-0.2,0.2-0.4,0.5-0.3,0.6l-0.2,0c-0.1,0-0.1,0-0.2-0.1c-0.1-0.1-0.2-0.1-0.2-0.2
		c-0.1-0.1-0.1-0.2-0.2-0.3c-0.1-0.1-0.1-0.1-0.1-0.2c0-0.4,0.2-0.8,0.6-1.1c0.4-0.4,1-0.7,1.6-1c0.6-0.3,1.4-0.6,2.2-0.8
		c0.8-0.2,1.5-0.4,2.3-0.4c0.7-0.1,1.3,0,1.8,0.1c0.5,0.1,0.9,0.3,1.2,0.5c0.3,0.2,0.5,0.4,0.7,0.6
		C108.7,56.7,108.8,56.9,108.8,57.1z M107.5,57.1c0-0.2-0.3-0.3-0.7-0.5c-0.5-0.1-1-0.2-1.6-0.1c-0.5,0-0.9,0.1-1.2,0.2
		c-0.2,0.1-0.4,0.1-0.5,0.2c0,0.3,0,0.6,0,1c0,0.4,0,0.8,0.1,1.2c0,0.4,0.1,0.8,0.1,1.2c0.1,0.4,0.1,0.7,0.2,1
		c0.2-0.2,0.6-0.4,1-0.8c0.4-0.3,0.8-0.7,1.2-1.1c0.4-0.4,0.7-0.8,1-1.2C107.4,57.9,107.5,57.5,107.5,57.1z"/>
	<path class="st2" d="M117.1,51.9c-0.2,0.3-0.5,0.6-0.9,0.9c-0.4,0.3-0.8,0.6-1.2,0.8c-0.4,0.3-0.8,0.5-1.1,0.7
		c-0.3,0.2-0.5,0.3-0.5,0.4c0,0.1,0.1,0.2,0.2,0.5c0.1,0.3,0.2,0.6,0.3,0.9c0.1,0.4,0.3,0.7,0.4,1.1s0.3,0.7,0.4,1
		c0.1,0.2,0.1,0.4,0.2,0.7c0.1,0.3,0.2,0.6,0.2,0.8c0.1,0.3,0.1,0.5,0.2,0.8c0.1,0.2,0.1,0.3,0.1,0.4c0,0.3,0,0.6-0.1,0.8
		c-0.1,0.3-0.2,0.5-0.4,0.5c-0.1,0-0.2,0-0.3-0.1s-0.2-0.2-0.3-0.3c-0.1-0.1-0.1-0.2-0.2-0.3c0-0.1-0.1-0.2-0.1-0.2c0,0,0-0.1,0-0.2
		c0-0.1,0-0.2,0-0.2c0-0.3-0.1-0.8-0.3-1.5c-0.1-0.2-0.2-0.5-0.3-0.9c-0.1-0.4-0.3-0.8-0.4-1.2c-0.2-0.5-0.4-1-0.6-1.6
		c-0.1-0.2-0.1-0.4-0.2-0.4c-0.1,0-0.3,0.1-0.6,0.3c-0.3,0.2-0.6,0.4-1,0.7c-0.4,0.3-0.7,0.5-1.1,0.8s-0.8,0.6-1.1,0.8
		c-0.3,0.3-0.6,0.5-0.9,0.6c-0.2,0.2-0.4,0.3-0.5,0.3c-0.2,0-0.4,0-0.6-0.2c-0.2-0.1-0.2-0.3-0.3-0.5c0-0.1,0.1-0.3,0.4-0.5
		c0.3-0.2,0.6-0.5,1-0.8c0.4-0.3,0.9-0.6,1.4-0.9c0.5-0.3,0.9-0.6,1.4-0.9c0.4-0.3,0.9-0.6,1.5-0.9c-0.2-0.8-0.4-1.5-0.6-2.2
		c-0.1-0.5-0.3-1.1-0.4-1.5c-0.1-0.5-0.2-0.7-0.2-0.7c0-0.2,0-0.4,0.1-0.5c0.1-0.1,0.2-0.2,0.3-0.2c0.2,0,0.3,0.1,0.4,0.4
		c0.3,1,0.5,1.8,0.8,2.5c0.2,0.7,0.5,1.3,0.7,1.8c0.2-0.1,0.4-0.2,0.8-0.4c0.4-0.2,0.8-0.4,1.2-0.7c0.4-0.2,0.8-0.4,1.1-0.6
		c0.3-0.2,0.5-0.3,0.6-0.3c0.1,0,0.2,0,0.2,0.1C117,51.8,117,51.9,117.1,51.9z"/>
	<path class="st2" d="M128,58.7c0,0.2-0.1,0.3-0.3,0.5c-0.2,0.2-0.4,0.4-0.7,0.6c-0.3,0.2-0.6,0.3-0.8,0.5c-0.3,0.1-0.5,0.2-0.6,0.2
		c-0.2,0-0.3,0-0.5-0.1c-0.2-0.1-0.4-0.2-0.6-0.3c-0.2-0.1-0.3-0.2-0.5-0.3c-0.1-0.1-0.2-0.2-0.3-0.2c0,0.1-0.1,0.2-0.2,0.3
		c-0.1,0.2-0.2,0.4-0.3,0.6c-0.1,0.2-0.3,0.4-0.4,0.5c-0.2,0.2-0.3,0.2-0.5,0.3c-0.5,0-0.9-0.2-1.3-0.6c-0.4-0.5-0.7-1-1-1.6
		c-0.3-0.6-0.5-1.2-0.7-1.8c-0.2-0.6-0.3-1-0.3-1.2c0-0.1,0-0.2,0.2-0.3c0.1-0.1,0.2-0.1,0.3-0.1c0.3,0,0.4,0,0.5,0.2
		c0.1,0.2,0.2,0.3,0.2,0.5c0,0.2,0.1,0.4,0.2,0.8c0.1,0.4,0.3,0.8,0.5,1.2c0.2,0.4,0.4,0.8,0.6,1.1c0.2,0.3,0.3,0.5,0.5,0.5
		c0.2,0,0.4-0.2,0.6-0.5c0.1-0.3,0.3-0.7,0.3-1.1c0.1-0.4,0.1-0.8,0.1-1.1c0-0.4,0-0.6,0-0.7c0,0,0-0.1,0-0.2c0-0.1,0-0.2,0-0.3
		s0-0.2,0-0.3c0-0.1,0-0.2,0-0.2c0-0.1,0-0.2-0.1-0.2c-0.1,0-0.1-0.1-0.1-0.3c0-0.1,0-0.2,0.1-0.3c0.1-0.1,0.3-0.2,0.7-0.2
		c0.1,0,0.3,0,0.3,0.1c0.1,0.1,0.2,0.2,0.2,0.3c0,0.1,0.1,0.2,0.1,0.3c0,0.1,0,0.2,0,0.2c0,0,0,0.1,0,0.4c0,0.2,0,0.5,0,0.8
		c0,0.3,0,0.5,0,0.8c0,0.3,0,0.4,0,0.5c0,0.1,0,0.2,0.1,0.3c0.1,0.2,0.2,0.3,0.2,0.5c0.1,0.2,0.2,0.3,0.3,0.4
		c0.1,0.1,0.2,0.2,0.4,0.2c0.2,0,0.4-0.1,0.6-0.1c0.2-0.1,0.4-0.2,0.5-0.3c0.2-0.1,0.3-0.2,0.5-0.3c0.1-0.1,0.3-0.1,0.4-0.1
		c0.2,0,0.3,0,0.5,0.1C127.9,58.5,128,58.6,128,58.7z"/>
	<path class="st2" d="M135.1,54.3c0,0.1,0,0.2-0.1,0.3c-0.1,0.1-0.2,0.2-0.4,0.2c-0.1,0.1-0.3,0.1-0.4,0.2c-0.1,0-0.3,0.1-0.3,0.1
		c-0.3,0-0.5,0-0.5,0c-0.1,0-0.2,0-0.2,0c-0.4,0-0.8,0.1-1.1,0.2c-0.3,0.1-0.5,0.2-0.6,0.4c-0.1,0.2-0.2,0.4-0.2,0.6
		c0,0.2,0,0.5,0,0.9c0.1,0.6,0.1,1,0.2,1.4c0.1,0.3,0.1,0.6,0.2,0.8c0.1,0.2,0.1,0.4,0.2,0.5c0.1,0.1,0.1,0.2,0.1,0.3
		c0,0.1-0.1,0.3-0.2,0.5c-0.1,0.2-0.3,0.3-0.4,0.3c-0.2,0-0.4-0.2-0.6-0.5c-0.2-0.4-0.4-0.8-0.6-1.3c-0.2-0.5-0.3-1-0.4-1.5
		c-0.1-0.5-0.2-0.9-0.2-1.2c0-0.3,0-0.6,0-0.9c0-0.3,0.1-0.5,0.2-0.7c0.1-0.2,0.2-0.4,0.3-0.5c0.1-0.1,0.2-0.2,0.3-0.2
		c0.1,0,0.2,0,0.2,0.1c0.1,0.1,0.1,0.1,0.2,0.2c0,0.1,0.1,0.1,0.1,0.2c0,0.1,0.1,0.1,0.2,0.1c0.2,0,0.4-0.1,0.8-0.3
		c0.3-0.2,0.8-0.3,1.3-0.4c0.5,0,0.8-0.1,1.1-0.1c0.2,0,0.5,0,0.7,0.1c0.1,0,0.1,0,0.2,0.1C135.1,54.1,135.1,54.2,135.1,54.3z"/>
	<path class="st2" d="M145.2,58.9c0,0,0,0.1,0,0.2c0,0.1-0.1,0.3-0.2,0.5c0,0.1-0.2,0.2-0.3,0.4c-0.2,0.2-0.4,0.4-0.7,0.5
		c-0.3,0.2-0.7,0.4-1.1,0.5c-0.4,0.2-0.9,0.3-1.5,0.3c-0.4,0-0.8,0-1.2-0.2c-0.4-0.2-0.8-0.4-1.1-0.7c-0.3-0.3-0.6-0.8-0.9-1.3
		c-0.2-0.5-0.4-1.2-0.5-1.9c-0.1-0.7,0-1.4,0.1-2c0.1-0.6,0.3-1.2,0.5-1.7c0.2-0.5,0.5-0.9,0.8-1.2c0.3-0.3,0.6-0.5,1-0.5
		c0.3,0,0.6,0,0.9,0.1c0.3,0.1,0.6,0.2,0.8,0.4c0.3,0.2,0.5,0.3,0.6,0.6c0.2,0.2,0.3,0.4,0.3,0.7c0,0.3-0.1,0.6-0.3,0.9
		c-0.2,0.3-0.5,0.6-0.8,0.9c-0.3,0.3-0.6,0.5-1,0.7c-0.3,0.2-0.6,0.3-0.8,0.3c-0.1,0-0.2,0-0.3-0.1c-0.1-0.1-0.1-0.2-0.2-0.4
		c0-0.2,0.1-0.5,0.3-0.6c0.2-0.2,0.4-0.3,0.7-0.5c0.3-0.1,0.5-0.3,0.7-0.5s0.3-0.4,0.3-0.7c0,0-0.1-0.1-0.2-0.3s-0.4-0.2-0.7-0.2
		c-0.2,0-0.4,0.1-0.6,0.4c-0.2,0.2-0.4,0.5-0.6,0.9c-0.2,0.4-0.3,0.8-0.4,1.3c-0.1,0.5-0.1,1-0.1,1.6c0,0.5,0.2,0.9,0.4,1.2
		c0.2,0.4,0.5,0.7,0.7,0.9c0.3,0.2,0.6,0.4,1,0.5c0.4,0.1,0.7,0.2,1.1,0.1c0.3,0,0.6-0.1,0.9-0.3c0.3-0.1,0.6-0.3,0.9-0.5
		c0.3-0.2,0.5-0.3,0.7-0.4c0.2-0.1,0.3-0.2,0.4-0.2c0.1,0,0.1,0,0.2,0.1C145.2,58.8,145.2,58.8,145.2,58.9z"/>
	<path class="st2" d="M149.8,60.5c0,0.2,0,0.5-0.2,0.9c-0.1,0.4-0.3,0.8-0.5,1.2c-0.2,0.4-0.4,0.7-0.7,1.1c-0.3,0.3-0.5,0.5-0.8,0.5
		c-0.1,0-0.3,0-0.4-0.1c-0.1-0.1-0.2-0.2-0.2-0.2c0,0,0.1-0.1,0.2-0.4c0.2-0.2,0.3-0.5,0.5-0.8c0.2-0.3,0.4-0.6,0.5-1
		c0.1-0.4,0.2-0.7,0.2-1c0-0.3-0.1-0.6-0.2-0.8c-0.1-0.2-0.2-0.3-0.3-0.4s-0.2-0.2-0.3-0.3c-0.1-0.1-0.1-0.2-0.2-0.4
		c0-0.3,0.1-0.4,0.4-0.4c0.3,0,0.5,0,0.8,0.2c0.2,0.2,0.4,0.4,0.6,0.6c0.2,0.2,0.3,0.5,0.4,0.8C149.7,60.1,149.8,60.3,149.8,60.5z"
		/>
</g>
<g class="st1">
	<path class="st2" d="M51.9,90.4c0,0.1,0,0.3-0.1,0.4c-0.1,0.1-0.2,0.2-0.3,0.3c-0.1,0.1-0.2,0.1-0.4,0.2c-0.1,0-0.2,0.1-0.3,0.1
		c-0.4,0-0.7-0.1-1-0.5c-0.3-0.4-0.6-0.8-0.8-1.3c-0.2-0.5-0.4-0.9-0.5-1.4c-0.1-0.4-0.2-0.7-0.2-0.7c-0.1,0.2-0.2,0.5-0.2,1
		c-0.1,0.5-0.2,1-0.3,1.4c-0.1,0.5-0.3,0.9-0.5,1.3c-0.2,0.4-0.5,0.6-0.9,0.6c-0.2,0-0.4-0.1-0.5-0.3s-0.4-0.5-0.5-0.8
		c-0.2-0.3-0.3-0.7-0.5-1.1c-0.2-0.4-0.3-0.8-0.5-1.2c-0.2-0.4-0.3-0.8-0.5-1.1c-0.2-0.4-0.3-0.6-0.5-0.8c-0.1,0.3-0.1,0.7-0.2,1.1
		c0,0.5-0.1,1-0.1,1.5c0,0.5,0,1,0,1.5s0,0.9,0.1,1.3c0,0.3,0,0.4-0.2,0.6c-0.1,0.1-0.3,0.2-0.4,0.2c-0.2,0-0.4-0.1-0.6-0.3
		c-0.2-0.2-0.4-0.6-0.7-1c-0.2-0.4-0.5-0.8-0.7-1.4c-0.2-0.5-0.4-1-0.6-1.5c-0.2-0.5-0.3-1-0.4-1.5c-0.1-0.5-0.2-0.9-0.2-1.2
		c0-0.2,0-0.4,0-0.6c0-0.2,0-0.3,0-0.5c0-0.1,0-0.2,0-0.2c0-0.1,0-0.1,0-0.1c0,0,0-0.1-0.1-0.1c0-0.1,0.1-0.1,0.2-0.3
		c0.1-0.1,0.3-0.2,0.4-0.2c0.3,0,0.4,0,0.5,0.1c0.1,0.1,0.1,0.2,0.2,0.4c0,0.1,0,0.1,0,0.2c0,0.1,0,0.4,0,0.7c0,0.3,0.1,0.6,0.2,1.1
		s0.3,1,0.5,1.5c0.2,0.5,0.3,1,0.5,1.4s0.3,0.7,0.4,0.8c0-0.1,0-0.2,0-0.3c0-0.1,0-0.2,0-0.2l0.1-2.2c0-0.6,0.1-1.2,0.3-1.8
		c0.2-0.6,0.4-1.1,0.6-1.5c0.1-0.2,0.2-0.2,0.3-0.2c0.1,0,0.2,0.1,0.3,0.2c0.3,0.5,0.6,1,0.8,1.4c0.2,0.5,0.4,1,0.5,1.4
		c0.2,0.5,0.3,0.9,0.5,1.4c0.2,0.5,0.5,0.9,0.8,1.4c0.1-0.2,0.3-0.6,0.4-1.2c0.2-0.5,0.3-1.1,0.5-1.7c0.2-0.6,0.3-1,0.5-1.5
		c0.2-0.4,0.3-0.6,0.4-0.6c0.1,0,0.1,0,0.3,0c0.1,0,0.2,0,0.3,0c0.2,0,0.3,0.2,0.5,0.5c0.1,0.4,0.3,0.8,0.4,1.3
		c0.1,0.5,0.2,1,0.4,1.5c0.1,0.5,0.3,0.8,0.4,1.1c0.1,0.2,0.2,0.3,0.4,0.5c0.2,0.1,0.3,0.3,0.5,0.4C51.5,90.1,51.7,90.3,51.9,90.4z"
		/>
	<path class="st2" d="M66.5,86.1c0,0.3-0.1,0.7-0.3,1.2c-0.3,0.5-0.6,1-1.1,1.5s-1,0.9-1.6,1.3c-0.6,0.4-1.3,0.6-2,0.7
		c-0.3,0-0.7,0-1-0.1s-0.7-0.2-1.1-0.4c-0.4-0.2-0.7-0.4-1-0.7c-0.3-0.3-0.5-0.6-0.7-1c-0.1,0.1-0.2,0.3-0.3,0.6
		c-0.1,0.3-0.3,0.5-0.4,0.8c-0.2,0.3-0.3,0.5-0.5,0.7c-0.2,0.2-0.4,0.3-0.6,0.3c-0.2,0-0.4-0.1-0.6-0.3s-0.3-0.5-0.4-0.8
		c-0.1-0.3-0.2-0.6-0.3-0.8c-0.1-0.3-0.1-0.4-0.1-0.5c0-0.2,0-0.6,0.1-1.2c0.1-0.6,0.2-1.3,0.4-1.9s0.5-1.3,0.8-1.8
		c0.3-0.5,0.8-0.8,1.3-0.9c0.2,0,0.3,0.1,0.4,0.2c0.1,0.2,0.1,0.3,0.1,0.5l0.1,0.8c0.1,0.1,0.2,0.1,0.3,0.1c0.1,0,0.2,0,0.3,0.1
		c0.1,0,0.2,0.1,0.2,0.2c0.1,0.1,0.1,0.2,0.1,0.4c0,0.1,0,0.2,0,0.3c0,0.1,0,0.2,0,0.3c0,0.5,0.1,0.9,0.2,1.4
		c0.1,0.4,0.3,0.8,0.5,1.2c0.2,0.3,0.6,0.6,1,0.8c0.4,0.2,0.9,0.3,1.5,0.2c0.8-0.1,1.4-0.3,2-0.7c0.5-0.4,0.9-0.8,1.3-1.2
		c0.3-0.4,0.6-0.8,0.8-1.2c0.2-0.4,0.4-0.5,0.5-0.5C66.4,85.7,66.5,85.8,66.5,86.1z M57,85.7c0-0.1,0-0.1-0.1-0.2
		c0-0.1-0.1-0.1-0.1-0.2c0-0.1,0-0.1,0-0.2c0-0.1,0-0.1,0-0.2c0-0.1,0-0.1-0.1-0.1c0,0-0.1-0.1-0.1-0.1c-0.2,0.1-0.3,0.2-0.5,0.5
		c-0.1,0.3-0.3,0.6-0.4,1s-0.2,0.7-0.3,1.1c-0.1,0.4-0.1,0.7-0.1,0.9c0,0.1,0.1,0.3,0.2,0.6c0.1,0.3,0.2,0.5,0.3,0.5
		c0.2-0.7,0.5-1.3,0.7-1.9C56.9,86.9,57,86.3,57,85.7z"/>
	<path class="st2" d="M75.1,87.6c0,0.1,0,0.2-0.1,0.3c-0.1,0.1-0.1,0.2-0.2,0.3c-0.1,0.1-0.2,0.2-0.3,0.3c-0.1,0.1-0.2,0.1-0.3,0.1
		c-0.3,0-0.7,0-1.2-0.1c-0.5-0.1-0.9-0.3-1.2-0.5c-0.3-0.3-0.6-0.6-0.9-1c-0.3-0.4-0.6-1-0.9-1.8c-0.1,0.8-0.3,1.6-0.5,2.4
		c-0.2,0.8-0.5,1.5-1.1,2.2c0,0-0.1,0.1-0.2,0.1c-0.1,0-0.3,0-0.4-0.2c-0.2-0.1-0.2-0.2-0.2-0.4c0-0.1-0.1-0.4-0.1-0.9
		c-0.1-0.5-0.1-1-0.2-1.5c-0.1-0.6-0.2-1.1-0.2-1.7c-0.1-0.6-0.1-1.1-0.2-1.4c0-0.2,0-0.4,0-0.7c0-0.3,0-0.6,0.1-0.8
		c0,0,0.1-0.1,0.2-0.2c0.1-0.1,0.2-0.2,0.4-0.2c0.1,0,0.2,0.1,0.2,0.2c0,0.2,0.1,0.3,0.1,0.5l0.4,4.2c0,0.1,0,0.2,0.1,0.4
		c0,0.2,0.1,0.3,0.2,0.3c0.2-0.4,0.3-1,0.4-1.6c0.1-0.6,0.2-1.2,0.4-1.7c0.1-0.5,0.2-1,0.4-1.4c0.1-0.4,0.3-0.6,0.4-0.6
		c0.2,0,0.3,0,0.4,0.1c0.1,0.1,0.2,0.2,0.3,0.4c0.1,0.5,0.2,1,0.3,1.4c0.1,0.4,0.2,0.8,0.3,1.1c0.1,0.3,0.3,0.6,0.4,0.9
		c0.2,0.3,0.4,0.5,0.7,0.7c0.3,0.2,0.6,0.4,0.9,0.4c0.3,0.1,0.6,0.1,0.8,0.1c0.1,0,0.2,0,0.3-0.1c0.1-0.1,0.2-0.1,0.3-0.1
		c0.1,0,0.1,0.1,0.2,0.2C75.1,87.5,75.1,87.6,75.1,87.6z"/>
	<path class="st2" d="M89.1,84.1c0,0.3-0.1,0.7-0.3,1.2c-0.3,0.5-0.6,1-1.1,1.5c-0.5,0.5-1,0.9-1.6,1.3c-0.6,0.4-1.3,0.6-2,0.7
		c-0.3,0-0.7,0-1-0.1s-0.7-0.2-1.1-0.4c-0.4-0.2-0.7-0.4-1-0.7c-0.3-0.3-0.5-0.6-0.7-1c-0.1,0.1-0.2,0.3-0.3,0.6
		c-0.1,0.3-0.3,0.5-0.4,0.8s-0.3,0.5-0.5,0.7c-0.2,0.2-0.4,0.3-0.6,0.3c-0.2,0-0.4-0.1-0.6-0.3c-0.2-0.2-0.3-0.5-0.4-0.8
		c-0.1-0.3-0.2-0.6-0.3-0.8c-0.1-0.3-0.1-0.4-0.1-0.5c0-0.2,0-0.6,0.1-1.2c0.1-0.6,0.2-1.3,0.4-1.9c0.2-0.7,0.5-1.3,0.8-1.8
		c0.3-0.5,0.8-0.8,1.3-0.9c0.2,0,0.3,0.1,0.4,0.2c0.1,0.2,0.1,0.3,0.1,0.5l0.1,0.8c0.1,0.1,0.2,0.1,0.3,0.1c0.1,0,0.2,0,0.3,0.1
		c0.1,0,0.2,0.1,0.2,0.2c0.1,0.1,0.1,0.2,0.1,0.4c0,0.1,0,0.2,0,0.3c0,0.1,0,0.2,0,0.3c0,0.5,0.1,0.9,0.2,1.4
		c0.1,0.4,0.3,0.8,0.5,1.2c0.2,0.3,0.6,0.6,1,0.8c0.4,0.2,0.9,0.3,1.5,0.2c0.8-0.1,1.4-0.3,2-0.7c0.5-0.4,0.9-0.8,1.3-1.2
		c0.3-0.4,0.6-0.8,0.8-1.2c0.2-0.4,0.4-0.5,0.5-0.5C88.9,83.8,89.1,83.9,89.1,84.1z M79.5,83.7c0-0.1,0-0.1-0.1-0.2
		c0-0.1-0.1-0.1-0.1-0.2c0-0.1,0-0.1,0-0.2c0-0.1,0-0.1,0-0.2c0-0.1,0-0.1-0.1-0.1c0,0-0.1-0.1-0.1-0.1c-0.2,0-0.3,0.2-0.5,0.5
		c-0.1,0.3-0.3,0.6-0.4,1c-0.1,0.4-0.2,0.7-0.3,1.1c-0.1,0.4-0.1,0.7-0.1,0.9c0,0.1,0.1,0.3,0.2,0.6c0.1,0.3,0.2,0.5,0.3,0.5
		c0.2-0.7,0.5-1.3,0.7-1.9C79.5,84.9,79.6,84.3,79.5,83.7z"/>
	<path class="st2" d="M96.4,86.7c0,0.2,0,0.3-0.2,0.4C96,87.2,96,87.3,96,87.4c0,0,0,0.1,0.1,0.3s0.2,0.4,0.3,0.7
		c0.2,0.5,0.3,0.9,0.4,1.2c0.1,0.3,0.2,0.7,0.3,1c0.1,0.3,0.2,0.6,0.2,0.9c0.1,0.3,0.1,0.6,0.1,1c0,0.4,0,0.8-0.1,1.2
		c-0.1,0.4-0.2,0.8-0.4,1.1c-0.2,0.3-0.5,0.6-0.8,0.8c-0.3,0.2-0.7,0.4-1.1,0.4c-0.7,0.1-1.2,0-1.6-0.3c-0.4-0.2-0.7-0.5-1-0.8
		c-0.2-0.3-0.4-0.6-0.5-1c-0.1-0.3-0.1-0.5-0.1-0.7c-0.1-0.7,0.1-1.3,0.3-2c0.3-0.7,0.6-1.3,1-1.9s0.7-1.1,1-1.4
		c0.3-0.4,0.5-0.6,0.5-0.7l-0.4-0.9c-0.2,0.2-0.3,0.5-0.4,0.8c-0.1,0.3-0.2,0.5-0.4,0.8c-0.1,0.2-0.3,0.4-0.5,0.6
		c-0.2,0.2-0.4,0.3-0.7,0.3c-0.3,0-0.7,0-1-0.2c-0.3-0.2-0.7-0.4-0.9-0.8c-0.3-0.4-0.5-0.8-0.7-1.4c-0.2-0.5-0.3-1.2-0.4-1.9
		c0-0.4,0-0.9,0.1-1.6c0.1-0.6,0.2-1.2,0.4-1.8s0.5-1.1,0.9-1.6c0.4-0.4,0.8-0.7,1.4-0.7c0.3,0,0.6,0,0.9,0.1
		c0.3,0.1,0.4,0.2,0.4,0.4c0,0.1,0,0.3,0,0.4c0,0.1-0.1,0.2-0.2,0.3c-0.1,0-0.1-0.1-0.2-0.1c-0.1,0-0.2,0-0.3,0
		c-0.4,0-0.7,0.2-1,0.6c-0.3,0.4-0.5,0.8-0.7,1.4c-0.2,0.5-0.3,1.1-0.4,1.6c-0.1,0.6-0.1,1.1,0,1.5c0.1,0.9,0.3,1.6,0.6,2
		c0.3,0.4,0.7,0.7,1,0.6c0.2,0,0.3-0.1,0.5-0.4c0.2-0.3,0.3-0.5,0.5-0.9c0.1-0.3,0.3-0.6,0.4-0.9c0.1-0.3,0.2-0.4,0.2-0.5
		c0-0.2,0-0.4,0-0.6c0-0.2,0-0.4-0.1-0.7c0-0.2-0.1-0.5-0.1-0.7c0-0.5,0-0.9,0-1.2c0-0.3,0.2-0.5,0.5-0.5c0.3,0,0.5,0,0.6,0.2
		c0.1,0.2,0.2,0.4,0.2,0.6c0,0.2,0,0.4,0,0.6c0,0.2,0,0.4,0,0.6c0,0.2,0,0.4,0,0.5c0,0.2,0,0.2,0,0.3c0,0.1,0,0.3,0.1,0.5
		c0,0.2,0.1,0.4,0.1,0.6c0,0.2,0.1,0.4,0.1,0.6c0,0.2,0.1,0.3,0.1,0.3c0,0.1,0.1,0.1,0.1,0.2c0,0.1,0.1,0.2,0.1,0.2
		c0,0,0-0.1,0.1-0.1c0,0,0.1-0.1,0.1-0.1c0.1,0,0.2,0.1,0.3,0.3C96.3,86.6,96.4,86.7,96.4,86.7z M95.7,90.2
		c-0.1-0.3-0.2-0.6-0.3-0.8c-0.1-0.3-0.2-0.6-0.3-0.9c-0.3,0.4-0.5,0.8-0.8,1.2c-0.2,0.4-0.5,0.7-0.7,1.1c-0.2,0.4-0.3,0.7-0.4,1.1
		s-0.1,0.8-0.1,1.2c0,0.6,0.2,1,0.6,1.3c0.3,0.3,0.7,0.5,1.1,0.4c0.4,0,0.8-0.2,1.1-0.6c0.3-0.3,0.5-0.8,0.4-1.4
		c0-0.4-0.1-0.7-0.1-0.9c0-0.3-0.1-0.5-0.1-0.7c0-0.2-0.1-0.4-0.2-0.5C95.9,90.6,95.8,90.4,95.7,90.2z"/>
	<path class="st2" d="M106,85.4c0,0,0,0.1,0,0.2c0,0.1-0.1,0.3-0.2,0.5c0,0.1-0.2,0.2-0.3,0.4s-0.4,0.4-0.7,0.5
		c-0.3,0.2-0.7,0.4-1.1,0.5c-0.4,0.2-0.9,0.3-1.5,0.3c-0.4,0-0.8,0-1.2-0.2s-0.8-0.4-1.1-0.7c-0.3-0.3-0.6-0.8-0.9-1.3
		c-0.2-0.5-0.4-1.2-0.5-1.9c-0.1-0.7,0-1.4,0.1-2c0.1-0.6,0.3-1.2,0.5-1.7c0.2-0.5,0.5-0.9,0.8-1.2c0.3-0.3,0.6-0.5,1-0.5
		c0.3,0,0.6,0,0.9,0.1c0.3,0.1,0.6,0.2,0.8,0.4c0.3,0.2,0.5,0.3,0.6,0.6c0.2,0.2,0.3,0.4,0.3,0.7c0,0.3-0.1,0.6-0.3,0.9
		c-0.2,0.3-0.5,0.6-0.8,0.9s-0.6,0.5-1,0.7c-0.3,0.2-0.6,0.3-0.8,0.3c-0.1,0-0.2,0-0.3-0.1c-0.1-0.1-0.1-0.2-0.2-0.4
		c0-0.2,0.1-0.5,0.3-0.6c0.2-0.2,0.4-0.3,0.7-0.5c0.3-0.1,0.5-0.3,0.7-0.5c0.2-0.2,0.3-0.4,0.3-0.7c0,0-0.1-0.1-0.2-0.3
		c-0.1-0.1-0.4-0.2-0.7-0.2c-0.2,0-0.4,0.1-0.6,0.4c-0.2,0.2-0.4,0.5-0.6,0.9c-0.2,0.4-0.3,0.8-0.4,1.3c-0.1,0.5-0.1,1-0.1,1.6
		c0,0.5,0.2,0.9,0.4,1.2c0.2,0.4,0.5,0.7,0.7,0.9c0.3,0.2,0.6,0.4,1,0.5s0.7,0.2,1.1,0.1c0.3,0,0.6-0.1,0.9-0.3
		c0.3-0.1,0.6-0.3,0.9-0.5c0.3-0.2,0.5-0.3,0.7-0.4c0.2-0.1,0.3-0.2,0.4-0.2c0.1,0,0.1,0,0.2,0.1C106,85.3,106,85.4,106,85.4z"/>
	<path class="st2" d="M119.9,84.5c0,0.1,0,0.3-0.1,0.4c-0.1,0.1-0.2,0.2-0.3,0.3c-0.1,0.1-0.2,0.1-0.4,0.2c-0.1,0-0.2,0.1-0.3,0.1
		c-0.4,0-0.7-0.1-1-0.5c-0.3-0.4-0.6-0.8-0.8-1.3c-0.2-0.5-0.4-0.9-0.5-1.4c-0.1-0.4-0.2-0.7-0.2-0.7c-0.1,0.2-0.2,0.5-0.2,1
		s-0.2,1-0.3,1.4c-0.1,0.5-0.3,0.9-0.5,1.3c-0.2,0.4-0.5,0.6-0.9,0.6c-0.2,0-0.4-0.1-0.5-0.3c-0.2-0.2-0.4-0.5-0.5-0.8
		c-0.2-0.3-0.3-0.7-0.5-1.1c-0.2-0.4-0.3-0.8-0.5-1.2c-0.2-0.4-0.3-0.8-0.5-1.1c-0.2-0.4-0.3-0.6-0.5-0.8c-0.1,0.3-0.1,0.7-0.2,1.1
		c0,0.5-0.1,1-0.1,1.5c0,0.5,0,1,0,1.5c0,0.5,0,0.9,0.1,1.3c0,0.3,0,0.4-0.2,0.6c-0.1,0.1-0.3,0.2-0.4,0.2c-0.2,0-0.4-0.1-0.6-0.3
		c-0.2-0.2-0.4-0.6-0.7-1c-0.2-0.4-0.5-0.8-0.7-1.4c-0.2-0.5-0.4-1-0.6-1.5c-0.2-0.5-0.3-1-0.4-1.5c-0.1-0.5-0.2-0.9-0.2-1.2
		c0-0.2,0-0.4,0-0.6c0-0.2,0-0.3,0-0.5c0-0.1,0-0.2,0-0.2c0-0.1,0-0.1,0-0.1c0,0,0-0.1-0.1-0.1c0-0.1,0.1-0.1,0.2-0.3
		c0.1-0.1,0.3-0.2,0.4-0.2c0.3,0,0.4,0,0.5,0.1c0.1,0.1,0.1,0.2,0.2,0.4c0,0.1,0,0.1,0,0.2c0,0.1,0,0.4,0.1,0.7
		c0,0.3,0.1,0.6,0.2,1.1c0.1,0.5,0.3,1,0.5,1.5c0.2,0.5,0.3,1,0.5,1.4s0.3,0.7,0.4,0.8c0-0.1,0-0.2,0-0.3c0-0.1,0-0.2,0-0.2l0.1-2.2
		c0-0.6,0.1-1.2,0.3-1.8c0.2-0.6,0.4-1.1,0.6-1.5c0.1-0.2,0.2-0.2,0.3-0.2s0.2,0.1,0.3,0.2c0.3,0.5,0.6,1,0.8,1.4s0.4,1,0.5,1.4
		c0.2,0.5,0.3,0.9,0.5,1.4c0.2,0.5,0.5,0.9,0.8,1.4c0.1-0.2,0.3-0.6,0.4-1.2c0.2-0.5,0.3-1.1,0.5-1.7c0.2-0.6,0.3-1,0.5-1.5
		c0.2-0.4,0.3-0.6,0.4-0.6c0.1,0,0.1,0,0.3,0c0.1,0,0.2,0,0.3,0c0.2,0,0.3,0.2,0.5,0.5c0.1,0.4,0.3,0.8,0.4,1.3
		c0.1,0.5,0.2,1,0.4,1.5c0.1,0.5,0.3,0.8,0.4,1.1c0.1,0.2,0.2,0.3,0.4,0.5c0.2,0.1,0.3,0.3,0.5,0.4
		C119.5,84.2,119.7,84.3,119.9,84.5z"/>
	<path class="st2" d="M129.5,83.3c0,0,0,0.1,0,0.2c0,0.1-0.1,0.3-0.2,0.5c0,0.1-0.2,0.2-0.3,0.4c-0.2,0.2-0.4,0.4-0.7,0.5
		c-0.3,0.2-0.7,0.4-1.1,0.5c-0.4,0.2-0.9,0.3-1.5,0.3c-0.4,0-0.8,0-1.2-0.2c-0.4-0.2-0.8-0.4-1.1-0.7c-0.3-0.3-0.6-0.8-0.9-1.3
		c-0.2-0.5-0.4-1.2-0.5-1.9c-0.1-0.7,0-1.4,0.1-2c0.1-0.6,0.3-1.2,0.5-1.7c0.2-0.5,0.5-0.9,0.8-1.2c0.3-0.3,0.6-0.5,1-0.5
		c0.3,0,0.6,0,0.9,0.1c0.3,0.1,0.6,0.2,0.8,0.4c0.3,0.2,0.5,0.3,0.6,0.6c0.2,0.2,0.3,0.4,0.3,0.7c0,0.3-0.1,0.6-0.3,0.9
		c-0.2,0.3-0.5,0.6-0.8,0.9c-0.3,0.3-0.6,0.5-1,0.7c-0.3,0.2-0.6,0.3-0.8,0.3c-0.1,0-0.2,0-0.3-0.1c-0.1-0.1-0.1-0.2-0.2-0.4
		c0-0.2,0.1-0.5,0.3-0.6c0.2-0.2,0.4-0.3,0.7-0.5c0.3-0.1,0.5-0.3,0.7-0.5s0.3-0.4,0.3-0.7c0,0-0.1-0.1-0.2-0.3
		c-0.1-0.1-0.4-0.2-0.7-0.2c-0.2,0-0.4,0.1-0.6,0.4c-0.2,0.2-0.4,0.5-0.6,0.9s-0.3,0.8-0.4,1.3c-0.1,0.5-0.1,1-0.1,1.6
		c0,0.5,0.2,0.9,0.4,1.2c0.2,0.4,0.5,0.7,0.7,0.9c0.3,0.2,0.6,0.4,1,0.5c0.4,0.1,0.7,0.2,1.1,0.1c0.3,0,0.6-0.1,0.9-0.3
		c0.3-0.1,0.6-0.3,0.9-0.5c0.3-0.2,0.5-0.3,0.7-0.4c0.2-0.1,0.3-0.2,0.4-0.2c0.1,0,0.1,0,0.2,0.1C129.4,83.2,129.5,83.3,129.5,83.3z
		"/>
	<path class="st2" d="M139.4,82c0,0.1,0,0.2-0.1,0.3c-0.1,0.1-0.1,0.2-0.2,0.3c-0.1,0.1-0.2,0.2-0.3,0.3c-0.1,0.1-0.2,0.1-0.3,0.1
		c-0.3,0-0.7,0-1.2-0.1c-0.5-0.1-0.9-0.3-1.2-0.5c-0.3-0.3-0.6-0.6-0.9-1c-0.3-0.4-0.6-1-0.9-1.8c-0.1,0.8-0.3,1.6-0.5,2.4
		c-0.2,0.8-0.5,1.5-1.1,2.2c0,0-0.1,0.1-0.2,0.1c-0.1,0-0.3,0-0.4-0.2c-0.2-0.1-0.2-0.2-0.2-0.4c0-0.1-0.1-0.4-0.1-0.9
		c-0.1-0.5-0.1-1-0.2-1.5c-0.1-0.6-0.2-1.1-0.2-1.7c-0.1-0.6-0.1-1.1-0.2-1.4c0-0.2,0-0.4,0-0.7c0-0.3,0-0.6,0.1-0.8
		c0,0,0.1-0.1,0.2-0.2c0.1-0.1,0.2-0.2,0.4-0.2c0.1,0,0.2,0.1,0.2,0.2c0,0.2,0.1,0.3,0.1,0.5l0.4,4.2c0,0.1,0,0.2,0.1,0.4
		c0,0.2,0.1,0.3,0.2,0.3c0.2-0.4,0.3-1,0.4-1.6c0.1-0.6,0.2-1.2,0.4-1.7c0.1-0.5,0.2-1,0.4-1.4c0.1-0.4,0.3-0.6,0.4-0.6
		c0.2,0,0.3,0,0.4,0.1c0.1,0.1,0.2,0.2,0.3,0.4c0.1,0.5,0.2,1,0.3,1.4c0.1,0.4,0.2,0.8,0.3,1.1c0.1,0.3,0.3,0.6,0.4,0.9
		c0.2,0.3,0.4,0.5,0.7,0.7c0.3,0.2,0.6,0.4,0.9,0.4c0.3,0.1,0.6,0.1,0.8,0.1c0.1,0,0.2,0,0.3-0.1c0.1-0.1,0.2-0.1,0.3-0.1
		c0.1,0,0.1,0.1,0.2,0.2C139.4,81.9,139.4,82,139.4,82z"/>
	<path class="st2" d="M147.2,72.4c-0.2,0.3-0.5,0.6-0.9,0.9c-0.4,0.3-0.8,0.6-1.2,0.8c-0.4,0.3-0.8,0.5-1.1,0.7
		c-0.3,0.2-0.5,0.3-0.5,0.4s0.1,0.2,0.2,0.5c0.1,0.3,0.2,0.6,0.3,0.9c0.1,0.4,0.3,0.7,0.4,1.1c0.1,0.4,0.3,0.7,0.4,1
		c0.1,0.2,0.1,0.4,0.2,0.7c0.1,0.3,0.2,0.6,0.2,0.8c0.1,0.3,0.1,0.5,0.2,0.8c0.1,0.2,0.1,0.3,0.1,0.4c0,0.3,0,0.6-0.1,0.8
		c-0.1,0.3-0.2,0.5-0.4,0.5c-0.1,0-0.2,0-0.3-0.1c-0.1-0.1-0.2-0.2-0.3-0.3c-0.1-0.1-0.1-0.2-0.2-0.3c0-0.1-0.1-0.2-0.1-0.2
		c0,0,0-0.1,0-0.2c0-0.1,0-0.2,0-0.2c0-0.3-0.1-0.8-0.3-1.5c-0.1-0.2-0.2-0.5-0.3-0.9c-0.1-0.4-0.3-0.8-0.4-1.2
		c-0.2-0.5-0.4-1-0.6-1.6c-0.1-0.2-0.2-0.4-0.2-0.4c-0.1,0-0.3,0.1-0.6,0.3c-0.3,0.2-0.6,0.4-1,0.7c-0.4,0.3-0.7,0.5-1.1,0.8
		c-0.4,0.3-0.8,0.6-1.1,0.8c-0.3,0.3-0.6,0.5-0.9,0.6c-0.2,0.2-0.4,0.3-0.5,0.3c-0.2,0-0.4,0-0.6-0.2c-0.2-0.1-0.2-0.3-0.3-0.5
		c0-0.1,0.1-0.3,0.4-0.5c0.3-0.2,0.6-0.5,1-0.8c0.4-0.3,0.9-0.6,1.4-0.9c0.5-0.3,0.9-0.6,1.4-0.9s0.9-0.6,1.5-0.9
		c-0.2-0.8-0.4-1.5-0.6-2.2c-0.1-0.5-0.3-1.1-0.4-1.5c-0.1-0.5-0.2-0.7-0.2-0.7c0-0.2,0-0.4,0.1-0.5c0.1-0.1,0.2-0.2,0.3-0.2
		c0.2,0,0.3,0.1,0.4,0.4c0.3,1,0.5,1.8,0.8,2.5c0.2,0.7,0.5,1.3,0.7,1.8c0.2,0,0.4-0.2,0.8-0.4c0.4-0.2,0.8-0.4,1.2-0.7
		c0.4-0.2,0.8-0.4,1.1-0.6c0.3-0.2,0.5-0.3,0.6-0.3c0.1,0,0.2,0,0.2,0.1C147.1,72.3,147.2,72.3,147.2,72.4z"/>
	<path class="st2" d="M152.1,83.3c0,0.2,0,0.5-0.2,0.9c-0.1,0.4-0.3,0.8-0.5,1.2c-0.2,0.4-0.4,0.7-0.7,1.1c-0.3,0.3-0.5,0.5-0.8,0.5
		c-0.1,0-0.3,0-0.4-0.1c-0.1-0.1-0.2-0.2-0.2-0.2c0,0,0.1-0.1,0.2-0.4c0.2-0.2,0.3-0.5,0.5-0.8c0.2-0.3,0.4-0.6,0.5-1
		c0.1-0.4,0.2-0.7,0.2-1c0-0.3-0.1-0.6-0.2-0.8c-0.1-0.2-0.2-0.3-0.3-0.4s-0.2-0.2-0.3-0.3c-0.1-0.1-0.1-0.2-0.2-0.4
		c0-0.3,0.1-0.4,0.4-0.4c0.3,0,0.5,0,0.8,0.2c0.2,0.2,0.4,0.4,0.6,0.6c0.2,0.2,0.3,0.5,0.4,0.8C152,82.9,152.1,83.2,152.1,83.3z"/>
</g>
<g class="st1">
	<path class="st2" d="M47.4,111.6c0,0.3-0.1,0.5-0.4,0.7c-0.2,0.1-0.5,0.2-0.8,0.4c-0.3,0.2-0.7,0.4-1,0.5c-0.4,0.2-0.7,0.4-1,0.5
		c-0.3,0.1-0.6,0.2-0.8,0.2c-0.4,0-0.7,0-1-0.1c-0.3-0.1-0.4-0.3-0.4-0.5c0-0.3,0-0.6,0.1-0.8c0.1-0.2,0.2-0.4,0.3-0.6
		c0,0-0.1,0-0.2-0.1c-0.1,0-0.3-0.1-0.4-0.1c-0.1-0.1-0.3-0.1-0.4-0.2c-0.1-0.1-0.2-0.2-0.2-0.3c0-0.3,0.1-0.7,0.4-1.1
		c0.3-0.4,0.7-0.9,1.1-1.3c0.4-0.4,0.8-0.8,1.2-1.1c0.4-0.3,0.6-0.5,0.7-0.5c0.1-0.1,0.3-0.2,0.5-0.3c0.2-0.1,0.4-0.2,0.4-0.2
		c0.2,0,0.4,0.1,0.4,0.3c0,0.1,0,0.3,0,0.4c0,0.2-0.1,0.2-0.2,0.3c-0.1,0-0.2,0-0.2,0s-0.1,0-0.1,0c-0.1,0-0.2,0.1-0.4,0.2
		c-0.2,0.1-0.3,0.2-0.4,0.3c-0.2,0.1-0.3,0.3-0.5,0.5c-0.2,0.2-0.4,0.4-0.6,0.6c-0.2,0.2-0.4,0.4-0.5,0.7s-0.3,0.4-0.4,0.6
		c0,0,0.1,0,0.2,0c0.1,0,0.2,0,0.2,0c0.1,0,0.2-0.1,0.3-0.1s0.2-0.2,0.3-0.3c0.1-0.1,0.2-0.2,0.4-0.3c0.1-0.1,0.2-0.1,0.4-0.1
		c0.2,0,0.3,0,0.4,0.1c0.1,0.1,0.2,0.2,0.2,0.2c0,0.3-0.1,0.6-0.3,0.9c-0.2,0.3-0.5,0.5-0.7,0.7c0,0.1-0.1,0.2-0.1,0.3
		c0,0.2,0.1,0.2,0.3,0.2c0.1,0,0.3-0.1,0.6-0.2c0.2-0.1,0.5-0.3,0.8-0.5c0.3-0.2,0.6-0.3,0.9-0.5c0.3-0.1,0.5-0.2,0.8-0.2
		c0.2,0,0.3,0,0.4,0.2C47.4,111.4,47.4,111.5,47.4,111.6z M44.5,118.6c0,0.3,0,0.7,0,1.3c0,0.5-0.1,1-0.1,1.5
		c-0.1,0.6-0.1,1.2-0.2,1.8c0,0.1-0.1,0.2-0.2,0.3c-0.1,0.1-0.3,0.1-0.5,0.2c-0.1,0-0.2,0-0.3-0.1c-0.1-0.1-0.1-0.1-0.1-0.2
		c0-0.1-0.1-0.2-0.1-0.3c0-0.1,0-0.2,0-0.2c0-0.3,0-0.6,0-1c0-0.4,0.1-0.7,0.1-1.1c0.1-0.4,0.1-0.8,0.2-1.2c0.1-0.4,0.1-0.8,0.1-1.2
		c0-0.2,0-0.4,0.1-0.7c0.1-0.3,0.2-0.4,0.4-0.4c0.2,0,0.4,0.1,0.5,0.4C44.5,117.9,44.5,118.2,44.5,118.6z M46.3,100.3
		c0,0.1,0,0.3-0.1,0.6c-0.1,0.3-0.1,0.7-0.2,1.2c-0.1,0.4-0.2,0.9-0.3,1.4s-0.2,0.9-0.3,1.2c0,0.1-0.1,0.2-0.1,0.3
		c0,0.1-0.1,0.2-0.3,0.2c-0.1,0-0.2,0-0.3-0.1c-0.1-0.1-0.1-0.2-0.2-0.3c0-0.1-0.1-0.2-0.1-0.3s0-0.2,0-0.3c0-0.1,0-0.4,0.1-0.8
		c0.1-0.4,0.2-0.9,0.3-1.4c0.1-0.5,0.3-0.9,0.4-1.3s0.3-0.6,0.5-0.6c0.1,0,0.2,0,0.3,0.1S46.3,100.2,46.3,100.3z"/>
	<path class="st2" d="M73.6,108.5c0,0.3-0.1,0.7-0.3,1.2c-0.3,0.5-0.6,1-1.1,1.5s-1,0.9-1.6,1.3s-1.3,0.6-2,0.7c-0.3,0-0.7,0-1-0.1
		s-0.7-0.2-1.1-0.4c-0.4-0.2-0.7-0.4-1-0.7s-0.5-0.6-0.7-1c-0.1,0.1-0.2,0.3-0.3,0.6c-0.1,0.3-0.3,0.5-0.4,0.8s-0.3,0.5-0.5,0.7
		c-0.2,0.2-0.4,0.3-0.6,0.3c-0.2,0-0.4-0.1-0.6-0.3c-0.2-0.2-0.3-0.5-0.4-0.8c-0.1-0.3-0.2-0.6-0.3-0.8s-0.1-0.4-0.1-0.5
		c0-0.2,0-0.6,0.1-1.2c0.1-0.6,0.2-1.3,0.4-1.9s0.5-1.3,0.8-1.8c0.3-0.5,0.8-0.8,1.3-0.9c0.2,0,0.3,0.1,0.4,0.2
		c0.1,0.2,0.1,0.3,0.1,0.5l0.1,0.8c0.1,0.1,0.2,0.1,0.3,0.1c0.1,0,0.2,0,0.3,0.1s0.2,0.1,0.2,0.2c0.1,0.1,0.1,0.2,0.1,0.4
		c0,0.1,0,0.2,0,0.3c0,0.1,0,0.2,0,0.3c0,0.5,0.1,0.9,0.2,1.4c0.1,0.4,0.3,0.8,0.5,1.2c0.2,0.3,0.6,0.6,1,0.8
		c0.4,0.2,0.9,0.3,1.5,0.2c0.8-0.1,1.4-0.3,2-0.7c0.5-0.4,0.9-0.8,1.3-1.2c0.3-0.4,0.6-0.8,0.8-1.2c0.2-0.4,0.4-0.5,0.5-0.5
		C73.4,108.2,73.5,108.3,73.6,108.5z M64,108.2c0-0.1,0-0.1-0.1-0.2c0-0.1-0.1-0.1-0.1-0.2c0-0.1,0-0.1,0-0.2s0-0.1,0-0.2
		c0-0.1,0-0.1-0.1-0.1s-0.1-0.1-0.1-0.1c-0.2,0.1-0.3,0.2-0.5,0.5c-0.1,0.3-0.3,0.6-0.4,1c-0.1,0.4-0.2,0.7-0.3,1.1
		c-0.1,0.4-0.1,0.7-0.1,0.9c0,0.1,0.1,0.3,0.2,0.6c0.1,0.3,0.2,0.5,0.3,0.5c0.2-0.7,0.5-1.3,0.7-1.9C64,109.4,64.1,108.8,64,108.2z"
		/>
	<path class="st2" d="M82.3,105.6c0,0.5,0,0.9-0.3,1.4c-0.2,0.5-0.5,0.9-0.9,1.3c-0.3,0.4-0.7,0.8-1.1,1.1c-0.4,0.4-0.8,0.7-1.2,0.9
		c-0.3,0.3-0.6,0.5-0.8,0.7c-0.2,0.2-0.3,0.3-0.3,0.4c0,0.2,0.1,0.6,0.2,1c0.1,0.4,0.2,0.9,0.3,1.4c0.1,0.5,0.2,1,0.4,1.5
		c0.1,0.5,0.2,1,0.3,1.4c0,0,0,0.1,0.1,0.2c0,0.1,0.1,0.3,0.1,0.5s0.1,0.3,0.2,0.5c0,0.1,0.1,0.2,0.1,0.3c0,0.1,0,0.3,0,0.4
		c0,0.2,0,0.3,0,0.4c0,0.1-0.1,0.3-0.2,0.4c-0.1,0.1-0.2,0.2-0.3,0.2c-0.2,0-0.3-0.1-0.5-0.2c-0.1-0.2-0.2-0.3-0.2-0.5
		c0,0,0-0.1,0-0.1s0-0.1,0-0.1c0-0.2-0.1-0.7-0.4-1.6c-0.2-0.8-0.5-1.9-0.8-3c-0.3-1.2-0.6-2.4-0.8-3.8c-0.3-1.4-0.4-2.6-0.6-3.9
		c0-0.1,0-0.2,0-0.3c0-0.1,0-0.2,0-0.3c-0.2,0-0.4,0.1-0.8,0.3c-0.3,0.2-0.7,0.4-1,0.6s-0.6,0.5-0.8,0.7c-0.2,0.2-0.4,0.5-0.3,0.6
		l-0.2,0c-0.1,0-0.1,0-0.2-0.1c-0.1-0.1-0.2-0.1-0.2-0.2c-0.1-0.1-0.1-0.2-0.2-0.3s-0.1-0.1-0.1-0.2c0-0.4,0.2-0.8,0.6-1.1
		c0.4-0.4,1-0.7,1.6-1c0.6-0.3,1.4-0.6,2.2-0.8c0.8-0.2,1.5-0.4,2.3-0.4c0.7-0.1,1.3,0,1.8,0.1c0.5,0.1,0.9,0.3,1.2,0.5
		s0.5,0.4,0.7,0.6C82.2,105.2,82.3,105.4,82.3,105.6z M81,105.6c0-0.2-0.3-0.3-0.7-0.5c-0.5-0.2-1-0.2-1.6-0.1
		c-0.5,0-0.9,0.1-1.2,0.2c-0.2,0.1-0.4,0.1-0.5,0.2c0,0.3,0,0.6,0,1c0,0.4,0,0.8,0.1,1.2c0,0.4,0.1,0.8,0.2,1.2
		c0.1,0.4,0.1,0.7,0.2,1c0.2-0.2,0.6-0.4,1-0.8c0.4-0.3,0.8-0.7,1.2-1.1c0.4-0.4,0.7-0.8,1-1.2C80.9,106.4,81,106,81,105.6z"/>
	<path class="st2" d="M92.5,104.7c0,0.5,0,0.9-0.3,1.4s-0.5,0.9-0.9,1.3c-0.3,0.4-0.7,0.8-1.1,1.1c-0.4,0.4-0.8,0.7-1.2,0.9
		c-0.3,0.3-0.6,0.5-0.8,0.7c-0.2,0.2-0.3,0.3-0.3,0.4c0,0.2,0.1,0.6,0.2,1c0.1,0.4,0.2,0.9,0.3,1.4c0.1,0.5,0.2,1,0.4,1.5
		c0.1,0.5,0.2,1,0.3,1.4c0,0,0,0.1,0.1,0.2c0,0.1,0.1,0.3,0.1,0.5s0.1,0.3,0.2,0.5c0,0.1,0.1,0.2,0.1,0.3c0,0.1,0,0.3,0,0.4
		c0,0.2,0,0.3,0,0.4c0,0.1-0.1,0.3-0.2,0.4c-0.1,0.1-0.2,0.2-0.3,0.2c-0.2,0-0.3-0.1-0.5-0.2c-0.1-0.2-0.2-0.3-0.2-0.5
		c0,0,0-0.1,0-0.1s0-0.1,0-0.1c0-0.2-0.1-0.7-0.4-1.6c-0.2-0.8-0.5-1.9-0.8-3c-0.3-1.2-0.6-2.4-0.8-3.8s-0.4-2.6-0.6-3.9
		c0-0.1,0-0.2,0-0.3c0-0.1,0-0.2,0-0.3c-0.2,0-0.4,0.1-0.8,0.3c-0.3,0.2-0.7,0.4-1,0.6c-0.3,0.2-0.6,0.5-0.8,0.7s-0.4,0.5-0.3,0.6
		l-0.2,0c-0.1,0-0.1,0-0.2-0.1s-0.2-0.1-0.2-0.2s-0.1-0.2-0.2-0.3s-0.1-0.1-0.1-0.2c0-0.4,0.2-0.8,0.6-1.1c0.4-0.4,1-0.7,1.6-1
		c0.6-0.3,1.4-0.6,2.2-0.8c0.8-0.2,1.5-0.4,2.3-0.4c0.7-0.1,1.3,0,1.8,0.1c0.5,0.1,0.9,0.3,1.2,0.5c0.3,0.2,0.5,0.4,0.7,0.6
		C92.4,104.3,92.4,104.5,92.5,104.7z M91.1,104.7c0-0.2-0.3-0.3-0.7-0.5c-0.5-0.2-1-0.2-1.6-0.1c-0.5,0-0.9,0.1-1.2,0.2
		c-0.2,0.1-0.4,0.1-0.5,0.2c0,0.3,0,0.6,0,1c0,0.4,0,0.8,0.1,1.2c0,0.4,0.1,0.8,0.1,1.2c0.1,0.4,0.1,0.7,0.2,1
		c0.2-0.2,0.6-0.4,1-0.8c0.4-0.3,0.8-0.7,1.2-1.1c0.4-0.4,0.7-0.8,1-1.2C91,105.5,91.2,105.1,91.1,104.7z"/>
	<path class="st2" d="M98,111.6c-0.1,0.1-0.2,0.1-0.4,0.1c-0.2,0-0.3-0.1-0.5-0.4c-0.2-0.3-0.4-0.7-0.6-1.1
		c-0.2-0.5-0.4-0.9-0.6-1.5s-0.4-1-0.5-1.5c-0.1-0.5-0.3-0.9-0.4-1.2c-0.1-0.3-0.1-0.5-0.1-0.5c0-0.1-0.1-0.3-0.1-0.6
		c-0.1-0.3-0.2-0.8-0.4-1.4c-0.2-0.6-0.3-1.5-0.5-2.5c-0.2-1-0.4-2.3-0.7-3.8c0-0.2,0-0.4,0-0.6s0.1-0.4,0.3-0.4
		c0.3,0,0.5,0.1,0.6,0.5c0.2,0.3,0.3,0.7,0.4,1.2c0.1,0.5,0.2,1,0.3,1.6c0.1,0.5,0.2,1,0.3,1.4c0.1,0.6,0.2,1.1,0.3,1.5
		c0.1,0.5,0.2,0.9,0.3,1.4c0.1,0.5,0.2,0.9,0.4,1.4c0.1,0.5,0.3,1,0.5,1.6l1.5,4.4C98.2,111.4,98.1,111.5,98,111.6z"/>
	<path class="st2" d="M100.8,99.3c0,0-0.1,0.1-0.2,0.2c-0.1,0.1-0.3,0.2-0.4,0.4c-0.2,0.1-0.3,0.2-0.5,0.4c-0.2,0.1-0.3,0.2-0.4,0.2
		c-0.1,0-0.2,0-0.3,0c-0.1,0-0.2,0-0.4-0.1c-0.1,0-0.2-0.1-0.3-0.2s-0.2-0.2-0.2-0.4c0-0.3,0-0.5,0.2-0.7c0.2-0.2,0.4-0.4,0.7-0.4
		c0.1,0,0.2,0,0.4,0c0.2,0,0.4,0.1,0.6,0.1c0.2,0.1,0.4,0.1,0.5,0.2C100.7,99.1,100.8,99.2,100.8,99.3z M102.6,109.3
		c0,0.1-0.1,0.2-0.3,0.3c-0.2,0.1-0.3,0.2-0.4,0.2c-0.2,0-0.4-0.1-0.5-0.3c-0.2-0.2-0.3-0.5-0.4-0.8c-0.1-0.3-0.2-0.6-0.3-0.9
		c-0.1-0.3-0.2-0.5-0.2-0.6c-0.1-0.2-0.2-0.4-0.3-0.6c-0.1-0.2-0.2-0.5-0.3-0.7c-0.1-0.2-0.2-0.4-0.3-0.6c-0.1-0.2-0.1-0.3-0.1-0.3
		c0-0.3,0-0.5,0.1-0.7c0.1-0.2,0.2-0.3,0.3-0.4c0.2,0,0.3,0.1,0.5,0.3c0.2,0.2,0.4,0.5,0.6,0.9s0.4,0.8,0.6,1.2s0.3,0.9,0.5,1.3
		c0.1,0.4,0.3,0.7,0.3,1C102.5,109.1,102.6,109.3,102.6,109.3z"/>
	<path class="st2" d="M111.8,105.9c0,0.2,0,0.4,0,0.6c0,0.2-0.1,0.4-0.1,0.5c0,0.1-0.2,0.3-0.5,0.6c-0.3,0.3-0.6,0.7-1,1.1
		c-0.4,0.4-0.9,0.7-1.4,1.1c-0.5,0.3-1,0.5-1.5,0.6c-0.3,0-0.6,0-0.9-0.1c-0.3-0.1-0.6-0.2-0.9-0.4s-0.5-0.5-0.7-0.8
		c-0.2-0.3-0.3-0.8-0.4-1.3c-0.1-0.9,0-1.7,0.2-2.4c0.2-0.7,0.5-1.3,0.7-1.7c0.1-0.2,0.3-0.4,0.4-0.6c0.2-0.2,0.4-0.4,0.6-0.6
		c0.2-0.2,0.4-0.3,0.5-0.5s0.3-0.2,0.3-0.2c0.2,0,0.3,0,0.5,0.1s0.2,0.2,0.2,0.3c0,0.1,0,0.3-0.1,0.4c-0.1,0.1-0.2,0.2-0.3,0.4
		c-0.1,0.1-0.3,0.3-0.5,0.5c-0.2,0.2-0.4,0.5-0.6,0.8c-0.4,0.6-0.6,1.3-0.8,1.9c-0.2,0.6-0.2,1.2-0.2,1.7c0,0.5,0.2,0.8,0.6,1.1
		c0.4,0.2,0.7,0.4,1.1,0.3c0.7-0.1,1.3-0.3,1.8-0.6c0.5-0.4,0.9-0.7,1.3-1.1s0.6-0.8,0.8-1.1c0.2-0.3,0.4-0.5,0.5-0.5
		C111.7,105.4,111.8,105.6,111.8,105.9z"/>
	<path class="st2" d="M126.7,103.9c0,0.3-0.1,0.7-0.3,1.2c-0.3,0.5-0.6,1-1.1,1.5s-1,0.9-1.6,1.3c-0.6,0.4-1.3,0.6-2,0.7
		c-0.3,0-0.7,0-1-0.1c-0.4-0.1-0.7-0.2-1.1-0.4c-0.4-0.2-0.7-0.4-1-0.7s-0.5-0.6-0.7-1c-0.1,0.1-0.2,0.3-0.3,0.6
		c-0.1,0.3-0.3,0.5-0.4,0.8c-0.2,0.3-0.3,0.5-0.5,0.7c-0.2,0.2-0.4,0.3-0.6,0.3c-0.2,0-0.4-0.1-0.6-0.3c-0.2-0.2-0.3-0.5-0.4-0.8
		c-0.1-0.3-0.2-0.6-0.3-0.8c-0.1-0.3-0.1-0.4-0.1-0.5c0-0.2,0-0.6,0.1-1.2c0.1-0.6,0.2-1.3,0.4-1.9c0.2-0.7,0.5-1.3,0.8-1.8
		c0.3-0.5,0.8-0.8,1.3-0.9c0.2,0,0.3,0.1,0.4,0.2c0.1,0.2,0.1,0.3,0.1,0.5l0.1,0.8c0.1,0.1,0.2,0.1,0.3,0.1c0.1,0,0.2,0,0.3,0.1
		c0.1,0,0.2,0.1,0.2,0.2c0.1,0.1,0.1,0.2,0.1,0.4c0,0.1,0,0.2,0,0.3c0,0.1,0,0.2,0,0.3c0,0.5,0.1,0.9,0.2,1.4
		c0.1,0.4,0.3,0.8,0.5,1.2c0.2,0.3,0.6,0.6,1,0.8c0.4,0.2,0.9,0.3,1.5,0.2c0.8-0.1,1.4-0.3,2-0.7c0.5-0.4,0.9-0.8,1.3-1.2
		s0.6-0.8,0.8-1.2c0.2-0.4,0.4-0.5,0.5-0.5C126.5,103.6,126.7,103.7,126.7,103.9z M117.1,103.5c0-0.1,0-0.1-0.1-0.2
		c0-0.1-0.1-0.1-0.1-0.2c0-0.1,0-0.1,0-0.2c0-0.1,0-0.1,0-0.2c0-0.1,0-0.1-0.1-0.1c0,0-0.1-0.1-0.1-0.1c-0.2,0.1-0.3,0.2-0.5,0.5
		c-0.1,0.3-0.3,0.6-0.4,1c-0.1,0.4-0.2,0.7-0.3,1.1c-0.1,0.4-0.1,0.7-0.1,0.9c0,0.1,0.1,0.3,0.2,0.6c0.1,0.3,0.2,0.5,0.3,0.5
		c0.2-0.7,0.5-1.3,0.7-1.9C117.1,104.7,117.2,104.1,117.1,103.5z"/>
	<path class="st2" d="M133.6,96.7c-0.2,0.3-0.5,0.6-0.9,0.9c-0.4,0.3-0.8,0.6-1.2,0.8c-0.4,0.3-0.8,0.5-1.1,0.7
		c-0.3,0.2-0.5,0.3-0.5,0.4c0,0.1,0.1,0.2,0.2,0.5c0.1,0.3,0.2,0.6,0.3,0.9c0.1,0.4,0.3,0.7,0.4,1.1c0.1,0.4,0.3,0.7,0.4,1
		c0.1,0.2,0.1,0.4,0.2,0.7c0.1,0.3,0.2,0.6,0.2,0.8c0.1,0.3,0.1,0.5,0.2,0.8c0.1,0.2,0.1,0.3,0.1,0.4c0,0.3,0,0.6-0.1,0.8
		c-0.1,0.3-0.2,0.5-0.4,0.5c-0.1,0-0.2,0-0.3-0.1s-0.2-0.2-0.3-0.3c-0.1-0.1-0.1-0.2-0.2-0.3c0-0.1-0.1-0.2-0.1-0.2c0,0,0-0.1,0-0.2
		c0-0.1,0-0.2,0-0.2c0-0.3-0.1-0.8-0.3-1.5c-0.1-0.2-0.2-0.5-0.3-0.9c-0.1-0.4-0.3-0.8-0.4-1.2c-0.2-0.5-0.4-1-0.6-1.6
		c-0.1-0.2-0.1-0.4-0.2-0.4c-0.1,0-0.3,0.1-0.6,0.3s-0.6,0.4-1,0.7c-0.4,0.3-0.7,0.5-1.1,0.8s-0.8,0.6-1.1,0.8
		c-0.3,0.3-0.6,0.5-0.9,0.6c-0.2,0.2-0.4,0.3-0.5,0.3c-0.2,0-0.4,0-0.6-0.2c-0.2-0.1-0.2-0.3-0.3-0.5c0-0.1,0.1-0.3,0.4-0.5
		c0.3-0.2,0.6-0.5,1-0.8c0.4-0.3,0.9-0.6,1.4-0.9c0.5-0.3,0.9-0.6,1.4-0.9c0.4-0.3,0.9-0.6,1.5-0.9c-0.2-0.8-0.4-1.5-0.6-2.2
		c-0.1-0.5-0.3-1.1-0.4-1.5c-0.1-0.5-0.2-0.7-0.2-0.7c0-0.2,0-0.4,0.1-0.5c0.1-0.1,0.2-0.2,0.3-0.2c0.2,0,0.3,0.1,0.4,0.4
		c0.3,1,0.5,1.8,0.8,2.5c0.2,0.7,0.5,1.3,0.7,1.8c0.2,0,0.4-0.2,0.8-0.4c0.4-0.2,0.8-0.4,1.2-0.7c0.4-0.2,0.8-0.4,1.1-0.6
		c0.3-0.2,0.5-0.3,0.6-0.3c0.1,0,0.2,0,0.2,0.1S133.5,96.6,133.6,96.7z"/>
	<path class="st2" d="M136.6,96.2c0,0-0.1,0.1-0.2,0.2c-0.1,0.1-0.3,0.2-0.4,0.4c-0.2,0.1-0.3,0.2-0.5,0.4c-0.2,0.1-0.3,0.2-0.4,0.2
		c-0.1,0-0.2,0-0.3,0c-0.1,0-0.2,0-0.4-0.1c-0.1,0-0.2-0.1-0.3-0.2s-0.2-0.2-0.2-0.4c0-0.3,0-0.5,0.2-0.7c0.2-0.2,0.4-0.4,0.7-0.4
		c0.1,0,0.2,0,0.4,0c0.2,0,0.4,0.1,0.6,0.1c0.2,0.1,0.4,0.1,0.5,0.2C136.5,96,136.6,96.1,136.6,96.2z M138.3,106.2
		c0,0.1-0.1,0.2-0.3,0.3c-0.2,0.1-0.3,0.2-0.4,0.2c-0.2,0-0.4-0.1-0.5-0.3c-0.2-0.2-0.3-0.5-0.4-0.8c-0.1-0.3-0.2-0.6-0.3-0.9
		c-0.1-0.3-0.2-0.5-0.2-0.6c-0.1-0.2-0.2-0.4-0.3-0.6c-0.1-0.2-0.2-0.5-0.3-0.7c-0.1-0.2-0.2-0.4-0.3-0.6c-0.1-0.2-0.1-0.3-0.1-0.3
		c0-0.3,0-0.5,0.1-0.7c0.1-0.2,0.2-0.3,0.3-0.4c0.2,0,0.3,0.1,0.5,0.3c0.2,0.2,0.4,0.5,0.6,0.9c0.2,0.4,0.4,0.8,0.6,1.2
		c0.2,0.4,0.3,0.9,0.5,1.3c0.1,0.4,0.3,0.7,0.3,1C138.3,106,138.3,106.1,138.3,106.2z"/>
	<path class="st2" d="M144.5,102.1c0,0.4,0,0.8-0.1,1.1s-0.2,0.7-0.3,1c-0.2,0.3-0.3,0.5-0.6,0.7c-0.2,0.2-0.5,0.3-0.8,0.3
		c-0.5,0-0.9-0.1-1.2-0.3c-0.3-0.3-0.6-0.6-0.7-0.9c-0.2-0.4-0.3-0.7-0.4-1.1c-0.1-0.4-0.1-0.7-0.1-0.9c0-0.3,0-0.7,0.1-1.1
		c0.1-0.4,0.2-0.8,0.3-1.2s0.3-0.7,0.5-0.9c0.2-0.3,0.4-0.4,0.6-0.4c0.1,0,0.1,0,0.3,0c0.1,0,0.2,0.1,0.4,0.1
		c0.1,0.1,0.3,0.1,0.4,0.2c0.1,0.1,0.2,0.2,0.2,0.4c0.2,0,0.4,0.1,0.6,0.2c0.2,0.1,0.3,0.2,0.3,0.3c0.2,0.5,0.3,0.9,0.4,1.4
		C144.5,101.4,144.5,101.8,144.5,102.1z M143.3,101.7c0-0.3-0.1-0.5-0.2-0.8c-0.1-0.3-0.2-0.6-0.4-0.9c0,0-0.1,0-0.1,0
		c-0.1,0-0.1,0-0.2,0c0,0-0.1,0-0.1,0c-0.2,0-0.4,0.1-0.5,0.2c-0.1,0.1-0.2,0.3-0.2,0.5c0,0.2-0.1,0.4-0.1,0.6c0,0.2,0,0.4,0,0.6
		c0,0.2,0,0.4,0.1,0.7c0,0.2,0.1,0.5,0.2,0.7c0.1,0.2,0.2,0.4,0.3,0.5c0.1,0.1,0.3,0.2,0.5,0.2c0.2,0,0.3-0.1,0.4-0.3
		c0.1-0.2,0.2-0.4,0.2-0.7c0.1-0.3,0.1-0.5,0.1-0.8S143.3,101.8,143.3,101.7z"/>
	<path class="st2" d="M155.5,103.7c0,0.1,0,0.2-0.1,0.3c-0.1,0.1-0.1,0.2-0.2,0.3c-0.1,0.1-0.2,0.2-0.3,0.3
		c-0.1,0.1-0.2,0.1-0.3,0.1c-0.3,0-0.7,0-1.2-0.1c-0.5-0.1-0.9-0.3-1.2-0.5c-0.3-0.3-0.6-0.6-0.9-1c-0.3-0.4-0.6-1-0.9-1.8
		c-0.1,0.8-0.3,1.6-0.5,2.4c-0.2,0.8-0.5,1.5-1.1,2.2c0,0-0.1,0.1-0.2,0.1c-0.1,0-0.3,0-0.4-0.2s-0.2-0.2-0.2-0.4
		c0-0.1,0-0.4-0.1-0.9c-0.1-0.5-0.1-1-0.2-1.5c-0.1-0.6-0.2-1.1-0.2-1.7c-0.1-0.6-0.1-1.1-0.2-1.4c0-0.2,0-0.4,0-0.7
		c0-0.3,0-0.6,0.1-0.8c0,0,0.1-0.1,0.2-0.2c0.1-0.1,0.2-0.2,0.4-0.2c0.1,0,0.2,0.1,0.2,0.2c0,0.2,0.1,0.3,0.1,0.5l0.4,4.2
		c0,0.1,0,0.2,0.1,0.4s0.1,0.3,0.2,0.3c0.2-0.4,0.3-1,0.4-1.6c0.1-0.6,0.2-1.2,0.4-1.7s0.2-1,0.4-1.4s0.3-0.6,0.4-0.6
		c0.2,0,0.3,0,0.4,0.1c0.1,0.1,0.2,0.2,0.3,0.4c0.1,0.5,0.2,1,0.3,1.4c0.1,0.4,0.2,0.8,0.3,1.1c0.1,0.3,0.3,0.6,0.4,0.9
		s0.4,0.5,0.7,0.7c0.3,0.2,0.6,0.4,0.9,0.4c0.3,0.1,0.6,0.1,0.8,0.1c0.1,0,0.2,0,0.3-0.1c0.1-0.1,0.2-0.1,0.3-0.1
		c0.1,0,0.1,0.1,0.2,0.2C155.5,103.6,155.5,103.6,155.5,103.7z"/>
</g>
<g class="st1">
	<path class="st2" d="M59,132.7c0,0.4,0,0.8-0.1,1.1c-0.1,0.4-0.2,0.7-0.3,1c-0.2,0.3-0.3,0.5-0.6,0.7c-0.2,0.2-0.5,0.3-0.8,0.3
		c-0.5,0-0.9-0.1-1.2-0.3c-0.3-0.3-0.6-0.6-0.7-0.9c-0.2-0.4-0.3-0.7-0.4-1.1c-0.1-0.4-0.1-0.7-0.1-0.9c0-0.3,0-0.7,0.1-1.1
		c0.1-0.4,0.2-0.8,0.3-1.2s0.3-0.7,0.5-0.9c0.2-0.3,0.4-0.4,0.6-0.4c0.1,0,0.1,0,0.3,0c0.1,0,0.2,0.1,0.4,0.1
		c0.1,0.1,0.3,0.1,0.4,0.2c0.1,0.1,0.2,0.2,0.2,0.4c0.2,0,0.4,0.1,0.6,0.2c0.2,0.1,0.3,0.2,0.3,0.3c0.2,0.5,0.3,0.9,0.4,1.4
		C58.9,132,59,132.4,59,132.7z M57.8,132.3c0-0.3-0.1-0.5-0.2-0.8c-0.1-0.3-0.2-0.6-0.4-0.9c0,0-0.1,0-0.1,0c-0.1,0-0.1,0-0.2,0
		c0,0-0.1,0-0.1,0c-0.2,0-0.4,0.1-0.5,0.2c-0.1,0.1-0.2,0.3-0.2,0.5c0,0.2-0.1,0.4-0.1,0.6c0,0.2,0,0.4,0,0.6c0,0.2,0,0.4,0.1,0.7
		s0.1,0.5,0.2,0.7c0.1,0.2,0.2,0.4,0.3,0.5c0.1,0.1,0.3,0.2,0.5,0.2c0.2,0,0.3-0.1,0.4-0.3c0.1-0.2,0.2-0.4,0.2-0.7
		c0-0.3,0.1-0.5,0.1-0.8C57.8,132.6,57.8,132.4,57.8,132.3z"/>
	<path class="st2" d="M69.3,118.2c0,0,0,0.1,0,0.2c0,0.1,0,0.2,0,0.3c0,0.1,0,0.2-0.1,0.2c0,0-0.1,0-0.1,0s-0.1,0-0.1,0
		c-0.3-0.1-0.7-0.3-1.2-0.4c-0.5-0.2-1-0.3-1.6-0.2c-0.6,0.1-1.1,0.3-1.5,0.9c-0.4,0.5-0.6,1.1-0.8,1.8s-0.2,1.3-0.2,1.9
		c0,0.6,0,1.1,0,1.3c0,0.2,0.1,0.5,0.2,0.9s0.2,0.8,0.4,1.3c0.1,0.4,0.3,0.8,0.5,1.2c0.2,0.4,0.3,0.6,0.5,0.6c0.1,0,0.3,0,0.6-0.1
		c0.3,0,0.5-0.1,0.7-0.1c0.3,0,0.6,0,0.9,0c0.3,0,0.6,0,0.8,0c0.1,0,0.2,0,0.3,0c0.1,0,0.3,0,0.4,0c0.2,0,0.3,0,0.4,0.1
		c0.1,0,0.2,0.1,0.2,0.2c0,0.1,0,0.2-0.2,0.3s-0.3,0.2-0.4,0.2c-0.2,0.1-0.3,0.1-0.5,0.1c-0.2,0-0.3,0.1-0.4,0.1s-0.2,0-0.4,0
		c-0.1,0-0.3,0-0.5,0c-0.2,0-0.3,0-0.5,0c-0.2,0-0.3,0-0.4,0c-0.3,0-0.5,0.1-0.5,0.1c-0.1,0.1-0.1,0.2-0.1,0.4
		c0,0.3,0.2,0.6,0.5,1.1s0.6,0.9,0.9,1.4c0.3,0.5,0.6,1,0.9,1.5c0.3,0.5,0.5,1,0.5,1.5c0,0.1,0,0.3,0,0.5s-0.1,0.5-0.1,0.8
		c-0.1,0.3-0.2,0.5-0.3,0.7c-0.1,0.2-0.3,0.3-0.5,0.3c-0.1,0-0.3,0-0.4-0.1c-0.1-0.1-0.2-0.2-0.2-0.4c0-0.3,0-0.6,0.2-0.8
		c0.1-0.3,0.2-0.5,0.2-0.8c0-0.1-0.1-0.4-0.3-0.7c-0.2-0.3-0.4-0.7-0.6-1.1c-0.2-0.4-0.5-0.8-0.8-1.3c-0.3-0.4-0.5-0.9-0.8-1.2
		c-0.2-0.4-0.4-0.7-0.6-0.9c-0.2-0.2-0.3-0.4-0.3-0.4c-0.3,0.2-0.7,0.3-1.1,0.5c-0.4,0.2-0.7,0.4-1,0.7c-0.1,0.1-0.2,0.2-0.3,0.2
		c-0.2,0-0.4,0-0.5-0.2c-0.2-0.1-0.3-0.3-0.3-0.5c0-0.2,0-0.4,0.1-0.5c0.1-0.1,0.2-0.2,0.3-0.3c0.2-0.1,0.4-0.2,0.7-0.4
		c0.3-0.1,0.7-0.3,1-0.4c0.1,0,0.2-0.1,0.3-0.1c0.1,0,0.2-0.1,0.1-0.2c-0.1-0.2-0.2-0.4-0.3-0.7s-0.3-0.6-0.4-1
		c-0.1-0.4-0.3-0.9-0.4-1.4c-0.1-0.5-0.2-1.1-0.3-1.6c-0.1-0.6,0-1.3,0-2.1c0.1-0.7,0.3-1.4,0.6-2c0.3-0.6,0.7-1.2,1.1-1.6
		c0.5-0.4,1.1-0.7,1.8-0.7c0.3,0,0.7,0,1.1,0c0.4,0,0.8,0.1,1.1,0.2c0.3,0.1,0.6,0.2,0.9,0.4C69.2,117.8,69.3,118,69.3,118.2z"/>
	<path class="st2" d="M91.2,130.8c0,0.2,0,0.4,0,0.6c0,0.2-0.1,0.4-0.1,0.5c0,0.1-0.2,0.3-0.4,0.6c-0.3,0.3-0.6,0.7-1,1.1
		c-0.4,0.4-0.9,0.7-1.4,1.1c-0.5,0.3-1,0.5-1.5,0.6c-0.3,0-0.6,0-0.9-0.1c-0.3-0.1-0.6-0.2-0.9-0.4s-0.5-0.5-0.7-0.8
		c-0.2-0.3-0.3-0.8-0.4-1.3c-0.1-0.9,0-1.7,0.2-2.4s0.5-1.3,0.7-1.7c0.1-0.2,0.3-0.4,0.4-0.6c0.2-0.2,0.4-0.4,0.6-0.6
		c0.2-0.2,0.4-0.3,0.5-0.5c0.2-0.1,0.3-0.2,0.3-0.2c0.2,0,0.3,0,0.5,0.1s0.2,0.2,0.2,0.3c0,0.1,0,0.3-0.1,0.4
		c-0.1,0.1-0.2,0.2-0.3,0.4c-0.1,0.1-0.3,0.3-0.5,0.5c-0.2,0.2-0.4,0.5-0.6,0.8c-0.4,0.6-0.6,1.3-0.8,1.9c-0.2,0.6-0.2,1.2-0.2,1.7
		c0,0.5,0.2,0.8,0.6,1.1c0.4,0.2,0.7,0.4,1.1,0.3c0.7-0.1,1.3-0.3,1.8-0.6s0.9-0.7,1.3-1.1c0.3-0.4,0.6-0.8,0.8-1.1
		c0.2-0.3,0.4-0.5,0.5-0.5C91.1,130.3,91.2,130.5,91.2,130.8z"/>
	<path class="st2" d="M99.4,126.7c0,0.1,0,0.2-0.1,0.3c-0.1,0.1-0.2,0.2-0.4,0.2c-0.1,0.1-0.3,0.1-0.4,0.2c-0.1,0-0.3,0.1-0.3,0.1
		c-0.3,0-0.5,0-0.5,0c-0.1,0-0.2,0-0.2,0c-0.4,0-0.8,0.1-1.1,0.2c-0.3,0.1-0.5,0.2-0.6,0.4c-0.1,0.2-0.2,0.4-0.2,0.6
		c0,0.2,0,0.5,0,0.9c0.1,0.6,0.1,1,0.2,1.4c0.1,0.3,0.1,0.6,0.2,0.8c0.1,0.2,0.1,0.4,0.2,0.5c0.1,0.1,0.1,0.2,0.1,0.3
		c0,0.1-0.1,0.3-0.2,0.5c-0.1,0.2-0.3,0.3-0.4,0.3c-0.2,0-0.4-0.2-0.6-0.5c-0.2-0.4-0.4-0.8-0.5-1.3c-0.2-0.5-0.3-1-0.4-1.5
		c-0.1-0.5-0.2-0.9-0.2-1.2c0-0.3,0-0.6,0-0.9c0-0.3,0.1-0.5,0.2-0.7c0.1-0.2,0.2-0.4,0.3-0.5c0.1-0.1,0.2-0.2,0.3-0.2
		c0.1,0,0.2,0,0.2,0.1c0.1,0.1,0.1,0.1,0.2,0.2c0,0.1,0.1,0.1,0.1,0.2c0,0.1,0.1,0.1,0.2,0.1c0.2,0,0.4-0.1,0.8-0.3s0.8-0.3,1.3-0.4
		c0.5,0,0.8-0.1,1.1-0.1c0.2,0,0.5,0,0.7,0.1c0.1,0,0.1,0,0.2,0.1C99.4,126.5,99.4,126.6,99.4,126.7z"/>
	<path class="st2" d="M102.8,122.2c0,0-0.1,0.1-0.2,0.2c-0.1,0.1-0.3,0.2-0.4,0.4c-0.2,0.1-0.3,0.2-0.5,0.4
		c-0.2,0.1-0.3,0.2-0.4,0.2c-0.1,0-0.2,0-0.3,0s-0.2,0-0.4-0.1c-0.1,0-0.2-0.1-0.3-0.2c-0.1-0.1-0.2-0.2-0.2-0.4
		c0-0.3,0-0.5,0.2-0.7c0.2-0.2,0.4-0.4,0.7-0.4c0.1,0,0.2,0,0.4,0c0.2,0,0.4,0.1,0.6,0.1s0.4,0.1,0.5,0.2S102.8,122.1,102.8,122.2z
		 M104.6,132.2c0,0.1-0.1,0.2-0.3,0.3c-0.2,0.1-0.3,0.2-0.4,0.2c-0.2,0-0.4-0.1-0.5-0.3c-0.2-0.2-0.3-0.5-0.4-0.8
		c-0.1-0.3-0.2-0.6-0.3-0.8c-0.1-0.3-0.2-0.5-0.2-0.6c-0.1-0.2-0.2-0.4-0.3-0.6c-0.1-0.2-0.2-0.5-0.3-0.7c-0.1-0.2-0.2-0.4-0.3-0.6
		c-0.1-0.2-0.1-0.3-0.1-0.3c0-0.3,0-0.5,0.1-0.7c0.1-0.2,0.2-0.3,0.3-0.4c0.2,0,0.3,0.1,0.5,0.3s0.4,0.5,0.6,0.9
		c0.2,0.4,0.4,0.8,0.6,1.2s0.3,0.9,0.5,1.3c0.1,0.4,0.3,0.7,0.3,1S104.5,132.2,104.6,132.2z"/>
	<path class="st2" d="M112.5,121.6c-0.2,0.3-0.5,0.6-0.9,0.9c-0.4,0.3-0.8,0.6-1.2,0.8c-0.4,0.3-0.8,0.5-1.1,0.7
		c-0.3,0.2-0.5,0.3-0.5,0.4s0.1,0.2,0.2,0.5c0.1,0.3,0.2,0.6,0.3,0.9c0.1,0.4,0.3,0.7,0.4,1.1c0.1,0.4,0.3,0.7,0.4,1
		c0.1,0.2,0.1,0.4,0.2,0.7c0.1,0.3,0.2,0.6,0.2,0.8c0.1,0.3,0.1,0.5,0.2,0.8c0.1,0.2,0.1,0.3,0.1,0.4c0,0.3,0,0.6-0.1,0.8
		c-0.1,0.3-0.2,0.5-0.4,0.5c-0.1,0-0.2,0-0.3-0.1c-0.1-0.1-0.2-0.2-0.3-0.3c-0.1-0.1-0.1-0.2-0.2-0.3c0-0.1-0.1-0.2-0.1-0.2
		c0,0,0-0.1,0-0.2c0-0.1,0-0.2,0-0.2c0-0.3-0.1-0.8-0.3-1.5c-0.1-0.2-0.2-0.5-0.3-0.9c-0.1-0.4-0.3-0.8-0.4-1.2
		c-0.2-0.5-0.4-1-0.6-1.6c-0.1-0.2-0.2-0.4-0.2-0.4c-0.1,0-0.3,0.1-0.6,0.3c-0.3,0.2-0.6,0.4-1,0.7c-0.4,0.3-0.7,0.5-1.1,0.8
		s-0.8,0.6-1.1,0.8c-0.3,0.3-0.6,0.5-0.9,0.6c-0.2,0.2-0.4,0.3-0.5,0.3c-0.2,0-0.4,0-0.6-0.2c-0.2-0.1-0.2-0.3-0.3-0.5
		c0-0.1,0.1-0.3,0.4-0.5c0.3-0.2,0.6-0.5,1-0.8c0.4-0.3,0.9-0.6,1.4-0.9c0.5-0.3,0.9-0.6,1.4-0.9c0.4-0.3,0.9-0.5,1.5-0.9
		c-0.2-0.8-0.4-1.5-0.6-2.2c-0.1-0.5-0.3-1.1-0.4-1.5c-0.1-0.5-0.2-0.7-0.2-0.7c0-0.2,0-0.4,0.1-0.5c0.1-0.1,0.2-0.2,0.3-0.2
		c0.2,0,0.3,0.1,0.4,0.4c0.3,1,0.5,1.8,0.8,2.5s0.5,1.3,0.7,1.8c0.2,0,0.4-0.2,0.8-0.4c0.4-0.2,0.8-0.4,1.2-0.7
		c0.4-0.2,0.8-0.4,1.1-0.6c0.3-0.2,0.5-0.3,0.6-0.3c0.1,0,0.2,0,0.2,0.1C112.4,121.5,112.5,121.6,112.5,121.6z"/>
	<path class="st2" d="M115.5,121.1c0,0-0.1,0.1-0.2,0.2c-0.1,0.1-0.3,0.2-0.4,0.4c-0.2,0.1-0.3,0.2-0.5,0.4
		c-0.2,0.1-0.3,0.2-0.4,0.2c-0.1,0-0.2,0-0.3,0c-0.1,0-0.2,0-0.4-0.1c-0.1,0-0.2-0.1-0.3-0.2c-0.1-0.1-0.2-0.2-0.2-0.4
		c0-0.3,0-0.5,0.2-0.7c0.2-0.2,0.4-0.4,0.7-0.4c0.1,0,0.2,0,0.4,0s0.4,0.1,0.6,0.1c0.2,0.1,0.4,0.1,0.5,0.2
		C115.4,120.9,115.5,121,115.5,121.1z M117.3,131.1c0,0.1-0.1,0.2-0.3,0.3c-0.2,0.1-0.3,0.2-0.4,0.2c-0.2,0-0.4-0.1-0.5-0.3
		c-0.2-0.2-0.3-0.5-0.4-0.8c-0.1-0.3-0.2-0.6-0.3-0.9c-0.1-0.3-0.2-0.5-0.2-0.6c-0.1-0.2-0.2-0.4-0.3-0.6s-0.2-0.5-0.3-0.7
		c-0.1-0.2-0.2-0.4-0.3-0.6c-0.1-0.2-0.1-0.3-0.1-0.3c0-0.3,0-0.5,0.1-0.7c0.1-0.2,0.2-0.3,0.3-0.4c0.2,0,0.3,0.1,0.5,0.3
		s0.4,0.5,0.6,0.9c0.2,0.4,0.4,0.8,0.6,1.2c0.2,0.4,0.3,0.9,0.5,1.3c0.1,0.4,0.3,0.7,0.3,1C117.2,130.9,117.3,131.1,117.3,131.1z"/>
	<path class="st2" d="M126.5,127.7c0,0.2,0,0.4,0,0.6c0,0.2-0.1,0.4-0.1,0.5c0,0.1-0.2,0.3-0.4,0.6c-0.3,0.3-0.6,0.7-1,1.1
		c-0.4,0.4-0.9,0.7-1.4,1.1c-0.5,0.3-1,0.5-1.5,0.6c-0.3,0-0.6,0-0.9-0.1c-0.3-0.1-0.6-0.2-0.9-0.4s-0.5-0.5-0.7-0.8
		c-0.2-0.3-0.3-0.8-0.4-1.3c-0.1-0.9,0-1.7,0.2-2.4s0.5-1.3,0.7-1.7c0.1-0.2,0.3-0.4,0.4-0.6c0.2-0.2,0.4-0.4,0.6-0.6
		c0.2-0.2,0.4-0.3,0.5-0.5c0.2-0.1,0.3-0.2,0.3-0.2c0.2,0,0.3,0,0.5,0.1s0.2,0.2,0.2,0.3c0,0.1,0,0.3-0.1,0.4
		c-0.1,0.1-0.2,0.2-0.3,0.4c-0.1,0.1-0.3,0.3-0.5,0.5c-0.2,0.2-0.4,0.5-0.6,0.8c-0.4,0.6-0.6,1.3-0.8,1.9c-0.2,0.6-0.2,1.2-0.2,1.7
		c0,0.5,0.2,0.8,0.6,1.1c0.4,0.2,0.7,0.4,1.1,0.3c0.7-0.1,1.3-0.3,1.8-0.6s0.9-0.7,1.3-1.1c0.3-0.4,0.6-0.8,0.8-1.1
		c0.2-0.3,0.4-0.5,0.5-0.5C126.4,127.3,126.5,127.4,126.5,127.7z"/>
	<path class="st2" d="M141.4,125.7c0,0.3-0.1,0.7-0.3,1.2c-0.3,0.5-0.6,1-1.1,1.5c-0.5,0.5-1,0.9-1.6,1.3c-0.6,0.4-1.3,0.6-2,0.7
		c-0.3,0-0.7,0-1-0.1s-0.7-0.2-1.1-0.4c-0.4-0.2-0.7-0.4-1-0.7c-0.3-0.3-0.5-0.6-0.7-1c-0.1,0.1-0.2,0.3-0.3,0.6
		c-0.1,0.3-0.3,0.5-0.4,0.8s-0.3,0.5-0.5,0.7c-0.2,0.2-0.4,0.3-0.6,0.3c-0.2,0-0.4-0.1-0.6-0.3c-0.2-0.2-0.3-0.5-0.4-0.8
		c-0.1-0.3-0.2-0.6-0.3-0.8c-0.1-0.3-0.1-0.4-0.1-0.5c0-0.2,0-0.6,0.1-1.2c0.1-0.6,0.2-1.3,0.4-1.9c0.2-0.7,0.5-1.3,0.8-1.8
		c0.3-0.5,0.8-0.8,1.3-0.9c0.2,0,0.3,0.1,0.4,0.2s0.1,0.3,0.1,0.5l0.1,0.8c0.1,0.1,0.2,0.1,0.3,0.1c0.1,0,0.2,0,0.3,0.1
		c0.1,0,0.2,0.1,0.2,0.2c0.1,0.1,0.1,0.2,0.1,0.4c0,0.1,0,0.2,0,0.3c0,0.1,0,0.2,0,0.3c0,0.5,0.1,0.9,0.2,1.4
		c0.1,0.4,0.3,0.8,0.5,1.2c0.2,0.3,0.6,0.6,1,0.8c0.4,0.2,0.9,0.3,1.5,0.2c0.8-0.1,1.4-0.3,2-0.7c0.5-0.4,0.9-0.8,1.3-1.2
		c0.3-0.4,0.6-0.8,0.8-1.2c0.2-0.4,0.4-0.5,0.5-0.5C141.2,125.4,141.4,125.5,141.4,125.7z M131.8,125.3c0-0.1,0-0.1-0.1-0.2
		c0-0.1-0.1-0.1-0.1-0.2c0-0.1,0-0.1,0-0.2c0-0.1,0-0.1,0-0.2c0-0.1,0-0.1-0.1-0.1c0,0-0.1-0.1-0.1-0.1c-0.2,0-0.3,0.2-0.5,0.5
		c-0.1,0.3-0.3,0.6-0.4,1c-0.1,0.4-0.2,0.7-0.3,1.1c-0.1,0.4-0.1,0.7-0.1,0.9c0,0.1,0.1,0.3,0.2,0.6c0.1,0.3,0.2,0.5,0.3,0.5
		c0.2-0.7,0.5-1.3,0.7-1.9C131.8,126.5,131.9,125.9,131.8,125.3z"/>
	<path class="st2" d="M145.6,130.5c-0.1,0.1-0.2,0.1-0.4,0.1c-0.2,0-0.3-0.1-0.5-0.4c-0.2-0.3-0.4-0.7-0.6-1.1
		c-0.2-0.5-0.4-0.9-0.6-1.5c-0.2-0.5-0.4-1-0.5-1.5c-0.1-0.5-0.3-0.9-0.4-1.2s-0.1-0.5-0.1-0.5c0-0.1-0.1-0.3-0.1-0.6
		c-0.1-0.3-0.2-0.8-0.4-1.4c-0.2-0.6-0.3-1.5-0.5-2.5c-0.2-1-0.4-2.3-0.7-3.8c0-0.2,0-0.4,0-0.6c0-0.3,0.1-0.4,0.3-0.4
		c0.3,0,0.5,0.1,0.6,0.5c0.2,0.3,0.3,0.7,0.4,1.2c0.1,0.5,0.2,1,0.3,1.6c0.1,0.5,0.2,1,0.3,1.4c0.1,0.6,0.2,1.1,0.3,1.5
		c0.1,0.5,0.2,0.9,0.3,1.4c0.1,0.5,0.2,0.9,0.4,1.4c0.1,0.5,0.3,1,0.5,1.6l1.5,4.4C145.7,130.3,145.7,130.4,145.6,130.5z"/>
</g>
<g class="st1">
	<path class="st2" d="M64.1,152.9c0,0.1,0,0.2-0.1,0.3c-0.1,0.1-0.2,0.2-0.4,0.2c-0.1,0.1-0.3,0.1-0.4,0.2c-0.1,0-0.3,0.1-0.3,0.1
		c-0.3,0-0.5,0-0.5,0c-0.1,0-0.2,0-0.2,0c-0.4,0-0.8,0.1-1.1,0.2s-0.5,0.2-0.6,0.4c-0.1,0.2-0.2,0.4-0.2,0.6s0,0.5,0,0.9
		c0,0.6,0.1,1,0.2,1.4c0.1,0.3,0.1,0.6,0.2,0.8c0.1,0.2,0.1,0.4,0.2,0.5c0.1,0.1,0.1,0.2,0.1,0.3c0,0.1-0.1,0.3-0.2,0.5
		c-0.1,0.2-0.3,0.3-0.4,0.3c-0.2,0-0.4-0.2-0.6-0.5s-0.4-0.8-0.6-1.3c-0.2-0.5-0.3-1-0.4-1.5s-0.2-0.9-0.2-1.2c0-0.3,0-0.6,0-0.9
		c0-0.3,0.1-0.5,0.2-0.7c0.1-0.2,0.2-0.4,0.3-0.5c0.1-0.1,0.2-0.2,0.3-0.2c0.1,0,0.2,0,0.2,0.1c0.1,0.1,0.1,0.1,0.2,0.2
		s0.1,0.1,0.1,0.2c0,0.1,0.1,0.1,0.2,0.1c0.2,0,0.4-0.1,0.8-0.3c0.3-0.2,0.8-0.3,1.3-0.4c0.5,0,0.8-0.1,1.1-0.1c0.2,0,0.5,0,0.7,0.1
		c0.1,0,0.1,0,0.2,0.1C64.1,152.7,64.1,152.8,64.1,152.9z"/>
	<path class="st2" d="M74.2,157.4c0,0,0,0.1,0,0.2c0,0.1-0.1,0.3-0.2,0.5c0,0.1-0.2,0.2-0.3,0.4s-0.4,0.4-0.7,0.5
		c-0.3,0.2-0.7,0.4-1.1,0.5c-0.4,0.2-0.9,0.3-1.5,0.3c-0.4,0-0.8,0-1.2-0.2c-0.4-0.2-0.8-0.4-1.1-0.7c-0.3-0.3-0.6-0.8-0.9-1.3
		c-0.2-0.5-0.4-1.2-0.5-1.9c-0.1-0.7,0-1.4,0.1-2c0.1-0.6,0.3-1.2,0.5-1.7c0.2-0.5,0.5-0.9,0.8-1.2c0.3-0.3,0.6-0.5,1-0.5
		c0.3,0,0.6,0,0.9,0.1c0.3,0.1,0.6,0.2,0.8,0.4c0.3,0.2,0.5,0.3,0.6,0.6c0.2,0.2,0.3,0.4,0.3,0.7c0,0.3-0.1,0.6-0.3,0.9
		c-0.2,0.3-0.5,0.6-0.8,0.9s-0.6,0.5-1,0.7c-0.3,0.2-0.6,0.3-0.8,0.3c-0.1,0-0.2,0-0.3-0.1c-0.1-0.1-0.1-0.2-0.2-0.4
		c0-0.2,0.1-0.5,0.3-0.6c0.2-0.2,0.4-0.3,0.7-0.5c0.3-0.1,0.5-0.3,0.7-0.5c0.2-0.2,0.3-0.4,0.3-0.7c0,0-0.1-0.1-0.2-0.3
		c-0.1-0.1-0.4-0.2-0.7-0.2c-0.2,0-0.4,0.1-0.6,0.4s-0.4,0.5-0.6,0.9c-0.2,0.4-0.3,0.8-0.4,1.3c-0.1,0.5-0.1,1-0.1,1.6
		c0,0.5,0.2,0.9,0.4,1.2c0.2,0.4,0.5,0.7,0.7,0.9c0.3,0.2,0.6,0.4,1,0.5s0.7,0.2,1.1,0.1c0.3,0,0.6-0.1,0.9-0.3
		c0.3-0.1,0.6-0.3,0.9-0.5c0.3-0.2,0.5-0.3,0.7-0.4c0.2-0.1,0.3-0.2,0.4-0.2c0.1,0,0.1,0,0.2,0.1S74.2,157.4,74.2,157.4z"/>
	<path class="st2" d="M88.7,153.4c0,0.3-0.1,0.7-0.3,1.2c-0.3,0.5-0.6,1-1.1,1.5s-1,0.9-1.6,1.3c-0.6,0.4-1.3,0.6-2,0.7
		c-0.3,0-0.7,0-1-0.1s-0.7-0.2-1.1-0.4c-0.4-0.2-0.7-0.4-1-0.7s-0.5-0.6-0.7-1c-0.1,0.1-0.2,0.3-0.3,0.6c-0.1,0.3-0.3,0.5-0.4,0.8
		c-0.2,0.3-0.3,0.5-0.5,0.7c-0.2,0.2-0.4,0.3-0.6,0.3c-0.2,0-0.4-0.1-0.6-0.3c-0.2-0.2-0.3-0.5-0.4-0.8c-0.1-0.3-0.2-0.6-0.3-0.8
		c-0.1-0.3-0.1-0.4-0.1-0.5c0-0.2,0-0.6,0.1-1.2c0.1-0.6,0.2-1.3,0.4-1.9c0.2-0.7,0.5-1.3,0.8-1.8c0.3-0.5,0.8-0.8,1.3-0.9
		c0.2,0,0.3,0.1,0.4,0.2s0.1,0.3,0.1,0.5l0.1,0.8c0.1,0.1,0.2,0.1,0.3,0.1c0.1,0,0.2,0,0.3,0.1s0.2,0.1,0.2,0.2
		c0.1,0.1,0.1,0.2,0.1,0.4c0,0.1,0,0.2,0,0.3c0,0.1,0,0.2,0,0.3c0,0.5,0.1,0.9,0.2,1.4c0.1,0.4,0.3,0.8,0.5,1.2
		c0.2,0.3,0.6,0.6,1,0.8c0.4,0.2,0.9,0.3,1.5,0.2c0.8-0.1,1.4-0.3,2-0.7c0.5-0.4,0.9-0.8,1.3-1.2c0.3-0.4,0.6-0.8,0.8-1.2
		c0.2-0.4,0.4-0.5,0.5-0.5C88.5,153.1,88.6,153.2,88.7,153.4z M79.1,153c0-0.1,0-0.1-0.1-0.2c0-0.1-0.1-0.1-0.1-0.2
		c0-0.1,0-0.1,0-0.2c0-0.1,0-0.1,0-0.2c0-0.1,0-0.1-0.1-0.1c0,0-0.1-0.1-0.1-0.1c-0.2,0-0.3,0.2-0.5,0.5c-0.1,0.3-0.3,0.6-0.4,1
		c-0.1,0.4-0.2,0.7-0.3,1.1c-0.1,0.4-0.1,0.7-0.1,0.9c0,0.1,0.1,0.3,0.2,0.6c0.1,0.3,0.2,0.5,0.3,0.5c0.2-0.7,0.5-1.3,0.7-1.9
		C79.1,154.2,79.2,153.6,79.1,153z"/>
	<path class="st2" d="M92.9,158.2c-0.1,0.1-0.2,0.1-0.4,0.1c-0.2,0-0.3-0.1-0.5-0.4c-0.2-0.3-0.4-0.7-0.6-1.1
		c-0.2-0.5-0.4-0.9-0.6-1.5s-0.4-1-0.5-1.5c-0.1-0.5-0.3-0.9-0.4-1.2c-0.1-0.3-0.1-0.5-0.1-0.5c0-0.1-0.1-0.3-0.1-0.6
		c-0.1-0.3-0.2-0.8-0.4-1.4c-0.2-0.6-0.3-1.5-0.5-2.5c-0.2-1-0.4-2.3-0.7-3.8c0-0.2,0-0.4,0-0.6c0-0.3,0.1-0.4,0.3-0.4
		c0.3,0,0.5,0.1,0.6,0.5c0.2,0.3,0.3,0.7,0.4,1.2c0.1,0.5,0.2,1,0.3,1.6c0.1,0.5,0.2,1,0.3,1.4c0.1,0.6,0.2,1.1,0.3,1.5
		c0.1,0.5,0.2,0.9,0.3,1.4c0.1,0.5,0.2,0.9,0.4,1.4c0.1,0.5,0.3,1,0.5,1.6l1.5,4.4C93,158,93,158.1,92.9,158.2z"/>
	<path class="st2" d="M113.4,144.9c0.1,0,0.1,0.1,0.1,0.2c0,0.1,0,0.3-0.2,0.4c-0.1,0.1-0.2,0.3-0.1,0.5c0,0,0,0.2,0,0.4
		c0,0.2,0,0.5,0.1,0.8c0,0.3,0,0.6,0.1,0.8c0,0.3,0,0.4,0,0.4l0.2,2.7c0,0,0,0.1,0,0.4c0,0.2,0,0.5,0,0.8c0,0.3,0,0.7,0,1
		c0,0.4,0,0.7-0.1,0.9c0,0.1-0.1,0.1-0.1,0.2c-0.1,0-0.2,0.1-0.3,0.1c-0.1,0-0.2,0.1-0.3,0.1c-0.1,0-0.1,0-0.2,0
		c-0.2,0-0.4-0.1-0.7-0.3c-0.2-0.2-0.5-0.5-0.7-0.7c-0.2-0.3-0.4-0.5-0.6-0.8c-0.2-0.2-0.3-0.4-0.3-0.4c-0.1,0.3-0.1,0.5-0.2,0.8
		c-0.1,0.3-0.1,0.5-0.2,0.7c-0.1,0.2-0.2,0.4-0.3,0.6c-0.1,0.2-0.3,0.2-0.4,0.3c-0.2,0-0.4-0.1-0.7-0.3c-0.3-0.2-0.5-0.5-0.8-0.8
		c-0.3-0.3-0.5-0.7-0.8-1.1c-0.3-0.4-0.5-0.8-0.7-1.2c-0.2-0.4-0.4-0.7-0.5-1.1c-0.1-0.3-0.2-0.6-0.2-0.8c0-0.1,0-0.2,0.1-0.3
		c0.1-0.1,0.2-0.2,0.3-0.2c0.3,0,0.4,0,0.6,0.2c0,0,0.1,0.2,0.2,0.5c0.1,0.3,0.3,0.6,0.5,1c0.2,0.4,0.5,0.8,0.7,1.2
		c0.3,0.4,0.6,0.8,0.9,1c0.1-0.2,0.2-0.5,0.2-0.8s0.1-0.6,0.1-0.9c0-0.3,0-0.5,0-0.7c0-0.2,0-0.4,0-0.6c0-0.1-0.1-0.3-0.1-0.4
		c0-0.1-0.1-0.2-0.1-0.4c0-0.1,0-0.2,0-0.3c0-0.4,0.1-0.7,0.5-0.7c0.3,0,0.5,0,0.6,0.2c0.2,0.2,0.3,0.3,0.4,0.6
		c0.1,0.2,0.2,0.4,0.2,0.6s0.1,0.4,0.1,0.5c0.2,0.4,0.3,0.8,0.5,1.1c0.1,0.3,0.4,0.7,0.7,1c0.1-0.1,0.1-0.2,0.2-0.3
		c0-0.1,0.1-0.3,0.1-0.4c0-0.1,0-0.3,0-0.4c0-0.1,0-0.2,0-0.3l-0.5-5.4c0-0.1,0-0.2,0.1-0.3c0.1-0.1,0.2-0.2,0.3-0.3
		s0.2-0.2,0.3-0.2s0.2-0.1,0.2-0.1c0.1,0,0.2,0,0.3,0.1C113.2,144.9,113.3,144.9,113.4,144.9z"/>
	<path class="st2" d="M121,150.3c0,0.4,0,0.8-0.1,1.1s-0.2,0.7-0.3,1c-0.2,0.3-0.3,0.5-0.6,0.7c-0.2,0.2-0.5,0.3-0.8,0.3
		c-0.5,0-0.9-0.1-1.2-0.3c-0.3-0.3-0.6-0.6-0.7-0.9c-0.2-0.4-0.3-0.7-0.4-1.1c-0.1-0.4-0.1-0.7-0.1-0.9c0-0.3,0-0.7,0.1-1.1
		c0.1-0.4,0.2-0.8,0.3-1.2s0.3-0.7,0.5-0.9c0.2-0.3,0.4-0.4,0.6-0.4c0.1,0,0.1,0,0.3,0c0.1,0,0.2,0.1,0.4,0.1
		c0.1,0.1,0.3,0.1,0.4,0.2c0.1,0.1,0.2,0.2,0.2,0.4c0.2,0,0.4,0.1,0.6,0.2c0.2,0.1,0.3,0.2,0.3,0.3c0.2,0.5,0.3,0.9,0.4,1.4
		C120.9,149.7,121,150,121,150.3z M119.8,150c0-0.3-0.1-0.5-0.2-0.8c-0.1-0.3-0.2-0.6-0.4-0.9c0,0-0.1,0-0.1,0c-0.1,0-0.1,0-0.2,0
		c0,0-0.1,0-0.1,0c-0.2,0-0.4,0.1-0.5,0.2c-0.1,0.1-0.2,0.3-0.2,0.5c0,0.2-0.1,0.4-0.1,0.6c0,0.2,0,0.4,0,0.6c0,0.2,0,0.4,0.1,0.7
		c0,0.2,0.1,0.5,0.2,0.7c0.1,0.2,0.2,0.4,0.3,0.5c0.1,0.1,0.3,0.2,0.5,0.2c0.2,0,0.3-0.1,0.4-0.3c0.1-0.2,0.2-0.4,0.2-0.7
		c0-0.3,0.1-0.5,0.1-0.8S119.8,150.1,119.8,150z"/>
	<path class="st2" d="M129.9,147.2c0,0.1,0,0.2-0.1,0.3s-0.2,0.2-0.4,0.2c-0.1,0.1-0.3,0.1-0.4,0.2c-0.1,0-0.3,0.1-0.3,0.1
		c-0.3,0-0.5,0-0.5,0c-0.1,0-0.2,0-0.2,0c-0.4,0-0.8,0.1-1.1,0.2c-0.3,0.1-0.5,0.2-0.6,0.4c-0.1,0.2-0.2,0.4-0.2,0.6
		c0,0.2,0,0.5,0,0.9c0.1,0.6,0.1,1,0.2,1.4c0.1,0.3,0.1,0.6,0.2,0.8c0.1,0.2,0.1,0.4,0.2,0.5c0.1,0.1,0.1,0.2,0.1,0.3
		c0,0.1-0.1,0.3-0.2,0.5c-0.1,0.2-0.3,0.3-0.4,0.3c-0.2,0-0.4-0.2-0.6-0.5c-0.2-0.4-0.4-0.8-0.6-1.3c-0.2-0.5-0.3-1-0.4-1.5
		c-0.1-0.5-0.2-0.9-0.2-1.2c0-0.3,0-0.6,0-0.9c0-0.3,0.1-0.5,0.2-0.7c0.1-0.2,0.2-0.4,0.3-0.5c0.1-0.1,0.2-0.2,0.3-0.2
		c0.1,0,0.2,0,0.2,0.1c0.1,0.1,0.1,0.1,0.2,0.2c0,0.1,0.1,0.1,0.1,0.2c0,0.1,0.1,0.1,0.2,0.1c0.2,0,0.4-0.1,0.8-0.3
		c0.3-0.2,0.8-0.3,1.3-0.4c0.5,0,0.8-0.1,1.1-0.1c0.2,0,0.5,0,0.7,0.1c0.1,0,0.1,0,0.2,0.1C129.8,146.9,129.9,147,129.9,147.2z"/>
	<path class="st2" d="M136.1,154.4c-0.1,0.1-0.2,0.1-0.4,0.1c-0.2,0-0.3-0.1-0.5-0.4c-0.2-0.3-0.4-0.7-0.6-1.1
		c-0.2-0.5-0.4-0.9-0.6-1.5s-0.4-1-0.5-1.5c-0.1-0.5-0.3-0.9-0.4-1.2c-0.1-0.3-0.1-0.5-0.1-0.5c0-0.1-0.1-0.3-0.1-0.6
		s-0.2-0.8-0.4-1.4c-0.2-0.6-0.3-1.5-0.5-2.5c-0.2-1-0.4-2.3-0.7-3.8c0-0.2,0-0.4,0-0.6c0-0.3,0.1-0.4,0.3-0.4
		c0.3,0,0.5,0.1,0.6,0.5c0.2,0.3,0.3,0.7,0.4,1.2c0.1,0.5,0.2,1,0.3,1.6c0.1,0.5,0.2,1,0.3,1.4c0.1,0.6,0.2,1.1,0.3,1.5
		c0.1,0.5,0.2,0.9,0.3,1.4c0.1,0.5,0.2,0.9,0.4,1.4c0.1,0.5,0.3,1,0.5,1.6l1.5,4.4C136.3,154.2,136.2,154.3,136.1,154.4z"/>
	<path class="st2" d="M145.6,149.7c0,0.1,0,0.2-0.1,0.3c-0.1,0.1-0.1,0.2-0.1,0.3c0,0.2,0.1,0.4,0.2,0.6c0.1,0.2,0.2,0.4,0.2,0.6
		c0,0.2,0,0.4-0.2,0.4c-0.2,0-0.3,0-0.4,0.1c-0.1,0.1-0.2,0.1-0.4,0.2c-0.1,0-0.2-0.1-0.4-0.3c-0.1-0.1-0.2-0.2-0.2-0.3
		c0,0,0,0-0.1,0.1c-0.1,0.1-0.2,0.2-0.5,0.4c-0.2,0.1-0.5,0.3-0.9,0.4c-0.4,0.1-0.9,0.2-1.5,0.3c-0.5,0-1,0-1.3-0.2
		c-0.4-0.2-0.7-0.5-1-0.8s-0.5-0.7-0.6-1.2c-0.2-0.4-0.3-0.9-0.3-1.4c0-0.4,0-0.8,0-1.2c0.1-0.4,0.2-0.7,0.3-1.1
		c0.2-0.3,0.4-0.6,0.6-0.8c0.3-0.2,0.6-0.3,0.9-0.4c0.3,0,0.7,0,1.1,0.2c0.4,0.2,0.7,0.4,1,0.6c0.3,0.2,0.6,0.5,1,0.9
		c-0.4-1.4-0.7-2.6-1-3.7c-0.1-0.5-0.3-0.9-0.4-1.4c-0.1-0.5-0.2-0.9-0.3-1.3c-0.1-0.4-0.2-0.7-0.3-0.9c-0.1-0.3-0.1-0.4-0.1-0.5
		c0-0.1-0.1-0.3-0.1-0.6c0-0.3-0.1-0.6-0.1-0.9c0-0.3-0.1-0.6-0.1-0.8c0-0.2-0.1-0.4-0.1-0.5c-0.1-0.2-0.2-0.4-0.3-0.7
		c-0.1-0.3-0.2-0.4-0.2-0.4c0-0.1,0-0.2,0.1-0.3c0.1-0.1,0.2-0.2,0.3-0.2c0.1,0,0.2,0,0.3,0c0.1,0,0.2,0.1,0.3,0.1
		c0.1,0.1,0.2,0.2,0.2,0.4c0.1,0.2,0.2,0.4,0.2,0.8c0,0.2,0.1,0.5,0.2,1c0.1,0.5,0.3,1,0.4,1.6s0.3,1.1,0.4,1.7s0.2,0.9,0.3,1.2
		c0.1,0.7,0.3,1.4,0.6,2.2c0.2,0.8,0.4,1.5,0.7,2.3c0.2,0.7,0.4,1.4,0.7,1.9c0.2,0.5,0.4,0.9,0.5,1.1c0,0.1,0.1,0.1,0.2,0.1
		C145.5,149.5,145.6,149.6,145.6,149.7z M143.7,150.4c0-0.1-0.2-0.3-0.4-0.7c-0.2-0.4-0.5-0.8-0.9-1.2c-0.4-0.4-0.7-0.8-1.2-1.2
		c-0.4-0.3-0.8-0.5-1.2-0.5c-0.3,0-0.5,0.3-0.7,0.8c-0.1,0.5-0.2,1-0.1,1.6c0.1,0.7,0.3,1.2,0.8,1.6c0.4,0.4,0.9,0.5,1.4,0.5
		c0.4,0,0.9-0.1,1.3-0.3C143.2,150.8,143.5,150.6,143.7,150.4z"/>
</g>
<g class="st1">
	<path class="st2" d="M88.5,177.8c0,0.1,0,0.2-0.1,0.3c-0.1,0.1-0.1,0.2-0.1,0.3c0,0.2,0.1,0.4,0.2,0.6s0.2,0.4,0.2,0.6
		c0,0.2,0,0.4-0.2,0.4c-0.2,0-0.3,0-0.4,0.1s-0.2,0.1-0.4,0.2c-0.1,0-0.2-0.1-0.4-0.3c-0.1-0.1-0.2-0.2-0.2-0.3c0,0,0,0-0.1,0.1
		c-0.1,0.1-0.2,0.2-0.5,0.4c-0.2,0.1-0.5,0.3-0.9,0.4s-0.9,0.2-1.5,0.3c-0.5,0-1,0-1.3-0.2c-0.4-0.2-0.7-0.5-1-0.8
		c-0.3-0.3-0.5-0.7-0.6-1.2s-0.3-0.9-0.3-1.4c0-0.4,0-0.8,0-1.2c0.1-0.4,0.2-0.7,0.3-1.1c0.2-0.3,0.4-0.6,0.6-0.8
		c0.3-0.2,0.6-0.3,0.9-0.4c0.3,0,0.7,0,1.1,0.2c0.4,0.2,0.7,0.4,1,0.6c0.3,0.2,0.6,0.5,1,0.9c-0.4-1.4-0.7-2.6-1-3.7
		c-0.1-0.5-0.3-0.9-0.4-1.4s-0.2-0.9-0.3-1.3s-0.2-0.7-0.3-0.9c-0.1-0.3-0.1-0.4-0.1-0.5c0-0.1-0.1-0.3-0.1-0.6
		c0-0.3-0.1-0.6-0.1-0.9s-0.1-0.6-0.1-0.8c0-0.2-0.1-0.4-0.1-0.5c-0.1-0.2-0.2-0.4-0.3-0.7c-0.1-0.3-0.2-0.4-0.2-0.4
		c0-0.1,0-0.2,0.1-0.3c0.1-0.1,0.2-0.2,0.3-0.2c0.1,0,0.2,0,0.3,0c0.1,0,0.2,0.1,0.3,0.1c0.1,0.1,0.2,0.2,0.2,0.4
		c0.1,0.2,0.2,0.4,0.2,0.8c0,0.2,0.1,0.5,0.3,1c0.1,0.5,0.3,1,0.4,1.6s0.3,1.1,0.4,1.7s0.2,0.9,0.3,1.2c0.1,0.7,0.3,1.4,0.6,2.2
		c0.2,0.8,0.4,1.5,0.7,2.3s0.4,1.4,0.7,1.9c0.2,0.6,0.4,0.9,0.5,1.1c0,0.1,0.1,0.1,0.2,0.1C88.3,177.6,88.4,177.7,88.5,177.8z
		 M86.5,178.5c0-0.1-0.2-0.3-0.4-0.7c-0.2-0.4-0.5-0.8-0.9-1.2c-0.4-0.4-0.7-0.8-1.2-1.2c-0.4-0.3-0.8-0.5-1.2-0.5
		c-0.3,0-0.5,0.3-0.7,0.8s-0.2,1-0.1,1.6c0.1,0.7,0.3,1.2,0.7,1.6c0.4,0.4,0.9,0.5,1.4,0.5c0.4,0,0.9-0.1,1.3-0.3
		C86,178.9,86.3,178.7,86.5,178.5z"/>
	<path class="st2" d="M103.2,175.2c0,0.3-0.1,0.7-0.3,1.2c-0.3,0.5-0.6,1-1.1,1.5s-1,0.9-1.6,1.3c-0.6,0.4-1.3,0.6-2,0.7
		c-0.3,0-0.7,0-1-0.1c-0.4-0.1-0.7-0.2-1.1-0.4c-0.4-0.2-0.7-0.4-1-0.7c-0.3-0.3-0.5-0.6-0.7-1c-0.1,0.1-0.2,0.3-0.3,0.6
		c-0.1,0.3-0.3,0.5-0.4,0.8s-0.3,0.5-0.5,0.7c-0.2,0.2-0.4,0.3-0.6,0.3c-0.2,0-0.4-0.1-0.6-0.3c-0.2-0.2-0.3-0.5-0.4-0.8
		c-0.1-0.3-0.2-0.6-0.3-0.8c-0.1-0.3-0.1-0.4-0.1-0.5c0-0.2,0-0.6,0.1-1.2c0.1-0.6,0.2-1.3,0.4-1.9c0.2-0.7,0.5-1.3,0.8-1.8
		c0.3-0.5,0.8-0.8,1.3-0.9c0.2,0,0.3,0.1,0.4,0.2c0.1,0.2,0.1,0.3,0.1,0.5l0.1,0.8c0.1,0.1,0.2,0.1,0.3,0.1c0.1,0,0.2,0,0.3,0.1
		c0.1,0,0.2,0.1,0.2,0.2c0.1,0.1,0.1,0.2,0.1,0.4c0,0.1,0,0.2,0,0.3c0,0.1,0,0.2,0,0.3c0,0.5,0.1,0.9,0.2,1.4
		c0.1,0.4,0.3,0.8,0.5,1.2c0.2,0.3,0.6,0.6,1,0.8c0.4,0.2,0.9,0.3,1.5,0.2c0.8-0.1,1.4-0.3,2-0.7c0.5-0.4,0.9-0.8,1.3-1.2
		c0.3-0.4,0.6-0.8,0.8-1.2c0.2-0.4,0.4-0.5,0.5-0.5C103,174.9,103.2,175,103.2,175.2z M93.6,174.9c0-0.1,0-0.1-0.1-0.2
		c0-0.1-0.1-0.1-0.1-0.2c0-0.1,0-0.1,0-0.2c0-0.1,0-0.1,0-0.2c0-0.1,0-0.1-0.1-0.1c0,0-0.1-0.1-0.1-0.1c-0.2,0-0.3,0.2-0.5,0.5
		c-0.1,0.3-0.3,0.6-0.4,1c-0.1,0.4-0.2,0.7-0.3,1.1c-0.1,0.4-0.1,0.7-0.1,0.9c0,0.1,0.1,0.3,0.2,0.6c0.1,0.3,0.2,0.5,0.3,0.5
		c0.2-0.7,0.5-1.3,0.7-1.9C93.6,176,93.7,175.4,93.6,174.9z"/>
	<path class="st2" d="M110.1,168c-0.2,0.3-0.5,0.6-0.9,0.9c-0.4,0.3-0.8,0.6-1.2,0.8c-0.4,0.3-0.8,0.5-1.1,0.7
		c-0.3,0.2-0.5,0.3-0.5,0.4c0,0.1,0.1,0.2,0.2,0.5s0.2,0.6,0.3,0.9c0.1,0.4,0.3,0.7,0.4,1.1c0.1,0.4,0.3,0.7,0.4,1
		c0.1,0.2,0.1,0.4,0.2,0.7c0.1,0.3,0.2,0.6,0.2,0.8c0.1,0.3,0.1,0.5,0.2,0.8c0.1,0.2,0.1,0.3,0.1,0.4c0,0.3,0,0.6-0.1,0.8
		c-0.1,0.3-0.2,0.5-0.4,0.5c-0.1,0-0.2,0-0.3-0.1s-0.2-0.2-0.3-0.3c-0.1-0.1-0.1-0.2-0.2-0.3c0-0.1-0.1-0.2-0.1-0.2c0,0,0-0.1,0-0.2
		c0-0.1,0-0.2,0-0.2c0-0.3-0.1-0.8-0.3-1.5c-0.1-0.2-0.2-0.5-0.3-0.9c-0.1-0.4-0.3-0.8-0.4-1.2c-0.2-0.5-0.4-1-0.6-1.6
		c-0.1-0.2-0.1-0.4-0.2-0.4c-0.1,0-0.3,0.1-0.6,0.3c-0.3,0.2-0.6,0.4-1,0.7c-0.4,0.3-0.7,0.5-1.1,0.8s-0.8,0.6-1.1,0.8
		c-0.3,0.3-0.6,0.5-0.9,0.6c-0.2,0.2-0.4,0.3-0.5,0.3c-0.2,0-0.4,0-0.6-0.2c-0.2-0.1-0.2-0.3-0.3-0.5c0-0.1,0.1-0.3,0.4-0.5
		c0.3-0.2,0.6-0.5,1-0.8c0.4-0.3,0.9-0.6,1.4-0.9c0.5-0.3,0.9-0.6,1.4-0.9c0.4-0.3,0.9-0.5,1.5-0.9c-0.2-0.8-0.4-1.5-0.6-2.2
		c-0.1-0.5-0.3-1.1-0.4-1.5s-0.2-0.7-0.2-0.7c0-0.2,0-0.4,0.1-0.5c0.1-0.1,0.2-0.2,0.3-0.2c0.2,0,0.3,0.1,0.4,0.4
		c0.3,1,0.5,1.8,0.8,2.5c0.2,0.7,0.5,1.3,0.7,1.8c0.2-0.1,0.4-0.2,0.8-0.4c0.4-0.2,0.8-0.4,1.2-0.7c0.4-0.2,0.8-0.4,1.1-0.6
		c0.3-0.2,0.5-0.3,0.6-0.3c0.1,0,0.2,0,0.2,0.1C110,167.9,110,167.9,110.1,168z"/>
	<path class="st2" d="M124.9,173.3c0,0.3-0.1,0.7-0.3,1.2c-0.3,0.5-0.6,1-1.1,1.5s-1,0.9-1.6,1.3c-0.6,0.4-1.3,0.6-2,0.7
		c-0.3,0-0.7,0-1-0.1c-0.4-0.1-0.7-0.2-1.1-0.4c-0.4-0.2-0.7-0.4-1-0.7c-0.3-0.3-0.5-0.6-0.7-1c-0.1,0.1-0.2,0.3-0.3,0.6
		c-0.1,0.3-0.3,0.5-0.4,0.8s-0.3,0.5-0.5,0.7c-0.2,0.2-0.4,0.3-0.6,0.3c-0.2,0-0.4-0.1-0.6-0.3s-0.3-0.5-0.4-0.8
		c-0.1-0.3-0.2-0.6-0.3-0.8c-0.1-0.3-0.1-0.4-0.1-0.5c0-0.2,0-0.6,0.1-1.2c0.1-0.6,0.2-1.3,0.4-1.9c0.2-0.7,0.5-1.3,0.8-1.8
		c0.3-0.5,0.8-0.8,1.3-0.9c0.2,0,0.3,0.1,0.4,0.2c0.1,0.2,0.1,0.3,0.1,0.5l0.1,0.8c0.1,0.1,0.2,0.1,0.3,0.1c0.1,0,0.2,0,0.3,0.1
		c0.1,0,0.2,0.1,0.2,0.2c0.1,0.1,0.1,0.2,0.1,0.4c0,0.1,0,0.2,0,0.3c0,0.1,0,0.2,0,0.3c0,0.5,0.1,0.9,0.2,1.4
		c0.1,0.4,0.3,0.8,0.5,1.2c0.2,0.3,0.6,0.6,1,0.8c0.4,0.2,0.9,0.3,1.5,0.2c0.8-0.1,1.4-0.3,2-0.7c0.5-0.4,0.9-0.8,1.3-1.2
		c0.3-0.4,0.6-0.8,0.8-1.2c0.2-0.4,0.3-0.5,0.5-0.5C124.7,173,124.8,173.1,124.9,173.3z M115.3,173c0-0.1,0-0.1-0.1-0.2
		c0-0.1-0.1-0.1-0.1-0.2c0-0.1,0-0.1,0-0.2c0-0.1,0-0.1,0-0.2c0-0.1,0-0.1-0.1-0.1c0,0-0.1-0.1-0.1-0.1c-0.2,0.1-0.3,0.2-0.5,0.5
		c-0.1,0.3-0.3,0.6-0.4,1c-0.1,0.4-0.2,0.7-0.3,1.1c-0.1,0.4-0.1,0.7-0.1,0.9c0,0.1,0.1,0.3,0.2,0.6c0.1,0.3,0.2,0.5,0.3,0.5
		c0.2-0.7,0.5-1.3,0.7-1.9C115.3,174.1,115.4,173.5,115.3,173z"/>
	<path class="st2" d="M127.3,177c0,0.1,0,0.2-0.1,0.3c-0.1,0.1-0.2,0.2-0.3,0.3c-0.1,0.1-0.3,0.2-0.4,0.2c-0.1,0.1-0.2,0.1-0.2,0.1
		c-0.2,0-0.3,0-0.4-0.1s-0.2-0.2-0.2-0.3c-0.1-0.1-0.1-0.2-0.1-0.3c0-0.1,0-0.2,0-0.2c0-0.1,0-0.2,0-0.3c0-0.1,0.1-0.2,0.1-0.4
		c0.1-0.1,0.1-0.2,0.2-0.3c0.1-0.1,0.2-0.1,0.3-0.2c0.2,0,0.5,0.1,0.7,0.2C127.1,176.5,127.2,176.7,127.3,177z"/>
</g>
<path class="st3" d="M174.6,246.2c5.6-6.4,14.6-18.6,19.8-36.4c2.6-9,7.2-24.5,2.6-43.2c-5.5-22.1-20.3-35.3-26.5-40.1"/>
<path class="st3" d="M183.5,245.6c-3.2,0.5-6.4,1-9.6,1.5c0-3.2-0.1-6.4-0.2-9.7"/>
</svg>
