<?xml version="1.0" encoding="utf-8"?>
<!-- Generator: Adobe Illustrator 22.1.0, SVG Export Plug-In . SVG Version: 6.00 Build 0)  -->
<svg version="1.1" id="Layer_1" xmlns="http://www.w3.org/2000/svg" xmlns:xlink="http://www.w3.org/1999/xlink" x="0px" y="0px"
	 viewBox="0 0 250 250" style="enable-background:new 0 0 250 250;" xml:space="preserve">
<style type="text/css">
	.st0{fill:none;}
	.st1{enable-background:new    ;}
	.st2{fill:#1D3766;}
	.st3{fill:none;stroke:#1D3766;stroke-linecap:round;stroke-linejoin:round;stroke-miterlimit:10;}
</style>
<rect x="5" y="23.6" transform="matrix(0.9962 -8.715506e-02 8.715506e-02 0.9962 -9.9058 11.7189)" class="st0" width="248.5" height="191.4"/>
<g class="st1">
	<path class="st2" d="M39.5,46.5c0.1,0.8,0,1.5-0.3,1.9s-0.6,0.9-1.2,1.4c-0.1,0.1-0.3,0.2-0.6,0.4c-0.2,0.1-0.5,0.3-0.8,0.4
		c-0.3,0.1-0.6,0.3-0.9,0.4c-0.3,0.1-0.6,0.2-0.9,0.2c-0.8,0.1-1.4,0-1.9-0.1c-0.4-0.1-0.7-0.3-0.7-0.6c0-0.3,0-0.5,0.2-0.6
		c0.1-0.2,0.2-0.3,0.4-0.3l0.3,0.2c0.1,0.1,0.2,0.2,0.4,0.2s0.4,0.1,0.8,0.1c0.3,0,0.7-0.1,1.2-0.3c0.5-0.2,0.9-0.4,1.3-0.7
		c0.4-0.3,0.8-0.6,1.1-1c0.3-0.4,0.4-0.8,0.4-1.3c0-0.4-0.4-0.8-1-1.1c-0.7-0.3-1.6-0.4-3-0.5c-0.7,0-1.4,0-2-0.1S31,45.1,30.4,45
		c-0.5-0.2-1-0.4-1.3-0.7c-0.3-0.3-0.5-0.7-0.6-1.1c0-0.4,0-0.9,0.3-1.3c0.2-0.4,0.5-0.8,0.8-1.2c0.3-0.4,0.7-0.7,1.1-1
		c0.4-0.3,0.7-0.6,0.9-0.8c0.2-0.1,0.5-0.3,0.9-0.6c0.4-0.2,0.8-0.5,1.2-0.7c0.4-0.2,0.8-0.4,1.3-0.6c0.4-0.2,0.8-0.3,1.1-0.3
		c0.4,0,0.6,0,0.8,0.2c0.1,0.2,0.2,0.5,0.3,0.8c0,0.3,0,0.6,0,1c0,0.3-0.1,0.7-0.2,1c-0.1,0.3-0.1,0.6-0.2,0.9
		c-0.1,0.2-0.1,0.4-0.1,0.5c-0.1,0.2-0.1,0.3-0.2,0.3s-0.1,0.1-0.2,0.1c-0.1,0-0.1,0-0.1-0.1c0-0.1,0-0.2,0-0.3c0-0.2,0-0.3,0.1-0.6
		c0-0.2,0-0.5,0-0.7s0-0.5,0-0.8c0-0.4-0.1-0.7-0.1-0.9c-0.1-0.2-0.2-0.3-0.5-0.2c-0.3,0-0.6,0.1-1,0.3s-0.8,0.4-1.3,0.6
		c-0.5,0.3-0.9,0.6-1.3,1c-0.4,0.4-0.8,0.8-1.1,1.2c-0.3,0.4-0.6,0.8-0.8,1.1s-0.3,0.6-0.3,0.8c0,0.2,0.2,0.4,0.5,0.6
		c0.3,0.2,0.7,0.3,1.2,0.4c0.5,0.1,1,0.2,1.6,0.2c0.6,0.1,1.1,0.1,1.7,0.1c0.5,0,1,0,1.5,0.1c0.5,0,1.1,0.1,1.5,0.3
		c0.5,0.2,0.9,0.4,1.3,0.7S39.4,46,39.5,46.5z"/>
	<path class="st2" d="M48.5,46.8c0,0,0,0.1,0,0.2c0,0.1-0.1,0.3-0.2,0.5c0,0.1-0.2,0.2-0.3,0.4c-0.2,0.2-0.4,0.4-0.7,0.5
		c-0.3,0.2-0.7,0.4-1.1,0.5c-0.4,0.2-0.9,0.3-1.5,0.3c-0.4,0-0.8,0-1.2-0.2c-0.4-0.2-0.8-0.4-1.1-0.7c-0.3-0.3-0.6-0.8-0.9-1.3
		c-0.2-0.5-0.4-1.2-0.5-1.9c-0.1-0.7,0-1.4,0.1-2c0.1-0.6,0.3-1.2,0.5-1.7c0.2-0.5,0.5-0.9,0.8-1.2c0.3-0.3,0.6-0.5,1-0.5
		c0.3,0,0.6,0,0.9,0.1c0.3,0.1,0.6,0.2,0.8,0.4c0.3,0.2,0.5,0.3,0.6,0.6c0.2,0.2,0.3,0.4,0.3,0.7c0,0.3-0.1,0.6-0.3,0.9
		S45.4,43,45,43.2c-0.3,0.3-0.6,0.5-1,0.7s-0.6,0.3-0.8,0.3c-0.1,0-0.2,0-0.3-0.1c-0.1-0.1-0.1-0.2-0.2-0.4c0-0.2,0.1-0.5,0.3-0.6
		c0.2-0.2,0.4-0.3,0.7-0.5c0.3-0.1,0.5-0.3,0.7-0.5c0.2-0.2,0.3-0.4,0.3-0.7c0,0-0.1-0.1-0.2-0.3c-0.1-0.1-0.4-0.2-0.7-0.2
		c-0.2,0-0.4,0.1-0.6,0.4c-0.2,0.2-0.4,0.5-0.6,0.9c-0.2,0.4-0.3,0.8-0.4,1.3c-0.1,0.5-0.1,1-0.1,1.6c0,0.5,0.2,0.9,0.4,1.2
		c0.2,0.4,0.5,0.7,0.7,0.9c0.3,0.2,0.6,0.4,1,0.5c0.4,0.1,0.7,0.2,1.1,0.1c0.3,0,0.6-0.1,0.9-0.3c0.3-0.1,0.6-0.3,0.9-0.5
		c0.3-0.2,0.5-0.3,0.7-0.4c0.2-0.1,0.3-0.2,0.4-0.2c0.1,0,0.1,0,0.2,0.1C48.5,46.7,48.5,46.8,48.5,46.8z"/>
	<path class="st2" d="M57.9,46c0,0,0,0.1,0,0.2c0,0.1-0.1,0.3-0.2,0.5c0,0.1-0.2,0.2-0.3,0.4c-0.2,0.2-0.4,0.4-0.7,0.5
		c-0.3,0.2-0.7,0.4-1.1,0.5c-0.4,0.2-0.9,0.3-1.5,0.3c-0.4,0-0.8,0-1.2-0.2c-0.4-0.2-0.8-0.4-1.1-0.7c-0.3-0.3-0.6-0.8-0.9-1.3
		c-0.2-0.5-0.4-1.2-0.5-1.9c-0.1-0.7,0-1.4,0.1-2c0.1-0.6,0.3-1.2,0.5-1.7c0.2-0.5,0.5-0.9,0.8-1.2c0.3-0.3,0.6-0.5,1-0.5
		c0.3,0,0.6,0,0.9,0.1c0.3,0.1,0.6,0.2,0.8,0.4c0.3,0.2,0.5,0.3,0.6,0.6c0.2,0.2,0.3,0.4,0.3,0.7c0,0.3-0.1,0.6-0.3,0.9
		c-0.2,0.3-0.5,0.6-0.8,0.9c-0.3,0.3-0.6,0.5-1,0.7c-0.3,0.2-0.6,0.3-0.8,0.3c-0.1,0-0.2,0-0.3-0.1c-0.1-0.1-0.1-0.2-0.2-0.4
		c0-0.2,0.1-0.5,0.3-0.6c0.2-0.2,0.4-0.3,0.7-0.5c0.3-0.1,0.5-0.3,0.7-0.5c0.2-0.2,0.3-0.4,0.3-0.7c0,0-0.1-0.1-0.2-0.3
		c-0.1-0.1-0.4-0.2-0.7-0.2c-0.2,0-0.4,0.1-0.6,0.4c-0.2,0.2-0.4,0.5-0.6,0.9c-0.2,0.4-0.3,0.8-0.4,1.3c-0.1,0.5-0.1,1-0.1,1.6
		c0,0.5,0.2,0.9,0.4,1.2c0.2,0.4,0.5,0.7,0.7,0.9c0.3,0.2,0.6,0.4,1,0.5c0.4,0.1,0.7,0.2,1.1,0.1c0.3,0,0.6-0.1,0.9-0.3
		c0.3-0.1,0.6-0.3,0.9-0.5c0.3-0.2,0.5-0.3,0.7-0.4c0.2-0.1,0.3-0.2,0.4-0.2c0.1,0,0.1,0,0.2,0.1C57.9,45.9,57.9,45.9,57.9,46z"/>
	<path class="st2" d="M75.5,41.4c0,0.4,0,0.8-0.1,1.1c-0.1,0.4-0.2,0.7-0.3,1c-0.2,0.3-0.3,0.5-0.6,0.7c-0.2,0.2-0.5,0.3-0.8,0.3
		c-0.5,0-0.9-0.1-1.2-0.3c-0.3-0.3-0.6-0.6-0.7-0.9c-0.2-0.4-0.3-0.7-0.4-1.1c-0.1-0.4-0.1-0.7-0.1-0.9c0-0.3,0-0.7,0.1-1.1
		c0.1-0.4,0.2-0.8,0.3-1.2s0.3-0.7,0.5-0.9c0.2-0.3,0.4-0.4,0.6-0.4c0.1,0,0.1,0,0.3,0c0.1,0,0.2,0.1,0.4,0.1
		c0.1,0.1,0.3,0.1,0.4,0.2c0.1,0.1,0.2,0.2,0.2,0.4c0.2,0,0.4,0.1,0.6,0.2c0.2,0.1,0.3,0.2,0.3,0.3c0.2,0.5,0.3,0.9,0.4,1.4
		C75.4,40.7,75.5,41.1,75.5,41.4z M74.3,41.1c0-0.3-0.1-0.5-0.2-0.8c-0.1-0.3-0.2-0.6-0.4-0.9c0,0-0.1,0-0.1,0c-0.1,0-0.1,0-0.2,0
		c0,0-0.1,0-0.1,0c-0.2,0-0.4,0.1-0.5,0.2c-0.1,0.1-0.2,0.3-0.2,0.5c0,0.2-0.1,0.4-0.1,0.6c0,0.2,0,0.4,0,0.6c0,0.2,0,0.4,0.1,0.7
		c0,0.2,0.1,0.5,0.2,0.7c0.1,0.2,0.2,0.4,0.3,0.5c0.1,0.1,0.3,0.2,0.5,0.2c0.2,0,0.3-0.1,0.4-0.3c0.1-0.2,0.2-0.4,0.2-0.7
		c0-0.3,0.1-0.5,0.1-0.8C74.3,41.3,74.3,41.2,74.3,41.1z"/>
	<path class="st2" d="M87.2,41.8c0,0.2-0.1,0.3-0.3,0.5c-0.2,0.2-0.4,0.4-0.7,0.6c-0.3,0.2-0.6,0.3-0.8,0.5
		c-0.3,0.1-0.5,0.2-0.6,0.2c-0.2,0-0.3,0-0.5-0.1c-0.2-0.1-0.4-0.2-0.6-0.3c-0.2-0.1-0.3-0.2-0.5-0.3c-0.1-0.1-0.2-0.2-0.3-0.2
		c0,0.1-0.1,0.2-0.2,0.3c-0.1,0.2-0.2,0.4-0.3,0.6c-0.1,0.2-0.3,0.4-0.4,0.5c-0.2,0.2-0.3,0.2-0.5,0.3c-0.5,0-0.9-0.2-1.3-0.6
		c-0.4-0.5-0.7-1-1-1.6c-0.3-0.6-0.5-1.2-0.7-1.8c-0.2-0.6-0.3-1-0.3-1.2c0-0.1,0-0.2,0.2-0.3s0.2-0.1,0.3-0.1c0.3,0,0.4,0,0.5,0.2
		c0.1,0.2,0.2,0.3,0.2,0.5c0,0.2,0.1,0.4,0.2,0.8c0.1,0.4,0.3,0.8,0.5,1.2c0.2,0.4,0.4,0.8,0.6,1.1S81,43,81.1,43
		c0.2,0,0.4-0.2,0.6-0.5c0.1-0.3,0.3-0.7,0.3-1.1c0.1-0.4,0.1-0.8,0.1-1.1c0-0.4,0-0.6,0-0.7c0,0,0-0.1,0-0.2c0-0.1,0-0.2,0-0.3
		c0-0.1,0-0.2,0-0.3s0-0.2,0-0.2c0-0.1,0-0.2-0.1-0.2c-0.1,0-0.1-0.1-0.1-0.3c0-0.1,0-0.2,0.1-0.3s0.3-0.2,0.7-0.2
		c0.1,0,0.3,0,0.3,0.1c0.1,0.1,0.2,0.2,0.2,0.3s0.1,0.2,0.1,0.3c0,0.1,0,0.2,0,0.2c0,0,0,0.1,0,0.4c0,0.2,0,0.5,0,0.8
		c0,0.3,0,0.5,0,0.8c0,0.3,0,0.4,0,0.5c0,0.1,0,0.2,0.1,0.3c0.1,0.2,0.1,0.3,0.2,0.5c0.1,0.2,0.2,0.3,0.3,0.4
		c0.1,0.1,0.2,0.2,0.4,0.2c0.2,0,0.4-0.1,0.6-0.1c0.2-0.1,0.4-0.2,0.5-0.3c0.2-0.1,0.3-0.2,0.5-0.3c0.1-0.1,0.3-0.1,0.4-0.1
		c0.2,0,0.3,0,0.5,0.1C87.1,41.6,87.2,41.7,87.2,41.8z"/>
	<path class="st2" d="M94.3,37.4c0,0.1,0,0.2-0.1,0.3c-0.1,0.1-0.2,0.2-0.4,0.2c-0.1,0.1-0.3,0.1-0.4,0.2c-0.1,0-0.3,0.1-0.3,0.1
		c-0.3,0-0.5,0-0.5,0s-0.2,0-0.2,0c-0.4,0-0.8,0.1-1.1,0.2c-0.3,0.1-0.5,0.2-0.6,0.4c-0.1,0.2-0.2,0.4-0.2,0.6s0,0.5,0,0.9
		c0.1,0.6,0.1,1,0.2,1.4c0.1,0.3,0.1,0.6,0.2,0.8c0.1,0.2,0.1,0.4,0.2,0.5C91,43,91,43.1,91,43.2c0,0.1-0.1,0.3-0.2,0.5
		c-0.1,0.2-0.3,0.3-0.4,0.3c-0.2,0-0.4-0.2-0.6-0.5c-0.2-0.4-0.4-0.8-0.6-1.3c-0.2-0.5-0.3-1-0.4-1.5c-0.1-0.5-0.2-0.9-0.2-1.2
		c0-0.3,0-0.6,0-0.9c0-0.3,0.1-0.5,0.2-0.7c0.1-0.2,0.2-0.4,0.3-0.5s0.2-0.2,0.3-0.2c0.1,0,0.2,0,0.2,0.1c0.1,0.1,0.1,0.1,0.2,0.2
		c0,0.1,0.1,0.1,0.1,0.2c0.1,0.1,0.1,0.1,0.2,0.1c0.2,0,0.4-0.1,0.8-0.3c0.3-0.2,0.8-0.3,1.3-0.4c0.5,0,0.8-0.1,1.1-0.1
		c0.2,0,0.5,0,0.7,0.1c0.1,0,0.1,0,0.2,0.1C94.2,37.2,94.3,37.3,94.3,37.4z"/>
	<path class="st2" d="M120.6,37.7c0,0.3-0.1,0.7-0.3,1.2c-0.3,0.5-0.6,1-1.1,1.5c-0.5,0.5-1,0.9-1.6,1.3c-0.6,0.4-1.3,0.6-2,0.7
		c-0.3,0-0.7,0-1-0.1c-0.4-0.1-0.7-0.2-1.1-0.4c-0.4-0.2-0.7-0.4-1-0.7c-0.3-0.3-0.5-0.6-0.7-1c-0.1,0.1-0.2,0.3-0.3,0.6
		c-0.1,0.3-0.3,0.5-0.4,0.8c-0.2,0.3-0.3,0.5-0.5,0.7c-0.2,0.2-0.4,0.3-0.6,0.3c-0.2,0-0.4-0.1-0.6-0.3c-0.2-0.2-0.3-0.5-0.4-0.8
		c-0.1-0.3-0.2-0.6-0.3-0.8c-0.1-0.3-0.1-0.4-0.1-0.5c0-0.2,0-0.6,0.1-1.2c0.1-0.6,0.2-1.3,0.4-1.9c0.2-0.7,0.5-1.3,0.8-1.8
		c0.3-0.5,0.8-0.8,1.3-0.9c0.2,0,0.3,0.1,0.4,0.2c0.1,0.2,0.1,0.3,0.1,0.5l0.1,0.8c0.1,0.1,0.2,0.1,0.3,0.1c0.1,0,0.2,0,0.3,0.1
		c0.1,0,0.2,0.1,0.2,0.2c0.1,0.1,0.1,0.2,0.1,0.4c0,0.1,0,0.2,0,0.3c0,0.1,0,0.2,0,0.3c0,0.5,0.1,0.9,0.2,1.4
		c0.1,0.4,0.3,0.8,0.5,1.2c0.2,0.3,0.6,0.6,1,0.8c0.4,0.2,0.9,0.3,1.5,0.2c0.8-0.1,1.4-0.3,2-0.7c0.5-0.4,0.9-0.8,1.3-1.2
		c0.3-0.4,0.6-0.8,0.8-1.2c0.2-0.3,0.4-0.5,0.5-0.5C120.4,37.4,120.6,37.5,120.6,37.7z M111,37.4c0-0.1,0-0.1-0.1-0.2
		s-0.1-0.1-0.1-0.2c0-0.1,0-0.1,0-0.2c0-0.1,0-0.1,0-0.2c0-0.1,0-0.1-0.1-0.1c0,0-0.1-0.1-0.1-0.1c-0.2,0.1-0.3,0.2-0.5,0.5
		c-0.1,0.3-0.3,0.6-0.4,1c-0.1,0.4-0.2,0.7-0.3,1.1c-0.1,0.4-0.1,0.7-0.1,0.9c0,0.1,0.1,0.3,0.2,0.6c0.1,0.3,0.2,0.5,0.3,0.5
		c0.2-0.7,0.5-1.3,0.7-1.9S111.1,37.9,111,37.4z"/>
	<path class="st2" d="M129.4,34.7c0,0.5,0,0.9-0.3,1.4c-0.2,0.5-0.5,0.9-0.8,1.3c-0.3,0.4-0.7,0.8-1.1,1.1c-0.4,0.4-0.8,0.7-1.2,0.9
		c-0.3,0.3-0.6,0.5-0.8,0.7c-0.2,0.2-0.3,0.3-0.3,0.4c0,0.2,0.1,0.6,0.2,1c0.1,0.4,0.2,0.9,0.3,1.4c0.1,0.5,0.2,1,0.4,1.5
		c0.1,0.5,0.2,1,0.3,1.4c0,0,0,0.1,0.1,0.2c0,0.1,0.1,0.3,0.2,0.5c0.1,0.2,0.1,0.3,0.2,0.5s0.1,0.2,0.1,0.3c0,0.1,0,0.3,0,0.4
		c0,0.2,0,0.3,0,0.4c0,0.1-0.1,0.3-0.2,0.4c-0.1,0.1-0.2,0.2-0.3,0.2c-0.2,0-0.3-0.1-0.5-0.2c-0.1-0.2-0.2-0.3-0.2-0.5
		c0,0,0-0.1,0-0.1c0,0,0-0.1,0-0.1c0-0.2-0.1-0.7-0.4-1.6c-0.2-0.8-0.5-1.9-0.8-3c-0.3-1.2-0.6-2.4-0.8-3.8
		c-0.3-1.4-0.4-2.6-0.6-3.9c0-0.1,0-0.2,0-0.3c0-0.1,0-0.2,0-0.3c-0.2,0-0.4,0.1-0.8,0.3c-0.3,0.2-0.7,0.4-1,0.6
		c-0.3,0.2-0.6,0.5-0.8,0.7c-0.2,0.2-0.4,0.5-0.3,0.6l-0.2,0c-0.1,0-0.1,0-0.2-0.1c-0.1-0.1-0.2-0.1-0.2-0.2
		c-0.1-0.1-0.1-0.2-0.2-0.3c-0.1-0.1-0.1-0.1-0.1-0.2c0-0.4,0.2-0.8,0.6-1.1c0.4-0.4,1-0.7,1.6-1c0.7-0.3,1.4-0.6,2.2-0.8
		c0.8-0.2,1.5-0.4,2.3-0.4c0.7-0.1,1.3,0,1.8,0.1c0.5,0.1,0.9,0.3,1.2,0.5c0.3,0.2,0.5,0.4,0.7,0.6
		C129.3,34.4,129.3,34.6,129.4,34.7z M128,34.8c0-0.2-0.3-0.3-0.7-0.5c-0.5-0.1-1-0.2-1.6-0.1c-0.5,0-0.9,0.1-1.2,0.2
		c-0.2,0.1-0.4,0.1-0.5,0.2c0,0.3,0,0.6,0,1c0,0.4,0,0.8,0.1,1.2c0,0.4,0.1,0.8,0.2,1.2s0.1,0.7,0.2,1c0.2-0.2,0.6-0.4,1-0.8
		c0.4-0.3,0.8-0.7,1.2-1.1s0.7-0.8,1-1.2S128.1,35.1,128,34.8z"/>
	<path class="st2" d="M139.5,33.9c0,0.5,0,0.9-0.3,1.4c-0.2,0.5-0.5,0.9-0.8,1.3c-0.3,0.4-0.7,0.8-1.1,1.1c-0.4,0.4-0.8,0.7-1.2,0.9
		c-0.3,0.3-0.6,0.5-0.8,0.7c-0.2,0.2-0.3,0.3-0.3,0.4c0,0.2,0.1,0.6,0.2,1c0.1,0.4,0.2,0.9,0.3,1.4c0.1,0.5,0.2,1,0.4,1.5
		c0.1,0.5,0.2,1,0.3,1.4c0,0,0,0.1,0.1,0.2c0,0.1,0.1,0.3,0.2,0.5s0.1,0.3,0.2,0.5c0,0.1,0.1,0.2,0.1,0.3c0,0.1,0,0.3,0,0.4
		c0,0.2,0,0.3,0,0.4c0,0.1-0.1,0.3-0.2,0.4c-0.1,0.1-0.2,0.2-0.3,0.2c-0.2,0-0.3-0.1-0.5-0.2c-0.1-0.2-0.2-0.3-0.2-0.5
		c0,0,0-0.1,0-0.1c0,0,0-0.1,0-0.1c0-0.2-0.1-0.7-0.4-1.6c-0.2-0.8-0.5-1.9-0.8-3c-0.3-1.2-0.6-2.4-0.8-3.8
		c-0.3-1.4-0.4-2.6-0.6-3.9c0-0.1,0-0.2,0-0.3c0-0.1,0-0.2,0-0.3c-0.2,0-0.4,0.1-0.8,0.3c-0.3,0.2-0.7,0.4-1,0.6
		c-0.3,0.2-0.6,0.5-0.8,0.7c-0.2,0.2-0.4,0.5-0.3,0.6l-0.2,0c-0.1,0-0.1,0-0.2-0.1c-0.1-0.1-0.2-0.1-0.2-0.2
		c-0.1-0.1-0.1-0.2-0.2-0.3c-0.1-0.1-0.1-0.1-0.1-0.2c0-0.4,0.2-0.8,0.6-1.1c0.4-0.4,1-0.7,1.6-1c0.7-0.3,1.4-0.6,2.2-0.8
		c0.8-0.2,1.5-0.4,2.3-0.4c0.7-0.1,1.3,0,1.8,0.1s0.9,0.3,1.2,0.5c0.3,0.2,0.5,0.4,0.7,0.6C139.4,33.5,139.5,33.7,139.5,33.9z
		 M138.2,33.9c0-0.2-0.3-0.3-0.7-0.5c-0.5-0.1-1-0.2-1.6-0.1c-0.5,0-0.9,0.1-1.2,0.2c-0.2,0.1-0.4,0.1-0.5,0.2c0,0.3,0,0.6,0,1
		c0,0.4,0,0.8,0.1,1.2c0,0.4,0.1,0.8,0.2,1.2c0.1,0.4,0.1,0.7,0.2,1c0.2-0.2,0.6-0.4,1-0.8c0.4-0.3,0.8-0.7,1.2-1.1
		c0.4-0.4,0.7-0.8,1-1.2C138.1,34.6,138.2,34.3,138.2,33.9z"/>
	<path class="st2" d="M147.3,32.7c0,0.1,0,0.2-0.1,0.3c-0.1,0.1-0.2,0.2-0.4,0.2c-0.1,0.1-0.3,0.1-0.4,0.2c-0.1,0-0.3,0.1-0.3,0.1
		c-0.3,0-0.5,0-0.5,0c-0.1,0-0.2,0-0.2,0c-0.4,0-0.8,0.1-1.1,0.2s-0.5,0.2-0.6,0.4c-0.1,0.2-0.2,0.4-0.2,0.6s0,0.5,0,0.9
		c0.1,0.6,0.1,1,0.2,1.4c0.1,0.3,0.1,0.6,0.2,0.8c0.1,0.2,0.1,0.4,0.2,0.5c0.1,0.1,0.1,0.2,0.1,0.3c0,0.1-0.1,0.3-0.2,0.5
		c-0.1,0.2-0.3,0.3-0.4,0.3c-0.2,0-0.4-0.2-0.6-0.5c-0.2-0.4-0.4-0.8-0.6-1.3c-0.2-0.5-0.3-1-0.4-1.5c-0.1-0.5-0.2-0.9-0.2-1.2
		c0-0.3,0-0.6,0-0.9c0-0.3,0.1-0.5,0.2-0.7c0.1-0.2,0.2-0.4,0.3-0.5c0.1-0.1,0.2-0.2,0.3-0.2c0.1,0,0.2,0,0.2,0.1s0.1,0.1,0.2,0.2
		c0,0.1,0.1,0.1,0.1,0.2c0.1,0.1,0.1,0.1,0.2,0.1c0.2,0,0.4-0.1,0.8-0.3c0.3-0.2,0.8-0.3,1.3-0.4c0.5,0,0.8-0.1,1.1-0.1
		s0.5,0,0.7,0.1c0.1,0,0.1,0,0.2,0.1C147.3,32.5,147.3,32.6,147.3,32.7z"/>
	<path class="st2" d="M154.5,34.5c0,0.4,0,0.8-0.1,1.1c-0.1,0.4-0.2,0.7-0.3,1c-0.2,0.3-0.3,0.5-0.6,0.7c-0.2,0.2-0.5,0.3-0.8,0.3
		c-0.5,0-0.9-0.1-1.2-0.3c-0.3-0.3-0.6-0.6-0.7-0.9c-0.2-0.4-0.3-0.7-0.4-1.1c-0.1-0.4-0.1-0.7-0.1-0.9c0-0.3,0-0.7,0.1-1.1
		c0.1-0.4,0.2-0.8,0.3-1.2c0.1-0.4,0.3-0.7,0.5-0.9c0.2-0.3,0.4-0.4,0.6-0.4c0.1,0,0.1,0,0.3,0c0.1,0,0.2,0.1,0.4,0.1
		c0.1,0.1,0.3,0.1,0.4,0.2c0.1,0.1,0.2,0.2,0.2,0.4c0.2,0,0.4,0.1,0.6,0.2c0.2,0.1,0.3,0.2,0.3,0.3c0.2,0.5,0.3,0.9,0.4,1.4
		C154.4,33.8,154.5,34.2,154.5,34.5z M153.2,34.1c0-0.3-0.1-0.5-0.2-0.8c-0.1-0.3-0.2-0.6-0.4-0.9c0,0-0.1,0-0.1,0
		c-0.1,0-0.1,0-0.2,0c0,0-0.1,0-0.1,0c-0.2,0-0.4,0.1-0.5,0.2c-0.1,0.1-0.2,0.3-0.2,0.5c0,0.2-0.1,0.4-0.1,0.6s0,0.4,0,0.6
		c0,0.2,0,0.4,0.1,0.7c0,0.2,0.1,0.5,0.2,0.7c0.1,0.2,0.2,0.4,0.3,0.5c0.1,0.1,0.3,0.2,0.4,0.2s0.3-0.1,0.4-0.3
		c0.1-0.2,0.2-0.4,0.2-0.7c0-0.3,0.1-0.5,0.1-0.8C153.2,34.4,153.2,34.3,153.2,34.1z"/>
	<path class="st2" d="M170,33.4c0,0.3-0.1,0.7-0.3,1.2c-0.3,0.5-0.6,1-1.1,1.5c-0.5,0.5-1,0.9-1.6,1.3c-0.6,0.4-1.3,0.6-2,0.7
		c-0.3,0-0.7,0-1-0.1c-0.4-0.1-0.7-0.2-1.1-0.4c-0.4-0.2-0.7-0.4-1-0.7c-0.3-0.3-0.5-0.6-0.7-1c-0.1,0.1-0.2,0.3-0.3,0.6
		c-0.1,0.3-0.3,0.5-0.4,0.8c-0.2,0.3-0.3,0.5-0.5,0.7c-0.2,0.2-0.4,0.3-0.6,0.3c-0.2,0-0.4-0.1-0.6-0.3c-0.2-0.2-0.3-0.5-0.4-0.8
		c-0.1-0.3-0.2-0.6-0.3-0.8c-0.1-0.3-0.1-0.4-0.1-0.5c0-0.2,0-0.6,0.1-1.2c0.1-0.6,0.2-1.3,0.4-1.9c0.2-0.7,0.5-1.3,0.8-1.8
		c0.3-0.5,0.8-0.8,1.3-0.9c0.2,0,0.3,0.1,0.4,0.2c0.1,0.2,0.1,0.3,0.1,0.5l0.1,0.8c0.1,0.1,0.2,0.1,0.3,0.1c0.1,0,0.2,0,0.3,0.1
		c0.1,0,0.2,0.1,0.2,0.2c0.1,0.1,0.1,0.2,0.1,0.4c0,0.1,0,0.2,0,0.3s0,0.2,0,0.3c0,0.5,0.1,0.9,0.2,1.4c0.1,0.4,0.3,0.8,0.5,1.2
		c0.2,0.3,0.6,0.6,1,0.8c0.4,0.2,0.9,0.3,1.5,0.2c0.8-0.1,1.4-0.3,2-0.7c0.5-0.4,0.9-0.8,1.3-1.2c0.3-0.4,0.6-0.8,0.8-1.2
		c0.2-0.4,0.4-0.5,0.5-0.5C169.9,33,170,33.2,170,33.4z M160.5,33c0-0.1,0-0.1-0.1-0.2s-0.1-0.1-0.1-0.2c0-0.1,0-0.1,0-0.2
		c0-0.1,0-0.1,0-0.2c0-0.1,0-0.1-0.1-0.1c0,0-0.1-0.1-0.1-0.1c-0.2,0-0.3,0.2-0.5,0.5c-0.1,0.3-0.3,0.6-0.4,1
		c-0.1,0.4-0.2,0.7-0.3,1.1c-0.1,0.4-0.1,0.7-0.1,0.9c0,0.1,0.1,0.3,0.2,0.6c0.1,0.3,0.2,0.5,0.3,0.5c0.2-0.7,0.5-1.3,0.7-1.9
		S160.5,33.6,160.5,33z"/>
	<path class="st2" d="M178.1,33.4c0,0.2,0,0.4,0,0.6c0,0.2-0.1,0.4-0.1,0.5c0,0.1-0.2,0.3-0.4,0.6c-0.3,0.3-0.6,0.7-1,1.1
		c-0.4,0.4-0.9,0.7-1.4,1.1c-0.5,0.3-1,0.5-1.5,0.6c-0.3,0-0.6,0-0.9-0.1c-0.3-0.1-0.6-0.2-0.9-0.4c-0.3-0.2-0.5-0.5-0.7-0.8
		s-0.3-0.8-0.4-1.3c-0.1-0.9,0-1.7,0.2-2.4c0.2-0.7,0.5-1.3,0.7-1.7c0.1-0.2,0.3-0.4,0.4-0.6c0.2-0.2,0.4-0.4,0.6-0.6
		c0.2-0.2,0.4-0.3,0.5-0.5c0.2-0.1,0.3-0.2,0.3-0.2c0.2,0,0.3,0,0.5,0.1c0.1,0.1,0.2,0.2,0.2,0.3c0,0.1,0,0.3-0.1,0.4
		c-0.1,0.1-0.2,0.2-0.3,0.4c-0.1,0.1-0.3,0.3-0.5,0.5c-0.2,0.2-0.4,0.5-0.6,0.8c-0.4,0.6-0.6,1.3-0.8,1.9c-0.2,0.6-0.2,1.2-0.2,1.7
		c0,0.5,0.2,0.8,0.6,1.1c0.4,0.2,0.7,0.4,1.1,0.3c0.7-0.1,1.3-0.3,1.8-0.6c0.5-0.4,0.9-0.7,1.3-1.1c0.3-0.4,0.6-0.8,0.8-1.1
		c0.2-0.3,0.4-0.5,0.5-0.5C178,32.9,178.1,33.1,178.1,33.4z"/>
	<path class="st2" d="M188.9,32.4c0.1,0.1,0.1,0.1,0.1,0.2c0,0,0,0.1-0.1,0.3s-0.2,0.4-0.3,0.6c-0.1,0.2-0.3,0.4-0.5,0.6
		s-0.4,0.3-0.5,0.3c-0.4,0-0.7,0-0.9-0.1c-0.2-0.1-0.5-0.3-0.6-0.5c-0.2-0.2-0.3-0.5-0.4-0.7c-0.1-0.3-0.2-0.5-0.3-0.8
		c0-0.1-0.1-0.2-0.1-0.2c-0.1,0-0.1,0.2-0.3,0.6c-0.1,0.4-0.3,0.8-0.4,1.3c-0.1,0.5-0.3,0.9-0.4,1.3c-0.1,0.4-0.2,0.6-0.3,0.6
		c-0.3,0-0.6-0.1-0.9-0.3c-0.2-0.3-0.5-0.6-0.6-0.9c-0.2-0.4-0.3-0.7-0.4-1.1c-0.1-0.4-0.2-0.7-0.2-0.9c-0.1-0.5-0.3-1.3-0.6-2.4
		c-0.3-1.1-0.6-2.5-0.8-4.1c-0.1-0.3-0.1-0.6-0.2-0.9c-0.1-0.3-0.1-0.6-0.2-0.9c-0.1-0.3-0.2-0.7-0.2-1.1c-0.1-0.4-0.1-1-0.2-1.6
		c0,0,0-0.2,0-0.4c0-0.2,0-0.4,0-0.7c0-0.2,0.1-0.4,0.1-0.6c0.1-0.2,0.2-0.3,0.3-0.3c0.1,0,0.2,0.1,0.4,0.2c0.1,0.1,0.2,0.3,0.3,0.5
		s0.2,0.4,0.2,0.5c0.1,0.2,0.1,0.3,0.1,0.4c0,0.3,0,0.5,0,0.8c0,0.2,0,0.5,0,0.7c0,0.3,0.1,0.6,0.2,1c0.1,0.4,0.2,0.8,0.3,1.2
		c0.1,0.4,0.2,0.8,0.3,1.2c0.1,0.4,0.2,0.7,0.2,1c0,0,0,0.1,0.1,0.4c0.1,0.2,0.1,0.5,0.2,0.9c0.1,0.3,0.2,0.7,0.2,1.1
		c0.1,0.4,0.2,0.8,0.3,1.2c0.1,0.4,0.2,0.7,0.2,1c0.1,0.3,0.1,0.5,0.1,0.6c0,0.1,0,0.1,0.1,0.2s0.1,0.2,0.1,0.3s0.1,0.2,0.1,0.3
		c0,0.1,0.1,0.2,0.2,0.2c0.1-0.2,0.2-0.6,0.3-1c0.1-0.5,0.3-0.9,0.4-1.4c0.1-0.5,0.3-0.9,0.4-1.3c0.1-0.4,0.3-0.6,0.4-0.6
		c0.1,0,0.3,0,0.4,0c0.1,0,0.2,0.1,0.4,0.1c0.2,0.1,0.3,0.1,0.3,0.3c0,0.1,0,0.3,0.1,0.4c0.1,0.2,0.1,0.5,0.2,0.8
		c0.1,0.3,0.2,0.7,0.4,1c0.1,0.3,0.3,0.6,0.5,0.8c0.2,0.2,0.3,0.3,0.5,0.3c0.1,0,0.2-0.1,0.3-0.3s0.3-0.3,0.5-0.4c0,0,0.1,0,0.2,0.1
		C188.7,32.2,188.8,32.3,188.9,32.4z"/>
	<path class="st2" d="M208.2,23.4c-0.2,0.3-0.5,0.6-0.9,0.9s-0.8,0.6-1.2,0.8c-0.4,0.3-0.8,0.5-1.1,0.7c-0.3,0.2-0.5,0.3-0.5,0.4
		s0.1,0.2,0.1,0.5c0.1,0.3,0.2,0.6,0.3,0.9c0.1,0.4,0.3,0.7,0.4,1.1c0.1,0.4,0.3,0.7,0.4,1c0.1,0.2,0.1,0.4,0.2,0.7
		c0.1,0.3,0.2,0.6,0.2,0.8c0.1,0.3,0.1,0.5,0.2,0.8c0.1,0.2,0.1,0.3,0.1,0.4c0,0.3,0,0.6-0.1,0.8c-0.1,0.3-0.2,0.5-0.4,0.5
		c-0.1,0-0.2,0-0.3-0.1c-0.1-0.1-0.2-0.2-0.3-0.3c-0.1-0.1-0.1-0.2-0.2-0.3c0-0.1-0.1-0.2-0.1-0.2c0,0,0-0.1,0-0.2s0-0.2,0-0.2
		c0-0.3-0.1-0.8-0.3-1.5c-0.1-0.2-0.2-0.5-0.3-0.9c-0.1-0.4-0.3-0.8-0.4-1.2c-0.2-0.5-0.4-1-0.6-1.6c-0.1-0.2-0.1-0.4-0.2-0.4
		c-0.1,0-0.3,0.1-0.6,0.3s-0.6,0.4-1,0.7c-0.4,0.3-0.7,0.5-1.1,0.8s-0.8,0.6-1.1,0.8c-0.3,0.3-0.6,0.5-0.9,0.6
		c-0.2,0.2-0.4,0.3-0.5,0.3c-0.2,0-0.4,0-0.6-0.2c-0.2-0.1-0.2-0.3-0.3-0.5c0-0.1,0.1-0.3,0.4-0.5c0.3-0.2,0.6-0.5,1-0.8
		c0.4-0.3,0.9-0.6,1.4-0.9c0.5-0.3,0.9-0.6,1.4-0.9c0.4-0.3,0.9-0.5,1.5-0.9c-0.2-0.8-0.4-1.5-0.6-2.2c-0.1-0.5-0.3-1.1-0.4-1.5
		c-0.1-0.5-0.2-0.7-0.2-0.7c0-0.2,0-0.4,0.1-0.5c0.1-0.1,0.2-0.2,0.3-0.2c0.2,0,0.3,0.1,0.4,0.4c0.3,1,0.5,1.8,0.8,2.5
		s0.5,1.3,0.7,1.8c0.2-0.1,0.4-0.2,0.8-0.4c0.4-0.2,0.8-0.4,1.2-0.7c0.4-0.2,0.8-0.4,1.1-0.6c0.3-0.2,0.5-0.3,0.6-0.3
		c0.1,0,0.2,0,0.2,0.1C208.2,23.3,208.2,23.4,208.2,23.4z"/>
	<path class="st2" d="M215.1,29.2c0,0.4,0,0.8-0.1,1.1c-0.1,0.4-0.2,0.7-0.3,1c-0.2,0.3-0.3,0.5-0.6,0.7c-0.2,0.2-0.5,0.3-0.8,0.3
		c-0.5,0-0.9-0.1-1.2-0.3c-0.3-0.3-0.6-0.6-0.7-0.9c-0.2-0.4-0.3-0.7-0.4-1.1c-0.1-0.4-0.1-0.7-0.1-0.9c0-0.3,0-0.7,0.1-1.1
		c0.1-0.4,0.2-0.8,0.3-1.2c0.1-0.4,0.3-0.7,0.5-0.9c0.2-0.3,0.4-0.4,0.6-0.4c0.1,0,0.1,0,0.3,0c0.1,0,0.2,0.1,0.4,0.1
		c0.1,0.1,0.3,0.1,0.4,0.2c0.1,0.1,0.2,0.2,0.2,0.4c0.2,0,0.4,0.1,0.6,0.2c0.2,0.1,0.3,0.2,0.3,0.3c0.2,0.5,0.3,0.9,0.4,1.4
		C215,28.5,215,28.9,215.1,29.2z M213.8,28.8c0-0.3-0.1-0.5-0.2-0.8c-0.1-0.3-0.2-0.6-0.4-0.9c0,0-0.1,0-0.1,0c-0.1,0-0.1,0-0.2,0
		c0,0-0.1,0-0.1,0c-0.2,0-0.4,0.1-0.5,0.2c-0.1,0.1-0.2,0.3-0.2,0.5c0,0.2-0.1,0.4-0.1,0.6c0,0.2,0,0.4,0,0.6c0,0.2,0,0.4,0.1,0.7
		c0,0.2,0.1,0.5,0.2,0.7c0.1,0.2,0.2,0.4,0.3,0.5c0.1,0.1,0.3,0.2,0.4,0.2c0.2,0,0.3-0.1,0.4-0.3c0.1-0.2,0.2-0.4,0.2-0.7
		c0-0.3,0.1-0.5,0.1-0.8C213.8,29.1,213.8,29,213.8,28.8z"/>
</g>
<g class="st1">
	<path class="st2" d="M12.1,63.7c-0.2,0.3-0.5,0.6-0.9,0.9c-0.4,0.3-0.8,0.6-1.2,0.8c-0.4,0.3-0.8,0.5-1.1,0.7
		c-0.3,0.2-0.5,0.3-0.5,0.4s0.1,0.2,0.2,0.5c0.1,0.3,0.2,0.6,0.3,0.9c0.1,0.4,0.3,0.7,0.4,1.1c0.1,0.4,0.3,0.7,0.4,1
		c0.1,0.2,0.1,0.4,0.2,0.7c0.1,0.3,0.2,0.6,0.2,0.8c0.1,0.3,0.1,0.5,0.2,0.8c0.1,0.2,0.1,0.3,0.1,0.4c0,0.3,0,0.6-0.1,0.8
		c-0.1,0.3-0.2,0.5-0.4,0.5c-0.1,0-0.2,0-0.3-0.1c-0.1-0.1-0.2-0.2-0.3-0.3c-0.1-0.1-0.1-0.2-0.2-0.3c0-0.1-0.1-0.2-0.1-0.2
		c0,0,0-0.1,0-0.2c0-0.1,0-0.2,0-0.2c0-0.3-0.1-0.8-0.3-1.5c-0.1-0.2-0.2-0.5-0.3-0.9c-0.1-0.4-0.3-0.8-0.4-1.2
		c-0.2-0.5-0.4-1-0.6-1.6C7.4,67.1,7.3,67,7.3,67c-0.1,0-0.3,0.1-0.6,0.3c-0.3,0.2-0.6,0.4-1,0.7c-0.4,0.3-0.7,0.5-1.1,0.8
		s-0.8,0.6-1.1,0.8S2.9,70,2.6,70.2c-0.2,0.2-0.4,0.3-0.5,0.3c-0.2,0-0.4,0-0.6-0.2c-0.2-0.1-0.2-0.3-0.3-0.5c0-0.1,0.1-0.3,0.4-0.5
		c0.3-0.2,0.6-0.5,1-0.8c0.4-0.3,0.9-0.6,1.4-0.9c0.5-0.3,0.9-0.6,1.4-0.9c0.4-0.3,0.9-0.5,1.5-0.9c-0.2-0.8-0.4-1.5-0.6-2.2
		c-0.1-0.5-0.3-1.1-0.4-1.5c-0.1-0.5-0.2-0.7-0.2-0.7c0-0.2,0-0.4,0.1-0.5c0.1-0.1,0.2-0.2,0.3-0.2c0.2,0,0.3,0.1,0.4,0.4
		c0.3,1,0.5,1.8,0.8,2.5c0.2,0.7,0.5,1.3,0.7,1.8c0.2-0.1,0.4-0.2,0.8-0.4c0.4-0.2,0.8-0.4,1.2-0.7c0.4-0.2,0.8-0.4,1.1-0.6
		c0.3-0.2,0.5-0.3,0.6-0.3c0.1,0,0.2,0,0.2,0.1C12,63.6,12.1,63.6,12.1,63.7z"/>
	<path class="st2" d="M22.8,70c0.1,0.1,0.1,0.1,0.1,0.1c0,0,0,0.1-0.1,0.3c-0.1,0.2-0.2,0.4-0.3,0.6c-0.1,0.2-0.3,0.4-0.5,0.6
		c-0.2,0.2-0.4,0.3-0.5,0.3c-0.4,0-0.7,0-0.9-0.1c-0.2-0.1-0.5-0.3-0.6-0.5s-0.3-0.5-0.4-0.7c-0.1-0.3-0.2-0.5-0.3-0.8
		c0-0.1-0.1-0.2-0.1-0.2c-0.1,0-0.1,0.2-0.3,0.6c-0.1,0.4-0.3,0.8-0.4,1.3c-0.1,0.5-0.3,0.9-0.4,1.3c-0.1,0.4-0.2,0.6-0.3,0.6
		c-0.3,0-0.6-0.1-0.9-0.3c-0.2-0.3-0.5-0.6-0.6-0.9c-0.2-0.4-0.3-0.7-0.4-1.1s-0.2-0.7-0.2-0.9c-0.1-0.5-0.3-1.3-0.6-2.4
		c-0.3-1.1-0.6-2.5-0.8-4.1c-0.1-0.3-0.1-0.6-0.2-0.9c-0.1-0.3-0.1-0.6-0.2-0.9c-0.1-0.3-0.2-0.7-0.2-1.1s-0.1-1-0.2-1.6
		c0,0,0-0.2,0-0.4c0-0.2,0-0.4,0-0.7c0-0.2,0.1-0.4,0.1-0.6c0.1-0.2,0.2-0.3,0.3-0.3c0.1,0,0.2,0.1,0.4,0.2c0.1,0.1,0.2,0.3,0.3,0.5
		c0.1,0.2,0.2,0.4,0.2,0.5s0.1,0.3,0.1,0.4c0,0.3,0,0.5,0,0.8c0,0.2,0,0.5,0,0.6c0,0.3,0.1,0.6,0.2,1c0.1,0.4,0.2,0.8,0.3,1.2
		c0.1,0.4,0.2,0.8,0.3,1.2c0.1,0.4,0.2,0.7,0.2,1c0,0,0,0.1,0.1,0.4c0.1,0.2,0.1,0.5,0.2,0.9c0.1,0.3,0.2,0.7,0.2,1.1
		c0.1,0.4,0.2,0.8,0.3,1.2c0.1,0.4,0.2,0.7,0.2,1c0.1,0.3,0.1,0.5,0.1,0.6c0,0.1,0,0.1,0.1,0.2c0,0.1,0.1,0.2,0.1,0.3
		c0,0.1,0.1,0.2,0.1,0.3c0,0.1,0.1,0.2,0.2,0.2c0.1-0.2,0.2-0.6,0.3-1c0.1-0.5,0.3-0.9,0.4-1.4s0.3-0.9,0.4-1.3
		c0.1-0.4,0.3-0.6,0.4-0.6c0.1,0,0.3,0,0.4,0c0.1,0,0.2,0.1,0.4,0.1c0.2,0.1,0.3,0.1,0.3,0.3c0,0.1,0,0.3,0.1,0.4
		c0.1,0.2,0.1,0.5,0.2,0.8c0.1,0.3,0.2,0.7,0.4,1s0.3,0.6,0.5,0.8c0.2,0.2,0.3,0.3,0.5,0.3c0.1,0,0.2-0.1,0.3-0.3
		c0.1-0.2,0.3-0.3,0.5-0.4c0,0,0.1,0,0.2,0.1C22.6,69.9,22.7,69.9,22.8,70z"/>
	<path class="st2" d="M32.2,71.3c0,0,0,0.1,0,0.2c0,0.1-0.1,0.3-0.2,0.5c0,0.1-0.2,0.2-0.3,0.4c-0.2,0.2-0.4,0.4-0.7,0.5
		c-0.3,0.2-0.7,0.4-1.1,0.5c-0.4,0.2-0.9,0.3-1.5,0.3c-0.4,0-0.8,0-1.2-0.2c-0.4-0.2-0.8-0.4-1.1-0.7c-0.3-0.3-0.6-0.8-0.9-1.3
		c-0.2-0.5-0.4-1.2-0.5-1.9c-0.1-0.7,0-1.4,0.1-2c0.1-0.6,0.3-1.2,0.5-1.7c0.2-0.5,0.5-0.9,0.8-1.2c0.3-0.3,0.6-0.5,1-0.5
		c0.3,0,0.6,0,0.9,0.1c0.3,0.1,0.6,0.2,0.8,0.4c0.3,0.2,0.5,0.3,0.6,0.6c0.2,0.2,0.3,0.4,0.3,0.7c0,0.3-0.1,0.6-0.3,0.9
		c-0.2,0.3-0.5,0.6-0.8,0.9c-0.3,0.3-0.6,0.5-1,0.7s-0.6,0.3-0.8,0.3c-0.1,0-0.2,0-0.3-0.1s-0.1-0.2-0.2-0.4c0-0.2,0.1-0.5,0.3-0.6
		c0.2-0.2,0.4-0.3,0.7-0.5c0.3-0.1,0.5-0.3,0.7-0.5c0.2-0.2,0.3-0.4,0.3-0.7c0,0-0.1-0.1-0.2-0.3c-0.1-0.1-0.4-0.2-0.7-0.2
		c-0.2,0-0.4,0.1-0.6,0.4c-0.2,0.2-0.4,0.5-0.6,0.9c-0.2,0.4-0.3,0.8-0.4,1.3c-0.1,0.5-0.1,1-0.1,1.6c0,0.5,0.2,0.9,0.4,1.2
		c0.2,0.4,0.5,0.7,0.7,0.9c0.3,0.2,0.6,0.4,1,0.5c0.4,0.1,0.7,0.2,1.1,0.1c0.3,0,0.6-0.1,0.9-0.3s0.6-0.3,0.9-0.5
		c0.3-0.2,0.5-0.3,0.7-0.4c0.2-0.1,0.3-0.2,0.4-0.2c0.1,0,0.1,0,0.2,0.1C32.1,71.2,32.2,71.3,32.2,71.3z"/>
	<path class="st2" d="M52.8,67.4c0,0.2,0,0.4,0,0.6c0,0.2-0.1,0.4-0.1,0.5c0,0.1-0.2,0.3-0.4,0.6c-0.3,0.3-0.6,0.7-1,1.1
		c-0.4,0.4-0.9,0.7-1.4,1.1c-0.5,0.3-1,0.5-1.5,0.6c-0.3,0-0.6,0-0.9-0.1c-0.3-0.1-0.6-0.2-0.9-0.4c-0.3-0.2-0.5-0.5-0.7-0.8
		c-0.2-0.3-0.3-0.8-0.4-1.3c-0.1-0.9,0-1.7,0.2-2.4c0.2-0.7,0.5-1.3,0.7-1.7c0.1-0.2,0.3-0.4,0.4-0.6c0.2-0.2,0.4-0.4,0.6-0.6
		c0.2-0.2,0.4-0.3,0.5-0.5c0.2-0.1,0.3-0.2,0.3-0.2c0.2,0,0.3,0,0.5,0.1c0.1,0.1,0.2,0.2,0.2,0.3c0,0.1,0,0.3-0.1,0.4
		c-0.1,0.1-0.2,0.2-0.3,0.4c-0.1,0.1-0.3,0.3-0.5,0.5c-0.2,0.2-0.4,0.5-0.6,0.8c-0.4,0.6-0.6,1.3-0.8,1.9s-0.2,1.2-0.2,1.7
		c0,0.5,0.2,0.8,0.6,1.1s0.8,0.4,1.1,0.3c0.7-0.1,1.3-0.3,1.8-0.6c0.5-0.4,0.9-0.7,1.3-1.1c0.3-0.4,0.6-0.8,0.8-1.1
		c0.2-0.3,0.4-0.5,0.5-0.5C52.6,67,52.8,67.1,52.8,67.4z"/>
	<path class="st2" d="M67.7,65.4c0,0.3-0.1,0.7-0.3,1.2c-0.3,0.5-0.6,1-1.1,1.5c-0.5,0.5-1,0.9-1.6,1.3c-0.6,0.4-1.3,0.6-2,0.7
		c-0.3,0-0.7,0-1-0.1c-0.4-0.1-0.7-0.2-1.1-0.4c-0.4-0.2-0.7-0.4-1-0.7c-0.3-0.3-0.5-0.6-0.7-1c-0.1,0.1-0.2,0.3-0.3,0.6
		c-0.1,0.3-0.3,0.5-0.4,0.8c-0.2,0.3-0.3,0.5-0.5,0.7c-0.2,0.2-0.4,0.3-0.6,0.3c-0.2,0-0.4-0.1-0.6-0.3s-0.3-0.5-0.4-0.8
		c-0.1-0.3-0.2-0.6-0.3-0.8c-0.1-0.3-0.1-0.4-0.1-0.5c0-0.2,0-0.6,0.1-1.2c0.1-0.6,0.2-1.3,0.4-1.9c0.2-0.7,0.5-1.3,0.8-1.8
		c0.3-0.5,0.8-0.8,1.3-0.9c0.2,0,0.3,0.1,0.4,0.2c0.1,0.2,0.1,0.3,0.1,0.5l0.1,0.8c0.1,0.1,0.2,0.1,0.3,0.1c0.1,0,0.2,0,0.3,0.1
		c0.1,0,0.2,0.1,0.2,0.2c0.1,0.1,0.1,0.2,0.1,0.4c0,0.1,0,0.2,0,0.3s0,0.2,0,0.3c0,0.5,0.1,0.9,0.2,1.4c0.1,0.4,0.3,0.8,0.5,1.2
		c0.2,0.3,0.6,0.6,1,0.8s0.9,0.3,1.5,0.2c0.8-0.1,1.4-0.3,2-0.7c0.5-0.4,0.9-0.8,1.3-1.2c0.3-0.4,0.6-0.8,0.8-1.2
		c0.2-0.4,0.4-0.5,0.5-0.5C67.5,65.1,67.6,65.2,67.7,65.4z M58.1,65.1c0-0.1,0-0.1-0.1-0.2S58,64.8,58,64.7c0-0.1,0-0.1,0-0.2
		c0-0.1,0-0.1,0-0.2c0-0.1,0-0.1-0.1-0.1c0,0-0.1-0.1-0.1-0.1c-0.2,0.1-0.3,0.2-0.5,0.5c-0.1,0.3-0.3,0.6-0.4,1
		c-0.1,0.4-0.2,0.7-0.3,1.1c-0.1,0.4-0.1,0.7-0.1,0.9c0,0.1,0.1,0.3,0.2,0.6c0.1,0.3,0.2,0.5,0.3,0.5c0.3-0.7,0.5-1.3,0.7-1.9
		S58.2,65.6,58.1,65.1z"/>
	<path class="st2" d="M76.4,62.5c0,0.5,0,0.9-0.3,1.4c-0.2,0.5-0.5,0.9-0.8,1.3c-0.3,0.4-0.7,0.8-1.1,1.1c-0.4,0.4-0.8,0.7-1.2,0.9
		c-0.3,0.3-0.6,0.5-0.8,0.7s-0.3,0.3-0.3,0.4c0,0.2,0.1,0.6,0.2,1c0.1,0.4,0.2,0.9,0.3,1.4c0.1,0.5,0.2,1,0.4,1.5
		c0.1,0.5,0.2,1,0.3,1.4c0,0,0,0.1,0.1,0.2c0,0.1,0.1,0.3,0.2,0.5c0.1,0.2,0.1,0.3,0.2,0.5c0,0.1,0.1,0.2,0.1,0.3c0,0.1,0,0.3,0,0.4
		c0,0.2,0,0.3,0,0.4c0,0.1-0.1,0.3-0.2,0.4c-0.1,0.1-0.2,0.2-0.3,0.2c-0.2,0-0.3-0.1-0.5-0.2c-0.1-0.2-0.2-0.3-0.2-0.5
		c0,0,0-0.1,0-0.1s0-0.1,0-0.1c0-0.2-0.1-0.7-0.4-1.6c-0.2-0.8-0.5-1.9-0.8-3c-0.3-1.2-0.6-2.4-0.8-3.8c-0.3-1.4-0.4-2.6-0.6-3.9
		c0-0.1,0-0.2,0-0.3c0-0.1,0-0.2,0-0.3c-0.2,0-0.4,0.1-0.8,0.3c-0.3,0.2-0.7,0.4-1,0.6c-0.3,0.2-0.6,0.5-0.8,0.7
		c-0.2,0.2-0.4,0.5-0.3,0.6l-0.2,0c-0.1,0-0.1,0-0.2-0.1c-0.1-0.1-0.2-0.1-0.2-0.2c-0.1-0.1-0.1-0.2-0.2-0.3
		c-0.1-0.1-0.1-0.1-0.1-0.2c0-0.4,0.2-0.8,0.6-1.1c0.4-0.4,1-0.7,1.6-1c0.7-0.3,1.4-0.6,2.2-0.8c0.8-0.2,1.5-0.4,2.3-0.4
		c0.7-0.1,1.3,0,1.8,0.1c0.5,0.1,0.9,0.3,1.2,0.5c0.3,0.2,0.5,0.4,0.7,0.6C76.3,62.1,76.4,62.3,76.4,62.5z M75.1,62.5
		c0-0.2-0.3-0.3-0.7-0.5c-0.5-0.1-1-0.2-1.6-0.1c-0.5,0-0.9,0.1-1.2,0.2c-0.2,0.1-0.4,0.1-0.5,0.2c0,0.3,0,0.6,0,1
		c0,0.4,0,0.8,0.1,1.2c0,0.4,0.1,0.8,0.2,1.2c0.1,0.4,0.1,0.7,0.2,1c0.2-0.2,0.6-0.4,1-0.8c0.4-0.3,0.8-0.7,1.2-1.1
		c0.4-0.4,0.7-0.8,1-1.2C75,63.2,75.1,62.9,75.1,62.5z"/>
	<path class="st2" d="M84.7,57.3c-0.2,0.3-0.5,0.6-0.9,0.9c-0.4,0.3-0.8,0.6-1.2,0.8c-0.4,0.3-0.8,0.5-1.1,0.7
		C81.1,59.9,81,60,81,60s0.1,0.2,0.1,0.5c0.1,0.3,0.2,0.6,0.3,0.9c0.1,0.4,0.3,0.7,0.4,1.1c0.1,0.4,0.3,0.7,0.4,1
		c0.1,0.2,0.1,0.4,0.2,0.7c0.1,0.3,0.2,0.6,0.2,0.8c0.1,0.3,0.1,0.5,0.2,0.8c0.1,0.2,0.1,0.3,0.1,0.4c0,0.3,0,0.6-0.1,0.8
		c-0.1,0.3-0.2,0.5-0.4,0.5c-0.1,0-0.2,0-0.3-0.1c-0.1-0.1-0.2-0.2-0.3-0.3s-0.1-0.2-0.2-0.3c0-0.1-0.1-0.2-0.1-0.2c0,0,0-0.1,0-0.2
		c0-0.1,0-0.2,0-0.2c0-0.3-0.1-0.8-0.3-1.5c-0.1-0.2-0.2-0.5-0.3-0.9s-0.3-0.8-0.4-1.2c-0.2-0.5-0.4-1-0.6-1.6
		c-0.1-0.2-0.1-0.4-0.2-0.4c-0.1,0-0.3,0.1-0.6,0.3c-0.3,0.2-0.6,0.4-1,0.7c-0.4,0.3-0.7,0.5-1.1,0.8c-0.4,0.3-0.8,0.6-1.1,0.8
		c-0.3,0.3-0.6,0.5-0.9,0.6c-0.2,0.2-0.4,0.3-0.5,0.3c-0.2,0-0.4,0-0.6-0.2c-0.2-0.1-0.2-0.3-0.3-0.5c0-0.1,0.1-0.3,0.4-0.5
		c0.3-0.2,0.6-0.5,1-0.8c0.4-0.3,0.9-0.6,1.4-0.9c0.5-0.3,0.9-0.6,1.4-0.9c0.4-0.3,0.9-0.5,1.5-0.9c-0.2-0.8-0.4-1.5-0.6-2.2
		c-0.1-0.5-0.3-1.1-0.4-1.5c-0.1-0.5-0.2-0.7-0.2-0.7c0-0.2,0-0.4,0.1-0.5c0.1-0.1,0.2-0.2,0.3-0.2c0.2,0,0.3,0.1,0.4,0.4
		c0.3,1,0.5,1.8,0.8,2.5c0.2,0.7,0.5,1.3,0.7,1.8c0.2-0.1,0.4-0.2,0.8-0.4c0.4-0.2,0.8-0.4,1.2-0.7c0.4-0.2,0.8-0.4,1.1-0.6
		c0.3-0.2,0.5-0.3,0.6-0.3c0.1,0,0.2,0,0.2,0.1C84.6,57.2,84.6,57.3,84.7,57.3z"/>
	<path class="st2" d="M95.6,64.1c0,0.2-0.1,0.3-0.3,0.5c-0.2,0.2-0.4,0.4-0.7,0.6c-0.3,0.2-0.6,0.3-0.8,0.5
		c-0.3,0.1-0.5,0.2-0.6,0.2c-0.2,0-0.3,0-0.5-0.1c-0.2-0.1-0.4-0.2-0.6-0.3c-0.2-0.1-0.3-0.2-0.5-0.3s-0.2-0.2-0.3-0.2
		c0,0.1-0.1,0.2-0.2,0.3c-0.1,0.2-0.2,0.4-0.3,0.6c-0.1,0.2-0.3,0.4-0.4,0.5s-0.3,0.2-0.5,0.3c-0.5,0-0.9-0.2-1.3-0.6
		c-0.4-0.5-0.7-1-1-1.6c-0.3-0.6-0.5-1.2-0.7-1.8c-0.2-0.6-0.3-1-0.3-1.2c0-0.1,0-0.2,0.2-0.3c0.1-0.1,0.2-0.1,0.3-0.1
		c0.3,0,0.4,0,0.5,0.2c0.1,0.2,0.2,0.3,0.2,0.5c0,0.2,0.1,0.4,0.2,0.8c0.1,0.4,0.3,0.8,0.5,1.2c0.2,0.4,0.4,0.8,0.6,1.1
		s0.3,0.5,0.5,0.5c0.2,0,0.4-0.2,0.6-0.5c0.1-0.3,0.3-0.7,0.3-1.1c0.1-0.4,0.1-0.8,0.1-1.1c0-0.4,0-0.6,0-0.7c0,0,0-0.1,0-0.2
		c0-0.1,0-0.2,0-0.3c0-0.1,0-0.2,0-0.3c0-0.1,0-0.2,0-0.2c0-0.1,0-0.2-0.1-0.2c-0.1,0-0.1-0.1-0.1-0.3c0-0.1,0-0.2,0.1-0.3
		c0.1-0.1,0.3-0.2,0.7-0.2c0.1,0,0.3,0,0.3,0.1c0.1,0.1,0.2,0.2,0.2,0.3c0,0.1,0.1,0.2,0.1,0.3c0,0.1,0,0.2,0,0.2c0,0,0,0.1,0,0.4
		c0,0.2,0,0.5,0,0.8c0,0.3,0,0.5,0,0.8c0,0.3,0,0.4,0,0.5c0,0.1,0,0.2,0.1,0.3c0.1,0.2,0.1,0.3,0.2,0.5s0.2,0.3,0.3,0.4
		c0.1,0.1,0.2,0.2,0.4,0.2c0.2,0,0.4-0.1,0.6-0.1c0.2-0.1,0.4-0.2,0.5-0.3s0.3-0.2,0.5-0.3s0.3-0.1,0.4-0.1c0.2,0,0.3,0,0.5,0.1
		C95.6,63.9,95.6,64,95.6,64.1z"/>
	<path class="st2" d="M102.7,59.7c0,0.1,0,0.2-0.1,0.3c-0.1,0.1-0.2,0.2-0.4,0.2c-0.1,0.1-0.3,0.1-0.4,0.2c-0.1,0-0.3,0.1-0.3,0.1
		c-0.3,0-0.5,0-0.5,0c-0.1,0-0.2,0-0.2,0c-0.4,0-0.8,0.1-1.1,0.2c-0.3,0.1-0.5,0.2-0.6,0.4c-0.1,0.2-0.2,0.4-0.2,0.6s0,0.5,0,0.9
		c0.1,0.6,0.1,1,0.2,1.4c0.1,0.3,0.1,0.6,0.2,0.8c0.1,0.2,0.1,0.4,0.2,0.5c0.1,0.1,0.1,0.2,0.1,0.3c0,0.1-0.1,0.3-0.2,0.5
		c-0.1,0.2-0.3,0.3-0.4,0.3c-0.2,0-0.4-0.2-0.6-0.5c-0.2-0.4-0.4-0.8-0.6-1.3c-0.2-0.5-0.3-1-0.4-1.5s-0.2-0.9-0.2-1.2
		c0-0.3,0-0.6,0-0.9c0-0.3,0.1-0.5,0.2-0.7c0.1-0.2,0.2-0.4,0.3-0.5c0.1-0.1,0.2-0.2,0.3-0.2c0.1,0,0.2,0,0.2,0.1
		c0.1,0.1,0.1,0.1,0.2,0.2c0,0.1,0.1,0.1,0.1,0.2c0.1,0.1,0.1,0.1,0.2,0.1c0.2,0,0.4-0.1,0.8-0.3c0.3-0.2,0.8-0.3,1.3-0.4
		c0.5,0,0.8-0.1,1.1-0.1s0.5,0,0.7,0.1c0.1,0,0.1,0,0.2,0.1C102.7,59.5,102.7,59.6,102.7,59.7z"/>
	<path class="st2" d="M112.8,64.3c0,0,0,0.1,0,0.2c0,0.1-0.1,0.3-0.2,0.5c0,0.1-0.2,0.2-0.3,0.4c-0.2,0.2-0.4,0.4-0.7,0.5
		c-0.3,0.2-0.7,0.4-1.1,0.5c-0.4,0.2-0.9,0.3-1.5,0.3c-0.4,0-0.8,0-1.2-0.2c-0.4-0.2-0.8-0.4-1.1-0.7c-0.3-0.3-0.6-0.8-0.9-1.3
		c-0.2-0.5-0.4-1.2-0.5-1.9c-0.1-0.7,0-1.4,0.1-2c0.1-0.6,0.3-1.2,0.5-1.7c0.2-0.5,0.5-0.9,0.8-1.2c0.3-0.3,0.6-0.5,1-0.5
		c0.3,0,0.6,0,0.9,0.1c0.3,0.1,0.6,0.2,0.8,0.4c0.3,0.2,0.5,0.3,0.6,0.6c0.2,0.2,0.3,0.4,0.3,0.7c0,0.3-0.1,0.6-0.3,0.9
		c-0.2,0.3-0.5,0.6-0.8,0.9c-0.3,0.3-0.6,0.5-1,0.7c-0.3,0.2-0.6,0.3-0.8,0.3c-0.1,0-0.2,0-0.3-0.1c-0.1-0.1-0.1-0.2-0.2-0.4
		c0-0.2,0.1-0.5,0.3-0.6c0.2-0.2,0.4-0.3,0.7-0.5c0.3-0.1,0.5-0.3,0.7-0.5c0.2-0.2,0.3-0.4,0.3-0.7c0,0-0.1-0.1-0.2-0.3
		c-0.1-0.1-0.4-0.2-0.7-0.2c-0.2,0-0.4,0.1-0.6,0.4s-0.4,0.5-0.6,0.9c-0.2,0.4-0.3,0.8-0.4,1.3c-0.1,0.5-0.1,1-0.1,1.6
		c0,0.5,0.2,0.9,0.4,1.2c0.2,0.4,0.5,0.7,0.7,0.9c0.3,0.2,0.6,0.4,1,0.5c0.4,0.1,0.7,0.2,1.1,0.1c0.3,0,0.6-0.1,0.9-0.3
		c0.3-0.1,0.6-0.3,0.9-0.5c0.3-0.2,0.5-0.3,0.7-0.4c0.2-0.1,0.3-0.2,0.4-0.2c0.1,0,0.1,0,0.2,0.1C112.8,64.2,112.8,64.2,112.8,64.3z
		"/>
	<path class="st2" d="M117.4,65.8c0,0.2,0,0.5-0.2,0.9c-0.1,0.4-0.3,0.8-0.5,1.2c-0.2,0.4-0.4,0.7-0.7,1.1c-0.3,0.3-0.5,0.5-0.8,0.5
		c-0.1,0-0.3,0-0.4-0.1c-0.1-0.1-0.2-0.2-0.2-0.2c0,0,0.1-0.1,0.2-0.4c0.2-0.2,0.3-0.5,0.5-0.8s0.4-0.6,0.5-1c0.1-0.4,0.2-0.7,0.2-1
		c0-0.3-0.1-0.6-0.2-0.8c-0.1-0.2-0.2-0.3-0.3-0.4s-0.2-0.2-0.3-0.3c-0.1-0.1-0.1-0.2-0.2-0.4c0-0.3,0.1-0.4,0.4-0.4
		c0.3,0,0.5,0,0.8,0.2s0.4,0.4,0.6,0.6c0.2,0.2,0.3,0.5,0.4,0.8C117.3,65.4,117.4,65.7,117.4,65.8z"/>
	<path class="st2" d="M142.6,62c0,0.1,0,0.3-0.1,0.4c-0.1,0.1-0.2,0.2-0.3,0.3c-0.1,0.1-0.2,0.1-0.4,0.2c-0.1,0-0.2,0.1-0.3,0.1
		c-0.4,0-0.7-0.1-1-0.5c-0.3-0.4-0.6-0.8-0.8-1.3c-0.2-0.5-0.4-0.9-0.5-1.4c-0.1-0.4-0.2-0.7-0.2-0.7c-0.1,0.2-0.2,0.5-0.2,1
		c-0.1,0.5-0.2,1-0.3,1.4c-0.1,0.5-0.3,0.9-0.5,1.3c-0.2,0.4-0.5,0.6-0.9,0.6c-0.2,0-0.4-0.1-0.5-0.3c-0.2-0.2-0.4-0.5-0.5-0.8
		c-0.2-0.3-0.3-0.7-0.5-1.1c-0.2-0.4-0.3-0.8-0.5-1.2s-0.3-0.8-0.5-1.1c-0.2-0.4-0.3-0.6-0.5-0.8c-0.1,0.3-0.1,0.7-0.2,1.1
		c0,0.5-0.1,1-0.1,1.5c0,0.5,0,1,0,1.5c0,0.5,0,0.9,0.1,1.3c0,0.3,0,0.4-0.2,0.6c-0.1,0.1-0.3,0.2-0.4,0.2c-0.2,0-0.4-0.1-0.6-0.3
		c-0.2-0.2-0.4-0.6-0.7-1c-0.2-0.4-0.5-0.8-0.7-1.4c-0.2-0.5-0.4-1-0.6-1.5c-0.2-0.5-0.3-1-0.4-1.5c-0.1-0.5-0.2-0.9-0.2-1.2
		c0-0.2,0-0.4,0-0.6c0-0.2,0-0.3,0-0.5c0-0.1,0-0.2,0-0.2c0-0.1,0-0.1-0.1-0.1c0,0,0-0.1-0.1-0.1c0-0.1,0.1-0.1,0.2-0.3
		s0.3-0.2,0.4-0.2c0.2,0,0.4,0,0.5,0.1c0.1,0.1,0.1,0.2,0.2,0.4c0,0.1,0,0.1,0,0.2c0,0.1,0,0.4,0,0.7c0,0.3,0.1,0.6,0.2,1.1
		s0.3,1,0.5,1.5c0.2,0.5,0.3,1,0.5,1.4c0.2,0.4,0.3,0.7,0.4,0.8c0-0.1,0-0.2,0-0.3c0-0.1,0-0.2,0-0.2L133,59c0-0.6,0.1-1.2,0.3-1.8
		s0.4-1.1,0.6-1.5c0.1-0.2,0.2-0.2,0.3-0.2c0.1,0,0.2,0.1,0.3,0.2c0.3,0.5,0.6,1,0.8,1.4c0.2,0.5,0.4,1,0.5,1.4
		c0.2,0.5,0.3,0.9,0.5,1.4c0.2,0.5,0.5,0.9,0.8,1.4c0.1-0.2,0.3-0.6,0.4-1.2c0.2-0.5,0.3-1.1,0.5-1.7c0.2-0.6,0.3-1,0.5-1.5
		c0.2-0.4,0.3-0.6,0.4-0.6c0.1,0,0.1,0,0.3,0c0.1,0,0.2,0,0.3,0c0.2,0,0.3,0.2,0.5,0.5c0.1,0.4,0.3,0.8,0.4,1.3
		c0.1,0.5,0.2,1,0.4,1.5c0.1,0.5,0.3,0.9,0.4,1.1c0.1,0.2,0.2,0.3,0.4,0.5c0.2,0.1,0.3,0.3,0.5,0.4C142.3,61.7,142.4,61.8,142.6,62z
		"/>
	<path class="st2" d="M157.3,57.6c0,0.3-0.1,0.7-0.3,1.2c-0.3,0.5-0.6,1-1.1,1.5c-0.5,0.5-1,0.9-1.6,1.3c-0.6,0.4-1.3,0.6-2,0.7
		c-0.3,0-0.7,0-1-0.1c-0.4-0.1-0.7-0.2-1.1-0.4c-0.4-0.2-0.7-0.4-1-0.7c-0.3-0.3-0.5-0.6-0.7-1c-0.1,0.1-0.2,0.3-0.3,0.6
		c-0.1,0.3-0.3,0.5-0.4,0.8c-0.2,0.3-0.3,0.5-0.5,0.7c-0.2,0.2-0.4,0.3-0.6,0.3c-0.2,0-0.4-0.1-0.6-0.3c-0.2-0.2-0.3-0.5-0.4-0.8
		c-0.1-0.3-0.2-0.6-0.3-0.8c-0.1-0.3-0.1-0.4-0.1-0.5c0-0.2,0-0.6,0.1-1.2c0.1-0.6,0.2-1.3,0.4-1.9c0.2-0.7,0.5-1.3,0.8-1.8
		c0.3-0.5,0.8-0.8,1.3-0.9c0.2,0,0.3,0.1,0.4,0.2c0.1,0.2,0.1,0.3,0.1,0.5l0.1,0.8c0.1,0.1,0.2,0.1,0.3,0.1c0.1,0,0.2,0,0.3,0.1
		c0.1,0,0.2,0.1,0.2,0.2c0.1,0.1,0.1,0.2,0.1,0.4c0,0.1,0,0.2,0,0.3c0,0.1,0,0.2,0,0.3c0,0.5,0.1,0.9,0.2,1.4
		c0.1,0.4,0.3,0.8,0.5,1.2c0.2,0.3,0.6,0.6,1,0.8s0.9,0.3,1.5,0.2c0.8-0.1,1.4-0.3,2-0.7c0.5-0.4,0.9-0.8,1.3-1.2
		c0.3-0.4,0.6-0.8,0.8-1.2c0.2-0.4,0.4-0.5,0.5-0.5C157.2,57.2,157.3,57.4,157.3,57.6z M147.8,57.2c0-0.1,0-0.1-0.1-0.2
		c0-0.1-0.1-0.1-0.1-0.2c0-0.1,0-0.1,0-0.2c0-0.1,0-0.1,0-0.2c0-0.1,0-0.1-0.1-0.1c0,0-0.1-0.1-0.1-0.1c-0.2,0.1-0.3,0.2-0.5,0.5
		c-0.1,0.3-0.3,0.6-0.4,1c-0.1,0.4-0.2,0.7-0.3,1.1c-0.1,0.4-0.1,0.7-0.1,0.9c0,0.1,0.1,0.3,0.2,0.6c0.1,0.3,0.2,0.5,0.3,0.5
		c0.2-0.7,0.5-1.3,0.7-1.9C147.7,58.4,147.8,57.8,147.8,57.2z"/>
	<path class="st2" d="M165.9,59.1c0,0.1,0,0.2-0.1,0.3c-0.1,0.1-0.1,0.2-0.2,0.3c-0.1,0.1-0.2,0.2-0.3,0.3c-0.1,0.1-0.2,0.1-0.3,0.1
		c-0.3,0-0.7,0-1.2-0.1c-0.5-0.1-0.9-0.3-1.2-0.5c-0.3-0.3-0.6-0.6-0.9-1c-0.3-0.4-0.6-1-0.9-1.8c-0.1,0.8-0.3,1.6-0.5,2.4
		c-0.2,0.8-0.5,1.5-1.1,2.2c0,0-0.1,0.1-0.2,0.1c-0.1,0-0.3,0-0.4-0.2s-0.2-0.2-0.2-0.4s-0.1-0.4-0.1-0.9c-0.1-0.5-0.1-1-0.2-1.5
		c-0.1-0.6-0.2-1.1-0.2-1.7c-0.1-0.6-0.1-1.1-0.2-1.4c0-0.2,0-0.4,0-0.7c0-0.3,0-0.6,0.1-0.8c0,0,0.1-0.1,0.2-0.2
		c0.1-0.1,0.2-0.2,0.4-0.2c0.1,0,0.2,0.1,0.2,0.2c0,0.2,0.1,0.3,0.1,0.5l0.4,4.2c0,0.1,0,0.2,0.1,0.4c0,0.2,0.1,0.3,0.2,0.3
		c0.2-0.4,0.3-1,0.4-1.6c0.1-0.6,0.2-1.2,0.4-1.7c0.1-0.5,0.2-1,0.4-1.4c0.1-0.4,0.3-0.6,0.4-0.6c0.2,0,0.3,0,0.4,0.1
		c0.1,0.1,0.2,0.2,0.3,0.4c0.1,0.5,0.2,1,0.3,1.4c0.1,0.4,0.2,0.8,0.3,1.1c0.1,0.3,0.3,0.6,0.4,0.9c0.2,0.3,0.4,0.5,0.7,0.7
		c0.3,0.2,0.6,0.4,0.9,0.4c0.3,0.1,0.6,0.1,0.8,0.1c0.1,0,0.2,0,0.3-0.1c0.1-0.1,0.2-0.1,0.3-0.1c0.1,0,0.1,0.1,0.2,0.2
		C165.9,59,165.9,59.1,165.9,59.1z"/>
	<path class="st2" d="M179.9,55.6c0,0.3-0.1,0.7-0.3,1.2c-0.3,0.5-0.6,1-1.1,1.5c-0.5,0.5-1,0.9-1.6,1.3c-0.6,0.4-1.3,0.6-2,0.7
		c-0.3,0-0.7,0-1-0.1c-0.4-0.1-0.7-0.2-1.1-0.4c-0.4-0.2-0.7-0.4-1-0.7c-0.3-0.3-0.5-0.6-0.7-1c-0.1,0.1-0.2,0.3-0.3,0.6
		c-0.1,0.3-0.3,0.5-0.4,0.8c-0.2,0.3-0.3,0.5-0.5,0.7c-0.2,0.2-0.4,0.3-0.6,0.3c-0.2,0-0.4-0.1-0.6-0.3c-0.2-0.2-0.3-0.5-0.4-0.8
		c-0.1-0.3-0.2-0.6-0.3-0.8c-0.1-0.3-0.1-0.4-0.1-0.5c0-0.2,0-0.6,0.1-1.2c0.1-0.6,0.2-1.3,0.4-1.9c0.2-0.7,0.5-1.3,0.8-1.8
		c0.3-0.5,0.8-0.8,1.3-0.9c0.2,0,0.3,0.1,0.4,0.2c0.1,0.2,0.1,0.3,0.1,0.5l0.1,0.8c0.1,0.1,0.2,0.1,0.3,0.1c0.1,0,0.2,0,0.3,0.1
		c0.1,0,0.2,0.1,0.2,0.2c0.1,0.1,0.1,0.2,0.1,0.4c0,0.1,0,0.2,0,0.3c0,0.1,0,0.2,0,0.3c0,0.5,0.1,0.9,0.2,1.4
		c0.1,0.4,0.3,0.8,0.5,1.2c0.2,0.3,0.6,0.6,1,0.8s0.9,0.3,1.5,0.2c0.8-0.1,1.4-0.3,2-0.7c0.5-0.4,0.9-0.8,1.3-1.2
		c0.3-0.4,0.6-0.8,0.8-1.2c0.2-0.4,0.4-0.5,0.5-0.5C179.7,55.3,179.8,55.4,179.9,55.6z M170.3,55.3c0-0.1,0-0.1-0.1-0.2
		s-0.1-0.1-0.1-0.2c0-0.1,0-0.1,0-0.2c0-0.1,0-0.1,0-0.2c0-0.1,0-0.1-0.1-0.1c0,0-0.1-0.1-0.1-0.1c-0.2,0.1-0.3,0.2-0.5,0.5
		c-0.1,0.3-0.3,0.6-0.4,1c-0.1,0.4-0.2,0.7-0.3,1.1c-0.1,0.4-0.1,0.7-0.1,0.9c0,0.1,0.1,0.3,0.2,0.6c0.1,0.3,0.2,0.5,0.3,0.5
		c0.2-0.7,0.5-1.3,0.7-1.9S170.4,55.8,170.3,55.3z"/>
	<path class="st2" d="M187.1,58.2c0,0.2,0,0.3-0.2,0.4c-0.1,0.1-0.2,0.2-0.2,0.3c0,0,0,0.1,0.1,0.3c0.1,0.2,0.2,0.4,0.3,0.7
		c0.2,0.5,0.3,0.9,0.4,1.2c0.1,0.3,0.2,0.7,0.3,1c0.1,0.3,0.2,0.6,0.2,0.9c0.1,0.3,0.1,0.6,0.1,1c0,0.4,0,0.8-0.1,1.2
		c-0.1,0.4-0.2,0.8-0.4,1.1c-0.2,0.3-0.5,0.6-0.8,0.8c-0.3,0.2-0.7,0.4-1.1,0.4c-0.7,0.1-1.2,0-1.6-0.3c-0.4-0.2-0.7-0.5-1-0.8
		c-0.2-0.3-0.4-0.6-0.5-1c-0.1-0.3-0.1-0.5-0.1-0.7c-0.1-0.7,0.1-1.3,0.3-2c0.3-0.7,0.6-1.3,1-1.9c0.4-0.6,0.7-1.1,1-1.4
		c0.3-0.4,0.5-0.6,0.5-0.7l-0.4-0.9c-0.2,0.2-0.3,0.5-0.4,0.8c-0.1,0.3-0.2,0.5-0.4,0.8c-0.1,0.2-0.3,0.4-0.5,0.6
		c-0.2,0.2-0.4,0.3-0.7,0.3c-0.3,0-0.7,0-1-0.2c-0.3-0.2-0.7-0.4-0.9-0.8c-0.3-0.4-0.5-0.8-0.7-1.4c-0.2-0.5-0.3-1.2-0.4-1.9
		c0-0.4,0-0.9,0.1-1.6c0.1-0.6,0.2-1.2,0.4-1.8c0.2-0.6,0.5-1.1,0.9-1.6c0.4-0.4,0.8-0.7,1.4-0.7c0.3,0,0.6,0,0.9,0.1
		c0.3,0.1,0.4,0.2,0.4,0.4c0,0.1,0,0.3,0,0.4c0,0.1-0.1,0.2-0.2,0.3c-0.1,0-0.1-0.1-0.2-0.1c-0.1,0-0.2,0-0.3,0
		c-0.4,0-0.7,0.2-1,0.6c-0.3,0.4-0.5,0.8-0.7,1.4c-0.2,0.5-0.3,1.1-0.4,1.6c-0.1,0.6-0.1,1.1,0,1.5c0.1,0.9,0.3,1.6,0.6,2
		c0.3,0.4,0.7,0.7,1,0.6c0.2,0,0.3-0.1,0.5-0.4c0.2-0.3,0.3-0.5,0.5-0.9c0.1-0.3,0.3-0.6,0.4-0.9c0.1-0.3,0.2-0.4,0.2-0.5
		c0-0.2,0-0.4,0-0.6c0-0.2,0-0.4-0.1-0.7c0-0.2-0.1-0.5-0.1-0.7c0-0.5,0-0.9,0-1.2c0-0.3,0.2-0.5,0.5-0.5c0.3,0,0.5,0,0.6,0.2
		c0.1,0.2,0.2,0.4,0.2,0.6c0,0.2,0,0.4,0,0.6c0,0.2,0,0.4,0,0.6c0,0.2,0,0.4,0,0.5c0,0.2,0,0.2,0,0.3c0,0.1,0,0.3,0.1,0.5
		c0,0.2,0.1,0.4,0.1,0.6c0,0.2,0.1,0.4,0.1,0.6s0.1,0.3,0.1,0.3c0,0.1,0.1,0.1,0.1,0.2c0,0.1,0.1,0.2,0.1,0.2c0,0,0-0.1,0.1-0.1
		c0.1,0,0.1-0.1,0.1-0.1c0.1,0,0.2,0.1,0.3,0.3C187.1,58.1,187.1,58.2,187.1,58.2z M186.5,61.7c-0.1-0.3-0.2-0.6-0.3-0.8
		c-0.1-0.3-0.2-0.6-0.3-0.9c-0.3,0.4-0.5,0.8-0.8,1.2s-0.5,0.7-0.7,1.1c-0.2,0.4-0.3,0.7-0.4,1.1s-0.1,0.8-0.1,1.2
		c0,0.6,0.2,1,0.6,1.3c0.3,0.3,0.7,0.5,1.1,0.4c0.4,0,0.8-0.2,1.1-0.6c0.3-0.3,0.5-0.8,0.4-1.4c0-0.4-0.1-0.7-0.1-0.9
		c0-0.3-0.1-0.5-0.1-0.7c0-0.2-0.1-0.4-0.2-0.5C186.7,62.1,186.6,62,186.5,61.7z"/>
	<path class="st2" d="M196.8,56.9c0,0,0,0.1,0,0.2c0,0.1-0.1,0.3-0.2,0.5c0,0.1-0.2,0.2-0.3,0.4c-0.2,0.2-0.4,0.4-0.7,0.5
		c-0.3,0.2-0.7,0.4-1.1,0.5s-0.9,0.3-1.5,0.3c-0.4,0-0.8,0-1.2-0.2c-0.4-0.2-0.8-0.4-1.1-0.7c-0.3-0.3-0.6-0.8-0.9-1.3
		c-0.2-0.5-0.4-1.2-0.5-1.9c-0.1-0.7,0-1.4,0.1-2c0.1-0.6,0.3-1.2,0.5-1.7c0.2-0.5,0.5-0.9,0.8-1.2c0.3-0.3,0.6-0.5,1-0.5
		c0.3,0,0.6,0,0.9,0.1c0.3,0.1,0.6,0.2,0.8,0.4c0.3,0.2,0.5,0.3,0.6,0.6c0.2,0.2,0.3,0.4,0.3,0.7c0,0.3-0.1,0.6-0.3,0.9
		c-0.2,0.3-0.5,0.6-0.8,0.9c-0.3,0.3-0.6,0.5-1,0.7c-0.3,0.2-0.6,0.3-0.8,0.3c-0.1,0-0.2,0-0.3-0.1s-0.1-0.2-0.2-0.4
		c0-0.2,0.1-0.5,0.3-0.6c0.2-0.2,0.4-0.3,0.7-0.5c0.3-0.1,0.5-0.3,0.7-0.5c0.2-0.2,0.3-0.4,0.3-0.7c0,0-0.1-0.1-0.2-0.3
		c-0.1-0.1-0.4-0.2-0.7-0.2c-0.2,0-0.4,0.1-0.6,0.4c-0.2,0.2-0.4,0.5-0.6,0.9c-0.2,0.4-0.3,0.8-0.4,1.3c-0.1,0.5-0.1,1-0.1,1.6
		c0,0.5,0.2,0.9,0.4,1.2c0.2,0.4,0.5,0.7,0.7,0.9c0.3,0.2,0.6,0.4,1,0.5c0.4,0.1,0.7,0.2,1.1,0.1c0.3,0,0.6-0.1,0.9-0.3
		c0.3-0.1,0.6-0.3,0.9-0.5c0.3-0.2,0.5-0.3,0.7-0.4c0.2-0.1,0.3-0.2,0.4-0.2c0.1,0,0.1,0,0.2,0.1C196.7,56.8,196.8,56.9,196.8,56.9z
		"/>
	<path class="st2" d="M210.7,56c0,0.1,0,0.3-0.1,0.4c-0.1,0.1-0.2,0.2-0.3,0.3c-0.1,0.1-0.2,0.1-0.4,0.2c-0.1,0-0.2,0.1-0.3,0.1
		c-0.4,0-0.7-0.1-1-0.5c-0.3-0.4-0.6-0.8-0.8-1.3c-0.2-0.5-0.4-0.9-0.5-1.4c-0.1-0.4-0.2-0.7-0.2-0.7c-0.1,0.2-0.2,0.5-0.2,1
		c-0.1,0.5-0.2,1-0.3,1.4c-0.1,0.5-0.3,0.9-0.5,1.3c-0.2,0.4-0.5,0.6-0.9,0.6c-0.2,0-0.4-0.1-0.5-0.3c-0.2-0.2-0.4-0.5-0.5-0.8
		c-0.2-0.3-0.3-0.7-0.5-1.1c-0.2-0.4-0.3-0.8-0.5-1.2s-0.3-0.8-0.5-1.1c-0.2-0.4-0.3-0.6-0.5-0.8c-0.1,0.3-0.1,0.7-0.2,1.1
		s-0.1,1-0.1,1.5c0,0.5,0,1,0,1.5c0,0.5,0,0.9,0.1,1.3c0,0.3,0,0.4-0.2,0.6c-0.1,0.1-0.3,0.2-0.4,0.2c-0.2,0-0.4-0.1-0.6-0.3
		c-0.2-0.2-0.4-0.6-0.7-1c-0.2-0.4-0.5-0.8-0.7-1.4c-0.2-0.5-0.4-1-0.6-1.5c-0.2-0.5-0.3-1-0.4-1.5c-0.1-0.5-0.2-0.9-0.2-1.2
		c0-0.2,0-0.4,0-0.6c0-0.2,0-0.3,0-0.5c0-0.1,0-0.2,0-0.2c0-0.1,0-0.1-0.1-0.1c0,0,0-0.1-0.1-0.1c0-0.1,0.1-0.1,0.2-0.3
		s0.3-0.2,0.4-0.2c0.2,0,0.4,0,0.5,0.1c0.1,0.1,0.1,0.2,0.2,0.4c0,0.1,0,0.1,0,0.2c0,0.1,0,0.4,0,0.7c0,0.3,0.1,0.6,0.2,1.1
		c0.1,0.5,0.3,1,0.5,1.5c0.2,0.5,0.3,1,0.5,1.4c0.2,0.4,0.3,0.7,0.4,0.8c0-0.1,0-0.2,0-0.3c0-0.1,0-0.2,0-0.2l0.1-2.2
		c0-0.6,0.1-1.2,0.3-1.8s0.4-1.1,0.6-1.5c0.1-0.2,0.2-0.2,0.3-0.2c0.1,0,0.2,0.1,0.3,0.2c0.3,0.5,0.6,1,0.8,1.4s0.4,1,0.5,1.4
		c0.2,0.5,0.3,0.9,0.5,1.4c0.2,0.5,0.5,0.9,0.8,1.4c0.1-0.2,0.3-0.6,0.4-1.2c0.2-0.5,0.3-1.1,0.5-1.7c0.2-0.6,0.3-1,0.5-1.5
		c0.2-0.4,0.3-0.6,0.4-0.6c0.1,0,0.1,0,0.3,0c0.1,0,0.2,0,0.3,0c0.2,0,0.3,0.2,0.5,0.5c0.1,0.4,0.3,0.8,0.4,1.3
		c0.1,0.5,0.2,1,0.4,1.5c0.1,0.5,0.3,0.8,0.4,1.1c0.1,0.2,0.2,0.3,0.4,0.5c0.2,0.1,0.3,0.3,0.5,0.4C210.3,55.7,210.5,55.9,210.7,56z
		"/>
	<path class="st2" d="M220.3,54.9c0,0,0,0.1,0,0.2c0,0.1-0.1,0.3-0.2,0.5c0,0.1-0.2,0.2-0.3,0.4c-0.2,0.2-0.4,0.4-0.7,0.5
		c-0.3,0.2-0.7,0.4-1.1,0.5c-0.4,0.2-0.9,0.3-1.5,0.3c-0.4,0-0.8,0-1.2-0.2c-0.4-0.2-0.8-0.4-1.1-0.7c-0.3-0.3-0.6-0.8-0.9-1.3
		c-0.2-0.5-0.4-1.2-0.5-1.9c-0.1-0.7,0-1.4,0.1-2c0.1-0.6,0.3-1.2,0.5-1.7c0.2-0.5,0.5-0.9,0.8-1.2c0.3-0.3,0.6-0.5,1-0.5
		c0.3,0,0.6,0,0.9,0.1c0.3,0.1,0.6,0.2,0.8,0.4c0.3,0.2,0.5,0.3,0.6,0.6c0.2,0.2,0.3,0.4,0.3,0.7c0,0.3-0.1,0.6-0.3,0.9
		c-0.2,0.3-0.5,0.6-0.8,0.9c-0.3,0.3-0.6,0.5-1,0.7c-0.3,0.2-0.6,0.3-0.8,0.3c-0.1,0-0.2,0-0.3-0.1c-0.1-0.1-0.1-0.2-0.2-0.4
		c0-0.2,0.1-0.5,0.3-0.6c0.2-0.2,0.4-0.3,0.7-0.5c0.3-0.1,0.5-0.3,0.7-0.5c0.2-0.2,0.3-0.4,0.3-0.7c0,0-0.1-0.1-0.2-0.3
		s-0.4-0.2-0.7-0.2c-0.2,0-0.4,0.1-0.6,0.4s-0.4,0.5-0.6,0.9c-0.2,0.4-0.3,0.8-0.4,1.3c-0.1,0.5-0.1,1-0.1,1.6
		c0,0.5,0.2,0.9,0.4,1.2c0.2,0.4,0.5,0.7,0.7,0.9c0.3,0.2,0.6,0.4,1,0.5c0.4,0.1,0.7,0.2,1.1,0.1c0.3,0,0.6-0.1,0.9-0.3
		c0.3-0.1,0.6-0.3,0.9-0.5c0.3-0.2,0.5-0.3,0.7-0.4c0.2-0.1,0.3-0.2,0.4-0.2s0.1,0,0.2,0.1C220.2,54.8,220.3,54.8,220.3,54.9z"/>
	<path class="st2" d="M230.2,53.5c0,0.1,0,0.2-0.1,0.3c-0.1,0.1-0.1,0.2-0.2,0.3c-0.1,0.1-0.2,0.2-0.3,0.3c-0.1,0.1-0.2,0.1-0.3,0.1
		c-0.3,0-0.7,0-1.2-0.1c-0.5-0.1-0.9-0.3-1.2-0.5c-0.3-0.3-0.6-0.6-0.9-1c-0.3-0.4-0.6-1-0.9-1.8c-0.1,0.8-0.3,1.6-0.5,2.4
		c-0.2,0.8-0.5,1.5-1.1,2.2c0,0-0.1,0.1-0.2,0.1c-0.1,0-0.3,0-0.4-0.2c-0.2-0.1-0.2-0.2-0.2-0.4c0-0.1,0-0.4-0.1-0.9
		c-0.1-0.5-0.1-1-0.2-1.5c-0.1-0.6-0.2-1.1-0.2-1.7c-0.1-0.6-0.1-1.1-0.2-1.4c0-0.2,0-0.4,0-0.7c0-0.3,0-0.6,0.1-0.8
		c0,0,0.1-0.1,0.2-0.2c0.1-0.1,0.2-0.2,0.4-0.2c0.1,0,0.2,0.1,0.2,0.2c0,0.2,0.1,0.3,0.1,0.5l0.4,4.2c0,0.1,0,0.2,0.1,0.4
		c0,0.2,0.1,0.3,0.2,0.3c0.2-0.4,0.3-1,0.4-1.6c0.1-0.6,0.2-1.2,0.4-1.7c0.1-0.5,0.2-1,0.4-1.4s0.3-0.6,0.4-0.6c0.2,0,0.3,0,0.4,0.1
		c0.1,0.1,0.2,0.2,0.3,0.4c0.1,0.5,0.2,1,0.3,1.4s0.2,0.8,0.3,1.1c0.1,0.3,0.3,0.6,0.4,0.9c0.2,0.3,0.4,0.5,0.7,0.7
		c0.3,0.2,0.6,0.4,0.9,0.4c0.3,0.1,0.6,0.1,0.8,0.1c0.1,0,0.2,0,0.3-0.1c0.1-0.1,0.2-0.1,0.3-0.1c0.1,0,0.1,0.1,0.2,0.2
		C230.2,53.4,230.2,53.5,230.2,53.5z"/>
	<path class="st2" d="M238,43.9c-0.2,0.3-0.5,0.6-0.9,0.9c-0.4,0.3-0.8,0.6-1.2,0.8c-0.4,0.3-0.8,0.5-1.1,0.6
		c-0.3,0.2-0.5,0.3-0.5,0.4s0.1,0.2,0.1,0.5c0.1,0.3,0.2,0.6,0.3,0.9c0.1,0.4,0.3,0.7,0.4,1.1c0.1,0.4,0.3,0.7,0.4,1
		c0.1,0.2,0.1,0.4,0.2,0.7c0.1,0.3,0.2,0.6,0.2,0.8c0.1,0.3,0.1,0.5,0.2,0.8c0.1,0.2,0.1,0.3,0.1,0.4c0,0.3,0,0.6-0.1,0.8
		c-0.1,0.3-0.2,0.5-0.4,0.5c-0.1,0-0.2,0-0.3-0.1c-0.1-0.1-0.2-0.2-0.3-0.3c-0.1-0.1-0.1-0.2-0.2-0.3s-0.1-0.2-0.1-0.2
		c0,0,0-0.1,0-0.2c0-0.1,0-0.2,0-0.2c0-0.3-0.1-0.8-0.3-1.5c-0.1-0.2-0.2-0.5-0.3-0.9c-0.1-0.4-0.3-0.8-0.4-1.2
		c-0.2-0.5-0.4-1-0.6-1.6c-0.1-0.2-0.1-0.4-0.2-0.4c-0.1,0-0.3,0.1-0.6,0.3c-0.3,0.2-0.6,0.4-1,0.7c-0.4,0.3-0.7,0.5-1.1,0.8
		s-0.8,0.6-1.1,0.8c-0.3,0.3-0.6,0.5-0.9,0.6c-0.2,0.2-0.4,0.3-0.5,0.3c-0.2,0-0.4,0-0.6-0.2c-0.2-0.1-0.2-0.3-0.3-0.5
		c0-0.1,0.1-0.3,0.4-0.5c0.3-0.2,0.6-0.5,1-0.8c0.4-0.3,0.9-0.6,1.4-0.9c0.5-0.3,0.9-0.6,1.4-0.9c0.4-0.3,0.9-0.5,1.5-0.9
		c-0.2-0.8-0.4-1.5-0.6-2.2c-0.1-0.5-0.3-1.1-0.4-1.5c-0.1-0.5-0.2-0.7-0.2-0.7c0-0.2,0-0.4,0.1-0.5c0.1-0.1,0.2-0.2,0.3-0.2
		c0.2,0,0.3,0.1,0.4,0.4c0.3,1,0.5,1.8,0.8,2.5s0.5,1.3,0.7,1.8c0.2-0.1,0.4-0.2,0.8-0.4c0.4-0.2,0.8-0.4,1.2-0.7
		c0.4-0.2,0.8-0.4,1.1-0.6c0.3-0.2,0.5-0.3,0.6-0.3c0.1,0,0.2,0,0.2,0.1C237.9,43.8,237.9,43.9,238,43.9z"/>
	<path class="st2" d="M242.9,54.9c0,0.2,0,0.5-0.2,0.9s-0.3,0.8-0.5,1.2c-0.2,0.4-0.4,0.7-0.7,1.1c-0.3,0.3-0.5,0.5-0.8,0.5
		c-0.1,0-0.3,0-0.4-0.1c-0.1-0.1-0.2-0.2-0.2-0.2c0,0,0.1-0.1,0.2-0.4c0.2-0.2,0.3-0.5,0.5-0.8c0.2-0.3,0.4-0.6,0.5-1
		c0.1-0.4,0.2-0.7,0.2-1c0-0.3-0.1-0.6-0.2-0.8c-0.1-0.2-0.2-0.3-0.3-0.4c-0.1-0.1-0.2-0.2-0.3-0.3c-0.1-0.1-0.1-0.2-0.2-0.4
		c0-0.3,0.1-0.4,0.4-0.4c0.3,0,0.5,0,0.8,0.2c0.2,0.2,0.4,0.4,0.6,0.6c0.2,0.2,0.3,0.5,0.4,0.8C242.8,54.5,242.9,54.7,242.9,54.9z"
		/>
</g>
<g class="st1">
	<path class="st2" d="M18.1,92.8c0,0.3-0.1,0.7-0.3,1.2c-0.3,0.5-0.6,1-1.1,1.5c-0.5,0.5-1,0.9-1.6,1.3c-0.6,0.4-1.3,0.6-2,0.7
		c-0.3,0-0.7,0-1-0.1c-0.4-0.1-0.7-0.2-1.1-0.4c-0.4-0.2-0.7-0.4-1-0.7c-0.3-0.3-0.5-0.6-0.7-1C9.2,95.6,9,95.8,8.9,96
		c-0.1,0.3-0.3,0.5-0.4,0.8c-0.2,0.3-0.3,0.5-0.5,0.7c-0.2,0.2-0.4,0.3-0.6,0.3c-0.2,0-0.4-0.1-0.6-0.3c-0.2-0.2-0.3-0.5-0.4-0.8
		C6.1,96.5,6.1,96.2,6,96c-0.1-0.3-0.1-0.4-0.1-0.5c0-0.2,0-0.6,0.1-1.2c0.1-0.6,0.2-1.3,0.4-1.9c0.2-0.7,0.5-1.3,0.8-1.8
		C7.5,90,8,89.7,8.5,89.7c0.2,0,0.3,0.1,0.4,0.2C9,90.1,9,90.2,9,90.4l0.1,0.8c0.1,0.1,0.2,0.1,0.3,0.1c0.1,0,0.2,0,0.3,0.1
		c0.1,0,0.2,0.1,0.2,0.2C9.9,91.7,10,91.8,10,92c0,0.1,0,0.2,0,0.3c0,0.1,0,0.2,0,0.3c0,0.5,0.1,0.9,0.2,1.4
		c0.1,0.4,0.3,0.8,0.5,1.2c0.2,0.3,0.6,0.6,1,0.8c0.4,0.2,0.9,0.3,1.5,0.2c0.8-0.1,1.4-0.3,2-0.7c0.5-0.4,0.9-0.8,1.3-1.2
		c0.3-0.4,0.6-0.8,0.8-1.2c0.2-0.4,0.4-0.5,0.5-0.5C18,92.5,18.1,92.6,18.1,92.8z M8.6,92.5c0-0.1,0-0.1-0.1-0.2
		c0-0.1-0.1-0.1-0.1-0.2c0-0.1,0-0.1,0-0.2c0-0.1,0-0.1,0-0.2c0-0.1,0-0.1-0.1-0.1c0,0-0.1-0.1-0.1-0.1c-0.2,0.1-0.3,0.2-0.5,0.5
		c-0.1,0.3-0.3,0.6-0.4,1c-0.1,0.4-0.2,0.7-0.3,1.1c-0.1,0.4-0.1,0.7-0.1,0.9c0,0.1,0.1,0.3,0.2,0.6c0.1,0.3,0.2,0.5,0.3,0.5
		c0.2-0.7,0.5-1.3,0.7-1.9C8.6,93.7,8.6,93.1,8.6,92.5z"/>
	<path class="st2" d="M26.7,94.4c0,0.1,0,0.2-0.1,0.3c-0.1,0.1-0.1,0.2-0.2,0.3c-0.1,0.1-0.2,0.2-0.3,0.3c-0.1,0.1-0.2,0.1-0.3,0.1
		c-0.3,0-0.7,0-1.2-0.1c-0.5-0.1-0.9-0.3-1.2-0.5c-0.3-0.3-0.6-0.6-0.9-1c-0.3-0.4-0.6-1-0.9-1.8c-0.1,0.8-0.3,1.6-0.5,2.4
		c-0.2,0.8-0.5,1.5-1.1,2.2c0,0-0.1,0.1-0.2,0.1c-0.1,0-0.3,0-0.4-0.2s-0.2-0.2-0.2-0.4s-0.1-0.4-0.1-0.9c-0.1-0.5-0.1-1-0.2-1.5
		c-0.1-0.6-0.2-1.1-0.2-1.7c-0.1-0.6-0.1-1.1-0.2-1.4c0-0.2,0-0.4,0-0.7c0-0.3,0-0.6,0.1-0.8c0,0,0.1-0.1,0.2-0.2
		c0.1-0.1,0.2-0.2,0.4-0.2c0.1,0,0.2,0.1,0.2,0.2c0,0.2,0.1,0.3,0.1,0.5l0.4,4.2c0,0.1,0,0.2,0.1,0.4s0.1,0.3,0.2,0.3
		c0.2-0.4,0.3-1,0.4-1.6c0.1-0.6,0.2-1.2,0.4-1.7c0.1-0.5,0.2-1,0.4-1.4c0.1-0.4,0.3-0.6,0.4-0.6c0.2,0,0.3,0,0.4,0.1
		c0.1,0.1,0.2,0.2,0.3,0.4c0.1,0.5,0.2,1,0.3,1.4c0.1,0.4,0.2,0.8,0.3,1.1s0.3,0.6,0.4,0.9c0.2,0.3,0.4,0.5,0.7,0.7
		c0.3,0.2,0.6,0.4,0.9,0.4c0.3,0.1,0.6,0.1,0.8,0.1c0.1,0,0.2,0,0.3-0.1c0.1-0.1,0.2-0.1,0.3-0.1c0.1,0,0.1,0.1,0.2,0.2
		C26.7,94.3,26.7,94.4,26.7,94.4z"/>
	<path class="st2" d="M35.7,92.6c0,0.1,0,0.2-0.1,0.3c-0.1,0.1-0.1,0.2-0.1,0.3c0,0.2,0.1,0.4,0.2,0.6c0.1,0.2,0.2,0.4,0.2,0.6
		c0,0.2,0,0.4-0.2,0.4c-0.2,0-0.3,0-0.4,0.1c-0.1,0.1-0.2,0.1-0.4,0.2c-0.1,0-0.2-0.1-0.4-0.3c-0.1-0.1-0.2-0.2-0.2-0.3
		c0,0,0,0-0.1,0.1c-0.1,0.1-0.2,0.2-0.5,0.4s-0.5,0.3-0.9,0.4c-0.4,0.1-0.9,0.2-1.5,0.3c-0.5,0-0.9,0-1.3-0.2
		c-0.4-0.2-0.7-0.5-1-0.8c-0.3-0.3-0.5-0.7-0.6-1.2C28.1,92.9,28,92.4,28,92c0-0.4,0-0.8,0-1.2c0.1-0.4,0.2-0.7,0.3-1.1
		c0.2-0.3,0.4-0.6,0.6-0.8c0.3-0.2,0.6-0.3,0.9-0.4c0.3,0,0.7,0,1,0.2c0.4,0.2,0.7,0.4,1,0.6c0.3,0.2,0.6,0.5,1,0.9
		c-0.4-1.4-0.7-2.6-1-3.7c-0.1-0.5-0.3-0.9-0.4-1.4s-0.2-0.9-0.3-1.3c-0.1-0.4-0.2-0.7-0.3-0.9c-0.1-0.3-0.1-0.4-0.1-0.5
		c0-0.1-0.1-0.3-0.1-0.6c0-0.3-0.1-0.6-0.1-0.9c0-0.3-0.1-0.6-0.1-0.8c0-0.2-0.1-0.4-0.1-0.5c-0.1-0.2-0.2-0.4-0.3-0.7
		c-0.1-0.3-0.2-0.4-0.2-0.4c0-0.1,0-0.2,0.1-0.3c0.1-0.1,0.2-0.2,0.3-0.2c0.1,0,0.2,0,0.3,0c0.1,0,0.2,0.1,0.3,0.1s0.2,0.2,0.2,0.4
		c0.1,0.2,0.2,0.4,0.2,0.8c0,0.2,0.1,0.5,0.3,1c0.1,0.5,0.3,1,0.4,1.6c0.1,0.6,0.3,1.1,0.4,1.7c0.1,0.5,0.2,0.9,0.3,1.2
		c0.1,0.7,0.3,1.4,0.6,2.2c0.2,0.8,0.4,1.5,0.7,2.3c0.2,0.7,0.4,1.4,0.7,1.9c0.2,0.5,0.4,0.9,0.5,1.1c0,0.1,0.1,0.1,0.2,0.1
		C35.5,92.5,35.6,92.5,35.7,92.6z M33.7,93.3c0-0.1-0.2-0.3-0.4-0.7c-0.2-0.4-0.5-0.8-0.9-1.2c-0.4-0.4-0.7-0.8-1.2-1.2
		c-0.4-0.3-0.8-0.5-1.2-0.5c-0.3,0-0.5,0.3-0.7,0.8c-0.1,0.5-0.2,1-0.1,1.6c0.1,0.7,0.3,1.2,0.7,1.6c0.4,0.4,0.9,0.5,1.4,0.5
		c0.4,0,0.9-0.1,1.3-0.3C33.2,93.7,33.5,93.5,33.7,93.3z"/>
	<path class="st2" d="M61.5,89.1c0,0.3-0.1,0.7-0.3,1.2c-0.3,0.5-0.6,1-1.1,1.5s-1,0.9-1.6,1.3c-0.6,0.4-1.3,0.6-2,0.7
		c-0.3,0-0.7,0-1-0.1c-0.4-0.1-0.7-0.2-1.1-0.4c-0.4-0.2-0.7-0.4-1-0.7c-0.3-0.3-0.5-0.6-0.7-1c-0.1,0.1-0.2,0.3-0.3,0.6
		c-0.1,0.3-0.3,0.5-0.4,0.8c-0.2,0.3-0.3,0.5-0.5,0.7c-0.2,0.2-0.4,0.3-0.6,0.3c-0.2,0-0.4-0.1-0.6-0.3c-0.2-0.2-0.3-0.5-0.4-0.8
		c-0.1-0.3-0.2-0.6-0.3-0.8c-0.1-0.3-0.1-0.4-0.1-0.5c0-0.2,0-0.6,0.1-1.2c0.1-0.6,0.2-1.3,0.4-1.9c0.2-0.7,0.5-1.3,0.8-1.8
		c0.3-0.5,0.8-0.8,1.3-0.9c0.2,0,0.3,0.1,0.4,0.2c0.1,0.2,0.1,0.3,0.1,0.5l0.1,0.8c0.1,0.1,0.2,0.1,0.3,0.1c0.1,0,0.2,0,0.3,0.1
		c0.1,0,0.2,0.1,0.2,0.2c0.1,0.1,0.1,0.2,0.1,0.4c0,0.1,0,0.2,0,0.3s0,0.2,0,0.3c0,0.5,0.1,0.9,0.2,1.4c0.1,0.4,0.3,0.8,0.5,1.2
		c0.2,0.3,0.6,0.6,1,0.8c0.4,0.2,0.9,0.3,1.5,0.2c0.8-0.1,1.4-0.3,2-0.7c0.5-0.4,0.9-0.8,1.3-1.2c0.3-0.4,0.6-0.8,0.8-1.2
		c0.2-0.4,0.4-0.5,0.5-0.5C61.4,88.7,61.5,88.8,61.5,89.1z M52,88.7c0-0.1,0-0.1-0.1-0.2c0-0.1-0.1-0.1-0.1-0.2c0-0.1,0-0.1,0-0.2
		c0-0.1,0-0.1,0-0.2c0-0.1,0-0.1-0.1-0.1c0,0-0.1-0.1-0.1-0.1c-0.2,0.1-0.3,0.2-0.5,0.5c-0.1,0.3-0.3,0.6-0.4,1
		c-0.1,0.4-0.2,0.7-0.3,1.1c-0.1,0.4-0.1,0.7-0.1,0.9c0,0.1,0.1,0.3,0.2,0.6c0.1,0.3,0.2,0.5,0.3,0.5c0.2-0.7,0.5-1.3,0.7-1.9
		S52,89.3,52,88.7z"/>
	<path class="st2" d="M70.3,86.1c0,0.5,0,0.9-0.3,1.4c-0.2,0.5-0.5,0.9-0.8,1.3c-0.3,0.4-0.7,0.8-1.1,1.1c-0.4,0.4-0.8,0.7-1.2,0.9
		c-0.3,0.3-0.6,0.5-0.8,0.7s-0.3,0.3-0.3,0.4c0,0.2,0.1,0.6,0.2,1c0.1,0.4,0.2,0.9,0.3,1.4c0.1,0.5,0.2,1,0.4,1.5
		c0.1,0.5,0.2,1,0.3,1.4c0,0,0,0.1,0.1,0.2c0,0.1,0.1,0.3,0.2,0.5c0.1,0.2,0.1,0.3,0.2,0.5c0,0.1,0.1,0.2,0.1,0.3c0,0.1,0,0.3,0,0.4
		c0,0.2,0,0.3,0,0.4c0,0.1-0.1,0.3-0.2,0.4c-0.1,0.1-0.2,0.2-0.3,0.2c-0.2,0-0.3-0.1-0.5-0.2c-0.1-0.2-0.2-0.3-0.2-0.5
		c0,0,0-0.1,0-0.1c0,0,0-0.1,0-0.1c0-0.2-0.1-0.7-0.4-1.6s-0.5-1.9-0.8-3c-0.3-1.2-0.6-2.4-0.8-3.8c-0.3-1.4-0.4-2.6-0.6-3.9
		c0-0.1,0-0.2,0-0.3c0-0.1,0-0.2,0-0.3c-0.2,0-0.4,0.1-0.8,0.3c-0.3,0.2-0.7,0.4-1,0.6c-0.3,0.2-0.6,0.5-0.8,0.7
		c-0.2,0.2-0.4,0.5-0.3,0.6l-0.2,0c-0.1,0-0.1,0-0.2-0.1c-0.1-0.1-0.2-0.1-0.2-0.2c-0.1-0.1-0.1-0.2-0.2-0.3
		c-0.1-0.1-0.1-0.1-0.1-0.2c0-0.4,0.2-0.8,0.6-1.1c0.4-0.4,1-0.7,1.6-1c0.7-0.3,1.4-0.6,2.2-0.8c0.8-0.2,1.5-0.4,2.3-0.4
		c0.7-0.1,1.3,0,1.8,0.1c0.5,0.1,0.9,0.3,1.2,0.5c0.3,0.2,0.5,0.4,0.7,0.6C70.2,85.7,70.3,85.9,70.3,86.1z M69,86.1
		c0-0.2-0.3-0.3-0.7-0.5c-0.5-0.1-1-0.2-1.6-0.1c-0.5,0-0.9,0.1-1.2,0.2S65,85.8,65,85.8c0,0.3,0,0.6,0,1c0,0.4,0,0.8,0.1,1.2
		c0,0.4,0.1,0.8,0.2,1.2s0.1,0.7,0.2,1c0.2-0.2,0.6-0.4,1-0.8c0.4-0.3,0.8-0.7,1.2-1.1c0.4-0.4,0.7-0.8,1-1.2
		C68.9,86.9,69,86.5,69,86.1z"/>
	<path class="st2" d="M80.4,85.2c0,0.5-0.1,0.9-0.3,1.4c-0.2,0.5-0.5,0.9-0.8,1.3c-0.3,0.4-0.7,0.8-1.1,1.1
		c-0.4,0.4-0.8,0.7-1.2,0.9c-0.3,0.3-0.6,0.5-0.8,0.7s-0.3,0.3-0.3,0.4c0,0.2,0.1,0.6,0.2,1c0.1,0.4,0.2,0.9,0.3,1.4
		c0.1,0.5,0.2,1,0.4,1.5c0.1,0.5,0.2,1,0.3,1.4c0,0,0,0.1,0.1,0.2c0,0.1,0.1,0.3,0.2,0.5c0.1,0.2,0.1,0.3,0.2,0.5
		c0,0.1,0.1,0.2,0.1,0.3c0,0.1,0,0.3,0,0.4c0,0.2,0,0.3,0,0.4s-0.1,0.3-0.2,0.4c-0.1,0.1-0.2,0.2-0.3,0.2c-0.2,0-0.3-0.1-0.5-0.2
		c-0.1-0.2-0.2-0.3-0.2-0.5c0,0,0-0.1,0-0.1c0,0,0-0.1,0-0.1c0-0.2-0.1-0.7-0.4-1.6c-0.2-0.8-0.5-1.9-0.8-3
		c-0.3-1.2-0.6-2.4-0.8-3.8c-0.3-1.4-0.4-2.6-0.6-3.9c0-0.1,0-0.2,0-0.3c0-0.1,0-0.2,0-0.3c-0.2,0-0.4,0.1-0.8,0.3
		c-0.3,0.2-0.7,0.4-1,0.6c-0.3,0.2-0.6,0.5-0.8,0.7c-0.2,0.2-0.4,0.5-0.3,0.6l-0.2,0c-0.1,0-0.1,0-0.2-0.1c-0.1-0.1-0.2-0.1-0.2-0.2
		c-0.1-0.1-0.1-0.2-0.2-0.3c-0.1-0.1-0.1-0.1-0.1-0.2c0-0.4,0.2-0.8,0.6-1.1c0.4-0.4,1-0.7,1.6-1c0.7-0.3,1.4-0.6,2.2-0.8
		c0.8-0.2,1.5-0.4,2.3-0.4c0.7-0.1,1.3,0,1.8,0.1c0.5,0.1,0.9,0.3,1.2,0.5c0.3,0.2,0.5,0.4,0.7,0.6C80.3,84.9,80.4,85,80.4,85.2z
		 M79.1,85.2c0-0.2-0.3-0.3-0.7-0.5c-0.5-0.1-1-0.2-1.6-0.1c-0.5,0-0.9,0.1-1.2,0.2s-0.4,0.1-0.5,0.2c0,0.3,0,0.6,0,1
		c0,0.4,0,0.8,0.1,1.2c0,0.4,0.1,0.8,0.2,1.2c0.1,0.4,0.1,0.7,0.2,1c0.2-0.2,0.6-0.4,1-0.8c0.4-0.3,0.8-0.7,1.2-1.1
		c0.4-0.4,0.7-0.8,1-1.2C79,86,79.1,85.6,79.1,85.2z"/>
	<path class="st2" d="M86,92.1c-0.1,0.1-0.2,0.1-0.4,0.1c-0.2,0-0.3-0.1-0.5-0.4c-0.2-0.3-0.4-0.7-0.6-1.1s-0.4-0.9-0.6-1.5
		c-0.2-0.5-0.4-1-0.5-1.5c-0.2-0.5-0.3-0.9-0.4-1.2c-0.1-0.3-0.1-0.5-0.1-0.5c0-0.1-0.1-0.3-0.1-0.6c-0.1-0.3-0.2-0.8-0.4-1.4
		c-0.2-0.6-0.3-1.5-0.5-2.5c-0.2-1-0.4-2.3-0.7-3.8c0-0.2,0-0.4,0-0.6c0-0.3,0.1-0.4,0.3-0.4c0.3,0,0.5,0.1,0.6,0.5
		c0.2,0.3,0.3,0.7,0.4,1.2c0.1,0.5,0.2,1,0.3,1.6c0.1,0.5,0.2,1,0.3,1.4c0.1,0.6,0.2,1.1,0.3,1.5c0.1,0.5,0.2,0.9,0.3,1.4
		c0.1,0.5,0.2,0.9,0.4,1.4c0.1,0.5,0.3,1,0.5,1.6l1.5,4.4C86.1,91.9,86.1,92,86,92.1z"/>
	<path class="st2" d="M88.8,79.8c0,0-0.1,0.1-0.2,0.2c-0.1,0.1-0.3,0.2-0.4,0.4c-0.2,0.1-0.3,0.2-0.5,0.4c-0.2,0.1-0.3,0.2-0.4,0.2
		c-0.1,0-0.2,0-0.3,0c-0.1,0-0.2,0-0.4-0.1c-0.1,0-0.2-0.1-0.3-0.2c-0.1-0.1-0.2-0.2-0.2-0.4c0-0.3,0-0.5,0.2-0.7
		c0.2-0.2,0.4-0.4,0.7-0.4c0.1,0,0.2,0,0.4,0c0.2,0,0.4,0.1,0.6,0.1c0.2,0.1,0.4,0.1,0.5,0.2C88.7,79.6,88.8,79.7,88.8,79.8z
		 M90.6,89.8c0,0.1-0.1,0.2-0.3,0.3c-0.2,0.1-0.3,0.2-0.4,0.2c-0.2,0-0.4-0.1-0.5-0.3c-0.2-0.2-0.3-0.5-0.4-0.8
		c-0.1-0.3-0.2-0.6-0.3-0.9c-0.1-0.3-0.2-0.5-0.2-0.6c-0.1-0.2-0.2-0.4-0.3-0.6s-0.2-0.5-0.3-0.7c-0.1-0.2-0.2-0.4-0.3-0.6
		c-0.1-0.2-0.1-0.3-0.1-0.3c0-0.3,0-0.5,0.1-0.7c0.1-0.2,0.2-0.3,0.3-0.4c0.2,0,0.3,0.1,0.5,0.3c0.2,0.2,0.4,0.5,0.6,0.9
		c0.2,0.4,0.4,0.8,0.6,1.2c0.2,0.4,0.3,0.9,0.5,1.3c0.1,0.4,0.3,0.7,0.3,1C90.5,89.6,90.6,89.8,90.6,89.8z"/>
	<path class="st2" d="M99.8,86.4c0,0.2,0,0.4,0,0.6s-0.1,0.4-0.1,0.5c0,0.1-0.2,0.3-0.4,0.6c-0.3,0.3-0.6,0.7-1,1.1
		c-0.4,0.4-0.9,0.7-1.4,1.1c-0.5,0.3-1,0.5-1.5,0.6c-0.3,0-0.6,0-0.9-0.1c-0.3-0.1-0.6-0.2-0.9-0.4c-0.3-0.2-0.5-0.5-0.7-0.8
		c-0.2-0.3-0.3-0.8-0.4-1.3c-0.1-0.9,0-1.7,0.2-2.4c0.2-0.7,0.5-1.3,0.7-1.7c0.1-0.2,0.3-0.4,0.4-0.6c0.2-0.2,0.4-0.4,0.6-0.6
		c0.2-0.2,0.4-0.3,0.5-0.5c0.2-0.1,0.3-0.2,0.3-0.2c0.2,0,0.3,0,0.5,0.1c0.1,0.1,0.2,0.2,0.2,0.3c0,0.1,0,0.3-0.1,0.4
		c-0.1,0.1-0.2,0.2-0.3,0.4c-0.1,0.1-0.3,0.3-0.5,0.5s-0.4,0.5-0.6,0.8c-0.4,0.6-0.6,1.3-0.8,1.9c-0.2,0.6-0.2,1.2-0.2,1.7
		c0,0.5,0.2,0.8,0.6,1.1c0.4,0.2,0.8,0.4,1.1,0.3c0.7-0.1,1.3-0.3,1.8-0.6c0.5-0.4,0.9-0.7,1.3-1.1c0.3-0.4,0.6-0.8,0.8-1.1
		c0.2-0.3,0.4-0.5,0.5-0.5C99.6,86,99.8,86.1,99.8,86.4z"/>
	<path class="st2" d="M114.6,84.4c0,0.3-0.1,0.7-0.3,1.2c-0.3,0.5-0.6,1-1.1,1.5c-0.5,0.5-1,0.9-1.6,1.3c-0.6,0.4-1.3,0.6-2,0.7
		c-0.3,0-0.7,0-1-0.1c-0.4-0.1-0.7-0.2-1.1-0.4c-0.4-0.2-0.7-0.4-1-0.7c-0.3-0.3-0.5-0.6-0.7-1c-0.1,0.1-0.2,0.3-0.3,0.6
		c-0.1,0.3-0.3,0.5-0.4,0.8c-0.2,0.3-0.3,0.5-0.5,0.7c-0.2,0.2-0.4,0.3-0.6,0.3s-0.4-0.1-0.6-0.3c-0.2-0.2-0.3-0.5-0.4-0.8
		c-0.1-0.3-0.2-0.6-0.3-0.8c-0.1-0.3-0.1-0.4-0.1-0.5c0-0.2,0-0.6,0.1-1.2c0.1-0.6,0.2-1.3,0.4-1.9c0.2-0.7,0.5-1.3,0.8-1.8
		c0.3-0.5,0.8-0.8,1.3-0.9c0.2,0,0.3,0.1,0.4,0.2c0.1,0.2,0.1,0.3,0.1,0.5l0.1,0.8c0.1,0.1,0.2,0.1,0.3,0.1c0.1,0,0.2,0,0.3,0.1
		c0.1,0,0.2,0.1,0.2,0.2c0.1,0.1,0.1,0.2,0.1,0.4c0,0.1,0,0.2,0,0.3c0,0.1,0,0.2,0,0.3c0,0.5,0.1,0.9,0.2,1.4
		c0.1,0.4,0.3,0.8,0.5,1.2c0.2,0.3,0.6,0.6,1,0.8c0.4,0.2,0.9,0.3,1.5,0.2c0.8-0.1,1.4-0.3,2-0.7c0.5-0.4,0.9-0.8,1.3-1.2
		c0.3-0.4,0.6-0.8,0.8-1.2c0.2-0.4,0.4-0.5,0.5-0.5C114.5,84.1,114.6,84.2,114.6,84.4z M105.1,84c0-0.1,0-0.1-0.1-0.2
		c0-0.1-0.1-0.1-0.1-0.2c0-0.1,0-0.1,0-0.2c0-0.1,0-0.1,0-0.2c0-0.1,0-0.1-0.1-0.1c0,0-0.1-0.1-0.1-0.1c-0.2,0.1-0.3,0.2-0.5,0.5
		c-0.1,0.3-0.3,0.6-0.4,1c-0.1,0.4-0.2,0.7-0.3,1.1c-0.1,0.4-0.1,0.7-0.1,0.9c0,0.1,0.1,0.3,0.2,0.6c0.1,0.3,0.2,0.5,0.3,0.5
		c0.2-0.7,0.5-1.3,0.7-1.9C105.1,85.2,105.2,84.6,105.1,84z"/>
	<path class="st2" d="M121.5,77.2c-0.2,0.3-0.5,0.6-0.9,0.9c-0.4,0.3-0.8,0.6-1.2,0.8c-0.4,0.3-0.8,0.5-1.1,0.7
		c-0.3,0.2-0.5,0.3-0.5,0.4s0.1,0.2,0.1,0.5c0.1,0.3,0.2,0.6,0.3,0.9c0.1,0.4,0.3,0.7,0.4,1.1c0.1,0.4,0.3,0.7,0.4,1
		c0.1,0.2,0.1,0.4,0.2,0.7c0.1,0.3,0.2,0.6,0.2,0.8c0.1,0.3,0.1,0.5,0.2,0.8c0.1,0.2,0.1,0.3,0.1,0.4c0,0.3,0,0.6-0.1,0.8
		c-0.1,0.3-0.2,0.5-0.4,0.5c-0.1,0-0.2,0-0.3-0.1c-0.1-0.1-0.2-0.2-0.3-0.3c-0.1-0.1-0.1-0.2-0.2-0.3c0-0.1-0.1-0.2-0.1-0.2
		c0,0,0-0.1,0-0.2c0-0.1,0-0.2,0-0.2c0-0.3-0.1-0.8-0.3-1.5c-0.1-0.2-0.2-0.5-0.3-0.9c-0.1-0.4-0.3-0.8-0.4-1.2
		c-0.2-0.5-0.4-1-0.6-1.6c-0.1-0.2-0.1-0.4-0.2-0.4c-0.1,0-0.3,0.1-0.6,0.3c-0.3,0.2-0.6,0.4-1,0.7c-0.4,0.3-0.7,0.5-1.1,0.8
		s-0.8,0.6-1.1,0.8c-0.3,0.3-0.6,0.5-0.9,0.6c-0.2,0.2-0.4,0.3-0.5,0.3c-0.2,0-0.4,0-0.6-0.2c-0.2-0.1-0.2-0.3-0.3-0.5
		c0-0.1,0.1-0.3,0.4-0.5c0.3-0.2,0.6-0.5,1-0.8c0.4-0.3,0.9-0.6,1.4-0.9c0.5-0.3,0.9-0.6,1.4-0.9c0.4-0.3,0.9-0.5,1.5-0.9
		c-0.2-0.8-0.4-1.5-0.6-2.2c-0.1-0.5-0.3-1.1-0.4-1.5c-0.1-0.5-0.2-0.7-0.2-0.7c0-0.2,0-0.4,0.1-0.5c0.1-0.1,0.2-0.2,0.3-0.2
		c0.2,0,0.3,0.1,0.4,0.4c0.3,1,0.5,1.8,0.8,2.5c0.2,0.7,0.5,1.3,0.7,1.8c0.2-0.1,0.4-0.2,0.8-0.4c0.4-0.2,0.8-0.4,1.2-0.7
		c0.4-0.2,0.8-0.4,1.1-0.6c0.3-0.2,0.5-0.3,0.6-0.3c0.1,0,0.2,0,0.2,0.1C121.4,77.1,121.5,77.1,121.5,77.2z"/>
	<path class="st2" d="M124.5,76.7c0,0-0.1,0.1-0.2,0.2c-0.1,0.1-0.3,0.2-0.4,0.4c-0.2,0.1-0.3,0.2-0.5,0.4c-0.2,0.1-0.3,0.2-0.4,0.2
		c-0.1,0-0.2,0-0.3,0c-0.1,0-0.2,0-0.4-0.1c-0.1,0-0.2-0.1-0.3-0.2c-0.1-0.1-0.2-0.2-0.2-0.4c0-0.3,0-0.5,0.2-0.7
		c0.2-0.2,0.4-0.4,0.7-0.4c0.1,0,0.2,0,0.4,0c0.2,0,0.4,0.1,0.6,0.1c0.2,0.1,0.4,0.1,0.5,0.2C124.4,76.5,124.5,76.6,124.5,76.7z
		 M126.3,86.7c0,0.1-0.1,0.2-0.3,0.3c-0.2,0.1-0.3,0.2-0.4,0.2c-0.2,0-0.4-0.1-0.5-0.3c-0.2-0.2-0.3-0.5-0.4-0.8
		c-0.1-0.3-0.2-0.6-0.3-0.9c-0.1-0.3-0.2-0.5-0.2-0.6c-0.1-0.2-0.2-0.4-0.3-0.6c-0.1-0.2-0.2-0.5-0.3-0.7c-0.1-0.2-0.2-0.4-0.3-0.6
		c-0.1-0.2-0.1-0.3-0.1-0.3c0-0.3,0-0.5,0.1-0.7c0.1-0.2,0.2-0.3,0.3-0.4c0.2,0,0.3,0.1,0.5,0.3c0.2,0.2,0.4,0.5,0.6,0.9
		c0.2,0.4,0.4,0.8,0.6,1.2c0.2,0.4,0.3,0.9,0.5,1.3c0.1,0.4,0.3,0.7,0.3,1C126.3,86.5,126.3,86.6,126.3,86.7z"/>
	<path class="st2" d="M132.5,82.6c0,0.4,0,0.8-0.1,1.1c-0.1,0.4-0.2,0.7-0.3,1c-0.2,0.3-0.3,0.5-0.6,0.7c-0.2,0.2-0.5,0.3-0.8,0.3
		c-0.5,0-0.9-0.1-1.2-0.3c-0.3-0.3-0.6-0.6-0.7-0.9c-0.2-0.4-0.3-0.7-0.4-1.1c-0.1-0.4-0.1-0.7-0.1-0.9c0-0.3,0-0.7,0.1-1.1
		s0.2-0.8,0.3-1.2c0.1-0.4,0.3-0.7,0.5-0.9c0.2-0.3,0.4-0.4,0.6-0.4c0.1,0,0.1,0,0.3,0c0.1,0,0.2,0.1,0.4,0.1
		c0.1,0.1,0.3,0.1,0.4,0.2c0.1,0.1,0.2,0.2,0.2,0.4c0.2,0,0.4,0.1,0.6,0.2c0.2,0.1,0.3,0.2,0.3,0.3c0.2,0.5,0.3,0.9,0.4,1.4
		C132.4,81.9,132.5,82.3,132.5,82.6z M131.3,82.2c0-0.3-0.1-0.5-0.2-0.8c-0.1-0.3-0.2-0.6-0.4-0.9c0,0-0.1,0-0.1,0
		c-0.1,0-0.1,0-0.2,0c0,0-0.1,0-0.1,0c-0.2,0-0.4,0.1-0.5,0.2c-0.1,0.1-0.2,0.3-0.2,0.5c0,0.2-0.1,0.4-0.1,0.6c0,0.2,0,0.4,0,0.6
		c0,0.2,0,0.4,0.1,0.7s0.1,0.5,0.2,0.7c0.1,0.2,0.2,0.4,0.3,0.5c0.1,0.1,0.3,0.2,0.4,0.2c0.2,0,0.3-0.1,0.4-0.3
		c0.1-0.2,0.2-0.4,0.2-0.7c0.1-0.3,0.1-0.5,0.1-0.8C131.3,82.5,131.3,82.4,131.3,82.2z"/>
	<path class="st2" d="M143.5,84.2c0,0.1,0,0.2-0.1,0.3s-0.1,0.2-0.2,0.3c-0.1,0.1-0.2,0.2-0.3,0.3c-0.1,0.1-0.2,0.1-0.3,0.1
		c-0.3,0-0.7,0-1.2-0.1c-0.5-0.1-0.9-0.3-1.2-0.5c-0.3-0.3-0.6-0.6-0.9-1c-0.3-0.4-0.6-1-0.9-1.8c-0.1,0.8-0.3,1.6-0.5,2.4
		c-0.2,0.8-0.5,1.5-1.1,2.2c0,0-0.1,0.1-0.2,0.1c-0.1,0-0.3,0-0.4-0.2c-0.2-0.1-0.2-0.2-0.2-0.4c0-0.1-0.1-0.4-0.1-0.9
		c-0.1-0.5-0.1-1-0.2-1.5c-0.1-0.6-0.2-1.1-0.2-1.7c-0.1-0.6-0.1-1.1-0.2-1.4c0-0.2,0-0.4,0-0.7c0-0.3,0-0.6,0.1-0.8
		c0,0,0.1-0.1,0.2-0.2c0.1-0.1,0.2-0.2,0.4-0.2c0.1,0,0.2,0.1,0.2,0.2c0,0.2,0.1,0.3,0.1,0.5l0.4,4.2c0,0.1,0,0.2,0.1,0.4
		c0,0.2,0.1,0.3,0.2,0.3c0.2-0.4,0.3-1,0.4-1.6c0.1-0.6,0.2-1.2,0.4-1.7c0.1-0.5,0.2-1,0.4-1.4s0.3-0.6,0.4-0.6c0.2,0,0.3,0,0.4,0.1
		c0.1,0.1,0.2,0.2,0.3,0.4c0.1,0.5,0.2,1,0.3,1.4c0.1,0.4,0.2,0.8,0.3,1.1c0.1,0.3,0.3,0.6,0.4,0.9c0.2,0.3,0.4,0.5,0.7,0.7
		c0.3,0.2,0.6,0.4,0.9,0.4c0.3,0.1,0.6,0.1,0.8,0.1c0.1,0,0.2,0,0.3-0.1c0.1-0.1,0.2-0.1,0.3-0.1c0.1,0,0.1,0.1,0.2,0.2
		C143.5,84.1,143.5,84.1,143.5,84.2z"/>
	<path class="st2" d="M160.6,80.2c0,0.4,0,0.8-0.1,1.1c-0.1,0.4-0.2,0.7-0.3,1c-0.2,0.3-0.3,0.5-0.6,0.7c-0.2,0.2-0.5,0.3-0.8,0.3
		c-0.5,0-0.9-0.1-1.2-0.3c-0.3-0.3-0.6-0.6-0.7-0.9c-0.2-0.4-0.3-0.7-0.4-1.1c-0.1-0.4-0.1-0.7-0.1-0.9c0-0.3,0-0.7,0.1-1.1
		s0.2-0.8,0.3-1.2c0.1-0.4,0.3-0.7,0.5-0.9c0.2-0.3,0.4-0.4,0.6-0.4c0.1,0,0.1,0,0.3,0s0.2,0.1,0.4,0.1c0.1,0.1,0.3,0.1,0.4,0.2
		c0.1,0.1,0.2,0.2,0.2,0.4c0.2,0,0.4,0.1,0.6,0.2c0.2,0.1,0.3,0.2,0.3,0.3c0.2,0.5,0.3,0.9,0.4,1.4
		C160.6,79.5,160.6,79.9,160.6,80.2z M159.4,79.8c0-0.3-0.1-0.5-0.2-0.8c-0.1-0.3-0.2-0.6-0.4-0.9c0,0-0.1,0-0.1,0
		c-0.1,0-0.1,0-0.2,0c0,0-0.1,0-0.1,0c-0.2,0-0.4,0.1-0.5,0.2c-0.1,0.1-0.2,0.3-0.2,0.5c0,0.2-0.1,0.4-0.1,0.6c0,0.2,0,0.4,0,0.6
		c0,0.2,0,0.4,0.1,0.7c0,0.2,0.1,0.5,0.2,0.7c0.1,0.2,0.2,0.4,0.3,0.5c0.1,0.1,0.3,0.2,0.4,0.2c0.2,0,0.3-0.1,0.4-0.3
		c0.1-0.2,0.2-0.4,0.2-0.7c0-0.3,0.1-0.5,0.1-0.8C159.4,80.1,159.4,79.9,159.4,79.8z"/>
	<path class="st2" d="M171,65.7c0,0,0,0.1,0,0.2c0,0.1,0,0.2,0,0.3c0,0.1,0,0.2-0.1,0.2c0,0-0.1,0-0.1,0c-0.1,0-0.1,0-0.1,0
		c-0.3-0.1-0.7-0.3-1.2-0.4c-0.5-0.2-1-0.3-1.6-0.2c-0.6,0.1-1.1,0.3-1.5,0.9c-0.4,0.5-0.6,1.1-0.8,1.8c-0.2,0.7-0.2,1.3-0.2,1.9
		c0,0.6,0,1.1,0,1.3c0,0.2,0.1,0.5,0.2,0.9c0.1,0.4,0.2,0.8,0.4,1.3c0.1,0.4,0.3,0.8,0.5,1.2c0.2,0.4,0.3,0.6,0.5,0.6
		c0.1,0,0.3,0,0.6-0.1c0.3,0,0.5-0.1,0.7-0.1c0.3,0,0.6,0,0.9,0c0.3,0,0.6,0,0.8,0c0.1,0,0.2,0,0.3,0c0.1,0,0.3,0,0.4,0
		c0.2,0,0.3,0,0.4,0.1c0.1,0,0.2,0.1,0.2,0.2c0,0.1,0,0.2-0.2,0.3c-0.1,0.1-0.3,0.2-0.4,0.2c-0.2,0.1-0.3,0.1-0.5,0.1
		c-0.2,0-0.3,0.1-0.4,0.1c-0.1,0-0.2,0-0.3,0c-0.1,0-0.3,0-0.5,0c-0.2,0-0.3,0-0.5,0c-0.2,0-0.3,0-0.4,0c-0.3,0-0.5,0.1-0.5,0.1
		c-0.1,0.1-0.1,0.2-0.1,0.4c0,0.3,0.2,0.6,0.5,1.1c0.3,0.4,0.6,0.9,0.9,1.4c0.3,0.5,0.6,1,0.9,1.5c0.3,0.5,0.5,1,0.5,1.5
		c0,0.1,0,0.3,0,0.5s-0.1,0.5-0.1,0.8c-0.1,0.3-0.2,0.5-0.3,0.7c-0.1,0.2-0.3,0.3-0.5,0.3c-0.1,0-0.3,0-0.4-0.1
		c-0.1-0.1-0.2-0.2-0.2-0.4c0-0.3,0-0.6,0.2-0.8s0.2-0.5,0.2-0.8c0-0.1-0.1-0.4-0.3-0.7s-0.4-0.7-0.6-1.1c-0.2-0.4-0.5-0.8-0.8-1.3
		c-0.3-0.4-0.5-0.9-0.8-1.2c-0.2-0.4-0.4-0.7-0.6-0.9s-0.3-0.4-0.3-0.4c-0.3,0.2-0.7,0.3-1.1,0.5c-0.4,0.2-0.7,0.4-1,0.7
		c-0.1,0.1-0.2,0.2-0.3,0.2c-0.2,0-0.3,0-0.5-0.2c-0.2-0.1-0.3-0.3-0.3-0.5c0-0.2,0-0.4,0.1-0.5s0.2-0.2,0.3-0.3
		c0.2-0.1,0.4-0.2,0.7-0.4c0.3-0.1,0.7-0.3,1-0.4c0.1,0,0.2-0.1,0.3-0.1c0.1,0,0.2-0.1,0.1-0.2c-0.1-0.2-0.2-0.4-0.3-0.7
		c-0.1-0.3-0.3-0.6-0.4-1c-0.1-0.4-0.3-0.9-0.4-1.4c-0.1-0.5-0.2-1.1-0.3-1.6c-0.1-0.6,0-1.3,0-2.1c0.1-0.7,0.3-1.4,0.6-2
		s0.7-1.2,1.1-1.6c0.5-0.4,1.1-0.7,1.8-0.7c0.3,0,0.7,0,1.1,0c0.4,0,0.8,0.1,1.1,0.2c0.3,0.1,0.6,0.2,0.9,0.4
		C170.8,65.3,171,65.5,171,65.7z"/>
	<path class="st2" d="M192.8,78.3c0,0.2,0,0.4,0,0.6c0,0.2-0.1,0.4-0.1,0.5c0,0.1-0.2,0.3-0.4,0.6c-0.3,0.3-0.6,0.7-1,1.1
		c-0.4,0.4-0.9,0.7-1.4,1.1c-0.5,0.3-1,0.5-1.5,0.6c-0.3,0-0.6,0-0.9-0.1c-0.3-0.1-0.6-0.2-0.9-0.4c-0.3-0.2-0.5-0.5-0.7-0.8
		c-0.2-0.3-0.3-0.8-0.4-1.3c-0.1-0.9,0-1.7,0.2-2.4c0.2-0.7,0.5-1.3,0.7-1.7c0.1-0.2,0.3-0.4,0.4-0.6c0.2-0.2,0.4-0.4,0.6-0.6
		c0.2-0.2,0.4-0.3,0.5-0.5c0.2-0.1,0.3-0.2,0.3-0.2c0.2,0,0.3,0,0.5,0.1s0.2,0.2,0.2,0.3c0,0.1,0,0.3-0.1,0.4
		c-0.1,0.1-0.2,0.2-0.3,0.4c-0.1,0.1-0.3,0.3-0.5,0.5c-0.2,0.2-0.4,0.5-0.6,0.8c-0.4,0.6-0.6,1.3-0.8,1.9c-0.2,0.6-0.2,1.2-0.2,1.7
		c0,0.5,0.2,0.8,0.6,1.1c0.4,0.2,0.8,0.4,1.1,0.3c0.7-0.1,1.3-0.3,1.8-0.6c0.5-0.4,0.9-0.7,1.3-1.1c0.3-0.4,0.6-0.8,0.8-1.1
		c0.2-0.3,0.4-0.5,0.5-0.5C192.7,77.8,192.8,78,192.8,78.3z"/>
	<path class="st2" d="M201.1,74.2c0,0.1,0,0.2-0.1,0.3c-0.1,0.1-0.2,0.2-0.4,0.2c-0.1,0.1-0.3,0.1-0.4,0.2c-0.1,0-0.3,0.1-0.3,0.1
		c-0.3,0-0.5,0-0.5,0c-0.1,0-0.2,0-0.2,0c-0.4,0-0.8,0.1-1.1,0.2c-0.3,0.1-0.5,0.2-0.6,0.4s-0.2,0.4-0.2,0.6s0,0.5,0,0.9
		c0,0.6,0.1,1,0.2,1.4c0.1,0.3,0.1,0.6,0.2,0.8c0.1,0.2,0.1,0.4,0.2,0.5c0.1,0.1,0.1,0.2,0.1,0.3c0,0.1-0.1,0.3-0.2,0.5
		c-0.1,0.2-0.3,0.3-0.4,0.3c-0.2,0-0.4-0.2-0.6-0.5c-0.2-0.4-0.4-0.8-0.6-1.3c-0.2-0.5-0.3-1-0.4-1.5s-0.2-0.9-0.2-1.2
		c0-0.3,0-0.6,0-0.9c0-0.3,0.1-0.5,0.2-0.7c0.1-0.2,0.2-0.4,0.3-0.5c0.1-0.1,0.2-0.2,0.3-0.2c0.1,0,0.2,0,0.2,0.1
		c0.1,0.1,0.1,0.1,0.2,0.2c0,0.1,0.1,0.1,0.1,0.2c0.1,0.1,0.1,0.1,0.2,0.1c0.2,0,0.4-0.1,0.8-0.3c0.3-0.2,0.8-0.3,1.3-0.4
		c0.5,0,0.8-0.1,1.1-0.1s0.5,0,0.7,0.1c0.1,0,0.1,0,0.2,0.1C201,74,201,74.1,201.1,74.2z"/>
	<path class="st2" d="M204.4,69.7c0,0-0.1,0.1-0.2,0.2c-0.1,0.1-0.3,0.2-0.4,0.4c-0.2,0.1-0.3,0.2-0.5,0.4c-0.2,0.1-0.3,0.2-0.4,0.2
		c-0.1,0-0.2,0-0.3,0c-0.1,0-0.2,0-0.4-0.1c-0.1,0-0.2-0.1-0.3-0.2c-0.1-0.1-0.2-0.2-0.2-0.4c0-0.3,0-0.5,0.2-0.7
		c0.2-0.2,0.4-0.4,0.7-0.4c0.1,0,0.2,0,0.4,0c0.2,0,0.4,0.1,0.6,0.1c0.2,0.1,0.4,0.1,0.5,0.2C204.3,69.5,204.4,69.6,204.4,69.7z
		 M206.2,79.7c0,0.1-0.1,0.2-0.3,0.3c-0.2,0.1-0.3,0.2-0.4,0.2c-0.2,0-0.4-0.1-0.5-0.3c-0.2-0.2-0.3-0.5-0.4-0.8
		c-0.1-0.3-0.2-0.6-0.3-0.9c-0.1-0.3-0.2-0.5-0.2-0.6c-0.1-0.2-0.2-0.4-0.3-0.6s-0.2-0.5-0.3-0.7c-0.1-0.2-0.2-0.4-0.3-0.6
		c-0.1-0.2-0.1-0.3-0.1-0.3c0-0.3,0-0.5,0.1-0.7c0.1-0.2,0.2-0.3,0.3-0.4c0.2,0,0.3,0.1,0.5,0.3c0.2,0.2,0.4,0.5,0.6,0.9
		c0.2,0.4,0.4,0.8,0.6,1.2c0.2,0.4,0.3,0.9,0.5,1.3s0.3,0.7,0.3,1S206.2,79.6,206.2,79.7z"/>
	<path class="st2" d="M214.2,69.1c-0.2,0.3-0.5,0.6-0.9,0.9s-0.8,0.6-1.2,0.8c-0.4,0.3-0.8,0.5-1.1,0.7c-0.3,0.2-0.5,0.3-0.5,0.4
		c0,0.1,0.1,0.2,0.2,0.5c0.1,0.3,0.2,0.6,0.3,0.9c0.1,0.4,0.3,0.7,0.4,1.1c0.1,0.4,0.3,0.7,0.4,1c0.1,0.2,0.1,0.4,0.2,0.7
		c0.1,0.3,0.2,0.6,0.2,0.8c0.1,0.3,0.1,0.5,0.2,0.8c0.1,0.2,0.1,0.3,0.1,0.4c0,0.3,0,0.6-0.1,0.8c-0.1,0.3-0.2,0.5-0.4,0.5
		c-0.1,0-0.2,0-0.3-0.1c-0.1-0.1-0.2-0.2-0.3-0.3c-0.1-0.1-0.1-0.2-0.2-0.3c0-0.1-0.1-0.2-0.1-0.2c0,0,0-0.1,0-0.2
		c0-0.1,0-0.2,0-0.2c0-0.3-0.1-0.8-0.3-1.5c-0.1-0.2-0.2-0.5-0.3-0.9c-0.1-0.4-0.3-0.8-0.4-1.2c-0.2-0.5-0.4-1-0.6-1.6
		c-0.1-0.2-0.1-0.4-0.2-0.4c-0.1,0-0.3,0.1-0.6,0.3c-0.3,0.2-0.6,0.4-1,0.7c-0.4,0.3-0.7,0.5-1.1,0.8c-0.4,0.3-0.8,0.6-1.1,0.8
		s-0.6,0.5-0.9,0.6c-0.2,0.2-0.4,0.3-0.4,0.3c-0.2,0-0.4,0-0.6-0.2c-0.2-0.1-0.2-0.3-0.3-0.5c0-0.1,0.1-0.3,0.4-0.5
		c0.3-0.2,0.6-0.5,1-0.8c0.4-0.3,0.9-0.6,1.4-0.9c0.5-0.3,0.9-0.6,1.4-0.9c0.4-0.3,0.9-0.5,1.5-0.9c-0.2-0.8-0.4-1.5-0.6-2.2
		c-0.1-0.5-0.3-1.1-0.4-1.5c-0.1-0.5-0.2-0.7-0.2-0.7c0-0.2,0-0.4,0.1-0.5c0.1-0.1,0.2-0.2,0.3-0.2c0.2,0,0.3,0.1,0.4,0.4
		c0.3,1,0.5,1.8,0.8,2.5c0.2,0.7,0.5,1.3,0.7,1.8c0.2-0.1,0.4-0.2,0.8-0.4c0.4-0.2,0.8-0.4,1.2-0.7c0.4-0.2,0.8-0.4,1.1-0.6
		c0.3-0.2,0.5-0.3,0.6-0.3c0.1,0,0.2,0,0.2,0.1C214.1,69,214.1,69,214.2,69.1z"/>
	<path class="st2" d="M217.2,68.6c0,0-0.1,0.1-0.2,0.2c-0.1,0.1-0.3,0.2-0.4,0.4c-0.2,0.1-0.3,0.2-0.5,0.4c-0.2,0.1-0.3,0.2-0.4,0.2
		c-0.1,0-0.2,0-0.3,0c-0.1,0-0.2,0-0.4-0.1c-0.1,0-0.2-0.1-0.3-0.2c-0.1-0.1-0.2-0.2-0.2-0.4c0-0.3,0-0.5,0.2-0.7
		c0.2-0.2,0.4-0.4,0.7-0.4c0.1,0,0.2,0,0.4,0c0.2,0,0.4,0.1,0.6,0.1c0.2,0.1,0.4,0.1,0.5,0.2C217.1,68.4,217.2,68.5,217.2,68.6z
		 M218.9,78.6c0,0.1-0.1,0.2-0.3,0.3c-0.2,0.1-0.3,0.2-0.4,0.2c-0.2,0-0.4-0.1-0.5-0.3c-0.2-0.2-0.3-0.5-0.4-0.8
		c-0.1-0.3-0.2-0.6-0.3-0.8c-0.1-0.3-0.2-0.5-0.2-0.6c-0.1-0.2-0.2-0.4-0.3-0.6c-0.1-0.2-0.2-0.5-0.3-0.7c-0.1-0.2-0.2-0.4-0.3-0.6
		c-0.1-0.2-0.1-0.3-0.1-0.3c0-0.3,0-0.5,0.1-0.7c0.1-0.2,0.2-0.3,0.3-0.4c0.2,0,0.3,0.1,0.5,0.3c0.2,0.2,0.4,0.5,0.6,0.9
		c0.2,0.4,0.4,0.8,0.6,1.2c0.2,0.4,0.3,0.9,0.5,1.3c0.1,0.4,0.3,0.7,0.3,1C218.9,78.4,218.9,78.5,218.9,78.6z"/>
	<path class="st2" d="M228.2,75.2c0,0.2,0,0.4,0,0.6c0,0.2-0.1,0.4-0.1,0.5c0,0.1-0.2,0.3-0.5,0.6c-0.3,0.3-0.6,0.7-1,1.1
		c-0.4,0.4-0.9,0.7-1.4,1.1c-0.5,0.3-1,0.5-1.5,0.6c-0.3,0-0.6,0-0.9-0.1c-0.3-0.1-0.6-0.2-0.9-0.4c-0.3-0.2-0.5-0.5-0.7-0.8
		c-0.2-0.3-0.3-0.8-0.4-1.3c-0.1-0.9,0-1.7,0.2-2.4c0.2-0.7,0.5-1.3,0.7-1.7c0.1-0.2,0.3-0.4,0.4-0.6c0.2-0.2,0.4-0.4,0.6-0.6
		c0.2-0.2,0.4-0.3,0.5-0.5c0.2-0.1,0.3-0.2,0.3-0.2c0.2,0,0.3,0,0.5,0.1s0.2,0.2,0.2,0.3c0,0.1,0,0.3-0.1,0.4
		c-0.1,0.1-0.2,0.2-0.3,0.4c-0.1,0.1-0.3,0.3-0.5,0.5c-0.2,0.2-0.4,0.5-0.6,0.8c-0.4,0.6-0.6,1.3-0.8,1.9c-0.2,0.6-0.2,1.2-0.2,1.7
		c0,0.5,0.2,0.8,0.6,1.1s0.8,0.4,1.1,0.3c0.7-0.1,1.3-0.3,1.8-0.6c0.5-0.4,0.9-0.7,1.3-1.1c0.3-0.4,0.6-0.8,0.8-1.1
		c0.2-0.3,0.4-0.5,0.5-0.5C228,74.7,228.1,74.9,228.2,75.2z"/>
	<path class="st2" d="M243,73.2c0,0.3-0.1,0.7-0.3,1.2c-0.3,0.5-0.6,1-1.1,1.5c-0.5,0.5-1,0.9-1.6,1.3c-0.6,0.4-1.3,0.6-2,0.7
		c-0.3,0-0.7,0-1-0.1c-0.4-0.1-0.7-0.2-1.1-0.4c-0.4-0.2-0.7-0.4-1-0.7c-0.3-0.3-0.5-0.6-0.7-1c-0.1,0.1-0.2,0.3-0.3,0.6
		c-0.1,0.3-0.3,0.5-0.4,0.8s-0.3,0.5-0.5,0.7c-0.2,0.2-0.4,0.3-0.6,0.3c-0.2,0-0.4-0.1-0.6-0.3s-0.3-0.5-0.4-0.8
		c-0.1-0.3-0.2-0.6-0.3-0.8c-0.1-0.3-0.1-0.4-0.1-0.5c0-0.2,0-0.6,0.1-1.2c0.1-0.6,0.2-1.3,0.4-1.9c0.2-0.7,0.5-1.3,0.8-1.8
		c0.3-0.5,0.8-0.8,1.3-0.9c0.2,0,0.3,0.1,0.4,0.2c0.1,0.2,0.1,0.3,0.1,0.5l0.1,0.8c0.1,0.1,0.2,0.1,0.3,0.1c0.1,0,0.2,0,0.3,0.1
		c0.1,0,0.2,0.1,0.2,0.2c0.1,0.1,0.1,0.2,0.1,0.4c0,0.1,0,0.2,0,0.3c0,0.1,0,0.2,0,0.3c0,0.5,0.1,0.9,0.2,1.4
		c0.1,0.4,0.3,0.8,0.5,1.2c0.2,0.3,0.6,0.6,1,0.8c0.4,0.2,0.9,0.3,1.5,0.2c0.8-0.1,1.4-0.3,2-0.7c0.5-0.4,0.9-0.8,1.3-1.2
		c0.3-0.4,0.6-0.8,0.8-1.2c0.2-0.4,0.4-0.5,0.5-0.5C242.9,72.8,243,72.9,243,73.2z M233.5,72.8c0-0.1,0-0.1-0.1-0.2
		c0-0.1-0.1-0.1-0.1-0.2c0-0.1,0-0.1,0-0.2c0-0.1,0-0.1,0-0.2c0-0.1,0-0.1-0.1-0.1c0,0-0.1-0.1-0.1-0.1c-0.2,0.1-0.3,0.2-0.5,0.5
		c-0.1,0.3-0.3,0.6-0.4,1c-0.1,0.4-0.2,0.7-0.3,1.1c-0.1,0.4-0.1,0.7-0.1,0.9c0,0.1,0.1,0.3,0.2,0.6c0.1,0.3,0.2,0.5,0.3,0.5
		c0.2-0.7,0.5-1.3,0.7-1.9C233.5,74,233.5,73.4,233.5,72.8z"/>
	<path class="st2" d="M247.2,78c-0.1,0.1-0.2,0.1-0.4,0.1c-0.2,0-0.3-0.1-0.5-0.4c-0.2-0.3-0.4-0.7-0.6-1.1
		c-0.2-0.5-0.4-0.9-0.6-1.5s-0.4-1-0.5-1.5c-0.2-0.5-0.3-0.9-0.4-1.2c-0.1-0.3-0.1-0.5-0.1-0.5c0-0.1-0.1-0.3-0.1-0.6
		c-0.1-0.3-0.2-0.8-0.4-1.4c-0.2-0.6-0.3-1.5-0.5-2.5c-0.2-1-0.4-2.3-0.7-3.8c0-0.2,0-0.4,0-0.6s0.1-0.4,0.3-0.4
		c0.2,0,0.5,0.1,0.6,0.5s0.3,0.7,0.4,1.2c0.1,0.5,0.2,1,0.3,1.6c0.1,0.5,0.2,1,0.3,1.4c0.1,0.6,0.2,1.1,0.3,1.5s0.2,0.9,0.3,1.4
		c0.1,0.5,0.2,0.9,0.4,1.4c0.1,0.5,0.3,1,0.5,1.6l1.5,4.4C247.4,77.8,247.3,77.9,247.2,78z"/>
</g>
<g class="st1">
	<path class="st2" d="M60.8,109.6c0,0.1,0,0.2-0.1,0.3c-0.1,0.1-0.2,0.2-0.4,0.2c-0.1,0.1-0.3,0.1-0.4,0.2c-0.1,0-0.3,0.1-0.3,0.1
		c-0.3,0-0.5,0-0.5,0c-0.1,0-0.2,0-0.2,0c-0.4,0-0.8,0.1-1.1,0.2c-0.3,0.1-0.5,0.2-0.6,0.4c-0.1,0.2-0.2,0.4-0.2,0.6s0,0.5,0,0.9
		c0.1,0.6,0.1,1,0.2,1.4c0.1,0.3,0.1,0.6,0.2,0.8c0.1,0.2,0.1,0.4,0.2,0.5c0.1,0.1,0.1,0.2,0.1,0.3c0,0.1-0.1,0.3-0.2,0.5
		c-0.1,0.2-0.3,0.3-0.4,0.3c-0.2,0-0.4-0.2-0.6-0.5c-0.2-0.4-0.4-0.8-0.6-1.3c-0.2-0.5-0.3-1-0.4-1.5c-0.1-0.5-0.2-0.9-0.2-1.2
		c0-0.3,0-0.6,0-0.9c0-0.3,0.1-0.5,0.2-0.7c0.1-0.2,0.2-0.4,0.3-0.5c0.1-0.1,0.2-0.2,0.3-0.2c0.1,0,0.2,0,0.2,0.1
		c0.1,0.1,0.1,0.1,0.2,0.2s0.1,0.1,0.1,0.2c0.1,0.1,0.1,0.1,0.2,0.1c0.2,0,0.4-0.1,0.8-0.3c0.3-0.2,0.8-0.3,1.3-0.4
		c0.5,0,0.8-0.1,1.1-0.1s0.5,0,0.7,0.1c0.1,0,0.1,0,0.2,0.1C60.7,109.4,60.8,109.5,60.8,109.6z"/>
	<path class="st2" d="M70.9,114.1c0,0,0,0.1,0,0.2c0,0.1-0.1,0.3-0.2,0.5c0,0.1-0.2,0.2-0.3,0.4c-0.2,0.2-0.4,0.4-0.7,0.5
		c-0.3,0.2-0.6,0.4-1.1,0.5s-0.9,0.3-1.5,0.3c-0.4,0-0.8,0-1.2-0.2c-0.4-0.2-0.8-0.4-1.1-0.7c-0.3-0.3-0.6-0.8-0.9-1.3
		c-0.2-0.5-0.4-1.2-0.5-1.9c-0.1-0.7,0-1.4,0.1-2c0.1-0.6,0.3-1.2,0.5-1.7c0.2-0.5,0.5-0.9,0.8-1.2c0.3-0.3,0.6-0.5,1-0.5
		c0.3,0,0.6,0,0.9,0.1c0.3,0.1,0.6,0.2,0.8,0.4c0.3,0.2,0.5,0.3,0.6,0.6c0.2,0.2,0.3,0.4,0.3,0.7c0,0.3-0.1,0.6-0.3,0.9
		s-0.5,0.6-0.8,0.9c-0.3,0.3-0.6,0.5-1,0.7s-0.6,0.3-0.8,0.3c-0.1,0-0.2,0-0.3-0.1c-0.1-0.1-0.1-0.2-0.2-0.4c0-0.2,0.1-0.5,0.3-0.6
		c0.2-0.2,0.4-0.3,0.7-0.5c0.3-0.1,0.5-0.3,0.7-0.5c0.2-0.2,0.3-0.4,0.3-0.7c0,0-0.1-0.1-0.2-0.3c-0.1-0.1-0.4-0.2-0.7-0.2
		c-0.2,0-0.4,0.1-0.6,0.4c-0.2,0.2-0.4,0.5-0.6,0.9c-0.2,0.4-0.3,0.8-0.4,1.3c-0.1,0.5-0.1,1-0.1,1.6c0,0.5,0.2,0.9,0.4,1.2
		s0.5,0.7,0.7,0.9c0.3,0.2,0.6,0.4,1,0.5c0.4,0.1,0.7,0.2,1.1,0.1c0.3,0,0.6-0.1,0.9-0.3c0.3-0.1,0.6-0.3,0.9-0.5
		c0.3-0.2,0.5-0.3,0.7-0.4c0.2-0.1,0.3-0.2,0.4-0.2c0.1,0,0.1,0,0.2,0.1C70.8,114,70.9,114.1,70.9,114.1z"/>
	<path class="st2" d="M85.3,110.1c0,0.3-0.1,0.7-0.3,1.2c-0.3,0.5-0.6,1-1.1,1.5c-0.5,0.5-1,0.9-1.6,1.3c-0.6,0.4-1.3,0.6-2,0.7
		c-0.3,0-0.7,0-1-0.1c-0.4-0.1-0.7-0.2-1.1-0.4c-0.4-0.2-0.7-0.4-1-0.7c-0.3-0.3-0.5-0.6-0.7-1c-0.1,0.1-0.2,0.3-0.3,0.6
		c-0.1,0.3-0.3,0.5-0.4,0.8s-0.3,0.5-0.5,0.7c-0.2,0.2-0.4,0.3-0.6,0.3c-0.2,0-0.4-0.1-0.6-0.3c-0.2-0.2-0.3-0.5-0.4-0.8
		c-0.1-0.3-0.2-0.6-0.3-0.8c-0.1-0.3-0.1-0.4-0.1-0.5c0-0.2,0-0.6,0.1-1.2c0.1-0.6,0.2-1.3,0.4-1.9c0.2-0.7,0.5-1.3,0.8-1.8
		c0.3-0.5,0.8-0.8,1.3-0.9c0.2,0,0.3,0.1,0.4,0.2c0.1,0.2,0.1,0.3,0.1,0.5l0.1,0.8c0.1,0.1,0.2,0.1,0.3,0.1c0.1,0,0.2,0,0.3,0.1
		c0.1,0,0.2,0.1,0.2,0.2c0.1,0.1,0.1,0.2,0.1,0.4c0,0.1,0,0.2,0,0.3c0,0.1,0,0.2,0,0.3c0,0.5,0.1,0.9,0.2,1.4
		c0.1,0.4,0.3,0.8,0.5,1.2c0.2,0.3,0.6,0.6,1,0.8s0.9,0.3,1.5,0.2c0.8-0.1,1.4-0.3,2-0.7c0.5-0.4,0.9-0.8,1.3-1.2
		c0.3-0.4,0.6-0.8,0.8-1.2c0.2-0.4,0.4-0.5,0.5-0.5C85.2,109.7,85.3,109.8,85.3,110.1z M75.8,109.7c0-0.1,0-0.1-0.1-0.2
		c0-0.1-0.1-0.1-0.1-0.2c0-0.1,0-0.1,0-0.2c0-0.1,0-0.1,0-0.2c0-0.1,0-0.1-0.1-0.1c0,0-0.1-0.1-0.1-0.1c-0.2,0.1-0.3,0.2-0.5,0.5
		c-0.1,0.3-0.3,0.6-0.4,1c-0.1,0.4-0.2,0.7-0.3,1.1c-0.1,0.4-0.1,0.7-0.1,0.9c0,0.1,0.1,0.3,0.2,0.6c0.1,0.3,0.2,0.5,0.3,0.5
		c0.2-0.7,0.5-1.3,0.7-1.9C75.8,110.9,75.9,110.3,75.8,109.7z"/>
	<path class="st2" d="M89.5,114.9c-0.1,0.1-0.2,0.1-0.4,0.1c-0.2,0-0.3-0.1-0.5-0.4c-0.2-0.3-0.4-0.7-0.6-1.1
		c-0.2-0.5-0.4-0.9-0.6-1.5c-0.2-0.5-0.4-1-0.5-1.5c-0.2-0.5-0.3-0.9-0.4-1.2s-0.1-0.5-0.1-0.5c0-0.1-0.1-0.3-0.1-0.6
		c-0.1-0.3-0.2-0.8-0.4-1.4c-0.2-0.6-0.3-1.5-0.5-2.5c-0.2-1-0.4-2.3-0.7-3.8c0-0.2,0-0.4,0-0.6c0-0.3,0.1-0.4,0.3-0.4
		c0.3,0,0.5,0.1,0.6,0.5c0.2,0.3,0.3,0.7,0.4,1.2c0.1,0.5,0.2,1,0.3,1.6c0.1,0.5,0.2,1,0.3,1.4c0.1,0.6,0.2,1.1,0.3,1.5
		c0.1,0.5,0.2,0.9,0.3,1.4c0.1,0.5,0.2,0.9,0.4,1.4c0.1,0.5,0.3,1,0.5,1.6l1.5,4.4C89.7,114.7,89.6,114.8,89.5,114.9z"/>
	<path class="st2" d="M110.1,101.6c0.1,0,0.1,0.1,0.1,0.2c0,0.1,0,0.3-0.2,0.4c-0.1,0.1-0.2,0.3-0.1,0.5c0,0,0,0.2,0,0.4
		c0,0.2,0,0.5,0.1,0.8c0,0.3,0,0.6,0.1,0.8c0,0.3,0,0.4,0,0.4l0.2,2.7c0,0,0,0.1,0,0.4c0,0.2,0,0.5,0,0.8c0,0.3,0,0.7,0,1
		c0,0.4,0,0.7-0.1,0.9c0,0.1-0.1,0.1-0.1,0.2c-0.1,0-0.2,0.1-0.3,0.1c-0.1,0-0.2,0.1-0.3,0.1c-0.1,0-0.1,0-0.2,0
		c-0.2,0-0.4-0.1-0.7-0.3c-0.2-0.2-0.5-0.5-0.7-0.7s-0.4-0.5-0.6-0.8c-0.2-0.2-0.3-0.4-0.3-0.4c0,0.3-0.1,0.5-0.2,0.8
		c-0.1,0.3-0.1,0.5-0.2,0.7c-0.1,0.2-0.2,0.4-0.3,0.6c-0.1,0.2-0.3,0.2-0.4,0.3c-0.2,0-0.4-0.1-0.7-0.3s-0.5-0.5-0.8-0.8
		c-0.3-0.3-0.5-0.7-0.8-1.1c-0.3-0.4-0.5-0.8-0.7-1.2c-0.2-0.4-0.4-0.7-0.5-1.1c-0.1-0.3-0.2-0.6-0.2-0.8c0-0.1,0-0.2,0.1-0.3
		c0.1-0.1,0.2-0.2,0.3-0.2c0.3,0,0.4,0,0.6,0.2c0,0,0.1,0.2,0.2,0.5c0.1,0.3,0.3,0.6,0.5,1c0.2,0.4,0.5,0.8,0.7,1.2
		c0.3,0.4,0.6,0.8,0.9,1c0.1-0.2,0.2-0.5,0.2-0.8c0.1-0.3,0.1-0.6,0.1-0.9c0-0.3,0-0.5,0-0.7c0-0.2,0-0.4,0-0.6
		c0-0.1-0.1-0.3-0.1-0.4c0-0.1-0.1-0.2-0.1-0.4c0-0.1,0-0.2,0-0.3c0-0.4,0.1-0.7,0.5-0.7c0.3,0,0.5,0,0.6,0.2
		c0.2,0.2,0.3,0.3,0.4,0.6c0.1,0.2,0.2,0.4,0.2,0.6c0,0.2,0.1,0.4,0.1,0.4c0.2,0.4,0.3,0.8,0.5,1.1c0.1,0.3,0.4,0.7,0.7,1
		c0.1-0.1,0.1-0.2,0.1-0.3s0.1-0.3,0.1-0.4c0-0.1,0-0.3,0-0.4c0-0.1,0-0.2,0-0.3l-0.5-5.4c0-0.1,0-0.2,0.1-0.3
		c0.1-0.1,0.2-0.2,0.3-0.3c0.1-0.1,0.2-0.2,0.3-0.2c0.1-0.1,0.2-0.1,0.2-0.1c0.1,0,0.2,0,0.3,0.1
		C109.8,101.5,109.9,101.6,110.1,101.6z"/>
	<path class="st2" d="M117.7,107c0,0.4,0,0.8-0.1,1.1c-0.1,0.4-0.2,0.7-0.3,1c-0.2,0.3-0.3,0.5-0.6,0.7c-0.2,0.2-0.5,0.3-0.8,0.3
		c-0.5,0-0.9-0.1-1.2-0.3c-0.3-0.3-0.6-0.6-0.7-0.9c-0.2-0.4-0.3-0.7-0.4-1.1c-0.1-0.4-0.1-0.7-0.1-0.9c0-0.3,0-0.7,0.1-1.1
		c0.1-0.4,0.2-0.8,0.3-1.2c0.1-0.4,0.3-0.7,0.5-0.9c0.2-0.3,0.4-0.4,0.6-0.4c0.1,0,0.1,0,0.3,0c0.1,0,0.2,0.1,0.4,0.1
		c0.1,0.1,0.3,0.1,0.4,0.2c0.1,0.1,0.2,0.2,0.2,0.4c0.2,0,0.4,0.1,0.6,0.2c0.2,0.1,0.3,0.2,0.3,0.3c0.2,0.5,0.3,0.9,0.4,1.4
		C117.6,106.3,117.7,106.7,117.7,107z M116.4,106.6c0-0.3-0.1-0.5-0.2-0.8c-0.1-0.3-0.2-0.6-0.4-0.9c0,0-0.1,0-0.1,0
		c-0.1,0-0.1,0-0.2,0c0,0-0.1,0-0.1,0c-0.2,0-0.4,0.1-0.5,0.2c-0.1,0.1-0.2,0.3-0.2,0.5c0,0.2-0.1,0.4-0.1,0.6c0,0.2,0,0.4,0,0.6
		c0,0.2,0,0.4,0.1,0.7c0,0.2,0.1,0.5,0.2,0.7c0.1,0.2,0.2,0.4,0.3,0.5c0.1,0.1,0.3,0.2,0.4,0.2s0.3-0.1,0.4-0.3
		c0.1-0.2,0.2-0.4,0.2-0.7c0-0.3,0.1-0.5,0.1-0.8C116.4,106.9,116.4,106.7,116.4,106.6z"/>
	<path class="st2" d="M126.5,103.8c0,0.1,0,0.2-0.1,0.3c-0.1,0.1-0.2,0.2-0.4,0.2c-0.1,0.1-0.3,0.1-0.4,0.2c-0.1,0-0.3,0.1-0.3,0.1
		c-0.3,0-0.4,0-0.5,0c-0.1,0-0.2,0-0.2,0c-0.4,0-0.8,0.1-1.1,0.2c-0.3,0.1-0.5,0.2-0.6,0.4c-0.1,0.2-0.2,0.4-0.2,0.6s0,0.5,0,0.9
		c0.1,0.6,0.1,1,0.2,1.4c0.1,0.3,0.1,0.6,0.2,0.8c0.1,0.2,0.1,0.4,0.2,0.5c0.1,0.1,0.1,0.2,0.1,0.3c0,0.1-0.1,0.3-0.2,0.5
		c-0.1,0.2-0.3,0.3-0.4,0.3c-0.2,0-0.4-0.2-0.6-0.5c-0.2-0.4-0.4-0.8-0.6-1.3c-0.2-0.5-0.3-1-0.4-1.5c-0.1-0.5-0.2-0.9-0.2-1.2
		c0-0.3,0-0.6,0-0.9c0-0.3,0.1-0.5,0.2-0.7c0.1-0.2,0.2-0.4,0.3-0.5c0.1-0.1,0.2-0.2,0.3-0.2c0.1,0,0.2,0,0.2,0.1
		c0.1,0.1,0.1,0.1,0.2,0.2c0,0.1,0.1,0.1,0.1,0.2c0.1,0.1,0.1,0.1,0.2,0.1c0.2,0,0.4-0.1,0.8-0.3c0.3-0.2,0.8-0.3,1.3-0.4
		c0.5,0,0.8-0.1,1.1-0.1c0.2,0,0.5,0,0.7,0.1c0.1,0,0.1,0,0.2,0.1C126.5,103.6,126.5,103.7,126.5,103.8z"/>
	<path class="st2" d="M132.8,111.1c-0.1,0.1-0.2,0.1-0.4,0.1c-0.2,0-0.3-0.1-0.5-0.4c-0.2-0.3-0.4-0.7-0.6-1.1
		c-0.2-0.5-0.4-0.9-0.6-1.5c-0.2-0.5-0.4-1-0.5-1.5c-0.2-0.5-0.3-0.9-0.4-1.2c-0.1-0.3-0.1-0.5-0.1-0.5c0-0.1-0.1-0.3-0.1-0.6
		c-0.1-0.3-0.2-0.8-0.4-1.4c-0.2-0.6-0.3-1.5-0.5-2.5c-0.2-1-0.4-2.3-0.7-3.8c0-0.2,0-0.4,0-0.6c0-0.3,0.1-0.4,0.3-0.4
		c0.3,0,0.5,0.1,0.6,0.5c0.2,0.3,0.3,0.7,0.4,1.2c0.1,0.5,0.2,1,0.3,1.6s0.2,1,0.3,1.4c0.1,0.6,0.2,1.1,0.3,1.5
		c0.1,0.5,0.2,0.9,0.3,1.4c0.1,0.5,0.2,0.9,0.4,1.4c0.1,0.5,0.3,1,0.5,1.6l1.5,4.4C132.9,110.9,132.9,111,132.8,111.1z"/>
	<path class="st2" d="M142.3,106.3c0,0.1,0,0.2-0.1,0.3c-0.1,0.1-0.1,0.2-0.1,0.3c0,0.2,0.1,0.4,0.2,0.6c0.1,0.2,0.2,0.4,0.2,0.6
		c0,0.2,0,0.4-0.2,0.4c-0.2,0-0.3,0-0.4,0.1s-0.2,0.1-0.4,0.2c-0.1,0-0.2-0.1-0.4-0.3c-0.1-0.1-0.2-0.2-0.2-0.3c0,0,0,0-0.1,0.1
		c-0.1,0.1-0.2,0.2-0.5,0.4c-0.2,0.1-0.5,0.3-0.9,0.4c-0.4,0.1-0.9,0.2-1.5,0.3c-0.5,0-1,0-1.3-0.2c-0.4-0.2-0.7-0.5-1-0.8
		c-0.3-0.3-0.5-0.7-0.6-1.2c-0.2-0.4-0.3-0.9-0.3-1.4c0-0.4,0-0.8,0-1.2c0.1-0.4,0.2-0.7,0.3-1.1s0.4-0.6,0.6-0.8
		c0.3-0.2,0.6-0.3,0.9-0.4c0.3,0,0.7,0,1,0.2c0.4,0.2,0.7,0.4,1,0.6c0.3,0.2,0.6,0.5,1,0.9c-0.4-1.4-0.7-2.6-1-3.7
		c-0.1-0.5-0.3-0.9-0.4-1.4c-0.1-0.5-0.2-0.9-0.3-1.3c-0.1-0.4-0.2-0.7-0.3-0.9c-0.1-0.3-0.1-0.4-0.1-0.5c0-0.1-0.1-0.3-0.1-0.6
		s-0.1-0.6-0.1-0.9c0-0.3-0.1-0.6-0.1-0.8c0-0.2-0.1-0.4-0.1-0.5c-0.1-0.2-0.2-0.4-0.3-0.7c-0.1-0.3-0.2-0.4-0.2-0.4
		c0-0.1,0-0.2,0.1-0.3c0.1-0.1,0.2-0.2,0.3-0.2c0.1,0,0.2,0,0.3,0c0.1,0,0.2,0.1,0.3,0.1s0.2,0.2,0.2,0.4s0.2,0.4,0.2,0.8
		c0,0.2,0.1,0.5,0.3,1c0.1,0.5,0.3,1,0.4,1.6c0.1,0.6,0.3,1.1,0.4,1.7c0.1,0.5,0.2,0.9,0.3,1.2c0.1,0.7,0.3,1.4,0.6,2.2
		c0.2,0.8,0.4,1.5,0.7,2.3c0.2,0.7,0.4,1.4,0.7,1.9c0.2,0.5,0.4,0.9,0.5,1.1c0,0.1,0.1,0.1,0.2,0.1
		C142.2,106.2,142.3,106.3,142.3,106.3z M140.4,107.1c0-0.1-0.2-0.3-0.4-0.7c-0.2-0.4-0.5-0.8-0.9-1.2c-0.4-0.4-0.7-0.8-1.2-1.2
		c-0.4-0.3-0.8-0.5-1.2-0.5c-0.3,0-0.5,0.3-0.7,0.8c-0.1,0.5-0.2,1-0.1,1.6c0.1,0.7,0.3,1.2,0.7,1.6c0.4,0.4,0.9,0.5,1.4,0.5
		c0.4,0,0.9-0.1,1.3-0.3C139.9,107.5,140.2,107.3,140.4,107.1z"/>
	<path class="st2" d="M163.1,104.5c0,0.1,0,0.2-0.1,0.3c-0.1,0.1-0.1,0.2-0.1,0.3c0,0.2,0.1,0.4,0.2,0.6s0.2,0.4,0.2,0.6
		c0,0.2,0,0.4-0.2,0.4c-0.2,0-0.3,0-0.4,0.1c-0.1,0.1-0.2,0.1-0.4,0.2c-0.1,0-0.2-0.1-0.4-0.3c-0.1-0.1-0.2-0.2-0.2-0.3
		c0,0,0,0-0.1,0.1s-0.2,0.2-0.5,0.4s-0.5,0.3-0.9,0.4c-0.4,0.1-0.9,0.2-1.5,0.3c-0.5,0-1,0-1.3-0.2c-0.4-0.2-0.7-0.5-1-0.8
		c-0.3-0.3-0.5-0.7-0.6-1.2c-0.2-0.4-0.3-0.9-0.3-1.4c0-0.4,0-0.8,0-1.2c0.1-0.4,0.2-0.7,0.3-1.1c0.2-0.3,0.4-0.6,0.6-0.8
		c0.3-0.2,0.6-0.3,0.9-0.4c0.3,0,0.7,0,1,0.2s0.7,0.4,1,0.6c0.3,0.2,0.6,0.5,1,0.9c-0.4-1.4-0.7-2.6-1-3.7c-0.1-0.5-0.3-0.9-0.4-1.4
		c-0.1-0.5-0.2-0.9-0.3-1.3c-0.1-0.4-0.2-0.7-0.3-0.9s-0.1-0.4-0.1-0.5c0-0.1-0.1-0.3-0.1-0.6s-0.1-0.6-0.1-0.9
		c0-0.3-0.1-0.6-0.1-0.8c0-0.2-0.1-0.4-0.1-0.5c-0.1-0.2-0.2-0.4-0.3-0.7c-0.1-0.3-0.2-0.4-0.2-0.4c0-0.1,0-0.2,0.1-0.3
		c0.1-0.1,0.2-0.2,0.3-0.2c0.1,0,0.2,0,0.3,0c0.1,0,0.2,0.1,0.3,0.1c0.1,0.1,0.2,0.2,0.2,0.4c0.1,0.2,0.2,0.4,0.2,0.8
		c0,0.2,0.1,0.5,0.3,1c0.1,0.5,0.3,1,0.4,1.6c0.1,0.6,0.3,1.1,0.4,1.7c0.1,0.5,0.2,0.9,0.3,1.2c0.1,0.7,0.3,1.4,0.6,2.2
		c0.2,0.8,0.4,1.5,0.7,2.3c0.2,0.7,0.4,1.4,0.7,1.9c0.2,0.5,0.4,0.9,0.5,1.1c0,0.1,0.1,0.1,0.2,0.1
		C163,104.4,163.1,104.4,163.1,104.5z M161.2,105.2c0-0.1-0.2-0.3-0.4-0.7c-0.2-0.4-0.5-0.8-0.9-1.2c-0.4-0.4-0.7-0.8-1.2-1.2
		c-0.4-0.3-0.8-0.5-1.2-0.5c-0.3,0-0.5,0.3-0.7,0.8c-0.1,0.5-0.2,1-0.1,1.6c0.1,0.7,0.3,1.2,0.7,1.6c0.4,0.4,0.9,0.5,1.4,0.5
		c0.4,0,0.9-0.1,1.3-0.3C160.7,105.7,161,105.5,161.2,105.2z"/>
	<path class="st2" d="M177.9,102c0,0.3-0.1,0.7-0.3,1.2c-0.3,0.5-0.6,1-1.1,1.5c-0.5,0.5-1,0.9-1.6,1.3c-0.6,0.4-1.3,0.6-2,0.7
		c-0.3,0-0.7,0-1-0.1c-0.4-0.1-0.7-0.2-1.1-0.4c-0.4-0.2-0.7-0.4-1-0.7c-0.3-0.3-0.5-0.6-0.7-1c-0.1,0.1-0.2,0.3-0.3,0.6
		c-0.1,0.3-0.3,0.5-0.4,0.8c-0.2,0.3-0.3,0.5-0.5,0.7c-0.2,0.2-0.4,0.3-0.6,0.3c-0.2,0-0.4-0.1-0.6-0.3c-0.2-0.2-0.3-0.5-0.4-0.8
		c-0.1-0.3-0.2-0.6-0.3-0.8c-0.1-0.3-0.1-0.4-0.1-0.5c0-0.2,0-0.6,0.1-1.2c0.1-0.6,0.2-1.3,0.4-1.9c0.2-0.7,0.5-1.3,0.8-1.8
		c0.3-0.5,0.8-0.8,1.3-0.9c0.2,0,0.3,0.1,0.4,0.2c0.1,0.2,0.1,0.3,0.1,0.5l0.1,0.8c0.1,0.1,0.2,0.1,0.3,0.1c0.1,0,0.2,0,0.3,0.1
		c0.1,0,0.2,0.1,0.2,0.2c0.1,0.1,0.1,0.2,0.1,0.4c0,0.1,0,0.2,0,0.3c0,0.1,0,0.2,0,0.3c0,0.5,0.1,0.9,0.2,1.4
		c0.1,0.4,0.3,0.8,0.5,1.2c0.2,0.3,0.6,0.6,1,0.8c0.4,0.2,0.9,0.3,1.5,0.2c0.8-0.1,1.4-0.3,2-0.7c0.5-0.4,0.9-0.8,1.3-1.2
		c0.3-0.4,0.6-0.8,0.8-1.2c0.2-0.4,0.4-0.5,0.5-0.5C177.7,101.6,177.9,101.7,177.9,102z M168.3,101.6c0-0.1,0-0.1-0.1-0.2
		c0-0.1-0.1-0.1-0.1-0.2c0-0.1,0-0.1,0-0.2c0-0.1,0-0.1,0-0.2c0-0.1,0-0.1-0.1-0.1c0,0-0.1-0.1-0.1-0.1c-0.2,0.1-0.3,0.2-0.5,0.5
		c-0.1,0.3-0.3,0.6-0.4,1c-0.1,0.4-0.2,0.7-0.3,1.1c-0.1,0.4-0.1,0.7-0.1,0.9c0,0.1,0.1,0.3,0.2,0.6c0.1,0.3,0.2,0.5,0.3,0.5
		c0.2-0.7,0.5-1.3,0.7-1.9C168.3,102.8,168.4,102.2,168.3,101.6z"/>
	<path class="st2" d="M184.8,94.7c-0.2,0.3-0.5,0.6-0.9,0.9c-0.4,0.3-0.8,0.6-1.2,0.8c-0.4,0.3-0.8,0.5-1.1,0.6
		c-0.3,0.2-0.5,0.3-0.5,0.4s0.1,0.2,0.1,0.5c0.1,0.3,0.2,0.6,0.3,0.9c0.1,0.4,0.3,0.7,0.4,1.1c0.1,0.4,0.3,0.7,0.4,1
		c0.1,0.2,0.1,0.4,0.2,0.7c0.1,0.3,0.2,0.6,0.2,0.8c0.1,0.3,0.1,0.5,0.2,0.8c0.1,0.2,0.1,0.3,0.1,0.4c0,0.3,0,0.6-0.1,0.8
		c-0.1,0.3-0.2,0.5-0.4,0.5c-0.1,0-0.2,0-0.3-0.1c-0.1-0.1-0.2-0.2-0.3-0.3c-0.1-0.1-0.1-0.2-0.2-0.3c0-0.1-0.1-0.2-0.1-0.2
		c0,0,0-0.1,0-0.2c0-0.1,0-0.2,0-0.2c0-0.3-0.1-0.8-0.3-1.5c-0.1-0.2-0.2-0.5-0.3-0.9s-0.3-0.8-0.4-1.2c-0.2-0.5-0.4-1-0.6-1.6
		c-0.1-0.2-0.1-0.4-0.2-0.4c-0.1,0-0.3,0.1-0.6,0.3c-0.3,0.2-0.6,0.4-1,0.7c-0.4,0.3-0.7,0.5-1.1,0.8c-0.4,0.3-0.8,0.6-1.1,0.8
		c-0.3,0.3-0.6,0.5-0.9,0.6c-0.2,0.2-0.4,0.3-0.5,0.3c-0.2,0-0.4,0-0.6-0.2c-0.2-0.1-0.2-0.3-0.3-0.5c0-0.1,0.1-0.3,0.4-0.5
		c0.3-0.2,0.6-0.5,1-0.8c0.4-0.3,0.9-0.6,1.4-0.9c0.5-0.3,0.9-0.6,1.4-0.9c0.4-0.3,0.9-0.5,1.5-0.9c-0.2-0.8-0.4-1.5-0.6-2.2
		c-0.1-0.5-0.3-1.1-0.4-1.5c-0.1-0.5-0.2-0.7-0.2-0.7c0-0.2,0-0.4,0.1-0.5c0.1-0.1,0.2-0.2,0.3-0.2c0.2,0,0.3,0.1,0.4,0.4
		c0.3,1,0.5,1.8,0.8,2.5c0.2,0.7,0.5,1.3,0.7,1.8c0.2,0,0.4-0.2,0.8-0.4c0.4-0.2,0.8-0.4,1.2-0.7c0.4-0.2,0.8-0.4,1.1-0.6
		c0.3-0.2,0.5-0.3,0.6-0.3c0.1,0,0.2,0,0.2,0.1C184.7,94.6,184.7,94.7,184.8,94.7z"/>
	<path class="st2" d="M199.6,100.1c0,0.3-0.1,0.7-0.3,1.2c-0.3,0.5-0.6,1-1.1,1.5c-0.5,0.5-1,0.9-1.6,1.3c-0.6,0.4-1.3,0.6-2,0.7
		c-0.3,0-0.7,0-1-0.1c-0.4-0.1-0.7-0.2-1.1-0.4c-0.4-0.2-0.7-0.4-1-0.7c-0.3-0.3-0.5-0.6-0.7-1c-0.1,0.1-0.2,0.3-0.3,0.6
		c-0.1,0.3-0.3,0.5-0.4,0.8c-0.2,0.3-0.3,0.5-0.5,0.7c-0.2,0.2-0.4,0.3-0.6,0.3c-0.2,0-0.4-0.1-0.6-0.3c-0.2-0.2-0.3-0.5-0.4-0.8
		c-0.1-0.3-0.2-0.6-0.3-0.8c-0.1-0.3-0.1-0.4-0.1-0.5c0-0.2,0-0.6,0.1-1.2c0.1-0.6,0.2-1.3,0.4-1.9c0.2-0.7,0.5-1.3,0.8-1.8
		c0.3-0.5,0.8-0.8,1.3-0.9c0.2,0,0.3,0.1,0.4,0.2c0.1,0.2,0.1,0.3,0.1,0.5l0.1,0.8c0.1,0.1,0.2,0.1,0.3,0.1c0.1,0,0.2,0,0.3,0.1
		c0.1,0,0.2,0.1,0.2,0.2c0.1,0.1,0.1,0.2,0.1,0.4c0,0.1,0,0.2,0,0.3c0,0.1,0,0.2,0,0.3c0,0.5,0.1,0.9,0.2,1.4
		c0.1,0.4,0.3,0.8,0.5,1.2c0.2,0.3,0.6,0.6,1,0.8c0.4,0.2,0.9,0.3,1.5,0.2c0.8-0.1,1.4-0.3,2-0.7c0.5-0.4,0.9-0.8,1.3-1.2
		c0.3-0.4,0.6-0.8,0.8-1.2c0.2-0.4,0.4-0.5,0.5-0.5C199.4,99.7,199.5,99.8,199.6,100.1z M190,99.7c0-0.1,0-0.1-0.1-0.2
		c0-0.1-0.1-0.1-0.1-0.2c0-0.1,0-0.1,0-0.2c0-0.1,0-0.1,0-0.2c0-0.1,0-0.1-0.1-0.1c0,0-0.1-0.1-0.1-0.1c-0.2,0.1-0.3,0.2-0.5,0.5
		c-0.1,0.3-0.3,0.6-0.4,1c-0.1,0.4-0.2,0.7-0.3,1.1c-0.1,0.4-0.1,0.7-0.1,0.9c0,0.1,0.1,0.3,0.2,0.6c0.1,0.3,0.2,0.5,0.3,0.5
		c0.2-0.7,0.5-1.3,0.7-1.9S190.1,100.3,190,99.7z"/>
	<path class="st2" d="M201.9,103.8c0,0.1,0,0.2-0.1,0.3c-0.1,0.1-0.2,0.2-0.3,0.3c-0.1,0.1-0.3,0.2-0.4,0.2
		c-0.1,0.1-0.2,0.1-0.2,0.1c-0.2,0-0.3,0-0.4-0.1c-0.1-0.1-0.2-0.2-0.2-0.3c-0.1-0.1-0.1-0.2-0.1-0.3c0-0.1,0-0.2,0-0.2
		c0-0.1,0-0.2,0-0.3c0-0.1,0.1-0.2,0.1-0.4s0.1-0.2,0.2-0.3c0.1-0.1,0.2-0.1,0.3-0.2c0.2,0,0.5,0.1,0.7,0.2
		C201.8,103.2,201.9,103.5,201.9,103.8z"/>
</g>
<path class="st3" d="M188.6,237.2c5.6-6.4,14.6-18.6,19.8-36.4c2.6-9,7.2-24.5,2.6-43.2c-5.5-22.1-20.3-35.3-26.5-40.1"/>
<path class="st3" d="M197.5,236.6c-3.2,0.5-6.4,1-9.6,1.5c0-3.2-0.1-6.4-0.2-9.7"/>
</svg>
