<?xml version="1.0" encoding="utf-8"?>
<!-- Generator: Adobe Illustrator 22.1.0, SVG Export Plug-In . SVG Version: 6.00 Build 0)  -->
<svg version="1.1" id="Layer_1" xmlns="http://www.w3.org/2000/svg" xmlns:xlink="http://www.w3.org/1999/xlink" x="0px" y="0px"
	 viewBox="0 0 250 250" style="enable-background:new 0 0 250 250;" xml:space="preserve">
<style type="text/css">
	.st0{fill:none;stroke:#1D3766;stroke-linecap:round;stroke-linejoin:round;stroke-miterlimit:10;}
	.st1{fill:none;}
	.st2{enable-background:new    ;}
	.st3{fill:#1D3766;}
</style>
<path class="st0" d="M74.5,103.5c-34,50.4-40,100.7-22,119c2.7,2.7,11.2,10.1,24,15c16,6.1,30.2,5,37,4"/>
<path class="st0" d="M105.9,235.9c2.8,1.7,5.5,3.4,8.3,5.1c-2,2.5-4.1,5-6.1,7.6"/>
<rect x="93.1" y="15.8" transform="matrix(0.9962 -8.715522e-02 8.715522e-02 0.9962 -8.0284 14.1254)" class="st1" width="129.3" height="166.4"/>
<g class="st2">
	<path class="st3" d="M129.7,33.3c0.1,0.8,0,1.5-0.3,1.9c-0.2,0.5-0.6,0.9-1.2,1.4c-0.1,0.1-0.3,0.2-0.6,0.4
		c-0.2,0.1-0.5,0.3-0.8,0.4c-0.3,0.1-0.6,0.3-0.9,0.4c-0.3,0.1-0.6,0.2-0.9,0.2c-0.8,0.1-1.4,0-1.9-0.1c-0.4-0.1-0.7-0.3-0.7-0.6
		c0-0.3,0-0.5,0.2-0.6c0.1-0.2,0.2-0.3,0.4-0.3l0.3,0.2c0.1,0.1,0.2,0.2,0.4,0.2s0.4,0.1,0.8,0.1c0.3,0,0.7-0.1,1.2-0.3
		c0.5-0.2,0.9-0.4,1.3-0.7c0.4-0.3,0.8-0.6,1.1-1c0.3-0.4,0.4-0.8,0.4-1.3c0-0.4-0.4-0.8-1-1.1c-0.6-0.3-1.6-0.4-3-0.5
		c-0.7,0-1.4,0-2-0.1c-0.7-0.1-1.3-0.2-1.8-0.3c-0.5-0.2-1-0.4-1.3-0.7c-0.3-0.3-0.5-0.7-0.6-1.1c0-0.4,0-0.9,0.3-1.3
		c0.2-0.4,0.5-0.8,0.8-1.2c0.3-0.4,0.7-0.7,1.1-1c0.4-0.3,0.7-0.6,0.9-0.8c0.2-0.1,0.5-0.3,0.9-0.6c0.4-0.2,0.8-0.5,1.2-0.7
		c0.4-0.2,0.8-0.4,1.3-0.6s0.8-0.3,1.1-0.3c0.4,0,0.6,0,0.8,0.2c0.1,0.2,0.2,0.5,0.3,0.8c0,0.3,0,0.6,0,1c0,0.3-0.1,0.7-0.2,1
		c-0.1,0.3-0.1,0.6-0.2,0.9c-0.1,0.2-0.1,0.4-0.1,0.5c-0.1,0.2-0.1,0.3-0.2,0.3s-0.1,0.1-0.2,0.1c-0.1,0-0.1,0-0.1-0.1
		c0-0.1,0-0.2,0-0.3c0-0.2,0-0.3,0.1-0.6c0-0.2,0-0.5,0-0.7c0-0.3,0-0.5,0-0.8c0-0.4-0.1-0.7-0.1-0.9c-0.1-0.2-0.2-0.3-0.5-0.2
		s-0.6,0.1-1,0.3c-0.4,0.2-0.8,0.4-1.3,0.6c-0.5,0.3-0.9,0.6-1.3,1s-0.8,0.8-1.1,1.2c-0.3,0.4-0.6,0.8-0.8,1.1
		c-0.2,0.4-0.3,0.6-0.3,0.8c0,0.2,0.2,0.4,0.5,0.6c0.3,0.2,0.7,0.3,1.2,0.4c0.5,0.1,1,0.2,1.6,0.2c0.6,0.1,1.1,0.1,1.7,0.1
		c0.5,0,1,0,1.5,0.1c0.5,0,1.1,0.1,1.5,0.3c0.5,0.2,0.9,0.4,1.3,0.7C129.4,32.4,129.6,32.8,129.7,33.3z"/>
	<path class="st3" d="M138.7,33.6c0,0,0,0.1,0,0.2c0,0.1-0.1,0.3-0.2,0.5c0,0.1-0.2,0.2-0.3,0.4c-0.2,0.2-0.4,0.4-0.7,0.5
		c-0.3,0.2-0.7,0.4-1.1,0.5c-0.4,0.2-0.9,0.3-1.5,0.3c-0.4,0-0.8,0-1.2-0.2c-0.4-0.2-0.8-0.4-1.1-0.7c-0.3-0.3-0.6-0.8-0.9-1.3
		c-0.2-0.5-0.4-1.2-0.5-1.9c-0.1-0.7,0-1.4,0.1-2s0.3-1.2,0.5-1.7c0.2-0.5,0.5-0.9,0.8-1.2c0.3-0.3,0.6-0.5,1-0.5
		c0.3,0,0.6,0,0.9,0.1c0.3,0.1,0.6,0.2,0.8,0.4c0.3,0.2,0.5,0.3,0.6,0.6c0.2,0.2,0.3,0.4,0.3,0.7c0,0.3-0.1,0.6-0.3,0.9
		c-0.2,0.3-0.5,0.6-0.8,0.9c-0.3,0.3-0.6,0.5-1,0.7c-0.3,0.2-0.6,0.3-0.8,0.3c-0.1,0-0.2,0-0.3-0.1c-0.1-0.1-0.1-0.2-0.2-0.4
		c0-0.2,0.1-0.5,0.3-0.6c0.2-0.2,0.4-0.3,0.7-0.5c0.3-0.1,0.5-0.3,0.7-0.5c0.2-0.2,0.3-0.4,0.3-0.7c0,0-0.1-0.1-0.2-0.3
		c-0.1-0.1-0.4-0.2-0.7-0.2c-0.2,0-0.4,0.1-0.6,0.4s-0.4,0.5-0.6,0.9c-0.2,0.4-0.3,0.8-0.4,1.3c-0.1,0.5-0.1,1-0.1,1.6
		c0,0.5,0.2,0.9,0.4,1.2c0.2,0.4,0.5,0.7,0.7,0.9c0.3,0.2,0.6,0.4,1,0.5c0.4,0.1,0.7,0.2,1.1,0.1c0.3,0,0.6-0.1,0.9-0.3
		c0.3-0.1,0.6-0.3,0.9-0.5c0.3-0.2,0.5-0.3,0.7-0.4c0.2-0.1,0.3-0.2,0.4-0.2c0.1,0,0.1,0,0.2,0.1S138.7,33.6,138.7,33.6z"/>
	<path class="st3" d="M148.1,32.8c0,0,0,0.1,0,0.2c0,0.1-0.1,0.3-0.2,0.5c0,0.1-0.2,0.2-0.3,0.4c-0.2,0.2-0.4,0.4-0.7,0.5
		c-0.3,0.2-0.7,0.4-1.1,0.5c-0.4,0.2-0.9,0.3-1.5,0.3c-0.4,0-0.8,0-1.2-0.2c-0.4-0.2-0.8-0.4-1.1-0.7c-0.3-0.3-0.6-0.8-0.9-1.3
		c-0.2-0.5-0.4-1.2-0.5-1.9c-0.1-0.7,0-1.4,0.1-2c0.1-0.6,0.3-1.2,0.5-1.7c0.2-0.5,0.5-0.9,0.8-1.2c0.3-0.3,0.6-0.5,1-0.5
		c0.3,0,0.6,0,0.9,0.1c0.3,0.1,0.6,0.2,0.8,0.4c0.3,0.2,0.5,0.3,0.6,0.6c0.2,0.2,0.3,0.4,0.3,0.7c0,0.3-0.1,0.6-0.3,0.9
		c-0.2,0.3-0.5,0.6-0.8,0.9c-0.3,0.3-0.6,0.5-1,0.7c-0.3,0.2-0.6,0.3-0.8,0.3c-0.1,0-0.2,0-0.3-0.1c-0.1-0.1-0.1-0.2-0.2-0.4
		c0-0.2,0.1-0.5,0.3-0.6c0.2-0.2,0.4-0.3,0.7-0.5c0.3-0.1,0.5-0.3,0.7-0.5c0.2-0.2,0.3-0.4,0.3-0.7c0,0-0.1-0.1-0.2-0.3
		c-0.1-0.1-0.3-0.2-0.7-0.2c-0.2,0-0.4,0.1-0.6,0.4c-0.2,0.2-0.4,0.5-0.6,0.9c-0.2,0.4-0.3,0.8-0.4,1.3c-0.1,0.5-0.1,1-0.1,1.6
		c0,0.5,0.2,0.9,0.4,1.2c0.2,0.4,0.5,0.7,0.7,0.9c0.3,0.2,0.6,0.4,1,0.5c0.4,0.1,0.7,0.2,1.1,0.1c0.3,0,0.6-0.1,0.9-0.3
		c0.3-0.1,0.6-0.3,0.9-0.5c0.3-0.2,0.5-0.3,0.7-0.4c0.2-0.1,0.3-0.2,0.4-0.2c0.1,0,0.1,0,0.2,0.1C148,32.7,148.1,32.8,148.1,32.8z"
		/>
	<path class="st3" d="M165.7,28.3c0,0.4,0,0.8-0.1,1.1c-0.1,0.4-0.2,0.7-0.3,1c-0.2,0.3-0.3,0.5-0.6,0.7c-0.2,0.2-0.5,0.3-0.8,0.3
		c-0.5,0-0.9-0.1-1.2-0.3c-0.3-0.3-0.6-0.6-0.7-0.9c-0.2-0.4-0.3-0.7-0.4-1.1c-0.1-0.4-0.1-0.7-0.1-0.9c0-0.3,0-0.7,0.1-1.1
		c0.1-0.4,0.2-0.8,0.3-1.2c0.1-0.4,0.3-0.7,0.5-0.9c0.2-0.3,0.4-0.4,0.6-0.4c0.1,0,0.1,0,0.3,0s0.2,0.1,0.4,0.1
		c0.1,0.1,0.3,0.1,0.4,0.2c0.1,0.1,0.2,0.2,0.2,0.4c0.2,0,0.4,0.1,0.6,0.2c0.2,0.1,0.3,0.2,0.3,0.3c0.2,0.5,0.3,0.9,0.4,1.4
		C165.6,27.6,165.7,28,165.7,28.3z M164.5,27.9c0-0.3-0.1-0.5-0.2-0.8c-0.1-0.3-0.2-0.6-0.4-0.9c0,0-0.1,0-0.1,0c-0.1,0-0.1,0-0.2,0
		c0,0-0.1,0-0.1,0c-0.2,0-0.4,0.1-0.5,0.2c-0.1,0.1-0.2,0.3-0.2,0.5c0,0.2-0.1,0.4-0.1,0.6c0,0.2,0,0.4,0,0.6c0,0.2,0,0.4,0.1,0.7
		c0,0.2,0.1,0.5,0.2,0.7s0.2,0.4,0.3,0.5c0.1,0.1,0.3,0.2,0.5,0.2c0.2,0,0.3-0.1,0.4-0.3c0.1-0.2,0.2-0.4,0.2-0.7s0.1-0.5,0.1-0.8
		C164.5,28.2,164.5,28,164.5,27.9z"/>
	<path class="st3" d="M177.4,28.6c0,0.2-0.1,0.3-0.3,0.5c-0.2,0.2-0.4,0.4-0.7,0.6c-0.3,0.2-0.6,0.3-0.8,0.5
		c-0.3,0.1-0.5,0.2-0.6,0.2c-0.2,0-0.3,0-0.5-0.1c-0.2-0.1-0.4-0.2-0.6-0.3c-0.2-0.1-0.3-0.2-0.5-0.3c-0.1-0.1-0.2-0.2-0.3-0.2
		c0,0.1-0.1,0.2-0.2,0.3c-0.1,0.2-0.2,0.4-0.3,0.6c-0.1,0.2-0.3,0.4-0.4,0.5c-0.2,0.2-0.3,0.2-0.5,0.3c-0.5,0-0.9-0.2-1.3-0.6
		c-0.4-0.5-0.7-1-1-1.6c-0.3-0.6-0.5-1.2-0.7-1.8c-0.2-0.6-0.3-1-0.3-1.2c0-0.1,0-0.2,0.2-0.3c0.1-0.1,0.2-0.1,0.3-0.1
		c0.3,0,0.4,0,0.5,0.2s0.2,0.3,0.2,0.5c0,0.2,0.1,0.4,0.2,0.8c0.1,0.4,0.3,0.8,0.5,1.2c0.2,0.4,0.4,0.8,0.6,1.1
		c0.2,0.3,0.3,0.5,0.5,0.5c0.2,0,0.4-0.2,0.6-0.5c0.1-0.3,0.3-0.7,0.3-1.1c0.1-0.4,0.1-0.8,0.1-1.1c0-0.4,0-0.6,0-0.7
		c0,0,0-0.1,0-0.2c0-0.1,0-0.2,0-0.3c0-0.1,0-0.2,0-0.3c0-0.1,0-0.2,0-0.2c0-0.1,0-0.2-0.1-0.2c-0.1,0-0.1-0.1-0.1-0.3
		c0-0.1,0-0.2,0.1-0.3s0.3-0.2,0.7-0.2c0.1,0,0.3,0,0.3,0.1c0.1,0.1,0.2,0.2,0.2,0.3c0,0.1,0.1,0.2,0.1,0.3c0,0.1,0,0.2,0,0.2
		c0,0,0,0.1,0,0.4c0,0.2,0,0.5,0,0.8c0,0.3,0,0.5,0,0.8s0,0.4,0,0.5c0,0.1,0,0.2,0.1,0.3c0.1,0.2,0.1,0.3,0.2,0.5
		c0.1,0.2,0.2,0.3,0.3,0.4c0.1,0.1,0.2,0.2,0.4,0.2c0.2,0,0.4-0.1,0.6-0.1c0.2-0.1,0.4-0.2,0.5-0.3c0.2-0.1,0.3-0.2,0.5-0.3
		c0.1-0.1,0.3-0.1,0.4-0.1c0.2,0,0.3,0,0.5,0.1S177.4,28.5,177.4,28.6z"/>
	<path class="st3" d="M184.5,24.2c0,0.1,0,0.2-0.1,0.3c-0.1,0.1-0.2,0.2-0.4,0.2c-0.1,0.1-0.3,0.1-0.4,0.2c-0.1,0-0.3,0.1-0.3,0.1
		c-0.3,0-0.4,0-0.5,0c-0.1,0-0.2,0-0.2,0c-0.4,0-0.8,0.1-1.1,0.2c-0.3,0.1-0.5,0.2-0.6,0.4c-0.1,0.2-0.2,0.4-0.2,0.6s0,0.5,0,0.9
		c0.1,0.6,0.1,1,0.2,1.4s0.1,0.6,0.2,0.8c0.1,0.2,0.1,0.4,0.2,0.5c0.1,0.1,0.1,0.2,0.1,0.3c0,0.1-0.1,0.3-0.2,0.5
		c-0.1,0.2-0.3,0.3-0.4,0.3c-0.2,0-0.4-0.2-0.6-0.5c-0.2-0.4-0.4-0.8-0.6-1.3c-0.2-0.5-0.3-1-0.4-1.5c-0.1-0.5-0.2-0.9-0.2-1.2
		c0-0.3,0-0.6,0-0.9c0-0.3,0.1-0.5,0.2-0.7c0.1-0.2,0.2-0.4,0.3-0.5c0.1-0.1,0.2-0.2,0.3-0.2c0.1,0,0.2,0,0.2,0.1
		c0.1,0.1,0.1,0.1,0.2,0.2c0,0.1,0.1,0.1,0.1,0.2c0,0.1,0.1,0.1,0.2,0.1c0.2,0,0.4-0.1,0.8-0.3c0.3-0.2,0.8-0.3,1.3-0.4
		c0.5,0,0.8-0.1,1.1-0.1c0.2,0,0.5,0,0.7,0.1c0.1,0,0.1,0,0.2,0.1C184.4,24,184.5,24.1,184.5,24.2z"/>
</g>
<g class="st2">
	<path class="st3" d="M112.6,56.2c0,0.3-0.1,0.7-0.3,1.2c-0.3,0.5-0.6,1-1.1,1.5c-0.5,0.5-1,0.9-1.6,1.3c-0.6,0.4-1.3,0.6-2,0.7
		c-0.3,0-0.7,0-1-0.1c-0.4-0.1-0.7-0.2-1.1-0.4s-0.7-0.4-1-0.7c-0.3-0.3-0.5-0.6-0.7-1c-0.1,0.1-0.2,0.3-0.3,0.6
		c-0.1,0.3-0.3,0.5-0.4,0.8c-0.2,0.3-0.3,0.5-0.5,0.7c-0.2,0.2-0.4,0.3-0.6,0.3c-0.2,0-0.4-0.1-0.6-0.3c-0.2-0.2-0.3-0.5-0.4-0.8
		c-0.1-0.3-0.2-0.6-0.3-0.8c-0.1-0.3-0.1-0.4-0.1-0.5c0-0.2,0-0.6,0.1-1.2c0.1-0.6,0.2-1.3,0.4-1.9c0.2-0.7,0.5-1.3,0.8-1.8
		c0.3-0.5,0.8-0.8,1.3-0.9c0.2,0,0.3,0.1,0.4,0.2c0.1,0.2,0.1,0.3,0.1,0.5l0.1,0.8c0.1,0.1,0.2,0.1,0.3,0.1c0.1,0,0.2,0,0.3,0.1
		c0.1,0,0.2,0.1,0.2,0.2c0.1,0.1,0.1,0.2,0.1,0.4c0,0.1,0,0.2,0,0.3c0,0.1,0,0.2,0,0.3c0,0.5,0.1,0.9,0.2,1.4
		c0.1,0.4,0.3,0.8,0.5,1.2c0.2,0.3,0.6,0.6,1,0.8c0.4,0.2,0.9,0.3,1.5,0.2c0.8-0.1,1.4-0.3,2-0.7c0.5-0.4,0.9-0.8,1.3-1.2
		c0.3-0.4,0.6-0.8,0.8-1.2c0.2-0.4,0.3-0.5,0.5-0.5C112.4,55.9,112.6,56,112.6,56.2z M103.1,55.9c0-0.1,0-0.1-0.1-0.2
		c0-0.1-0.1-0.1-0.1-0.2c0-0.1,0-0.1,0-0.2c0-0.1,0-0.1,0-0.2c0-0.1,0-0.1-0.1-0.1c0,0-0.1-0.1-0.1-0.1c-0.2,0.1-0.3,0.2-0.5,0.5
		c-0.1,0.3-0.3,0.6-0.4,1c-0.1,0.4-0.2,0.7-0.3,1.1c-0.1,0.4-0.1,0.7-0.1,0.9c0,0.1,0.1,0.3,0.2,0.6c0.1,0.3,0.2,0.5,0.3,0.5
		c0.2-0.7,0.5-1.3,0.7-1.9C103,57,103.1,56.4,103.1,55.9z"/>
	<path class="st3" d="M121.4,53.2c0,0.5-0.1,0.9-0.3,1.4c-0.2,0.5-0.5,0.9-0.9,1.3c-0.3,0.4-0.7,0.8-1.1,1.1
		c-0.4,0.4-0.8,0.7-1.2,0.9c-0.3,0.3-0.6,0.5-0.8,0.7c-0.2,0.2-0.3,0.3-0.3,0.4c0,0.2,0.1,0.6,0.2,1c0.1,0.4,0.2,0.9,0.3,1.4
		c0.1,0.5,0.2,1,0.4,1.5c0.1,0.5,0.2,1,0.3,1.4c0,0,0,0.1,0.1,0.2c0,0.1,0.1,0.3,0.1,0.5c0.1,0.2,0.1,0.3,0.2,0.5
		c0,0.1,0.1,0.2,0.1,0.3c0,0.1,0,0.3,0,0.4c0,0.2,0,0.3,0,0.4c0,0.1-0.1,0.3-0.2,0.4c-0.1,0.1-0.2,0.2-0.3,0.2
		c-0.2,0-0.3-0.1-0.5-0.2c-0.1-0.2-0.2-0.3-0.2-0.5c0,0,0-0.1,0-0.1s0-0.1,0-0.1c0-0.2-0.1-0.7-0.4-1.6c-0.2-0.8-0.5-1.9-0.8-3
		c-0.3-1.2-0.6-2.4-0.8-3.8c-0.3-1.4-0.4-2.6-0.6-3.9c0-0.1,0-0.2,0-0.3c0-0.1,0-0.2,0-0.3c-0.2,0-0.4,0.1-0.8,0.3
		c-0.3,0.2-0.7,0.4-1,0.6c-0.3,0.2-0.6,0.5-0.8,0.7c-0.2,0.2-0.4,0.5-0.3,0.6l-0.2,0c-0.1,0-0.1,0-0.2-0.1c-0.1-0.1-0.2-0.1-0.2-0.2
		c-0.1-0.1-0.1-0.2-0.2-0.3c-0.1-0.1-0.1-0.1-0.1-0.2c0-0.4,0.2-0.8,0.6-1.1c0.4-0.4,1-0.7,1.6-1c0.6-0.3,1.4-0.6,2.2-0.8
		c0.8-0.2,1.5-0.4,2.3-0.4c0.7-0.1,1.3,0,1.8,0.1c0.5,0.1,0.9,0.3,1.2,0.5c0.3,0.2,0.5,0.4,0.7,0.6
		C121.3,52.9,121.3,53.1,121.4,53.2z M120,53.3c0-0.2-0.3-0.3-0.7-0.5c-0.5-0.1-1-0.2-1.6-0.1c-0.5,0-0.9,0.1-1.2,0.2
		s-0.4,0.1-0.5,0.2c0,0.3,0,0.6,0,1c0,0.4,0,0.8,0.1,1.2c0,0.4,0.1,0.8,0.1,1.2c0.1,0.4,0.1,0.7,0.2,1c0.2-0.2,0.6-0.4,1-0.8
		c0.4-0.3,0.8-0.7,1.2-1.1c0.4-0.4,0.7-0.8,1-1.2C119.9,54,120.1,53.6,120,53.3z"/>
	<path class="st3" d="M131.5,52.4c0,0.5,0,0.9-0.3,1.4c-0.2,0.5-0.5,0.9-0.8,1.3c-0.3,0.4-0.7,0.8-1.1,1.1c-0.4,0.4-0.8,0.7-1.2,0.9
		c-0.3,0.3-0.6,0.5-0.8,0.7s-0.3,0.3-0.3,0.4c0,0.2,0.1,0.6,0.2,1c0.1,0.4,0.2,0.9,0.3,1.4c0.1,0.5,0.2,1,0.4,1.5
		c0.1,0.5,0.2,1,0.3,1.4c0,0,0,0.1,0.1,0.2c0,0.1,0.1,0.3,0.1,0.5c0.1,0.2,0.1,0.3,0.2,0.5c0,0.1,0.1,0.2,0.1,0.3c0,0.1,0,0.3,0,0.4
		c0,0.2,0,0.3,0,0.4c0,0.1-0.1,0.3-0.2,0.4s-0.2,0.2-0.3,0.2c-0.2,0-0.3-0.1-0.5-0.2c-0.1-0.2-0.2-0.3-0.2-0.5c0,0,0-0.1,0-0.1
		s0-0.1,0-0.1c0-0.2-0.1-0.7-0.4-1.6c-0.2-0.8-0.5-1.9-0.8-3c-0.3-1.2-0.6-2.4-0.8-3.8c-0.3-1.4-0.4-2.6-0.6-3.9c0-0.1,0-0.2,0-0.3
		c0-0.1,0-0.2,0-0.3c-0.2,0-0.4,0.1-0.8,0.3c-0.3,0.2-0.7,0.4-1,0.6c-0.3,0.2-0.6,0.5-0.8,0.7c-0.2,0.2-0.4,0.5-0.3,0.6l-0.2,0
		c-0.1,0-0.1,0-0.2-0.1c-0.1-0.1-0.2-0.1-0.2-0.2s-0.1-0.2-0.2-0.3C121,54.1,121,54,121,54c0-0.4,0.2-0.8,0.6-1.1
		c0.4-0.4,1-0.7,1.6-1c0.6-0.3,1.4-0.6,2.2-0.8c0.8-0.2,1.5-0.4,2.3-0.4c0.7-0.1,1.3,0,1.8,0.1c0.5,0.1,0.9,0.3,1.2,0.5
		c0.3,0.2,0.5,0.4,0.7,0.6C131.4,52,131.5,52.2,131.5,52.4z M130.2,52.4c0-0.2-0.3-0.3-0.7-0.5c-0.5-0.1-1-0.2-1.6-0.1
		c-0.5,0-0.9,0.1-1.2,0.2s-0.4,0.1-0.5,0.2c0,0.3,0,0.6,0,1c0,0.4,0,0.8,0.1,1.2c0,0.4,0.1,0.8,0.2,1.2c0.1,0.4,0.1,0.7,0.2,1
		c0.2-0.2,0.6-0.4,1-0.8c0.4-0.3,0.8-0.7,1.2-1.1c0.4-0.4,0.7-0.8,1-1.2C130.1,53.1,130.2,52.8,130.2,52.4z"/>
	<path class="st3" d="M139.3,51.2c0,0.1,0,0.2-0.1,0.3c-0.1,0.1-0.2,0.2-0.4,0.2c-0.1,0.1-0.3,0.1-0.4,0.2s-0.3,0.1-0.3,0.1
		c-0.3,0-0.4,0-0.5,0c-0.1,0-0.2,0-0.2,0c-0.4,0-0.8,0.1-1.1,0.2c-0.3,0.1-0.5,0.2-0.6,0.4c-0.1,0.2-0.2,0.4-0.2,0.6s0,0.5,0,0.9
		c0.1,0.6,0.1,1,0.2,1.4c0.1,0.3,0.1,0.6,0.2,0.8c0.1,0.2,0.1,0.4,0.2,0.5c0.1,0.1,0.1,0.2,0.1,0.3c0,0.1-0.1,0.3-0.2,0.5
		c-0.1,0.2-0.3,0.3-0.4,0.3c-0.2,0-0.4-0.2-0.6-0.5c-0.2-0.4-0.4-0.8-0.6-1.3c-0.2-0.5-0.3-1-0.4-1.5c-0.1-0.5-0.2-0.9-0.2-1.2
		c0-0.3,0-0.6,0-0.9c0-0.3,0.1-0.5,0.2-0.7c0.1-0.2,0.2-0.4,0.3-0.5c0.1-0.1,0.2-0.2,0.3-0.2c0.1,0,0.2,0,0.2,0.1
		c0.1,0.1,0.1,0.1,0.2,0.2c0,0.1,0.1,0.1,0.1,0.2c0,0.1,0.1,0.1,0.2,0.1c0.2,0,0.4-0.1,0.8-0.3c0.3-0.2,0.8-0.3,1.3-0.4
		c0.5,0,0.8-0.1,1.1-0.1c0.2,0,0.5,0,0.7,0.1c0.1,0,0.1,0,0.2,0.1C139.3,51,139.3,51.1,139.3,51.2z"/>
	<path class="st3" d="M146.5,53c0,0.4,0,0.8-0.1,1.1c-0.1,0.4-0.2,0.7-0.3,1c-0.2,0.3-0.3,0.5-0.6,0.7c-0.2,0.2-0.5,0.3-0.8,0.3
		c-0.5,0-0.9-0.1-1.2-0.3c-0.3-0.3-0.6-0.6-0.7-0.9c-0.2-0.4-0.3-0.7-0.4-1.1c-0.1-0.4-0.1-0.7-0.1-0.9c0-0.3,0-0.7,0.1-1.1
		c0.1-0.4,0.2-0.8,0.3-1.2c0.1-0.4,0.3-0.7,0.5-0.9c0.2-0.3,0.4-0.4,0.6-0.4c0.1,0,0.1,0,0.3,0c0.1,0,0.2,0.1,0.4,0.1
		c0.1,0.1,0.3,0.1,0.4,0.2c0.1,0.1,0.2,0.2,0.2,0.4c0.2,0,0.4,0.1,0.6,0.2c0.2,0.1,0.3,0.2,0.3,0.3c0.2,0.5,0.3,0.9,0.4,1.4
		C146.4,52.3,146.5,52.7,146.5,53z M145.2,52.7c0-0.3-0.1-0.5-0.2-0.8c-0.1-0.3-0.2-0.6-0.4-0.9c0,0-0.1,0-0.1,0c-0.1,0-0.1,0-0.2,0
		c0,0-0.1,0-0.1,0c-0.2,0-0.4,0.1-0.5,0.2c-0.1,0.1-0.2,0.3-0.2,0.5c0,0.2-0.1,0.4-0.1,0.6c0,0.2,0,0.4,0,0.6c0,0.2,0,0.4,0.1,0.7
		c0,0.2,0.1,0.5,0.2,0.7c0.1,0.2,0.2,0.4,0.3,0.5c0.1,0.1,0.3,0.2,0.5,0.2c0.2,0,0.3-0.1,0.4-0.3c0.1-0.2,0.2-0.4,0.2-0.7
		s0.1-0.5,0.1-0.8C145.3,52.9,145.2,52.8,145.2,52.7z"/>
	<path class="st3" d="M162,51.9c0,0.3-0.1,0.7-0.3,1.2c-0.3,0.5-0.6,1-1.1,1.5c-0.5,0.5-1,0.9-1.6,1.3c-0.6,0.4-1.3,0.6-2,0.7
		c-0.3,0-0.7,0-1-0.1c-0.4-0.1-0.7-0.2-1.1-0.4s-0.7-0.4-1-0.7c-0.3-0.3-0.5-0.6-0.7-1c-0.1,0.1-0.2,0.3-0.3,0.6
		c-0.1,0.3-0.3,0.5-0.4,0.8c-0.2,0.3-0.3,0.5-0.5,0.7c-0.2,0.2-0.4,0.3-0.6,0.3c-0.2,0-0.4-0.1-0.6-0.3c-0.2-0.2-0.3-0.5-0.4-0.8
		c-0.1-0.3-0.2-0.6-0.3-0.8c-0.1-0.3-0.1-0.4-0.1-0.5c0-0.2,0-0.6,0.1-1.2c0.1-0.6,0.2-1.3,0.4-1.9c0.2-0.7,0.5-1.3,0.8-1.8
		c0.3-0.5,0.8-0.8,1.3-0.9c0.2,0,0.3,0.1,0.4,0.2c0.1,0.2,0.1,0.3,0.1,0.5l0.1,0.8c0.1,0.1,0.2,0.1,0.3,0.1c0.1,0,0.2,0,0.3,0.1
		c0.1,0,0.2,0.1,0.2,0.2c0.1,0.1,0.1,0.2,0.1,0.4c0,0.1,0,0.2,0,0.3c0,0.1,0,0.2,0,0.3c0,0.5,0.1,0.9,0.2,1.4
		c0.1,0.4,0.3,0.8,0.5,1.2c0.2,0.3,0.6,0.6,1,0.8c0.4,0.2,0.9,0.3,1.5,0.2c0.8-0.1,1.4-0.3,2-0.7c0.5-0.4,0.9-0.8,1.3-1.2
		s0.6-0.8,0.8-1.2c0.2-0.3,0.3-0.5,0.5-0.5C161.9,51.5,162,51.7,162,51.9z M152.5,51.5c0-0.1,0-0.1-0.1-0.2c0-0.1-0.1-0.1-0.1-0.2
		c0-0.1,0-0.1,0-0.2c0-0.1,0-0.1,0-0.2c0-0.1,0-0.1-0.1-0.1c0,0-0.1-0.1-0.1-0.1c-0.2,0.1-0.3,0.2-0.5,0.5c-0.1,0.3-0.3,0.6-0.4,1
		c-0.1,0.4-0.2,0.7-0.3,1.1c-0.1,0.4-0.1,0.7-0.1,0.9c0,0.1,0.1,0.3,0.2,0.6c0.1,0.3,0.2,0.5,0.3,0.5c0.2-0.7,0.5-1.3,0.7-1.9
		C152.4,52.7,152.5,52.1,152.5,51.5z"/>
	<path class="st3" d="M170.1,51.9c0,0.2,0,0.4,0,0.6c0,0.2-0.1,0.4-0.1,0.5c0,0.1-0.2,0.3-0.5,0.6c-0.3,0.3-0.6,0.7-1,1.1
		c-0.4,0.4-0.9,0.7-1.4,1.1c-0.5,0.3-1,0.5-1.5,0.6c-0.3,0-0.6,0-0.9-0.1s-0.6-0.2-0.9-0.4c-0.3-0.2-0.5-0.5-0.7-0.8
		c-0.2-0.3-0.3-0.8-0.4-1.3c-0.1-0.9,0-1.7,0.2-2.4c0.2-0.7,0.5-1.3,0.7-1.7c0.1-0.2,0.3-0.4,0.4-0.6c0.2-0.2,0.4-0.4,0.6-0.6
		c0.2-0.2,0.4-0.3,0.5-0.5c0.2-0.1,0.3-0.2,0.3-0.2c0.2,0,0.3,0,0.5,0.1c0.1,0.1,0.2,0.2,0.2,0.3c0,0.1,0,0.3-0.1,0.4
		c-0.1,0.1-0.2,0.2-0.3,0.4c-0.1,0.1-0.3,0.3-0.5,0.5c-0.2,0.2-0.4,0.5-0.6,0.8c-0.4,0.6-0.6,1.3-0.8,1.9c-0.2,0.6-0.2,1.2-0.2,1.7
		c0,0.5,0.2,0.8,0.6,1.1c0.4,0.2,0.7,0.4,1.1,0.3c0.7-0.1,1.3-0.3,1.8-0.6c0.5-0.4,0.9-0.7,1.3-1.1c0.3-0.4,0.6-0.8,0.8-1.1
		c0.2-0.3,0.4-0.5,0.5-0.5C170,51.4,170.1,51.6,170.1,51.9z"/>
	<path class="st3" d="M180.9,50.9C181,50.9,181,51,181,51c0,0,0,0.1-0.1,0.3c-0.1,0.2-0.2,0.4-0.3,0.6c-0.1,0.2-0.3,0.4-0.5,0.6
		s-0.4,0.3-0.5,0.3c-0.4,0-0.7,0-0.9-0.1c-0.2-0.1-0.5-0.3-0.6-0.5c-0.2-0.2-0.3-0.5-0.4-0.7c-0.1-0.3-0.2-0.5-0.3-0.8
		c0-0.1-0.1-0.2-0.1-0.2c-0.1,0-0.1,0.2-0.3,0.6c-0.1,0.4-0.3,0.8-0.4,1.3s-0.3,0.9-0.4,1.3c-0.1,0.4-0.2,0.6-0.3,0.6
		c-0.3,0-0.6-0.1-0.9-0.3c-0.2-0.3-0.5-0.6-0.6-0.9c-0.2-0.4-0.3-0.7-0.4-1.1c-0.1-0.4-0.2-0.7-0.2-0.9c-0.1-0.5-0.3-1.3-0.6-2.4
		c-0.3-1.1-0.6-2.5-0.8-4.1c-0.1-0.3-0.1-0.6-0.2-0.9c-0.1-0.3-0.1-0.6-0.2-0.9c-0.1-0.3-0.2-0.7-0.2-1.1c-0.1-0.4-0.1-1-0.2-1.6
		c0,0,0-0.2,0-0.4c0-0.2,0-0.4,0-0.7c0-0.2,0.1-0.4,0.1-0.6c0.1-0.2,0.2-0.3,0.3-0.3c0.1,0,0.2,0.1,0.4,0.2c0.1,0.1,0.2,0.3,0.3,0.5
		c0.1,0.2,0.2,0.4,0.2,0.5c0.1,0.2,0.1,0.3,0.1,0.4c0,0.3,0,0.5,0,0.8c0,0.2,0,0.5,0,0.6c0,0.3,0.1,0.6,0.2,1
		c0.1,0.4,0.2,0.8,0.3,1.2c0.1,0.4,0.2,0.8,0.3,1.2c0.1,0.4,0.2,0.7,0.2,1c0,0,0,0.1,0.1,0.4c0.1,0.2,0.1,0.5,0.2,0.9
		c0.1,0.3,0.2,0.7,0.2,1.1c0.1,0.4,0.2,0.8,0.3,1.2c0.1,0.4,0.2,0.7,0.2,1c0.1,0.3,0.1,0.5,0.1,0.6c0,0.1,0,0.1,0.1,0.2
		c0,0.1,0.1,0.2,0.1,0.3c0,0.1,0.1,0.2,0.1,0.3c0,0.1,0.1,0.2,0.2,0.2c0.1-0.2,0.2-0.6,0.3-1c0.1-0.5,0.3-0.9,0.4-1.4
		c0.1-0.5,0.3-0.9,0.4-1.3c0.1-0.4,0.3-0.6,0.4-0.6c0.1,0,0.3,0,0.4,0c0.1,0,0.2,0.1,0.4,0.1c0.2,0.1,0.3,0.1,0.3,0.3
		c0,0.1,0,0.3,0.1,0.4c0.1,0.2,0.1,0.5,0.2,0.8c0.1,0.3,0.2,0.7,0.4,1c0.1,0.3,0.3,0.6,0.5,0.8s0.3,0.3,0.5,0.3
		c0.1,0,0.2-0.1,0.3-0.3c0.1-0.2,0.3-0.3,0.5-0.4c0,0,0.1,0,0.2,0.1C180.7,50.7,180.8,50.8,180.9,50.9z"/>
	<path class="st3" d="M200.2,41.9c-0.2,0.3-0.5,0.6-0.9,0.9c-0.4,0.3-0.8,0.6-1.2,0.8c-0.4,0.3-0.8,0.5-1.1,0.7s-0.5,0.3-0.5,0.4
		c0,0.1,0.1,0.2,0.2,0.5c0.1,0.3,0.2,0.6,0.3,0.9c0.1,0.4,0.3,0.7,0.4,1.1c0.1,0.4,0.3,0.7,0.4,1c0.1,0.2,0.1,0.4,0.2,0.7
		c0.1,0.3,0.2,0.6,0.2,0.8c0.1,0.3,0.1,0.5,0.2,0.8c0.1,0.2,0.1,0.3,0.1,0.4c0,0.3,0,0.6-0.1,0.8c-0.1,0.3-0.2,0.5-0.4,0.5
		c-0.1,0-0.2,0-0.3-0.1c-0.1-0.1-0.2-0.2-0.3-0.3c-0.1-0.1-0.1-0.2-0.2-0.3c0-0.1-0.1-0.2-0.1-0.2c0,0,0-0.1,0-0.2
		c0-0.1,0-0.2,0-0.2c0-0.3-0.1-0.8-0.3-1.5c-0.1-0.2-0.2-0.5-0.3-0.9c-0.1-0.4-0.3-0.8-0.4-1.2c-0.2-0.5-0.4-1-0.6-1.6
		c-0.1-0.2-0.2-0.4-0.2-0.4c-0.1,0-0.3,0.1-0.6,0.3c-0.3,0.2-0.6,0.4-1,0.7c-0.4,0.3-0.7,0.5-1.1,0.8s-0.8,0.6-1.1,0.8
		c-0.3,0.3-0.6,0.5-0.9,0.6c-0.2,0.2-0.4,0.3-0.5,0.3c-0.2,0-0.4,0-0.6-0.2c-0.2-0.1-0.2-0.3-0.3-0.5c0-0.1,0.1-0.3,0.4-0.5
		c0.3-0.2,0.6-0.5,1-0.8c0.4-0.3,0.9-0.6,1.4-0.9c0.5-0.3,0.9-0.6,1.4-0.9c0.4-0.3,0.9-0.5,1.5-0.9c-0.2-0.8-0.4-1.5-0.6-2.2
		c-0.1-0.5-0.3-1.1-0.4-1.5c-0.1-0.5-0.2-0.7-0.2-0.7c0-0.2,0-0.4,0.1-0.5c0.1-0.1,0.2-0.2,0.3-0.2c0.2,0,0.3,0.1,0.4,0.4
		c0.3,1,0.5,1.8,0.8,2.5c0.2,0.7,0.5,1.3,0.7,1.8c0.2,0,0.4-0.2,0.8-0.4c0.4-0.2,0.8-0.4,1.2-0.7c0.4-0.2,0.8-0.4,1.1-0.6
		c0.3-0.2,0.5-0.3,0.6-0.3c0.1,0,0.2,0,0.2,0.1C200.2,41.8,200.2,41.9,200.2,41.9z"/>
	<path class="st3" d="M207.1,47.7c0,0.4,0,0.8-0.1,1.1c-0.1,0.4-0.2,0.7-0.3,1c-0.2,0.3-0.3,0.5-0.6,0.7c-0.2,0.2-0.5,0.3-0.8,0.3
		c-0.5,0-0.9-0.1-1.2-0.3c-0.3-0.3-0.6-0.6-0.7-0.9c-0.2-0.4-0.3-0.7-0.4-1.1c-0.1-0.4-0.1-0.7-0.1-0.9c0-0.3,0-0.7,0.1-1.1
		c0.1-0.4,0.2-0.8,0.3-1.2c0.1-0.4,0.3-0.7,0.5-0.9c0.2-0.3,0.4-0.4,0.6-0.4c0.1,0,0.1,0,0.3,0c0.1,0,0.2,0.1,0.4,0.1
		c0.1,0.1,0.3,0.1,0.4,0.2c0.1,0.1,0.2,0.2,0.2,0.4c0.2,0,0.4,0.1,0.6,0.2c0.2,0.1,0.3,0.2,0.3,0.3c0.2,0.5,0.3,0.9,0.4,1.4
		C207,47,207,47.4,207.1,47.7z M205.8,47.4c0-0.3-0.1-0.5-0.2-0.8c-0.1-0.3-0.2-0.6-0.4-0.9c0,0-0.1,0-0.1,0c-0.1,0-0.1,0-0.2,0
		c0,0-0.1,0-0.1,0c-0.2,0-0.4,0.1-0.5,0.2c-0.1,0.1-0.2,0.3-0.2,0.5c0,0.2-0.1,0.4-0.1,0.6c0,0.2,0,0.4,0,0.6c0,0.2,0,0.4,0.1,0.7
		s0.1,0.5,0.2,0.7c0.1,0.2,0.2,0.4,0.3,0.5c0.1,0.1,0.3,0.2,0.5,0.2c0.2,0,0.3-0.1,0.4-0.3c0.1-0.2,0.2-0.4,0.2-0.7
		c0-0.3,0.1-0.5,0.1-0.8C205.8,47.6,205.8,47.5,205.8,47.4z"/>
</g>
<g class="st2">
	<path class="st3" d="M106.5,73.2c-0.2,0.3-0.5,0.6-0.9,0.9c-0.4,0.3-0.8,0.6-1.2,0.8c-0.4,0.3-0.8,0.5-1.1,0.7s-0.5,0.3-0.5,0.4
		c0,0.1,0.1,0.2,0.2,0.5c0.1,0.3,0.2,0.6,0.3,0.9c0.1,0.4,0.3,0.7,0.4,1.1c0.1,0.4,0.3,0.7,0.4,1c0.1,0.2,0.1,0.4,0.2,0.7
		c0.1,0.3,0.2,0.6,0.2,0.8c0.1,0.3,0.1,0.5,0.2,0.8c0.1,0.2,0.1,0.3,0.1,0.4c0,0.3,0,0.6-0.1,0.8c-0.1,0.3-0.2,0.5-0.4,0.5
		c-0.1,0-0.2,0-0.3-0.1c-0.1-0.1-0.2-0.2-0.3-0.3c-0.1-0.1-0.1-0.2-0.2-0.3c0-0.1-0.1-0.2-0.1-0.2c0,0,0-0.1,0-0.2
		c0-0.1,0-0.2,0-0.2c0-0.3-0.1-0.8-0.3-1.5c-0.1-0.2-0.2-0.5-0.3-0.9c-0.1-0.4-0.3-0.8-0.4-1.2c-0.2-0.5-0.4-1-0.6-1.6
		c-0.1-0.2-0.2-0.4-0.2-0.4c-0.1,0-0.3,0.1-0.6,0.3c-0.3,0.2-0.6,0.4-1,0.7c-0.4,0.3-0.7,0.5-1.1,0.8s-0.8,0.6-1.1,0.8
		c-0.3,0.3-0.6,0.5-0.9,0.6c-0.2,0.2-0.4,0.3-0.5,0.3c-0.2,0-0.4,0-0.6-0.2c-0.2-0.1-0.2-0.3-0.3-0.5c0-0.1,0.1-0.3,0.4-0.5
		c0.3-0.2,0.6-0.5,1-0.8c0.4-0.3,0.9-0.6,1.4-0.9c0.5-0.3,0.9-0.6,1.4-0.9c0.4-0.3,0.9-0.5,1.5-0.9c-0.2-0.8-0.4-1.5-0.6-2.2
		c-0.1-0.5-0.3-1.1-0.4-1.5c-0.1-0.5-0.2-0.7-0.2-0.7c0-0.2,0-0.4,0.1-0.5c0.1-0.1,0.2-0.2,0.3-0.2c0.2,0,0.3,0.1,0.4,0.4
		c0.3,1,0.5,1.8,0.8,2.5c0.2,0.7,0.5,1.3,0.7,1.8c0.2,0,0.4-0.2,0.8-0.4c0.4-0.2,0.8-0.4,1.2-0.7c0.4-0.2,0.8-0.4,1.1-0.6
		c0.3-0.2,0.5-0.3,0.6-0.3c0.1,0,0.2,0,0.2,0.1C106.4,73.1,106.4,73.2,106.5,73.2z"/>
	<path class="st3" d="M117.2,79.5c0.1,0.1,0.1,0.1,0.1,0.1c0,0,0,0.1-0.1,0.3c-0.1,0.2-0.2,0.4-0.3,0.6c-0.1,0.2-0.3,0.4-0.5,0.6
		c-0.2,0.2-0.4,0.3-0.5,0.3c-0.4,0-0.7,0-0.9-0.1c-0.2-0.1-0.5-0.3-0.6-0.5c-0.2-0.2-0.3-0.5-0.4-0.7c-0.1-0.3-0.2-0.5-0.3-0.8
		c0-0.1-0.1-0.2-0.1-0.2c-0.1,0-0.1,0.2-0.3,0.6c-0.1,0.4-0.3,0.8-0.4,1.3c-0.1,0.5-0.3,0.9-0.4,1.3c-0.1,0.4-0.2,0.6-0.3,0.6
		c-0.3,0-0.6-0.1-0.9-0.3c-0.2-0.3-0.5-0.6-0.6-0.9c-0.2-0.4-0.3-0.7-0.4-1.1c-0.1-0.4-0.2-0.7-0.2-0.9c-0.1-0.5-0.3-1.3-0.6-2.4
		c-0.3-1.1-0.6-2.5-0.8-4.1c-0.1-0.3-0.1-0.6-0.2-0.9c-0.1-0.3-0.1-0.6-0.2-0.9c-0.1-0.3-0.2-0.7-0.2-1.1c-0.1-0.4-0.1-1-0.2-1.6
		c0,0,0-0.2,0-0.4c0-0.2,0-0.4,0-0.7c0-0.2,0.1-0.4,0.1-0.6c0.1-0.2,0.2-0.3,0.3-0.3c0.1,0,0.2,0.1,0.4,0.2c0.1,0.1,0.2,0.3,0.3,0.5
		c0.1,0.2,0.2,0.4,0.2,0.6c0.1,0.2,0.1,0.3,0.1,0.4c0,0.3,0,0.5,0,0.8c0,0.2,0,0.5,0,0.6c0,0.3,0.1,0.6,0.2,1
		c0.1,0.4,0.2,0.8,0.3,1.2c0.1,0.4,0.2,0.8,0.3,1.2c0.1,0.4,0.2,0.7,0.2,1c0,0,0,0.1,0.1,0.4c0.1,0.2,0.1,0.5,0.2,0.9
		c0.1,0.3,0.2,0.7,0.2,1.1c0.1,0.4,0.2,0.8,0.3,1.2c0.1,0.4,0.2,0.7,0.2,1c0.1,0.3,0.1,0.5,0.1,0.6c0,0.1,0,0.1,0.1,0.2
		c0,0.1,0.1,0.2,0.1,0.3c0,0.1,0.1,0.2,0.1,0.3c0,0.1,0.1,0.2,0.2,0.2c0.1-0.2,0.2-0.6,0.3-1c0.1-0.5,0.3-0.9,0.4-1.4
		c0.1-0.5,0.3-0.9,0.4-1.3c0.1-0.4,0.3-0.6,0.4-0.6c0.1,0,0.3,0,0.4,0c0.1,0,0.2,0.1,0.4,0.1c0.2,0.1,0.3,0.1,0.3,0.3
		c0,0.1,0,0.3,0.1,0.4c0.1,0.2,0.1,0.5,0.2,0.8c0.1,0.3,0.2,0.7,0.4,1c0.1,0.3,0.3,0.6,0.5,0.8c0.2,0.2,0.3,0.3,0.5,0.3
		c0.1,0,0.2-0.1,0.3-0.3c0.1-0.2,0.3-0.3,0.5-0.4c0,0,0.1,0,0.2,0.1C117,79.4,117.1,79.5,117.2,79.5z"/>
	<path class="st3" d="M126.6,80.9c0,0,0,0.1,0,0.2c0,0.1-0.1,0.3-0.2,0.5c0,0.1-0.2,0.2-0.3,0.4c-0.2,0.2-0.4,0.4-0.7,0.5
		c-0.3,0.2-0.7,0.4-1.1,0.5c-0.4,0.2-0.9,0.3-1.5,0.3c-0.4,0-0.8,0-1.2-0.2c-0.4-0.2-0.8-0.4-1.1-0.7c-0.3-0.3-0.6-0.8-0.9-1.3
		c-0.2-0.5-0.4-1.2-0.5-1.9c-0.1-0.7,0-1.4,0.1-2c0.1-0.6,0.3-1.2,0.5-1.7c0.2-0.5,0.5-0.9,0.8-1.2c0.3-0.3,0.6-0.5,1-0.5
		c0.3,0,0.6,0,0.9,0.1c0.3,0.1,0.6,0.2,0.8,0.4c0.3,0.2,0.5,0.3,0.6,0.6c0.2,0.2,0.3,0.4,0.3,0.7c0,0.3-0.1,0.6-0.3,0.9
		c-0.2,0.3-0.5,0.6-0.8,0.9c-0.3,0.3-0.6,0.5-1,0.7c-0.3,0.2-0.6,0.3-0.8,0.3c-0.1,0-0.2,0-0.3-0.1c-0.1-0.1-0.1-0.2-0.2-0.4
		c0-0.2,0.1-0.5,0.3-0.6c0.2-0.2,0.4-0.3,0.7-0.5c0.3-0.1,0.5-0.3,0.7-0.5c0.2-0.2,0.3-0.4,0.3-0.7c0,0-0.1-0.1-0.2-0.3
		c-0.1-0.1-0.4-0.2-0.7-0.2c-0.2,0-0.4,0.1-0.6,0.4c-0.2,0.2-0.4,0.5-0.6,0.9c-0.2,0.4-0.3,0.8-0.4,1.3c-0.1,0.5-0.1,1-0.1,1.6
		c0,0.5,0.2,0.9,0.4,1.2c0.2,0.4,0.5,0.7,0.7,0.9c0.3,0.2,0.6,0.4,1,0.5c0.4,0.1,0.7,0.2,1.1,0.1c0.3,0,0.6-0.1,0.9-0.3
		c0.3-0.1,0.6-0.3,0.9-0.5c0.3-0.2,0.5-0.3,0.7-0.4c0.2-0.1,0.3-0.2,0.4-0.2c0.1,0,0.1,0,0.2,0.1S126.5,80.8,126.6,80.9z"/>
	<path class="st3" d="M147.2,77c0,0.2,0,0.4,0,0.6c0,0.2-0.1,0.4-0.1,0.5c0,0.1-0.2,0.3-0.5,0.6c-0.3,0.3-0.6,0.7-1,1.1
		c-0.4,0.4-0.9,0.7-1.4,1.1c-0.5,0.3-1,0.5-1.5,0.6c-0.3,0-0.6,0-0.9-0.1s-0.6-0.2-0.9-0.4c-0.3-0.2-0.5-0.5-0.7-0.8
		c-0.2-0.3-0.3-0.8-0.4-1.3c-0.1-0.9,0-1.7,0.2-2.4c0.2-0.7,0.5-1.3,0.7-1.7c0.1-0.2,0.3-0.4,0.4-0.6c0.2-0.2,0.4-0.4,0.6-0.6
		c0.2-0.2,0.4-0.3,0.5-0.5c0.2-0.1,0.3-0.2,0.3-0.2c0.2,0,0.3,0,0.5,0.1c0.1,0.1,0.2,0.2,0.2,0.3c0,0.1,0,0.3-0.1,0.4
		c-0.1,0.1-0.2,0.2-0.3,0.4c-0.1,0.1-0.3,0.3-0.5,0.5c-0.2,0.2-0.4,0.5-0.6,0.8c-0.4,0.6-0.6,1.3-0.8,1.9c-0.2,0.6-0.2,1.2-0.2,1.7
		c0,0.5,0.2,0.8,0.6,1.1c0.4,0.2,0.7,0.4,1.1,0.3c0.7-0.1,1.3-0.3,1.8-0.6c0.5-0.4,0.9-0.7,1.3-1.1c0.3-0.4,0.6-0.8,0.8-1.1
		c0.2-0.3,0.4-0.5,0.5-0.5C147,76.5,147.1,76.7,147.2,77z"/>
	<path class="st3" d="M162,75c0,0.3-0.1,0.7-0.3,1.2c-0.3,0.5-0.6,1-1.1,1.5c-0.5,0.5-1,0.9-1.6,1.3c-0.6,0.4-1.3,0.6-2,0.7
		c-0.3,0-0.7,0-1-0.1c-0.4-0.1-0.7-0.2-1.1-0.4c-0.4-0.2-0.7-0.4-1-0.7c-0.3-0.3-0.5-0.6-0.7-1c-0.1,0.1-0.2,0.3-0.3,0.6
		s-0.3,0.5-0.4,0.8c-0.2,0.3-0.3,0.5-0.5,0.7c-0.2,0.2-0.4,0.3-0.6,0.3s-0.4-0.1-0.6-0.3c-0.2-0.2-0.3-0.5-0.4-0.8
		c-0.1-0.3-0.2-0.6-0.3-0.8c-0.1-0.3-0.1-0.4-0.1-0.5c0-0.2,0-0.6,0.1-1.2c0.1-0.6,0.2-1.3,0.4-1.9c0.2-0.7,0.5-1.3,0.8-1.8
		c0.3-0.5,0.8-0.8,1.3-0.9c0.2,0,0.3,0.1,0.4,0.2c0.1,0.2,0.1,0.3,0.1,0.5l0.1,0.8c0.1,0.1,0.2,0.1,0.3,0.1c0.1,0,0.2,0,0.3,0.1
		c0.1,0,0.2,0.1,0.2,0.2c0.1,0.1,0.1,0.2,0.1,0.4c0,0.1,0,0.2,0,0.3c0,0.1,0,0.2,0,0.3c0,0.5,0.1,0.9,0.2,1.4
		c0.1,0.4,0.3,0.8,0.5,1.2c0.2,0.3,0.6,0.6,1,0.8c0.4,0.2,0.9,0.3,1.5,0.2c0.8-0.1,1.4-0.3,2-0.7c0.5-0.4,0.9-0.8,1.3-1.2
		c0.3-0.4,0.6-0.8,0.8-1.2c0.2-0.4,0.3-0.5,0.5-0.5C161.9,74.6,162,74.7,162,75z M152.5,74.6c0-0.1,0-0.1-0.1-0.2
		c0-0.1-0.1-0.1-0.1-0.2c0-0.1,0-0.1,0-0.2c0-0.1,0-0.1,0-0.2c0-0.1,0-0.1-0.1-0.1c0,0-0.1-0.1-0.1-0.1c-0.2,0.1-0.3,0.2-0.5,0.5
		c-0.1,0.3-0.3,0.6-0.4,1c-0.1,0.4-0.2,0.7-0.3,1.1s-0.1,0.7-0.1,0.9c0,0.1,0.1,0.3,0.2,0.6c0.1,0.3,0.2,0.5,0.3,0.5
		c0.2-0.7,0.5-1.3,0.7-1.9C152.5,75.8,152.5,75.2,152.5,74.6z"/>
	<path class="st3" d="M170.8,72c0,0.5-0.1,0.9-0.3,1.4c-0.2,0.5-0.5,0.9-0.9,1.3c-0.3,0.4-0.7,0.8-1.1,1.1c-0.4,0.4-0.8,0.7-1.2,0.9
		c-0.3,0.3-0.6,0.5-0.8,0.7c-0.2,0.2-0.3,0.3-0.3,0.4c0,0.2,0.1,0.6,0.2,1c0.1,0.4,0.2,0.9,0.3,1.4c0.1,0.5,0.2,1,0.4,1.5
		c0.1,0.5,0.2,1,0.3,1.4c0,0,0,0.1,0.1,0.2c0,0.1,0.1,0.3,0.1,0.5c0.1,0.2,0.1,0.3,0.2,0.5c0,0.1,0.1,0.2,0.1,0.3c0,0.1,0,0.3,0,0.4
		c0,0.2,0,0.3,0,0.4c0,0.1-0.1,0.3-0.2,0.4s-0.2,0.2-0.3,0.2c-0.2,0-0.3-0.1-0.5-0.2c-0.1-0.2-0.2-0.3-0.2-0.5c0,0,0-0.1,0-0.1
		c0,0,0-0.1,0-0.1c0-0.2-0.1-0.7-0.4-1.6c-0.2-0.8-0.5-1.9-0.8-3s-0.6-2.4-0.8-3.8c-0.3-1.4-0.4-2.6-0.6-3.9c0-0.1,0-0.2,0-0.3
		c0-0.1,0-0.2,0-0.3c-0.2,0-0.4,0.1-0.8,0.3s-0.7,0.4-1,0.6c-0.3,0.2-0.6,0.5-0.8,0.7c-0.2,0.2-0.4,0.5-0.3,0.6l-0.2,0
		c-0.1,0-0.1,0-0.2-0.1c-0.1-0.1-0.2-0.1-0.2-0.2c-0.1-0.1-0.1-0.2-0.2-0.3c-0.1-0.1-0.1-0.1-0.1-0.2c0-0.4,0.2-0.8,0.6-1.1
		c0.4-0.4,1-0.7,1.6-1c0.6-0.3,1.4-0.6,2.2-0.8c0.8-0.2,1.5-0.4,2.3-0.4c0.7-0.1,1.3,0,1.8,0.1c0.5,0.1,0.9,0.3,1.2,0.5
		c0.3,0.2,0.5,0.4,0.7,0.6C170.7,71.7,170.8,71.9,170.8,72z M169.5,72c0-0.2-0.3-0.3-0.7-0.5c-0.5-0.1-1-0.2-1.6-0.1
		c-0.5,0-0.9,0.1-1.2,0.2s-0.4,0.1-0.5,0.2c0,0.3,0,0.6,0,1c0,0.4,0,0.8,0.1,1.2c0,0.4,0.1,0.8,0.1,1.2c0.1,0.4,0.1,0.7,0.2,1
		c0.2-0.2,0.6-0.4,1-0.8c0.4-0.3,0.8-0.7,1.2-1.1c0.4-0.4,0.7-0.8,1-1.2C169.4,72.8,169.5,72.4,169.5,72z"/>
	<path class="st3" d="M179.1,66.9c-0.2,0.3-0.5,0.6-0.9,0.9c-0.4,0.3-0.8,0.6-1.2,0.8c-0.4,0.3-0.8,0.5-1.1,0.7s-0.5,0.3-0.5,0.4
		c0,0.1,0.1,0.2,0.2,0.5c0.1,0.3,0.2,0.6,0.3,0.9c0.1,0.4,0.3,0.7,0.4,1.1c0.1,0.4,0.3,0.7,0.4,1c0.1,0.2,0.1,0.4,0.2,0.7
		c0.1,0.3,0.2,0.6,0.2,0.8c0.1,0.3,0.1,0.5,0.2,0.8c0.1,0.2,0.1,0.3,0.1,0.4c0,0.3,0,0.6-0.1,0.8c-0.1,0.3-0.2,0.5-0.4,0.5
		c-0.1,0-0.2,0-0.3-0.1c-0.1-0.1-0.2-0.2-0.3-0.3c-0.1-0.1-0.1-0.2-0.2-0.3c0-0.1-0.1-0.2-0.1-0.2c0,0,0-0.1,0-0.2
		c0-0.1,0-0.2,0-0.2c0-0.3-0.1-0.8-0.3-1.5c-0.1-0.2-0.2-0.5-0.3-0.9c-0.1-0.4-0.3-0.8-0.4-1.2c-0.2-0.5-0.4-1-0.6-1.6
		c-0.1-0.2-0.1-0.4-0.2-0.4c-0.1,0-0.3,0.1-0.6,0.3c-0.3,0.2-0.6,0.4-1,0.7c-0.4,0.3-0.7,0.5-1.1,0.8s-0.8,0.6-1.1,0.8
		c-0.3,0.3-0.6,0.5-0.9,0.6c-0.2,0.2-0.4,0.3-0.5,0.3c-0.2,0-0.4,0-0.6-0.2c-0.2-0.1-0.2-0.3-0.3-0.5c0-0.1,0.1-0.3,0.4-0.5
		c0.3-0.2,0.6-0.5,1-0.8c0.4-0.3,0.9-0.6,1.4-0.9c0.5-0.3,0.9-0.6,1.4-0.9c0.4-0.3,0.9-0.5,1.5-0.9c-0.2-0.8-0.4-1.5-0.6-2.2
		c-0.1-0.5-0.3-1.1-0.4-1.5c-0.1-0.5-0.2-0.7-0.2-0.7c0-0.2,0-0.4,0.1-0.5c0.1-0.1,0.2-0.2,0.3-0.2c0.2,0,0.3,0.1,0.4,0.4
		c0.3,1,0.5,1.8,0.8,2.5c0.2,0.7,0.5,1.3,0.7,1.8c0.2,0,0.4-0.2,0.8-0.4c0.4-0.2,0.8-0.4,1.2-0.7c0.4-0.2,0.8-0.4,1.1-0.6
		c0.3-0.2,0.5-0.3,0.6-0.3c0.1,0,0.2,0,0.2,0.1C179,66.8,179,66.8,179.1,66.9z"/>
	<path class="st3" d="M190,73.7c0,0.2-0.1,0.3-0.3,0.5c-0.2,0.2-0.4,0.4-0.7,0.6c-0.3,0.2-0.6,0.3-0.8,0.5c-0.3,0.1-0.5,0.2-0.6,0.2
		c-0.2,0-0.3,0-0.5-0.1c-0.2-0.1-0.4-0.2-0.6-0.3c-0.2-0.1-0.3-0.2-0.5-0.3c-0.1-0.1-0.2-0.2-0.3-0.2c0,0.1-0.1,0.2-0.2,0.3
		c-0.1,0.2-0.2,0.4-0.3,0.6c-0.1,0.2-0.3,0.4-0.4,0.5c-0.2,0.2-0.3,0.2-0.5,0.3c-0.5,0-0.9-0.2-1.3-0.6c-0.4-0.5-0.7-1-1-1.6
		c-0.3-0.6-0.5-1.2-0.7-1.8c-0.2-0.6-0.3-1-0.3-1.2c0-0.1,0-0.2,0.2-0.3c0.1-0.1,0.2-0.1,0.3-0.1c0.3,0,0.4,0,0.5,0.2
		c0.1,0.2,0.2,0.3,0.2,0.5c0,0.2,0.1,0.4,0.2,0.8c0.1,0.4,0.3,0.8,0.5,1.2c0.2,0.4,0.4,0.8,0.6,1.1c0.2,0.3,0.3,0.5,0.5,0.5
		c0.2,0,0.4-0.2,0.6-0.5c0.1-0.3,0.3-0.7,0.3-1.1c0.1-0.4,0.1-0.8,0.1-1.1c0-0.4,0-0.6,0-0.7c0,0,0-0.1,0-0.2c0-0.1,0-0.2,0-0.3
		c0-0.1,0-0.2,0-0.3c0-0.1,0-0.2,0-0.2c0-0.1,0-0.2-0.1-0.2c-0.1,0-0.1-0.1-0.1-0.3c0-0.1,0-0.2,0.1-0.3c0.1-0.1,0.3-0.2,0.7-0.2
		c0.1,0,0.3,0,0.3,0.1c0.1,0.1,0.2,0.2,0.2,0.3c0,0.1,0.1,0.2,0.1,0.3c0,0.1,0,0.2,0,0.2c0,0,0,0.1,0,0.4c0,0.2,0,0.5,0,0.8
		c0,0.3,0,0.5,0,0.8c0,0.3,0,0.4,0,0.5s0,0.2,0.1,0.3c0.1,0.2,0.1,0.3,0.2,0.5c0.1,0.2,0.2,0.3,0.3,0.4c0.1,0.1,0.2,0.2,0.4,0.2
		c0.2,0,0.4-0.1,0.6-0.1c0.2-0.1,0.4-0.2,0.5-0.3c0.2-0.1,0.3-0.2,0.5-0.3c0.1-0.1,0.3-0.1,0.4-0.1c0.2,0,0.3,0,0.5,0.1
		S190,73.6,190,73.7z"/>
	<path class="st3" d="M197.1,69.3c0,0.1,0,0.2-0.1,0.3s-0.2,0.2-0.4,0.2c-0.1,0.1-0.3,0.1-0.4,0.2c-0.1,0-0.3,0.1-0.3,0.1
		c-0.3,0-0.5,0-0.5,0c-0.1,0-0.2,0-0.2,0c-0.4,0-0.8,0.1-1.1,0.2c-0.3,0.1-0.5,0.2-0.6,0.4c-0.1,0.2-0.2,0.4-0.2,0.6
		c0,0.2,0,0.5,0,0.9c0.1,0.6,0.1,1,0.2,1.4s0.1,0.6,0.2,0.8s0.1,0.4,0.2,0.5c0.1,0.1,0.1,0.2,0.1,0.3c0,0.1-0.1,0.3-0.2,0.5
		c-0.1,0.2-0.3,0.3-0.4,0.3c-0.2,0-0.4-0.2-0.6-0.5c-0.2-0.4-0.4-0.8-0.6-1.3c-0.2-0.5-0.3-1-0.4-1.5s-0.2-0.9-0.2-1.2
		c0-0.3,0-0.6,0-0.9c0-0.3,0.1-0.5,0.2-0.7c0.1-0.2,0.2-0.4,0.3-0.5c0.1-0.1,0.2-0.2,0.3-0.2c0.1,0,0.2,0,0.2,0.1
		c0.1,0.1,0.1,0.1,0.2,0.2c0,0.1,0.1,0.1,0.1,0.2c0,0.1,0.1,0.1,0.2,0.1c0.2,0,0.4-0.1,0.8-0.3c0.3-0.2,0.8-0.3,1.3-0.4
		c0.5,0,0.8-0.1,1.1-0.1c0.2,0,0.5,0,0.7,0.1c0.1,0,0.1,0,0.2,0.1C197.1,69.1,197.1,69.2,197.1,69.3z"/>
	<path class="st3" d="M207.2,73.8c0,0,0,0.1,0,0.2c0,0.1-0.1,0.3-0.2,0.5c0,0.1-0.2,0.2-0.3,0.4c-0.2,0.2-0.4,0.4-0.7,0.5
		c-0.3,0.2-0.7,0.4-1.1,0.5c-0.4,0.2-0.9,0.3-1.5,0.3c-0.4,0-0.8,0-1.2-0.2c-0.4-0.2-0.8-0.4-1.1-0.7c-0.3-0.3-0.6-0.8-0.9-1.3
		c-0.2-0.5-0.4-1.2-0.5-1.9c-0.1-0.7,0-1.4,0.1-2s0.3-1.2,0.5-1.7c0.2-0.5,0.5-0.9,0.8-1.2c0.3-0.3,0.6-0.5,1-0.5
		c0.3,0,0.6,0,0.9,0.1c0.3,0.1,0.6,0.2,0.8,0.4c0.3,0.2,0.5,0.3,0.6,0.6c0.2,0.2,0.3,0.4,0.3,0.7c0,0.3-0.1,0.6-0.3,0.9
		c-0.2,0.3-0.5,0.6-0.8,0.9c-0.3,0.3-0.6,0.5-1,0.7c-0.3,0.2-0.6,0.3-0.8,0.3c-0.1,0-0.2,0-0.3-0.1c-0.1-0.1-0.1-0.2-0.2-0.4
		c0-0.2,0.1-0.5,0.3-0.6c0.2-0.2,0.4-0.3,0.7-0.5c0.3-0.1,0.5-0.3,0.7-0.5c0.2-0.2,0.3-0.4,0.3-0.7c0,0-0.1-0.1-0.2-0.3
		c-0.1-0.1-0.4-0.2-0.7-0.2c-0.2,0-0.4,0.1-0.6,0.4s-0.4,0.5-0.6,0.9c-0.2,0.4-0.3,0.8-0.4,1.3c-0.1,0.5-0.1,1-0.1,1.6
		c0,0.5,0.2,0.9,0.4,1.2c0.2,0.4,0.5,0.7,0.7,0.9c0.3,0.2,0.6,0.4,1,0.5c0.4,0.1,0.7,0.2,1.1,0.1c0.3,0,0.6-0.1,0.9-0.3
		c0.3-0.1,0.6-0.3,0.9-0.5c0.3-0.2,0.5-0.3,0.7-0.4c0.2-0.1,0.3-0.2,0.4-0.2c0.1,0,0.1,0,0.2,0.1S207.2,73.8,207.2,73.8z"/>
	<path class="st3" d="M211.8,75.4c0,0.2,0,0.5-0.2,0.9c-0.1,0.4-0.3,0.8-0.5,1.2c-0.2,0.4-0.4,0.7-0.7,1.1s-0.5,0.5-0.8,0.5
		c-0.1,0-0.3,0-0.4-0.1c-0.1-0.1-0.2-0.2-0.2-0.2c0,0,0.1-0.1,0.2-0.4c0.2-0.2,0.3-0.5,0.5-0.8c0.2-0.3,0.4-0.6,0.5-1
		c0.1-0.4,0.2-0.7,0.2-1c0-0.3-0.1-0.6-0.2-0.8c-0.1-0.2-0.2-0.3-0.3-0.4c-0.1-0.1-0.2-0.2-0.3-0.3c-0.1-0.1-0.1-0.2-0.2-0.4
		c0-0.3,0.1-0.4,0.4-0.4s0.5,0,0.8,0.2c0.2,0.2,0.4,0.4,0.6,0.6c0.2,0.2,0.3,0.5,0.4,0.8C211.7,75,211.8,75.2,211.8,75.4z"/>
</g>
<g class="st2">
	<path class="st3" d="M113.8,105.4c0,0.1,0,0.3-0.1,0.4c-0.1,0.1-0.2,0.2-0.3,0.3c-0.1,0.1-0.2,0.1-0.4,0.2c-0.1,0-0.2,0.1-0.3,0.1
		c-0.4,0-0.7-0.1-1-0.5c-0.3-0.4-0.6-0.8-0.8-1.3c-0.2-0.5-0.4-0.9-0.5-1.4c-0.1-0.4-0.2-0.7-0.2-0.7c-0.1,0.2-0.2,0.5-0.2,1
		c-0.1,0.5-0.2,1-0.3,1.4c-0.1,0.5-0.3,0.9-0.5,1.3c-0.2,0.4-0.5,0.6-0.9,0.6c-0.2,0-0.4-0.1-0.5-0.3c-0.2-0.2-0.4-0.5-0.5-0.8
		c-0.2-0.3-0.3-0.7-0.5-1.1s-0.3-0.8-0.5-1.2s-0.3-0.8-0.5-1.1c-0.2-0.4-0.3-0.6-0.5-0.8c-0.1,0.3-0.1,0.7-0.2,1.1
		c0,0.5-0.1,1-0.1,1.5c0,0.5,0,1,0,1.5c0,0.5,0,0.9,0.1,1.3c0,0.3,0,0.4-0.2,0.6s-0.3,0.2-0.4,0.2c-0.2,0-0.4-0.1-0.6-0.3
		c-0.2-0.2-0.4-0.6-0.7-1c-0.2-0.4-0.5-0.8-0.7-1.4c-0.2-0.5-0.4-1-0.6-1.5c-0.2-0.5-0.3-1-0.4-1.5c-0.1-0.5-0.2-0.9-0.2-1.2
		c0-0.2,0-0.5,0-0.6c0-0.2,0-0.3,0-0.5c0-0.1,0-0.2,0-0.2c0-0.1,0-0.1,0-0.1c0,0,0-0.1-0.1-0.1c0-0.1,0.1-0.1,0.2-0.3
		c0.1-0.1,0.3-0.2,0.4-0.2c0.3,0,0.4,0,0.5,0.1c0.1,0.1,0.1,0.2,0.2,0.4c0,0.1,0,0.1,0,0.2c0,0.1,0,0.4,0,0.7c0,0.3,0.1,0.6,0.2,1.1
		s0.3,1,0.5,1.5c0.2,0.5,0.3,1,0.5,1.4c0.2,0.4,0.3,0.7,0.4,0.8c0-0.1,0-0.2,0-0.3c0-0.1,0-0.2,0-0.2l0.1-2.2c0-0.6,0.1-1.2,0.3-1.8
		c0.2-0.6,0.4-1.1,0.6-1.5c0.1-0.2,0.2-0.2,0.3-0.2c0.1,0,0.2,0.1,0.3,0.2c0.3,0.5,0.6,1,0.8,1.4c0.2,0.5,0.4,1,0.5,1.4
		c0.2,0.5,0.3,0.9,0.5,1.4c0.2,0.5,0.5,0.9,0.8,1.4c0.1-0.2,0.3-0.6,0.4-1.2c0.2-0.5,0.3-1.1,0.5-1.7c0.2-0.6,0.3-1,0.5-1.5
		c0.2-0.4,0.3-0.6,0.4-0.6c0.1,0,0.1,0,0.3,0c0.1,0,0.2,0,0.3,0c0.2,0,0.3,0.2,0.5,0.5c0.1,0.4,0.3,0.8,0.4,1.3
		c0.1,0.5,0.2,1,0.4,1.5c0.1,0.5,0.3,0.9,0.4,1.1c0.1,0.2,0.2,0.3,0.4,0.5c0.2,0.1,0.3,0.3,0.5,0.4
		C113.5,105.1,113.7,105.2,113.8,105.4z"/>
	<path class="st3" d="M128.5,101c0,0.3-0.1,0.7-0.3,1.2c-0.3,0.5-0.6,1-1.1,1.5c-0.5,0.5-1,0.9-1.6,1.3c-0.6,0.4-1.3,0.6-2,0.7
		c-0.3,0-0.7,0-1-0.1c-0.4-0.1-0.7-0.2-1.1-0.4s-0.7-0.4-1-0.7c-0.3-0.3-0.5-0.6-0.7-1c-0.1,0.1-0.2,0.3-0.3,0.6
		c-0.1,0.3-0.3,0.5-0.4,0.8c-0.2,0.3-0.3,0.5-0.5,0.7c-0.2,0.2-0.4,0.3-0.6,0.3c-0.2,0-0.4-0.1-0.6-0.3c-0.2-0.2-0.3-0.5-0.4-0.8
		c-0.1-0.3-0.2-0.6-0.3-0.8c-0.1-0.3-0.1-0.4-0.1-0.5c0-0.2,0-0.6,0.1-1.2c0.1-0.6,0.2-1.3,0.4-1.9c0.2-0.7,0.5-1.3,0.8-1.8
		c0.3-0.5,0.8-0.8,1.3-0.9c0.2,0,0.3,0.1,0.4,0.2c0.1,0.2,0.1,0.3,0.1,0.5l0.1,0.8c0.1,0.1,0.2,0.1,0.3,0.1c0.1,0,0.2,0,0.3,0.1
		c0.1,0,0.2,0.1,0.2,0.2c0.1,0.1,0.1,0.2,0.1,0.4c0,0.1,0,0.2,0,0.3c0,0.1,0,0.2,0,0.3c0,0.5,0.1,0.9,0.2,1.4
		c0.1,0.4,0.3,0.8,0.5,1.2c0.2,0.3,0.6,0.6,1,0.8c0.4,0.2,0.9,0.3,1.5,0.2c0.8-0.1,1.4-0.3,2-0.7c0.5-0.4,0.9-0.8,1.3-1.2
		s0.6-0.8,0.8-1.2c0.2-0.3,0.4-0.5,0.5-0.5C128.4,100.7,128.5,100.8,128.5,101z M119,100.6c0-0.1,0-0.1-0.1-0.2
		c0-0.1-0.1-0.1-0.1-0.2c0-0.1,0-0.1,0-0.2c0-0.1,0-0.1,0-0.2c0-0.1,0-0.1-0.1-0.1c0,0-0.1-0.1-0.1-0.1c-0.2,0.1-0.3,0.2-0.5,0.5
		c-0.1,0.3-0.3,0.6-0.4,1c-0.1,0.4-0.2,0.7-0.3,1.1c-0.1,0.4-0.1,0.7-0.1,0.9c0,0.1,0.1,0.3,0.2,0.6c0.1,0.3,0.2,0.5,0.3,0.5
		c0.2-0.7,0.5-1.3,0.7-1.9C118.9,101.8,119,101.2,119,100.6z"/>
	<path class="st3" d="M137.1,102.5c0,0.1,0,0.2-0.1,0.3c-0.1,0.1-0.1,0.2-0.2,0.3c-0.1,0.1-0.2,0.2-0.3,0.3
		c-0.1,0.1-0.2,0.1-0.3,0.1c-0.3,0-0.7,0-1.2-0.1c-0.5-0.1-0.9-0.3-1.2-0.5c-0.3-0.3-0.6-0.6-0.9-1s-0.6-1-0.9-1.8
		c-0.1,0.8-0.3,1.6-0.5,2.4c-0.2,0.8-0.5,1.5-1.1,2.2c0,0-0.1,0.1-0.2,0.1c-0.1,0-0.3,0-0.4-0.2c-0.2-0.1-0.2-0.2-0.2-0.4
		c0-0.1,0-0.4-0.1-0.9s-0.1-1-0.2-1.5c-0.1-0.6-0.2-1.1-0.2-1.7c-0.1-0.6-0.1-1.1-0.2-1.4c0-0.2,0-0.4,0-0.7c0-0.3,0-0.6,0.1-0.8
		c0,0,0.1-0.1,0.2-0.2s0.2-0.2,0.4-0.2c0.1,0,0.2,0.1,0.2,0.2c0,0.2,0.1,0.3,0.1,0.5l0.4,4.2c0,0.1,0,0.2,0.1,0.4
		c0,0.2,0.1,0.3,0.2,0.3c0.2-0.4,0.3-1,0.4-1.6c0.1-0.6,0.2-1.2,0.4-1.7c0.1-0.5,0.2-1,0.4-1.4c0.1-0.4,0.3-0.6,0.4-0.6
		c0.2,0,0.3,0,0.4,0.1c0.1,0.1,0.2,0.2,0.3,0.4c0.1,0.5,0.2,1,0.3,1.4c0.1,0.4,0.2,0.8,0.3,1.1c0.1,0.3,0.3,0.6,0.4,0.9
		c0.2,0.3,0.4,0.5,0.7,0.7c0.3,0.2,0.6,0.4,0.9,0.4c0.3,0.1,0.6,0.1,0.8,0.1c0.1,0,0.2,0,0.3-0.1c0.1-0.1,0.2-0.1,0.3-0.1
		c0.1,0,0.1,0.1,0.2,0.2C137.1,102.4,137.1,102.5,137.1,102.5z"/>
	<path class="st3" d="M151.1,99c0,0.3-0.1,0.7-0.3,1.2c-0.3,0.5-0.6,1-1.1,1.5c-0.5,0.5-1,0.9-1.6,1.3c-0.6,0.4-1.3,0.6-2,0.7
		c-0.3,0-0.7,0-1-0.1c-0.4-0.1-0.7-0.2-1.1-0.4c-0.4-0.2-0.7-0.4-1-0.7c-0.3-0.3-0.5-0.6-0.7-1c-0.1,0.1-0.2,0.3-0.3,0.6
		s-0.3,0.5-0.4,0.8c-0.2,0.3-0.3,0.5-0.5,0.7c-0.2,0.2-0.4,0.3-0.6,0.3c-0.2,0-0.4-0.1-0.6-0.3c-0.2-0.2-0.3-0.5-0.4-0.8
		c-0.1-0.3-0.2-0.6-0.3-0.8c-0.1-0.3-0.1-0.4-0.1-0.5c0-0.2,0-0.6,0.1-1.2c0.1-0.6,0.2-1.3,0.4-1.9c0.2-0.7,0.5-1.3,0.8-1.8
		c0.3-0.5,0.8-0.8,1.3-0.9c0.2,0,0.3,0.1,0.4,0.2c0.1,0.2,0.1,0.3,0.1,0.5l0.1,0.8c0.1,0.1,0.2,0.1,0.3,0.1c0.1,0,0.2,0,0.3,0.1
		c0.1,0,0.2,0.1,0.2,0.2c0.1,0.1,0.1,0.2,0.1,0.4c0,0.1,0,0.2,0,0.3c0,0.1,0,0.2,0,0.3c0,0.5,0.1,0.9,0.2,1.4
		c0.1,0.4,0.3,0.8,0.5,1.2c0.2,0.3,0.6,0.6,1,0.8c0.4,0.2,0.9,0.3,1.5,0.2c0.8-0.1,1.4-0.3,2-0.7c0.5-0.4,0.9-0.8,1.3-1.2
		c0.3-0.4,0.6-0.8,0.8-1.2c0.2-0.4,0.3-0.5,0.5-0.5C150.9,98.7,151.1,98.8,151.1,99z M141.5,98.7c0-0.1,0-0.1-0.1-0.2
		c0-0.1-0.1-0.1-0.1-0.2c0-0.1,0-0.1,0-0.2c0-0.1,0-0.1,0-0.2c0-0.1,0-0.1-0.1-0.1c0,0-0.1-0.1-0.1-0.1c-0.2,0.1-0.3,0.2-0.5,0.5
		c-0.1,0.3-0.3,0.6-0.4,1c-0.1,0.4-0.2,0.7-0.3,1.1s-0.1,0.7-0.1,0.9c0,0.1,0.1,0.3,0.2,0.6c0.1,0.3,0.2,0.5,0.3,0.5
		c0.2-0.7,0.5-1.3,0.7-1.9C141.5,99.8,141.6,99.2,141.5,98.7z"/>
	<path class="st3" d="M158.3,101.6c0,0.2,0,0.3-0.2,0.4c-0.1,0.1-0.2,0.2-0.2,0.3c0,0,0,0.1,0.1,0.3c0.1,0.2,0.2,0.4,0.3,0.7
		c0.2,0.5,0.3,0.9,0.4,1.2c0.1,0.3,0.2,0.7,0.3,1c0.1,0.3,0.2,0.6,0.2,0.9c0.1,0.3,0.1,0.6,0.1,1c0,0.4,0,0.8-0.1,1.2
		c-0.1,0.4-0.2,0.8-0.4,1.1c-0.2,0.3-0.5,0.6-0.8,0.8c-0.3,0.2-0.7,0.4-1.1,0.4c-0.7,0.1-1.2,0-1.6-0.3c-0.4-0.2-0.7-0.5-1-0.8
		c-0.2-0.3-0.4-0.6-0.5-1c-0.1-0.3-0.1-0.5-0.1-0.7c-0.1-0.7,0.1-1.3,0.3-2c0.3-0.7,0.6-1.3,1-1.9s0.7-1.1,1-1.4
		c0.3-0.4,0.5-0.6,0.5-0.7l-0.4-0.9c-0.2,0.2-0.3,0.5-0.4,0.8c-0.1,0.3-0.2,0.5-0.4,0.8c-0.1,0.2-0.3,0.4-0.5,0.6s-0.4,0.3-0.7,0.3
		c-0.3,0-0.7,0-1-0.2c-0.3-0.2-0.7-0.4-0.9-0.8c-0.3-0.4-0.5-0.8-0.7-1.4c-0.2-0.5-0.3-1.2-0.4-1.9c0-0.4,0-0.9,0.1-1.6
		c0.1-0.6,0.2-1.2,0.4-1.8c0.2-0.6,0.5-1.1,0.9-1.6c0.4-0.4,0.8-0.7,1.4-0.7c0.3,0,0.6,0,0.9,0.1c0.3,0.1,0.4,0.2,0.4,0.4
		c0,0.1,0,0.3,0,0.4s-0.1,0.2-0.2,0.3c-0.1,0-0.1-0.1-0.2-0.1c-0.1,0-0.2,0-0.3,0c-0.4,0-0.7,0.2-1,0.6c-0.3,0.4-0.5,0.8-0.7,1.4
		c-0.2,0.5-0.3,1.1-0.4,1.6c-0.1,0.6-0.1,1.1,0,1.5c0.1,0.9,0.3,1.6,0.6,2c0.3,0.4,0.7,0.7,1,0.6c0.2,0,0.3-0.2,0.5-0.4
		c0.2-0.3,0.3-0.5,0.5-0.9s0.3-0.6,0.4-0.9c0.1-0.3,0.2-0.4,0.2-0.5c0-0.2,0-0.4,0-0.6c0-0.2,0-0.4-0.1-0.7c0-0.2-0.1-0.5-0.1-0.7
		c0-0.5,0-0.9,0-1.2c0-0.3,0.2-0.5,0.5-0.5c0.3,0,0.5,0,0.6,0.2c0.1,0.2,0.2,0.4,0.2,0.6c0,0.2,0,0.4,0,0.6c0,0.2,0,0.4,0,0.6
		c0,0.2,0,0.4,0,0.5c0,0.2,0,0.2,0,0.3c0,0.1,0,0.3,0.1,0.5c0,0.2,0.1,0.4,0.1,0.6c0,0.2,0.1,0.4,0.1,0.6c0,0.2,0.1,0.3,0.1,0.3
		c0,0.1,0.1,0.1,0.1,0.2c0,0.1,0.1,0.2,0.1,0.2c0,0,0-0.1,0.1-0.1c0,0,0.1-0.1,0.1-0.1c0.1,0,0.2,0.1,0.3,0.3
		C158.3,101.5,158.3,101.6,158.3,101.6z M157.7,105.1c-0.1-0.3-0.2-0.6-0.3-0.8c-0.1-0.3-0.2-0.6-0.3-0.9c-0.3,0.4-0.5,0.8-0.8,1.2
		c-0.2,0.4-0.5,0.7-0.7,1.1c-0.2,0.4-0.3,0.7-0.4,1.1c-0.1,0.4-0.1,0.8-0.1,1.2c0,0.6,0.2,1,0.6,1.3c0.3,0.3,0.7,0.5,1.1,0.4
		c0.4,0,0.8-0.2,1.1-0.6c0.3-0.3,0.5-0.8,0.4-1.4c0-0.4-0.1-0.7-0.1-0.9c0-0.3-0.1-0.5-0.1-0.7s-0.1-0.4-0.2-0.5
		C157.9,105.6,157.8,105.4,157.7,105.1z"/>
	<path class="st3" d="M168,100.3c0,0,0,0.1,0,0.2c0,0.1-0.1,0.3-0.2,0.5c0,0.1-0.2,0.2-0.3,0.4c-0.2,0.2-0.4,0.4-0.7,0.5
		c-0.3,0.2-0.7,0.4-1.1,0.5c-0.4,0.2-0.9,0.3-1.5,0.3c-0.4,0-0.8,0-1.2-0.2c-0.4-0.2-0.8-0.4-1.1-0.7c-0.3-0.3-0.6-0.8-0.9-1.3
		c-0.2-0.5-0.4-1.2-0.5-1.9c-0.1-0.7,0-1.4,0.1-2s0.3-1.2,0.5-1.7c0.2-0.5,0.5-0.9,0.8-1.2c0.3-0.3,0.6-0.5,1-0.5
		c0.3,0,0.6,0,0.9,0.1c0.3,0.1,0.6,0.2,0.8,0.4c0.3,0.2,0.5,0.3,0.6,0.6c0.2,0.2,0.3,0.4,0.3,0.7c0,0.3-0.1,0.6-0.3,0.9
		s-0.5,0.6-0.8,0.9c-0.3,0.3-0.6,0.5-1,0.7c-0.3,0.2-0.6,0.3-0.8,0.3c-0.1,0-0.2,0-0.3-0.1c-0.1-0.1-0.1-0.2-0.2-0.4
		c0-0.2,0.1-0.5,0.3-0.6c0.2-0.2,0.4-0.3,0.7-0.5c0.3-0.1,0.5-0.3,0.7-0.5c0.2-0.2,0.3-0.4,0.3-0.7c0,0-0.1-0.1-0.2-0.3
		c-0.1-0.1-0.4-0.2-0.7-0.2c-0.2,0-0.4,0.1-0.6,0.4s-0.4,0.5-0.6,0.9c-0.2,0.4-0.3,0.8-0.4,1.3c-0.1,0.5-0.1,1-0.1,1.6
		c0,0.5,0.2,0.9,0.4,1.2c0.2,0.4,0.5,0.7,0.7,0.9c0.3,0.2,0.6,0.4,1,0.5c0.4,0.1,0.7,0.2,1.1,0.1c0.3,0,0.6-0.1,0.9-0.3
		c0.3-0.1,0.6-0.3,0.9-0.5c0.3-0.2,0.5-0.3,0.7-0.4c0.2-0.1,0.3-0.2,0.4-0.2c0.1,0,0.1,0,0.2,0.1C168,100.2,168,100.3,168,100.3z"/>
	<path class="st3" d="M181.9,99.4c0,0.1,0,0.3-0.1,0.4c-0.1,0.1-0.2,0.2-0.3,0.3c-0.1,0.1-0.2,0.1-0.4,0.2c-0.1,0-0.2,0.1-0.3,0.1
		c-0.4,0-0.7-0.1-1-0.5c-0.3-0.4-0.6-0.8-0.8-1.3c-0.2-0.5-0.4-0.9-0.5-1.4c-0.1-0.4-0.2-0.7-0.2-0.7c-0.1,0.2-0.2,0.5-0.2,1
		c-0.1,0.5-0.2,1-0.3,1.4c-0.1,0.5-0.3,0.9-0.5,1.3c-0.2,0.4-0.5,0.6-0.9,0.6c-0.2,0-0.4-0.1-0.5-0.3c-0.2-0.2-0.4-0.5-0.5-0.8
		c-0.2-0.3-0.3-0.7-0.5-1.1c-0.2-0.4-0.3-0.8-0.5-1.2c-0.2-0.4-0.3-0.8-0.5-1.1c-0.2-0.4-0.3-0.6-0.5-0.8c-0.1,0.3-0.1,0.7-0.2,1.1
		c0,0.5-0.1,1-0.1,1.5c0,0.5,0,1,0,1.5c0,0.5,0,0.9,0.1,1.3c0,0.3,0,0.4-0.2,0.6c-0.1,0.1-0.3,0.2-0.4,0.2c-0.2,0-0.4-0.1-0.6-0.3
		c-0.2-0.2-0.4-0.6-0.7-1c-0.2-0.4-0.5-0.8-0.7-1.4c-0.2-0.5-0.4-1-0.6-1.5c-0.2-0.5-0.3-1-0.4-1.5c-0.1-0.5-0.2-0.9-0.2-1.2
		c0-0.2,0-0.5,0-0.6c0-0.2,0-0.3,0-0.5c0-0.1,0-0.2,0-0.2c0-0.1,0-0.1,0-0.1c0,0,0-0.1-0.1-0.1c0-0.1,0.1-0.1,0.2-0.3
		c0.1-0.1,0.3-0.2,0.4-0.2c0.3,0,0.4,0,0.5,0.1c0.1,0.1,0.1,0.2,0.2,0.4c0,0.1,0,0.1,0,0.2c0,0.1,0,0.4,0.1,0.7
		c0,0.3,0.1,0.6,0.2,1.1s0.3,1,0.5,1.5c0.2,0.5,0.3,1,0.5,1.4c0.2,0.4,0.3,0.7,0.4,0.8c0-0.1,0-0.2,0-0.3c0-0.1,0-0.2,0-0.2l0.1-2.2
		c0-0.6,0.1-1.2,0.3-1.8c0.2-0.6,0.4-1.1,0.6-1.5c0.1-0.2,0.2-0.2,0.3-0.2s0.2,0.1,0.3,0.2c0.3,0.5,0.6,1,0.8,1.4
		c0.2,0.5,0.4,1,0.5,1.4c0.2,0.5,0.3,0.9,0.5,1.4c0.2,0.5,0.5,0.9,0.8,1.4c0.1-0.2,0.3-0.6,0.4-1.2c0.2-0.5,0.3-1.1,0.5-1.7
		c0.2-0.6,0.3-1,0.5-1.5c0.2-0.4,0.3-0.6,0.4-0.6c0.1,0,0.1,0,0.3,0c0.1,0,0.2,0,0.3,0c0.2,0,0.3,0.2,0.5,0.5
		c0.1,0.4,0.3,0.8,0.4,1.3s0.2,1,0.4,1.5c0.1,0.5,0.2,0.8,0.4,1.1c0.1,0.2,0.2,0.3,0.4,0.5c0.2,0.1,0.3,0.3,0.5,0.4
		C181.5,99.1,181.7,99.3,181.9,99.4z"/>
	<path class="st3" d="M191.5,98.3c0,0,0,0.1,0,0.2c0,0.1-0.1,0.3-0.2,0.5c0,0.1-0.2,0.2-0.3,0.4c-0.2,0.2-0.4,0.4-0.7,0.5
		c-0.3,0.2-0.7,0.4-1.1,0.5c-0.4,0.2-0.9,0.3-1.5,0.3c-0.4,0-0.8,0-1.2-0.2c-0.4-0.2-0.8-0.4-1.1-0.7c-0.3-0.3-0.6-0.8-0.9-1.3
		c-0.2-0.5-0.4-1.2-0.5-1.9c-0.1-0.7,0-1.4,0.1-2c0.1-0.6,0.3-1.2,0.5-1.7c0.2-0.5,0.5-0.9,0.8-1.2c0.3-0.3,0.6-0.5,1-0.5
		c0.3,0,0.6,0,0.9,0.1c0.3,0.1,0.6,0.2,0.8,0.4c0.3,0.2,0.5,0.3,0.6,0.6c0.2,0.2,0.3,0.4,0.3,0.7c0,0.3-0.1,0.6-0.3,0.9
		c-0.2,0.3-0.5,0.6-0.8,0.9c-0.3,0.3-0.6,0.5-1,0.7c-0.3,0.2-0.6,0.3-0.8,0.3c-0.1,0-0.2,0-0.3-0.1c-0.1-0.1-0.1-0.2-0.2-0.4
		c0-0.2,0.1-0.5,0.3-0.6c0.2-0.2,0.4-0.3,0.7-0.5c0.3-0.1,0.5-0.3,0.7-0.5c0.2-0.2,0.3-0.4,0.3-0.7c0,0-0.1-0.1-0.2-0.3
		c-0.1-0.1-0.4-0.2-0.7-0.2c-0.2,0-0.4,0.1-0.6,0.4c-0.2,0.2-0.4,0.5-0.6,0.9c-0.2,0.4-0.3,0.8-0.4,1.3c-0.1,0.5-0.1,1-0.1,1.6
		c0,0.5,0.2,0.9,0.4,1.2c0.2,0.4,0.5,0.7,0.7,0.9c0.3,0.2,0.6,0.4,1,0.5c0.4,0.1,0.7,0.2,1.1,0.1c0.3,0,0.6-0.1,0.9-0.3
		c0.3-0.1,0.6-0.3,0.9-0.5c0.3-0.2,0.5-0.3,0.7-0.4c0.2-0.1,0.3-0.2,0.4-0.2c0.1,0,0.1,0,0.2,0.1S191.5,98.2,191.5,98.3z"/>
	<path class="st3" d="M201.4,96.9c0,0.1,0,0.2-0.1,0.3c-0.1,0.1-0.1,0.2-0.2,0.3c-0.1,0.1-0.2,0.2-0.3,0.3c-0.1,0.1-0.2,0.1-0.3,0.1
		c-0.3,0-0.7,0-1.2-0.1s-0.9-0.3-1.2-0.5c-0.3-0.3-0.6-0.6-0.9-1c-0.3-0.4-0.6-1-0.9-1.8c-0.1,0.8-0.3,1.6-0.5,2.4
		c-0.2,0.8-0.5,1.5-1.1,2.2c0,0-0.1,0.1-0.2,0.1c-0.1,0-0.3,0-0.4-0.2c-0.2-0.1-0.2-0.2-0.2-0.4c0-0.1,0-0.4-0.1-0.9
		c-0.1-0.5-0.1-1-0.2-1.5c-0.1-0.6-0.2-1.1-0.2-1.7c-0.1-0.6-0.1-1.1-0.2-1.4c0-0.2,0-0.4,0-0.7c0-0.3,0-0.6,0.1-0.8
		c0,0,0.1-0.1,0.2-0.2c0.1-0.1,0.2-0.2,0.4-0.2c0.1,0,0.2,0.1,0.2,0.2c0,0.2,0.1,0.3,0.1,0.5l0.4,4.2c0,0.1,0,0.2,0.1,0.4
		c0,0.2,0.1,0.3,0.2,0.3c0.2-0.4,0.3-1,0.4-1.6c0.1-0.6,0.2-1.2,0.4-1.7c0.1-0.5,0.2-1,0.4-1.4c0.1-0.4,0.3-0.6,0.4-0.6
		c0.2,0,0.3,0,0.4,0.1c0.1,0.1,0.2,0.2,0.3,0.4c0.1,0.5,0.2,1,0.3,1.4c0.1,0.4,0.2,0.8,0.3,1.1c0.1,0.3,0.3,0.6,0.4,0.9
		c0.2,0.3,0.4,0.5,0.7,0.7c0.3,0.2,0.6,0.4,0.9,0.4c0.3,0.1,0.6,0.1,0.8,0.1c0.1,0,0.2,0,0.3-0.1c0.1-0.1,0.2-0.1,0.3-0.1
		c0.1,0,0.1,0.1,0.2,0.2C201.4,96.8,201.4,96.9,201.4,96.9z"/>
	<path class="st3" d="M209.2,87.3c-0.2,0.3-0.5,0.6-0.9,0.9c-0.4,0.3-0.8,0.6-1.2,0.8c-0.4,0.3-0.8,0.5-1.1,0.7s-0.5,0.3-0.5,0.4
		c0,0.1,0.1,0.2,0.2,0.5c0.1,0.3,0.2,0.6,0.3,0.9c0.1,0.4,0.3,0.7,0.4,1.1c0.1,0.4,0.3,0.7,0.4,1c0.1,0.2,0.1,0.4,0.2,0.7
		c0.1,0.3,0.2,0.6,0.2,0.8c0.1,0.3,0.1,0.5,0.2,0.8c0.1,0.2,0.1,0.3,0.1,0.4c0,0.3,0,0.6-0.1,0.8c-0.1,0.3-0.2,0.5-0.4,0.5
		c-0.1,0-0.2,0-0.3-0.1c-0.1-0.1-0.2-0.2-0.3-0.3c-0.1-0.1-0.1-0.2-0.2-0.3c0-0.1-0.1-0.2-0.1-0.2c0,0,0-0.1,0-0.2
		c0-0.1,0-0.2,0-0.2c0-0.3-0.1-0.8-0.3-1.5c-0.1-0.2-0.2-0.5-0.3-0.9c-0.1-0.4-0.3-0.8-0.4-1.2c-0.2-0.5-0.4-1-0.6-1.6
		c-0.1-0.2-0.2-0.4-0.2-0.4c-0.1,0-0.3,0.1-0.6,0.3c-0.3,0.2-0.6,0.4-1,0.7c-0.4,0.3-0.7,0.5-1.1,0.8s-0.8,0.6-1.1,0.8
		c-0.3,0.3-0.6,0.5-0.9,0.6c-0.2,0.2-0.4,0.3-0.5,0.3c-0.2,0-0.4,0-0.6-0.2c-0.2-0.1-0.2-0.3-0.3-0.5c0-0.1,0.1-0.3,0.4-0.5
		c0.3-0.2,0.6-0.5,1-0.8c0.4-0.3,0.9-0.6,1.4-0.9c0.5-0.3,0.9-0.6,1.4-0.9c0.4-0.3,0.9-0.5,1.5-0.9c-0.2-0.8-0.4-1.5-0.6-2.2
		c-0.1-0.5-0.3-1.1-0.4-1.5c-0.1-0.5-0.2-0.7-0.2-0.7c0-0.2,0-0.4,0.1-0.5c0.1-0.1,0.2-0.2,0.3-0.2c0.2,0,0.3,0.1,0.4,0.4
		c0.3,1,0.5,1.8,0.8,2.5s0.5,1.3,0.7,1.8c0.2,0,0.4-0.2,0.8-0.4c0.4-0.2,0.8-0.4,1.2-0.7c0.4-0.2,0.8-0.4,1.1-0.6
		c0.3-0.2,0.5-0.3,0.6-0.3c0.1,0,0.2,0,0.2,0.1C209.1,87.2,209.1,87.3,209.2,87.3z"/>
	<path class="st3" d="M214.1,98.3c0,0.2,0,0.5-0.2,0.9c-0.1,0.4-0.3,0.8-0.5,1.2c-0.2,0.4-0.4,0.7-0.7,1.1c-0.3,0.3-0.5,0.5-0.8,0.5
		c-0.1,0-0.3,0-0.4-0.1c-0.1-0.1-0.2-0.2-0.2-0.2c0,0,0.1-0.1,0.2-0.4c0.2-0.2,0.3-0.5,0.5-0.8c0.2-0.3,0.4-0.6,0.5-1
		c0.1-0.4,0.2-0.7,0.2-1c0-0.3-0.1-0.6-0.2-0.8c-0.1-0.2-0.2-0.3-0.3-0.4c-0.1-0.1-0.2-0.2-0.3-0.3c-0.1-0.1-0.1-0.2-0.2-0.4
		c0-0.3,0.1-0.4,0.4-0.4c0.3,0,0.5,0,0.8,0.2c0.2,0.2,0.4,0.4,0.6,0.6c0.2,0.2,0.3,0.5,0.4,0.8C214,97.9,214.1,98.1,214.1,98.3z"/>
</g>
<g class="st2">
	<path class="st3" d="M109.4,126.5c0,0.3-0.1,0.5-0.4,0.7c-0.2,0.1-0.5,0.2-0.8,0.4c-0.3,0.2-0.7,0.4-1,0.6c-0.4,0.2-0.7,0.3-1,0.5
		c-0.3,0.1-0.6,0.2-0.8,0.2c-0.4,0-0.7,0-1-0.1c-0.3-0.1-0.4-0.3-0.4-0.5c0-0.3,0-0.6,0.1-0.8c0.1-0.2,0.2-0.4,0.3-0.6
		c0,0-0.1,0-0.2-0.1c-0.1,0-0.3-0.1-0.4-0.1c-0.1-0.1-0.3-0.1-0.4-0.2c-0.1-0.1-0.2-0.2-0.2-0.3c0-0.3,0.1-0.7,0.4-1.1
		c0.3-0.4,0.7-0.9,1.1-1.3c0.4-0.4,0.8-0.8,1.2-1.1c0.4-0.3,0.6-0.5,0.7-0.5c0.1-0.1,0.3-0.2,0.5-0.3c0.2-0.1,0.4-0.2,0.4-0.2
		c0.2,0,0.4,0.1,0.4,0.3c0,0.1,0,0.3,0,0.4c0,0.2-0.1,0.2-0.2,0.3c-0.1,0-0.2,0-0.2,0c-0.1,0-0.1,0-0.1,0c-0.1,0-0.2,0.1-0.4,0.2
		c-0.2,0.1-0.3,0.2-0.4,0.3c-0.2,0.1-0.3,0.3-0.5,0.5c-0.2,0.2-0.4,0.4-0.6,0.6c-0.2,0.2-0.4,0.4-0.5,0.7c-0.2,0.2-0.3,0.4-0.4,0.6
		c0,0,0.1,0,0.2,0c0.1,0,0.2,0,0.2,0c0.1,0,0.2-0.1,0.3-0.1c0.1-0.1,0.2-0.2,0.3-0.3c0.1-0.1,0.2-0.2,0.4-0.3
		c0.1-0.1,0.2-0.1,0.4-0.1c0.2,0,0.3,0,0.4,0.1c0.1,0.1,0.2,0.2,0.2,0.2c0,0.3-0.1,0.6-0.3,0.9c-0.2,0.3-0.5,0.5-0.7,0.7
		c0,0.1-0.1,0.2-0.1,0.3c0,0.2,0.1,0.2,0.3,0.2c0.1,0,0.3-0.1,0.6-0.2c0.2-0.1,0.5-0.3,0.8-0.5c0.3-0.2,0.6-0.3,0.9-0.5
		c0.3-0.1,0.5-0.2,0.8-0.2c0.2,0,0.3,0,0.4,0.2C109.4,126.3,109.4,126.4,109.4,126.5z M106.5,133.6c0,0.3,0,0.7,0,1.3
		c0,0.5-0.1,1-0.1,1.5c-0.1,0.6-0.1,1.2-0.2,1.8c0,0.1-0.1,0.2-0.2,0.3c-0.1,0.1-0.3,0.1-0.5,0.2c-0.1,0-0.2,0-0.3-0.1
		c-0.1-0.1-0.1-0.2-0.1-0.2c0-0.1-0.1-0.2-0.1-0.3s0-0.2,0-0.2c0-0.3,0-0.6,0-1s0.1-0.7,0.1-1.1c0.1-0.4,0.1-0.8,0.2-1.2
		s0.1-0.8,0.1-1.2c0-0.2,0-0.4,0.1-0.7c0.1-0.3,0.2-0.4,0.4-0.4s0.4,0.1,0.5,0.4C106.5,132.8,106.5,133.2,106.5,133.6z M108.3,115.3
		c0,0.1,0,0.3-0.1,0.6c-0.1,0.3-0.1,0.7-0.2,1.2c-0.1,0.4-0.2,0.9-0.3,1.4c-0.1,0.5-0.2,0.9-0.3,1.2c0,0.1-0.1,0.2-0.1,0.3
		c0,0.1-0.1,0.2-0.3,0.2c-0.1,0-0.2,0-0.3-0.1c-0.1-0.1-0.1-0.2-0.2-0.3c0-0.1-0.1-0.2-0.1-0.3c0-0.1,0-0.2,0-0.3
		c0-0.1,0-0.4,0.1-0.8c0.1-0.4,0.2-0.9,0.3-1.4c0.1-0.5,0.3-0.9,0.4-1.3c0.2-0.4,0.3-0.6,0.5-0.6c0.1,0,0.2,0,0.3,0.1
		C108.2,115.1,108.3,115.2,108.3,115.3z"/>
	<path class="st3" d="M135.5,123.5c0,0.3-0.1,0.7-0.3,1.2c-0.3,0.5-0.6,1-1.1,1.5c-0.5,0.5-1,0.9-1.6,1.3c-0.6,0.4-1.3,0.6-2,0.7
		c-0.3,0-0.7,0-1-0.1c-0.4-0.1-0.7-0.2-1.1-0.4c-0.4-0.2-0.7-0.4-1-0.7c-0.3-0.3-0.5-0.6-0.7-1c-0.1,0.1-0.2,0.3-0.3,0.6
		c-0.1,0.3-0.3,0.5-0.4,0.8s-0.3,0.5-0.5,0.7c-0.2,0.2-0.4,0.3-0.6,0.3c-0.2,0-0.4-0.1-0.6-0.3c-0.2-0.2-0.3-0.5-0.4-0.8
		c-0.1-0.3-0.2-0.6-0.3-0.8s-0.1-0.4-0.1-0.5c0-0.2,0-0.6,0.1-1.2c0.1-0.6,0.2-1.3,0.4-1.9c0.2-0.7,0.5-1.3,0.8-1.8
		c0.3-0.5,0.8-0.8,1.3-0.9c0.2,0,0.3,0.1,0.4,0.2c0.1,0.2,0.1,0.3,0.1,0.5l0.1,0.8c0.1,0.1,0.2,0.1,0.3,0.1c0.1,0,0.2,0,0.3,0.1
		c0.1,0,0.2,0.1,0.2,0.2c0.1,0.1,0.1,0.2,0.1,0.4c0,0.1,0,0.2,0,0.3c0,0.1,0,0.2,0,0.3c0,0.5,0.1,0.9,0.2,1.4
		c0.1,0.4,0.3,0.8,0.5,1.2c0.2,0.3,0.6,0.6,1,0.8c0.4,0.2,0.9,0.3,1.5,0.2c0.8-0.1,1.4-0.3,2-0.7c0.5-0.4,0.9-0.8,1.3-1.2
		s0.6-0.8,0.8-1.2c0.2-0.3,0.4-0.5,0.5-0.5C135.4,123.1,135.5,123.2,135.5,123.5z M126,123.1c0-0.1,0-0.1-0.1-0.2
		c0-0.1-0.1-0.1-0.1-0.2c0-0.1,0-0.1,0-0.2c0-0.1,0-0.1,0-0.2c0-0.1,0-0.1-0.1-0.1c0,0-0.1-0.1-0.1-0.1c-0.2,0.1-0.3,0.2-0.5,0.5
		c-0.1,0.3-0.3,0.6-0.4,1c-0.1,0.4-0.2,0.7-0.3,1.1s-0.1,0.7-0.1,0.9c0,0.1,0.1,0.3,0.2,0.6c0.1,0.3,0.2,0.5,0.3,0.5
		c0.2-0.7,0.5-1.3,0.7-1.9C126,124.3,126.1,123.7,126,123.1z"/>
	<path class="st3" d="M144.3,120.5c0,0.5,0,0.9-0.3,1.4c-0.2,0.5-0.5,0.9-0.9,1.3c-0.3,0.4-0.7,0.8-1.1,1.1
		c-0.4,0.4-0.8,0.7-1.2,0.9c-0.3,0.3-0.6,0.5-0.8,0.7s-0.3,0.3-0.3,0.4c0,0.2,0.1,0.6,0.2,1c0.1,0.4,0.2,0.9,0.3,1.4
		c0.1,0.5,0.2,1,0.4,1.5c0.1,0.5,0.2,1,0.3,1.4c0,0,0,0.1,0.1,0.2c0,0.1,0.1,0.3,0.1,0.5c0.1,0.2,0.1,0.3,0.2,0.5
		c0,0.1,0.1,0.2,0.1,0.3c0,0.1,0,0.3,0,0.4c0,0.2,0,0.3,0,0.4c0,0.1-0.1,0.3-0.2,0.4c-0.1,0.1-0.2,0.2-0.3,0.2
		c-0.2,0-0.3-0.1-0.5-0.2c-0.1-0.2-0.2-0.3-0.2-0.5c0,0,0-0.1,0-0.1c0,0,0-0.1,0-0.1c0-0.2-0.1-0.7-0.4-1.6c-0.2-0.8-0.5-1.9-0.8-3
		c-0.3-1.2-0.6-2.4-0.8-3.8c-0.3-1.4-0.4-2.6-0.6-3.9c0-0.1,0-0.2,0-0.3c0-0.1,0-0.2,0-0.3c-0.2,0-0.4,0.1-0.8,0.3
		c-0.3,0.2-0.7,0.4-1,0.6c-0.3,0.2-0.6,0.5-0.8,0.7c-0.2,0.2-0.4,0.5-0.3,0.6l-0.2,0c-0.1,0-0.1,0-0.2-0.1c-0.1-0.1-0.2-0.1-0.2-0.2
		s-0.1-0.2-0.2-0.3c-0.1-0.1-0.1-0.1-0.1-0.2c0-0.4,0.2-0.8,0.6-1.1c0.4-0.4,1-0.7,1.6-1c0.6-0.3,1.4-0.6,2.2-0.8
		c0.8-0.2,1.5-0.4,2.3-0.4c0.7-0.1,1.3,0,1.8,0.1c0.5,0.1,0.9,0.3,1.2,0.5c0.3,0.2,0.5,0.4,0.7,0.6
		C144.2,120.2,144.3,120.3,144.3,120.5z M143,120.5c0-0.2-0.3-0.3-0.7-0.5c-0.5-0.1-1-0.2-1.6-0.1c-0.5,0-0.9,0.1-1.2,0.2
		c-0.2,0.1-0.4,0.1-0.5,0.2c0,0.3,0,0.6,0,1c0,0.4,0,0.8,0.1,1.2c0,0.4,0.1,0.8,0.2,1.2c0.1,0.4,0.1,0.7,0.2,1
		c0.2-0.2,0.6-0.4,1-0.8c0.4-0.3,0.8-0.7,1.2-1.1c0.4-0.4,0.7-0.8,1-1.2C142.9,121.3,143,120.9,143,120.5z"/>
	<path class="st3" d="M154.5,119.6c0,0.5,0,0.9-0.3,1.4c-0.2,0.5-0.5,0.9-0.9,1.3c-0.3,0.4-0.7,0.8-1.1,1.1
		c-0.4,0.4-0.8,0.7-1.2,0.9c-0.3,0.3-0.6,0.5-0.8,0.7s-0.3,0.3-0.3,0.4c0,0.2,0.1,0.6,0.2,1c0.1,0.4,0.2,0.9,0.3,1.4
		c0.1,0.5,0.2,1,0.4,1.5c0.1,0.5,0.2,1,0.3,1.4c0,0,0,0.1,0.1,0.2c0,0.1,0.1,0.3,0.1,0.5c0.1,0.2,0.1,0.3,0.2,0.5
		c0,0.1,0.1,0.2,0.1,0.3c0,0.1,0,0.3,0,0.4c0,0.2,0,0.3,0,0.4c0,0.1-0.1,0.3-0.2,0.4c-0.1,0.1-0.2,0.2-0.3,0.2
		c-0.2,0-0.3-0.1-0.5-0.2c-0.1-0.2-0.2-0.3-0.2-0.5c0,0,0-0.1,0-0.1c0,0,0-0.1,0-0.1c0-0.2-0.1-0.7-0.4-1.6c-0.2-0.8-0.5-1.9-0.8-3
		c-0.3-1.2-0.6-2.4-0.8-3.8s-0.4-2.6-0.6-3.9c0-0.1,0-0.2,0-0.3c0-0.1,0-0.2,0-0.3c-0.2,0-0.4,0.1-0.8,0.3c-0.3,0.2-0.7,0.4-1,0.6
		c-0.3,0.2-0.6,0.5-0.8,0.7c-0.2,0.2-0.4,0.5-0.3,0.6l-0.2,0c-0.1,0-0.1,0-0.2-0.1c-0.1-0.1-0.2-0.1-0.2-0.2s-0.1-0.2-0.2-0.3
		c-0.1-0.1-0.1-0.1-0.1-0.2c0-0.4,0.2-0.8,0.6-1.1c0.4-0.4,1-0.7,1.6-1c0.6-0.3,1.4-0.6,2.2-0.8c0.8-0.2,1.5-0.4,2.3-0.4
		c0.7-0.1,1.3,0,1.8,0.1c0.5,0.1,0.9,0.3,1.2,0.5c0.3,0.2,0.5,0.4,0.7,0.6C154.4,119.3,154.4,119.5,154.5,119.6z M153.1,119.7
		c0-0.2-0.3-0.3-0.7-0.5c-0.5-0.1-1-0.2-1.6-0.1c-0.5,0-0.9,0.1-1.2,0.2c-0.2,0.1-0.4,0.1-0.5,0.2c0,0.3,0,0.6,0,1
		c0,0.4,0,0.8,0.1,1.2c0,0.4,0.1,0.8,0.1,1.2c0.1,0.4,0.1,0.7,0.2,1c0.2-0.2,0.6-0.4,1-0.8c0.4-0.3,0.8-0.7,1.2-1.1
		c0.4-0.4,0.7-0.8,1-1.2C153,120.4,153.2,120,153.1,119.7z"/>
	<path class="st3" d="M160,126.5c-0.1,0.1-0.2,0.1-0.4,0.1c-0.2,0-0.3-0.1-0.5-0.4s-0.4-0.7-0.6-1.1c-0.2-0.5-0.4-0.9-0.6-1.5
		c-0.2-0.5-0.4-1-0.5-1.5c-0.1-0.5-0.3-0.9-0.4-1.2c-0.1-0.3-0.1-0.5-0.1-0.5c0-0.1-0.1-0.3-0.1-0.6c-0.1-0.3-0.2-0.8-0.4-1.4
		c-0.2-0.6-0.3-1.5-0.5-2.5c-0.2-1-0.4-2.3-0.7-3.8c0-0.2,0-0.4,0-0.6s0.1-0.4,0.3-0.4c0.3,0,0.5,0.1,0.6,0.5
		c0.2,0.3,0.3,0.7,0.4,1.2c0.1,0.5,0.2,1,0.3,1.6c0.1,0.5,0.2,1,0.3,1.4c0.1,0.6,0.2,1.1,0.3,1.5c0.1,0.5,0.2,0.9,0.3,1.4
		c0.1,0.5,0.2,0.9,0.4,1.4c0.1,0.5,0.3,1,0.5,1.6l1.5,4.4C160.2,126.3,160.1,126.4,160,126.5z"/>
	<path class="st3" d="M162.8,114.3c0,0-0.1,0.1-0.2,0.2c-0.1,0.1-0.3,0.2-0.4,0.4c-0.2,0.1-0.3,0.2-0.5,0.4
		c-0.2,0.1-0.3,0.2-0.4,0.2c-0.1,0-0.2,0-0.3,0c-0.1,0-0.2,0-0.4-0.1c-0.1,0-0.2-0.1-0.3-0.2c-0.1-0.1-0.2-0.2-0.2-0.4
		c0-0.3,0-0.5,0.2-0.7c0.2-0.2,0.4-0.4,0.7-0.4c0.1,0,0.2,0,0.4,0c0.2,0,0.4,0.1,0.6,0.1c0.2,0.1,0.4,0.1,0.5,0.2
		C162.7,114.1,162.8,114.1,162.8,114.3z M164.6,124.2c0,0.1-0.1,0.2-0.3,0.3c-0.2,0.1-0.3,0.2-0.4,0.2c-0.2,0-0.4-0.1-0.5-0.3
		c-0.2-0.2-0.3-0.5-0.4-0.8c-0.1-0.3-0.2-0.6-0.3-0.9c-0.1-0.3-0.2-0.5-0.2-0.6c-0.1-0.2-0.2-0.4-0.3-0.6c-0.1-0.2-0.2-0.5-0.3-0.7
		c-0.1-0.2-0.2-0.4-0.3-0.6c-0.1-0.2-0.1-0.3-0.1-0.3c0-0.3,0-0.5,0.1-0.7c0.1-0.2,0.2-0.3,0.3-0.4c0.2,0,0.3,0.1,0.5,0.3
		c0.2,0.2,0.4,0.5,0.6,0.9c0.2,0.4,0.4,0.8,0.6,1.2c0.2,0.4,0.3,0.9,0.5,1.3c0.1,0.4,0.3,0.7,0.3,1
		C164.5,124,164.6,124.2,164.6,124.2z"/>
	<path class="st3" d="M173.8,120.8c0,0.2,0,0.4,0,0.6c0,0.2-0.1,0.4-0.1,0.5c0,0.1-0.2,0.3-0.5,0.6c-0.3,0.3-0.6,0.7-1,1.1
		c-0.4,0.4-0.9,0.7-1.4,1.1c-0.5,0.3-1,0.5-1.5,0.6c-0.3,0-0.6,0-0.9-0.1s-0.6-0.2-0.9-0.4s-0.5-0.5-0.7-0.8
		c-0.2-0.3-0.3-0.8-0.4-1.3c-0.1-0.9,0-1.7,0.2-2.4c0.2-0.7,0.5-1.3,0.7-1.7c0.1-0.2,0.3-0.4,0.4-0.6c0.2-0.2,0.4-0.4,0.6-0.6
		c0.2-0.2,0.4-0.3,0.5-0.5c0.2-0.1,0.3-0.2,0.3-0.2c0.2,0,0.3,0,0.5,0.1c0.1,0.1,0.2,0.2,0.2,0.3c0,0.1,0,0.3-0.1,0.4
		c-0.1,0.1-0.2,0.2-0.3,0.4c-0.1,0.1-0.3,0.3-0.5,0.5c-0.2,0.2-0.4,0.5-0.6,0.8c-0.4,0.6-0.6,1.3-0.8,1.9c-0.2,0.6-0.2,1.2-0.2,1.7
		c0,0.5,0.2,0.8,0.6,1.1s0.7,0.4,1.1,0.3c0.7-0.1,1.3-0.3,1.8-0.6c0.5-0.4,0.9-0.7,1.3-1.1c0.3-0.4,0.6-0.8,0.8-1.1
		c0.2-0.3,0.4-0.5,0.5-0.5C173.7,120.4,173.8,120.5,173.8,120.8z"/>
	<path class="st3" d="M188.7,118.8c0,0.3-0.1,0.7-0.3,1.2c-0.3,0.5-0.6,1-1.1,1.5c-0.5,0.5-1,0.9-1.6,1.3c-0.6,0.4-1.3,0.6-2,0.7
		c-0.3,0-0.7,0-1-0.1c-0.4-0.1-0.7-0.2-1.1-0.4c-0.4-0.2-0.7-0.4-1-0.7c-0.3-0.3-0.5-0.6-0.7-1c-0.1,0.1-0.2,0.3-0.3,0.6
		c-0.1,0.3-0.3,0.5-0.4,0.8c-0.2,0.3-0.3,0.5-0.5,0.7c-0.2,0.2-0.4,0.3-0.6,0.3c-0.2,0-0.4-0.1-0.6-0.3c-0.2-0.2-0.3-0.5-0.4-0.8
		c-0.1-0.3-0.2-0.6-0.3-0.8c-0.1-0.3-0.1-0.4-0.1-0.5c0-0.2,0-0.6,0.1-1.2c0.1-0.6,0.2-1.3,0.4-1.9c0.2-0.7,0.5-1.3,0.8-1.8
		c0.3-0.5,0.8-0.8,1.3-0.9c0.2,0,0.3,0.1,0.4,0.2c0.1,0.2,0.1,0.3,0.1,0.5l0.1,0.8c0.1,0.1,0.2,0.1,0.3,0.1c0.1,0,0.2,0,0.3,0.1
		c0.1,0,0.2,0.1,0.2,0.2c0.1,0.1,0.1,0.2,0.1,0.4c0,0.1,0,0.2,0,0.3c0,0.1,0,0.2,0,0.3c0,0.5,0.1,0.9,0.2,1.4
		c0.1,0.4,0.3,0.8,0.5,1.2c0.2,0.3,0.6,0.6,1,0.8c0.4,0.2,0.9,0.3,1.5,0.2c0.8-0.1,1.4-0.3,2-0.7c0.5-0.4,0.9-0.8,1.3-1.2
		c0.3-0.4,0.6-0.8,0.8-1.2c0.2-0.4,0.4-0.5,0.5-0.5C188.5,118.5,188.7,118.6,188.7,118.8z M179.1,118.5c0-0.1,0-0.1-0.1-0.2
		c0-0.1-0.1-0.1-0.1-0.2c0-0.1,0-0.1,0-0.2c0-0.1,0-0.1,0-0.2c0-0.1,0-0.1-0.1-0.1c0,0-0.1-0.1-0.1-0.1c-0.2,0.1-0.3,0.2-0.5,0.5
		c-0.1,0.3-0.3,0.6-0.4,1c-0.1,0.4-0.2,0.7-0.3,1.1c-0.1,0.4-0.1,0.7-0.1,0.9c0,0.1,0.1,0.3,0.2,0.6c0.1,0.3,0.2,0.5,0.3,0.5
		c0.2-0.7,0.5-1.3,0.7-1.9C179.1,119.6,179.2,119,179.1,118.5z"/>
	<path class="st3" d="M195.5,111.6c-0.2,0.3-0.5,0.6-0.9,0.9c-0.4,0.3-0.8,0.6-1.2,0.8c-0.4,0.3-0.8,0.5-1.1,0.7s-0.5,0.3-0.5,0.4
		c0,0.1,0.1,0.2,0.2,0.5c0.1,0.3,0.2,0.6,0.3,0.9c0.1,0.4,0.3,0.7,0.4,1.1c0.1,0.4,0.3,0.7,0.4,1c0.1,0.2,0.1,0.4,0.2,0.7
		c0.1,0.3,0.2,0.6,0.2,0.8c0.1,0.3,0.1,0.5,0.2,0.8c0.1,0.2,0.1,0.3,0.1,0.4c0,0.3,0,0.6-0.1,0.8c-0.1,0.3-0.2,0.5-0.4,0.5
		c-0.1,0-0.2,0-0.3-0.1c-0.1-0.1-0.2-0.2-0.3-0.3c-0.1-0.1-0.1-0.2-0.2-0.3c0-0.1-0.1-0.2-0.1-0.2c0,0,0-0.1,0-0.2
		c0-0.1,0-0.2,0-0.2c0-0.3-0.1-0.8-0.3-1.5c-0.1-0.2-0.2-0.5-0.3-0.9c-0.1-0.4-0.3-0.8-0.4-1.2c-0.2-0.5-0.4-1-0.6-1.6
		c-0.1-0.2-0.1-0.4-0.2-0.4c-0.1,0-0.3,0.1-0.6,0.3c-0.3,0.2-0.6,0.4-1,0.7c-0.4,0.3-0.7,0.5-1.1,0.8s-0.8,0.6-1.1,0.8
		c-0.3,0.3-0.6,0.5-0.9,0.6c-0.2,0.2-0.4,0.3-0.5,0.3c-0.2,0-0.4,0-0.6-0.2c-0.2-0.1-0.2-0.3-0.3-0.5c0-0.1,0.1-0.3,0.4-0.5
		c0.3-0.2,0.6-0.5,1-0.8c0.4-0.3,0.9-0.6,1.4-0.9c0.5-0.3,0.9-0.6,1.4-0.9c0.4-0.3,0.9-0.5,1.5-0.9c-0.2-0.8-0.4-1.5-0.6-2.2
		c-0.1-0.5-0.3-1.1-0.4-1.5c-0.1-0.5-0.2-0.7-0.2-0.7c0-0.2,0-0.4,0.1-0.5c0.1-0.1,0.2-0.2,0.3-0.2c0.2,0,0.3,0.1,0.4,0.4
		c0.3,1,0.5,1.8,0.8,2.5c0.2,0.7,0.5,1.3,0.7,1.8c0.2,0,0.4-0.2,0.8-0.4c0.4-0.2,0.8-0.4,1.2-0.7c0.4-0.2,0.8-0.4,1.1-0.6
		c0.3-0.2,0.5-0.3,0.6-0.3c0.1,0,0.2,0,0.2,0.1S195.5,111.6,195.5,111.6z"/>
	<path class="st3" d="M198.6,111.1c0,0-0.1,0.1-0.2,0.2s-0.3,0.2-0.4,0.4c-0.2,0.1-0.3,0.2-0.5,0.4c-0.2,0.1-0.3,0.2-0.4,0.2
		c-0.1,0-0.2,0-0.3,0c-0.1,0-0.2,0-0.4-0.1c-0.1,0-0.2-0.1-0.3-0.2c-0.1-0.1-0.2-0.2-0.2-0.4c0-0.3,0-0.5,0.2-0.7
		c0.2-0.2,0.4-0.4,0.7-0.4c0.1,0,0.2,0,0.4,0c0.2,0,0.4,0.1,0.6,0.1c0.2,0.1,0.4,0.1,0.5,0.2C198.5,110.9,198.6,111,198.6,111.1z
		 M200.3,121.1c0,0.1-0.1,0.2-0.3,0.3c-0.2,0.1-0.3,0.2-0.4,0.2c-0.2,0-0.4-0.1-0.5-0.3c-0.2-0.2-0.3-0.5-0.4-0.8
		c-0.1-0.3-0.2-0.6-0.3-0.9c-0.1-0.3-0.2-0.5-0.2-0.6c-0.1-0.2-0.2-0.4-0.3-0.6c-0.1-0.2-0.2-0.5-0.3-0.7c-0.1-0.2-0.2-0.4-0.3-0.6
		c-0.1-0.2-0.1-0.3-0.1-0.3c0-0.3,0-0.5,0.1-0.7c0.1-0.2,0.2-0.3,0.3-0.4c0.2,0,0.3,0.1,0.5,0.3s0.4,0.5,0.6,0.9
		c0.2,0.4,0.4,0.8,0.6,1.2c0.2,0.4,0.3,0.9,0.5,1.3c0.1,0.4,0.3,0.7,0.3,1C200.3,120.9,200.3,121.1,200.3,121.1z"/>
	<path class="st3" d="M206.5,117c0,0.4,0,0.8-0.1,1.1c-0.1,0.4-0.2,0.7-0.3,1c-0.2,0.3-0.3,0.5-0.6,0.7c-0.2,0.2-0.5,0.3-0.8,0.3
		c-0.5,0-0.9-0.1-1.2-0.3c-0.3-0.3-0.6-0.6-0.7-0.9c-0.2-0.4-0.3-0.7-0.4-1.1c-0.1-0.4-0.1-0.7-0.1-0.9c0-0.3,0-0.7,0.1-1.1
		s0.2-0.8,0.3-1.2c0.1-0.4,0.3-0.7,0.5-0.9c0.2-0.3,0.4-0.4,0.6-0.4c0.1,0,0.1,0,0.3,0c0.1,0,0.2,0.1,0.4,0.1
		c0.1,0.1,0.3,0.1,0.4,0.2c0.1,0.1,0.2,0.2,0.2,0.4c0.2,0,0.4,0.1,0.6,0.2c0.2,0.1,0.3,0.2,0.3,0.3c0.2,0.5,0.3,0.9,0.4,1.4
		C206.5,116.4,206.5,116.7,206.5,117z M205.3,116.7c0-0.3-0.1-0.5-0.2-0.8c-0.1-0.3-0.2-0.6-0.4-0.9c0,0-0.1,0-0.1,0
		c-0.1,0-0.1,0-0.2,0c0,0-0.1,0-0.1,0c-0.2,0-0.4,0.1-0.5,0.2c-0.1,0.1-0.2,0.3-0.2,0.5c0,0.2-0.1,0.4-0.1,0.6c0,0.2,0,0.4,0,0.6
		c0,0.2,0,0.4,0.1,0.7s0.1,0.5,0.2,0.7c0.1,0.2,0.2,0.4,0.3,0.5c0.1,0.1,0.3,0.2,0.5,0.2c0.2,0,0.3-0.1,0.4-0.3
		c0.1-0.2,0.2-0.4,0.2-0.7c0-0.3,0.1-0.5,0.1-0.8C205.3,116.9,205.3,116.8,205.3,116.7z"/>
	<path class="st3" d="M217.5,118.6c0,0.1,0,0.2-0.1,0.3c-0.1,0.1-0.1,0.2-0.2,0.3c-0.1,0.1-0.2,0.2-0.3,0.3
		c-0.1,0.1-0.2,0.1-0.3,0.1c-0.3,0-0.7,0-1.2-0.1c-0.5-0.1-0.9-0.3-1.2-0.5c-0.3-0.3-0.6-0.6-0.9-1c-0.3-0.4-0.6-1-0.9-1.8
		c-0.1,0.8-0.3,1.6-0.5,2.4c-0.2,0.8-0.5,1.5-1.1,2.2c0,0-0.1,0.1-0.2,0.1c-0.1,0-0.3,0-0.4-0.2c-0.2-0.1-0.2-0.2-0.2-0.4
		c0-0.1,0-0.4-0.1-0.9c-0.1-0.5-0.1-1-0.2-1.5c-0.1-0.6-0.2-1.1-0.2-1.7s-0.1-1.1-0.2-1.4c0-0.2,0-0.4,0-0.7c0-0.3,0-0.6,0.1-0.8
		c0,0,0.1-0.1,0.2-0.2c0.1-0.1,0.2-0.2,0.4-0.2c0.1,0,0.2,0.1,0.2,0.2c0,0.2,0.1,0.3,0.1,0.5l0.4,4.2c0,0.1,0,0.2,0.1,0.4
		c0,0.2,0.1,0.3,0.2,0.3c0.2-0.4,0.3-1,0.4-1.6c0.1-0.6,0.2-1.2,0.4-1.7c0.1-0.5,0.2-1,0.4-1.4c0.1-0.4,0.3-0.6,0.4-0.6
		c0.2,0,0.3,0,0.4,0.1c0.1,0.1,0.2,0.2,0.3,0.4c0.1,0.5,0.2,1,0.3,1.4c0.1,0.4,0.2,0.8,0.3,1.1c0.1,0.3,0.3,0.6,0.4,0.9
		s0.4,0.5,0.7,0.7c0.3,0.2,0.6,0.4,0.9,0.4c0.3,0.1,0.6,0.1,0.8,0.1c0.1,0,0.2,0,0.3-0.1c0.1-0.1,0.2-0.1,0.3-0.1
		c0.1,0,0.1,0.1,0.2,0.2C217.5,118.5,217.5,118.6,217.5,118.6z"/>
</g>
<g class="st2">
	<path class="st3" d="M121,147.6c0,0.4,0,0.8-0.1,1.1c-0.1,0.4-0.2,0.7-0.3,1c-0.2,0.3-0.3,0.5-0.6,0.7c-0.2,0.2-0.5,0.3-0.8,0.3
		c-0.5,0-0.9-0.1-1.2-0.3c-0.3-0.3-0.6-0.6-0.7-0.9c-0.2-0.4-0.3-0.7-0.4-1.1c-0.1-0.4-0.1-0.7-0.1-0.9c0-0.3,0-0.7,0.1-1.1
		c0.1-0.4,0.2-0.8,0.3-1.2c0.1-0.4,0.3-0.7,0.5-0.9c0.2-0.3,0.4-0.4,0.6-0.4c0.1,0,0.1,0,0.3,0c0.1,0,0.2,0.1,0.4,0.1
		c0.1,0.1,0.3,0.1,0.4,0.2c0.1,0.1,0.2,0.2,0.2,0.4c0.2,0,0.4,0.1,0.6,0.2c0.2,0.1,0.3,0.2,0.3,0.3c0.2,0.5,0.3,0.9,0.4,1.4
		C120.9,146.9,121,147.3,121,147.6z M119.7,147.2c0-0.3-0.1-0.5-0.2-0.8c-0.1-0.3-0.2-0.6-0.4-0.9c0,0-0.1,0-0.1,0
		c-0.1,0-0.1,0-0.2,0c0,0-0.1,0-0.1,0c-0.2,0-0.4,0.1-0.5,0.2c-0.1,0.1-0.2,0.3-0.2,0.5c0,0.2-0.1,0.4-0.1,0.6c0,0.2,0,0.4,0,0.6
		c0,0.2,0,0.4,0.1,0.7s0.1,0.5,0.2,0.7c0.1,0.2,0.2,0.4,0.3,0.5c0.1,0.1,0.3,0.2,0.5,0.2c0.2,0,0.3-0.1,0.4-0.3
		c0.1-0.2,0.2-0.4,0.2-0.7c0-0.3,0.1-0.5,0.1-0.8C119.8,147.5,119.8,147.3,119.7,147.2z"/>
	<path class="st3" d="M131.3,133.1c0,0,0,0.1,0,0.2c0,0.1,0,0.2,0,0.3c0,0.1,0,0.2-0.1,0.2c0,0-0.1,0-0.1,0c-0.1,0-0.1,0-0.1,0
		c-0.3-0.1-0.7-0.3-1.2-0.4c-0.5-0.2-1-0.3-1.6-0.2c-0.6,0.1-1.1,0.3-1.5,0.9s-0.6,1.1-0.8,1.8c-0.2,0.7-0.2,1.3-0.2,1.9
		c0,0.6,0,1.1,0,1.3c0,0.2,0.1,0.5,0.2,0.9c0.1,0.4,0.2,0.8,0.4,1.3c0.1,0.4,0.3,0.8,0.5,1.2s0.3,0.6,0.5,0.6c0.1,0,0.3,0,0.6-0.1
		c0.3,0,0.5-0.1,0.7-0.1c0.3,0,0.6,0,0.9,0c0.3,0,0.6,0,0.8,0c0.1,0,0.2,0,0.3,0c0.1,0,0.3,0,0.4,0c0.2,0,0.3,0,0.4,0.1
		s0.2,0.1,0.2,0.2c0,0.1,0,0.2-0.2,0.3c-0.1,0.1-0.3,0.2-0.4,0.2c-0.2,0.1-0.3,0.1-0.5,0.1c-0.2,0-0.3,0.1-0.4,0.1s-0.2,0-0.3,0
		c-0.1,0-0.3,0-0.5,0c-0.2,0-0.3,0-0.5,0c-0.2,0-0.3,0-0.4,0c-0.3,0-0.5,0.1-0.5,0.1c-0.1,0.1-0.1,0.2-0.1,0.4
		c0,0.3,0.2,0.6,0.5,1.1c0.3,0.4,0.6,0.9,0.9,1.4c0.3,0.5,0.6,1,0.9,1.5c0.3,0.5,0.5,1,0.5,1.5c0,0.1,0,0.3,0,0.5
		c0,0.2-0.1,0.5-0.1,0.8c-0.1,0.3-0.2,0.5-0.3,0.7c-0.1,0.2-0.3,0.3-0.5,0.3c-0.1,0-0.3,0-0.4-0.1c-0.1-0.1-0.2-0.2-0.2-0.4
		c0-0.3,0-0.6,0.2-0.8c0.1-0.3,0.2-0.5,0.2-0.8c0-0.1-0.1-0.4-0.3-0.7s-0.4-0.7-0.6-1.1c-0.2-0.4-0.5-0.8-0.8-1.3
		c-0.3-0.4-0.5-0.9-0.8-1.2s-0.4-0.7-0.6-0.9c-0.2-0.2-0.3-0.4-0.3-0.4c-0.3,0.2-0.7,0.3-1.1,0.5c-0.4,0.2-0.7,0.4-1,0.7
		c-0.1,0.1-0.2,0.2-0.3,0.2c-0.2,0-0.4,0-0.5-0.2c-0.2-0.1-0.3-0.3-0.3-0.5c0-0.2,0-0.4,0.1-0.5c0.1-0.1,0.2-0.2,0.3-0.3
		c0.2-0.1,0.4-0.2,0.7-0.4c0.3-0.1,0.7-0.3,1-0.4c0.1,0,0.2-0.1,0.3-0.1c0.1,0,0.2-0.1,0.1-0.2c-0.1-0.2-0.2-0.4-0.3-0.7
		c-0.1-0.3-0.3-0.6-0.4-1c-0.1-0.4-0.3-0.9-0.4-1.4c-0.1-0.5-0.2-1.1-0.3-1.6c-0.1-0.6,0-1.3,0-2.1c0.1-0.7,0.3-1.4,0.6-2
		c0.3-0.6,0.7-1.2,1.1-1.6c0.5-0.4,1.1-0.7,1.8-0.7c0.3,0,0.7,0,1.1,0c0.4,0,0.8,0.1,1.1,0.2c0.3,0.1,0.6,0.2,0.9,0.4
		C131.2,132.7,131.3,132.9,131.3,133.1z"/>
	<path class="st3" d="M153.2,145.7c0,0.2,0,0.4,0,0.6c0,0.2-0.1,0.4-0.1,0.5c0,0.1-0.2,0.3-0.4,0.6c-0.3,0.3-0.6,0.7-1,1.1
		c-0.4,0.4-0.9,0.7-1.4,1.1c-0.5,0.3-1,0.5-1.5,0.6c-0.3,0-0.6,0-0.9-0.1c-0.3-0.1-0.6-0.2-0.9-0.4c-0.3-0.2-0.5-0.5-0.7-0.8
		c-0.2-0.3-0.3-0.8-0.4-1.3c-0.1-0.9,0-1.7,0.2-2.4c0.2-0.7,0.5-1.3,0.7-1.7c0.1-0.2,0.3-0.4,0.4-0.6c0.2-0.2,0.4-0.4,0.6-0.6
		c0.2-0.2,0.4-0.3,0.5-0.5c0.2-0.1,0.3-0.2,0.3-0.2c0.2,0,0.3,0,0.5,0.1c0.1,0.1,0.2,0.2,0.2,0.3c0,0.1,0,0.3-0.1,0.4
		s-0.2,0.2-0.3,0.4c-0.1,0.1-0.3,0.3-0.5,0.5c-0.2,0.2-0.4,0.5-0.6,0.8c-0.4,0.6-0.6,1.3-0.8,1.9c-0.2,0.6-0.2,1.2-0.2,1.7
		c0,0.5,0.2,0.8,0.6,1.1c0.4,0.2,0.7,0.4,1.1,0.3c0.7-0.1,1.3-0.3,1.8-0.6s0.9-0.7,1.3-1.1c0.3-0.4,0.6-0.8,0.8-1.1
		c0.2-0.3,0.4-0.5,0.5-0.5C153.1,145.3,153.2,145.4,153.2,145.7z"/>
	<path class="st3" d="M161.4,141.7c0,0.1,0,0.2-0.1,0.3c-0.1,0.1-0.2,0.2-0.4,0.2c-0.1,0.1-0.3,0.1-0.4,0.2c-0.1,0-0.3,0.1-0.3,0.1
		c-0.3,0-0.4,0-0.5,0c-0.1,0-0.2,0-0.2,0c-0.4,0-0.8,0.1-1.1,0.2c-0.3,0.1-0.5,0.2-0.6,0.4s-0.2,0.4-0.2,0.6c0,0.2,0,0.5,0,0.9
		c0.1,0.6,0.1,1,0.2,1.4s0.1,0.6,0.2,0.8c0.1,0.2,0.1,0.4,0.2,0.5c0.1,0.1,0.1,0.2,0.1,0.3c0,0.1-0.1,0.3-0.2,0.5
		c-0.1,0.2-0.3,0.3-0.4,0.3c-0.2,0-0.4-0.2-0.6-0.5c-0.2-0.4-0.4-0.8-0.6-1.3c-0.2-0.5-0.3-1-0.4-1.5c-0.1-0.5-0.2-0.9-0.2-1.2
		c0-0.3,0-0.6,0-0.9c0-0.3,0.1-0.5,0.2-0.7c0.1-0.2,0.2-0.4,0.3-0.5c0.1-0.1,0.2-0.2,0.3-0.2c0.1,0,0.2,0,0.2,0.1s0.1,0.1,0.2,0.2
		c0,0.1,0.1,0.1,0.1,0.2c0.1,0.1,0.1,0.1,0.2,0.1c0.2,0,0.4-0.1,0.8-0.3c0.3-0.2,0.8-0.3,1.3-0.4c0.5,0,0.8-0.1,1.1-0.1
		c0.2,0,0.5,0,0.7,0.1c0.1,0,0.1,0,0.2,0.1C161.3,141.4,161.4,141.5,161.4,141.7z"/>
	<path class="st3" d="M164.8,137.2c0,0-0.1,0.1-0.2,0.2c-0.1,0.1-0.3,0.2-0.4,0.4c-0.2,0.1-0.3,0.2-0.5,0.4s-0.3,0.2-0.4,0.2
		c-0.1,0-0.2,0-0.3,0s-0.2,0-0.4-0.1c-0.1,0-0.2-0.1-0.3-0.2c-0.1-0.1-0.2-0.2-0.2-0.4c0-0.3,0-0.5,0.2-0.7c0.2-0.2,0.4-0.4,0.7-0.4
		c0.1,0,0.2,0,0.4,0c0.2,0,0.4,0.1,0.6,0.1c0.2,0.1,0.4,0.1,0.5,0.2C164.7,137,164.8,137.1,164.8,137.2z M166.5,147.1
		c0,0.1-0.1,0.2-0.3,0.3c-0.2,0.1-0.3,0.2-0.4,0.2c-0.2,0-0.4-0.1-0.5-0.3c-0.2-0.2-0.3-0.5-0.4-0.8c-0.1-0.3-0.2-0.6-0.3-0.8
		c-0.1-0.3-0.2-0.5-0.2-0.6c-0.1-0.2-0.2-0.4-0.3-0.6s-0.2-0.5-0.3-0.7c-0.1-0.2-0.2-0.4-0.3-0.6c-0.1-0.2-0.1-0.3-0.1-0.3
		c0-0.3,0-0.5,0.1-0.7c0.1-0.2,0.2-0.3,0.3-0.4c0.2,0,0.3,0.1,0.5,0.3s0.4,0.5,0.6,0.9c0.2,0.4,0.4,0.8,0.6,1.2
		c0.2,0.4,0.3,0.9,0.5,1.3c0.1,0.4,0.3,0.7,0.3,1C166.5,146.9,166.5,147.1,166.5,147.1z"/>
	<path class="st3" d="M174.5,136.5c-0.2,0.3-0.5,0.6-0.9,0.9c-0.4,0.3-0.8,0.6-1.2,0.8c-0.4,0.3-0.8,0.5-1.1,0.7
		c-0.3,0.2-0.5,0.3-0.5,0.4c0,0.1,0.1,0.2,0.2,0.5c0.1,0.3,0.2,0.6,0.3,0.9s0.3,0.7,0.4,1.1c0.1,0.4,0.3,0.7,0.4,1
		c0.1,0.2,0.1,0.4,0.2,0.7c0.1,0.3,0.2,0.6,0.2,0.8c0.1,0.3,0.1,0.5,0.2,0.8c0.1,0.2,0.1,0.3,0.1,0.4c0,0.3,0,0.6-0.1,0.8
		c-0.1,0.3-0.2,0.5-0.4,0.5c-0.1,0-0.2,0-0.3-0.1c-0.1-0.1-0.2-0.2-0.3-0.3c-0.1-0.1-0.1-0.2-0.2-0.3c0-0.1-0.1-0.2-0.1-0.2
		c0,0,0-0.1,0-0.2c0-0.1,0-0.2,0-0.2c0-0.3-0.1-0.8-0.3-1.5c-0.1-0.2-0.2-0.5-0.3-0.9c-0.1-0.4-0.3-0.8-0.4-1.2
		c-0.2-0.5-0.4-1-0.6-1.6c-0.1-0.2-0.2-0.4-0.2-0.4c-0.1,0-0.3,0.1-0.6,0.3c-0.3,0.2-0.6,0.4-1,0.7c-0.4,0.3-0.7,0.5-1.1,0.8
		c-0.4,0.3-0.8,0.6-1.1,0.8c-0.3,0.3-0.6,0.5-0.9,0.6c-0.2,0.2-0.4,0.3-0.5,0.3c-0.2,0-0.4,0-0.6-0.2c-0.2-0.1-0.2-0.3-0.3-0.5
		c0-0.1,0.1-0.3,0.4-0.5c0.3-0.2,0.6-0.5,1-0.8s0.9-0.6,1.4-0.9c0.5-0.3,0.9-0.6,1.4-0.9c0.4-0.3,0.9-0.5,1.5-0.9
		c-0.2-0.8-0.4-1.5-0.6-2.2c-0.1-0.5-0.3-1.1-0.4-1.5c-0.1-0.5-0.2-0.7-0.2-0.7c0-0.2,0-0.4,0.1-0.5c0.1-0.1,0.2-0.2,0.3-0.2
		c0.2,0,0.3,0.1,0.4,0.4c0.3,1,0.5,1.8,0.8,2.5s0.5,1.3,0.7,1.8c0.2,0,0.4-0.2,0.8-0.4c0.4-0.2,0.8-0.4,1.2-0.7
		c0.4-0.2,0.8-0.4,1.1-0.6c0.3-0.2,0.5-0.3,0.6-0.3c0.1,0,0.2,0,0.2,0.1C174.4,136.4,174.5,136.5,174.5,136.5z"/>
	<path class="st3" d="M177.5,136.1c0,0-0.1,0.1-0.2,0.2c-0.1,0.1-0.3,0.2-0.4,0.4s-0.3,0.2-0.5,0.4s-0.3,0.2-0.4,0.2
		c-0.1,0-0.2,0-0.3,0c-0.1,0-0.2,0-0.4-0.1s-0.2-0.1-0.3-0.2c-0.1-0.1-0.2-0.2-0.2-0.4c0-0.3,0-0.5,0.2-0.7s0.4-0.4,0.7-0.4
		c0.1,0,0.2,0,0.4,0c0.2,0,0.4,0.1,0.6,0.1c0.2,0.1,0.4,0.1,0.5,0.2C177.4,135.9,177.5,135.9,177.5,136.1z M179.3,146
		c0,0.1-0.1,0.2-0.3,0.3c-0.2,0.1-0.3,0.2-0.4,0.2c-0.2,0-0.3-0.1-0.5-0.3s-0.3-0.5-0.4-0.8c-0.1-0.3-0.2-0.6-0.3-0.9
		c-0.1-0.3-0.2-0.5-0.2-0.6c-0.1-0.2-0.2-0.4-0.3-0.6s-0.2-0.5-0.3-0.7c-0.1-0.2-0.2-0.4-0.3-0.6c-0.1-0.2-0.1-0.3-0.1-0.3
		c0-0.3,0-0.5,0.1-0.7c0.1-0.2,0.2-0.3,0.3-0.4c0.2,0,0.3,0.1,0.5,0.3s0.4,0.5,0.6,0.9c0.2,0.4,0.4,0.8,0.6,1.2s0.3,0.9,0.5,1.3
		s0.3,0.7,0.3,1S179.3,146,179.3,146z"/>
	<path class="st3" d="M188.5,142.6c0,0.2,0,0.4,0,0.6c0,0.2-0.1,0.4-0.1,0.5c0,0.1-0.2,0.3-0.4,0.6c-0.3,0.3-0.6,0.7-1,1.1
		s-0.9,0.7-1.4,1.1c-0.5,0.3-1,0.5-1.5,0.6c-0.3,0-0.6,0-0.9-0.1c-0.3-0.1-0.6-0.2-0.9-0.4c-0.3-0.2-0.5-0.5-0.7-0.8
		s-0.3-0.8-0.4-1.3c-0.1-0.9,0-1.7,0.2-2.4c0.2-0.7,0.5-1.3,0.7-1.7c0.1-0.2,0.3-0.4,0.4-0.6c0.2-0.2,0.4-0.4,0.6-0.6
		c0.2-0.2,0.4-0.3,0.5-0.5c0.2-0.1,0.3-0.2,0.3-0.2c0.2,0,0.3,0,0.5,0.1c0.1,0.1,0.2,0.2,0.2,0.3c0,0.1,0,0.3-0.1,0.4
		s-0.2,0.2-0.3,0.4c-0.1,0.1-0.3,0.3-0.5,0.5c-0.2,0.2-0.4,0.5-0.6,0.8c-0.4,0.6-0.6,1.3-0.8,1.9s-0.2,1.2-0.2,1.7
		c0,0.5,0.2,0.8,0.6,1.1c0.4,0.2,0.8,0.4,1.1,0.3c0.7-0.1,1.3-0.3,1.8-0.6c0.5-0.4,0.9-0.7,1.3-1.1c0.3-0.4,0.6-0.8,0.8-1.1
		c0.2-0.3,0.4-0.5,0.5-0.5C188.4,142.2,188.5,142.3,188.5,142.6z"/>
	<path class="st3" d="M203.4,140.6c0,0.3-0.1,0.7-0.3,1.2c-0.3,0.5-0.6,1-1.1,1.5c-0.5,0.5-1,0.9-1.6,1.3c-0.6,0.4-1.3,0.6-2,0.7
		c-0.3,0-0.7,0-1-0.1c-0.4-0.1-0.7-0.2-1.1-0.4c-0.4-0.2-0.7-0.4-1-0.7c-0.3-0.3-0.5-0.6-0.7-1c-0.1,0.1-0.2,0.3-0.3,0.6
		c-0.1,0.3-0.3,0.5-0.4,0.8c-0.2,0.3-0.3,0.5-0.5,0.7c-0.2,0.2-0.4,0.3-0.6,0.3s-0.4-0.1-0.6-0.3c-0.2-0.2-0.3-0.5-0.4-0.8
		c-0.1-0.3-0.2-0.6-0.3-0.8c-0.1-0.3-0.1-0.4-0.1-0.5c0-0.2,0-0.6,0.1-1.2c0.1-0.6,0.2-1.3,0.4-1.9c0.2-0.7,0.5-1.3,0.8-1.8
		c0.3-0.5,0.8-0.8,1.3-0.9c0.2,0,0.3,0.1,0.4,0.2c0.1,0.2,0.1,0.3,0.1,0.5l0.1,0.8c0.1,0.1,0.2,0.1,0.3,0.1c0.1,0,0.2,0,0.3,0.1
		c0.1,0,0.2,0.1,0.2,0.2c0.1,0.1,0.1,0.2,0.1,0.4c0,0.1,0,0.2,0,0.3c0,0.1,0,0.2,0,0.3c0,0.5,0.1,0.9,0.2,1.4
		c0.1,0.4,0.3,0.8,0.5,1.2s0.6,0.6,1,0.8c0.4,0.2,0.9,0.3,1.5,0.2c0.8-0.1,1.4-0.3,2-0.7c0.5-0.4,0.9-0.8,1.3-1.2s0.6-0.8,0.8-1.2
		c0.2-0.4,0.3-0.5,0.5-0.5C203.2,140.3,203.4,140.4,203.4,140.6z M193.8,140.3c0-0.1,0-0.1-0.1-0.2c0-0.1-0.1-0.1-0.1-0.2
		c0-0.1,0-0.1,0-0.2s0-0.1,0-0.2c0-0.1,0-0.1-0.1-0.1c0,0-0.1-0.1-0.1-0.1c-0.2,0-0.3,0.2-0.5,0.5s-0.3,0.6-0.4,1s-0.2,0.7-0.3,1.1
		c-0.1,0.4-0.1,0.7-0.1,0.9c0,0.1,0.1,0.3,0.2,0.6c0.1,0.3,0.2,0.5,0.3,0.5c0.2-0.7,0.5-1.3,0.7-1.9
		C193.8,141.4,193.9,140.8,193.8,140.3z"/>
	<path class="st3" d="M207.6,145.4c-0.1,0.1-0.2,0.1-0.4,0.1c-0.2,0-0.3-0.1-0.5-0.4c-0.2-0.3-0.4-0.7-0.6-1.1
		c-0.2-0.5-0.4-0.9-0.6-1.5s-0.4-1-0.5-1.5c-0.2-0.5-0.3-0.9-0.4-1.2c-0.1-0.3-0.1-0.5-0.1-0.5c0-0.1-0.1-0.3-0.1-0.6
		c-0.1-0.3-0.2-0.8-0.4-1.4c-0.2-0.6-0.3-1.5-0.5-2.5c-0.2-1-0.4-2.3-0.7-3.8c0-0.2,0-0.4,0-0.6c0-0.3,0.1-0.4,0.3-0.4
		c0.2,0,0.5,0.1,0.6,0.5c0.2,0.3,0.3,0.7,0.4,1.2c0.1,0.5,0.2,1,0.3,1.6c0.1,0.5,0.2,1,0.3,1.4c0.1,0.6,0.2,1.1,0.3,1.5
		c0.1,0.5,0.2,0.9,0.3,1.4c0.1,0.5,0.2,0.9,0.4,1.4c0.1,0.5,0.3,1,0.5,1.6l1.5,4.4C207.7,145.2,207.7,145.4,207.6,145.4z"/>
</g>
<g class="st2">
	<path class="st3" d="M148.4,169.8c0,0.1,0,0.2-0.1,0.3c-0.1,0.1-0.1,0.2-0.1,0.3c0,0.2,0.1,0.4,0.2,0.6c0.1,0.2,0.2,0.4,0.2,0.6
		c0,0.2,0,0.4-0.2,0.4c-0.2,0-0.3,0-0.4,0.1s-0.2,0.1-0.4,0.2c-0.1,0-0.2-0.1-0.4-0.3c-0.1-0.1-0.2-0.2-0.2-0.3c0,0,0,0-0.1,0.1
		c-0.1,0.1-0.2,0.2-0.5,0.4c-0.2,0.1-0.5,0.3-0.9,0.4c-0.4,0.1-0.9,0.2-1.5,0.3c-0.5,0-1,0-1.3-0.2c-0.4-0.2-0.7-0.5-1-0.8
		s-0.5-0.7-0.6-1.2s-0.3-0.9-0.3-1.4c0-0.4,0-0.8,0-1.2c0.1-0.4,0.2-0.7,0.3-1.1s0.4-0.6,0.6-0.8c0.3-0.2,0.6-0.3,0.9-0.4
		c0.3,0,0.7,0,1.1,0.2c0.4,0.2,0.7,0.4,1,0.6c0.3,0.2,0.6,0.5,1,0.9c-0.4-1.4-0.7-2.6-1-3.7c-0.1-0.5-0.3-1-0.4-1.4
		c-0.1-0.5-0.2-0.9-0.3-1.3c-0.1-0.4-0.2-0.7-0.3-0.9c-0.1-0.3-0.1-0.4-0.1-0.5c0-0.1-0.1-0.3-0.1-0.6c0-0.3-0.1-0.6-0.1-0.9
		c0-0.3-0.1-0.6-0.1-0.8c0-0.2-0.1-0.4-0.1-0.5c-0.1-0.2-0.2-0.4-0.3-0.7c-0.1-0.3-0.2-0.4-0.2-0.4c0-0.1,0-0.2,0.1-0.3
		c0.1-0.1,0.2-0.2,0.3-0.2c0.1,0,0.2,0,0.3,0c0.1,0,0.2,0.1,0.3,0.1c0.1,0.1,0.2,0.2,0.2,0.4c0.1,0.2,0.2,0.4,0.2,0.8
		c0,0.2,0.1,0.5,0.3,1c0.1,0.5,0.3,1,0.4,1.6c0.1,0.6,0.3,1.1,0.4,1.7s0.2,0.9,0.3,1.2c0.1,0.7,0.3,1.4,0.6,2.2
		c0.2,0.8,0.4,1.5,0.7,2.3c0.2,0.7,0.4,1.4,0.7,1.9c0.2,0.5,0.4,0.9,0.5,1.1c0,0.1,0.1,0.1,0.2,0.1
		C148.3,169.7,148.4,169.7,148.4,169.8z M146.5,170.5c0-0.1-0.2-0.3-0.4-0.7c-0.2-0.4-0.5-0.8-0.9-1.2c-0.4-0.4-0.7-0.8-1.2-1.2
		c-0.4-0.3-0.8-0.5-1.2-0.5c-0.3,0-0.5,0.3-0.7,0.8c-0.1,0.5-0.2,1-0.1,1.6c0.1,0.7,0.3,1.2,0.7,1.6c0.4,0.4,0.9,0.5,1.4,0.5
		c0.4,0,0.9-0.1,1.3-0.3C146,170.9,146.3,170.7,146.5,170.5z"/>
	<path class="st3" d="M163.2,167.2c0,0.3-0.1,0.7-0.3,1.2s-0.6,1-1.1,1.5c-0.5,0.5-1,0.9-1.6,1.3c-0.6,0.4-1.3,0.6-2,0.7
		c-0.3,0-0.7,0-1-0.1c-0.4-0.1-0.7-0.2-1.1-0.4c-0.4-0.2-0.7-0.4-1-0.7c-0.3-0.3-0.5-0.6-0.7-1c-0.1,0.1-0.2,0.3-0.3,0.6
		c-0.1,0.3-0.3,0.5-0.4,0.8c-0.2,0.3-0.3,0.5-0.5,0.7c-0.2,0.2-0.4,0.3-0.6,0.3s-0.4-0.1-0.6-0.3c-0.2-0.2-0.3-0.5-0.4-0.8
		c-0.1-0.3-0.2-0.6-0.3-0.8c-0.1-0.3-0.1-0.4-0.1-0.5c0-0.2,0-0.6,0.1-1.2c0.1-0.6,0.2-1.3,0.4-1.9c0.2-0.7,0.5-1.3,0.8-1.8
		c0.3-0.5,0.8-0.8,1.3-0.9c0.2,0,0.3,0.1,0.4,0.2c0.1,0.2,0.1,0.3,0.1,0.5l0.1,0.8c0.1,0.1,0.2,0.1,0.3,0.1c0.1,0,0.2,0,0.3,0.1
		c0.1,0,0.2,0.1,0.2,0.2c0.1,0.1,0.1,0.2,0.1,0.4c0,0.1,0,0.2,0,0.3c0,0.1,0,0.2,0,0.3c0,0.5,0.1,0.9,0.2,1.4
		c0.1,0.4,0.3,0.8,0.5,1.2c0.2,0.3,0.6,0.6,1,0.8c0.4,0.2,0.9,0.3,1.5,0.2c0.8-0.1,1.4-0.3,2-0.7c0.5-0.4,0.9-0.8,1.3-1.2
		c0.3-0.4,0.6-0.8,0.8-1.2c0.2-0.3,0.4-0.5,0.5-0.5C163,166.9,163.2,167,163.2,167.2z M153.6,166.9c0-0.1,0-0.1-0.1-0.2
		c0-0.1-0.1-0.1-0.1-0.2c0-0.1,0-0.1,0-0.2c0-0.1,0-0.1,0-0.2c0-0.1,0-0.1-0.1-0.1c0,0-0.1-0.1-0.1-0.1c-0.2,0.1-0.3,0.2-0.5,0.5
		c-0.1,0.3-0.3,0.6-0.4,1c-0.1,0.4-0.2,0.7-0.3,1.1s-0.1,0.7-0.1,0.9c0,0.1,0.1,0.3,0.2,0.6c0.1,0.3,0.2,0.5,0.3,0.5
		c0.2-0.7,0.5-1.3,0.7-1.9C153.6,168,153.7,167.4,153.6,166.9z"/>
	<path class="st3" d="M170.1,160c-0.2,0.3-0.5,0.6-0.9,0.9c-0.4,0.3-0.8,0.6-1.2,0.8c-0.4,0.3-0.8,0.5-1.1,0.7s-0.5,0.3-0.5,0.4
		c0,0.1,0.1,0.2,0.2,0.5s0.2,0.6,0.3,0.9s0.3,0.7,0.4,1.1c0.1,0.4,0.3,0.7,0.4,1c0.1,0.2,0.1,0.4,0.2,0.7c0.1,0.3,0.2,0.6,0.2,0.8
		c0.1,0.3,0.1,0.5,0.2,0.8c0.1,0.2,0.1,0.3,0.1,0.4c0,0.3,0,0.6-0.1,0.8c-0.1,0.3-0.2,0.5-0.4,0.5c-0.1,0-0.2,0-0.3-0.1
		c-0.1-0.1-0.2-0.2-0.3-0.3c-0.1-0.1-0.1-0.2-0.2-0.3c0-0.1-0.1-0.2-0.1-0.2c0,0,0-0.1,0-0.2c0-0.1,0-0.2,0-0.2
		c0-0.3-0.1-0.8-0.3-1.5c-0.1-0.2-0.2-0.5-0.3-0.9c-0.1-0.4-0.3-0.8-0.4-1.2c-0.2-0.5-0.4-1-0.6-1.6c-0.1-0.2-0.1-0.4-0.2-0.4
		c-0.1,0-0.3,0.1-0.6,0.3c-0.3,0.2-0.6,0.4-1,0.7c-0.4,0.3-0.7,0.5-1.1,0.8s-0.8,0.6-1.1,0.8c-0.3,0.3-0.6,0.5-0.9,0.6
		c-0.2,0.2-0.4,0.3-0.5,0.3c-0.2,0-0.4,0-0.6-0.2c-0.2-0.1-0.2-0.3-0.3-0.5c0-0.1,0.1-0.3,0.4-0.5c0.3-0.2,0.6-0.5,1-0.8
		c0.4-0.3,0.9-0.6,1.4-0.9c0.5-0.3,0.9-0.6,1.4-0.9c0.4-0.3,0.9-0.5,1.5-0.9c-0.2-0.8-0.4-1.5-0.6-2.2c-0.1-0.5-0.3-1.1-0.4-1.5
		s-0.2-0.7-0.2-0.7c0-0.2,0-0.4,0.1-0.5c0.1-0.1,0.2-0.2,0.3-0.2c0.2,0,0.3,0.1,0.4,0.4c0.3,1,0.5,1.8,0.8,2.5
		c0.2,0.7,0.5,1.3,0.7,1.8c0.2,0,0.4-0.2,0.8-0.4c0.4-0.2,0.8-0.4,1.2-0.7c0.4-0.2,0.8-0.4,1.1-0.6c0.3-0.2,0.5-0.3,0.6-0.3
		c0.1,0,0.2,0,0.2,0.1C170,159.9,170,160,170.1,160z"/>
	<path class="st3" d="M184.9,165.3c0,0.3-0.1,0.7-0.3,1.2c-0.3,0.5-0.6,1-1.1,1.5c-0.5,0.5-1,0.9-1.6,1.3c-0.6,0.4-1.3,0.6-2,0.7
		c-0.3,0-0.7,0-1-0.1c-0.4-0.1-0.7-0.2-1.1-0.4c-0.4-0.2-0.7-0.4-1-0.7c-0.3-0.3-0.5-0.6-0.7-1c-0.1,0.1-0.2,0.3-0.3,0.6
		c-0.1,0.3-0.3,0.5-0.4,0.8c-0.2,0.3-0.3,0.5-0.5,0.7c-0.2,0.2-0.4,0.3-0.6,0.3c-0.2,0-0.4-0.1-0.6-0.3c-0.2-0.2-0.3-0.5-0.4-0.8
		c-0.1-0.3-0.2-0.6-0.3-0.8c-0.1-0.3-0.1-0.4-0.1-0.5c0-0.2,0-0.6,0.1-1.2c0.1-0.6,0.2-1.3,0.4-1.9c0.2-0.7,0.5-1.3,0.8-1.8
		c0.3-0.5,0.8-0.8,1.3-0.9c0.2,0,0.3,0.1,0.4,0.2c0.1,0.2,0.1,0.3,0.1,0.5l0.1,0.8c0.1,0.1,0.2,0.1,0.3,0.1c0.1,0,0.2,0,0.3,0.1
		c0.1,0,0.2,0.1,0.2,0.2c0.1,0.1,0.1,0.2,0.1,0.4c0,0.1,0,0.2,0,0.3c0,0.1,0,0.2,0,0.3c0,0.5,0.1,0.9,0.2,1.4
		c0.1,0.4,0.3,0.8,0.5,1.2s0.6,0.6,1,0.8s0.9,0.3,1.5,0.2c0.8-0.1,1.4-0.3,2-0.7c0.5-0.4,0.9-0.8,1.3-1.2s0.6-0.8,0.8-1.2
		c0.2-0.3,0.3-0.5,0.5-0.5C184.7,165,184.8,165.1,184.9,165.3z M175.3,165c0-0.1,0-0.1-0.1-0.2c0-0.1-0.1-0.1-0.1-0.2
		c0-0.1,0-0.1,0-0.2c0-0.1,0-0.1,0-0.2c0-0.1,0-0.1-0.1-0.1c0,0-0.1-0.1-0.1-0.1c-0.2,0-0.3,0.2-0.5,0.5s-0.3,0.6-0.4,1
		c-0.1,0.4-0.2,0.7-0.3,1.1c-0.1,0.4-0.1,0.7-0.1,0.9c0,0.1,0.1,0.3,0.2,0.6s0.2,0.5,0.3,0.5c0.2-0.7,0.5-1.3,0.7-1.9
		S175.4,165.5,175.3,165z"/>
	<path class="st3" d="M187.2,169c0,0.1,0,0.2-0.1,0.3c-0.1,0.1-0.2,0.2-0.3,0.3c-0.1,0.1-0.3,0.2-0.4,0.2c-0.1,0.1-0.2,0.1-0.2,0.1
		c-0.2,0-0.3,0-0.4-0.1s-0.2-0.2-0.2-0.3c-0.1-0.1-0.1-0.2-0.1-0.3c0-0.1,0-0.2,0-0.2c0-0.1,0-0.2,0-0.3c0-0.1,0.1-0.2,0.1-0.4
		c0.1-0.1,0.1-0.2,0.2-0.3c0.1-0.1,0.2-0.1,0.3-0.2c0.2,0,0.5,0.1,0.7,0.2C187.1,168.5,187.2,168.7,187.2,169z"/>
</g>
</svg>
