<?xml version="1.0" encoding="utf-8"?>
<!-- Generator: Adobe Illustrator 22.1.0, SVG Export Plug-In . SVG Version: 6.00 Build 0)  -->
<svg version="1.1" id="Layer_1" xmlns="http://www.w3.org/2000/svg" xmlns:xlink="http://www.w3.org/1999/xlink" x="0px" y="0px"
	 viewBox="0 0 250 250" style="enable-background:new 0 0 250 250;" xml:space="preserve">
<style type="text/css">
	.st0{fill:none;stroke:#1D3766;stroke-linecap:round;stroke-linejoin:round;stroke-miterlimit:10;}
	.st1{fill:none;}
	.st2{enable-background:new    ;}
	.st3{fill:#1D3766;}
</style>
<path class="st0" d="M69.7,140.7c-4.9,6.2-13.3,19-14.9,36.8c-1.4,15.5,3,27.5,6,35.6c4.7,12.6,11.1,21.9,15.8,27.8"/>
<path class="st0" d="M77.9,231.9c-0.2,3.3-0.4,6.5-0.5,9.7c-3.2-0.6-6.3-1.2-9.6-1.7"/>
<rect x="59.4" y="2.2" transform="matrix(0.9962 -8.715476e-02 8.715476e-02 0.9962 -6.9708 11.1409)" class="st1" width="129.3" height="166.4"/>
<g class="st2">
	<path class="st3" d="M96,19.7c0.1,0.8,0,1.5-0.3,1.9c-0.2,0.5-0.6,0.9-1.2,1.4c-0.1,0.1-0.3,0.2-0.6,0.4c-0.2,0.1-0.5,0.3-0.8,0.4
		c-0.3,0.1-0.6,0.3-0.9,0.4c-0.3,0.1-0.6,0.2-0.9,0.2c-0.8,0.1-1.4,0-1.9-0.1c-0.4-0.1-0.7-0.3-0.7-0.6s0-0.5,0.2-0.6
		c0.1-0.2,0.2-0.3,0.4-0.3l0.3,0.2c0.1,0.1,0.2,0.2,0.4,0.2s0.4,0.1,0.8,0.1c0.3,0,0.7-0.1,1.2-0.3s0.9-0.4,1.3-0.7s0.8-0.6,1.1-1
		s0.4-0.8,0.4-1.3c0-0.4-0.4-0.8-1-1.1c-0.6-0.3-1.6-0.4-3-0.5c-0.7,0-1.4,0-2-0.1c-0.7-0.1-1.3-0.2-1.8-0.3c-0.5-0.2-1-0.4-1.3-0.7
		c-0.3-0.3-0.5-0.7-0.6-1.1c0-0.4,0-0.9,0.3-1.3c0.2-0.4,0.5-0.8,0.8-1.2c0.3-0.4,0.7-0.7,1.1-1s0.7-0.6,0.9-0.8
		c0.2-0.1,0.5-0.3,0.9-0.6c0.4-0.2,0.8-0.5,1.2-0.7c0.4-0.2,0.8-0.4,1.3-0.6s0.8-0.3,1.1-0.3c0.4,0,0.6,0,0.8,0.2
		c0.1,0.2,0.2,0.5,0.3,0.8c0,0.3,0,0.6,0,1c0,0.3-0.1,0.7-0.2,1s-0.1,0.6-0.2,0.9c-0.1,0.2-0.1,0.4-0.1,0.5
		c-0.1,0.2-0.1,0.3-0.2,0.3s-0.1,0.1-0.2,0.1s-0.1,0-0.1-0.1s0-0.2,0-0.3c0-0.2,0-0.3,0.1-0.6c0-0.2,0-0.5,0-0.7c0-0.3,0-0.5,0-0.8
		c0-0.4-0.1-0.7-0.1-0.9c-0.1-0.2-0.2-0.3-0.5-0.2s-0.6,0.1-1,0.3c-0.4,0.2-0.8,0.4-1.3,0.6c-0.5,0.3-0.9,0.6-1.3,1
		s-0.8,0.8-1.1,1.2c-0.3,0.4-0.6,0.8-0.8,1.1c-0.2,0.4-0.3,0.6-0.3,0.8c0,0.2,0.2,0.4,0.5,0.6s0.7,0.3,1.2,0.4s1,0.2,1.6,0.2
		c0.6,0.1,1.1,0.1,1.7,0.1c0.5,0,1,0,1.5,0.1c0.5,0,1.1,0.1,1.5,0.3c0.5,0.2,0.9,0.4,1.3,0.7C95.7,18.8,95.9,19.2,96,19.7z"/>
	<path class="st3" d="M105,20c0,0,0,0.1,0,0.2c0,0.1-0.1,0.3-0.2,0.5c0,0.1-0.2,0.2-0.3,0.4c-0.2,0.2-0.4,0.4-0.7,0.5
		c-0.3,0.2-0.7,0.4-1.1,0.5c-0.4,0.2-0.9,0.3-1.5,0.3c-0.4,0-0.8,0-1.2-0.2s-0.8-0.4-1.1-0.7s-0.6-0.8-0.9-1.3
		c-0.2-0.5-0.4-1.2-0.5-1.9c-0.1-0.7,0-1.4,0.1-2c0.1-0.6,0.3-1.2,0.5-1.7s0.5-0.9,0.8-1.2c0.3-0.3,0.6-0.5,1-0.5
		c0.3,0,0.6,0,0.9,0.1c0.3,0.1,0.6,0.2,0.8,0.4c0.3,0.2,0.5,0.3,0.6,0.6c0.2,0.2,0.3,0.4,0.3,0.7c0,0.3-0.1,0.6-0.3,0.9
		s-0.5,0.6-0.8,0.9s-0.6,0.5-1,0.7c-0.3,0.2-0.6,0.3-0.8,0.3c-0.1,0-0.2,0-0.3-0.1s-0.1-0.2-0.2-0.4c0-0.2,0.1-0.5,0.3-0.6
		c0.2-0.2,0.4-0.3,0.7-0.5c0.3-0.1,0.5-0.3,0.7-0.5s0.3-0.4,0.3-0.7c0,0-0.1-0.1-0.2-0.3c-0.1-0.1-0.4-0.2-0.7-0.2
		c-0.2,0-0.4,0.1-0.6,0.4s-0.4,0.5-0.6,0.9c-0.2,0.4-0.3,0.8-0.4,1.3c-0.1,0.5-0.1,1-0.1,1.6c0,0.5,0.2,0.9,0.4,1.2
		c0.2,0.4,0.5,0.7,0.7,0.9c0.3,0.2,0.6,0.4,1,0.5s0.7,0.2,1.1,0.1c0.3,0,0.6-0.1,0.9-0.3c0.3-0.1,0.6-0.3,0.9-0.5
		c0.3-0.2,0.5-0.3,0.7-0.4c0.2-0.1,0.3-0.2,0.4-0.2c0.1,0,0.1,0,0.2,0.1S105,20,105,20z"/>
	<path class="st3" d="M114.4,19.2c0,0,0,0.1,0,0.2c0,0.1-0.1,0.3-0.2,0.5c0,0.1-0.2,0.2-0.3,0.4c-0.2,0.2-0.4,0.4-0.7,0.5
		c-0.3,0.2-0.7,0.4-1.1,0.5c-0.4,0.2-0.9,0.3-1.5,0.3c-0.4,0-0.8,0-1.2-0.2s-0.8-0.4-1.1-0.7s-0.6-0.8-0.9-1.3
		c-0.2-0.5-0.4-1.2-0.5-1.9c-0.1-0.7,0-1.4,0.1-2c0.1-0.6,0.3-1.2,0.5-1.7s0.5-0.9,0.8-1.2c0.3-0.3,0.6-0.5,1-0.5
		c0.3,0,0.6,0,0.9,0.1c0.3,0.1,0.6,0.2,0.8,0.4c0.3,0.2,0.5,0.3,0.6,0.6c0.2,0.2,0.3,0.4,0.3,0.7c0,0.3-0.1,0.6-0.3,0.9
		s-0.5,0.6-0.8,0.9s-0.6,0.5-1,0.7c-0.3,0.2-0.6,0.3-0.8,0.3c-0.1,0-0.2,0-0.3-0.1s-0.1-0.2-0.2-0.4c0-0.2,0.1-0.5,0.3-0.6
		c0.2-0.2,0.4-0.3,0.7-0.5c0.3-0.1,0.5-0.3,0.7-0.5s0.3-0.4,0.3-0.7c0,0-0.1-0.1-0.2-0.3c-0.1-0.1-0.3-0.2-0.7-0.2
		c-0.2,0-0.4,0.1-0.6,0.4c-0.2,0.2-0.4,0.5-0.6,0.9c-0.2,0.4-0.3,0.8-0.4,1.3c-0.1,0.5-0.1,1-0.1,1.6c0,0.5,0.2,0.9,0.4,1.2
		c0.2,0.4,0.5,0.7,0.7,0.9c0.3,0.2,0.6,0.4,1,0.5s0.7,0.2,1.1,0.1c0.3,0,0.6-0.1,0.9-0.3c0.3-0.1,0.6-0.3,0.9-0.5
		c0.3-0.2,0.5-0.3,0.7-0.4c0.2-0.1,0.3-0.2,0.4-0.2c0.1,0,0.1,0,0.2,0.1C114.3,19.1,114.4,19.2,114.4,19.2z"/>
	<path class="st3" d="M132,14.7c0,0.4,0,0.8-0.1,1.1c-0.1,0.4-0.2,0.7-0.3,1c-0.2,0.3-0.3,0.5-0.6,0.7c-0.2,0.2-0.5,0.3-0.8,0.3
		c-0.5,0-0.9-0.1-1.2-0.3c-0.3-0.3-0.6-0.6-0.7-0.9c-0.2-0.4-0.3-0.7-0.4-1.1c-0.1-0.4-0.1-0.7-0.1-0.9c0-0.3,0-0.7,0.1-1.1
		s0.2-0.8,0.3-1.2c0.1-0.4,0.3-0.7,0.5-0.9c0.2-0.3,0.4-0.4,0.6-0.4c0.1,0,0.1,0,0.3,0s0.2,0.1,0.4,0.1c0.1,0.1,0.3,0.1,0.4,0.2
		c0.1,0.1,0.2,0.2,0.2,0.4c0.2,0,0.4,0.1,0.6,0.2c0.2,0.1,0.3,0.2,0.3,0.3c0.2,0.5,0.3,0.9,0.4,1.4C131.9,14,132,14.4,132,14.7z
		 M130.8,14.3c0-0.3-0.1-0.5-0.2-0.8c-0.1-0.3-0.2-0.6-0.4-0.9h-0.1c-0.1,0-0.1,0-0.2,0h-0.1c-0.2,0-0.4,0.1-0.5,0.2
		s-0.2,0.3-0.2,0.5s-0.1,0.4-0.1,0.6s0,0.4,0,0.6s0,0.4,0.1,0.7c0,0.2,0.1,0.5,0.2,0.7c0.1,0.2,0.2,0.4,0.3,0.5s0.3,0.2,0.5,0.2
		s0.3-0.1,0.4-0.3c0.1-0.2,0.2-0.4,0.2-0.7s0.1-0.5,0.1-0.8C130.8,14.6,130.8,14.4,130.8,14.3z"/>
	<path class="st3" d="M143.7,15c0,0.2-0.1,0.3-0.3,0.5s-0.4,0.4-0.7,0.6c-0.3,0.2-0.6,0.3-0.8,0.5c-0.3,0.1-0.5,0.2-0.6,0.2
		c-0.2,0-0.3,0-0.5-0.1s-0.4-0.2-0.6-0.3c-0.2-0.1-0.3-0.2-0.5-0.3c-0.1-0.1-0.2-0.2-0.3-0.2c0,0.1-0.1,0.2-0.2,0.3
		c-0.1,0.2-0.2,0.4-0.3,0.6s-0.3,0.4-0.4,0.5c-0.2,0.2-0.3,0.2-0.5,0.3c-0.5,0-0.9-0.2-1.3-0.6c-0.4-0.5-0.7-1-1-1.6
		s-0.5-1.2-0.7-1.8c-0.2-0.6-0.3-1-0.3-1.2c0-0.1,0-0.2,0.2-0.3c0.1-0.1,0.2-0.1,0.3-0.1c0.3,0,0.4,0,0.5,0.2s0.2,0.3,0.2,0.5
		s0.1,0.4,0.2,0.8c0.1,0.4,0.3,0.8,0.5,1.2c0.2,0.4,0.4,0.8,0.6,1.1c0.2,0.3,0.3,0.5,0.5,0.5s0.4-0.2,0.6-0.5
		c0.1-0.3,0.3-0.7,0.3-1.1c0.1-0.4,0.1-0.8,0.1-1.1c0-0.4,0-0.6,0-0.7c0,0,0-0.1,0-0.2s0-0.2,0-0.3c0-0.1,0-0.2,0-0.3
		c0-0.1,0-0.2,0-0.2c0-0.1,0-0.2-0.1-0.2s-0.1-0.1-0.1-0.3c0-0.1,0-0.2,0.1-0.3s0.3-0.2,0.7-0.2c0.1,0,0.3,0,0.3,0.1
		c0.1,0.1,0.2,0.2,0.2,0.3c0,0.1,0.1,0.2,0.1,0.3c0,0.1,0,0.2,0,0.2s0,0.1,0,0.4c0,0.2,0,0.5,0,0.8s0,0.5,0,0.8s0,0.4,0,0.5
		s0,0.2,0.1,0.3c0.1,0.2,0.1,0.3,0.2,0.5c0.1,0.2,0.2,0.3,0.3,0.4s0.2,0.2,0.4,0.2s0.4-0.1,0.6-0.1c0.2-0.1,0.4-0.2,0.5-0.3
		c0.2-0.1,0.3-0.2,0.5-0.3c0.1-0.1,0.3-0.1,0.4-0.1c0.2,0,0.3,0,0.5,0.1S143.7,14.9,143.7,15z"/>
	<path class="st3" d="M150.8,10.6c0,0.1,0,0.2-0.1,0.3c-0.1,0.1-0.2,0.2-0.4,0.2c-0.1,0.1-0.3,0.1-0.4,0.2c-0.1,0-0.3,0.1-0.3,0.1
		c-0.3,0-0.4,0-0.5,0s-0.2,0-0.2,0c-0.4,0-0.8,0.1-1.1,0.2s-0.5,0.2-0.6,0.4c-0.1,0.2-0.2,0.4-0.2,0.6s0,0.5,0,0.9
		c0.1,0.6,0.1,1,0.2,1.4s0.1,0.6,0.2,0.8c0.1,0.2,0.1,0.4,0.2,0.5c0.1,0.1,0.1,0.2,0.1,0.3c0,0.1-0.1,0.3-0.2,0.5
		c-0.1,0.2-0.3,0.3-0.4,0.3c-0.2,0-0.4-0.2-0.6-0.5c-0.2-0.4-0.4-0.8-0.6-1.3c-0.2-0.5-0.3-1-0.4-1.5c-0.1-0.5-0.2-0.9-0.2-1.2
		c0-0.3,0-0.6,0-0.9s0.1-0.5,0.2-0.7c0.1-0.2,0.2-0.4,0.3-0.5s0.2-0.2,0.3-0.2s0.2,0,0.2,0.1c0.1,0.1,0.1,0.1,0.2,0.2
		c0,0.1,0.1,0.1,0.1,0.2s0.1,0.1,0.2,0.1c0.2,0,0.4-0.1,0.8-0.3c0.3-0.2,0.8-0.3,1.3-0.4c0.5,0,0.8-0.1,1.1-0.1c0.2,0,0.5,0,0.7,0.1
		c0.1,0,0.1,0,0.2,0.1C150.7,10.4,150.8,10.5,150.8,10.6z"/>
</g>
<g class="st2">
	<path class="st3" d="M78.9,42.6c0,0.3-0.1,0.7-0.3,1.2c-0.3,0.5-0.6,1-1.1,1.5s-1,0.9-1.6,1.3c-0.6,0.4-1.3,0.6-2,0.7
		c-0.3,0-0.7,0-1-0.1c-0.4-0.1-0.7-0.2-1.1-0.4s-0.7-0.4-1-0.7s-0.5-0.6-0.7-1c-0.1,0.1-0.2,0.3-0.3,0.6c-0.1,0.3-0.3,0.5-0.4,0.8
		c-0.2,0.3-0.3,0.5-0.5,0.7s-0.4,0.3-0.6,0.3s-0.4-0.1-0.6-0.3s-0.3-0.5-0.4-0.8s-0.2-0.6-0.3-0.8c-0.1-0.3-0.1-0.4-0.1-0.5
		c0-0.2,0-0.6,0.1-1.2c0.1-0.6,0.2-1.3,0.4-1.9c0.2-0.7,0.5-1.3,0.8-1.8s0.8-0.8,1.3-0.9c0.2,0,0.3,0.1,0.4,0.2
		C70,39.7,70,39.8,70,40l0.1,0.8c0.1,0.1,0.2,0.1,0.3,0.1c0.1,0,0.2,0,0.3,0.1c0.1,0,0.2,0.1,0.2,0.2c0.1,0.1,0.1,0.2,0.1,0.4
		c0,0.1,0,0.2,0,0.3s0,0.2,0,0.3c0,0.5,0.1,0.9,0.2,1.4c0.1,0.4,0.3,0.8,0.5,1.2c0.2,0.3,0.6,0.6,1,0.8s0.9,0.3,1.5,0.2
		c0.8-0.1,1.4-0.3,2-0.7c0.5-0.4,0.9-0.8,1.3-1.2c0.3-0.4,0.6-0.8,0.8-1.2c0.2-0.4,0.3-0.5,0.5-0.5C78.7,42.3,78.9,42.4,78.9,42.6z
		 M69.4,42.3c0-0.1,0-0.1-0.1-0.2c0-0.1-0.1-0.1-0.1-0.2c0-0.1,0-0.1,0-0.2c0-0.1,0-0.1,0-0.2c0-0.1,0-0.1-0.1-0.1L69,41.3
		c-0.2,0.1-0.3,0.2-0.5,0.5c-0.1,0.3-0.3,0.6-0.4,1s-0.2,0.7-0.3,1.1c-0.1,0.4-0.1,0.7-0.1,0.9c0,0.1,0.1,0.3,0.2,0.6
		s0.2,0.5,0.3,0.5c0.2-0.7,0.5-1.3,0.7-1.9C69.3,43.4,69.4,42.8,69.4,42.3z"/>
	<path class="st3" d="M87.7,39.6c0,0.5-0.1,0.9-0.3,1.4c-0.2,0.5-0.5,0.9-0.9,1.3c-0.3,0.4-0.7,0.8-1.1,1.1
		c-0.4,0.4-0.8,0.7-1.2,0.9c-0.3,0.3-0.6,0.5-0.8,0.7c-0.2,0.2-0.3,0.3-0.3,0.4c0,0.2,0.1,0.6,0.2,1s0.2,0.9,0.3,1.4
		c0.1,0.5,0.2,1,0.4,1.5c0.1,0.5,0.2,1,0.3,1.4c0,0,0,0.1,0.1,0.2c0,0.1,0.1,0.3,0.1,0.5c0.1,0.2,0.1,0.3,0.2,0.5
		c0,0.1,0.1,0.2,0.1,0.3c0,0.1,0,0.3,0,0.4c0,0.2,0,0.3,0,0.4s-0.1,0.3-0.2,0.4s-0.2,0.2-0.3,0.2c-0.2,0-0.3-0.1-0.5-0.2
		c-0.1-0.2-0.2-0.3-0.2-0.5v-0.1v-0.1c0-0.2-0.1-0.7-0.4-1.6c-0.2-0.8-0.5-1.9-0.8-3c-0.3-1.2-0.6-2.4-0.8-3.8
		c-0.3-1.4-0.4-2.6-0.6-3.9c0-0.1,0-0.2,0-0.3s0-0.2,0-0.3c-0.2,0-0.4,0.1-0.8,0.3c-0.3,0.2-0.7,0.4-1,0.6c-0.3,0.2-0.6,0.5-0.8,0.7
		c-0.2,0.2-0.4,0.5-0.3,0.6h-0.2c-0.1,0-0.1,0-0.2-0.1s-0.2-0.1-0.2-0.2c-0.1-0.1-0.1-0.2-0.2-0.3s-0.1-0.1-0.1-0.2
		c0-0.4,0.2-0.8,0.6-1.1c0.4-0.4,1-0.7,1.6-1s1.4-0.6,2.2-0.8c0.8-0.2,1.5-0.4,2.3-0.4c0.7-0.1,1.3,0,1.8,0.1s0.9,0.3,1.2,0.5
		c0.3,0.2,0.5,0.4,0.7,0.6C87.6,39.3,87.6,39.5,87.7,39.6z M86.3,39.7c0-0.2-0.3-0.3-0.7-0.5c-0.5-0.1-1-0.2-1.6-0.1
		c-0.5,0-0.9,0.1-1.2,0.2s-0.4,0.1-0.5,0.2c0,0.3,0,0.6,0,1s0,0.8,0.1,1.2c0,0.4,0.1,0.8,0.1,1.2c0.1,0.4,0.1,0.7,0.2,1
		c0.2-0.2,0.6-0.4,1-0.8c0.4-0.3,0.8-0.7,1.2-1.1c0.4-0.4,0.7-0.8,1-1.2C86.2,40.4,86.4,40,86.3,39.7z"/>
	<path class="st3" d="M97.8,38.8c0,0.5,0,0.9-0.3,1.4c-0.2,0.5-0.5,0.9-0.8,1.3c-0.3,0.4-0.7,0.8-1.1,1.1c-0.4,0.4-0.8,0.7-1.2,0.9
		c-0.3,0.3-0.6,0.5-0.8,0.7s-0.3,0.3-0.3,0.4c0,0.2,0.1,0.6,0.2,1s0.2,0.9,0.3,1.4c0.1,0.5,0.2,1,0.4,1.5c0.1,0.5,0.2,1,0.3,1.4
		c0,0,0,0.1,0.1,0.2c0,0.1,0.1,0.3,0.1,0.5c0.1,0.2,0.1,0.3,0.2,0.5c0,0.1,0.1,0.2,0.1,0.3c0,0.1,0,0.3,0,0.4c0,0.2,0,0.3,0,0.4
		s-0.1,0.3-0.2,0.4s-0.2,0.2-0.3,0.2c-0.2,0-0.3-0.1-0.5-0.2c-0.1-0.2-0.2-0.3-0.2-0.5V52v-0.1c0-0.2-0.1-0.7-0.4-1.6
		c-0.2-0.8-0.5-1.9-0.8-3c-0.3-1.2-0.6-2.4-0.8-3.8c-0.3-1.4-0.4-2.6-0.6-3.9c0-0.1,0-0.2,0-0.3s0-0.2,0-0.3c-0.2,0-0.4,0.1-0.8,0.3
		c-0.3,0.2-0.7,0.4-1,0.6c-0.3,0.2-0.6,0.5-0.8,0.7c-0.2,0.2-0.4,0.5-0.3,0.6h-0.2c-0.1,0-0.1,0-0.2-0.1s-0.2-0.1-0.2-0.2
		s-0.1-0.2-0.2-0.3c-0.2-0.1-0.2-0.2-0.2-0.2c0-0.4,0.2-0.8,0.6-1.1c0.4-0.4,1-0.7,1.6-1s1.4-0.6,2.2-0.8c0.8-0.2,1.5-0.4,2.3-0.4
		c0.7-0.1,1.3,0,1.8,0.1s0.9,0.3,1.2,0.5s0.5,0.4,0.7,0.6C97.7,38.4,97.8,38.6,97.8,38.8z M96.5,38.8c0-0.2-0.3-0.3-0.7-0.5
		c-0.5-0.1-1-0.2-1.6-0.1c-0.5,0-0.9,0.1-1.2,0.2s-0.4,0.1-0.5,0.2c0,0.3,0,0.6,0,1s0,0.8,0.1,1.2c0,0.4,0.1,0.8,0.2,1.2
		s0.1,0.7,0.2,1c0.2-0.2,0.6-0.4,1-0.8c0.4-0.3,0.8-0.7,1.2-1.1c0.4-0.4,0.7-0.8,1-1.2C96.4,39.5,96.5,39.2,96.5,38.8z"/>
	<path class="st3" d="M105.6,37.6c0,0.1,0,0.2-0.1,0.3s-0.2,0.2-0.4,0.2c-0.1,0.1-0.3,0.1-0.4,0.2s-0.3,0.1-0.3,0.1
		c-0.3,0-0.4,0-0.5,0s-0.2,0-0.2,0c-0.4,0-0.8,0.1-1.1,0.2c-0.3,0.1-0.5,0.2-0.6,0.4s-0.2,0.4-0.2,0.6s0,0.5,0,0.9
		c0.1,0.6,0.1,1,0.2,1.4c0.1,0.3,0.1,0.6,0.2,0.8c0.1,0.2,0.1,0.4,0.2,0.5c0.1,0.1,0.1,0.2,0.1,0.3s-0.1,0.3-0.2,0.5
		c-0.1,0.2-0.3,0.3-0.4,0.3c-0.2,0-0.4-0.2-0.6-0.5c-0.2-0.4-0.4-0.8-0.6-1.3c-0.2-0.5-0.3-1-0.4-1.5c-0.1-0.5-0.2-0.9-0.2-1.2
		s0-0.6,0-0.9c0-0.3,0.1-0.5,0.2-0.7c0.1-0.2,0.2-0.4,0.3-0.5s0.2-0.2,0.3-0.2s0.2,0,0.2,0.1c0.1,0.1,0.1,0.1,0.2,0.2
		c0,0.1,0.1,0.1,0.1,0.2c0,0.1,0.1,0.1,0.2,0.1c0.2,0,0.4-0.1,0.8-0.3c0.3-0.2,0.8-0.3,1.3-0.4c0.5,0,0.8-0.1,1.1-0.1
		c0.2,0,0.5,0,0.7,0.1c0.1,0,0.1,0,0.2,0.1C105.6,37.4,105.6,37.5,105.6,37.6z"/>
	<path class="st3" d="M112.8,39.4c0,0.4,0,0.8-0.1,1.1c-0.1,0.4-0.2,0.7-0.3,1c-0.2,0.3-0.3,0.5-0.6,0.7c-0.2,0.2-0.5,0.3-0.8,0.3
		c-0.5,0-0.9-0.1-1.2-0.3c-0.3-0.3-0.6-0.6-0.7-0.9c-0.2-0.4-0.3-0.7-0.4-1.1c-0.1-0.4-0.1-0.7-0.1-0.9c0-0.3,0-0.7,0.1-1.1
		c0.1-0.4,0.2-0.8,0.3-1.2s0.3-0.7,0.5-0.9c0.2-0.3,0.4-0.4,0.6-0.4c0.1,0,0.1,0,0.3,0c0.1,0,0.2,0.1,0.4,0.1
		c0.1,0.1,0.3,0.1,0.4,0.2c0.1,0.1,0.2,0.2,0.2,0.4c0.2,0,0.4,0.1,0.6,0.2c0.2,0.1,0.3,0.2,0.3,0.3c0.2,0.5,0.3,0.9,0.4,1.4
		C112.7,38.7,112.8,39.1,112.8,39.4z M111.5,39.1c0-0.3-0.1-0.5-0.2-0.8c-0.1-0.3-0.2-0.6-0.4-0.9h-0.1c-0.1,0-0.1,0-0.2,0h-0.1
		c-0.2,0-0.4,0.1-0.5,0.2c-0.1,0.1-0.2,0.3-0.2,0.5s-0.1,0.4-0.1,0.6c0,0.2,0,0.4,0,0.6c0,0.2,0,0.4,0.1,0.7c0,0.2,0.1,0.5,0.2,0.7
		c0.1,0.2,0.2,0.4,0.3,0.5s0.3,0.2,0.5,0.2s0.3-0.1,0.4-0.3c0.1-0.2,0.2-0.4,0.2-0.7s0.1-0.5,0.1-0.8
		C111.6,39.3,111.5,39.2,111.5,39.1z"/>
	<path class="st3" d="M128.3,38.3c0,0.3-0.1,0.7-0.3,1.2c-0.3,0.5-0.6,1-1.1,1.5s-1,0.9-1.6,1.3c-0.6,0.4-1.3,0.6-2,0.7
		c-0.3,0-0.7,0-1-0.1c-0.4-0.1-0.7-0.2-1.1-0.4s-0.7-0.4-1-0.7s-0.5-0.6-0.7-1c-0.1,0.1-0.2,0.3-0.3,0.6s-0.3,0.5-0.4,0.8
		c-0.2,0.3-0.3,0.5-0.5,0.7s-0.4,0.3-0.6,0.3c-0.2,0-0.4-0.1-0.6-0.3c-0.2-0.2-0.3-0.5-0.4-0.8c-0.1-0.3-0.2-0.6-0.3-0.8
		c-0.1-0.3-0.1-0.4-0.1-0.5c0-0.2,0-0.6,0.1-1.2c0.1-0.6,0.2-1.3,0.4-1.9c0.2-0.7,0.5-1.3,0.8-1.8s0.8-0.8,1.3-0.9
		c0.2,0,0.3,0.1,0.4,0.2c0.1,0.2,0.1,0.3,0.1,0.5l0.1,0.8c0.1,0.1,0.2,0.1,0.3,0.1s0.2,0,0.3,0.1c0.1,0,0.2,0.1,0.2,0.2
		c0.1,0.1,0.1,0.2,0.1,0.4c0,0.1,0,0.2,0,0.3s0,0.2,0,0.3c0,0.5,0.1,0.9,0.2,1.4c0.1,0.4,0.3,0.8,0.5,1.2c0.2,0.3,0.6,0.6,1,0.8
		s0.9,0.3,1.5,0.2c0.8-0.1,1.4-0.3,2-0.7c0.5-0.4,0.9-0.8,1.3-1.2s0.6-0.8,0.8-1.2c0.2-0.3,0.3-0.5,0.5-0.5
		C128.2,37.9,128.3,38.1,128.3,38.3z M118.8,37.9c0-0.1,0-0.1-0.1-0.2c0-0.1-0.1-0.1-0.1-0.2c0-0.1,0-0.1,0-0.2c0-0.1,0-0.1,0-0.2
		c0-0.1,0-0.1-0.1-0.1l-0.1-0.1c-0.2,0.1-0.3,0.2-0.5,0.5c-0.1,0.3-0.3,0.6-0.4,1c-0.1,0.4-0.2,0.7-0.3,1.1
		c-0.1,0.4-0.1,0.7-0.1,0.9c0,0.1,0.1,0.3,0.2,0.6c0.1,0.3,0.2,0.5,0.3,0.5c0.2-0.7,0.5-1.3,0.7-1.9
		C118.7,39.1,118.8,38.5,118.8,37.9z"/>
	<path class="st3" d="M136.4,38.3c0,0.2,0,0.4,0,0.6c0,0.2-0.1,0.4-0.1,0.5s-0.2,0.3-0.5,0.6s-0.6,0.7-1,1.1
		c-0.4,0.4-0.9,0.7-1.4,1.1c-0.5,0.3-1,0.5-1.5,0.6c-0.3,0-0.6,0-0.9-0.1s-0.6-0.2-0.9-0.4c-0.3-0.2-0.5-0.5-0.7-0.8
		s-0.3-0.8-0.4-1.3c-0.1-0.9,0-1.7,0.2-2.4s0.5-1.3,0.7-1.7c0.1-0.2,0.3-0.4,0.4-0.6c0.2-0.2,0.4-0.4,0.6-0.6
		c0.2-0.2,0.4-0.3,0.5-0.5c0.2-0.1,0.3-0.2,0.3-0.2c0.2,0,0.3,0,0.5,0.1c0.1,0.1,0.2,0.2,0.2,0.3s0,0.3-0.1,0.4
		c-0.1,0.1-0.2,0.2-0.3,0.4c-0.1,0.1-0.3,0.3-0.5,0.5s-0.4,0.5-0.6,0.8c-0.4,0.6-0.6,1.3-0.8,1.9c-0.2,0.6-0.2,1.2-0.2,1.7
		s0.2,0.8,0.6,1.1c0.4,0.2,0.7,0.4,1.1,0.3c0.7-0.1,1.3-0.3,1.8-0.6c0.5-0.4,0.9-0.7,1.3-1.1c0.3-0.4,0.6-0.8,0.8-1.1
		s0.4-0.5,0.5-0.5C136.3,37.8,136.4,38,136.4,38.3z"/>
	<path class="st3" d="M147.2,37.3c0.1,0,0.1,0.1,0.1,0.1s0,0.1-0.1,0.3s-0.2,0.4-0.3,0.6c-0.1,0.2-0.3,0.4-0.5,0.6s-0.4,0.3-0.5,0.3
		c-0.4,0-0.7,0-0.9-0.1s-0.5-0.3-0.6-0.5c-0.2-0.2-0.3-0.5-0.4-0.7c-0.1-0.3-0.2-0.5-0.3-0.8c0-0.1-0.1-0.2-0.1-0.2
		c-0.1,0-0.1,0.2-0.3,0.6c-0.1,0.4-0.3,0.8-0.4,1.3s-0.3,0.9-0.4,1.3c-0.1,0.4-0.2,0.6-0.3,0.6c-0.3,0-0.6-0.1-0.9-0.3
		c-0.2-0.3-0.5-0.6-0.6-0.9c-0.2-0.4-0.3-0.7-0.4-1.1c-0.1-0.4-0.2-0.7-0.2-0.9c-0.1-0.5-0.3-1.3-0.6-2.4c-0.3-1.1-0.6-2.5-0.8-4.1
		c-0.1-0.3-0.1-0.6-0.2-0.9c-0.1-0.3-0.1-0.6-0.2-0.9c-0.1-0.3-0.2-0.7-0.2-1.1c-0.1-0.4-0.1-1-0.2-1.6c0,0,0-0.2,0-0.4s0-0.4,0-0.7
		c0-0.2,0.1-0.4,0.1-0.6c0.1-0.2,0.2-0.3,0.3-0.3s0.2,0.1,0.4,0.2c0.1,0.1,0.2,0.3,0.3,0.5s0.2,0.4,0.2,0.5c0.1,0.2,0.1,0.3,0.1,0.4
		c0,0.3,0,0.5,0,0.8c0,0.2,0,0.5,0,0.6c0,0.3,0.1,0.6,0.2,1c0.1,0.4,0.2,0.8,0.3,1.2s0.2,0.8,0.3,1.2s0.2,0.7,0.2,1
		c0,0,0,0.1,0.1,0.4c0.1,0.2,0.1,0.5,0.2,0.9c0.1,0.3,0.2,0.7,0.2,1.1c0.1,0.4,0.2,0.8,0.3,1.2s0.2,0.7,0.2,1
		c0.1,0.3,0.1,0.5,0.1,0.6s0,0.1,0.1,0.2c0,0.1,0.1,0.2,0.1,0.3s0.1,0.2,0.1,0.3s0.1,0.2,0.2,0.2c0.1-0.2,0.2-0.6,0.3-1
		c0.1-0.5,0.3-0.9,0.4-1.4c0.1-0.5,0.3-0.9,0.4-1.3c0.1-0.4,0.3-0.6,0.4-0.6c0.1,0,0.3,0,0.4,0c0.1,0,0.2,0.1,0.4,0.1
		c0.2,0.1,0.3,0.1,0.3,0.3c0,0.1,0,0.3,0.1,0.4c0.1,0.2,0.1,0.5,0.2,0.8c0.1,0.3,0.2,0.7,0.4,1c0.1,0.3,0.3,0.6,0.5,0.8
		s0.3,0.3,0.5,0.3c0.1,0,0.2-0.1,0.3-0.3s0.3-0.3,0.5-0.4c0,0,0.1,0,0.2,0.1C147,37.1,147.1,37.2,147.2,37.3z"/>
	<path class="st3" d="M166.5,28.3c-0.2,0.3-0.5,0.6-0.9,0.9c-0.4,0.3-0.8,0.6-1.2,0.8c-0.4,0.3-0.8,0.5-1.1,0.7s-0.5,0.3-0.5,0.4
		c0,0.1,0.1,0.2,0.2,0.5c0.1,0.3,0.2,0.6,0.3,0.9c0.1,0.4,0.3,0.7,0.4,1.1c0.1,0.4,0.3,0.7,0.4,1c0.1,0.2,0.1,0.4,0.2,0.7
		c0.1,0.3,0.2,0.6,0.2,0.8c0.1,0.3,0.1,0.5,0.2,0.8c0.1,0.2,0.1,0.3,0.1,0.4c0,0.3,0,0.6-0.1,0.8c-0.1,0.3-0.2,0.5-0.4,0.5
		c-0.1,0-0.2,0-0.3-0.1s-0.2-0.2-0.3-0.3s-0.1-0.2-0.2-0.3c0-0.1-0.1-0.2-0.1-0.2s0-0.1,0-0.2c0-0.1,0-0.2,0-0.2
		c0-0.3-0.1-0.8-0.3-1.5c-0.1-0.2-0.2-0.5-0.3-0.9s-0.3-0.8-0.4-1.2c-0.2-0.5-0.4-1-0.6-1.6c-0.1-0.2-0.2-0.4-0.2-0.4
		c-0.1,0-0.3,0.1-0.6,0.3s-0.6,0.4-1,0.7s-0.7,0.5-1.1,0.8s-0.8,0.6-1.1,0.8c-0.3,0.3-0.6,0.5-0.9,0.6c-0.2,0.2-0.4,0.3-0.5,0.3
		c-0.2,0-0.4,0-0.6-0.2c-0.2-0.1-0.2-0.3-0.3-0.5c0-0.1,0.1-0.3,0.4-0.5c0.3-0.2,0.6-0.5,1-0.8s0.9-0.6,1.4-0.9
		c0.5-0.3,0.9-0.6,1.4-0.9c0.4-0.3,0.9-0.5,1.5-0.9c-0.2-0.8-0.4-1.5-0.6-2.2c-0.1-0.5-0.3-1.1-0.4-1.5c-0.1-0.5-0.2-0.7-0.2-0.7
		c0-0.2,0-0.4,0.1-0.5s0.2-0.2,0.3-0.2c0.2,0,0.3,0.1,0.4,0.4c0.3,1,0.5,1.8,0.8,2.5c0.2,0.7,0.5,1.3,0.7,1.8c0.2,0,0.4-0.2,0.8-0.4
		c0.4-0.2,0.8-0.4,1.2-0.7c0.4-0.2,0.8-0.4,1.1-0.6c0.3-0.2,0.5-0.3,0.6-0.3s0.2,0,0.2,0.1C166.5,28.2,166.5,28.3,166.5,28.3z"/>
	<path class="st3" d="M173.4,34.1c0,0.4,0,0.8-0.1,1.1c-0.1,0.4-0.2,0.7-0.3,1c-0.2,0.3-0.3,0.5-0.6,0.7c-0.2,0.2-0.5,0.3-0.8,0.3
		c-0.5,0-0.9-0.1-1.2-0.3c-0.3-0.3-0.6-0.6-0.7-0.9c-0.2-0.4-0.3-0.7-0.4-1.1c-0.1-0.4-0.1-0.7-0.1-0.9c0-0.3,0-0.7,0.1-1.1
		c0.1-0.4,0.2-0.8,0.3-1.2s0.3-0.7,0.5-0.9c0.2-0.3,0.4-0.4,0.6-0.4c0.1,0,0.1,0,0.3,0c0.1,0,0.2,0.1,0.4,0.1
		c0.1,0.1,0.3,0.1,0.4,0.2c0.1,0.1,0.2,0.2,0.2,0.4c0.2,0,0.4,0.1,0.6,0.2c0.2,0.1,0.3,0.2,0.3,0.3c0.2,0.5,0.3,0.9,0.4,1.4
		C173.3,33.4,173.3,33.8,173.4,34.1z M172.1,33.8c0-0.3-0.1-0.5-0.2-0.8c-0.1-0.3-0.2-0.6-0.4-0.9h-0.1c-0.1,0-0.1,0-0.2,0h-0.1
		c-0.2,0-0.4,0.1-0.5,0.2c-0.1,0.1-0.2,0.3-0.2,0.5s-0.1,0.4-0.1,0.6c0,0.2,0,0.4,0,0.6c0,0.2,0,0.4,0.1,0.7s0.1,0.5,0.2,0.7
		c0.1,0.2,0.2,0.4,0.3,0.5s0.3,0.2,0.5,0.2s0.3-0.1,0.4-0.3c0.1-0.2,0.2-0.4,0.2-0.7s0.1-0.5,0.1-0.8
		C172.1,34,172.1,33.9,172.1,33.8z"/>
</g>
<g class="st2">
	<path class="st3" d="M72.8,59.6c-0.2,0.3-0.5,0.6-0.9,0.9s-0.8,0.6-1.2,0.8c-0.4,0.3-0.8,0.5-1.1,0.7s-0.5,0.3-0.5,0.4
		s0.1,0.2,0.2,0.5s0.2,0.6,0.3,0.9c0.1,0.4,0.3,0.7,0.4,1.1s0.3,0.7,0.4,1c0.1,0.2,0.1,0.4,0.2,0.7c0.1,0.3,0.2,0.6,0.2,0.8
		c0.1,0.3,0.1,0.5,0.2,0.8c0.1,0.2,0.1,0.3,0.1,0.4c0,0.3,0,0.6-0.1,0.8c-0.1,0.3-0.2,0.5-0.4,0.5c-0.1,0-0.2,0-0.3-0.1
		c-0.1-0.1-0.2-0.2-0.3-0.3c-0.1-0.1-0.1-0.2-0.2-0.3c0-0.1-0.1-0.2-0.1-0.2s0-0.1,0-0.2s0-0.2,0-0.2c0-0.3-0.1-0.8-0.3-1.5
		c-0.1-0.2-0.2-0.5-0.3-0.9c-0.1-0.4-0.3-0.8-0.4-1.2c-0.2-0.5-0.4-1-0.6-1.6C68,63.2,67.9,63,67.9,63c-0.1,0-0.3,0.1-0.6,0.3
		c-0.3,0.2-0.6,0.4-1,0.7c-0.4,0.3-0.7,0.5-1.1,0.8s-0.8,0.6-1.1,0.8c-0.3,0.3-0.6,0.5-0.9,0.6c-0.2,0.2-0.4,0.3-0.5,0.3
		c-0.2,0-0.4,0-0.6-0.2c-0.2-0.1-0.2-0.3-0.3-0.5c0-0.1,0.1-0.3,0.4-0.5s0.6-0.5,1-0.8s0.9-0.6,1.4-0.9s0.9-0.6,1.4-0.9
		c0.4-0.3,0.9-0.5,1.5-0.9c-0.2-0.8-0.4-1.5-0.6-2.2c-0.1-0.5-0.3-1.1-0.4-1.5c-0.1-0.5-0.2-0.7-0.2-0.7c0-0.2,0-0.4,0.1-0.5
		s0.2-0.2,0.3-0.2c0.2,0,0.3,0.1,0.4,0.4c0.3,1,0.5,1.8,0.8,2.5c0.2,0.7,0.5,1.3,0.7,1.8c0.2,0,0.4-0.2,0.8-0.4
		c0.4-0.2,0.8-0.4,1.2-0.7c0.4-0.2,0.8-0.4,1.1-0.6c0.3-0.2,0.5-0.3,0.6-0.3s0.2,0,0.2,0.1C72.7,59.5,72.7,59.6,72.8,59.6z"/>
	<path class="st3" d="M83.5,65.9C83.6,66,83.6,66,83.5,65.9c0.1,0.1,0.1,0.2,0,0.4c-0.1,0.2-0.2,0.4-0.3,0.6
		c-0.1,0.2-0.3,0.4-0.5,0.6s-0.4,0.3-0.5,0.3c-0.4,0-0.7,0-0.9-0.1c-0.2-0.1-0.5-0.3-0.6-0.5c-0.2-0.2-0.3-0.5-0.4-0.7
		c-0.1-0.3-0.2-0.5-0.3-0.8c0-0.1-0.1-0.2-0.1-0.2c-0.1,0-0.1,0.2-0.3,0.6c-0.1,0.4-0.3,0.8-0.4,1.3s-0.3,0.9-0.4,1.3
		s-0.2,0.6-0.3,0.6c-0.3,0-0.6-0.1-0.9-0.3c-0.2-0.3-0.5-0.6-0.6-0.9c-0.2-0.4-0.3-0.7-0.4-1.1s-0.2-0.7-0.2-0.9
		c-0.1-0.5-0.3-1.3-0.6-2.4c-0.3-1.1-0.6-2.5-0.8-4.1c-0.1-0.3-0.1-0.6-0.2-0.9s-0.1-0.6-0.2-0.9s-0.2-0.7-0.2-1.1
		c-0.1-0.4-0.1-1-0.2-1.6c0,0,0-0.2,0-0.4c0-0.2,0-0.4,0-0.7c0-0.2,0.1-0.4,0.1-0.6c0.1-0.2,0.2-0.3,0.3-0.3c0.1,0,0.2,0.1,0.4,0.2
		c0.1,0.1,0.2,0.3,0.3,0.5c0.1,0.2,0.2,0.4,0.2,0.6c0.1,0.2,0.1,0.3,0.1,0.4c0,0.3,0,0.5,0,0.8c0,0.2,0,0.5,0,0.6
		c0,0.3,0.1,0.6,0.2,1s0.2,0.8,0.3,1.2c0.1,0.4,0.2,0.8,0.3,1.2c0.1,0.4,0.2,0.7,0.2,1c0,0,0,0.1,0.1,0.4c0.1,0.2,0.1,0.5,0.2,0.9
		c0.1,0.3,0.2,0.7,0.2,1.1c0.1,0.4,0.2,0.8,0.3,1.2c0.1,0.4,0.2,0.7,0.2,1c0.1,0.3,0.1,0.5,0.1,0.6s0,0.1,0.1,0.2
		c0,0.1,0.1,0.2,0.1,0.3c0,0.1,0.1,0.2,0.1,0.3c0,0.1,0.1,0.2,0.2,0.2c0.1-0.2,0.2-0.6,0.3-1c0.1-0.5,0.3-0.9,0.4-1.4
		s0.3-0.9,0.4-1.3s0.3-0.6,0.4-0.6s0.3,0,0.4,0s0.2,0.1,0.4,0.1c0.2,0.1,0.3,0.1,0.3,0.3c0,0.1,0,0.3,0.1,0.4
		c0.1,0.2,0.1,0.5,0.2,0.8s0.2,0.7,0.4,1c0.1,0.3,0.3,0.6,0.5,0.8c0.2,0.2,0.3,0.3,0.5,0.3c0.1,0,0.2-0.1,0.3-0.3
		c0.1-0.2,0.3-0.3,0.5-0.4c0,0,0.1,0,0.2,0.1C83.3,65.8,83.4,65.9,83.5,65.9z"/>
	<path class="st3" d="M92.9,67.3c0,0,0,0.1,0,0.2s-0.1,0.3-0.2,0.5c0,0.1-0.2,0.2-0.3,0.4c-0.2,0.2-0.4,0.4-0.7,0.5
		c-0.3,0.2-0.7,0.4-1.1,0.5c-0.4,0.2-0.9,0.3-1.5,0.3c-0.4,0-0.8,0-1.2-0.2c-0.4-0.2-0.8-0.4-1.1-0.7c-0.3-0.3-0.6-0.8-0.9-1.3
		c-0.2-0.5-0.4-1.2-0.5-1.9c-0.1-0.7,0-1.4,0.1-2s0.3-1.2,0.5-1.7s0.5-0.9,0.8-1.2c0.3-0.3,0.6-0.5,1-0.5c0.3,0,0.6,0,0.9,0.1
		s0.6,0.2,0.8,0.4c0.3,0.2,0.5,0.3,0.6,0.6c0.2,0.2,0.3,0.4,0.3,0.7c0,0.3-0.1,0.6-0.3,0.9c-0.2,0.3-0.5,0.6-0.8,0.9s-0.6,0.5-1,0.7
		c-0.3,0.2-0.6,0.3-0.8,0.3c-0.1,0-0.2,0-0.3-0.1c-0.1-0.1-0.1-0.2-0.2-0.4c0-0.2,0.1-0.5,0.3-0.6c0.2-0.2,0.4-0.3,0.7-0.5
		c0.3-0.1,0.5-0.3,0.7-0.5S89,62.3,89,62c0,0-0.1-0.1-0.2-0.3c-0.1-0.1-0.4-0.2-0.7-0.2c-0.2,0-0.4,0.1-0.6,0.4
		c-0.2,0.2-0.4,0.5-0.6,0.9s-0.3,0.8-0.4,1.3s-0.1,1-0.1,1.6c0,0.5,0.2,0.9,0.4,1.2c0.2,0.4,0.5,0.7,0.7,0.9c0.3,0.2,0.6,0.4,1,0.5
		s0.7,0.2,1.1,0.1c0.3,0,0.6-0.1,0.9-0.3c0.3-0.1,0.6-0.3,0.9-0.5s0.5-0.3,0.7-0.4s0.3-0.2,0.4-0.2s0.1,0,0.2,0.1
		S92.8,67.2,92.9,67.3z"/>
	<path class="st3" d="M113.5,63.4c0,0.2,0,0.4,0,0.6s-0.1,0.4-0.1,0.5s-0.2,0.3-0.5,0.6c-0.3,0.3-0.6,0.7-1,1.1s-0.9,0.7-1.4,1.1
		c-0.5,0.3-1,0.5-1.5,0.6c-0.3,0-0.6,0-0.9-0.1s-0.6-0.2-0.9-0.4c-0.3-0.2-0.5-0.5-0.7-0.8s-0.3-0.8-0.4-1.3c-0.1-0.9,0-1.7,0.2-2.4
		c0.2-0.7,0.5-1.3,0.7-1.7c0.1-0.2,0.3-0.4,0.4-0.6c0.2-0.2,0.4-0.4,0.6-0.6c0.2-0.2,0.4-0.3,0.5-0.5c0.2-0.1,0.3-0.2,0.3-0.2
		c0.2,0,0.3,0,0.5,0.1c0.1,0.1,0.2,0.2,0.2,0.3c0,0.1,0,0.3-0.1,0.4s-0.2,0.2-0.3,0.4c-0.1,0.1-0.3,0.3-0.5,0.5s-0.4,0.5-0.6,0.8
		c-0.4,0.6-0.6,1.3-0.8,1.9s-0.2,1.2-0.2,1.7s0.2,0.8,0.6,1.1c0.4,0.2,0.7,0.4,1.1,0.3c0.7-0.1,1.3-0.3,1.8-0.6
		c0.5-0.4,0.9-0.7,1.3-1.1c0.3-0.4,0.6-0.8,0.8-1.1c0.2-0.3,0.4-0.5,0.5-0.5C113.3,62.9,113.4,63.1,113.5,63.4z"/>
	<path class="st3" d="M128.3,61.4c0,0.3-0.1,0.7-0.3,1.2c-0.3,0.5-0.6,1-1.1,1.5s-1,0.9-1.6,1.3s-1.3,0.6-2,0.7c-0.3,0-0.7,0-1-0.1
		c-0.4-0.1-0.7-0.2-1.1-0.4c-0.4-0.2-0.7-0.4-1-0.7c-0.3-0.3-0.5-0.6-0.7-1c-0.1,0.1-0.2,0.3-0.3,0.6s-0.3,0.5-0.4,0.8
		c-0.2,0.3-0.3,0.5-0.5,0.7s-0.4,0.3-0.6,0.3s-0.4-0.1-0.6-0.3c-0.2-0.2-0.3-0.5-0.4-0.8c-0.1-0.3-0.2-0.6-0.3-0.8
		c-0.1-0.3-0.1-0.4-0.1-0.5c0-0.2,0-0.6,0.1-1.2s0.2-1.3,0.4-1.9c0.2-0.7,0.5-1.3,0.8-1.8s0.8-0.8,1.3-0.9c0.2,0,0.3,0.1,0.4,0.2
		c0.1,0.2,0.1,0.3,0.1,0.5l0.1,0.8c0.1,0.1,0.2,0.1,0.3,0.1s0.2,0,0.3,0.1c0.1,0,0.2,0.1,0.2,0.2c0.1,0.1,0.1,0.2,0.1,0.4
		c0,0.1,0,0.2,0,0.3c0,0.1,0,0.2,0,0.3c0,0.5,0.1,0.9,0.2,1.4c0.1,0.4,0.3,0.8,0.5,1.2c0.2,0.3,0.6,0.6,1,0.8
		c0.4,0.2,0.9,0.3,1.5,0.2c0.8-0.1,1.4-0.3,2-0.7c0.5-0.4,0.9-0.8,1.3-1.2c0.3-0.4,0.6-0.8,0.8-1.2c0.2-0.4,0.3-0.5,0.5-0.5
		C128.2,61,128.3,61.1,128.3,61.4z M118.8,61c0-0.1,0-0.1-0.1-0.2c0-0.1-0.1-0.1-0.1-0.2s0-0.1,0-0.2s0-0.1,0-0.2s0-0.1-0.1-0.1
		l-0.1-0.1c-0.2,0.1-0.3,0.2-0.5,0.5c-0.1,0.3-0.3,0.6-0.4,1c-0.1,0.4-0.2,0.7-0.3,1.1s-0.1,0.7-0.1,0.9c0,0.1,0.1,0.3,0.2,0.6
		c0.1,0.3,0.2,0.5,0.3,0.5c0.2-0.7,0.5-1.3,0.7-1.9C118.8,62.2,118.8,61.6,118.8,61z"/>
	<path class="st3" d="M137.1,58.4c0,0.5-0.1,0.9-0.3,1.4s-0.5,0.9-0.9,1.3c-0.3,0.4-0.7,0.8-1.1,1.1c-0.4,0.4-0.8,0.7-1.2,0.9
		c-0.3,0.3-0.6,0.5-0.8,0.7s-0.3,0.3-0.3,0.4c0,0.2,0.1,0.6,0.2,1c0.1,0.4,0.2,0.9,0.3,1.4s0.2,1,0.4,1.5c0.1,0.5,0.2,1,0.3,1.4
		c0,0,0,0.1,0.1,0.2c0,0.1,0.1,0.3,0.1,0.5c0.1,0.2,0.1,0.3,0.2,0.5c0,0.1,0.1,0.2,0.1,0.3c0,0.1,0,0.3,0,0.4c0,0.2,0,0.3,0,0.4
		s-0.1,0.3-0.2,0.4s-0.2,0.2-0.3,0.2c-0.2,0-0.3-0.1-0.5-0.2c-0.1-0.2-0.2-0.3-0.2-0.5v-0.1v-0.1c0-0.2-0.1-0.7-0.4-1.6
		c-0.2-0.8-0.5-1.9-0.8-3s-0.6-2.4-0.8-3.8c-0.3-1.4-0.4-2.6-0.6-3.9c0-0.1,0-0.2,0-0.3c0-0.1,0-0.2,0-0.3c-0.2,0-0.4,0.1-0.8,0.3
		s-0.7,0.4-1,0.6s-0.6,0.5-0.8,0.7s-0.4,0.5-0.3,0.6h-0.2c-0.1,0-0.1,0-0.2-0.1c-0.1-0.1-0.2-0.1-0.2-0.2c-0.1-0.1-0.1-0.2-0.2-0.3
		c-0.1-0.1-0.1-0.1-0.1-0.2c0-0.4,0.2-0.8,0.6-1.1c0.4-0.4,1-0.7,1.6-1s1.4-0.6,2.2-0.8c0.8-0.2,1.5-0.4,2.3-0.4
		c0.7-0.1,1.3,0,1.8,0.1s0.9,0.3,1.2,0.5s0.5,0.4,0.7,0.6C137,58.1,137.1,58.3,137.1,58.4z M135.8,58.4c0-0.2-0.3-0.3-0.7-0.5
		c-0.5-0.1-1-0.2-1.6-0.1c-0.5,0-0.9,0.1-1.2,0.2s-0.4,0.1-0.5,0.2c0,0.3,0,0.6,0,1s0,0.8,0.1,1.2c0,0.4,0.1,0.8,0.1,1.2
		c0.1,0.4,0.1,0.7,0.2,1c0.2-0.2,0.6-0.4,1-0.8c0.4-0.3,0.8-0.7,1.2-1.1s0.7-0.8,1-1.2C135.7,59.2,135.8,58.8,135.8,58.4z"/>
	<path class="st3" d="M145.4,53.3c-0.2,0.3-0.5,0.6-0.9,0.9s-0.8,0.6-1.2,0.8c-0.4,0.3-0.8,0.5-1.1,0.7s-0.5,0.3-0.5,0.4
		s0.1,0.2,0.2,0.5c0.1,0.3,0.2,0.6,0.3,0.9c0.1,0.4,0.3,0.7,0.4,1.1c0.1,0.4,0.3,0.7,0.4,1c0.1,0.2,0.1,0.4,0.2,0.7
		c0.1,0.3,0.2,0.6,0.2,0.8c0.1,0.3,0.1,0.5,0.2,0.8c0.1,0.2,0.1,0.3,0.1,0.4c0,0.3,0,0.6-0.1,0.8c-0.1,0.3-0.2,0.5-0.4,0.5
		c-0.1,0-0.2,0-0.3-0.1s-0.2-0.2-0.3-0.3c-0.1-0.1-0.1-0.2-0.2-0.3c0-0.1-0.1-0.2-0.1-0.2s0-0.1,0-0.2s0-0.2,0-0.2
		c0-0.3-0.1-0.8-0.3-1.5c-0.1-0.2-0.2-0.5-0.3-0.9s-0.3-0.8-0.4-1.2c-0.2-0.5-0.4-1-0.6-1.6c-0.1-0.2-0.1-0.4-0.2-0.4
		c-0.1,0-0.3,0.1-0.6,0.3c-0.3,0.2-0.6,0.4-1,0.7c-0.4,0.3-0.7,0.5-1.1,0.8s-0.8,0.6-1.1,0.8c-0.3,0.3-0.6,0.5-0.9,0.6
		c-0.2,0.2-0.4,0.3-0.5,0.3c-0.2,0-0.4,0-0.6-0.2c-0.2-0.1-0.2-0.3-0.3-0.5c0-0.1,0.1-0.3,0.4-0.5c0.3-0.2,0.6-0.5,1-0.8
		s0.9-0.6,1.4-0.9s0.9-0.6,1.4-0.9c0.4-0.3,0.9-0.5,1.5-0.9c-0.2-0.8-0.4-1.5-0.6-2.2c-0.1-0.5-0.3-1.1-0.4-1.5
		c-0.1-0.5-0.2-0.7-0.2-0.7c0-0.2,0-0.4,0.1-0.5s0.2-0.2,0.3-0.2c0.2,0,0.3,0.1,0.4,0.4c0.3,1,0.5,1.8,0.8,2.5
		c0.2,0.7,0.5,1.3,0.7,1.8c0.2,0,0.4-0.2,0.8-0.4c0.4-0.2,0.8-0.4,1.2-0.7c0.4-0.2,0.8-0.4,1.1-0.6s0.5-0.3,0.6-0.3s0.2,0,0.2,0.1
		C145.3,53.2,145.3,53.2,145.4,53.3z"/>
	<path class="st3" d="M156.3,60.1c0,0.2-0.1,0.3-0.3,0.5s-0.4,0.4-0.7,0.6s-0.6,0.3-0.8,0.5c-0.3,0.1-0.5,0.2-0.6,0.2
		c-0.2,0-0.3,0-0.5-0.1s-0.4-0.2-0.6-0.3c-0.2-0.1-0.3-0.2-0.5-0.3c-0.1-0.1-0.2-0.2-0.3-0.2c0,0.1-0.1,0.2-0.2,0.3
		c-0.1,0.2-0.2,0.4-0.3,0.6s-0.3,0.4-0.4,0.5c-0.2,0.2-0.3,0.2-0.5,0.3c-0.5,0-0.9-0.2-1.3-0.6c-0.4-0.5-0.7-1-1-1.6
		s-0.5-1.2-0.7-1.8c-0.2-0.6-0.3-1-0.3-1.2c0-0.1,0-0.2,0.2-0.3c0.1-0.1,0.2-0.1,0.3-0.1c0.3,0,0.4,0,0.5,0.2s0.2,0.3,0.2,0.5
		s0.1,0.4,0.2,0.8c0.1,0.4,0.3,0.8,0.5,1.2c0.2,0.4,0.4,0.8,0.6,1.1c0.2,0.3,0.3,0.5,0.5,0.5s0.4-0.2,0.6-0.5
		c0.1-0.3,0.3-0.7,0.3-1.1c0.1-0.4,0.1-0.8,0.1-1.1c0-0.4,0-0.6,0-0.7c0,0,0-0.1,0-0.2s0-0.2,0-0.3c0-0.1,0-0.2,0-0.3
		c0-0.1,0-0.2,0-0.2c0-0.1,0-0.2-0.1-0.2s-0.1-0.1-0.1-0.3c0-0.1,0-0.2,0.1-0.3c0.1-0.1,0.3-0.2,0.7-0.2c0.1,0,0.3,0,0.3,0.1
		c0.1,0.1,0.2,0.2,0.2,0.3c0,0.1,0.1,0.2,0.1,0.3c0,0.1,0,0.2,0,0.2s0,0.1,0,0.4c0,0.2,0,0.5,0,0.8s0,0.5,0,0.8s0,0.4,0,0.5
		s0,0.2,0.1,0.3c0.1,0.2,0.1,0.3,0.2,0.5c0.1,0.2,0.2,0.3,0.3,0.4s0.2,0.2,0.4,0.2s0.4-0.1,0.6-0.1c0.2-0.1,0.4-0.2,0.5-0.3
		c0.2-0.1,0.3-0.2,0.5-0.3c0.1-0.1,0.3-0.1,0.4-0.1c0.2,0,0.3,0,0.5,0.1S156.3,60,156.3,60.1z"/>
	<path class="st3" d="M163.4,55.7c0,0.1,0,0.2-0.1,0.3s-0.2,0.2-0.4,0.2c-0.1,0.1-0.3,0.1-0.4,0.2c-0.1,0-0.3,0.1-0.3,0.1
		c-0.3,0-0.5,0-0.5,0c-0.1,0-0.2,0-0.2,0c-0.4,0-0.8,0.1-1.1,0.2s-0.5,0.2-0.6,0.4c-0.1,0.2-0.2,0.4-0.2,0.6s0,0.5,0,0.9
		c0.1,0.6,0.1,1,0.2,1.4s0.1,0.6,0.2,0.8s0.1,0.4,0.2,0.5c0.1,0.1,0.1,0.2,0.1,0.3c0,0.1-0.1,0.3-0.2,0.5c-0.1,0.2-0.3,0.3-0.4,0.3
		c-0.2,0-0.4-0.2-0.6-0.5c-0.2-0.4-0.4-0.8-0.6-1.3c-0.2-0.5-0.3-1-0.4-1.5s-0.2-0.9-0.2-1.2c0-0.3,0-0.6,0-0.9s0.1-0.5,0.2-0.7
		c0.1-0.2,0.2-0.4,0.3-0.5s0.2-0.2,0.3-0.2s0.2,0,0.2,0.1c0.1,0.1,0.1,0.1,0.2,0.2c0,0.1,0.1,0.1,0.1,0.2s0.1,0.1,0.2,0.1
		c0.2,0,0.4-0.1,0.8-0.3c0.3-0.2,0.8-0.3,1.3-0.4c0.5,0,0.8-0.1,1.1-0.1c0.2,0,0.5,0,0.7,0.1c0.1,0,0.1,0,0.2,0.1
		C163.4,55.5,163.4,55.6,163.4,55.7z"/>
	<path class="st3" d="M173.5,60.2c0,0,0,0.1,0,0.2s-0.1,0.3-0.2,0.5c0,0.1-0.2,0.2-0.3,0.4c-0.2,0.2-0.4,0.4-0.7,0.5
		c-0.3,0.2-0.7,0.4-1.1,0.5c-0.4,0.2-0.9,0.3-1.5,0.3c-0.4,0-0.8,0-1.2-0.2s-0.8-0.4-1.1-0.7c-0.3-0.3-0.6-0.8-0.9-1.3
		c-0.2-0.5-0.4-1.2-0.5-1.9c-0.1-0.7,0-1.4,0.1-2s0.3-1.2,0.5-1.7s0.5-0.9,0.8-1.2c0.3-0.3,0.6-0.5,1-0.5c0.3,0,0.6,0,0.9,0.1
		c0.3,0.1,0.6,0.2,0.8,0.4c0.3,0.2,0.5,0.3,0.6,0.6c0.2,0.2,0.3,0.4,0.3,0.7c0,0.3-0.1,0.6-0.3,0.9s-0.5,0.6-0.8,0.9s-0.6,0.5-1,0.7
		c-0.3,0.2-0.6,0.3-0.8,0.3c-0.1,0-0.2,0-0.3-0.1s-0.1-0.2-0.2-0.4c0-0.2,0.1-0.5,0.3-0.6c0.2-0.2,0.4-0.3,0.7-0.5
		c0.3-0.1,0.5-0.3,0.7-0.5s0.3-0.4,0.3-0.7c0,0-0.1-0.1-0.2-0.3c-0.1-0.1-0.4-0.2-0.7-0.2c-0.2,0-0.4,0.1-0.6,0.4s-0.4,0.5-0.6,0.9
		c-0.2,0.4-0.3,0.8-0.4,1.3c-0.1,0.5-0.1,1-0.1,1.6c0,0.5,0.2,0.9,0.4,1.2c0.2,0.4,0.5,0.7,0.7,0.9c0.3,0.2,0.6,0.4,1,0.5
		s0.7,0.2,1.1,0.1c0.3,0,0.6-0.1,0.9-0.3c0.3-0.1,0.6-0.3,0.9-0.5c0.3-0.2,0.5-0.3,0.7-0.4s0.3-0.2,0.4-0.2c0.1,0,0.1,0,0.2,0.1
		S173.5,60.2,173.5,60.2z"/>
	<path class="st3" d="M178.1,61.8c0,0.2,0,0.5-0.2,0.9c-0.1,0.4-0.3,0.8-0.5,1.2c-0.2,0.4-0.4,0.7-0.7,1.1s-0.5,0.5-0.8,0.5
		c-0.1,0-0.3,0-0.4-0.1c-0.1-0.1-0.2-0.2-0.2-0.2s0.1-0.1,0.2-0.4c0.2-0.2,0.3-0.5,0.5-0.8s0.4-0.6,0.5-1s0.2-0.7,0.2-1
		s-0.1-0.6-0.2-0.8c-0.1-0.2-0.2-0.3-0.3-0.4s-0.2-0.2-0.3-0.3c-0.1-0.1-0.1-0.2-0.2-0.4c0-0.3,0.1-0.4,0.4-0.4s0.5,0,0.8,0.2
		c0.2,0.2,0.4,0.4,0.6,0.6c0.2,0.2,0.3,0.5,0.4,0.8C178,61.4,178.1,61.6,178.1,61.8z"/>
</g>
<g class="st2">
	<path class="st3" d="M80.1,91.8c0,0.1,0,0.3-0.1,0.4s-0.2,0.2-0.3,0.3c-0.1,0.1-0.2,0.1-0.4,0.2c-0.1,0-0.2,0.1-0.3,0.1
		c-0.4,0-0.7-0.1-1-0.5s-0.6-0.8-0.8-1.3c-0.2-0.5-0.4-0.9-0.5-1.4c-0.1-0.4-0.2-0.7-0.2-0.7c-0.1,0.2-0.2,0.5-0.2,1
		c-0.1,0.5-0.2,1-0.3,1.4c-0.1,0.5-0.3,0.9-0.5,1.3s-0.5,0.6-0.9,0.6c-0.2,0-0.4-0.1-0.5-0.3c-0.2-0.2-0.4-0.5-0.5-0.8
		c-0.2-0.3-0.3-0.7-0.5-1.1s-0.3-0.8-0.5-1.2s-0.3-0.8-0.5-1.1c-0.2-0.4-0.3-0.6-0.5-0.8c-0.1,0.3-0.1,0.7-0.2,1.1
		c0,0.5-0.1,1-0.1,1.5s0,1,0,1.5s0,0.9,0.1,1.3c0,0.3,0,0.4-0.2,0.6s-0.3,0.2-0.4,0.2c-0.2,0-0.4-0.1-0.6-0.3
		c-0.2-0.2-0.4-0.6-0.7-1c-0.2-0.4-0.5-0.8-0.7-1.4c-0.2-0.5-0.4-1-0.6-1.5s-0.3-1-0.4-1.5s-0.2-0.9-0.2-1.2c0-0.2,0-0.5,0-0.6
		c0-0.2,0-0.3,0-0.5c0-0.1,0-0.2,0-0.2c0-0.1,0-0.1,0-0.1s0-0.1-0.1-0.1c0-0.1,0.1-0.1,0.2-0.3c0.1-0.1,0.3-0.2,0.4-0.2
		c0.3,0,0.4,0,0.5,0.1s0.1,0.2,0.2,0.4c0,0.1,0,0.1,0,0.2s0,0.4,0,0.7c0,0.3,0.1,0.6,0.2,1.1s0.3,1,0.5,1.5s0.3,1,0.5,1.4
		s0.3,0.7,0.4,0.8c0-0.1,0-0.2,0-0.3c0-0.1,0-0.2,0-0.2l0.1-2.2c0-0.6,0.1-1.2,0.3-1.8c0.2-0.6,0.4-1.1,0.6-1.5
		c0.1-0.2,0.2-0.2,0.3-0.2c0.1,0,0.2,0.1,0.3,0.2c0.3,0.5,0.6,1,0.8,1.4c0.2,0.5,0.4,1,0.5,1.4c0.2,0.5,0.3,0.9,0.5,1.4
		s0.5,0.9,0.8,1.4c0.1-0.2,0.3-0.6,0.4-1.2c0.2-0.5,0.3-1.1,0.5-1.7s0.3-1,0.5-1.5c0.2-0.4,0.3-0.6,0.4-0.6s0.1,0,0.3,0
		c0.1,0,0.2,0,0.3,0c0.2,0,0.3,0.2,0.5,0.5c0.1,0.4,0.3,0.8,0.4,1.3s0.2,1,0.4,1.5c0.1,0.5,0.3,0.9,0.4,1.1s0.2,0.3,0.4,0.5
		c0.2,0.1,0.3,0.3,0.5,0.4C79.8,91.5,80,91.6,80.1,91.8z"/>
	<path class="st3" d="M94.8,87.4c0,0.3-0.1,0.7-0.3,1.2c-0.3,0.5-0.6,1-1.1,1.5s-1,0.9-1.6,1.3s-1.3,0.6-2,0.7c-0.3,0-0.7,0-1-0.1
		c-0.4-0.1-0.7-0.2-1.1-0.4s-0.7-0.4-1-0.7c-0.3-0.3-0.5-0.6-0.7-1c-0.1,0.1-0.2,0.3-0.3,0.6c-0.1,0.3-0.3,0.5-0.4,0.8
		c-0.2,0.3-0.3,0.5-0.5,0.7s-0.4,0.3-0.6,0.3s-0.4-0.1-0.6-0.3c-0.2-0.2-0.3-0.5-0.4-0.8s-0.2-0.6-0.3-0.8c-0.1-0.3-0.1-0.4-0.1-0.5
		c0-0.2,0-0.6,0.1-1.2s0.2-1.3,0.4-1.9c0.2-0.7,0.5-1.3,0.8-1.8s0.8-0.8,1.3-0.9c0.2,0,0.3,0.1,0.4,0.2c0.1,0.2,0.1,0.3,0.1,0.5
		l0.1,0.8c0.1,0.1,0.2,0.1,0.3,0.1c0.1,0,0.2,0,0.3,0.1c0.1,0,0.2,0.1,0.2,0.2c0.1,0.1,0.1,0.2,0.1,0.4c0,0.1,0,0.2,0,0.3
		c0,0.1,0,0.2,0,0.3c0,0.5,0.1,0.9,0.2,1.4c0.1,0.4,0.3,0.8,0.5,1.2c0.2,0.3,0.6,0.6,1,0.8c0.4,0.2,0.9,0.3,1.5,0.2
		c0.8-0.1,1.4-0.3,2-0.7c0.5-0.4,0.9-0.8,1.3-1.2s0.6-0.8,0.8-1.2c0.2-0.3,0.4-0.5,0.5-0.5C94.7,87.1,94.8,87.2,94.8,87.4z M85.3,87
		c0-0.1,0-0.1-0.1-0.2c0-0.1-0.1-0.1-0.1-0.2s0-0.1,0-0.2s0-0.1,0-0.2s0-0.1-0.1-0.1L84.9,86c-0.2,0.1-0.3,0.2-0.5,0.5
		c-0.1,0.3-0.3,0.6-0.4,1s-0.2,0.7-0.3,1.1c-0.1,0.4-0.1,0.7-0.1,0.9c0,0.1,0.1,0.3,0.2,0.6c0.1,0.3,0.2,0.5,0.3,0.5
		c0.2-0.7,0.5-1.3,0.7-1.9C85.2,88.2,85.3,87.6,85.3,87z"/>
	<path class="st3" d="M103.4,88.9c0,0.1,0,0.2-0.1,0.3c-0.1,0.1-0.1,0.2-0.2,0.3c-0.1,0.1-0.2,0.2-0.3,0.3c-0.1,0.1-0.2,0.1-0.3,0.1
		c-0.3,0-0.7,0-1.2-0.1s-0.9-0.3-1.2-0.5c-0.3-0.3-0.6-0.6-0.9-1s-0.6-1-0.9-1.8c-0.1,0.8-0.3,1.6-0.5,2.4s-0.5,1.5-1.1,2.2
		c0,0-0.1,0.1-0.2,0.1c-0.1,0-0.3,0-0.4-0.2c-0.2-0.1-0.2-0.2-0.2-0.4c0-0.1,0-0.4-0.1-0.9s-0.1-1-0.2-1.5c-0.1-0.6-0.2-1.1-0.2-1.7
		c-0.1-0.6-0.1-1.1-0.2-1.4c0-0.2,0-0.4,0-0.7c0-0.3,0-0.6,0.1-0.8c0,0,0.1-0.1,0.2-0.2s0.2-0.2,0.4-0.2c0.1,0,0.2,0.1,0.2,0.2
		c0,0.2,0.1,0.3,0.1,0.5l0.4,4.2c0,0.1,0,0.2,0.1,0.4c0,0.2,0.1,0.3,0.2,0.3c0.2-0.4,0.3-1,0.4-1.6c0.1-0.6,0.2-1.2,0.4-1.7
		c0.1-0.5,0.2-1,0.4-1.4c0.1-0.4,0.3-0.6,0.4-0.6c0.2,0,0.3,0,0.4,0.1c0.1,0.1,0.2,0.2,0.3,0.4c0.1,0.5,0.2,1,0.3,1.4
		s0.2,0.8,0.3,1.1c0.1,0.3,0.3,0.6,0.4,0.9c0.2,0.3,0.4,0.5,0.7,0.7s0.6,0.4,0.9,0.4c0.3,0.1,0.6,0.1,0.8,0.1c0.1,0,0.2,0,0.3-0.1
		s0.2-0.1,0.3-0.1s0.1,0.1,0.2,0.2C103.4,88.8,103.4,88.9,103.4,88.9z"/>
	<path class="st3" d="M117.4,85.4c0,0.3-0.1,0.7-0.3,1.2c-0.3,0.5-0.6,1-1.1,1.5s-1,0.9-1.6,1.3s-1.3,0.6-2,0.7c-0.3,0-0.7,0-1-0.1
		c-0.4-0.1-0.7-0.2-1.1-0.4c-0.4-0.2-0.7-0.4-1-0.7c-0.3-0.3-0.5-0.6-0.7-1c-0.1,0.1-0.2,0.3-0.3,0.6s-0.3,0.5-0.4,0.8
		c-0.2,0.3-0.3,0.5-0.5,0.7s-0.4,0.3-0.6,0.3c-0.2,0-0.4-0.1-0.6-0.3c-0.2-0.2-0.3-0.5-0.4-0.8c-0.1-0.3-0.2-0.6-0.3-0.8
		c-0.1-0.3-0.1-0.4-0.1-0.5c0-0.2,0-0.6,0.1-1.2s0.2-1.3,0.4-1.9c0.2-0.7,0.5-1.3,0.8-1.8s0.8-0.8,1.3-0.9c0.2,0,0.3,0.1,0.4,0.2
		c0.1,0.2,0.1,0.3,0.1,0.5l0.1,0.8c0.1,0.1,0.2,0.1,0.3,0.1s0.2,0,0.3,0.1c0.1,0,0.2,0.1,0.2,0.2c0.1,0.1,0.1,0.2,0.1,0.4
		c0,0.1,0,0.2,0,0.3c0,0.1,0,0.2,0,0.3c0,0.5,0.1,0.9,0.2,1.4c0.1,0.4,0.3,0.8,0.5,1.2c0.2,0.3,0.6,0.6,1,0.8
		c0.4,0.2,0.9,0.3,1.5,0.2c0.8-0.1,1.4-0.3,2-0.7c0.5-0.4,0.9-0.8,1.3-1.2c0.3-0.4,0.6-0.8,0.8-1.2c0.2-0.4,0.3-0.5,0.5-0.5
		C117.2,85.1,117.4,85.2,117.4,85.4z M107.8,85.1c0-0.1,0-0.1-0.1-0.2c0-0.1-0.1-0.1-0.1-0.2s0-0.1,0-0.2s0-0.1,0-0.2s0-0.1-0.1-0.1
		l-0.1-0.1c-0.2,0.1-0.3,0.2-0.5,0.5c-0.1,0.3-0.3,0.6-0.4,1c-0.1,0.4-0.2,0.7-0.3,1.1s-0.1,0.7-0.1,0.9c0,0.1,0.1,0.3,0.2,0.6
		c0.1,0.3,0.2,0.5,0.3,0.5c0.2-0.7,0.5-1.3,0.7-1.9C107.8,86.2,107.9,85.6,107.8,85.1z"/>
	<path class="st3" d="M124.6,88c0,0.2,0,0.3-0.2,0.4c-0.1,0.1-0.2,0.2-0.2,0.3c0,0,0,0.1,0.1,0.3c0.1,0.2,0.2,0.4,0.3,0.7
		c0.2,0.5,0.3,0.9,0.4,1.2c0.1,0.3,0.2,0.7,0.3,1s0.2,0.6,0.2,0.9c0.1,0.3,0.1,0.6,0.1,1s0,0.8-0.1,1.2c-0.1,0.4-0.2,0.8-0.4,1.1
		c-0.2,0.3-0.5,0.6-0.8,0.8c-0.3,0.2-0.7,0.4-1.1,0.4c-0.7,0.1-1.2,0-1.6-0.3c-0.4-0.2-0.7-0.5-1-0.8c-0.2-0.3-0.4-0.6-0.5-1
		c-0.1-0.3-0.1-0.5-0.1-0.7c-0.1-0.7,0.1-1.3,0.3-2c0.3-0.7,0.6-1.3,1-1.9s0.7-1.1,1-1.4c0.3-0.4,0.5-0.6,0.5-0.7l-0.4-0.9
		c-0.2,0.2-0.3,0.5-0.4,0.8c-0.1,0.3-0.2,0.5-0.4,0.8c-0.1,0.2-0.3,0.4-0.5,0.6s-0.4,0.3-0.7,0.3s-0.7,0-1-0.2s-0.7-0.4-0.9-0.8
		c-0.3-0.4-0.5-0.8-0.7-1.4c-0.2-0.5-0.3-1.2-0.4-1.9c0-0.4,0-0.9,0.1-1.6c0.1-0.6,0.2-1.2,0.4-1.8c0.2-0.6,0.5-1.1,0.9-1.6
		c0.4-0.4,0.8-0.7,1.4-0.7c0.3,0,0.6,0,0.9,0.1c0.3,0.1,0.4,0.2,0.4,0.4c0,0.1,0,0.3,0,0.4s-0.1,0.2-0.2,0.3c-0.1,0-0.1-0.1-0.2-0.1
		c-0.1,0-0.2,0-0.3,0c-0.4,0-0.7,0.2-1,0.6s-0.5,0.8-0.7,1.4c-0.2,0.5-0.3,1.1-0.4,1.6c-0.1,0.6-0.1,1.1,0,1.5
		c0.1,0.9,0.3,1.6,0.6,2s0.7,0.7,1,0.6c0.2,0,0.3-0.2,0.5-0.4c0.2-0.3,0.3-0.5,0.5-0.9s0.3-0.6,0.4-0.9c0.1-0.3,0.2-0.4,0.2-0.5
		c0-0.2,0-0.4,0-0.6s0-0.4-0.1-0.7c0-0.2-0.1-0.5-0.1-0.7c0-0.5,0-0.9,0-1.2c0-0.3,0.2-0.5,0.5-0.5s0.5,0,0.6,0.2s0.2,0.4,0.2,0.6
		s0,0.4,0,0.6s0,0.4,0,0.6s0,0.4,0,0.5c0,0.2,0,0.2,0,0.3c0,0.1,0,0.3,0.1,0.5c0,0.2,0.1,0.4,0.1,0.6s0.1,0.4,0.1,0.6
		s0.1,0.3,0.1,0.3c0,0.1,0.1,0.1,0.1,0.2s0.1,0.2,0.1,0.2s0-0.1,0.1-0.1l0.1-0.1c0.1,0,0.2,0.1,0.3,0.3
		C124.6,87.9,124.6,88,124.6,88z M124,91.5c-0.1-0.3-0.2-0.6-0.3-0.8c-0.1-0.3-0.2-0.6-0.3-0.9c-0.3,0.4-0.5,0.8-0.8,1.2
		c-0.2,0.4-0.5,0.7-0.7,1.1s-0.3,0.7-0.4,1.1c-0.1,0.4-0.1,0.8-0.1,1.2c0,0.6,0.2,1,0.6,1.3c0.3,0.3,0.7,0.5,1.1,0.4
		c0.4,0,0.8-0.2,1.1-0.6c0.3-0.3,0.5-0.8,0.4-1.4c0-0.4-0.1-0.7-0.1-0.9c0-0.3-0.1-0.5-0.1-0.7s-0.1-0.4-0.2-0.5
		C124.2,92,124.1,91.8,124,91.5z"/>
	<path class="st3" d="M134.3,86.7c0,0,0,0.1,0,0.2s-0.1,0.3-0.2,0.5c0,0.1-0.2,0.2-0.3,0.4c-0.2,0.2-0.4,0.4-0.7,0.5
		c-0.3,0.2-0.7,0.4-1.1,0.5c-0.4,0.2-0.9,0.3-1.5,0.3c-0.4,0-0.8,0-1.2-0.2s-0.8-0.4-1.1-0.7c-0.3-0.3-0.6-0.8-0.9-1.3
		c-0.2-0.5-0.4-1.2-0.5-1.9c-0.1-0.7,0-1.4,0.1-2s0.3-1.2,0.5-1.7s0.5-0.9,0.8-1.2c0.3-0.3,0.6-0.5,1-0.5c0.3,0,0.6,0,0.9,0.1
		c0.3,0.1,0.6,0.2,0.8,0.4c0.3,0.2,0.5,0.3,0.6,0.6c0.2,0.2,0.3,0.4,0.3,0.7c0,0.3-0.1,0.6-0.3,0.9s-0.5,0.6-0.8,0.9s-0.6,0.5-1,0.7
		c-0.3,0.2-0.6,0.3-0.8,0.3c-0.1,0-0.2,0-0.3-0.1s-0.1-0.2-0.2-0.4c0-0.2,0.1-0.5,0.3-0.6c0.2-0.2,0.4-0.3,0.7-0.5
		c0.3-0.1,0.5-0.3,0.7-0.5s0.3-0.4,0.3-0.7c0,0-0.1-0.1-0.2-0.3c-0.1-0.1-0.4-0.2-0.7-0.2c-0.2,0-0.4,0.1-0.6,0.4s-0.4,0.5-0.6,0.9
		c-0.2,0.4-0.3,0.8-0.4,1.3c-0.1,0.5-0.1,1-0.1,1.6c0,0.5,0.2,0.9,0.4,1.2c0.2,0.4,0.5,0.7,0.7,0.9c0.3,0.2,0.6,0.4,1,0.5
		s0.7,0.2,1.1,0.1c0.3,0,0.6-0.1,0.9-0.3c0.3-0.1,0.6-0.3,0.9-0.5c0.3-0.2,0.5-0.3,0.7-0.4s0.3-0.2,0.4-0.2c0.1,0,0.1,0,0.2,0.1
		C134.3,86.6,134.3,86.7,134.3,86.7z"/>
	<path class="st3" d="M148.2,85.8c0,0.1,0,0.3-0.1,0.4s-0.2,0.2-0.3,0.3c-0.1,0.1-0.2,0.1-0.4,0.2c-0.1,0-0.2,0.1-0.3,0.1
		c-0.4,0-0.7-0.1-1-0.5s-0.6-0.8-0.8-1.3s-0.4-0.9-0.5-1.4c-0.1-0.4-0.2-0.7-0.2-0.7c-0.1,0.2-0.2,0.5-0.2,1c-0.1,0.5-0.2,1-0.3,1.4
		c-0.1,0.5-0.3,0.9-0.5,1.3s-0.5,0.6-0.9,0.6c-0.2,0-0.4-0.1-0.5-0.3c-0.2-0.2-0.4-0.5-0.5-0.8c-0.2-0.3-0.3-0.7-0.5-1.1
		s-0.3-0.8-0.5-1.2c-0.2-0.4-0.3-0.8-0.5-1.1c-0.2-0.4-0.3-0.6-0.5-0.8c-0.1,0.3-0.1,0.7-0.2,1.1c0,0.5-0.1,1-0.1,1.5s0,1,0,1.5
		s0,0.9,0.1,1.3c0,0.3,0,0.4-0.2,0.6c-0.1,0.1-0.3,0.2-0.4,0.2c-0.2,0-0.4-0.1-0.6-0.3c-0.2-0.2-0.4-0.6-0.7-1
		c-0.2-0.4-0.5-0.8-0.7-1.4c-0.2-0.5-0.4-1-0.6-1.5c-0.2-0.5-0.3-1-0.4-1.5c-0.1-0.5-0.2-0.9-0.2-1.2c0-0.2,0-0.5,0-0.6
		c0-0.2,0-0.3,0-0.5c0-0.1,0-0.2,0-0.2c0-0.1,0-0.1,0-0.1s0-0.1-0.1-0.1c0-0.1,0.1-0.1,0.2-0.3c0.1-0.1,0.3-0.2,0.4-0.2
		c0.3,0,0.4,0,0.5,0.1s0.1,0.2,0.2,0.4c0,0.1,0,0.1,0,0.2s0,0.4,0.1,0.7c0,0.3,0.1,0.6,0.2,1.1s0.3,1,0.5,1.5s0.3,1,0.5,1.4
		s0.3,0.7,0.4,0.8c0-0.1,0-0.2,0-0.3c0-0.1,0-0.2,0-0.2l0.1-2.2c0-0.6,0.1-1.2,0.3-1.8c0.2-0.6,0.4-1.1,0.6-1.5
		c0.1-0.2,0.2-0.2,0.3-0.2s0.2,0.1,0.3,0.2c0.3,0.5,0.6,1,0.8,1.4c0.2,0.5,0.4,1,0.5,1.4c0.2,0.5,0.3,0.9,0.5,1.4s0.5,0.9,0.8,1.4
		c0.1-0.2,0.3-0.6,0.4-1.2c0.2-0.5,0.3-1.1,0.5-1.7s0.3-1,0.5-1.5c0.2-0.4,0.3-0.6,0.4-0.6c0.1,0,0.1,0,0.3,0c0.1,0,0.2,0,0.3,0
		c0.2,0,0.3,0.2,0.5,0.5c0.1,0.4,0.3,0.8,0.4,1.3s0.2,1,0.4,1.5c0.1,0.5,0.2,0.8,0.4,1.1c0.1,0.2,0.2,0.3,0.4,0.5
		c0.2,0.1,0.3,0.3,0.5,0.4C147.8,85.5,148,85.7,148.2,85.8z"/>
	<path class="st3" d="M157.8,84.7c0,0,0,0.1,0,0.2s-0.1,0.3-0.2,0.5c0,0.1-0.2,0.2-0.3,0.4c-0.2,0.2-0.4,0.4-0.7,0.5
		c-0.3,0.2-0.7,0.4-1.1,0.5c-0.4,0.2-0.9,0.3-1.5,0.3c-0.4,0-0.8,0-1.2-0.2s-0.8-0.4-1.1-0.7c-0.3-0.3-0.6-0.8-0.9-1.3
		c-0.2-0.5-0.4-1.2-0.5-1.9c-0.1-0.7,0-1.4,0.1-2s0.3-1.2,0.5-1.7s0.5-0.9,0.8-1.2c0.3-0.3,0.6-0.5,1-0.5c0.3,0,0.6,0,0.9,0.1
		c0.3,0.1,0.6,0.2,0.8,0.4c0.3,0.2,0.5,0.3,0.6,0.6c0.2,0.2,0.3,0.4,0.3,0.7c0,0.3-0.1,0.6-0.3,0.9s-0.5,0.6-0.8,0.9s-0.6,0.5-1,0.7
		c-0.3,0.2-0.6,0.3-0.8,0.3c-0.1,0-0.2,0-0.3-0.1s-0.1-0.2-0.2-0.4c0-0.2,0.1-0.5,0.3-0.6c0.2-0.2,0.4-0.3,0.7-0.5
		c0.3-0.1,0.5-0.3,0.7-0.5s0.3-0.4,0.3-0.7c0,0-0.1-0.1-0.2-0.3c-0.1-0.1-0.4-0.2-0.7-0.2c-0.2,0-0.4,0.1-0.6,0.4
		c-0.2,0.2-0.4,0.5-0.6,0.9c-0.2,0.4-0.3,0.8-0.4,1.3c-0.1,0.5-0.1,1-0.1,1.6c0,0.5,0.2,0.9,0.4,1.2c0.2,0.4,0.5,0.7,0.7,0.9
		c0.3,0.2,0.6,0.4,1,0.5s0.7,0.2,1.1,0.1c0.3,0,0.6-0.1,0.9-0.3c0.3-0.1,0.6-0.3,0.9-0.5c0.3-0.2,0.5-0.3,0.7-0.4s0.3-0.2,0.4-0.2
		c0.1,0,0.1,0,0.2,0.1S157.8,84.6,157.8,84.7z"/>
	<path class="st3" d="M167.7,83.3c0,0.1,0,0.2-0.1,0.3c-0.1,0.1-0.1,0.2-0.2,0.3c-0.1,0.1-0.2,0.2-0.3,0.3c-0.1,0.1-0.2,0.1-0.3,0.1
		c-0.3,0-0.7,0-1.2-0.1s-0.9-0.3-1.2-0.5c-0.3-0.3-0.6-0.6-0.9-1c-0.3-0.4-0.6-1-0.9-1.8c-0.1,0.8-0.3,1.6-0.5,2.4s-0.5,1.5-1.1,2.2
		c0,0-0.1,0.1-0.2,0.1c-0.1,0-0.3,0-0.4-0.2c-0.2-0.1-0.2-0.2-0.2-0.4c0-0.1,0-0.4-0.1-0.9s-0.1-1-0.2-1.5c-0.1-0.6-0.2-1.1-0.2-1.7
		c-0.1-0.6-0.1-1.1-0.2-1.4c0-0.2,0-0.4,0-0.7c0-0.3,0-0.6,0.1-0.8c0,0,0.1-0.1,0.2-0.2c0.1-0.1,0.2-0.2,0.4-0.2
		c0.1,0,0.2,0.1,0.2,0.2c0,0.2,0.1,0.3,0.1,0.5l0.4,4.2c0,0.1,0,0.2,0.1,0.4c0,0.2,0.1,0.3,0.2,0.3c0.2-0.4,0.3-1,0.4-1.6
		c0.1-0.6,0.2-1.2,0.4-1.7c0.1-0.5,0.2-1,0.4-1.4c0.1-0.4,0.3-0.6,0.4-0.6c0.2,0,0.3,0,0.4,0.1c0.1,0.1,0.2,0.2,0.3,0.4
		c0.1,0.5,0.2,1,0.3,1.4s0.2,0.8,0.3,1.1c0.1,0.3,0.3,0.6,0.4,0.9c0.2,0.3,0.4,0.5,0.7,0.7s0.6,0.4,0.9,0.4c0.3,0.1,0.6,0.1,0.8,0.1
		c0.1,0,0.2,0,0.3-0.1s0.2-0.1,0.3-0.1s0.1,0.1,0.2,0.2C167.7,83.2,167.7,83.3,167.7,83.3z"/>
	<path class="st3" d="M175.5,73.7c-0.2,0.3-0.5,0.6-0.9,0.9s-0.8,0.6-1.2,0.8c-0.4,0.3-0.8,0.5-1.1,0.7s-0.5,0.3-0.5,0.4
		s0.1,0.2,0.2,0.5c0.1,0.3,0.2,0.6,0.3,0.9c0.1,0.4,0.3,0.7,0.4,1.1c0.1,0.4,0.3,0.7,0.4,1c0.1,0.2,0.1,0.4,0.2,0.7
		c0.1,0.3,0.2,0.6,0.2,0.8c0.1,0.3,0.1,0.5,0.2,0.8c0.1,0.2,0.1,0.3,0.1,0.4c0,0.3,0,0.6-0.1,0.8c-0.1,0.3-0.2,0.5-0.4,0.5
		c-0.1,0-0.2,0-0.3-0.1s-0.2-0.2-0.3-0.3c-0.1-0.1-0.1-0.2-0.2-0.3c0-0.1-0.1-0.2-0.1-0.2s0-0.1,0-0.2s0-0.2,0-0.2
		c0-0.3-0.1-0.8-0.3-1.5c-0.1-0.2-0.2-0.5-0.3-0.9s-0.3-0.8-0.4-1.2c-0.2-0.5-0.4-1-0.6-1.6c-0.1-0.2-0.2-0.4-0.2-0.4
		c-0.1,0-0.3,0.1-0.6,0.3c-0.3,0.2-0.6,0.4-1,0.7c-0.4,0.3-0.7,0.5-1.1,0.8s-0.8,0.6-1.1,0.8c-0.3,0.3-0.6,0.5-0.9,0.6
		c-0.2,0.2-0.4,0.3-0.5,0.3c-0.2,0-0.4,0-0.6-0.2c-0.2-0.1-0.2-0.3-0.3-0.5c0-0.1,0.1-0.3,0.4-0.5c0.3-0.2,0.6-0.5,1-0.8
		s0.9-0.6,1.4-0.9s0.9-0.6,1.4-0.9c0.4-0.3,0.9-0.5,1.5-0.9c-0.2-0.8-0.4-1.5-0.6-2.2c-0.1-0.5-0.3-1.1-0.4-1.5
		c-0.1-0.5-0.2-0.7-0.2-0.7c0-0.2,0-0.4,0.1-0.5s0.2-0.2,0.3-0.2c0.2,0,0.3,0.1,0.4,0.4c0.3,1,0.5,1.8,0.8,2.5s0.5,1.3,0.7,1.8
		c0.2,0,0.4-0.2,0.8-0.4c0.4-0.2,0.8-0.4,1.2-0.7c0.4-0.2,0.8-0.4,1.1-0.6s0.5-0.3,0.6-0.3s0.2,0,0.2,0.1
		C175.4,73.6,175.4,73.7,175.5,73.7z"/>
	<path class="st3" d="M180.4,84.7c0,0.2,0,0.5-0.2,0.9c-0.1,0.4-0.3,0.8-0.5,1.2c-0.2,0.4-0.4,0.7-0.7,1.1c-0.3,0.3-0.5,0.5-0.8,0.5
		c-0.1,0-0.3,0-0.4-0.1c-0.1-0.1-0.2-0.2-0.2-0.2s0.1-0.1,0.2-0.4c0.2-0.2,0.3-0.5,0.5-0.8s0.4-0.6,0.5-1s0.2-0.7,0.2-1
		s-0.1-0.6-0.2-0.8c-0.1-0.2-0.2-0.3-0.3-0.4s-0.2-0.2-0.3-0.3c-0.1-0.1-0.1-0.2-0.2-0.4c0-0.3,0.1-0.4,0.4-0.4c0.3,0,0.5,0,0.8,0.2
		c0.2,0.2,0.4,0.4,0.6,0.6c0.2,0.2,0.3,0.5,0.4,0.8C180.3,84.3,180.4,84.5,180.4,84.7z"/>
</g>
<g class="st2">
	<path class="st3" d="M75.7,112.9c0,0.3-0.1,0.5-0.4,0.7c-0.2,0.1-0.5,0.2-0.8,0.4c-0.3,0.2-0.7,0.4-1,0.6c-0.4,0.2-0.7,0.3-1,0.5
		c-0.3,0.1-0.6,0.2-0.8,0.2c-0.4,0-0.7,0-1-0.1s-0.4-0.3-0.4-0.5c0-0.3,0-0.6,0.1-0.8c0.1-0.2,0.2-0.4,0.3-0.6c0,0-0.1,0-0.2-0.1
		c-0.1,0-0.3-0.1-0.4-0.1c-0.1-0.1-0.3-0.1-0.4-0.2s-0.2-0.2-0.2-0.3c0-0.3,0.1-0.7,0.4-1.1s0.7-0.9,1.1-1.3s0.8-0.8,1.2-1.1
		c0.4-0.3,0.6-0.5,0.7-0.5c0.1-0.1,0.3-0.2,0.5-0.3c0.2-0.1,0.4-0.2,0.4-0.2c0.2,0,0.4,0.1,0.4,0.3c0,0.1,0,0.3,0,0.4
		c0,0.2-0.1,0.2-0.2,0.3c-0.1,0-0.2,0-0.2,0c-0.1,0-0.1,0-0.1,0c-0.1,0-0.2,0.1-0.4,0.2c-0.2,0.1-0.3,0.2-0.4,0.3
		c-0.2,0.1-0.3,0.3-0.5,0.5s-0.4,0.4-0.6,0.6s-0.4,0.4-0.5,0.7c-0.2,0.2-0.3,0.4-0.4,0.6c0,0,0.1,0,0.2,0s0.2,0,0.2,0
		c0.1,0,0.2-0.1,0.3-0.1c0.1-0.1,0.2-0.2,0.3-0.3c0.1-0.1,0.2-0.2,0.4-0.3c0.1-0.1,0.2-0.1,0.4-0.1c0.2,0,0.3,0,0.4,0.1
		s0.2,0.2,0.2,0.2c0,0.3-0.1,0.6-0.3,0.9c-0.2,0.3-0.5,0.5-0.7,0.7c0,0.1-0.1,0.2-0.1,0.3c0,0.2,0.1,0.2,0.3,0.2
		c0.1,0,0.3-0.1,0.6-0.2c0.2-0.1,0.5-0.3,0.8-0.5s0.6-0.3,0.9-0.5c0.3-0.1,0.5-0.2,0.8-0.2c0.2,0,0.3,0,0.4,0.2
		C75.7,112.7,75.7,112.8,75.7,112.9z M72.8,120c0,0.3,0,0.7,0,1.3c0,0.5-0.1,1-0.1,1.5c-0.1,0.6-0.1,1.2-0.2,1.8
		c0,0.1-0.1,0.2-0.2,0.3s-0.3,0.1-0.5,0.2c-0.1,0-0.2,0-0.3-0.1c-0.1-0.1-0.1-0.2-0.1-0.2c0-0.1-0.1-0.2-0.1-0.3s0-0.2,0-0.2
		c0-0.3,0-0.6,0-1s0.1-0.7,0.1-1.1c0.1-0.4,0.1-0.8,0.2-1.2s0.1-0.8,0.1-1.2c0-0.2,0-0.4,0.1-0.7s0.2-0.4,0.4-0.4s0.4,0.1,0.5,0.4
		C72.8,119.2,72.8,119.6,72.8,120z M74.6,101.7c0,0.1,0,0.3-0.1,0.6c-0.1,0.3-0.1,0.7-0.2,1.2c-0.1,0.4-0.2,0.9-0.3,1.4
		c-0.1,0.5-0.2,0.9-0.3,1.2c0,0.1-0.1,0.2-0.1,0.3c0,0.1-0.1,0.2-0.3,0.2c-0.1,0-0.2,0-0.3-0.1c-0.1-0.1-0.1-0.2-0.2-0.3
		c0-0.1-0.1-0.2-0.1-0.3c0-0.1,0-0.2,0-0.3c0-0.1,0-0.4,0.1-0.8s0.2-0.9,0.3-1.4c0.1-0.5,0.3-0.9,0.4-1.3c0.2-0.4,0.3-0.6,0.5-0.6
		c0.1,0,0.2,0,0.3,0.1C74.5,101.5,74.6,101.6,74.6,101.7z"/>
	<path class="st3" d="M101.8,109.9c0,0.3-0.1,0.7-0.3,1.2c-0.3,0.5-0.6,1-1.1,1.5s-1,0.9-1.6,1.3s-1.3,0.6-2,0.7c-0.3,0-0.7,0-1-0.1
		c-0.4-0.1-0.7-0.2-1.1-0.4c-0.4-0.2-0.7-0.4-1-0.7c-0.3-0.3-0.5-0.6-0.7-1c-0.1,0.1-0.2,0.3-0.3,0.6c-0.1,0.3-0.3,0.5-0.4,0.8
		s-0.3,0.5-0.5,0.7s-0.4,0.3-0.6,0.3s-0.4-0.1-0.6-0.3s-0.3-0.5-0.4-0.8s-0.2-0.6-0.3-0.8s-0.1-0.4-0.1-0.5c0-0.2,0-0.6,0.1-1.2
		s0.2-1.3,0.4-1.9c0.2-0.7,0.5-1.3,0.8-1.8s0.8-0.8,1.3-0.9c0.2,0,0.3,0.1,0.4,0.2c0.1,0.2,0.1,0.3,0.1,0.5l0.1,0.8
		c0.1,0.1,0.2,0.1,0.3,0.1c0.1,0,0.2,0,0.3,0.1c0.1,0,0.2,0.1,0.2,0.2c0.1,0.1,0.1,0.2,0.1,0.4c0,0.1,0,0.2,0,0.3c0,0.1,0,0.2,0,0.3
		c0,0.5,0.1,0.9,0.2,1.4c0.1,0.4,0.3,0.8,0.5,1.2c0.2,0.3,0.6,0.6,1,0.8c0.4,0.2,0.9,0.3,1.5,0.2c0.8-0.1,1.4-0.3,2-0.7
		c0.5-0.4,0.9-0.8,1.3-1.2s0.6-0.8,0.8-1.2c0.2-0.3,0.4-0.5,0.5-0.5C101.7,109.5,101.8,109.6,101.8,109.9z M92.3,109.5
		c0-0.1,0-0.1-0.1-0.2c0-0.1-0.1-0.1-0.1-0.2s0-0.1,0-0.2s0-0.1,0-0.2s0-0.1-0.1-0.1l-0.1-0.1c-0.2,0.1-0.3,0.2-0.5,0.5
		c-0.1,0.3-0.3,0.6-0.4,1s-0.2,0.7-0.3,1.1s-0.1,0.7-0.1,0.9c0,0.1,0.1,0.3,0.2,0.6c0.1,0.3,0.2,0.5,0.3,0.5
		c0.2-0.7,0.5-1.3,0.7-1.9C92.3,110.7,92.4,110.1,92.3,109.5z"/>
	<path class="st3" d="M110.6,106.9c0,0.5,0,0.9-0.3,1.4c-0.2,0.5-0.5,0.9-0.9,1.3c-0.3,0.4-0.7,0.8-1.1,1.1
		c-0.4,0.4-0.8,0.7-1.2,0.9c-0.3,0.3-0.6,0.5-0.8,0.7s-0.3,0.3-0.3,0.4c0,0.2,0.1,0.6,0.2,1c0.1,0.4,0.2,0.9,0.3,1.4s0.2,1,0.4,1.5
		c0.1,0.5,0.2,1,0.3,1.4c0,0,0,0.1,0.1,0.2c0,0.1,0.1,0.3,0.1,0.5c0.1,0.2,0.1,0.3,0.2,0.5c0,0.1,0.1,0.2,0.1,0.3s0,0.3,0,0.4
		c0,0.2,0,0.3,0,0.4c0,0.1-0.1,0.3-0.2,0.4c-0.1,0.1-0.2,0.2-0.3,0.2c-0.2,0-0.3-0.1-0.5-0.2c-0.1-0.2-0.2-0.3-0.2-0.5v-0.1V120
		c0-0.2-0.1-0.7-0.4-1.6c-0.2-0.8-0.5-1.9-0.8-3c-0.3-1.2-0.6-2.4-0.8-3.8c-0.3-1.4-0.4-2.6-0.6-3.9c0-0.1,0-0.2,0-0.3
		c0-0.1,0-0.2,0-0.3c-0.2,0-0.4,0.1-0.8,0.3c-0.3,0.2-0.7,0.4-1,0.6s-0.6,0.5-0.8,0.7s-0.4,0.5-0.3,0.6h-0.2c-0.1,0-0.1,0-0.2-0.1
		c-0.1-0.1-0.2-0.1-0.2-0.2s-0.1-0.2-0.2-0.3c-0.1-0.1-0.1-0.1-0.1-0.2c0-0.4,0.2-0.8,0.6-1.1c0.4-0.4,1-0.7,1.6-1s1.4-0.6,2.2-0.8
		c0.8-0.2,1.5-0.4,2.3-0.4c0.7-0.1,1.3,0,1.8,0.1s0.9,0.3,1.2,0.5s0.5,0.4,0.7,0.6C110.5,106.6,110.6,106.7,110.6,106.9z
		 M109.3,106.9c0-0.2-0.3-0.3-0.7-0.5c-0.5-0.1-1-0.2-1.6-0.1c-0.5,0-0.9,0.1-1.2,0.2c-0.2,0.1-0.4,0.1-0.5,0.2c0,0.3,0,0.6,0,1
		s0,0.8,0.1,1.2c0,0.4,0.1,0.8,0.2,1.2c0.1,0.4,0.1,0.7,0.2,1c0.2-0.2,0.6-0.4,1-0.8c0.4-0.3,0.8-0.7,1.2-1.1s0.7-0.8,1-1.2
		C109.2,107.7,109.3,107.3,109.3,106.9z"/>
	<path class="st3" d="M120.8,106c0,0.5,0,0.9-0.3,1.4c-0.2,0.5-0.5,0.9-0.9,1.3c-0.3,0.4-0.7,0.8-1.1,1.1c-0.4,0.4-0.8,0.7-1.2,0.9
		c-0.3,0.3-0.6,0.5-0.8,0.7s-0.3,0.3-0.3,0.4c0,0.2,0.1,0.6,0.2,1c0.1,0.4,0.2,0.9,0.3,1.4s0.2,1,0.4,1.5c0.1,0.5,0.2,1,0.3,1.4
		c0,0,0,0.1,0.1,0.2c0,0.1,0.1,0.3,0.1,0.5c0.1,0.2,0.1,0.3,0.2,0.5c0,0.1,0.1,0.2,0.1,0.3s0,0.3,0,0.4c0,0.2,0,0.3,0,0.4
		c0,0.1-0.1,0.3-0.2,0.4c-0.1,0.1-0.2,0.2-0.3,0.2c-0.2,0-0.3-0.1-0.5-0.2c-0.1-0.2-0.2-0.3-0.2-0.5v-0.1v-0.1
		c0-0.2-0.1-0.7-0.4-1.6c-0.2-0.8-0.5-1.9-0.8-3c-0.3-1.2-0.6-2.4-0.8-3.8s-0.4-2.6-0.6-3.9c0-0.1,0-0.2,0-0.3c0-0.1,0-0.2,0-0.3
		c-0.2,0-0.4,0.1-0.8,0.3c-0.3,0.2-0.7,0.4-1,0.6s-0.6,0.5-0.8,0.7s-0.4,0.5-0.3,0.6H111c-0.1,0-0.1,0-0.2-0.1
		c-0.1-0.1-0.2-0.1-0.2-0.2s-0.1-0.2-0.2-0.3c-0.1-0.1-0.1-0.1-0.1-0.2c0-0.4,0.2-0.8,0.6-1.1c0.4-0.4,1-0.7,1.6-1s1.4-0.6,2.2-0.8
		c0.8-0.2,1.5-0.4,2.3-0.4c0.7-0.1,1.3,0,1.8,0.1s0.9,0.3,1.2,0.5s0.5,0.4,0.7,0.6C120.7,105.7,120.7,105.9,120.8,106z M119.4,106.1
		c0-0.2-0.3-0.3-0.7-0.5c-0.5-0.1-1-0.2-1.6-0.1c-0.5,0-0.9,0.1-1.2,0.2c-0.2,0.1-0.4,0.1-0.5,0.2c0,0.3,0,0.6,0,1s0,0.8,0.1,1.2
		c0,0.4,0.1,0.8,0.1,1.2c0.1,0.4,0.1,0.7,0.2,1c0.2-0.2,0.6-0.4,1-0.8c0.4-0.3,0.8-0.7,1.2-1.1s0.7-0.8,1-1.2
		C119.3,106.8,119.5,106.4,119.4,106.1z"/>
	<path class="st3" d="M126.3,112.9c-0.1,0.1-0.2,0.1-0.4,0.1s-0.3-0.1-0.5-0.4s-0.4-0.7-0.6-1.1c-0.2-0.5-0.4-0.9-0.6-1.5
		c-0.2-0.5-0.4-1-0.5-1.5s-0.3-0.9-0.4-1.2c-0.1-0.3-0.1-0.5-0.1-0.5c0-0.1-0.1-0.3-0.1-0.6c-0.1-0.3-0.2-0.8-0.4-1.4
		s-0.3-1.5-0.5-2.5s-0.4-2.3-0.7-3.8c0-0.2,0-0.4,0-0.6s0.1-0.4,0.3-0.4c0.3,0,0.5,0.1,0.6,0.5c0.2,0.3,0.3,0.7,0.4,1.2
		c0.1,0.5,0.2,1,0.3,1.6c0.1,0.5,0.2,1,0.3,1.4c0.1,0.6,0.2,1.1,0.3,1.5c0.1,0.5,0.2,0.9,0.3,1.4s0.2,0.9,0.4,1.4
		c0.1,0.5,0.3,1,0.5,1.6l1.5,4.4C126.5,112.7,126.4,112.8,126.3,112.9z"/>
	<path class="st3" d="M129.1,100.7c0,0-0.1,0.1-0.2,0.2c-0.1,0.1-0.3,0.2-0.4,0.4c-0.2,0.1-0.3,0.2-0.5,0.4
		c-0.2,0.1-0.3,0.2-0.4,0.2c-0.1,0-0.2,0-0.3,0s-0.2,0-0.4-0.1c-0.1,0-0.2-0.1-0.3-0.2s-0.2-0.2-0.2-0.4c0-0.3,0-0.5,0.2-0.7
		s0.4-0.4,0.7-0.4c0.1,0,0.2,0,0.4,0s0.4,0.1,0.6,0.1c0.2,0.1,0.4,0.1,0.5,0.2C129,100.5,129.1,100.5,129.1,100.7z M130.9,110.6
		c0,0.1-0.1,0.2-0.3,0.3c-0.2,0.1-0.3,0.2-0.4,0.2c-0.2,0-0.4-0.1-0.5-0.3c-0.2-0.2-0.3-0.5-0.4-0.8c-0.1-0.3-0.2-0.6-0.3-0.9
		s-0.2-0.5-0.2-0.6c-0.1-0.2-0.2-0.4-0.3-0.6s-0.2-0.5-0.3-0.7s-0.2-0.4-0.3-0.6s-0.1-0.3-0.1-0.3c0-0.3,0-0.5,0.1-0.7
		s0.2-0.3,0.3-0.4c0.2,0,0.3,0.1,0.5,0.3c0.2,0.2,0.4,0.5,0.6,0.9c0.2,0.4,0.4,0.8,0.6,1.2c0.2,0.4,0.3,0.9,0.5,1.3
		c0.1,0.4,0.3,0.7,0.3,1C130.8,110.4,130.9,110.6,130.9,110.6z"/>
	<path class="st3" d="M140.1,107.2c0,0.2,0,0.4,0,0.6s-0.1,0.4-0.1,0.5s-0.2,0.3-0.5,0.6c-0.3,0.3-0.6,0.7-1,1.1s-0.9,0.7-1.4,1.1
		c-0.5,0.3-1,0.5-1.5,0.6c-0.3,0-0.6,0-0.9-0.1s-0.6-0.2-0.9-0.4s-0.5-0.5-0.7-0.8s-0.3-0.8-0.4-1.3c-0.1-0.9,0-1.7,0.2-2.4
		c0.2-0.7,0.5-1.3,0.7-1.7c0.1-0.2,0.3-0.4,0.4-0.6c0.2-0.2,0.4-0.4,0.6-0.6c0.2-0.2,0.4-0.3,0.5-0.5c0.2-0.1,0.3-0.2,0.3-0.2
		c0.2,0,0.3,0,0.5,0.1c0.1,0.1,0.2,0.2,0.2,0.3c0,0.1,0,0.3-0.1,0.4s-0.2,0.2-0.3,0.4c-0.1,0.1-0.3,0.3-0.5,0.5s-0.4,0.5-0.6,0.8
		c-0.4,0.6-0.6,1.3-0.8,1.9s-0.2,1.2-0.2,1.7s0.2,0.8,0.6,1.1s0.7,0.4,1.1,0.3c0.7-0.1,1.3-0.3,1.8-0.6c0.5-0.4,0.9-0.7,1.3-1.1
		c0.3-0.4,0.6-0.8,0.8-1.1c0.2-0.3,0.4-0.5,0.5-0.5C140,106.8,140.1,106.9,140.1,107.2z"/>
	<path class="st3" d="M155,105.2c0,0.3-0.1,0.7-0.3,1.2c-0.3,0.5-0.6,1-1.1,1.5s-1,0.9-1.6,1.3s-1.3,0.6-2,0.7c-0.3,0-0.7,0-1-0.1
		c-0.4-0.1-0.7-0.2-1.1-0.4c-0.4-0.2-0.7-0.4-1-0.7c-0.3-0.3-0.5-0.6-0.7-1c-0.1,0.1-0.2,0.3-0.3,0.6c-0.1,0.3-0.3,0.5-0.4,0.8
		c-0.2,0.3-0.3,0.5-0.5,0.7s-0.4,0.3-0.6,0.3c-0.2,0-0.4-0.1-0.6-0.3c-0.2-0.2-0.3-0.5-0.4-0.8c-0.1-0.3-0.2-0.6-0.3-0.8
		c-0.1-0.3-0.1-0.4-0.1-0.5c0-0.2,0-0.6,0.1-1.2s0.2-1.3,0.4-1.9c0.2-0.7,0.5-1.3,0.8-1.8s0.8-0.8,1.3-0.9c0.2,0,0.3,0.1,0.4,0.2
		c0.1,0.2,0.1,0.3,0.1,0.5l0.1,0.8c0.1,0.1,0.2,0.1,0.3,0.1s0.2,0,0.3,0.1c0.1,0,0.2,0.1,0.2,0.2c0.1,0.1,0.1,0.2,0.1,0.4
		c0,0.1,0,0.2,0,0.3c0,0.1,0,0.2,0,0.3c0,0.5,0.1,0.9,0.2,1.4c0.1,0.4,0.3,0.8,0.5,1.2c0.2,0.3,0.6,0.6,1,0.8
		c0.4,0.2,0.9,0.3,1.5,0.2c0.8-0.1,1.4-0.3,2-0.7c0.5-0.4,0.9-0.8,1.3-1.2c0.3-0.4,0.6-0.8,0.8-1.2c0.2-0.4,0.4-0.5,0.5-0.5
		C154.8,104.9,155,105,155,105.2z M145.4,104.9c0-0.1,0-0.1-0.1-0.2c0-0.1-0.1-0.1-0.1-0.2s0-0.1,0-0.2s0-0.1,0-0.2s0-0.1-0.1-0.1
		l-0.1-0.1c-0.2,0.1-0.3,0.2-0.5,0.5c-0.1,0.3-0.3,0.6-0.4,1c-0.1,0.4-0.2,0.7-0.3,1.1s-0.1,0.7-0.1,0.9c0,0.1,0.1,0.3,0.2,0.6
		c0.1,0.3,0.2,0.5,0.3,0.5c0.2-0.7,0.5-1.3,0.7-1.9C145.4,106,145.5,105.4,145.4,104.9z"/>
	<path class="st3" d="M161.8,98c-0.2,0.3-0.5,0.6-0.9,0.9s-0.8,0.6-1.2,0.8c-0.4,0.3-0.8,0.5-1.1,0.7s-0.5,0.3-0.5,0.4
		s0.1,0.2,0.2,0.5c0.1,0.3,0.2,0.6,0.3,0.9c0.1,0.4,0.3,0.7,0.4,1.1c0.1,0.4,0.3,0.7,0.4,1c0.1,0.2,0.1,0.4,0.2,0.7
		c0.1,0.3,0.2,0.6,0.2,0.8c0.1,0.3,0.1,0.5,0.2,0.8c0.1,0.2,0.1,0.3,0.1,0.4c0,0.3,0,0.6-0.1,0.8c-0.1,0.3-0.2,0.5-0.4,0.5
		c-0.1,0-0.2,0-0.3-0.1s-0.2-0.2-0.3-0.3c-0.1-0.1-0.1-0.2-0.2-0.3c0-0.1-0.1-0.2-0.1-0.2s0-0.1,0-0.2s0-0.2,0-0.2
		c0-0.3-0.1-0.8-0.3-1.5c-0.1-0.2-0.2-0.5-0.3-0.9s-0.3-0.8-0.4-1.2c-0.2-0.5-0.4-1-0.6-1.6c-0.1-0.2-0.1-0.4-0.2-0.4
		c-0.1,0-0.3,0.1-0.6,0.3c-0.3,0.2-0.6,0.4-1,0.7c-0.4,0.3-0.7,0.5-1.1,0.8s-0.8,0.6-1.1,0.8c-0.3,0.3-0.6,0.5-0.9,0.6
		c-0.2,0.2-0.4,0.3-0.5,0.3c-0.2,0-0.4,0-0.6-0.2c-0.2-0.1-0.2-0.3-0.3-0.5c0-0.1,0.1-0.3,0.4-0.5c0.3-0.2,0.6-0.5,1-0.8
		s0.9-0.6,1.4-0.9s0.9-0.6,1.4-0.9c0.4-0.3,0.9-0.5,1.5-0.9c-0.2-0.8-0.4-1.5-0.6-2.2c-0.1-0.5-0.3-1.1-0.4-1.5
		c-0.1-0.5-0.2-0.7-0.2-0.7c0-0.2,0-0.4,0.1-0.5s0.2-0.2,0.3-0.2c0.2,0,0.3,0.1,0.4,0.4c0.3,1,0.5,1.8,0.8,2.5
		c0.2,0.7,0.5,1.3,0.7,1.8c0.2,0,0.4-0.2,0.8-0.4c0.4-0.2,0.8-0.4,1.2-0.7c0.4-0.2,0.8-0.4,1.1-0.6s0.5-0.3,0.6-0.3s0.2,0,0.2,0.1
		S161.8,98,161.8,98z"/>
	<path class="st3" d="M164.9,97.5c0,0-0.1,0.1-0.2,0.2s-0.3,0.2-0.4,0.4c-0.2,0.1-0.3,0.2-0.5,0.4c-0.2,0.1-0.3,0.2-0.4,0.2
		c-0.1,0-0.2,0-0.3,0s-0.2,0-0.4-0.1c-0.1,0-0.2-0.1-0.3-0.2s-0.2-0.2-0.2-0.4c0-0.3,0-0.5,0.2-0.7s0.4-0.4,0.7-0.4
		c0.1,0,0.2,0,0.4,0s0.4,0.1,0.6,0.1c0.2,0.1,0.4,0.1,0.5,0.2C164.8,97.3,164.9,97.4,164.9,97.5z M166.6,107.5
		c0,0.1-0.1,0.2-0.3,0.3c-0.2,0.1-0.3,0.2-0.4,0.2c-0.2,0-0.4-0.1-0.5-0.3c-0.2-0.2-0.3-0.5-0.4-0.8c-0.1-0.3-0.2-0.6-0.3-0.9
		s-0.2-0.5-0.2-0.6c-0.1-0.2-0.2-0.4-0.3-0.6s-0.2-0.5-0.3-0.7s-0.2-0.4-0.3-0.6s-0.1-0.3-0.1-0.3c0-0.3,0-0.5,0.1-0.7
		s0.2-0.3,0.3-0.4c0.2,0,0.3,0.1,0.5,0.3s0.4,0.5,0.6,0.9c0.2,0.4,0.4,0.8,0.6,1.2c0.2,0.4,0.3,0.9,0.5,1.3c0.1,0.4,0.3,0.7,0.3,1
		C166.6,107.3,166.6,107.5,166.6,107.5z"/>
	<path class="st3" d="M172.8,103.4c0,0.4,0,0.8-0.1,1.1c-0.1,0.4-0.2,0.7-0.3,1c-0.2,0.3-0.3,0.5-0.6,0.7c-0.2,0.2-0.5,0.3-0.8,0.3
		c-0.5,0-0.9-0.1-1.2-0.3c-0.3-0.3-0.6-0.6-0.7-0.9c-0.2-0.4-0.3-0.7-0.4-1.1c-0.1-0.4-0.1-0.7-0.1-0.9c0-0.3,0-0.7,0.1-1.1
		s0.2-0.8,0.3-1.2c0.1-0.4,0.3-0.7,0.5-0.9c0.2-0.3,0.4-0.4,0.6-0.4c0.1,0,0.1,0,0.3,0c0.1,0,0.2,0.1,0.4,0.1
		c0.1,0.1,0.3,0.1,0.4,0.2c0.1,0.1,0.2,0.2,0.2,0.4c0.2,0,0.4,0.1,0.6,0.2c0.2,0.1,0.3,0.2,0.3,0.3c0.2,0.5,0.3,0.9,0.4,1.4
		C172.8,102.8,172.8,103.1,172.8,103.4z M171.6,103.1c0-0.3-0.1-0.5-0.2-0.8c-0.1-0.3-0.2-0.6-0.4-0.9h-0.1c-0.1,0-0.1,0-0.2,0h-0.1
		c-0.2,0-0.4,0.1-0.5,0.2s-0.2,0.3-0.2,0.5s-0.1,0.4-0.1,0.6s0,0.4,0,0.6s0,0.4,0.1,0.7s0.1,0.5,0.2,0.7c0.1,0.2,0.2,0.4,0.3,0.5
		s0.3,0.2,0.5,0.2s0.3-0.1,0.4-0.3c0.1-0.2,0.2-0.4,0.2-0.7c0-0.3,0.1-0.5,0.1-0.8C171.6,103.3,171.6,103.2,171.6,103.1z"/>
	<path class="st3" d="M183.8,105c0,0.1,0,0.2-0.1,0.3c-0.1,0.1-0.1,0.2-0.2,0.3c-0.1,0.1-0.2,0.2-0.3,0.3c-0.1,0.1-0.2,0.1-0.3,0.1
		c-0.3,0-0.7,0-1.2-0.1s-0.9-0.3-1.2-0.5c-0.3-0.3-0.6-0.6-0.9-1c-0.3-0.4-0.6-1-0.9-1.8c-0.1,0.8-0.3,1.6-0.5,2.4s-0.5,1.5-1.1,2.2
		c0,0-0.1,0.1-0.2,0.1c-0.1,0-0.3,0-0.4-0.2c-0.2-0.1-0.2-0.2-0.2-0.4c0-0.1,0-0.4-0.1-0.9s-0.1-1-0.2-1.5c-0.1-0.6-0.2-1.1-0.2-1.7
		s-0.1-1.1-0.2-1.4c0-0.2,0-0.4,0-0.7c0-0.3,0-0.6,0.1-0.8c0,0,0.1-0.1,0.2-0.2c0.1-0.1,0.2-0.2,0.4-0.2c0.1,0,0.2,0.1,0.2,0.2
		c0,0.2,0.1,0.3,0.1,0.5l0.4,4.2c0,0.1,0,0.2,0.1,0.4c0,0.2,0.1,0.3,0.2,0.3c0.2-0.4,0.3-1,0.4-1.6c0.1-0.6,0.2-1.2,0.4-1.7
		c0.1-0.5,0.2-1,0.4-1.4c0.1-0.4,0.3-0.6,0.4-0.6c0.2,0,0.3,0,0.4,0.1c0.1,0.1,0.2,0.2,0.3,0.4c0.1,0.5,0.2,1,0.3,1.4
		s0.2,0.8,0.3,1.1c0.1,0.3,0.3,0.6,0.4,0.9s0.4,0.5,0.7,0.7s0.6,0.4,0.9,0.4c0.3,0.1,0.6,0.1,0.8,0.1c0.1,0,0.2,0,0.3-0.1
		s0.2-0.1,0.3-0.1s0.1,0.1,0.2,0.2C183.8,104.9,183.8,105,183.8,105z"/>
</g>
<g class="st2">
	<path class="st3" d="M87.3,134c0,0.4,0,0.8-0.1,1.1c-0.1,0.4-0.2,0.7-0.3,1c-0.2,0.3-0.3,0.5-0.6,0.7c-0.2,0.2-0.5,0.3-0.8,0.3
		c-0.5,0-0.9-0.1-1.2-0.3c-0.3-0.3-0.6-0.6-0.7-0.9c-0.2-0.4-0.3-0.7-0.4-1.1c-0.1-0.4-0.1-0.7-0.1-0.9c0-0.3,0-0.7,0.1-1.1
		c0.1-0.4,0.2-0.8,0.3-1.2c0.1-0.4,0.3-0.7,0.5-0.9c0.2-0.3,0.4-0.4,0.6-0.4c0.1,0,0.1,0,0.3,0c0.1,0,0.2,0.1,0.4,0.1
		c0.1,0.1,0.3,0.1,0.4,0.2c0.1,0.1,0.2,0.2,0.2,0.4c0.2,0,0.4,0.1,0.6,0.2c0.2,0.1,0.3,0.2,0.3,0.3c0.2,0.5,0.3,0.9,0.4,1.4
		C87.2,133.3,87.3,133.7,87.3,134z M86,133.6c0-0.3-0.1-0.5-0.2-0.8s-0.2-0.6-0.4-0.9h-0.1c-0.1,0-0.1,0-0.2,0H85
		c-0.2,0-0.4,0.1-0.5,0.2c-0.1,0.1-0.2,0.3-0.2,0.5s-0.1,0.4-0.1,0.6c0,0.2,0,0.4,0,0.6c0,0.2,0,0.4,0.1,0.7s0.1,0.5,0.2,0.7
		s0.2,0.4,0.3,0.5c0.1,0.1,0.3,0.2,0.5,0.2s0.3-0.1,0.4-0.3s0.2-0.4,0.2-0.7s0.1-0.5,0.1-0.8C86.1,133.9,86.1,133.7,86,133.6z"/>
	<path class="st3" d="M97.6,119.5c0,0,0,0.1,0,0.2c0,0.1,0,0.2,0,0.3s0,0.2-0.1,0.2h-0.1c-0.1,0-0.1,0-0.1,0
		c-0.3-0.1-0.7-0.3-1.2-0.4c-0.5-0.2-1-0.3-1.6-0.2c-0.6,0.1-1.1,0.3-1.5,0.9s-0.6,1.1-0.8,1.8c-0.2,0.7-0.2,1.3-0.2,1.9
		c0,0.6,0,1.1,0,1.3s0.1,0.5,0.2,0.9s0.2,0.8,0.4,1.3c0.1,0.4,0.3,0.8,0.5,1.2s0.3,0.6,0.5,0.6c0.1,0,0.3,0,0.6-0.1
		c0.3,0,0.5-0.1,0.7-0.1c0.3,0,0.6,0,0.9,0c0.3,0,0.6,0,0.8,0c0.1,0,0.2,0,0.3,0s0.3,0,0.4,0c0.2,0,0.3,0,0.4,0.1s0.2,0.1,0.2,0.2
		c0,0.1,0,0.2-0.2,0.3c-0.1,0.1-0.3,0.2-0.4,0.2c-0.2,0.1-0.3,0.1-0.5,0.1s-0.3,0.1-0.4,0.1s-0.2,0-0.3,0s-0.3,0-0.5,0s-0.3,0-0.5,0
		s-0.3,0-0.4,0c-0.3,0-0.5,0.1-0.5,0.1c-0.1,0.1-0.1,0.2-0.1,0.4c0,0.3,0.2,0.6,0.5,1.1c0.3,0.4,0.6,0.9,0.9,1.4
		c0.3,0.5,0.6,1,0.9,1.5c0.3,0.5,0.5,1,0.5,1.5c0,0.1,0,0.3,0,0.5s-0.1,0.5-0.1,0.8c-0.1,0.3-0.2,0.5-0.3,0.7s-0.3,0.3-0.5,0.3
		c-0.1,0-0.3,0-0.4-0.1c-0.1-0.1-0.2-0.2-0.2-0.4c0-0.3,0-0.6,0.2-0.8c0.1-0.3,0.2-0.5,0.2-0.8c0-0.1-0.1-0.4-0.3-0.7
		s-0.4-0.7-0.6-1.1c-0.2-0.4-0.5-0.8-0.8-1.3c-0.3-0.4-0.5-0.9-0.8-1.2s-0.4-0.7-0.6-0.9s-0.3-0.4-0.3-0.4c-0.3,0.2-0.7,0.3-1.1,0.5
		s-0.7,0.4-1,0.7c-0.1,0.1-0.2,0.2-0.3,0.2c-0.2,0-0.4,0-0.5-0.2c-0.2-0.1-0.3-0.3-0.3-0.5s0-0.4,0.1-0.5s0.2-0.2,0.3-0.3
		c0.2-0.1,0.4-0.2,0.7-0.4c0.3-0.1,0.7-0.3,1-0.4c0.1,0,0.2-0.1,0.3-0.1c0.1,0,0.2-0.1,0.1-0.2c-0.1-0.2-0.2-0.4-0.3-0.7
		c-0.1-0.3-0.3-0.6-0.4-1s-0.3-0.9-0.4-1.4s-0.2-1.1-0.3-1.6c-0.1-0.6,0-1.3,0-2.1c0.1-0.7,0.3-1.4,0.6-2c0.3-0.6,0.7-1.2,1.1-1.6
		c0.5-0.4,1.1-0.7,1.8-0.7c0.3,0,0.7,0,1.1,0c0.4,0,0.8,0.1,1.1,0.2c0.3,0.1,0.6,0.2,0.9,0.4C97.5,119.1,97.6,119.3,97.6,119.5z"/>
	<path class="st3" d="M119.5,132.1c0,0.2,0,0.4,0,0.6c0,0.2-0.1,0.4-0.1,0.5s-0.2,0.3-0.4,0.6c-0.3,0.3-0.6,0.7-1,1.1
		c-0.4,0.4-0.9,0.7-1.4,1.1c-0.5,0.3-1,0.5-1.5,0.6c-0.3,0-0.6,0-0.9-0.1c-0.3-0.1-0.6-0.2-0.9-0.4c-0.3-0.2-0.5-0.5-0.7-0.8
		s-0.3-0.8-0.4-1.3c-0.1-0.9,0-1.7,0.2-2.4s0.5-1.3,0.7-1.7c0.1-0.2,0.3-0.4,0.4-0.6c0.2-0.2,0.4-0.4,0.6-0.6
		c0.2-0.2,0.4-0.3,0.5-0.5c0.2-0.1,0.3-0.2,0.3-0.2c0.2,0,0.3,0,0.5,0.1c0.1,0.1,0.2,0.2,0.2,0.3s0,0.3-0.1,0.4s-0.2,0.2-0.3,0.4
		c-0.1,0.1-0.3,0.3-0.5,0.5s-0.4,0.5-0.6,0.8c-0.4,0.6-0.6,1.3-0.8,1.9c-0.2,0.6-0.2,1.2-0.2,1.7s0.2,0.8,0.6,1.1
		c0.4,0.2,0.7,0.4,1.1,0.3c0.7-0.1,1.3-0.3,1.8-0.6s0.9-0.7,1.3-1.1c0.3-0.4,0.6-0.8,0.8-1.1s0.4-0.5,0.5-0.5
		C119.4,131.7,119.5,131.8,119.5,132.1z"/>
	<path class="st3" d="M127.7,128.1c0,0.1,0,0.2-0.1,0.3s-0.2,0.2-0.4,0.2c-0.1,0.1-0.3,0.1-0.4,0.2c-0.1,0-0.3,0.1-0.3,0.1
		c-0.3,0-0.4,0-0.5,0s-0.2,0-0.2,0c-0.4,0-0.8,0.1-1.1,0.2c-0.3,0.1-0.5,0.2-0.6,0.4s-0.2,0.4-0.2,0.6c0,0.2,0,0.5,0,0.9
		c0.1,0.6,0.1,1,0.2,1.4s0.1,0.6,0.2,0.8c0.1,0.2,0.1,0.4,0.2,0.5c0.1,0.1,0.1,0.2,0.1,0.3s-0.1,0.3-0.2,0.5
		c-0.1,0.2-0.3,0.3-0.4,0.3c-0.2,0-0.4-0.2-0.6-0.5c-0.2-0.4-0.4-0.8-0.6-1.3c-0.2-0.5-0.3-1-0.4-1.5c-0.1-0.5-0.2-0.9-0.2-1.2
		s0-0.6,0-0.9c0-0.3,0.1-0.5,0.2-0.7c0.1-0.2,0.2-0.4,0.3-0.5s0.2-0.2,0.3-0.2s0.2,0,0.2,0.1s0.1,0.1,0.2,0.2c0,0.1,0.1,0.1,0.1,0.2
		c0.1,0.1,0.1,0.1,0.2,0.1c0.2,0,0.4-0.1,0.8-0.3c0.3-0.2,0.8-0.3,1.3-0.4c0.5,0,0.8-0.1,1.1-0.1c0.2,0,0.5,0,0.7,0.1
		c0.1,0,0.1,0,0.2,0.1C127.6,127.8,127.7,127.9,127.7,128.1z"/>
	<path class="st3" d="M131.1,123.6c0,0-0.1,0.1-0.2,0.2c-0.1,0.1-0.3,0.2-0.4,0.4c-0.2,0.1-0.3,0.2-0.5,0.4s-0.3,0.2-0.4,0.2
		c-0.1,0-0.2,0-0.3,0s-0.2,0-0.4-0.1c-0.1,0-0.2-0.1-0.3-0.2c-0.1-0.1-0.2-0.2-0.2-0.4c0-0.3,0-0.5,0.2-0.7s0.4-0.4,0.7-0.4
		c0.1,0,0.2,0,0.4,0s0.4,0.1,0.6,0.1c0.2,0.1,0.4,0.1,0.5,0.2C131,123.4,131.1,123.5,131.1,123.6z M132.8,133.5
		c0,0.1-0.1,0.2-0.3,0.3s-0.3,0.2-0.4,0.2c-0.2,0-0.4-0.1-0.5-0.3c-0.2-0.2-0.3-0.5-0.4-0.8c-0.1-0.3-0.2-0.6-0.3-0.8
		c-0.1-0.3-0.2-0.5-0.2-0.6c-0.1-0.2-0.2-0.4-0.3-0.6s-0.2-0.5-0.3-0.7s-0.2-0.4-0.3-0.6c-0.1-0.2-0.1-0.3-0.1-0.3
		c0-0.3,0-0.5,0.1-0.7s0.2-0.3,0.3-0.4c0.2,0,0.3,0.1,0.5,0.3s0.4,0.5,0.6,0.9c0.2,0.4,0.4,0.8,0.6,1.2c0.2,0.4,0.3,0.9,0.5,1.3
		c0.1,0.4,0.3,0.7,0.3,1C132.8,133.3,132.8,133.5,132.8,133.5z"/>
	<path class="st3" d="M140.8,122.9c-0.2,0.3-0.5,0.6-0.9,0.9c-0.4,0.3-0.8,0.6-1.2,0.8c-0.4,0.3-0.8,0.5-1.1,0.7s-0.5,0.3-0.5,0.4
		c0,0.1,0.1,0.2,0.2,0.5c0.1,0.3,0.2,0.6,0.3,0.9s0.3,0.7,0.4,1.1c0.1,0.4,0.3,0.7,0.4,1c0.1,0.2,0.1,0.4,0.2,0.7
		c0.1,0.3,0.2,0.6,0.2,0.8c0.1,0.3,0.1,0.5,0.2,0.8c0.1,0.2,0.1,0.3,0.1,0.4c0,0.3,0,0.6-0.1,0.8c-0.1,0.3-0.2,0.5-0.4,0.5
		c-0.1,0-0.2,0-0.3-0.1s-0.2-0.2-0.3-0.3s-0.1-0.2-0.2-0.3c0-0.1-0.1-0.2-0.1-0.2s0-0.1,0-0.2c0-0.1,0-0.2,0-0.2
		c0-0.3-0.1-0.8-0.3-1.5c-0.1-0.2-0.2-0.5-0.3-0.9s-0.3-0.8-0.4-1.2c-0.2-0.5-0.4-1-0.6-1.6c-0.1-0.2-0.2-0.4-0.2-0.4
		c-0.1,0-0.3,0.1-0.6,0.3s-0.6,0.4-1,0.7s-0.7,0.5-1.1,0.8c-0.4,0.3-0.8,0.6-1.1,0.8c-0.3,0.3-0.6,0.5-0.9,0.6
		c-0.2,0.2-0.4,0.3-0.5,0.3c-0.2,0-0.4,0-0.6-0.2c-0.2-0.1-0.2-0.3-0.3-0.5c0-0.1,0.1-0.3,0.4-0.5c0.3-0.2,0.6-0.5,1-0.8
		s0.9-0.6,1.4-0.9c0.5-0.3,0.9-0.6,1.4-0.9c0.4-0.3,0.9-0.5,1.5-0.9c-0.2-0.8-0.4-1.5-0.6-2.2c-0.1-0.5-0.3-1.1-0.4-1.5
		c-0.1-0.5-0.2-0.7-0.2-0.7c0-0.2,0-0.4,0.1-0.5s0.2-0.2,0.3-0.2c0.2,0,0.3,0.1,0.4,0.4c0.3,1,0.5,1.8,0.8,2.5s0.5,1.3,0.7,1.8
		c0.2,0,0.4-0.2,0.8-0.4c0.4-0.2,0.8-0.4,1.2-0.7c0.4-0.2,0.8-0.4,1.1-0.6c0.3-0.2,0.5-0.3,0.6-0.3s0.2,0,0.2,0.1
		C140.7,122.8,140.8,122.9,140.8,122.9z"/>
	<path class="st3" d="M143.8,122.5c0,0-0.1,0.1-0.2,0.2c-0.1,0.1-0.3,0.2-0.4,0.4s-0.3,0.2-0.5,0.4s-0.3,0.2-0.4,0.2
		c-0.1,0-0.2,0-0.3,0s-0.2,0-0.4-0.1s-0.2-0.1-0.3-0.2c-0.1-0.1-0.2-0.2-0.2-0.4c0-0.3,0-0.5,0.2-0.7s0.4-0.4,0.7-0.4
		c0.1,0,0.2,0,0.4,0s0.4,0.1,0.6,0.1c0.2,0.1,0.4,0.1,0.5,0.2C143.7,122.3,143.8,122.3,143.8,122.5z M145.6,132.4
		c0,0.1-0.1,0.2-0.3,0.3s-0.3,0.2-0.4,0.2c-0.2,0-0.3-0.1-0.5-0.3s-0.3-0.5-0.4-0.8c-0.1-0.3-0.2-0.6-0.3-0.9
		c-0.1-0.3-0.2-0.5-0.2-0.6c-0.1-0.2-0.2-0.4-0.3-0.6s-0.2-0.5-0.3-0.7s-0.2-0.4-0.3-0.6c-0.1-0.2-0.1-0.3-0.1-0.3
		c0-0.3,0-0.5,0.1-0.7s0.2-0.3,0.3-0.4c0.2,0,0.3,0.1,0.5,0.3s0.4,0.5,0.6,0.9c0.2,0.4,0.4,0.8,0.6,1.2s0.3,0.9,0.5,1.3
		s0.3,0.7,0.3,1S145.6,132.4,145.6,132.4z"/>
	<path class="st3" d="M154.8,129c0,0.2,0,0.4,0,0.6c0,0.2-0.1,0.4-0.1,0.5s-0.2,0.3-0.4,0.6c-0.3,0.3-0.6,0.7-1,1.1
		s-0.9,0.7-1.4,1.1c-0.5,0.3-1,0.5-1.5,0.6c-0.3,0-0.6,0-0.9-0.1c-0.3-0.1-0.6-0.2-0.9-0.4c-0.3-0.2-0.5-0.5-0.7-0.8
		s-0.3-0.8-0.4-1.3c-0.1-0.9,0-1.7,0.2-2.4s0.5-1.3,0.7-1.7c0.1-0.2,0.3-0.4,0.4-0.6c0.2-0.2,0.4-0.4,0.6-0.6
		c0.2-0.2,0.4-0.3,0.5-0.5c0.2-0.1,0.3-0.2,0.3-0.2c0.2,0,0.3,0,0.5,0.1c0.1,0.1,0.2,0.2,0.2,0.3s0,0.3-0.1,0.4s-0.2,0.2-0.3,0.4
		c-0.1,0.1-0.3,0.3-0.5,0.5s-0.4,0.5-0.6,0.8c-0.4,0.6-0.6,1.3-0.8,1.9s-0.2,1.2-0.2,1.7s0.2,0.8,0.6,1.1c0.4,0.2,0.8,0.4,1.1,0.3
		c0.7-0.1,1.3-0.3,1.8-0.6c0.5-0.4,0.9-0.7,1.3-1.1c0.3-0.4,0.6-0.8,0.8-1.1s0.4-0.5,0.5-0.5C154.7,128.6,154.8,128.7,154.8,129z"/>
	<path class="st3" d="M169.7,127c0,0.3-0.1,0.7-0.3,1.2c-0.3,0.5-0.6,1-1.1,1.5s-1,0.9-1.6,1.3c-0.6,0.4-1.3,0.6-2,0.7
		c-0.3,0-0.7,0-1-0.1c-0.4-0.1-0.7-0.2-1.1-0.4c-0.4-0.2-0.7-0.4-1-0.7s-0.5-0.6-0.7-1c-0.1,0.1-0.2,0.3-0.3,0.6s-0.3,0.5-0.4,0.8
		c-0.2,0.3-0.3,0.5-0.5,0.7s-0.4,0.3-0.6,0.3s-0.4-0.1-0.6-0.3c-0.2-0.2-0.3-0.5-0.4-0.8c-0.1-0.3-0.2-0.6-0.3-0.8
		c-0.1-0.3-0.1-0.4-0.1-0.5c0-0.2,0-0.6,0.1-1.2c0.1-0.6,0.2-1.3,0.4-1.9c0.2-0.7,0.5-1.3,0.8-1.8s0.8-0.8,1.3-0.9
		c0.2,0,0.3,0.1,0.4,0.2c0.1,0.2,0.1,0.3,0.1,0.5l0.1,0.8c0.1,0.1,0.2,0.1,0.3,0.1s0.2,0,0.3,0.1c0.1,0,0.2,0.1,0.2,0.2
		c0.1,0.1,0.1,0.2,0.1,0.4c0,0.1,0,0.2,0,0.3s0,0.2,0,0.3c0,0.5,0.1,0.9,0.2,1.4c0.1,0.4,0.3,0.8,0.5,1.2s0.6,0.6,1,0.8
		s0.9,0.3,1.5,0.2c0.8-0.1,1.4-0.3,2-0.7c0.5-0.4,0.9-0.8,1.3-1.2s0.6-0.8,0.8-1.2s0.3-0.5,0.5-0.5
		C169.5,126.7,169.7,126.8,169.7,127z M160.1,126.7c0-0.1,0-0.1-0.1-0.2c0-0.1-0.1-0.1-0.1-0.2c0-0.1,0-0.1,0-0.2s0-0.1,0-0.2
		c0-0.1,0-0.1-0.1-0.1l-0.1-0.1c-0.2,0-0.3,0.2-0.5,0.5s-0.3,0.6-0.4,1s-0.2,0.7-0.3,1.1c-0.1,0.4-0.1,0.7-0.1,0.9
		c0,0.1,0.1,0.3,0.2,0.6c0.1,0.3,0.2,0.5,0.3,0.5c0.2-0.7,0.5-1.3,0.7-1.9C160.1,127.8,160.2,127.2,160.1,126.7z"/>
	<path class="st3" d="M173.9,131.8c-0.1,0.1-0.2,0.1-0.4,0.1s-0.3-0.1-0.5-0.4c-0.2-0.3-0.4-0.7-0.6-1.1c-0.2-0.5-0.4-0.9-0.6-1.5
		s-0.4-1-0.5-1.5c-0.2-0.5-0.3-0.9-0.4-1.2c-0.1-0.3-0.1-0.5-0.1-0.5c0-0.1-0.1-0.3-0.1-0.6c-0.1-0.3-0.2-0.8-0.4-1.4
		c-0.2-0.6-0.3-1.5-0.5-2.5s-0.4-2.3-0.7-3.8c0-0.2,0-0.4,0-0.6c0-0.3,0.1-0.4,0.3-0.4s0.5,0.1,0.6,0.5c0.2,0.3,0.3,0.7,0.4,1.2
		c0.1,0.5,0.2,1,0.3,1.6c0.1,0.5,0.2,1,0.3,1.4c0.1,0.6,0.2,1.1,0.3,1.5c0.1,0.5,0.2,0.9,0.3,1.4s0.2,0.9,0.4,1.4
		c0.1,0.5,0.3,1,0.5,1.6l1.5,4.4C174,131.6,174,131.8,173.9,131.8z"/>
</g>
<g class="st2">
	<path class="st3" d="M114.7,156.2c0,0.1,0,0.2-0.1,0.3s-0.1,0.2-0.1,0.3c0,0.2,0.1,0.4,0.2,0.6c0.1,0.2,0.2,0.4,0.2,0.6
		c0,0.2,0,0.4-0.2,0.4s-0.3,0-0.4,0.1s-0.2,0.1-0.4,0.2c-0.1,0-0.2-0.1-0.4-0.3c-0.1-0.1-0.2-0.2-0.2-0.3c0,0,0,0-0.1,0.1
		s-0.2,0.2-0.5,0.4c-0.2,0.1-0.5,0.3-0.9,0.4c-0.4,0.1-0.9,0.2-1.5,0.3c-0.5,0-1,0-1.3-0.2c-0.4-0.2-0.7-0.5-1-0.8s-0.5-0.7-0.6-1.2
		s-0.3-0.9-0.3-1.4c0-0.4,0-0.8,0-1.2c0.1-0.4,0.2-0.7,0.3-1.1s0.4-0.6,0.6-0.8c0.3-0.2,0.6-0.3,0.9-0.4c0.3,0,0.7,0,1.1,0.2
		c0.4,0.2,0.7,0.4,1,0.6c0.3,0.2,0.6,0.5,1,0.9c-0.4-1.4-0.7-2.6-1-3.7c-0.1-0.5-0.3-1-0.4-1.4c-0.1-0.5-0.2-0.9-0.3-1.3
		c-0.1-0.4-0.2-0.7-0.3-0.9c-0.1-0.3-0.1-0.4-0.1-0.5s-0.1-0.3-0.1-0.6s-0.1-0.6-0.1-0.9c0-0.3-0.1-0.6-0.1-0.8s-0.1-0.4-0.1-0.5
		c-0.1-0.2-0.2-0.4-0.3-0.7s-0.2-0.4-0.2-0.4c0-0.1,0-0.2,0.1-0.3s0.2-0.2,0.3-0.2s0.2,0,0.3,0s0.2,0.1,0.3,0.1
		c0.1,0.1,0.2,0.2,0.2,0.4c0.1,0.2,0.2,0.4,0.2,0.8c0,0.2,0.1,0.5,0.3,1c0.1,0.5,0.3,1,0.4,1.6c0.1,0.6,0.3,1.1,0.4,1.7
		s0.2,0.9,0.3,1.2c0.1,0.7,0.3,1.4,0.6,2.2c0.2,0.8,0.4,1.5,0.7,2.3c0.2,0.7,0.4,1.4,0.7,1.9c0.2,0.5,0.4,0.9,0.5,1.1
		c0,0.1,0.1,0.1,0.2,0.1C114.6,156.1,114.7,156.1,114.7,156.2z M112.8,156.9c0-0.1-0.2-0.3-0.4-0.7s-0.5-0.8-0.9-1.2
		s-0.7-0.8-1.2-1.2c-0.4-0.3-0.8-0.5-1.2-0.5c-0.3,0-0.5,0.3-0.7,0.8c-0.1,0.5-0.2,1-0.1,1.6c0.1,0.7,0.3,1.2,0.7,1.6
		c0.4,0.4,0.9,0.5,1.4,0.5c0.4,0,0.9-0.1,1.3-0.3C112.3,157.3,112.6,157.1,112.8,156.9z"/>
	<path class="st3" d="M129.5,153.6c0,0.3-0.1,0.7-0.3,1.2s-0.6,1-1.1,1.5s-1,0.9-1.6,1.3c-0.6,0.4-1.3,0.6-2,0.7c-0.3,0-0.7,0-1-0.1
		c-0.4-0.1-0.7-0.2-1.1-0.4c-0.4-0.2-0.7-0.4-1-0.7s-0.5-0.6-0.7-1c-0.1,0.1-0.2,0.3-0.3,0.6s-0.3,0.5-0.4,0.8
		c-0.2,0.3-0.3,0.5-0.5,0.7s-0.4,0.3-0.6,0.3s-0.4-0.1-0.6-0.3c-0.2-0.2-0.3-0.5-0.4-0.8c-0.1-0.3-0.2-0.6-0.3-0.8
		c-0.1-0.3-0.1-0.4-0.1-0.5c0-0.2,0-0.6,0.1-1.2c0.1-0.6,0.2-1.3,0.4-1.9c0.2-0.7,0.5-1.3,0.8-1.8s0.8-0.8,1.3-0.9
		c0.2,0,0.3,0.1,0.4,0.2c0.1,0.2,0.1,0.3,0.1,0.5l0.1,0.8c0.1,0.1,0.2,0.1,0.3,0.1s0.2,0,0.3,0.1c0.1,0,0.2,0.1,0.2,0.2
		c0.1,0.1,0.1,0.2,0.1,0.4c0,0.1,0,0.2,0,0.3s0,0.2,0,0.3c0,0.5,0.1,0.9,0.2,1.4c0.1,0.4,0.3,0.8,0.5,1.2c0.2,0.3,0.6,0.6,1,0.8
		s0.9,0.3,1.5,0.2c0.8-0.1,1.4-0.3,2-0.7c0.5-0.4,0.9-0.8,1.3-1.2c0.3-0.4,0.6-0.8,0.8-1.2c0.2-0.3,0.4-0.5,0.5-0.5
		C129.3,153.3,129.5,153.4,129.5,153.6z M119.9,153.3c0-0.1,0-0.1-0.1-0.2c0-0.1-0.1-0.1-0.1-0.2c0-0.1,0-0.1,0-0.2
		c0-0.1,0-0.1,0-0.2c0-0.1,0-0.1-0.1-0.1l-0.1-0.1c-0.2,0.1-0.3,0.2-0.5,0.5c-0.1,0.3-0.3,0.6-0.4,1c-0.1,0.4-0.2,0.7-0.3,1.1
		s-0.1,0.7-0.1,0.9c0,0.1,0.1,0.3,0.2,0.6c0.1,0.3,0.2,0.5,0.3,0.5c0.2-0.7,0.5-1.3,0.7-1.9C119.9,154.4,120,153.8,119.9,153.3z"/>
	<path class="st3" d="M136.4,146.4c-0.2,0.3-0.5,0.6-0.9,0.9c-0.4,0.3-0.8,0.6-1.2,0.8c-0.4,0.3-0.8,0.5-1.1,0.7s-0.5,0.3-0.5,0.4
		c0,0.1,0.1,0.2,0.2,0.5s0.2,0.6,0.3,0.9s0.3,0.7,0.4,1.1c0.1,0.4,0.3,0.7,0.4,1c0.1,0.2,0.1,0.4,0.2,0.7c0.1,0.3,0.2,0.6,0.2,0.8
		c0.1,0.3,0.1,0.5,0.2,0.8c0.1,0.2,0.1,0.3,0.1,0.4c0,0.3,0,0.6-0.1,0.8c-0.1,0.3-0.2,0.5-0.4,0.5c-0.1,0-0.2,0-0.3-0.1
		s-0.2-0.2-0.3-0.3s-0.1-0.2-0.2-0.3c0-0.1-0.1-0.2-0.1-0.2s0-0.1,0-0.2c0-0.1,0-0.2,0-0.2c0-0.3-0.1-0.8-0.3-1.5
		c-0.1-0.2-0.2-0.5-0.3-0.9s-0.3-0.8-0.4-1.2c-0.2-0.5-0.4-1-0.6-1.6c-0.1-0.2-0.1-0.4-0.2-0.4c-0.1,0-0.3,0.1-0.6,0.3
		s-0.6,0.4-1,0.7s-0.7,0.5-1.1,0.8s-0.8,0.6-1.1,0.8c-0.3,0.3-0.6,0.5-0.9,0.6c-0.2,0.2-0.4,0.3-0.5,0.3c-0.2,0-0.4,0-0.6-0.2
		c-0.2-0.1-0.2-0.3-0.3-0.5c0-0.1,0.1-0.3,0.4-0.5c0.3-0.2,0.6-0.5,1-0.8s0.9-0.6,1.4-0.9c0.5-0.3,0.9-0.6,1.4-0.9
		c0.4-0.3,0.9-0.5,1.5-0.9c-0.2-0.8-0.4-1.5-0.6-2.2c-0.1-0.5-0.3-1.1-0.4-1.5s-0.2-0.7-0.2-0.7c0-0.2,0-0.4,0.1-0.5
		s0.2-0.2,0.3-0.2c0.2,0,0.3,0.1,0.4,0.4c0.3,1,0.5,1.8,0.8,2.5c0.2,0.7,0.5,1.3,0.7,1.8c0.2,0,0.4-0.2,0.8-0.4
		c0.4-0.2,0.8-0.4,1.2-0.7c0.4-0.2,0.8-0.4,1.1-0.6c0.3-0.2,0.5-0.3,0.6-0.3s0.2,0,0.2,0.1C136.3,146.3,136.3,146.4,136.4,146.4z"/>
	<path class="st3" d="M151.2,151.7c0,0.3-0.1,0.7-0.3,1.2c-0.3,0.5-0.6,1-1.1,1.5s-1,0.9-1.6,1.3c-0.6,0.4-1.3,0.6-2,0.7
		c-0.3,0-0.7,0-1-0.1c-0.4-0.1-0.7-0.2-1.1-0.4c-0.4-0.2-0.7-0.4-1-0.7s-0.5-0.6-0.7-1c-0.1,0.1-0.2,0.3-0.3,0.6s-0.3,0.5-0.4,0.8
		c-0.2,0.3-0.3,0.5-0.5,0.7s-0.4,0.3-0.6,0.3c-0.2,0-0.4-0.1-0.6-0.3c-0.2-0.2-0.3-0.5-0.4-0.8c-0.1-0.3-0.2-0.6-0.3-0.8
		c-0.1-0.3-0.1-0.4-0.1-0.5c0-0.2,0-0.6,0.1-1.2c0.1-0.6,0.2-1.3,0.4-1.9c0.2-0.7,0.5-1.3,0.8-1.8s0.8-0.8,1.3-0.9
		c0.2,0,0.3,0.1,0.4,0.2c0.1,0.2,0.1,0.3,0.1,0.5l0.1,0.8c0.1,0.1,0.2,0.1,0.3,0.1s0.2,0,0.3,0.1c0.1,0,0.2,0.1,0.2,0.2
		c0.1,0.1,0.1,0.2,0.1,0.4c0,0.1,0,0.2,0,0.3s0,0.2,0,0.3c0,0.5,0.1,0.9,0.2,1.4c0.1,0.4,0.3,0.8,0.5,1.2s0.6,0.6,1,0.8
		s0.9,0.3,1.5,0.2c0.8-0.1,1.4-0.3,2-0.7c0.5-0.4,0.9-0.8,1.3-1.2s0.6-0.8,0.8-1.2c0.2-0.3,0.3-0.5,0.5-0.5
		C151,151.4,151.1,151.5,151.2,151.7z M141.6,151.4c0-0.1,0-0.1-0.1-0.2c0-0.1-0.1-0.1-0.1-0.2c0-0.1,0-0.1,0-0.2c0-0.1,0-0.1,0-0.2
		c0-0.1,0-0.1-0.1-0.1l-0.1-0.1c-0.2,0-0.3,0.2-0.5,0.5s-0.3,0.6-0.4,1c-0.1,0.4-0.2,0.7-0.3,1.1c-0.1,0.4-0.1,0.7-0.1,0.9
		c0,0.1,0.1,0.3,0.2,0.6s0.2,0.5,0.3,0.5c0.2-0.7,0.5-1.3,0.7-1.9S141.7,151.9,141.6,151.4z"/>
	<path class="st3" d="M153.5,155.4c0,0.1,0,0.2-0.1,0.3s-0.2,0.2-0.3,0.3s-0.3,0.2-0.4,0.2c-0.1,0.1-0.2,0.1-0.2,0.1
		c-0.2,0-0.3,0-0.4-0.1s-0.2-0.2-0.2-0.3c-0.1-0.1-0.1-0.2-0.1-0.3s0-0.2,0-0.2c0-0.1,0-0.2,0-0.3s0.1-0.2,0.1-0.4
		c0.1-0.1,0.1-0.2,0.2-0.3c0.1-0.1,0.2-0.1,0.3-0.2c0.2,0,0.5,0.1,0.7,0.2C153.4,154.9,153.5,155.1,153.5,155.4z"/>
</g>
</svg>
