<?xml version="1.0" encoding="utf-8"?>
<!-- Generator: Adobe Illustrator 22.1.0, SVG Export Plug-In . SVG Version: 6.00 Build 0)  -->
<svg version="1.1" id="Layer_1" xmlns="http://www.w3.org/2000/svg" xmlns:xlink="http://www.w3.org/1999/xlink" x="0px" y="0px"
	 viewBox="0 0 250 250" style="enable-background:new 0 0 250 250;" xml:space="preserve">
<style type="text/css">
	.st0{fill:none;stroke:#FFFFFF;stroke-linecap:round;stroke-linejoin:round;stroke-miterlimit:10;}
	.st1{fill:none;}
	.st2{enable-background:new    ;}
	.st3{fill:#FFFFFF;}
</style>
<path class="st0" d="M116,35c-2.5,2.3-51.3,48.4-38,114c9.4,46.1,45.7,83,92.6,94"/>
<path class="st0" d="M158.2,228c2.3,2.6,4.5,5.3,6.8,8.1c1.9,2.3,3.7,4.7,5.5,7c-6.2,1.6-12.4,3.1-18.7,4.7"/>
<rect x="84.1" y="2.1" transform="matrix(0.342 -0.9397 0.9397 0.342 32.8347 152.4851)" class="st1" width="82.4" height="101.4"/>
<g class="st2">
	<path class="st3" d="M101.6,19.7c-0.1,0.2-0.2,0.3-0.4,0.4s-0.4,0.1-0.6,0l-0.1-0.1c-0.1-0.1-0.1-0.1-0.1-0.2
		c-0.5-0.9-1-1.9-1.5-2.8c-0.6-0.9-1.1-1.9-1.7-2.9s-1.1-2-1.6-3.1c-0.5-1-0.9-2.1-1.3-3.3c-0.1,1-0.2,2.1-0.2,3.2s0,2.2,0,3.3
		c0,1,0,1.9,0.1,2.6c0,0.7,0,1.2-0.1,1.4c-0.1,0.2-0.2,0.3-0.4,0.4s-0.4,0.1-0.6,0c-0.1,0-0.2-0.2-0.2-0.4c0-0.3-0.1-0.6-0.1-1
		s0-0.8,0-1.3c0-0.5,0-0.9,0-1.4s0-0.9,0-1.3c0-0.4,0-0.7,0-1L93,10c0-0.5,0-1,0-1.5s0-1,0.1-1.5c0-0.5,0-0.8,0.1-1.2
		c0-0.3,0.1-0.5,0.1-0.6c0.1-0.2,0.2-0.4,0.3-0.5c0.1-0.2,0.2-0.2,0.4-0.2c0.1,0,0.1,0.1,0.2,0.1s0,0.1,0.1,0.1h0.4
		c0.1,0,0.2,0.2,0.3,0.5c0.1,0.3,0.3,0.7,0.4,1.1c0.2,0.4,0.3,0.9,0.5,1.5c0.2,0.5,0.3,1.1,0.5,1.6s0.4,1,0.5,1.5
		c0.2,0.5,0.3,0.8,0.5,1.1c0.2,0.5,0.5,0.9,0.8,1.4c0.3,0.4,0.5,0.9,0.8,1.3c0.3,0.5,0.5,0.9,0.8,1.4s0.6,1.1,1,1.7c0,0,0,0,0.1,0.1
		c0,0,0.1,0,0.1-0.1s0.1-0.2,0.1-0.3c0.1-0.2,0.2-0.7,0.3-1.4s0.2-1.5,0.2-2.4c0.1-0.9,0.1-1.9,0.1-2.9c0-1.1,0-2.1,0-3.1
		s-0.1-1.9-0.3-2.8s-0.3-1.5-0.6-2.1c-0.1-0.1-0.1-0.3,0-0.5c0-0.2,0.1-0.4,0.1-0.5s0.2-0.2,0.4-0.3c0.2-0.1,0.4-0.1,0.5-0.1
		c0.2,0.1,0.4,0.4,0.5,0.9s0.2,1.1,0.2,1.9s0.1,1.6,0.1,2.5s0,1.8,0,2.8c0,1.1-0.1,2.2-0.1,3.3c-0.1,1.1-0.1,2.1-0.2,3
		s-0.2,1.7-0.3,2.4C101.8,18.8,101.7,19.4,101.6,19.7z"/>
	<path class="st3" d="M110.3,21c0,0,0,0.1,0,0.2s-0.2,0.2-0.4,0.4c-0.1,0-0.2,0.1-0.5,0.2c-0.2,0.1-0.5,0.2-0.9,0.2
		c-0.3,0-0.7,0.1-1.2,0c-0.5,0-1-0.1-1.5-0.4c-0.4-0.1-0.7-0.4-1-0.7c-0.3-0.3-0.5-0.7-0.7-1.1c-0.2-0.5-0.2-1-0.2-1.6
		s0.1-1.2,0.4-1.9c0.2-0.7,0.5-1.2,0.9-1.8c0.4-0.5,0.8-0.9,1.2-1.3c0.4-0.3,0.8-0.6,1.3-0.7c0.4-0.1,0.8-0.1,1.1,0
		c0.3,0.1,0.5,0.3,0.8,0.5c0.2,0.2,0.4,0.4,0.6,0.7s0.3,0.5,0.3,0.8c0.1,0.3,0,0.5,0,0.7c-0.1,0.3-0.3,0.5-0.6,0.7
		c-0.3,0.2-0.7,0.3-1.1,0.4s-0.8,0.2-1.2,0.2c-0.4,0-0.7,0-0.8-0.1c-0.1,0-0.2-0.1-0.2-0.2s0-0.2,0-0.4c0.1-0.2,0.3-0.4,0.5-0.4
		c0.3-0.1,0.5-0.1,0.8-0.1s0.6-0.1,0.8-0.1s0.4-0.2,0.5-0.5c0,0,0-0.1,0-0.3s-0.2-0.3-0.6-0.5c-0.2-0.1-0.4,0-0.7,0.1
		c-0.3,0.1-0.6,0.3-0.9,0.6s-0.6,0.6-0.9,1c-0.3,0.4-0.5,0.9-0.7,1.4c-0.2,0.4-0.2,0.9-0.2,1.3s0.1,0.8,0.3,1.1
		c0.2,0.3,0.4,0.6,0.7,0.9c0.3,0.3,0.6,0.5,1,0.6c0.3,0.1,0.5,0.1,0.9,0.1c0.3,0,0.7,0,1-0.1s0.6-0.1,0.8-0.1s0.4,0,0.4,0l0.1,0.1
		C110.3,20.9,110.3,20.9,110.3,21z"/>
	<path class="st3" d="M119.4,24.7c-0.1,0.3-0.3,0.5-0.5,0.6c-0.2,0-0.5,0-0.7,0c-0.4-0.1-0.8-0.5-1.1-1c-0.4-0.5-0.7-1.1-1.1-1.7
		c0,0-0.1,0.2-0.3,0.5c-0.2,0.3-0.4,0.6-0.7,1s-0.6,0.6-0.9,0.9s-0.6,0.3-0.8,0.3c-0.2-0.1-0.3-0.2-0.3-0.3
		c-0.1-0.2-0.1-0.3-0.1-0.3c0-0.1,0.2-0.3,0.4-0.6c0.2-0.3,0.5-0.6,0.8-0.9s0.5-0.6,0.8-0.9c0.2-0.3,0.4-0.5,0.4-0.7
		c0-0.1,0-0.3-0.2-0.8c-0.1-0.5-0.3-1-0.4-1.6s-0.3-1.2-0.3-1.9c-0.1-0.6,0-1.2,0.1-1.6c0-0.1,0.1-0.2,0.3-0.3
		c0.1-0.1,0.3-0.1,0.3-0.1c0.1,0,0.2,0.1,0.4,0.3c0.2,0.1,0.2,0.3,0.2,0.4c0,0.6,0,1.3,0,2s0.2,1.5,0.5,2.3c0.1-0.2,0.3-0.4,0.5-0.7
		c0.2-0.3,0.4-0.6,0.6-1c0.2-0.3,0.4-0.7,0.7-1c0.2-0.3,0.4-0.6,0.6-0.9s0.4-0.5,0.5-0.6c0.2-0.2,0.3-0.2,0.4-0.2s0.2,0.1,0.4,0.2
		c0.2,0.1,0.2,0.3,0.1,0.5c-0.3,0.5-0.6,1-0.8,1.3c-0.2,0.4-0.5,0.7-0.7,1.2s-0.5,0.8-0.7,1.1c0,0-0.1,0.1-0.2,0.2s-0.2,0.2-0.3,0.4
		c-0.1,0.1-0.2,0.3-0.3,0.4c-0.1,0.1-0.1,0.2-0.1,0.2c-0.1,0.2,0,0.4,0.2,0.7c0.2,0.3,0.4,0.6,0.6,0.9s0.5,0.6,0.7,0.8
		c0.2,0.2,0.4,0.4,0.4,0.4c0.1,0,0.1,0,0.2,0s0.2,0,0.2,0c0.1,0,0.2,0.2,0.2,0.3S119.4,24.6,119.4,24.7z"/>
	<path class="st3" d="M131.4,18.7c-0.3,0.2-0.7,0.3-1.2,0.4s-1,0.2-1.5,0.2c-0.5,0.1-0.9,0.1-1.3,0.1s-0.5,0.1-0.6,0.1
		s0,0.2-0.1,0.5c0,0.3-0.1,0.6-0.1,1s-0.1,0.8-0.1,1.2s-0.1,0.8-0.1,1.1c0,0.2-0.1,0.4-0.1,0.7c0,0.3-0.1,0.6-0.2,0.9
		s-0.1,0.5-0.1,0.8c0,0.2-0.1,0.3-0.1,0.4c-0.1,0.3-0.2,0.5-0.4,0.7c-0.2,0.2-0.4,0.3-0.6,0.3c-0.1,0-0.2-0.1-0.2-0.2
		c-0.1-0.1-0.1-0.2-0.1-0.4c0-0.1,0-0.3,0-0.4s0-0.2,0-0.2s0-0.1,0.1-0.1c0-0.1,0.1-0.1,0.1-0.2c0.1-0.3,0.2-0.8,0.4-1.5
		c0-0.2,0.1-0.5,0.1-0.9s0.1-0.9,0.1-1.3c0.1-0.5,0.1-1.1,0.2-1.7c0-0.3,0-0.4,0-0.4c-0.1,0-0.3,0-0.7,0c-0.3,0-0.7,0.1-1.1,0.2
		s-0.9,0.2-1.4,0.3c-0.5,0.1-0.9,0.2-1.3,0.3c-0.4,0.1-0.8,0.2-1.1,0.2c-0.3,0.1-0.5,0.1-0.5,0.1c-0.2-0.1-0.4-0.2-0.5-0.4
		c-0.1-0.2-0.1-0.4,0-0.6c0-0.1,0.2-0.2,0.6-0.3c0.3-0.1,0.8-0.2,1.3-0.3c0.5-0.1,1-0.2,1.6-0.2c0.6-0.1,1.1-0.1,1.6-0.2
		s1.1-0.1,1.7-0.2c0.1-0.8,0.3-1.6,0.4-2.2s0.2-1.1,0.3-1.5c0.1-0.5,0.1-0.7,0.1-0.8c0.1-0.2,0.2-0.4,0.3-0.4c0.1-0.1,0.3-0.1,0.4,0
		c0.2,0.1,0.3,0.2,0.2,0.5c-0.1,1-0.3,1.9-0.4,2.6c-0.1,0.8-0.2,1.4-0.2,1.9c0.2,0,0.5,0,0.9,0s0.9-0.1,1.4-0.1s0.9-0.1,1.3-0.1
		c0.4,0,0.6,0,0.6,0C131.2,18.6,131.3,18.7,131.4,18.7C131.3,18.6,131.3,18.6,131.4,18.7z"/>
	<path class="st3" d="M146,33.2c-0.1,0.3-0.3,0.5-0.6,0.6s-0.6,0.2-0.9,0.3c-0.3,0-0.7,0-1.1,0s-0.7-0.1-1.1-0.2
		c-0.3-0.1-0.6-0.2-0.9-0.2c-0.2-0.1-0.4-0.1-0.5-0.2c-0.4-0.1-0.6-0.3-0.8-0.5s-0.2-0.4-0.1-0.7c0-0.1,0.1-0.2,0.1-0.3
		s0.1-0.1,0.2,0c0.1,0,0.1,0.1,0.2,0.1c0.1,0.1,0.2,0.1,0.3,0.1s0.3,0.1,0.7,0.2s0.8,0.2,1.2,0.3s0.8,0.1,1.2,0.1s0.6-0.1,0.7-0.3
		c0,0-0.1-0.2-0.4-0.5c-0.3-0.3-0.7-0.8-1.2-1.5c-0.4-0.5-0.7-1-0.8-1.4s0-0.9,0.2-1.5c0.1-0.4,0.3-0.6,0.6-0.8
		c0.2-0.2,0.5-0.3,0.9-0.3c0.3,0,0.7,0,1.1,0.1c0.4,0.1,0.8,0.2,1.2,0.3c0,0,0.1,0.1,0.3,0.2s0.3,0.2,0.5,0.4
		c0.2,0.1,0.3,0.3,0.4,0.5c0.1,0.2,0.2,0.3,0.1,0.5l-0.1,0.1c-0.1,0-0.2,0.1-0.4,0.3c0,0-0.1-0.1-0.2-0.2s-0.2-0.2-0.4-0.3
		s-0.3-0.2-0.5-0.3c-0.2-0.1-0.3-0.1-0.4-0.2c-0.4-0.2-0.8-0.2-1.2-0.1c-0.3,0.1-0.6,0.3-0.7,0.8c-0.1,0.2-0.1,0.5,0,0.7
		s0.3,0.5,0.5,0.8s0.4,0.5,0.7,0.8s0.5,0.6,0.7,0.8c0.2,0.3,0.4,0.6,0.5,0.8C146.1,32.7,146.1,32.9,146,33.2z"/>
	<path class="st3" d="M157.9,28.3c-0.3,0.2-0.7,0.3-1.2,0.4s-1,0.2-1.5,0.2c-0.5,0.1-0.9,0.1-1.3,0.1c-0.4,0-0.5,0.1-0.6,0.1
		c0,0.1,0,0.2-0.1,0.5c0,0.3-0.1,0.6-0.1,1s-0.1,0.8-0.1,1.2c0,0.4,0,0.9,0,1.2c0,0.2-0.1,0.4-0.1,0.7s-0.1,0.6-0.2,0.9
		c-0.1,0.3-0.1,0.5-0.1,0.8c0,0.2-0.1,0.3-0.1,0.4c-0.1,0.3-0.2,0.5-0.4,0.7s-0.4,0.3-0.6,0.3c-0.1,0-0.2-0.1-0.2-0.2
		c-0.1-0.1-0.1-0.2-0.1-0.4c0-0.1,0-0.3,0-0.4c0-0.1,0-0.2,0-0.2s0-0.1,0.1-0.1c0-0.1,0.1-0.1,0.1-0.2c0.1-0.3,0.2-0.8,0.4-1.5
		c0-0.2,0.1-0.5,0.1-0.9s0.1-0.9,0.1-1.3c0.1-0.5,0.1-1.1,0.2-1.7c0-0.3,0-0.4,0-0.4c-0.1,0-0.3,0-0.7,0c-0.3,0-0.7,0.1-1.1,0.2
		c-0.4,0.1-0.9,0.2-1.4,0.3c-0.5,0.1-0.9,0.2-1.3,0.3c-0.4,0.1-0.8,0.2-1.1,0.2c-0.3,0.1-0.5,0.1-0.5,0.1c-0.2-0.1-0.4-0.2-0.5-0.4
		c-0.1-0.2-0.1-0.4,0-0.6c0-0.1,0.2-0.2,0.6-0.3c0.3-0.1,0.8-0.2,1.3-0.3c0.5-0.1,1-0.2,1.6-0.2c0.6-0.1,1.1-0.1,1.6-0.2
		s1.1-0.1,1.7-0.2c0.1-0.8,0.3-1.6,0.4-2.2c0.1-0.6,0.2-1.1,0.3-1.5c0.1-0.5,0.1-0.7,0.1-0.8c0.1-0.2,0.2-0.4,0.3-0.4
		c0.1-0.1,0.3-0.1,0.4,0c0.2,0.1,0.3,0.2,0.2,0.5c-0.1,1-0.3,1.9-0.4,2.6c-0.1,0.8-0.2,1.4-0.2,1.9c0.2,0,0.5,0,0.9,0
		s0.9-0.1,1.4-0.1s0.9-0.1,1.3-0.1c0.4,0,0.6,0,0.6,0c0.1,0,0.2,0.1,0.2,0.2C157.8,28.2,157.8,28.3,157.9,28.3z"/>
	<path class="st3" d="M161.6,36.5c-0.1,0.4-0.3,0.7-0.5,1s-0.5,0.5-0.7,0.7c-0.3,0.2-0.5,0.3-0.8,0.4c-0.3,0.1-0.6,0-0.8-0.1
		c-0.5-0.2-0.8-0.4-1-0.8c-0.2-0.4-0.3-0.8-0.3-1.2s0-0.8,0.1-1.2s0.2-0.7,0.2-0.8c0.1-0.3,0.3-0.6,0.5-1c0.2-0.3,0.5-0.7,0.8-0.9
		c0.3-0.3,0.6-0.5,0.8-0.6c0.3-0.1,0.5-0.2,0.8-0.1c0.1,0,0.1,0.1,0.2,0.1c0.1,0.1,0.2,0.2,0.3,0.3s0.2,0.2,0.2,0.4
		c0.1,0.1,0.1,0.3,0.1,0.4c0.2,0.1,0.3,0.2,0.5,0.4c0.1,0.2,0.2,0.3,0.2,0.4c0,0.5-0.1,1-0.2,1.4S161.7,36.2,161.6,36.5z
		 M160.6,35.6c0.1-0.3,0.2-0.5,0.2-0.8s0.1-0.6,0-1h-0.1c-0.1,0-0.1-0.1-0.2-0.1l-0.1-0.1c-0.2-0.1-0.4-0.1-0.5,0s-0.3,0.2-0.4,0.3
		s-0.2,0.3-0.3,0.5S159,34.8,159,35c-0.1,0.2-0.1,0.4-0.2,0.6c-0.1,0.2-0.1,0.5-0.1,0.7s0,0.4,0.1,0.6c0,0.2,0.2,0.3,0.3,0.4
		s0.3,0,0.5-0.1s0.4-0.3,0.5-0.5c0.2-0.2,0.3-0.4,0.4-0.6C160.5,35.9,160.6,35.7,160.6,35.6z"/>
	<path class="st3" d="M171,37.3c0,0.1-0.1,0.2-0.3,0.2c-0.1,0-0.3,0.1-0.4,0.1c-0.2,0-0.3,0-0.4,0s-0.3-0.1-0.3-0.1
		c-0.3-0.1-0.4-0.2-0.5-0.2s-0.1-0.1-0.2-0.1c-0.4-0.2-0.8-0.2-1.1-0.3c-0.3,0-0.5,0-0.7,0.1s-0.4,0.3-0.5,0.5s-0.2,0.5-0.4,0.8
		c-0.2,0.5-0.3,1-0.4,1.3c-0.1,0.3-0.1,0.6-0.2,0.8c0,0.2,0,0.4,0,0.5s0,0.2-0.1,0.3c0,0.1-0.2,0.3-0.4,0.4
		c-0.2,0.1-0.4,0.1-0.5,0.1c-0.2-0.1-0.3-0.3-0.3-0.7s0-0.9,0.1-1.4s0.2-1.1,0.3-1.6s0.2-0.9,0.3-1.2s0.2-0.6,0.4-0.8
		s0.3-0.4,0.5-0.6s0.3-0.3,0.5-0.4c0.1-0.1,0.3-0.1,0.4-0.1c0.1,0,0.1,0.1,0.2,0.2s0,0.2,0.1,0.2c0,0.1,0,0.2,0,0.2l0.1,0.1
		c0.2,0.1,0.4,0.1,0.8,0c0.4,0,0.8,0,1.3,0.2s0.8,0.3,1,0.4c0.2,0.1,0.4,0.2,0.6,0.4c0,0,0.1,0.1,0.1,0.2
		C171,37.1,171,37.2,171,37.3z"/>
	<path class="st3" d="M179.8,35.9c-0.6,1.1-1.3,2.1-1.8,3.2c-0.3,0.4-0.5,0.9-0.8,1.3c-0.3,0.5-0.5,0.9-0.8,1.4s-0.5,0.9-0.7,1.3
		c-0.2,0.4-0.4,0.8-0.6,1.1c-0.3,0.5-0.5,1.1-0.8,1.8s-0.6,1.3-0.8,1.9c-0.3,0.7-0.6,1.4-0.9,2.2c-0.1,0.2-0.1,0.3-0.2,0.5
		c-0.1,0.2-0.2,0.4-0.3,0.5c-0.1,0.2-0.2,0.3-0.3,0.4c-0.1,0.1-0.3,0.1-0.4,0.1c-0.1,0-0.2-0.2-0.2-0.4s0-0.5,0.1-0.8
		s0.1-0.6,0.2-0.9s0.1-0.5,0.2-0.6c0-0.1,0.1-0.3,0.2-0.5c0.1-0.2,0.2-0.5,0.4-0.8c0.2-0.4,0.4-0.9,0.7-1.5s0.6-1.4,1.1-2.3
		c0,0-0.1-0.1-0.2-0.4c-0.2-0.2-0.4-0.5-0.6-0.9c-0.2-0.3-0.5-0.7-0.7-1.1c-0.2-0.4-0.4-0.8-0.6-1.1c0,0,0-0.1-0.1-0.3
		c0-0.1,0-0.3,0.1-0.5c0-0.1,0.1-0.2,0.2-0.2c0.1-0.1,0.2-0.1,0.3,0c0.1,0,0.1,0.1,0.2,0.2c0.3,0.5,0.6,1,0.9,1.6
		c0.4,0.6,0.7,1.2,1.1,1.7c0.1-0.3,0.4-0.7,0.7-1.3s0.7-1.2,1.1-1.9c0.4-0.7,0.7-1.3,1.1-2s0.6-1.1,0.8-1.5c0-0.1,0.1-0.2,0.2-0.3
		c0.1-0.1,0.2-0.3,0.3-0.4c0.1-0.1,0.2-0.2,0.4-0.3c0.1-0.1,0.2-0.1,0.3-0.1s0.1,0.1,0.3,0.3C179.9,35.3,179.9,35.5,179.8,35.9z"/>
</g>
</svg>
