<?xml version="1.0" encoding="utf-8"?>
<!-- Generator: Adobe Illustrator 22.1.0, SVG Export Plug-In . SVG Version: 6.00 Build 0)  -->
<svg version="1.1" id="Layer_1" xmlns="http://www.w3.org/2000/svg" xmlns:xlink="http://www.w3.org/1999/xlink" x="0px" y="0px"
	 viewBox="0 0 250 250" style="enable-background:new 0 0 250 250;" xml:space="preserve">
<style type="text/css">
	.st0{fill:#FFFFFF;}
	.st1{fill:none;stroke:#FFFFFF;stroke-width:2;stroke-miterlimit:10;}
	.st2{font-family:'MyriadPro-Regular';}
	.st3{font-size:12px;}
</style>
<g>
	<path class="st0" d="M86.8,11.6L86.8,11.6l-0.1,17.6h-1.9V9H87l11.6,17.6h0.1V9h1.9v20.2h-2.2L86.8,11.6z"/>
	<path class="st0" d="M105.9,22.3c0,0.8,0.1,1.5,0.3,2.2c0.2,0.7,0.5,1.3,0.9,1.8s0.9,0.9,1.5,1.2c0.6,0.3,1.3,0.5,2.1,0.5
		c1.1,0,2-0.3,2.8-0.9s1.3-1.4,1.6-2.5h1.9c-0.2,0.7-0.5,1.3-0.8,1.9s-0.8,1.1-1.3,1.5s-1.1,0.8-1.8,1c-0.7,0.2-1.5,0.4-2.4,0.4
		c-1.2,0-2.2-0.2-3-0.6s-1.5-0.9-2.1-1.6c-0.5-0.7-0.9-1.5-1.2-2.4c-0.3-0.9-0.4-1.9-0.4-3s0.2-2.1,0.5-3s0.7-1.8,1.3-2.5
		c0.6-0.7,1.3-1.3,2.1-1.7c0.8-0.4,1.8-0.6,2.8-0.6c2,0,3.6,0.7,4.7,2.1s1.7,3.4,1.7,6h-11.2V22.3z M115.3,20.9c0-0.7-0.1-1.4-0.3-2
		c-0.2-0.6-0.5-1.2-0.9-1.6c-0.4-0.5-0.9-0.8-1.4-1.1c-0.6-0.3-1.2-0.4-2-0.4s-1.4,0.1-2,0.4s-1.1,0.7-1.5,1.1c-0.4,0.5-0.7,1-1,1.6
		c-0.2,0.6-0.4,1.3-0.5,2H115.3z"/>
	<path class="st0" d="M125.4,22.9l-4.5,6.3h-2l5.6-7.5l-5.1-7h2.1l4,5.8l4.1-5.8h2.1l-5.2,7l5.4,7.5h-2L125.4,22.9z"/>
	<path class="st0" d="M139.5,29.2c-0.2,0-0.5,0.1-0.8,0.2s-0.7,0.1-1.1,0.1c-0.8,0-1.5-0.2-1.9-0.6s-0.7-1.2-0.7-2.3V16.1h-2v-1.4h2
		v-4h1.7v4h2.7v1.4h-2.7V26c0,0.4,0,0.7,0,0.9c0,0.3,0.1,0.5,0.2,0.6c0.1,0.2,0.2,0.3,0.4,0.4s0.5,0.1,0.8,0.1c0.2,0,0.5,0,0.7-0.1
		s0.5-0.1,0.7-0.1L139.5,29.2L139.5,29.2z"/>
	<path class="st0" d="M164.5,14.9c-0.4-1.7-1.1-2.9-2.2-3.7c-1.1-0.7-2.5-1.1-4.2-1.1c-1.2,0-2.3,0.2-3.1,0.7
		c-0.9,0.5-1.6,1.1-2.2,2s-1,1.8-1.3,2.8c-0.3,1.1-0.4,2.2-0.4,3.4c0,1.1,0.1,2.2,0.3,3.3c0.2,1.1,0.6,2,1.2,2.9
		c0.5,0.8,1.3,1.5,2.2,2.1c0.9,0.5,2.1,0.8,3.4,0.8c0.9,0,1.6-0.1,2.4-0.4c0.7-0.3,1.3-0.7,1.9-1.2c0.5-0.5,1-1.1,1.3-1.8
		c0.4-0.7,0.6-1.4,0.8-2.2h2c-0.2,1-0.6,1.9-1,2.8s-1,1.6-1.7,2.3c-0.7,0.7-1.5,1.2-2.5,1.6s-2.2,0.6-3.5,0.6c-1.5,0-2.9-0.3-4-0.9
		s-2-1.3-2.7-2.3s-1.2-2.1-1.5-3.4s-0.5-2.6-0.5-4.1c0-1.9,0.2-3.6,0.7-4.9s1.1-2.4,2-3.3c0.8-0.8,1.8-1.5,3-1.8
		c1.1-0.4,2.4-0.6,3.7-0.6c1,0,2,0.1,2.9,0.4c0.9,0.3,1.7,0.7,2.4,1.2s1.2,1.2,1.7,2s0.7,1.7,0.9,2.8
		C166.5,14.9,164.5,14.9,164.5,14.9z"/>
	<path class="st0" d="M176.8,20.7c0.3,0,0.7-0.1,1.1-0.2c0.4-0.1,0.8-0.2,1.1-0.3c0.3-0.1,0.5-0.4,0.5-0.7c0.1-0.3,0.1-0.6,0.1-0.9
		c0-0.9-0.3-1.6-0.8-2.1c-0.6-0.6-1.5-0.8-2.8-0.8c-0.6,0-1.1,0.1-1.6,0.2c-0.5,0.1-0.9,0.3-1.3,0.5c-0.4,0.3-0.7,0.6-0.9,1
		s-0.4,0.9-0.5,1.6H170c0.1-0.9,0.3-1.6,0.6-2.2s0.8-1.1,1.3-1.5s1.1-0.7,1.8-0.8c0.7-0.2,1.4-0.3,2.2-0.3c0.7,0,1.4,0.1,2.1,0.2
		c0.6,0.2,1.2,0.4,1.7,0.8c0.5,0.3,0.8,0.8,1.1,1.4c0.3,0.6,0.4,1.3,0.4,2.1v7.9c0,0.7,0.1,1.1,0.3,1.2c0.2,0.2,0.7,0.1,1.4-0.1V29
		c-0.1,0-0.3,0.1-0.6,0.2s-0.5,0.1-0.7,0.1c-0.3,0-0.5,0-0.8-0.1c-0.3,0-0.5-0.1-0.7-0.3s-0.3-0.3-0.4-0.5c-0.1-0.2-0.2-0.4-0.2-0.6
		s-0.1-0.5-0.1-0.7c-0.7,0.8-1.5,1.4-2.4,1.8s-1.9,0.6-3,0.6c-0.6,0-1.2-0.1-1.8-0.3s-1.1-0.4-1.6-0.8c-0.4-0.4-0.8-0.8-1.1-1.3
		s-0.4-1.1-0.4-1.8c0-2.5,1.7-3.9,5.1-4.4L176.8,20.7z M179.7,21.5c-0.7,0.3-1.4,0.5-2.2,0.6c-0.7,0.1-1.5,0.2-2.2,0.2
		c-1.3,0.1-2.3,0.4-3,0.9s-1.1,1.2-1.1,2.2c0,0.4,0.1,0.8,0.3,1.2c0.2,0.3,0.4,0.6,0.7,0.8c0.3,0.2,0.6,0.4,1,0.5s0.8,0.2,1.2,0.2
		c0.7,0,1.3-0.1,2-0.3s1.2-0.4,1.7-0.8c0.5-0.3,0.9-0.8,1.2-1.3s0.4-1.2,0.4-1.9L179.7,21.5L179.7,21.5z"/>
	<path class="st0" d="M186.7,24.6c0.3,1.3,0.7,2.1,1.4,2.6s1.7,0.8,2.9,0.8c0.6,0,1.1-0.1,1.6-0.2c0.4-0.1,0.8-0.3,1.1-0.6
		c0.3-0.3,0.5-0.5,0.7-0.9c0.1-0.3,0.2-0.7,0.2-1c0-0.7-0.2-1.2-0.7-1.6c-0.5-0.3-1-0.6-1.7-0.8c-0.7-0.2-1.4-0.4-2.2-0.5
		s-1.5-0.4-2.2-0.6c-0.7-0.3-1.3-0.7-1.7-1.2c-0.5-0.5-0.7-1.3-0.7-2.2c0-1.2,0.4-2.2,1.3-3c0.9-0.8,2.1-1.2,3.8-1.2
		c1.6,0,2.8,0.4,3.8,1c1,0.7,1.6,1.9,1.8,3.5h-1.7c-0.2-1.1-0.6-1.9-1.3-2.4s-1.6-0.7-2.6-0.7c-1.1,0-1.9,0.2-2.4,0.7
		c-0.6,0.5-0.8,1.1-0.8,1.8c0,0.7,0.2,1.2,0.7,1.5s1,0.6,1.7,0.8c0.7,0.2,1.4,0.4,2.2,0.6s1.5,0.4,2.2,0.7s1.3,0.7,1.7,1.2
		c0.5,0.5,0.7,1.3,0.7,2.2c0,0.7-0.1,1.3-0.4,1.8c-0.3,0.5-0.7,1-1.2,1.3c-0.5,0.4-1.1,0.6-1.9,0.8s-1.5,0.3-2.4,0.3
		s-1.6-0.1-2.3-0.4s-1.2-0.6-1.7-1.1c-0.5-0.4-0.8-1-1.1-1.6s-0.4-1.2-0.4-1.9h1.6V24.6z"/>
	<path class="st0" d="M200.8,22.3c0,0.8,0.1,1.5,0.3,2.2s0.5,1.3,0.9,1.8s0.9,0.9,1.5,1.2s1.3,0.5,2.1,0.5c1.1,0,2-0.3,2.8-0.9
		s1.3-1.4,1.6-2.5h1.9c-0.2,0.7-0.5,1.3-0.8,1.9s-0.8,1.1-1.3,1.5s-1.1,0.8-1.8,1s-1.5,0.4-2.4,0.4c-1.2,0-2.2-0.2-3-0.6
		s-1.5-0.9-2.1-1.6c-0.5-0.7-0.9-1.5-1.2-2.4s-0.4-1.9-0.4-3s0.2-2.1,0.5-3s0.7-1.8,1.3-2.5c0.6-0.7,1.3-1.3,2.1-1.7
		s1.8-0.6,2.8-0.6c2,0,3.6,0.7,4.7,2.1s1.7,3.4,1.7,6h-11.2V22.3z M210.3,20.9c0-0.7-0.1-1.4-0.3-2s-0.5-1.2-0.9-1.6
		c-0.4-0.5-0.9-0.8-1.4-1.1c-0.6-0.3-1.2-0.4-2-0.4c-0.7,0-1.4,0.1-2,0.4s-1.1,0.7-1.5,1.1c-0.4,0.5-0.7,1-1,1.6
		c-0.2,0.6-0.4,1.3-0.5,2H210.3z"/>
</g>
<path class="st1" d="M53.7,19.6c-115.4,98.5,28.1,204.5,28.1,204.5"/>
<polyline class="st1" points="66.8,185.7 81.8,224.2 40.6,225.7 "/>
<text transform="matrix(1 0 0 1 80 74)" class="st2 st3">next story</text>
</svg>
