<?xml version="1.0" encoding="utf-8"?>
<!-- Generator: Adobe Illustrator 22.1.0, SVG Export Plug-In . SVG Version: 6.00 Build 0)  -->
<svg version="1.1" id="Layer_1" xmlns="http://www.w3.org/2000/svg" xmlns:xlink="http://www.w3.org/1999/xlink" x="0px" y="0px"
	 viewBox="0 0 250 250" style="enable-background:new 0 0 250 250;" xml:space="preserve">
<style type="text/css">
	.st0{fill:none;stroke:#FFFFFF;stroke-linecap:round;stroke-linejoin:round;stroke-miterlimit:10;}
	.st1{fill:none;}
	.st2{enable-background:new    ;}
	.st3{fill:#FFFFFF;}
</style>
<path class="st0" d="M69.5,51.5c-7.1,18.4-14.9,47.2-12,82c0.9,10.9,2.7,30.3,13,53c12.9,28.4,31.9,46.1,43,55"/>
<path class="st0" d="M113.8,231.9c0,3.2-0.1,6.5-0.1,9.7c-3.2-0.5-6.4-0.9-9.6-1.4"/>
<rect x="49.1" y="15.8" transform="matrix(0.9962 -8.715522e-02 8.715522e-02 0.9962 -8.1959 10.2905)" class="st1" width="129.3" height="166.4"/>
<g class="st2">
	<path class="st3" d="M74.7,37.2c0,0.2-0.1,0.3-0.2,0.5c-0.1,0.2-0.3,0.2-0.5,0.3c0,0-0.1,0-0.2-0.1c-0.1,0-0.1-0.1-0.2-0.1
		c-0.8-0.7-1.7-1.3-2.6-1.9c-0.9-0.6-1.8-1.3-2.7-1.9c-0.9-0.7-1.8-1.4-2.7-2.1c-0.9-0.7-1.8-1.5-2.6-2.4c0.3,0.9,0.7,1.9,1.2,3
		c0.5,1.1,1,2,1.4,3c0.5,0.9,0.8,1.7,1.2,2.4c0.3,0.7,0.5,1.1,0.5,1.3c0,0.2-0.1,0.4-0.2,0.5c-0.2,0.1-0.3,0.2-0.5,0.2
		c-0.1,0-0.2-0.1-0.4-0.3c-0.1-0.2-0.3-0.5-0.5-0.8c-0.2-0.3-0.4-0.7-0.6-1.2c-0.2-0.4-0.4-0.9-0.6-1.3c-0.2-0.4-0.4-0.8-0.5-1.2
		c-0.2-0.4-0.3-0.7-0.4-0.9L62.8,32c-0.2-0.5-0.4-0.9-0.6-1.4c-0.2-0.5-0.4-0.9-0.6-1.3s-0.3-0.8-0.4-1.1c-0.1-0.3-0.2-0.5-0.2-0.6
		c0-0.2,0-0.4,0-0.6c0-0.2,0.1-0.3,0.3-0.3c0.1,0,0.2,0,0.2,0.1c0,0,0.1,0.1,0.1,0.1l0.3-0.2c0.1,0,0.3,0.1,0.5,0.3
		c0.2,0.2,0.5,0.5,0.9,0.8c0.3,0.3,0.7,0.7,1.1,1.1c0.4,0.4,0.8,0.8,1.2,1.2c0.4,0.4,0.8,0.8,1.1,1.1c0.3,0.3,0.7,0.6,0.9,0.8
		c0.4,0.3,0.8,0.6,1.3,0.9c0.4,0.3,0.9,0.6,1.3,0.9c0.4,0.3,0.9,0.6,1.4,1c0.5,0.3,1,0.7,1.6,1.2c0,0,0.1,0,0.1,0c0,0,0.1,0,0-0.1
		c0-0.1,0-0.2,0-0.3c0-0.3-0.1-0.7-0.3-1.3c-0.2-0.6-0.5-1.4-0.8-2.2c-0.3-0.8-0.7-1.8-1.1-2.7c-0.4-1-0.9-1.9-1.3-2.8
		c-0.5-0.9-0.9-1.7-1.4-2.4c-0.5-0.7-0.9-1.3-1.4-1.6c-0.1-0.1-0.2-0.3-0.3-0.5s-0.1-0.4-0.1-0.5c0-0.1,0.1-0.3,0.2-0.4
		c0.2-0.2,0.3-0.3,0.5-0.3c0.2,0,0.5,0.2,0.8,0.6c0.3,0.4,0.6,0.9,1,1.6c0.4,0.7,0.7,1.4,1.1,2.2s0.8,1.7,1.2,2.5c0.5,1,0.9,2,1.3,3
		c0.4,1,0.8,1.9,1.1,2.8c0.3,0.9,0.6,1.6,0.8,2.3C74.5,36.2,74.6,36.8,74.7,37.2z"/>
	<path class="st3" d="M83.1,34.6c0,0,0,0.1,0,0.2c0,0.1-0.1,0.3-0.2,0.5c0,0.1-0.2,0.2-0.3,0.4c-0.2,0.2-0.4,0.4-0.7,0.5
		c-0.3,0.2-0.7,0.4-1.1,0.5c-0.4,0.2-0.9,0.3-1.5,0.3c-0.4,0-0.8,0-1.2-0.2c-0.4-0.2-0.8-0.4-1.1-0.7c-0.3-0.3-0.6-0.8-0.9-1.3
		c-0.2-0.5-0.4-1.2-0.5-1.9c-0.1-0.7,0-1.4,0.1-2c0.1-0.6,0.3-1.2,0.5-1.7c0.2-0.5,0.5-0.9,0.8-1.2c0.3-0.3,0.6-0.5,1-0.5
		c0.3,0,0.6,0,0.9,0.1c0.3,0.1,0.6,0.2,0.8,0.4c0.3,0.2,0.5,0.3,0.6,0.6c0.2,0.2,0.3,0.4,0.3,0.7c0,0.3-0.1,0.6-0.3,0.9
		c-0.2,0.3-0.5,0.6-0.8,0.9c-0.3,0.3-0.6,0.5-1,0.7c-0.3,0.2-0.6,0.3-0.8,0.3c-0.1,0-0.2,0-0.3-0.1c-0.1-0.1-0.1-0.2-0.2-0.4
		c0-0.2,0.1-0.5,0.3-0.6c0.2-0.2,0.4-0.3,0.7-0.5s0.5-0.3,0.7-0.5c0.2-0.2,0.3-0.4,0.3-0.7c0,0-0.1-0.1-0.2-0.3
		c-0.1-0.1-0.4-0.2-0.7-0.2c-0.2,0-0.4,0.1-0.6,0.4c-0.2,0.2-0.4,0.5-0.6,0.9c-0.2,0.4-0.3,0.8-0.4,1.3c-0.1,0.5-0.1,1-0.1,1.6
		c0,0.5,0.2,0.9,0.4,1.2c0.2,0.4,0.5,0.7,0.7,0.9c0.3,0.2,0.6,0.4,1,0.5c0.4,0.1,0.7,0.2,1.1,0.1c0.3,0,0.6-0.1,0.9-0.3
		c0.3-0.1,0.6-0.3,0.9-0.5c0.3-0.2,0.5-0.3,0.7-0.4c0.2-0.1,0.3-0.2,0.4-0.2c0.1,0,0.1,0,0.2,0.1C83,34.5,83.1,34.6,83.1,34.6z"/>
	<path class="st3" d="M92.9,34.1c0,0.3-0.1,0.6-0.2,0.7c-0.2,0.1-0.4,0.2-0.6,0.2c-0.4,0-0.9-0.1-1.4-0.4c-0.6-0.3-1.1-0.7-1.8-1.1
		c0,0,0,0.2-0.1,0.6c0,0.4-0.1,0.7-0.2,1.2c-0.1,0.4-0.2,0.8-0.4,1.2c-0.2,0.4-0.4,0.5-0.6,0.6c-0.2,0-0.3,0-0.4-0.2
		c-0.1-0.1-0.2-0.2-0.2-0.3c0-0.1,0-0.4,0.1-0.7c0.1-0.4,0.2-0.7,0.3-1.2c0.1-0.4,0.2-0.8,0.3-1.2c0.1-0.4,0.1-0.6,0.1-0.8
		c0-0.1-0.2-0.3-0.5-0.6c-0.3-0.4-0.7-0.8-1.1-1.2c-0.4-0.5-0.7-1-1.1-1.5c-0.3-0.5-0.5-1.1-0.6-1.5c0-0.1,0-0.3,0.1-0.4
		c0.1-0.1,0.2-0.2,0.3-0.2c0.1,0,0.3,0,0.5,0.1c0.2,0.1,0.3,0.2,0.4,0.3c0.2,0.6,0.5,1.2,0.9,1.8c0.3,0.6,0.8,1.3,1.5,1.8
		c0-0.2,0.1-0.5,0.1-0.8c0-0.3,0.1-0.7,0.1-1.1s0.1-0.8,0.2-1.2c0.1-0.4,0.1-0.8,0.2-1.1c0.1-0.3,0.1-0.6,0.2-0.8
		c0.1-0.2,0.2-0.3,0.2-0.3c0.1,0,0.2,0,0.4,0.1c0.2,0,0.3,0.2,0.3,0.4c-0.1,0.6-0.1,1.1-0.2,1.5c-0.1,0.4-0.1,0.9-0.2,1.4
		c-0.1,0.5-0.1,0.9-0.2,1.3c0,0.1,0,0.2-0.1,0.3c0,0.1-0.1,0.3-0.1,0.5c0,0.2-0.1,0.3-0.1,0.5c0,0.1,0,0.2,0,0.3
		c0,0.2,0.2,0.3,0.4,0.5c0.3,0.2,0.6,0.4,0.9,0.6s0.7,0.3,1,0.4c0.3,0.1,0.5,0.2,0.6,0.2c0.1,0,0.1,0,0.2,0c0.1,0,0.2,0,0.2,0
		c0.1,0,0.3,0.1,0.4,0.2C92.9,34,92.9,34.1,92.9,34.1z"/>
	<path class="st3" d="M101.2,23.7c-0.2,0.3-0.5,0.6-0.9,0.9c-0.4,0.3-0.8,0.6-1.2,0.8c-0.4,0.3-0.8,0.5-1.1,0.7
		c-0.3,0.2-0.5,0.3-0.5,0.4c0,0.1,0.1,0.2,0.2,0.5c0.1,0.3,0.2,0.6,0.3,0.9c0.1,0.4,0.3,0.7,0.4,1.1c0.1,0.4,0.3,0.7,0.4,1
		c0.1,0.2,0.1,0.4,0.2,0.7c0.1,0.3,0.2,0.6,0.2,0.8c0.1,0.3,0.1,0.5,0.2,0.8c0.1,0.2,0.1,0.3,0.1,0.4c0,0.3,0,0.6-0.1,0.8
		c-0.1,0.3-0.2,0.5-0.4,0.5c-0.1,0-0.2,0-0.3-0.1c-0.1-0.1-0.2-0.2-0.3-0.3c-0.1-0.1-0.1-0.2-0.2-0.3c0-0.1-0.1-0.2-0.1-0.2
		c0,0,0-0.1,0-0.2c0-0.1,0-0.2,0-0.2c0-0.3-0.1-0.8-0.3-1.5c-0.1-0.2-0.2-0.5-0.3-0.9c-0.1-0.4-0.3-0.8-0.4-1.2
		c-0.2-0.5-0.4-1-0.6-1.6c-0.1-0.2-0.2-0.4-0.2-0.4c-0.1,0-0.3,0.1-0.6,0.3c-0.3,0.2-0.6,0.4-1,0.7c-0.4,0.3-0.7,0.5-1.1,0.8
		c-0.4,0.3-0.8,0.6-1.1,0.8c-0.3,0.3-0.6,0.5-0.9,0.6c-0.2,0.2-0.4,0.3-0.5,0.3c-0.2,0-0.4,0-0.6-0.2c-0.2-0.1-0.2-0.3-0.3-0.5
		c0-0.1,0.1-0.3,0.4-0.5c0.3-0.2,0.6-0.5,1-0.8c0.4-0.3,0.9-0.6,1.4-0.9c0.5-0.3,0.9-0.6,1.4-0.9c0.4-0.3,0.9-0.5,1.5-0.9
		c-0.2-0.8-0.4-1.5-0.6-2.2c-0.1-0.5-0.3-1.1-0.4-1.5c-0.1-0.5-0.2-0.7-0.2-0.7c0-0.2,0-0.4,0.1-0.5c0.1-0.1,0.2-0.2,0.3-0.2
		c0.2,0,0.3,0.1,0.4,0.4c0.3,1,0.5,1.8,0.8,2.5c0.2,0.7,0.5,1.3,0.7,1.8c0.2,0,0.4-0.2,0.8-0.4c0.4-0.2,0.8-0.4,1.2-0.7
		c0.4-0.2,0.8-0.4,1.1-0.6c0.3-0.2,0.5-0.3,0.6-0.3c0.1,0,0.2,0,0.2,0.1C101.1,23.5,101.2,23.6,101.2,23.7z"/>
	<path class="st3" d="M120.6,30.6c0,0.3-0.1,0.6-0.2,0.8c-0.2,0.2-0.4,0.5-0.7,0.6c-0.3,0.2-0.6,0.3-1,0.5c-0.4,0.1-0.7,0.2-1.1,0.3
		c-0.3,0.1-0.6,0.1-0.9,0.2c-0.3,0-0.4,0.1-0.5,0.1c-0.4,0-0.7,0-0.9-0.1c-0.2-0.1-0.4-0.3-0.4-0.6c0-0.1,0-0.2,0-0.3
		c0-0.1,0.1-0.1,0.2-0.1c0.1,0,0.1,0,0.3,0c0.1,0,0.2,0,0.3,0c0.1,0,0.3,0,0.7-0.1c0.4-0.1,0.8-0.1,1.2-0.3c0.4-0.1,0.8-0.2,1.2-0.4
		c0.3-0.2,0.5-0.4,0.5-0.6c0,0-0.2-0.1-0.6-0.3c-0.4-0.2-1-0.4-1.7-0.8c-0.6-0.3-1-0.6-1.3-1c-0.3-0.3-0.4-0.8-0.5-1.5
		c0-0.4,0-0.7,0.2-1c0.1-0.3,0.4-0.5,0.6-0.7s0.6-0.3,1-0.4c0.4-0.1,0.8-0.2,1.2-0.2c0,0,0.1,0,0.3,0s0.4,0.1,0.6,0.1
		c0.2,0.1,0.4,0.1,0.6,0.2c0.2,0.1,0.3,0.2,0.3,0.4c0,0,0,0.1-0.1,0.2c-0.1,0.1-0.1,0.2-0.3,0.4c-0.1,0-0.2,0-0.3-0.1
		c-0.1,0-0.3-0.1-0.5-0.1c-0.2,0-0.4-0.1-0.5-0.1c-0.2,0-0.3,0-0.4,0c-0.5,0-0.8,0.2-1.1,0.4c-0.3,0.2-0.4,0.5-0.3,1
		c0,0.2,0.1,0.4,0.3,0.6c0.2,0.2,0.5,0.3,0.8,0.5c0.3,0.1,0.6,0.3,1,0.4c0.3,0.1,0.7,0.3,1,0.5c0.3,0.2,0.6,0.4,0.8,0.6
		C120.5,30.1,120.6,30.3,120.6,30.6z"/>
	<path class="st3" d="M129.3,21.2c-0.2,0.3-0.5,0.6-0.9,0.9c-0.4,0.3-0.8,0.6-1.2,0.8c-0.4,0.3-0.8,0.5-1.1,0.7s-0.5,0.3-0.5,0.4
		c0,0.1,0.1,0.2,0.2,0.5c0.1,0.3,0.2,0.6,0.3,0.9c0.1,0.4,0.3,0.7,0.4,1.1c0.1,0.4,0.3,0.7,0.4,1c0.1,0.2,0.1,0.4,0.2,0.7
		c0.1,0.3,0.2,0.6,0.2,0.8c0.1,0.3,0.1,0.5,0.2,0.8c0.1,0.2,0.1,0.3,0.1,0.4c0,0.3,0,0.6-0.1,0.8c-0.1,0.3-0.2,0.5-0.4,0.5
		c-0.1,0-0.2,0-0.3-0.1c-0.1-0.1-0.2-0.2-0.3-0.3c-0.1-0.1-0.1-0.2-0.2-0.3c0-0.1-0.1-0.2-0.1-0.2c0,0,0-0.1,0-0.2
		c0-0.1,0-0.2,0-0.2c0-0.3-0.1-0.8-0.3-1.5c-0.1-0.2-0.2-0.5-0.3-0.9c-0.1-0.4-0.3-0.8-0.4-1.2c-0.2-0.5-0.4-1-0.6-1.6
		c-0.1-0.2-0.2-0.4-0.2-0.4c-0.1,0-0.3,0.1-0.6,0.3c-0.3,0.2-0.6,0.4-1,0.7c-0.4,0.3-0.7,0.5-1.1,0.8s-0.8,0.6-1.1,0.8
		c-0.3,0.3-0.6,0.5-0.9,0.6c-0.2,0.2-0.4,0.3-0.5,0.3c-0.2,0-0.4,0-0.6-0.2c-0.2-0.1-0.2-0.3-0.3-0.5c0-0.1,0.1-0.3,0.4-0.5
		c0.3-0.2,0.6-0.5,1-0.8c0.4-0.3,0.9-0.6,1.4-0.9c0.5-0.3,0.9-0.6,1.4-0.9c0.4-0.3,0.9-0.5,1.5-0.9c-0.2-0.8-0.4-1.5-0.6-2.2
		c-0.1-0.5-0.3-1.1-0.4-1.5c-0.1-0.5-0.2-0.7-0.2-0.7c0-0.2,0-0.4,0.1-0.5c0.1-0.1,0.2-0.2,0.3-0.2c0.2,0,0.3,0.1,0.4,0.4
		c0.3,1,0.5,1.8,0.8,2.5c0.2,0.7,0.5,1.3,0.7,1.8c0.2,0,0.4-0.2,0.8-0.4c0.4-0.2,0.8-0.4,1.2-0.7c0.4-0.2,0.8-0.4,1.1-0.6
		c0.3-0.2,0.5-0.3,0.6-0.3c0.1,0,0.2,0,0.2,0.1C129.2,21.1,129.2,21.1,129.3,21.2z"/>
	<path class="st3" d="M136.1,27c0,0.4,0,0.8-0.1,1.1c-0.1,0.4-0.2,0.7-0.3,1c-0.2,0.3-0.3,0.5-0.6,0.7c-0.2,0.2-0.5,0.3-0.8,0.3
		c-0.5,0-0.9-0.1-1.2-0.3c-0.3-0.3-0.6-0.6-0.7-0.9c-0.2-0.4-0.3-0.7-0.4-1.1c-0.1-0.4-0.1-0.7-0.1-0.9c0-0.3,0-0.7,0.1-1.1
		c0.1-0.4,0.2-0.8,0.3-1.2c0.1-0.4,0.3-0.7,0.5-0.9c0.2-0.3,0.4-0.4,0.6-0.4c0.1,0,0.1,0,0.3,0s0.2,0.1,0.4,0.1
		c0.1,0.1,0.3,0.1,0.4,0.2c0.1,0.1,0.2,0.2,0.2,0.4c0.2,0,0.4,0.1,0.6,0.2c0.2,0.1,0.3,0.2,0.3,0.3c0.2,0.5,0.3,0.9,0.4,1.4
		C136,26.3,136.1,26.7,136.1,27z M134.9,26.6c0-0.3-0.1-0.5-0.2-0.8c-0.1-0.3-0.2-0.6-0.4-0.9c0,0-0.1,0-0.1,0c-0.1,0-0.1,0-0.2,0
		c0,0-0.1,0-0.1,0c-0.2,0-0.4,0.1-0.5,0.2s-0.2,0.3-0.2,0.5c0,0.2-0.1,0.4-0.1,0.6c0,0.2,0,0.4,0,0.6c0,0.2,0,0.4,0.1,0.7
		c0,0.2,0.1,0.5,0.2,0.7c0.1,0.2,0.2,0.4,0.3,0.5c0.1,0.1,0.3,0.2,0.5,0.2c0.2,0,0.3-0.1,0.4-0.3c0.1-0.2,0.2-0.4,0.2-0.7
		c0-0.3,0.1-0.5,0.1-0.8C134.9,26.9,134.9,26.7,134.9,26.6z"/>
	<path class="st3" d="M145,23.8c0,0.1,0,0.2-0.1,0.3c-0.1,0.1-0.2,0.2-0.4,0.2c-0.1,0.1-0.3,0.1-0.4,0.2c-0.1,0-0.3,0.1-0.3,0.1
		c-0.3,0-0.4,0-0.5,0c-0.1,0-0.2,0-0.2,0c-0.4,0-0.8,0.1-1.1,0.2c-0.3,0.1-0.5,0.2-0.6,0.4c-0.1,0.2-0.2,0.4-0.2,0.6s0,0.5,0,0.9
		c0.1,0.6,0.1,1,0.2,1.4s0.1,0.6,0.2,0.8c0.1,0.2,0.1,0.4,0.2,0.5c0.1,0.1,0.1,0.2,0.1,0.3c0,0.1-0.1,0.3-0.2,0.5
		c-0.1,0.2-0.3,0.3-0.4,0.3c-0.2,0-0.4-0.2-0.6-0.5c-0.2-0.4-0.4-0.8-0.6-1.3c-0.2-0.5-0.3-1-0.4-1.5c-0.1-0.5-0.2-0.9-0.2-1.2
		c0-0.3,0-0.6,0-0.9c0-0.3,0.1-0.5,0.2-0.7c0.1-0.2,0.2-0.4,0.3-0.5c0.1-0.1,0.2-0.2,0.3-0.2c0.1,0,0.2,0,0.2,0.1
		c0.1,0.1,0.1,0.1,0.2,0.2c0,0.1,0.1,0.1,0.1,0.2c0,0.1,0.1,0.1,0.2,0.1c0.2,0,0.4-0.1,0.8-0.3c0.3-0.2,0.8-0.3,1.3-0.4
		c0.5,0,0.8-0.1,1.1-0.1c0.2,0,0.5,0,0.7,0.1c0.1,0,0.1,0,0.2,0.1C144.9,23.6,145,23.7,145,23.8z"/>
	<path class="st3" d="M152.4,18.7c-0.1,1.3-0.2,2.5-0.3,3.6c0,0.5-0.1,1-0.1,1.5c0,0.5-0.1,1.1-0.1,1.6c0,0.5-0.1,1-0.1,1.5
		c0,0.5,0,0.9,0,1.3c0,0.6,0,1.2,0,2c0,0.7,0.1,1.4,0.1,2.1c0,0.8,0.1,1.6,0.2,2.3c0,0.2,0,0.3,0,0.5c0,0.2,0,0.4,0,0.6
		c0,0.2,0,0.3-0.1,0.5c-0.1,0.1-0.2,0.2-0.3,0.2c-0.1,0-0.3-0.1-0.4-0.3c-0.1-0.2-0.2-0.5-0.3-0.8c-0.1-0.3-0.1-0.6-0.2-0.9
		c0-0.3-0.1-0.5-0.1-0.6c0-0.1,0-0.3,0-0.5c0-0.2,0-0.5,0-0.9c0-0.4,0-0.9,0-1.6c0-0.7,0-1.5,0-2.6c0,0-0.1-0.1-0.4-0.2
		c-0.3-0.1-0.6-0.3-0.9-0.5c-0.4-0.2-0.8-0.4-1.1-0.7c-0.4-0.3-0.7-0.5-1-0.8c0,0-0.1-0.1-0.2-0.2c-0.1-0.1-0.1-0.3-0.1-0.4
		c0-0.1,0-0.2,0.1-0.3c0.1-0.1,0.2-0.2,0.3-0.2c0.1,0,0.1,0,0.2,0.1c0.4,0.3,1,0.7,1.5,1.1c0.6,0.4,1.1,0.7,1.7,1.1
		c0-0.3,0-0.8,0.1-1.5c0.1-0.7,0.1-1.4,0.2-2.2c0.1-0.8,0.1-1.5,0.2-2.3c0.1-0.7,0.1-1.3,0.1-1.7c0-0.1,0-0.2,0-0.4
		c0-0.2,0.1-0.3,0.1-0.5c0.1-0.2,0.1-0.3,0.2-0.4c0.1-0.1,0.2-0.2,0.3-0.2c0.1,0,0.2,0,0.4,0.1C152.2,18.2,152.3,18.4,152.4,18.7z"
		/>
</g>
</svg>
