<?xml version="1.0" encoding="utf-8"?>
<!-- Generator: Adobe Illustrator 22.1.0, SVG Export Plug-In . SVG Version: 6.00 Build 0)  -->
<svg version="1.1" id="Layer_1" xmlns="http://www.w3.org/2000/svg" xmlns:xlink="http://www.w3.org/1999/xlink" x="0px" y="0px"
	 viewBox="0 0 250 250" style="enable-background:new 0 0 250 250;" xml:space="preserve">
<style type="text/css">
	.st0{fill:none;}
	.st1{fill:#1D3766;}
	.st2{font-family:'ReenieBeanie';}
	.st3{font-size:27px;}
	.st4{fill:none;stroke:#1D3766;stroke-linecap:round;stroke-linejoin:round;stroke-miterlimit:10;}
</style>
<rect x="1" y="-2.3" transform="matrix(0.9999 -1.026493e-02 1.026493e-02 0.9999 -0.9528 1.161)" class="st0" width="223.2" height="191.4"/>
<text transform="matrix(0.9962 -8.716000e-02 8.716000e-02 0.9962 78.5859 34.4276)"><tspan x="0" y="0" class="st1 st2 st3">See our </tspan><tspan x="-42.6" y="23" class="st1 st2 st3">approach to the </tspan><tspan x="-79.6" y="46" class="st1 st2 st3">capture, management, &amp; </tspan><tspan x="-71.6" y="69" class="st1 st2 st3">application of critical </tspan><tspan x="-47.7" y="92" class="st1 st2 st3">real world data.</tspan></text>
<path class="st4" d="M174.6,246.2c5.6-6.4,14.6-18.6,19.8-36.4c2.6-9,7.2-24.5,2.6-43.2c-5.5-22.1-20.3-35.3-26.5-40.1"/>
<path class="st4" d="M183.5,245.6c-3.2,0.5-6.4,1-9.6,1.5c0-3.2-0.1-6.4-0.2-9.7"/>
</svg>
