<?xml version="1.0" encoding="utf-8"?>
<!-- Generator: Adobe Illustrator 22.1.0, SVG Export Plug-In . SVG Version: 6.00 Build 0)  -->
<svg version="1.1" id="Layer_1" xmlns="http://www.w3.org/2000/svg" xmlns:xlink="http://www.w3.org/1999/xlink" x="0px" y="0px"
	 viewBox="0 0 250 250" style="enable-background:new 0 0 250 250;" xml:space="preserve">
<style type="text/css">
	.st0{fill:none;stroke:#1D3766;stroke-linecap:round;stroke-linejoin:round;stroke-miterlimit:10;}
	.st1{fill:none;}
	.st2{enable-background:new    ;}
	.st3{fill:#1D3766;}
</style>
<path class="st0" d="M69.5,51.5c-7.1,18.4-14.9,47.2-12,82c0.9,10.9,2.7,30.3,13,53c12.9,28.4,31.9,46.1,43,55"/>
<path class="st0" d="M113.8,231.9c0,3.2-0.1,6.5-0.1,9.7c-3.2-0.5-6.4-0.9-9.6-1.4"/>
<rect x="49.1" y="15.8" transform="matrix(0.9962 -8.715522e-02 8.715522e-02 0.9962 -8.1959 10.2905)" class="st1" width="129.3" height="166.4"/>
<g class="st2">
	<path class="st3" d="M64.3,32.1c0.1,0.2,0.1,0.4,0.1,0.6c0,0.1,0,0.3,0.1,0.4c0,0.4,0,1,0,1.6c-0.1,0.6-0.2,1.2-0.4,1.8
		c-0.2,0.6-0.6,1.1-1,1.5c-0.4,0.4-1,0.7-1.7,0.7c-0.6,0.1-1.3-0.1-1.9-0.4c-0.6-0.3-1.2-0.7-1.7-1.3c-0.5-0.5-0.9-1.2-1.2-1.9
		c-0.3-0.7-0.5-1.4-0.6-2.1c-0.1-1-0.1-1.9,0-2.7c0.1-0.8,0.2-1.4,0.4-2c0-0.1,0-0.1-0.1-0.2c-0.1,0-0.1-0.1-0.1-0.2
		c0-0.1,0.1-0.2,0.2-0.4c0.2-0.2,0.4-0.3,0.6-0.5s0.5-0.3,0.7-0.4c0.2-0.1,0.4-0.2,0.5-0.2c0.1,0,0.2,0,0.4,0.1
		c0.2,0.1,0.4,0.1,0.7,0c0.1,0,0.2,0,0.3-0.1c0.1,0,0.2,0,0.3-0.1c0.4,0,0.8,0.1,1.3,0.4c0.5,0.3,0.9,0.7,1.4,1.3
		c0.4,0.5,0.8,1.1,1.2,1.8C63.9,30.7,64.1,31.4,64.3,32.1z M63.3,33.3c0-0.3-0.1-0.8-0.3-1.4c-0.2-0.6-0.5-1.2-0.8-1.8
		c-0.3-0.6-0.7-1.1-1.2-1.5c-0.4-0.4-0.9-0.6-1.4-0.6c0,0-0.1,0-0.2,0c-0.1,0-0.2,0-0.3,0c-0.1,0-0.2,0-0.4,0c-0.1,0-0.2,0-0.2,0
		c-0.3,0-0.5,0.2-0.7,0.5c-0.2,0.3-0.3,0.7-0.4,1.1c-0.1,0.4-0.2,0.9-0.2,1.5c0,0.6,0,1.1,0,1.7c0,0.2,0.1,0.6,0.3,1.1
		c0.2,0.6,0.4,1.1,0.7,1.7c0.3,0.6,0.7,1.1,1.3,1.5c0.5,0.4,1.1,0.6,1.8,0.5c0.5,0,0.9-0.2,1.1-0.5c0.3-0.3,0.5-0.7,0.6-1.2
		c0.1-0.4,0.2-0.9,0.2-1.4C63.3,34,63.3,33.6,63.3,33.3z"/>
	<path class="st3" d="M75.6,33.7c0,0.2-0.1,0.3-0.3,0.5c-0.2,0.2-0.4,0.4-0.7,0.6s-0.6,0.3-0.8,0.5c-0.3,0.1-0.5,0.2-0.6,0.2
		c-0.2,0-0.3,0-0.5-0.1c-0.2-0.1-0.4-0.2-0.6-0.3c-0.2-0.1-0.3-0.2-0.5-0.3c-0.1-0.1-0.2-0.2-0.3-0.2c0,0.1-0.1,0.2-0.2,0.3
		c-0.1,0.2-0.2,0.4-0.3,0.6c-0.1,0.2-0.3,0.4-0.4,0.5c-0.2,0.2-0.3,0.2-0.5,0.3c-0.5,0-0.9-0.2-1.3-0.6c-0.4-0.5-0.7-1-1-1.6
		c-0.3-0.6-0.5-1.2-0.7-1.8c-0.2-0.6-0.3-1-0.3-1.2c0-0.1,0-0.2,0.2-0.3c0.1-0.1,0.2-0.1,0.3-0.1c0.3,0,0.4,0,0.5,0.2
		c0.1,0.2,0.2,0.3,0.2,0.5c0,0.2,0.1,0.4,0.2,0.8c0.1,0.4,0.3,0.8,0.5,1.2c0.2,0.4,0.4,0.8,0.6,1.1c0.2,0.3,0.3,0.5,0.5,0.5
		c0.2,0,0.4-0.2,0.6-0.5c0.1-0.3,0.3-0.7,0.3-1.1c0.1-0.4,0.1-0.8,0.1-1.1c0-0.4,0-0.6,0-0.7c0,0,0-0.1,0-0.2c0-0.1,0-0.2,0-0.3
		c0-0.1,0-0.2,0-0.3c0-0.1,0-0.2,0-0.2c0-0.1,0-0.2-0.1-0.2c-0.1,0-0.1-0.1-0.1-0.3c0-0.1,0-0.2,0.1-0.3c0.1-0.1,0.3-0.2,0.7-0.2
		c0.1,0,0.3,0,0.3,0.1c0.1,0.1,0.2,0.2,0.2,0.3c0,0.1,0.1,0.2,0.1,0.3c0,0.1,0,0.2,0,0.2c0,0,0,0.1,0,0.4c0,0.2,0,0.5,0,0.8
		c0,0.3,0,0.5,0,0.8c0,0.3,0,0.4,0,0.5s0,0.2,0.1,0.3c0.1,0.2,0.1,0.3,0.2,0.5c0.1,0.2,0.2,0.3,0.3,0.4c0.1,0.1,0.2,0.2,0.4,0.2
		c0.2,0,0.4-0.1,0.6-0.1c0.2-0.1,0.4-0.2,0.5-0.3c0.2-0.1,0.3-0.2,0.5-0.3c0.1-0.1,0.3-0.1,0.4-0.1c0.2,0,0.3,0,0.5,0.1
		S75.6,33.5,75.6,33.7z"/>
	<path class="st3" d="M82.7,29.3c0,0.1,0,0.2-0.1,0.3c-0.1,0.1-0.2,0.2-0.4,0.2c-0.1,0.1-0.3,0.1-0.4,0.2c-0.1,0-0.3,0.1-0.3,0.1
		c-0.3,0-0.5,0-0.5,0c-0.1,0-0.2,0-0.2,0c-0.4,0-0.8,0.1-1.1,0.2c-0.3,0.1-0.5,0.2-0.6,0.4c-0.1,0.2-0.2,0.4-0.2,0.6s0,0.5,0,0.9
		c0,0.6,0.1,1,0.2,1.4c0.1,0.3,0.1,0.6,0.2,0.8c0.1,0.2,0.1,0.4,0.2,0.5s0.1,0.2,0.1,0.3c0,0.1-0.1,0.3-0.2,0.5
		c-0.1,0.2-0.3,0.3-0.4,0.3c-0.2,0-0.4-0.2-0.6-0.5C78,35,77.8,34.5,77.6,34c-0.2-0.5-0.3-1-0.4-1.5C77.1,32,77,31.6,77,31.3
		c0-0.3,0-0.6,0-0.9c0-0.3,0.1-0.5,0.2-0.7c0.1-0.2,0.2-0.4,0.3-0.5c0.1-0.1,0.2-0.2,0.3-0.2c0.1,0,0.2,0,0.2,0.1
		c0.1,0.1,0.1,0.1,0.2,0.2c0,0.1,0.1,0.1,0.1,0.2c0,0.1,0.1,0.1,0.2,0.1c0.2,0,0.4-0.1,0.8-0.3c0.3-0.2,0.8-0.3,1.3-0.4
		c0.5,0,0.8-0.1,1.1-0.1c0.2,0,0.5,0,0.7,0.1c0.1,0,0.1,0,0.2,0.1C82.6,29,82.6,29.1,82.7,29.3z"/>
	<path class="st3" d="M102.4,32.2c0,0.3-0.1,0.6-0.2,0.8c-0.2,0.2-0.4,0.5-0.7,0.6c-0.3,0.2-0.6,0.3-1,0.5c-0.4,0.1-0.7,0.2-1.1,0.3
		c-0.3,0.1-0.6,0.1-0.9,0.2c-0.3,0-0.4,0.1-0.5,0.1c-0.4,0-0.7,0-0.9-0.1c-0.2-0.1-0.4-0.3-0.4-0.6c0-0.1,0-0.2,0-0.3
		c0-0.1,0.1-0.1,0.2-0.1c0.1,0,0.1,0,0.3,0c0.1,0,0.2,0,0.3,0c0.1,0,0.3,0,0.7-0.1c0.4-0.1,0.8-0.1,1.2-0.3c0.4-0.1,0.8-0.2,1.2-0.4
		c0.3-0.2,0.5-0.4,0.5-0.6c0,0-0.2-0.1-0.6-0.3c-0.4-0.2-1-0.4-1.7-0.8c-0.6-0.3-1-0.6-1.3-1c-0.3-0.3-0.4-0.8-0.5-1.5
		c0-0.4,0-0.7,0.2-1c0.1-0.3,0.4-0.5,0.6-0.7s0.6-0.3,1-0.4c0.4-0.1,0.8-0.2,1.2-0.2c0,0,0.1,0,0.3,0c0.2,0,0.4,0.1,0.6,0.1
		c0.2,0.1,0.4,0.1,0.6,0.2c0.2,0.1,0.3,0.2,0.3,0.4c0,0,0,0.1-0.1,0.2c-0.1,0.1-0.1,0.2-0.3,0.4c-0.1,0-0.2,0-0.3-0.1
		c-0.1,0-0.3-0.1-0.5-0.1c-0.2,0-0.4-0.1-0.5-0.1c-0.2,0-0.3,0-0.4,0c-0.5,0-0.8,0.2-1.1,0.4c-0.3,0.2-0.4,0.5-0.3,1
		c0,0.2,0.1,0.4,0.3,0.6c0.2,0.2,0.5,0.3,0.8,0.5c0.3,0.1,0.6,0.3,1,0.4c0.3,0.1,0.7,0.3,1,0.5c0.3,0.2,0.6,0.4,0.8,0.6
		C102.3,31.7,102.4,31.9,102.4,32.2z"/>
	<path class="st3" d="M112.3,32.1c0,0,0,0.1,0,0.2c0,0.1-0.1,0.3-0.2,0.5c0,0.1-0.2,0.2-0.3,0.4c-0.2,0.2-0.4,0.4-0.7,0.5
		c-0.3,0.2-0.7,0.4-1.1,0.5c-0.4,0.2-0.9,0.3-1.5,0.3c-0.4,0-0.8,0-1.2-0.2c-0.4-0.2-0.8-0.4-1.1-0.7c-0.3-0.3-0.6-0.8-0.9-1.3
		c-0.2-0.5-0.4-1.2-0.5-1.9c-0.1-0.7,0-1.4,0.1-2c0.1-0.6,0.3-1.2,0.5-1.7c0.2-0.5,0.5-0.9,0.8-1.2c0.3-0.3,0.6-0.5,1-0.5
		c0.3,0,0.6,0,0.9,0.1c0.3,0.1,0.6,0.2,0.8,0.4c0.3,0.2,0.5,0.3,0.6,0.6c0.2,0.2,0.3,0.4,0.3,0.7c0,0.3-0.1,0.6-0.3,0.9
		c-0.2,0.3-0.5,0.6-0.8,0.9c-0.3,0.3-0.6,0.5-1,0.7c-0.3,0.2-0.6,0.3-0.8,0.3c-0.1,0-0.2,0-0.3-0.1c-0.1-0.1-0.1-0.2-0.2-0.4
		c0-0.2,0.1-0.5,0.3-0.6c0.2-0.2,0.4-0.3,0.7-0.5c0.3-0.1,0.5-0.3,0.7-0.5c0.2-0.2,0.3-0.4,0.3-0.7c0,0-0.1-0.1-0.2-0.3
		c-0.1-0.1-0.3-0.2-0.7-0.2c-0.2,0-0.4,0.1-0.6,0.4s-0.4,0.5-0.6,0.9c-0.2,0.4-0.3,0.8-0.4,1.3c-0.1,0.5-0.1,1-0.1,1.6
		c0,0.5,0.2,0.9,0.4,1.2c0.2,0.4,0.5,0.7,0.7,0.9c0.3,0.2,0.6,0.4,1,0.5c0.4,0.1,0.7,0.2,1.1,0.1c0.3,0,0.6-0.1,0.9-0.3
		c0.3-0.1,0.6-0.3,0.9-0.5c0.3-0.2,0.5-0.3,0.7-0.4c0.2-0.1,0.3-0.2,0.4-0.2c0.1,0,0.1,0,0.2,0.1C112.2,32,112.2,32,112.3,32.1z"/>
	<path class="st3" d="M120,26c0,0.1,0,0.2-0.1,0.3c-0.1,0.1-0.2,0.2-0.4,0.2c-0.1,0.1-0.3,0.1-0.4,0.2c-0.1,0-0.3,0.1-0.3,0.1
		c-0.3,0-0.5,0-0.5,0c-0.1,0-0.2,0-0.2,0c-0.4,0-0.8,0.1-1.1,0.2c-0.3,0.1-0.5,0.2-0.6,0.4c-0.1,0.2-0.2,0.4-0.2,0.6s0,0.5,0,0.9
		c0,0.6,0.1,1,0.2,1.4c0.1,0.3,0.1,0.6,0.2,0.8c0.1,0.2,0.1,0.4,0.2,0.5s0.1,0.2,0.1,0.3c0,0.1-0.1,0.3-0.2,0.5
		c-0.1,0.2-0.3,0.3-0.4,0.3c-0.2,0-0.4-0.2-0.6-0.5c-0.2-0.4-0.4-0.8-0.6-1.3c-0.2-0.5-0.3-1-0.4-1.5c-0.1-0.5-0.2-0.9-0.2-1.2
		c0-0.3,0-0.6,0-0.9c0-0.3,0.1-0.5,0.2-0.7c0.1-0.2,0.2-0.4,0.3-0.5c0.1-0.1,0.2-0.2,0.3-0.2c0.1,0,0.2,0,0.2,0.1
		c0.1,0.1,0.1,0.1,0.2,0.2c0,0.1,0.1,0.1,0.1,0.2c0,0.1,0.1,0.1,0.2,0.1c0.2,0,0.4-0.1,0.8-0.3c0.3-0.2,0.8-0.3,1.3-0.4
		c0.5,0,0.8-0.1,1.1-0.1c0.2,0,0.5,0,0.7,0.1c0.1,0,0.1,0,0.2,0.1C120,25.8,120,25.9,120,26z"/>
	<path class="st3" d="M127.3,24.1c0,0.1,0,0.3-0.1,0.7c-0.1,0.4-0.1,0.9-0.1,1.4c0,0.3-0.1,0.8-0.1,1.4c-0.1,0.6,0,1.5,0.1,2.7
		c0,0,0,0.1,0,0.3s0,0.3,0,0.5c0,0.2-0.1,0.3-0.2,0.5c-0.1,0.1-0.2,0.2-0.4,0.2c-0.2,0-0.3,0-0.6-0.2c-0.5-0.3-0.9-0.6-1.3-1
		s-0.8-0.8-1.1-1.3c-0.3-0.5-0.6-1-0.8-1.5c-0.2-0.5-0.3-1.1-0.4-1.7c0-0.1,0-0.1,0.1-0.2c0.1-0.1,0.2-0.1,0.2-0.1
		c0.3,0,0.5,0.1,0.7,0.4c0.2,0.3,0.4,0.6,0.6,1.1c0.2,0.4,0.4,0.9,0.7,1.3c0.2,0.5,0.6,0.8,1,1.1c0-0.1,0.1-0.2,0.1-0.4
		c0-0.2,0-0.4,0-0.5c0-0.1,0-0.4,0-0.7c0-0.4,0-0.8,0-1.2c0-0.4,0-0.8,0-1.2c0-0.4,0-0.6,0-0.8c0-0.1,0-0.2,0-0.4
		c0-0.1,0-0.3,0.1-0.4c0.1-0.1,0.1-0.2,0.2-0.3c0.1-0.1,0.2-0.2,0.4-0.2c0.1,0,0.2,0,0.5,0.1C127.2,23.7,127.3,23.9,127.3,24.1z"/>
	<path class="st3" d="M131,20.8c0,0-0.1,0.1-0.2,0.2c-0.1,0.1-0.3,0.2-0.4,0.4c-0.2,0.1-0.3,0.2-0.5,0.4c-0.2,0.1-0.3,0.2-0.4,0.2
		c-0.1,0-0.2,0-0.3,0c-0.1,0-0.2,0-0.4-0.1c-0.1,0-0.2-0.1-0.3-0.2c-0.1-0.1-0.2-0.2-0.2-0.4c0-0.3,0-0.5,0.2-0.7
		c0.2-0.2,0.4-0.4,0.7-0.4c0.1,0,0.2,0,0.4,0c0.2,0,0.4,0.1,0.6,0.1c0.2,0.1,0.4,0.1,0.5,0.2C130.9,20.6,131,20.7,131,20.8z
		 M132.8,30.8c0,0.1-0.1,0.2-0.3,0.3c-0.2,0.1-0.3,0.2-0.4,0.2c-0.2,0-0.4-0.1-0.5-0.3c-0.2-0.2-0.3-0.5-0.4-0.8
		c-0.1-0.3-0.2-0.6-0.3-0.9c-0.1-0.3-0.2-0.5-0.2-0.6c-0.1-0.2-0.2-0.4-0.3-0.6c-0.1-0.2-0.2-0.5-0.3-0.7c-0.1-0.2-0.2-0.4-0.3-0.6
		c-0.1-0.2-0.1-0.3-0.1-0.3c0-0.3,0-0.5,0.1-0.7c0.1-0.2,0.2-0.3,0.3-0.4c0.2,0,0.3,0.1,0.5,0.3c0.2,0.2,0.4,0.5,0.6,0.9
		c0.2,0.4,0.4,0.8,0.6,1.2c0.2,0.4,0.3,0.9,0.5,1.3c0.1,0.4,0.3,0.7,0.3,1C132.7,30.6,132.8,30.8,132.8,30.8z"/>
	<path class="st3" d="M142,27.4c0,0.2,0,0.4,0,0.6c0,0.2-0.1,0.4-0.1,0.5c0,0.1-0.2,0.3-0.5,0.6c-0.3,0.3-0.6,0.7-1,1.1
		c-0.4,0.4-0.9,0.7-1.4,1.1c-0.5,0.3-1,0.5-1.5,0.6c-0.3,0-0.6,0-0.9-0.1c-0.3-0.1-0.6-0.2-0.9-0.4s-0.5-0.5-0.7-0.8
		c-0.2-0.3-0.3-0.8-0.4-1.3c-0.1-0.9,0-1.7,0.2-2.4c0.2-0.7,0.5-1.3,0.7-1.7c0.1-0.2,0.3-0.4,0.4-0.6c0.2-0.2,0.4-0.4,0.6-0.6
		c0.2-0.2,0.4-0.3,0.5-0.5c0.2-0.1,0.3-0.2,0.3-0.2c0.2,0,0.3,0,0.5,0.1c0.1,0.1,0.2,0.2,0.2,0.3c0,0.1,0,0.3-0.1,0.4
		c-0.1,0.1-0.2,0.2-0.3,0.4c-0.1,0.1-0.3,0.3-0.5,0.5c-0.2,0.2-0.4,0.5-0.6,0.8c-0.4,0.6-0.6,1.3-0.8,1.9c-0.2,0.6-0.2,1.2-0.2,1.7
		c0,0.5,0.2,0.8,0.6,1.1c0.4,0.2,0.7,0.4,1.1,0.3c0.7-0.1,1.3-0.3,1.8-0.6c0.5-0.4,0.9-0.7,1.3-1.1c0.3-0.4,0.6-0.8,0.8-1.1
		c0.2-0.3,0.4-0.5,0.5-0.5C141.8,27,142,27.1,142,27.4z"/>
	<path class="st3" d="M151.8,28.6c0,0,0,0.1,0,0.2c0,0.1-0.1,0.3-0.2,0.5c0,0.1-0.2,0.2-0.3,0.4c-0.2,0.2-0.4,0.4-0.7,0.5
		c-0.3,0.2-0.7,0.4-1.1,0.5c-0.4,0.2-0.9,0.3-1.5,0.3c-0.4,0-0.8,0-1.2-0.2c-0.4-0.2-0.8-0.4-1.1-0.7c-0.3-0.3-0.6-0.8-0.9-1.3
		c-0.2-0.5-0.4-1.2-0.5-1.9c-0.1-0.7,0-1.4,0.1-2c0.1-0.6,0.3-1.2,0.5-1.7c0.2-0.5,0.5-0.9,0.8-1.2c0.3-0.3,0.6-0.5,1-0.5
		c0.3,0,0.6,0,0.9,0.1c0.3,0.1,0.6,0.2,0.8,0.4c0.3,0.2,0.5,0.3,0.6,0.6c0.2,0.2,0.3,0.4,0.3,0.7c0,0.3-0.1,0.6-0.3,0.9
		s-0.5,0.6-0.8,0.9c-0.3,0.3-0.6,0.5-1,0.7c-0.3,0.2-0.6,0.3-0.8,0.3c-0.1,0-0.2,0-0.3-0.1c-0.1-0.1-0.1-0.2-0.2-0.4
		c0-0.2,0.1-0.5,0.3-0.6c0.2-0.2,0.4-0.3,0.7-0.5c0.3-0.1,0.5-0.3,0.7-0.5c0.2-0.2,0.3-0.4,0.3-0.7c0,0-0.1-0.1-0.2-0.3
		c-0.1-0.1-0.3-0.2-0.7-0.2c-0.2,0-0.4,0.1-0.6,0.4s-0.4,0.5-0.6,0.9c-0.2,0.4-0.3,0.8-0.4,1.3c-0.1,0.5-0.1,1-0.1,1.6
		c0,0.5,0.2,0.9,0.4,1.2c0.2,0.4,0.5,0.7,0.7,0.9c0.3,0.2,0.6,0.4,1,0.5c0.4,0.1,0.7,0.2,1.1,0.1c0.3,0,0.6-0.1,0.9-0.3
		c0.3-0.1,0.6-0.3,0.9-0.5c0.3-0.2,0.5-0.3,0.7-0.4c0.2-0.1,0.3-0.2,0.4-0.2c0.1,0,0.1,0,0.2,0.1C151.7,28.5,151.8,28.6,151.8,28.6z
		"/>
	<path class="st3" d="M159.7,27.2c0,0.3-0.1,0.6-0.2,0.8c-0.2,0.2-0.4,0.5-0.7,0.6c-0.3,0.2-0.6,0.3-1,0.5c-0.4,0.1-0.7,0.2-1.1,0.3
		c-0.3,0.1-0.6,0.1-0.9,0.2c-0.3,0-0.4,0.1-0.5,0.1c-0.4,0-0.7,0-0.9-0.1c-0.2-0.1-0.4-0.3-0.4-0.6c0-0.1,0-0.2,0-0.3
		c0-0.1,0.1-0.1,0.2-0.1c0.1,0,0.1,0,0.3,0c0.1,0,0.2,0,0.3,0c0.1,0,0.3,0,0.7-0.1c0.4-0.1,0.8-0.1,1.2-0.3c0.4-0.1,0.8-0.2,1.2-0.4
		c0.3-0.2,0.5-0.4,0.5-0.6c0,0-0.2-0.1-0.6-0.3c-0.4-0.2-1-0.4-1.7-0.8c-0.6-0.3-1-0.6-1.3-1c-0.3-0.3-0.4-0.8-0.5-1.5
		c0-0.4,0-0.7,0.2-1c0.1-0.3,0.4-0.5,0.6-0.7c0.3-0.2,0.6-0.3,1-0.4c0.4-0.1,0.8-0.2,1.2-0.2c0,0,0.1,0,0.3,0c0.2,0,0.4,0.1,0.6,0.1
		c0.2,0.1,0.4,0.1,0.6,0.2c0.2,0.1,0.3,0.2,0.3,0.4c0,0,0,0.1-0.1,0.2c-0.1,0.1-0.1,0.2-0.3,0.4c-0.1,0-0.2,0-0.3-0.1
		s-0.3-0.1-0.5-0.1c-0.2,0-0.4-0.1-0.5-0.1s-0.3,0-0.4,0c-0.5,0-0.8,0.2-1.1,0.4c-0.3,0.2-0.4,0.5-0.3,1c0,0.2,0.1,0.4,0.3,0.6
		c0.2,0.2,0.5,0.3,0.8,0.5c0.3,0.1,0.6,0.3,1,0.4c0.3,0.1,0.7,0.3,1,0.5c0.3,0.2,0.6,0.4,0.8,0.6C159.6,26.7,159.7,26.9,159.7,27.2z
		"/>
</g>
</svg>
