<?xml version="1.0" encoding="utf-8"?>
<!-- Generator: Adobe Illustrator 22.1.0, SVG Export Plug-In . SVG Version: 6.00 Build 0)  -->
<svg version="1.1" id="Layer_1" xmlns="http://www.w3.org/2000/svg" xmlns:xlink="http://www.w3.org/1999/xlink" x="0px" y="0px"
	 viewBox="0 0 250 250" style="enable-background:new 0 0 250 250;" xml:space="preserve">
<style type="text/css">
	.st0{fill:none;stroke:#1D3766;stroke-linecap:round;stroke-linejoin:round;stroke-miterlimit:10;}
	.st1{fill:none;}
	.st2{enable-background:new    ;}
	.st3{fill:#1D3766;}
</style>
<path class="st0" d="M61,58c-1,18.7-0.3,53.2,17,91c27.1,59.3,76.6,86.1,92.6,94"/>
<path class="st0" d="M162.2,230.7c1.4,2,2.7,4,4.1,6c1.5,2.2,2.9,4.3,4.3,6.4c-4.7,0.2-9.4,0.4-14.1,0.7"/>
<rect x="19.8" y="19.4" transform="matrix(0.9397 -0.342 0.342 0.9397 -15.6332 32.5371)" class="st1" width="129.3" height="82.4"/>
<g class="st2">
	<path class="st3" d="M33.7,48.3c0.1,0.2,0.2,0.4,0.3,0.5c0.1,0.1,0.1,0.3,0.2,0.4c0.2,0.4,0.3,0.9,0.4,1.6c0.1,0.6,0.1,1.2,0,1.8
		c-0.1,0.6-0.3,1.2-0.6,1.7c-0.3,0.5-0.8,0.9-1.4,1.1c-0.6,0.2-1.2,0.3-1.9,0.1c-0.7-0.1-1.3-0.4-1.9-0.8c-0.6-0.4-1.2-0.9-1.7-1.5
		c-0.5-0.6-0.9-1.2-1.1-1.9c-0.4-1-0.6-1.8-0.7-2.6C25,48,25,47.3,25,46.7c0-0.1-0.1-0.1-0.1-0.1c-0.1,0-0.1-0.1-0.2-0.2
		c0-0.1,0-0.2,0.1-0.4c0.1-0.2,0.3-0.4,0.4-0.6c0.2-0.2,0.4-0.4,0.6-0.6c0.2-0.2,0.4-0.3,0.5-0.3c0.1,0,0.2,0,0.4,0
		c0.2,0,0.4,0,0.7-0.1c0.1,0,0.2-0.1,0.2-0.1s0.2-0.1,0.3-0.1c0.4-0.1,0.8-0.1,1.3,0.1c0.5,0.2,1.1,0.5,1.6,0.9
		c0.6,0.4,1.1,0.9,1.6,1.4C32.9,47.1,33.3,47.7,33.7,48.3z M33,49.7c-0.1-0.3-0.4-0.8-0.7-1.3c-0.4-0.6-0.8-1.1-1.3-1.6
		c-0.5-0.5-1-0.9-1.5-1.2c-0.5-0.3-1-0.4-1.5-0.2c0,0-0.1,0-0.2,0.1c-0.1,0-0.2,0.1-0.3,0.1s-0.2,0.1-0.3,0.1c-0.1,0-0.2,0-0.2,0.1
		c-0.3,0.1-0.5,0.3-0.6,0.6c-0.1,0.3-0.1,0.7-0.1,1.2c0,0.5,0.1,1,0.2,1.5c0.1,0.5,0.3,1.1,0.5,1.6c0.1,0.2,0.2,0.5,0.5,1
		c0.3,0.5,0.7,1,1.1,1.5c0.5,0.5,1,0.8,1.6,1.1c0.6,0.3,1.2,0.3,1.9,0.1c0.5-0.2,0.8-0.4,1-0.8c0.2-0.4,0.3-0.8,0.3-1.3
		c0-0.5,0-0.9-0.1-1.4C33.2,50.4,33.1,50,33,49.7z"/>
	<path class="st3" d="M45,46.8c0.1,0.2,0,0.4-0.1,0.6c-0.1,0.2-0.3,0.5-0.5,0.7c-0.2,0.2-0.4,0.5-0.7,0.7c-0.2,0.2-0.4,0.3-0.6,0.4
		c-0.2,0.1-0.3,0.1-0.5,0.1c-0.2,0-0.4-0.1-0.6-0.1c-0.2-0.1-0.4-0.1-0.5-0.2c-0.2-0.1-0.3-0.1-0.3-0.1c0,0.1-0.1,0.2-0.1,0.4
		c0,0.2-0.1,0.4-0.2,0.6c-0.1,0.2-0.2,0.4-0.3,0.6c-0.1,0.2-0.3,0.3-0.4,0.4c-0.4,0.2-0.9,0.1-1.4-0.3c-0.5-0.4-1-0.8-1.4-1.3
		c-0.4-0.5-0.8-1.1-1.1-1.6c-0.3-0.5-0.5-0.9-0.6-1.1c0-0.1,0-0.2,0.1-0.4c0.1-0.1,0.2-0.2,0.2-0.2c0.2-0.1,0.4-0.1,0.6,0.1
		c0.1,0.1,0.2,0.3,0.3,0.5c0.1,0.2,0.2,0.4,0.4,0.8c0.2,0.4,0.5,0.7,0.8,1.1c0.3,0.4,0.6,0.7,0.8,0.9c0.3,0.3,0.5,0.4,0.6,0.3
		c0.2-0.1,0.4-0.3,0.4-0.6c0.1-0.3,0.1-0.7,0-1.1c0-0.4-0.1-0.8-0.2-1.1s-0.1-0.6-0.2-0.7c0,0,0-0.1,0-0.2s0-0.2-0.1-0.3
		c0-0.1,0-0.2-0.1-0.3c0-0.1,0-0.1-0.1-0.2c0-0.1-0.1-0.2-0.2-0.2c-0.1,0-0.1-0.1-0.2-0.2c0-0.1,0-0.2,0-0.3
		c0.1-0.1,0.3-0.3,0.6-0.4c0.1,0,0.3-0.1,0.4,0c0.1,0,0.2,0.1,0.3,0.2s0.1,0.2,0.2,0.3c0,0.1,0.1,0.2,0.1,0.2c0,0,0,0.1,0.1,0.4
		c0.1,0.2,0.1,0.5,0.2,0.7c0.1,0.3,0.2,0.5,0.2,0.8c0.1,0.2,0.1,0.4,0.1,0.4c0,0.1,0.1,0.1,0.2,0.3c0.1,0.1,0.2,0.3,0.4,0.4
		c0.1,0.1,0.3,0.2,0.4,0.3s0.3,0.1,0.4,0.1c0.2-0.1,0.4-0.2,0.5-0.3c0.2-0.1,0.3-0.3,0.4-0.4c0.1-0.1,0.3-0.3,0.4-0.4
		c0.1-0.1,0.2-0.2,0.3-0.2c0.2-0.1,0.3-0.1,0.5-0.1C44.8,46.7,44.9,46.7,45,46.8z"/>
	<path class="st3" d="M50.7,40.8c0,0.1,0,0.2,0,0.3c-0.1,0.1-0.2,0.2-0.3,0.3c-0.1,0.1-0.2,0.2-0.4,0.3c-0.1,0.1-0.2,0.1-0.3,0.2
		c-0.3,0.1-0.4,0.1-0.5,0.1c-0.1,0-0.2,0-0.2,0c-0.4,0.2-0.7,0.3-1,0.5c-0.2,0.2-0.4,0.3-0.5,0.5s-0.1,0.4-0.1,0.7
		c0,0.2,0.1,0.5,0.2,0.8c0.2,0.5,0.4,1,0.5,1.3c0.2,0.3,0.3,0.6,0.4,0.7c0.1,0.2,0.2,0.3,0.3,0.4c0.1,0.1,0.1,0.2,0.2,0.3
		c0,0.1,0,0.3-0.1,0.5c-0.1,0.2-0.2,0.3-0.3,0.4c-0.2,0.1-0.5,0-0.7-0.3c-0.3-0.3-0.6-0.7-0.9-1.1c-0.3-0.5-0.6-0.9-0.8-1.4
		c-0.2-0.5-0.4-0.8-0.5-1.1c-0.1-0.3-0.2-0.6-0.2-0.9c0-0.3-0.1-0.5,0-0.8c0-0.2,0-0.4,0.1-0.6c0.1-0.2,0.1-0.3,0.2-0.3
		c0.1,0,0.2,0,0.2,0c0.1,0,0.1,0.1,0.2,0.2c0.1,0.1,0.1,0.1,0.2,0.2c0.1,0,0.1,0.1,0.2,0c0.2-0.1,0.4-0.2,0.7-0.5
		c0.3-0.3,0.7-0.5,1.2-0.7c0.5-0.2,0.8-0.3,1-0.3c0.2-0.1,0.5-0.1,0.7-0.1c0.1,0,0.1,0,0.2,0S50.6,40.7,50.7,40.8z"/>
	<path class="st3" d="M70.5,38.5c0.1,0.3,0.1,0.6,0,0.9c-0.1,0.3-0.3,0.5-0.5,0.8c-0.2,0.3-0.5,0.5-0.9,0.7
		c-0.3,0.2-0.6,0.4-0.9,0.6c-0.3,0.2-0.6,0.3-0.8,0.4c-0.2,0.1-0.4,0.2-0.5,0.2c-0.4,0.1-0.7,0.2-0.9,0.1c-0.2,0-0.4-0.2-0.5-0.5
		c0-0.1-0.1-0.2-0.1-0.3c0-0.1,0-0.1,0.2-0.2c0,0,0.1,0,0.3-0.1c0.1,0,0.2,0,0.3-0.1c0.1,0,0.3-0.1,0.6-0.3c0.4-0.2,0.7-0.3,1.1-0.6
		c0.4-0.2,0.7-0.5,1-0.7c0.3-0.2,0.4-0.5,0.3-0.7c0,0-0.2-0.1-0.6-0.1c-0.4-0.1-1-0.2-1.9-0.3c-0.7-0.1-1.2-0.3-1.5-0.6
		s-0.6-0.7-0.8-1.3c-0.1-0.4-0.2-0.7-0.1-1c0.1-0.3,0.2-0.6,0.5-0.8c0.2-0.2,0.5-0.5,0.9-0.6c0.3-0.2,0.7-0.4,1.1-0.5
		c0,0,0.1,0,0.3-0.1c0.2,0,0.4,0,0.6,0c0.2,0,0.4,0,0.6,0.1c0.2,0.1,0.3,0.1,0.4,0.3c0,0,0,0.1,0,0.2c0,0.1-0.1,0.3-0.2,0.5
		c-0.1,0-0.2,0-0.3,0c-0.1,0-0.3,0-0.5,0c-0.2,0-0.4,0-0.5,0.1c-0.2,0-0.3,0.1-0.4,0.1c-0.4,0.2-0.8,0.4-1,0.6
		c-0.2,0.3-0.2,0.6-0.1,1.1c0.1,0.2,0.2,0.4,0.5,0.5c0.2,0.1,0.5,0.2,0.9,0.3c0.3,0.1,0.7,0.1,1,0.2s0.7,0.1,1.1,0.2
		c0.3,0.1,0.6,0.2,0.9,0.4C70.2,38,70.4,38.2,70.5,38.5z"/>
	<path class="st3" d="M80,35.8c0,0,0.1,0.1,0.1,0.1c0,0.1,0,0.3-0.1,0.5c0,0.1-0.1,0.2-0.2,0.4c-0.1,0.2-0.3,0.4-0.5,0.7
		c-0.2,0.3-0.5,0.5-0.9,0.8C78,38.7,77.6,39,77,39.2c-0.4,0.1-0.8,0.2-1.2,0.1c-0.4,0-0.9-0.2-1.3-0.4c-0.4-0.2-0.8-0.6-1.2-1
		c-0.4-0.4-0.7-1-0.9-1.7c-0.2-0.7-0.4-1.3-0.4-1.9c0-0.6,0-1.2,0.1-1.8c0.1-0.5,0.3-1,0.5-1.4c0.2-0.4,0.5-0.6,0.8-0.7
		c0.3-0.1,0.6-0.1,0.9-0.1c0.3,0,0.6,0.1,0.9,0.1c0.3,0.1,0.5,0.2,0.8,0.4c0.2,0.2,0.4,0.4,0.4,0.6c0.1,0.3,0.1,0.6-0.1,0.9
		c-0.1,0.4-0.3,0.7-0.6,1c-0.2,0.3-0.5,0.6-0.8,0.9c-0.3,0.3-0.5,0.4-0.7,0.5c-0.1,0-0.2,0-0.3,0c-0.1-0.1-0.2-0.2-0.2-0.3
		c-0.1-0.2,0-0.5,0.1-0.7c0.2-0.2,0.3-0.4,0.6-0.6c0.2-0.2,0.4-0.4,0.6-0.6s0.2-0.5,0.1-0.8c0,0-0.1-0.1-0.2-0.2
		c-0.1-0.1-0.4-0.1-0.8,0c-0.2,0.1-0.3,0.2-0.5,0.5s-0.3,0.6-0.3,1c-0.1,0.4-0.1,0.9-0.1,1.4c0,0.5,0.1,1,0.3,1.5
		c0.2,0.4,0.4,0.8,0.7,1.1s0.6,0.5,0.9,0.7c0.3,0.2,0.7,0.2,1.1,0.2c0.4,0,0.8,0,1.1-0.2c0.3-0.1,0.5-0.2,0.8-0.5s0.5-0.4,0.7-0.7
		c0.2-0.2,0.4-0.4,0.6-0.6c0.2-0.2,0.3-0.3,0.3-0.3c0,0,0.1,0,0.2,0C79.9,35.8,80,35.8,80,35.8z"/>
	<path class="st3" d="M86,27.9c0,0.1,0,0.2,0,0.3c-0.1,0.1-0.2,0.2-0.3,0.3c-0.1,0.1-0.2,0.2-0.4,0.3C85.1,28.9,85,29,84.9,29
		c-0.3,0.1-0.4,0.1-0.5,0.1c-0.1,0-0.2,0-0.2,0c-0.4,0.2-0.7,0.3-1,0.5c-0.2,0.2-0.4,0.3-0.5,0.5c-0.1,0.2-0.1,0.4-0.1,0.7
		c0,0.2,0.1,0.5,0.2,0.8c0.2,0.5,0.4,1,0.5,1.3c0.2,0.3,0.3,0.6,0.4,0.7s0.2,0.3,0.3,0.4c0.1,0.1,0.1,0.2,0.2,0.3
		c0,0.1,0,0.3-0.1,0.5c-0.1,0.2-0.2,0.3-0.3,0.4c-0.2,0.1-0.5,0-0.7-0.3c-0.3-0.3-0.6-0.7-0.9-1.1c-0.3-0.5-0.6-0.9-0.8-1.4
		c-0.2-0.5-0.4-0.8-0.5-1.1c-0.1-0.3-0.2-0.6-0.2-0.9c0-0.3-0.1-0.5,0-0.8c0-0.2,0-0.4,0.1-0.6c0.1-0.2,0.1-0.3,0.2-0.3
		c0.1,0,0.2,0,0.2,0c0.1,0,0.1,0.1,0.2,0.2s0.1,0.1,0.2,0.2c0.1,0,0.1,0.1,0.2,0c0.2-0.1,0.4-0.2,0.7-0.5c0.3-0.3,0.7-0.5,1.2-0.7
		c0.5-0.2,0.8-0.3,1-0.3c0.2-0.1,0.5-0.1,0.7-0.1c0.1,0,0.1,0,0.2,0C85.8,27.7,85.9,27.8,86,27.9z"/>
	<path class="st3" d="M92.5,24.2c0,0.1,0.1,0.3,0.1,0.7s0.1,0.9,0.2,1.4c0.1,0.3,0.1,0.8,0.2,1.4c0.1,0.6,0.4,1.5,0.8,2.6
		c0,0,0,0.1,0.1,0.3c0,0.1,0.1,0.3,0.1,0.5c0,0.2,0,0.3,0,0.5c0,0.2-0.1,0.3-0.3,0.3c-0.2,0.1-0.3,0-0.6,0c-0.5-0.1-1.1-0.4-1.6-0.6
		c-0.5-0.3-1-0.6-1.4-1s-0.8-0.8-1.1-1.3s-0.6-1-0.8-1.5c0-0.1,0-0.1,0.1-0.2c0.1-0.1,0.1-0.1,0.2-0.2c0.3-0.1,0.5,0,0.8,0.2
		c0.2,0.2,0.5,0.5,0.8,0.9c0.3,0.4,0.6,0.7,1,1.1c0.4,0.4,0.8,0.7,1.3,0.8c0-0.1,0-0.2,0-0.4c0-0.2-0.1-0.4-0.1-0.5
		c0-0.1-0.1-0.4-0.2-0.7c-0.1-0.4-0.2-0.7-0.3-1.1c-0.1-0.4-0.2-0.8-0.3-1.2c-0.1-0.4-0.2-0.6-0.2-0.8c0-0.1-0.1-0.2-0.1-0.4
		c0-0.1,0-0.3,0-0.4c0-0.1,0.1-0.3,0.1-0.4c0.1-0.1,0.2-0.2,0.4-0.3c0.1,0,0.2,0,0.5,0S92.4,24,92.5,24.2z"/>
	<path class="st3" d="M95.2,20.1c0,0,0,0.1-0.1,0.3c-0.1,0.1-0.2,0.3-0.3,0.5s-0.2,0.3-0.4,0.5c-0.1,0.1-0.3,0.2-0.4,0.3
		c-0.1,0-0.2,0.1-0.3,0.1c-0.1,0-0.2,0-0.4,0c-0.1,0-0.3,0-0.4-0.1c-0.1-0.1-0.2-0.2-0.3-0.3c-0.1-0.2-0.1-0.5,0-0.8
		c0.1-0.3,0.3-0.5,0.5-0.6c0,0,0.2,0,0.4-0.1c0.2,0,0.4,0,0.6,0s0.4,0,0.6,0C95.1,19.9,95.2,20,95.2,20.1z M99.5,29.3
		c0,0.1,0,0.3-0.2,0.4c-0.1,0.1-0.3,0.2-0.3,0.3c-0.2,0.1-0.4,0-0.6-0.2c-0.2-0.2-0.4-0.4-0.6-0.6c-0.2-0.3-0.4-0.5-0.6-0.7
		c-0.2-0.2-0.3-0.4-0.4-0.5c-0.1-0.2-0.3-0.3-0.4-0.5c-0.2-0.2-0.3-0.4-0.5-0.6c-0.2-0.2-0.3-0.4-0.4-0.5c-0.1-0.2-0.2-0.2-0.2-0.3
		c-0.1-0.2-0.1-0.5-0.1-0.7c0-0.2,0.1-0.4,0.2-0.4c0.2-0.1,0.4,0,0.6,0.2c0.3,0.2,0.5,0.4,0.8,0.7c0.3,0.3,0.6,0.6,0.9,1
		s0.6,0.7,0.8,1.1c0.2,0.3,0.4,0.6,0.6,0.9S99.5,29.2,99.5,29.3z"/>
	<path class="st3" d="M107.5,23.6c0.1,0.2,0.1,0.4,0.1,0.5c0,0.2,0,0.4,0,0.5c0,0.1-0.1,0.3-0.3,0.7c-0.2,0.4-0.4,0.8-0.7,1.3
		c-0.3,0.5-0.7,0.9-1.1,1.4c-0.4,0.5-0.9,0.8-1.3,0.9c-0.3,0.1-0.6,0.2-0.9,0.2c-0.3,0-0.7-0.1-1-0.2c-0.3-0.1-0.6-0.3-0.9-0.6
		c-0.3-0.3-0.5-0.7-0.7-1.2c-0.3-0.8-0.4-1.6-0.4-2.4c0-0.8,0.1-1.4,0.2-1.9c0.1-0.2,0.1-0.5,0.3-0.7c0.1-0.3,0.2-0.5,0.4-0.7
		c0.1-0.2,0.3-0.4,0.4-0.6c0.1-0.2,0.2-0.3,0.3-0.3c0.2-0.1,0.3-0.1,0.5,0c0.2,0,0.3,0.1,0.3,0.2c0,0.1,0.1,0.3,0,0.4
		c0,0.1-0.1,0.3-0.2,0.4c-0.1,0.2-0.2,0.4-0.3,0.6s-0.2,0.5-0.3,0.9c-0.2,0.7-0.3,1.4-0.3,2c0,0.7,0.1,1.2,0.3,1.6
		c0.2,0.4,0.5,0.7,0.9,0.9c0.4,0.1,0.8,0.1,1.2,0c0.6-0.2,1.2-0.6,1.6-1.1c0.4-0.5,0.7-0.9,0.9-1.4c0.2-0.5,0.4-0.9,0.5-1.3
		c0.1-0.4,0.2-0.6,0.3-0.6C107.3,23.2,107.4,23.3,107.5,23.6z"/>
	<path class="st3" d="M117.3,22.3c0,0,0.1,0.1,0.1,0.1c0,0.1,0,0.3-0.1,0.5c0,0.1-0.1,0.2-0.2,0.4c-0.1,0.2-0.3,0.4-0.5,0.7
		c-0.2,0.3-0.5,0.5-0.9,0.8s-0.8,0.5-1.4,0.7c-0.4,0.1-0.8,0.2-1.2,0.1c-0.4,0-0.9-0.2-1.3-0.4c-0.4-0.2-0.8-0.6-1.2-1
		c-0.4-0.4-0.7-1-0.9-1.7c-0.2-0.7-0.4-1.3-0.4-1.9c0-0.6,0-1.2,0.1-1.8c0.1-0.5,0.3-1,0.5-1.4c0.2-0.4,0.5-0.6,0.8-0.7
		c0.3-0.1,0.6-0.1,0.9-0.1c0.3,0,0.6,0.1,0.9,0.1c0.3,0.1,0.5,0.2,0.8,0.4c0.2,0.2,0.4,0.4,0.4,0.6c0.1,0.3,0.1,0.6-0.1,0.9
		c-0.1,0.4-0.3,0.7-0.6,1c-0.2,0.3-0.5,0.6-0.8,0.9c-0.3,0.3-0.5,0.4-0.7,0.5c-0.1,0-0.2,0-0.3,0c-0.1-0.1-0.2-0.2-0.2-0.3
		c-0.1-0.2,0-0.5,0.1-0.7c0.2-0.2,0.4-0.4,0.6-0.6c0.2-0.2,0.4-0.4,0.6-0.6c0.2-0.2,0.2-0.5,0.1-0.7c0,0-0.1-0.1-0.2-0.2
		c-0.1-0.1-0.4-0.1-0.8,0c-0.2,0.1-0.3,0.2-0.5,0.5c-0.1,0.3-0.3,0.6-0.3,1c-0.1,0.4-0.1,0.9-0.1,1.4s0.1,1,0.3,1.5
		c0.2,0.4,0.4,0.8,0.7,1.1c0.3,0.3,0.6,0.5,0.9,0.7c0.3,0.2,0.7,0.2,1.1,0.2c0.4,0,0.8,0,1.1-0.2c0.3-0.1,0.5-0.2,0.8-0.5
		c0.3-0.2,0.5-0.4,0.7-0.7c0.2-0.2,0.4-0.4,0.6-0.6c0.2-0.2,0.3-0.3,0.3-0.3c0,0,0.1,0,0.2,0C117.2,22.2,117.3,22.2,117.3,22.3z"/>
	<path class="st3" d="M124.6,18.8c0.1,0.3,0.1,0.6,0,0.9c-0.1,0.3-0.3,0.5-0.5,0.8s-0.5,0.5-0.9,0.7s-0.6,0.4-0.9,0.6
		c-0.3,0.2-0.6,0.3-0.8,0.4c-0.2,0.1-0.4,0.2-0.5,0.2c-0.4,0.1-0.7,0.2-0.9,0.1c-0.2,0-0.4-0.2-0.5-0.5c0-0.1-0.1-0.2-0.1-0.3
		c0-0.1,0-0.1,0.2-0.2c0.1,0,0.1,0,0.3-0.1c0.1,0,0.2,0,0.3-0.1c0.1,0,0.3-0.1,0.6-0.3c0.4-0.2,0.7-0.3,1.1-0.6
		c0.4-0.2,0.7-0.5,1-0.7c0.3-0.2,0.4-0.5,0.3-0.7c0,0-0.2-0.1-0.6-0.1c-0.4-0.1-1-0.2-1.9-0.3c-0.7-0.1-1.2-0.3-1.5-0.6
		c-0.3-0.3-0.6-0.7-0.8-1.3c-0.1-0.4-0.2-0.7-0.1-1c0.1-0.3,0.2-0.6,0.5-0.8c0.2-0.2,0.5-0.5,0.9-0.6c0.3-0.2,0.7-0.4,1.1-0.5
		c0,0,0.1,0,0.3-0.1c0.2,0,0.4,0,0.6,0c0.2,0,0.4,0,0.6,0.1c0.2,0.1,0.3,0.1,0.4,0.3c0,0,0,0.1,0,0.2c0,0.1-0.1,0.3-0.2,0.5
		c-0.1,0-0.2,0-0.3,0c-0.1,0-0.3,0-0.5,0c-0.2,0-0.4,0-0.5,0.1c-0.2,0-0.3,0.1-0.4,0.1c-0.4,0.2-0.8,0.4-1,0.6
		c-0.2,0.3-0.2,0.6-0.1,1.1c0.1,0.2,0.2,0.4,0.5,0.5c0.2,0.1,0.5,0.2,0.9,0.3c0.3,0.1,0.7,0.1,1.1,0.2c0.4,0,0.7,0.1,1.1,0.2
		c0.3,0.1,0.6,0.2,0.9,0.4C124.3,18.4,124.5,18.6,124.6,18.8z"/>
</g>
</svg>
